<svg xmlns="http://www.w3.org/2000/svg" width="85" height="92" viewBox="0 0 85 92">
  <g id="Grupo_985849" data-name="Grupo 985849" transform="translate(-1000 -871)">
    <rect id="Rectángulo_338865" data-name="Rectángulo 338865" width="85" height="92" rx="10" transform="translate(1000 871)" fill="#ff6e33"/>
    <g id="cuando" transform="translate(1009.999 884)">
      <g id="Grupo_985843" data-name="Grupo 985843" transform="translate(0.957 0.956)">
        <path id="Trazado_728353" data-name="Trazado 728353" d="M42.667,398.709a4.509,4.509,0,0,0-3.048-4.175L29.88,392.3v-1.571l-4.8,4.5-4.8-4.517V392.3l-9.739,2.237A4.511,4.511,0,0,0,7.5,398.8v6.4H42.669Z" transform="translate(-7.5 -341.873)" fill="#c9e0fd"/>
        <path id="Trazado_728354" data-name="Trazado 728354" d="M117.453,354.463v-3.807l-4.629-1.51-4.962,1.51v3.786l4.8,4.517Z" transform="translate(-95.073 -305.611)" fill="#ffe5c2"/>
        <path id="Trazado_728355" data-name="Trazado 728355" d="M181.547,398.858a4.508,4.508,0,0,0-3.048-4.175l-9.739-2.237v-1.571l-2.1,1.967,8.013,1.841a4.508,4.508,0,0,1,3.048,4.175l0,6.5h3.824Z" transform="translate(-146.379 -342.022)" fill="#bcd6f9"/>
        <path id="Trazado_728356" data-name="Trazado 728356" d="M137.884,350.655l-4.629-1.51-1.978.6,2.784.908v4.668a.892.892,0,0,0,.692.87l1.033.237,2.1-1.967Z" transform="translate(-115.503 -305.61)" fill="#fed2a4"/>
        <path id="Trazado_728357" data-name="Trazado 728357" d="M129.735,465.985l-1-5.624h-3.4l-1,5.624Z" transform="translate(-109.455 -402.654)" fill="#e07f84"/>
        <path id="Trazado_728358" data-name="Trazado 728358" d="M53.987,248.744H52.339a2.285,2.285,0,0,0-2.285,2.285v1.712a2.285,2.285,0,0,0,2.285,2.285h1.647Z" transform="translate(-44.631 -218.003)" fill="#fed2a4"/>
        <ellipse id="Elipse_5888" data-name="Elipse 5888" cx="23.749" cy="23.747" rx="23.749" ry="23.747" transform="translate(15.833)" fill="#e07f84"/>
        <ellipse id="Elipse_5889" data-name="Elipse 5889" cx="19.798" cy="19.796" rx="19.798" ry="19.796" transform="translate(19.793 3.943)" fill="#f7f4f7"/>
        <path id="Trazado_728359" data-name="Trazado 728359" d="M305.1,38.442q-.968,0-1.912.091a19.8,19.8,0,0,1,0,39.41q.944.09,1.912.091a19.8,19.8,0,1,0,0-39.593Z" transform="translate(-265.506 -34.499)" fill="#edeaed"/>
        <g id="Grupo_985842" data-name="Grupo 985842" transform="translate(33.03 12.84)">
          <g id="Grupo_985841" data-name="Grupo 985841">
            <path id="Trazado_728360" data-name="Trazado 728360" d="M273.263,124.127a2,2,0,0,1-1.995-1.995v-2.746a2,2,0,0,1,1.995-1.995,2.573,2.573,0,0,0,2.567-2.71,2.571,2.571,0,0,0-5.114-.221,2.615,2.615,0,0,0-.025.361,1.995,1.995,0,0,1-3.99,0,6.556,6.556,0,0,1,6.561-6.56h.134a6.58,6.58,0,0,1,6.418,6.213,6.507,6.507,0,0,1-1.794,4.862,6.585,6.585,0,0,1-2.763,1.731v1.065A2,2,0,0,1,273.263,124.127Z" transform="translate(-266.702 -108.26)" fill="#e07f84"/>
          </g>
          <circle id="Elipse_5890" data-name="Elipse 5890" cx="1.984" cy="1.984" r="1.984" transform="translate(4.577 17.831)" fill="#e07f84"/>
        </g>
        <path id="Trazado_728361" data-name="Trazado 728361" d="M190.22,182.636v-5.793a4.327,4.327,0,0,0-4.212-4.434H183.8v10.226Z" transform="translate(-161.333 -151.396)" fill="#665e66"/>
        <path id="Trazado_728362" data-name="Trazado 728362" d="M80.913,214.758h13.66a3.408,3.408,0,0,1,2.8,3.388v8.892a7.6,7.6,0,0,1-7.6,7.6H88.515a7.6,7.6,0,0,1-7.6-7.6v-12.28Z" transform="translate(-71.558 -188.347)" fill="#ffe5c2"/>
        <path id="Trazado_728363" data-name="Trazado 728363" d="M137.833,214.758h-3.824a3.408,3.408,0,0,1,2.8,3.388v8.892a7.6,7.6,0,0,1-6.318,7.492,7.66,7.66,0,0,0,1.284.108h1.256a7.6,7.6,0,0,0,7.6-7.6v-8.892A3.408,3.408,0,0,0,137.833,214.758Z" transform="translate(-114.818 -188.347)" fill="#fed2a4"/>
        <path id="Trazado_728364" data-name="Trazado 728364" d="M83.243,393.017l4.536,4.454,3.42-2.25L86.38,390.7Z" transform="translate(-73.591 -341.873)" fill="#9bc4f9"/>
        <path id="Trazado_728365" data-name="Trazado 728365" d="M153.452,393.017l-4.536,4.454-3.42-2.25,4.819-4.517Z" transform="translate(-127.911 -341.873)" fill="#9bc4f9"/>
        <path id="Trazado_728366" data-name="Trazado 728366" d="M210.079,248.744h1.647a2.285,2.285,0,0,1,2.285,2.285v1.712a2.285,2.285,0,0,1-2.285,2.285h-1.647Z" transform="translate(-184.265 -218.003)" fill="#ffe5c2"/>
        <path id="Trazado_728367" data-name="Trazado 728367" d="M71.5,170.677l-2.588,1.209a21.951,21.951,0,0,1-9.3,2.073H56.531v-3.907a7.5,7.5,0,0,1,7.3-7.68h6a4.234,4.234,0,0,1,4.122,4.339h0A4.355,4.355,0,0,1,71.5,170.677Z" transform="translate(-50.283 -142.637)" fill="#89808c"/>
        <path id="Trazado_728368" data-name="Trazado 728368" d="M69.827,162.372H66a4.235,4.235,0,0,1,4.122,4.339h0a4.354,4.354,0,0,1-2.45,3.966l-2.588,1.209a21.972,21.972,0,0,1-8.555,2.061v.013h3.083a21.952,21.952,0,0,0,9.3-2.073l2.588-1.209a4.355,4.355,0,0,0,2.45-3.966h0A4.235,4.235,0,0,0,69.827,162.372Z" transform="translate(-50.283 -142.637)" fill="#756e78"/>
        <path id="Trazado_728369" data-name="Trazado 728369" d="M129.354,427.519l.358,2.991h3.4l.382-2.991-2.08-1.369Z" transform="translate(-113.826 -372.802)" fill="#db636e"/>
      </g>
      <g id="Grupo_985848" data-name="Grupo 985848" transform="translate(0.001 0)">
        <path id="Trazado_728370" data-name="Trazado 728370" d="M208.675,339.522q-.042,0-.084,0a24.557,24.557,0,0,1-13.152-5.227.956.956,0,1,1,1.186-1.5,22.651,22.651,0,0,0,12.131,4.822.956.956,0,0,1-.082,1.908Z" transform="translate(-170.219 -290.205)"/>
        <path id="Trazado_728371" data-name="Trazado 728371" d="M153.352,49.316a.956.956,0,0,1-.082-1.908A22.792,22.792,0,1,0,128.8,20.851a.956.956,0,0,1-1.884-.321,24.707,24.707,0,1,1,26.519,28.782C153.407,49.315,153.379,49.316,153.352,49.316Z" transform="translate(-110.732 0)"/>
        <path id="Trazado_728372" data-name="Trazado 728372" d="M217.31,72.443a20.646,20.646,0,0,1-14.441-5.85.956.956,0,0,1,1.33-1.373,18.834,18.834,0,1,0,7.263-31.446.956.956,0,1,1-.593-1.817,20.755,20.755,0,1,1,6.441,40.485Z" transform="translate(-176.764 -26.996)"/>
        <path id="Trazado_728373" data-name="Trazado 728373" d="M159.379,67.022a.957.957,0,0,1-.938-1.146,20.775,20.775,0,0,1,9.912-13.8.956.956,0,1,1,.962,1.652,18.862,18.862,0,0,0-9,12.532A.956.956,0,0,1,159.379,67.022Z" transform="translate(-138.235 -45.323)"/>
        <g id="Grupo_985844" data-name="Grupo 985844" transform="translate(39.591 3.943)">
          <path id="Línea_214" data-name="Línea 214" d="M-6.544-1.629A.956.956,0,0,1-7.5-2.585V-6.544A.956.956,0,0,1-6.544-7.5a.956.956,0,0,1,.956.956v3.959A.956.956,0,0,1-6.544-1.629Z" transform="translate(7.5 7.5)"/>
          <path id="Línea_215" data-name="Línea 215" d="M-6.544-1.629A.956.956,0,0,1-7.5-2.585V-6.544A.956.956,0,0,1-6.544-7.5a.956.956,0,0,1,.956.956v3.959A.956.956,0,0,1-6.544-1.629Z" transform="translate(7.5 43.133)"/>
        </g>
        <path id="Línea_216" data-name="Línea 216" d="M-6.544-2.789a.953.953,0,0,1-.676-.28.956.956,0,0,1,0-1.352l2.8-2.8a.956.956,0,0,1,1.352,0,.956.956,0,0,1,0,1.352l-2.8,2.8A.953.953,0,0,1-6.544-2.789Z" transform="translate(58.29 17.241)"/>
        <g id="Grupo_985845" data-name="Grupo 985845" transform="translate(25.591 9.741)">
          <path id="Línea_217" data-name="Línea 217" d="M-3.744-2.789a.953.953,0,0,1-.676-.28l-2.8-2.8a.956.956,0,0,1,0-1.352.956.956,0,0,1,1.352,0l2.8,2.8a.956.956,0,0,1,0,1.352A.953.953,0,0,1-3.744-2.789Z" transform="translate(7.5 7.5)"/>
          <path id="Línea_218" data-name="Línea 218" d="M-3.744-2.789a.953.953,0,0,1-.676-.28l-2.8-2.8a.956.956,0,0,1,0-1.352.956.956,0,0,1,1.352,0l2.8,2.8a.956.956,0,0,1,0,1.352A.953.953,0,0,1-3.744-2.789Z" transform="translate(32.698 32.696)"/>
        </g>
        <g id="Grupo_985847" data-name="Grupo 985847" transform="translate(33.03 12.84)">
          <g id="Grupo_985846" data-name="Grupo 985846">
            <path id="Trazado_728374" data-name="Trazado 728374" d="M266.719,118.539a2.954,2.954,0,0,1-2.951-2.951v-2.746a2.954,2.954,0,0,1,2.951-2.95,1.615,1.615,0,0,0,.035-3.23,1.627,1.627,0,0,0-1.634,1.386,1.663,1.663,0,0,0-.016.229,2.951,2.951,0,0,1-5.9,0,7.511,7.511,0,0,1,7.517-7.516l.156,0a7.539,7.539,0,0,1,7.35,7.119,7.454,7.454,0,0,1-2.055,5.57,7.541,7.541,0,0,1-2.5,1.735v.4a2.95,2.95,0,0,1-2.951,2.95Zm.01-13.789a3.549,3.549,0,0,1,3.512,3.337,3.529,3.529,0,0,1-3.522,3.716,1.04,1.04,0,0,0-1.039,1.039v2.746a1.039,1.039,0,0,0,2.078,0v-1.065a.956.956,0,0,1,.664-.91,5.635,5.635,0,0,0,2.362-1.479,5.56,5.56,0,0,0,1.533-4.155,5.621,5.621,0,0,0-5.482-5.307h0a5.6,5.6,0,0,0-5.718,5.6,1.039,1.039,0,0,0,2.078,0,3.523,3.523,0,0,1,3.537-3.527Z" transform="translate(-259.202 -100.76)"/>
          </g>
          <path id="Elipse_5891" data-name="Elipse 5891" d="M-4.56-7.5a2.943,2.943,0,0,1,2.94,2.94,2.943,2.943,0,0,1-2.94,2.94A2.943,2.943,0,0,1-7.5-4.56,2.943,2.943,0,0,1-4.56-7.5Zm0,3.968A1.029,1.029,0,0,0-3.532-4.56,1.029,1.029,0,0,0-4.56-5.589,1.029,1.029,0,0,0-5.589-4.56,1.029,1.029,0,0,0-4.56-3.532Z" transform="translate(12.077 25.331)"/>
        </g>
        <path id="Línea_219" data-name="Línea 219" d="M-2.585-5.589h-3.96A.956.956,0,0,1-7.5-6.544.956.956,0,0,1-6.544-7.5h3.96a.956.956,0,0,1,.956.956A.956.956,0,0,1-2.585-5.589Z" transform="translate(62.929 31.239)"/>
        <path id="Línea_220" data-name="Línea 220" d="M-6.544-1.8A.956.956,0,0,1-7.5-2.759V-6.544A.956.956,0,0,1-6.544-7.5a.956.956,0,0,1,.956.956v3.786A.956.956,0,0,1-6.544-1.8Z" transform="translate(20.289 52.545)"/>
        <path id="Línea_221" data-name="Línea 221" d="M-6.547-5a.956.956,0,0,1-.931-.742A.956.956,0,0,1-6.76-6.892l2.546-.585a.956.956,0,0,1,1.146.717.956.956,0,0,1-.717,1.146l-2.546.585A.959.959,0,0,1-6.547-5Z" transform="translate(14.608 58.645)"/>
        <path id="Trazado_728375" data-name="Trazado 728375" d="M.957,425.855A.956.956,0,0,1,0,424.9v-6.4a5.468,5.468,0,0,1,3.69-5.17.956.956,0,1,1,.621,1.808,3.556,3.556,0,0,0-2.4,3.362v6.4A.956.956,0,0,1,.957,425.855Z" transform="translate(-0.001 -360.612)"/>
        <path id="Trazado_728376" data-name="Trazado 728376" d="M210.977,415.487a.956.956,0,0,1-.956-.955l0-6.5a3.557,3.557,0,0,0-2.4-3.272l-6.488-1.484a.956.956,0,0,1,.428-1.863l6.584,1.512a5.5,5.5,0,0,1,3.79,5.088l0,6.514a.956.956,0,0,1-.955.956Z" transform="translate(-174.852 -350.243)"/>
        <path id="Línea_222" data-name="Línea 222" d="M-6.544-1.781A.956.956,0,0,1-7.5-2.737V-6.544A.956.956,0,0,1-6.544-7.5a.956.956,0,0,1,.956.956v3.807A.956.956,0,0,1-6.544-1.781Z" transform="translate(29.88 52.545)"/>
        <path id="Trazado_728377" data-name="Trazado 728377" d="M83.226,229.048H81.971a8.566,8.566,0,0,1-8.558-8.556v-1.665a.956.956,0,1,1,1.911,0v1.665a6.653,6.653,0,0,0,6.646,6.645h1.256a6.653,6.653,0,0,0,6.646-6.645V211.6a2.444,2.444,0,0,0-2-2.445.956.956,0,0,1,.315-1.885,4.345,4.345,0,0,1,3.6,4.33v8.892A8.566,8.566,0,0,1,83.226,229.048Z" transform="translate(-64.058 -180.846)"/>
        <path id="Trazado_728378" data-name="Trazado 728378" d="M183.676,177.048a.956.956,0,0,1-.956-.956V170.3a3.376,3.376,0,0,0-3.256-3.478h-2.209a.956.956,0,0,1,0-1.911h2.209a5.288,5.288,0,0,1,5.167,5.389v5.793A.956.956,0,0,1,183.676,177.048Z" transform="translate(-153.834 -143.896)"/>
        <path id="Trazado_728379" data-name="Trazado 728379" d="M203.535,241.244h1.647a3.245,3.245,0,0,1,3.241,3.241V246.2a3.245,3.245,0,0,1-3.241,3.241h-1.647a.956.956,0,0,1-.956-.956V242.2A.956.956,0,0,1,203.535,241.244Zm1.647,6.283a1.331,1.331,0,0,0,1.33-1.33v-1.712a1.331,1.331,0,0,0-1.33-1.33h-.691v4.372Z" transform="translate(-176.765 -210.503)"/>
        <path id="Trazado_728380" data-name="Trazado 728380" d="M47.443,253.041H45.8a3.245,3.245,0,0,1-3.241-3.241v-1.712a3.241,3.241,0,0,1,1.168-2.492.956.956,0,0,1,1.226,1.467,1.334,1.334,0,0,0-.482,1.026V249.8a1.331,1.331,0,0,0,1.33,1.33h.691v-4.746a.956.956,0,0,1,1.911,0v5.7A.956.956,0,0,1,47.443,253.041Z" transform="translate(-37.132 -214.106)"/>
        <path id="Línea_223" data-name="Línea 223" d="M-6.544-4.512A.956.956,0,0,1-7.5-5.468V-6.544A.956.956,0,0,1-6.544-7.5a.956.956,0,0,1,.956.956v1.077A.956.956,0,0,1-6.544-4.512Z" transform="translate(21.543 41.355)"/>
        <path id="Línea_224" data-name="Línea 224" d="M-6.544-4.512A.956.956,0,0,1-7.5-5.468V-6.544A.956.956,0,0,1-6.544-7.5a.956.956,0,0,1,.956.956v1.077A.956.956,0,0,1-6.544-4.512Z" transform="translate(28.61 41.355)"/>
        <path id="Trazado_728381" data-name="Trazado 728381" d="M124.867,313.1a3.016,3.016,0,0,1-3.013-3.013.956.956,0,0,1,1.911,0,1.1,1.1,0,0,0,2.2,0,.956.956,0,0,1,1.911,0A3.016,3.016,0,0,1,124.867,313.1Z" transform="translate(-106.326 -269.737)"/>
        <path id="Trazado_728382" data-name="Trazado 728382" d="M53.07,168.371H49.987a.956.956,0,0,1-.956-.956v-3.907a8.459,8.459,0,0,1,8.251-8.635h6a5.2,5.2,0,0,1,5.077,5.295,5.317,5.317,0,0,1-3,4.832l-2.588,1.209A22.764,22.764,0,0,1,53.07,168.371Zm-2.127-1.911H53.07a20.867,20.867,0,0,0,8.892-1.984l2.588-1.209a3.4,3.4,0,0,0,1.9-3.1,3.284,3.284,0,0,0-3.166-3.383h-6a6.548,6.548,0,0,0-6.34,6.724Z" transform="translate(-42.783 -135.137)"/>
        <path id="Trazado_728383" data-name="Trazado 728383" d="M79.836,383.2a.954.954,0,0,1,.654.258l4.819,4.517a.956.956,0,0,1-.128,1.5l-3.42,2.25a.956.956,0,0,1-1.195-.117l-4.536-4.454a.956.956,0,0,1,.1-1.451l3.137-2.313A.953.953,0,0,1,79.836,383.2Zm3.281,5.341L79.763,385.4l-1.594,1.176,3.185,3.128Z" transform="translate(-66.091 -334.373)"/>
        <path id="Trazado_728384" data-name="Trazado 728384" d="M143.771,383.2a.953.953,0,0,1,.567.187l3.137,2.313a.956.956,0,0,1,.1,1.451l-4.536,4.454a.956.956,0,0,1-1.195.117l-3.42-2.25a.956.956,0,0,1-.128-1.5l4.819-4.517A.954.954,0,0,1,143.771,383.2Zm1.667,3.373-1.594-1.176-3.354,3.143,1.763,1.16Z" transform="translate(-120.411 -334.373)"/>
        <path id="Trazado_728385" data-name="Trazado 728385" d="M124.867,418.65a.955.955,0,0,1,.525.157l2.08,1.369a.956.956,0,0,1,.423.919l-.382,2.991a.956.956,0,0,1-.948.835h-3.4a.956.956,0,0,1-.949-.842l-.358-2.991a.956.956,0,0,1,.42-.909l2.057-1.369A.955.955,0,0,1,124.867,418.65Zm1.057,2.795-1.054-.693-1.041.693.188,1.565h1.708Z" transform="translate(-106.326 -365.302)"/>
        <path id="Trazado_728386" data-name="Trazado 728386" d="M123.188,460.4a.956.956,0,0,1-.94-.789l-.857-4.835H119.6l-.857,4.835a.956.956,0,0,1-1.882-.334l1-5.624a.956.956,0,0,1,.941-.789h3.4a.956.956,0,0,1,.941.789l1,5.624a.957.957,0,0,1-.942,1.123Z" transform="translate(-101.954 -395.154)"/>
      </g>
    </g>
  </g>
</svg>
