<svg xmlns="http://www.w3.org/2000/svg" width="85" height="92" viewBox="0 0 85 92">
  <g id="Grupo_985854" data-name="Grupo 985854" transform="translate(-370 -1137)">
    <rect id="Rectángulo_338867" data-name="Rectángulo 338867" width="85" height="92" rx="10" transform="translate(370 1137)" fill="#ff6e33"/>
    <g id="pregunta_1_" data-name="pregunta (1)" transform="translate(384 1154.996)">
      <g id="Grupo_985852" data-name="Grupo 985852" transform="translate(0.82 0.824)">
        <g id="Grupo_985851" data-name="Grupo 985851" transform="translate(5.981 16.771)">
          <path id="Trazado_728370" data-name="Trazado 728370" d="M104.58,182.3a21.206,21.206,0,1,0-42.407,0c0,11.868,9.493,12.764,21.2,12.764S104.58,194.168,104.58,182.3Z" transform="translate(-62.173 -160.81)" fill="#665e66"/>
          <path id="Trazado_728371" data-name="Trazado 728371" d="M83.1,195.066c-11.582-.014-20.925-.988-20.925-12.763a21.349,21.349,0,0,1,21.2-21.489c-5.96,0-10.791,9.621-10.791,21.489,0,11.684,4.682,12.734,10.513,12.763Z" transform="translate(-62.173 -160.814)" fill="#454045"/>
          <path id="Trazado_728372" data-name="Trazado 728372" d="M146.707,249.88a8.524,8.524,0,0,1-8.118,8.08q-5.641.267-11.283.108H127.3q-1.431-.04-2.861-.108a8.523,8.523,0,0,1-8.117-8.08q-.248-4.827-.04-9.656h0q.063-1.5.172-3.008c.7-3.3,3.417-6.126,7.219-7.781.112-.048.225-.1.34-.144a19.212,19.212,0,0,1,5.058-1.284,20.891,20.891,0,0,1,7.7.532h0c5.131,1.364,8.965,4.67,9.8,8.687a0,0,0,0,0,0,0A102.8,102.8,0,0,1,146.707,249.88Z" transform="translate(-110.276 -220.53)" fill="#f1d0a5"/>
          <path id="Trazado_728373" data-name="Trazado 728373" d="M127.306,269.684H127.3q-1.431-.04-2.861-.107a8.523,8.523,0,0,1-8.117-8.08,102.677,102.677,0,0,1,.132-12.664c.7-3.3,3.417-6.126,7.219-7.781.112-.048.225-.1.34-.144-.261,6.356-.322,15.563-.189,20.768C123.924,265.677,125.386,268.94,127.306,269.684Z" transform="translate(-110.277 -232.146)" fill="#f1b986"/>
          <path id="Trazado_728374" data-name="Trazado 728374" d="M137.545,228.539h0c-2.526,4.333-8.583,10.028-10.994,8.668-.882-.5-.767-1.525-.269-2.629a19.568,19.568,0,0,1-3.763,4.622c-1.621,1.366-3.575,2.214-5.466,1.023h0q.063-1.5.172-3.008c.7-3.3,3.417-6.126,7.219-7.781.112-.048.225-.1.34-.144a19.212,19.212,0,0,1,5.058-1.284,20.893,20.893,0,0,1,7.7.532Z" transform="translate(-111.049 -220.53)" fill="#665e66"/>
          <path id="Trazado_728375" data-name="Trazado 728375" d="M122.52,239.2c-1.621,1.366-3.575,2.214-5.466,1.023h0q.063-1.5.172-3.008c.7-3.3,3.417-6.126,7.219-7.781.112-.048.225-.1.34-.144a19.212,19.212,0,0,1,5.058-1.284,20.575,20.575,0,0,1,2.445-.143c-5.294,1.847-16.225,11.336-9.768,11.336Z" transform="translate(-111.05 -220.53)" fill="#454045"/>
          <g id="Grupo_985850" data-name="Grupo 985850" transform="translate(9.154 25.471)">
            <ellipse id="Elipse_5891" data-name="Elipse 5891" cx="2.594" cy="1.645" rx="2.594" ry="1.645" fill="#df9380"/>
            <ellipse id="Elipse_5892" data-name="Elipse 5892" cx="2.594" cy="1.645" rx="2.594" ry="1.645" transform="translate(18.979)" fill="#f9a58e"/>
          </g>
          <path id="Trazado_728376" data-name="Trazado 728376" d="M147.522,210.8a8.135,8.135,0,0,1-.146,1.541c-1.029-5.363-7.391-9.491-15.087-9.491a20.584,20.584,0,0,0-2.445.143,19.226,19.226,0,0,0-4.762,1.166q-.322.124-.636.262c-3.853,1.678-6.6,4.555-7.246,7.916a8.158,8.158,0,0,1-.145-1.536c0-4.012,2.962-7.524,7.391-9.451q.688-.3,1.421-.546a19.43,19.43,0,0,1,3.977-.884,20.564,20.564,0,0,1,2.445-.142C140.7,199.779,147.522,204.714,147.522,210.8Z" transform="translate(-111.052 -195.516)" fill="#80b4fb"/>
          <path id="Trazado_728377" data-name="Trazado 728377" d="M125.867,209.154l-.785,3.356q-.322.124-.636.262c-3.853,1.678-6.6,4.555-7.246,7.916a8.158,8.158,0,0,1-.145-1.536c0-4.012,2.962-7.524,7.391-9.451Q125.133,209.4,125.867,209.154Z" transform="translate(-111.051 -203.865)" fill="#5490f9"/>
        </g>
        <path id="Trazado_728378" data-name="Trazado 728378" d="M20.691,23.894H10.7a3.2,3.2,0,0,1-3.2-3.2V10.7a3.2,3.2,0,0,1,3.2-3.2h9.991a3.2,3.2,0,0,1,3.2,3.2v9.991A3.2,3.2,0,0,1,20.691,23.894Z" transform="translate(-7.5 -7.503)" fill="#da4a54"/>
        <path id="Trazado_728379" data-name="Trazado 728379" d="M13.021,23.894H10.7a3.2,3.2,0,0,1-3.2-3.2V10.7a3.2,3.2,0,0,1,3.2-3.2h2.321a3.2,3.2,0,0,0-3.2,3.2v9.991A3.2,3.2,0,0,0,13.021,23.894Z" transform="translate(-7.5 -7.503)" fill="#c32430"/>
        <path id="Trazado_728380" data-name="Trazado 728380" d="M367.86,23.894h-9.991a3.2,3.2,0,0,1-3.2-3.2V10.7a3.2,3.2,0,0,1,3.2-3.2h9.991a3.2,3.2,0,0,1,3.2,3.2v9.991A3.2,3.2,0,0,1,367.86,23.894Z" transform="translate(-316.691 -7.503)" fill="#6ec17d"/>
        <path id="Trazado_728381" data-name="Trazado 728381" d="M360.191,23.895H357.87a3.2,3.2,0,0,1-3.2-3.2V10.7a3.2,3.2,0,0,1,3.2-3.2h2.321a3.2,3.2,0,0,0-3.2,3.2v9.991A3.2,3.2,0,0,0,360.191,23.895Z" transform="translate(-316.692 -7.504)" fill="#5ea570"/>
      </g>
      <g id="Grupo_985853" data-name="Grupo 985853" transform="translate(0 0.004)">
        <path id="Trazado_728382" data-name="Trazado 728382" d="M76.694,153.313a22.194,22.194,0,0,0-22.024,22.31c0,5.938,2.319,9.782,7.083,11.744a9.317,9.317,0,0,0,7.86,5.017c2.361.111,4.737.167,7.114.167s4.754-.056,7.114-.167a9.319,9.319,0,0,0,7.879-5.05,11.125,11.125,0,0,0,4.31-3.037.821.821,0,0,0-1.249-1.064,8.771,8.771,0,0,1-2.257,1.873,9.476,9.476,0,0,0,.217-1.581,104.109,104.109,0,0,0-.113-12.454,8.957,8.957,0,0,0,.154-1.654c0-3.214-1.705-6.218-4.8-8.459a19.28,19.28,0,0,0-11.253-3.384,21.469,21.469,0,0,0-2.539.148,19.832,19.832,0,0,0-5.631,1.492,14.744,14.744,0,0,0-5.67,4.184,9.619,9.619,0,0,0-2.214,6.02,9.016,9.016,0,0,0,.155,1.66,103.914,103.914,0,0,0-.113,12.448,9.481,9.481,0,0,0,.225,1.618c-3.147-1.837-4.629-4.908-4.629-9.52a20.385,20.385,0,1,1,40.767,0,14.293,14.293,0,0,1-.816,5.08.82.82,0,1,0,1.533.586,15.905,15.905,0,0,0,.924-5.667,22.193,22.193,0,0,0-22.024-22.309Zm7.07,37.432c-4.669.22-9.4.22-14.074,0a7.681,7.681,0,0,1-7.337-7.3c-.143-2.777-.168-5.581-.081-8.377a4.165,4.165,0,0,0,1.114.153,4.658,4.658,0,0,0,1.138-.145c2.152-.541,4.081-2.544,5.352-4.184a2.136,2.136,0,0,0,.712.639c1.817,1.026,4.475-.677,6.385-2.286a28.227,28.227,0,0,0,5.385-6.133c4.479,1.357,7.851,4.281,8.616,7.848a102.475,102.475,0,0,1,.126,12.486A7.683,7.683,0,0,1,83.764,190.745ZM64.17,164.423a13.105,13.105,0,0,1,5.042-3.7,18.2,18.2,0,0,1,5.168-1.367,19.843,19.843,0,0,1,2.347-.136c6.447,0,11.919,3.012,13.756,7.152a13.643,13.643,0,0,0-3.272-2.858,19.757,19.757,0,0,0-10.483-2.862,21.455,21.455,0,0,0-2.539.148,19.844,19.844,0,0,0-5.631,1.491A14.772,14.772,0,0,0,63,166.327,8.971,8.971,0,0,1,64.17,164.423Zm5.042-.632a18.208,18.208,0,0,1,5.168-1.366,20.1,20.1,0,0,1,6.3.257,27.237,27.237,0,0,1-4.76,5.3c-2.447,2.062-3.965,2.426-4.521,2.112-.337-.19-.311-.722.077-1.58a.82.82,0,0,0-1.461-.744c-.778,1.371-3.352,5.069-5.887,5.706a2.679,2.679,0,0,1-1.785-.129c.039-.806.084-1.61.141-2.413C63.125,167.977,65.567,165.379,69.212,163.791Z" transform="translate(-48.689 -136.542)"/>
        <path id="Trazado_728383" data-name="Trazado 728383" d="M307.141,347.66a7.274,7.274,0,0,0-1.442-.133,2.821,2.821,0,0,0,.213-1.093c0-1.135-.62-2.059-1.382-2.059s-1.382.924-1.382,2.059a2.634,2.634,0,0,0,.409,1.461,4.132,4.132,0,0,0-.657.289.822.822,0,0,0,.412,1.531.813.813,0,0,0,.412-.112,4.8,4.8,0,0,1,3.1-.332.821.821,0,0,0,.31-1.611Z" transform="translate(-269.403 -306.703)"/>
        <path id="Trazado_728384" data-name="Trazado 728384" d="M166.456,348.185a4.145,4.145,0,0,0-.657-.289,2.634,2.634,0,0,0,.409-1.461c0-1.135-.62-2.059-1.382-2.059s-1.382.924-1.382,2.059a2.821,2.821,0,0,0,.213,1.093,7.274,7.274,0,0,0-1.442.133.82.82,0,0,0,.31,1.611,4.81,4.81,0,0,1,3.1.332.82.82,0,0,0,.825-1.418Z" transform="translate(-143.879 -306.704)"/>
        <path id="Trazado_728385" data-name="Trazado 728385" d="M216.67,428.971a.82.82,0,0,0,.009,1.641h0a4.385,4.385,0,0,1,2.658.79.82.82,0,0,0,1.16-1.16A5.956,5.956,0,0,0,216.67,428.971Z" transform="translate(-192.244 -382.044)"/>
        <path id="Trazado_728386" data-name="Trazado 728386" d="M18.031,14.015V4.024A4.025,4.025,0,0,0,14.011,0H7.982a.82.82,0,0,0,0,1.641h6.029a2.382,2.382,0,0,1,2.379,2.379v9.991a2.382,2.382,0,0,1-2.379,2.379H4.02a2.382,2.382,0,0,1-2.379-2.379V4.024A2.382,2.382,0,0,1,4.02,1.645H4.7A.82.82,0,1,0,4.7,0H4.02A4.025,4.025,0,0,0,0,4.024v9.991a4.025,4.025,0,0,0,4.02,4.02h9.991A4.025,4.025,0,0,0,18.031,14.015Z" transform="translate(0 -0.004)"/>
        <path id="Trazado_728387" data-name="Trazado 728387" d="M361.181,0H351.19a4.025,4.025,0,0,0-4.02,4.02v9.991a4.025,4.025,0,0,0,4.02,4.02h9.991a4.025,4.025,0,0,0,4.02-4.02V4.024A4.025,4.025,0,0,0,361.181,0Zm2.379,14.011a2.382,2.382,0,0,1-2.379,2.379H351.19a2.382,2.382,0,0,1-2.379-2.379V4.024a2.382,2.382,0,0,1,2.379-2.379h9.991a2.382,2.382,0,0,1,2.379,2.379Z" transform="translate(-309.192 -0.004)"/>
        <path id="Trazado_728388" data-name="Trazado 728388" d="M217.437,15.132a.82.82,0,0,0,.82-.82,2.7,2.7,0,0,1,.026-.373,2.667,2.667,0,1,1,2.642,3.041.82.82,0,0,0-.82.82v2.553a.82.82,0,0,0,1.641,0v-1.81a4.314,4.314,0,0,0,3.482-4.459,4.308,4.308,0,0,0-8.611.228A.82.82,0,0,0,217.437,15.132Z" transform="translate(-192.92 -8.91)"/>
        <path id="Trazado_728389" data-name="Trazado 728389" d="M249.32,121.041a.82.82,0,0,0-.82.82v.055a.82.82,0,1,0,1.641,0v-.055A.82.82,0,0,0,249.32,121.041Z" transform="translate(-221.316 -107.8)"/>
        <path id="Trazado_728390" data-name="Trazado 728390" d="M49.6,40.96a.82.82,0,0,0-1.16,0l-3.161,3.161L42.117,40.96a.82.82,0,0,0-1.16,1.16l3.161,3.161-3.161,3.161a.82.82,0,1,0,1.16,1.16l3.161-3.161L48.439,49.6a.82.82,0,0,0,1.16-1.16l-3.161-3.161L49.6,42.12a.82.82,0,0,0,0-1.16Z" transform="translate(-36.262 -36.265)"/>
        <path id="Trazado_728391" data-name="Trazado 728391" d="M394.05,34.727a.82.82,0,0,0-1.109.342l-4.061,7.691-2.755-3.543a.82.82,0,0,0-1.3,1.007l3.535,4.546a.821.821,0,0,0,.648.317c.024,0,.048,0,.072,0a.821.821,0,0,0,.654-.434l4.654-8.814A.82.82,0,0,0,394.05,34.727Z" transform="translate(-342.578 -30.843)"/>
      </g>
    </g>
  </g>
</svg>
