<svg xmlns="http://www.w3.org/2000/svg" xmlns:xlink="http://www.w3.org/1999/xlink" width="85" height="92" viewBox="0 0 85 92">
  <defs>
    <clipPath id="clip-path">
      <path id="path6700" d="M0-682.665H54.732v54.732H0Z" transform="translate(0 682.665)"/>
    </clipPath>
  </defs>
  <g id="Grupo_985855" data-name="Grupo 985855" transform="translate(-685 -1137)">
    <rect id="Rectángulo_338869" data-name="Rectángulo 338869" width="85" height="92" rx="10" transform="translate(685 1137)" fill="#ff6e33"/>
    <g id="g6690" transform="translate(700 1838.665)">
      <g id="g6692" transform="translate(3.154 -679.511)">
        <path id="path6694" d="M-89.227-187.742l8.587-8.587-7.777-7.777L-97-195.519Z" transform="translate(97.004 204.106)" fill="#a2e62e"/>
      </g>
      <g id="g6696" transform="translate(0 -682.665)">
        <g id="g6698" clip-path="url(#clip-path)">
          <g id="g6704" transform="translate(2.18 10.052)">
            <path id="path6706" d="M-119.772-143.67h0a3.356,3.356,0,0,1-4.745,0l-4.221-4.221a5.029,5.029,0,0,1,0-7.112l1.189-1.189,7.777,7.777a3.356,3.356,0,0,1,0,4.745" transform="translate(130.212 156.193)" fill="#bbec6c"/>
          </g>
          <g id="g6708" transform="translate(2.18 10.052)">
            <path id="path6710" d="M-128.107-131.228a3.341,3.341,0,0,1-.726,1.085,3.356,3.356,0,0,1-4.746,0l-4.22-4.221a5.027,5.027,0,0,1,0-7.112l1.189-1.19.056.056a5.027,5.027,0,0,0,.569,6.433l4.22,4.221a3.358,3.358,0,0,0,3.659.728" transform="translate(139.273 142.666)" fill="#a2e62e"/>
          </g>
          <g id="g6712" transform="translate(3.154 35.214)">
            <path id="path6714" d="M-187.742-98.514l-8.587-8.587-7.777,7.777,8.587,8.587Z" transform="translate(204.106 107.101)" fill="#5f99d7"/>
          </g>
          <g id="g6716" transform="translate(10.052 41.129)">
            <path id="path6718" d="M-143.67-11.275h0a3.355,3.355,0,0,1,0,4.745l-4.221,4.221a5.029,5.029,0,0,1-7.112,0L-156.193-3.5l7.777-7.777a3.356,3.356,0,0,1,4.745,0" transform="translate(156.193 12.258)" fill="#7bacdf"/>
          </g>
          <g id="g6720" transform="translate(10.051 41.129)">
            <path id="path6722" d="M-150.8-21.1a3.353,3.353,0,0,0-3.891.619l-7.766,7.765c-.1-.086-.2-.177-.3-.274l-1.19-1.19,7.777-7.778a3.358,3.358,0,0,1,4.746,0,3.313,3.313,0,0,1,.621.857" transform="translate(163.946 22.943)" fill="#5f99d7"/>
          </g>
          <g id="g6724" transform="translate(35.214 3.154)">
            <path id="path6726" d="M0-89.227,8.587-80.64l7.777-7.777L7.777-97Z" transform="translate(0 97.004)" fill="#dedbee"/>
          </g>
          <g id="g6728" transform="translate(31.174 2.18)">
            <path id="path6730" d="M-11.276-119.772h0a3.355,3.355,0,0,1,0-4.745l4.221-4.221a5.029,5.029,0,0,1,7.112,0l1.189,1.189-7.777,7.777a3.356,3.356,0,0,1-4.745,0" transform="translate(12.259 130.212)" fill="#faf7f7"/>
          </g>
          <g id="g6732" transform="translate(31.174 2.18)">
            <path id="path6734" d="M-23.725-128.107a3.341,3.341,0,0,1-1.085-.726,3.356,3.356,0,0,1,0-4.746l4.221-4.22a5.027,5.027,0,0,1,7.112,0l1.19,1.189-.056.056a5.027,5.027,0,0,0-6.433.569L-23-131.766a3.359,3.359,0,0,0-.728,3.659" transform="translate(25.793 139.273)" fill="#dedbee"/>
          </g>
          <g id="g6736" transform="translate(35.214 35.214)">
            <path id="path6738" d="M-98.514,0-107.1,8.587l7.777,7.777,8.587-8.587Z" transform="translate(107.101)" fill="#fd4755"/>
          </g>
          <g id="g6740" transform="translate(41.129 31.174)">
            <path id="path6742" d="M-11.275-11.276h0a3.355,3.355,0,0,1,4.745,0l4.221,4.221a5.029,5.029,0,0,1,0,7.112L-3.5,1.246l-7.777-7.777a3.356,3.356,0,0,1,0-4.745" transform="translate(12.258 12.259)" fill="#fe646f"/>
          </g>
          <g id="g6744" transform="translate(41.129 31.536)">
            <path id="path6746" d="M-21.1,0a3.353,3.353,0,0,0,.619,3.891l7.765,7.766c-.086.1-.177.2-.274.3l-1.19,1.19-7.778-7.777a3.358,3.358,0,0,1,0-4.746A3.314,3.314,0,0,1-21.1,0" transform="translate(22.943)" fill="#fd4755"/>
          </g>
          <g id="g6748" transform="translate(2.14 2.14)">
            <path id="path6750" d="M-266.795-9.367-289.233,13.07a2.788,2.788,0,0,0,0,3.942l22.438,22.438a2.788,2.788,0,0,0,3.942,0l22.438-22.438a2.788,2.788,0,0,0,0-3.942L-262.853-9.367a2.788,2.788,0,0,0-3.942,0" transform="translate(290.049 10.184)" fill="#b98080"/>
          </g>
          <g id="g6752" transform="translate(2.141 2.14)">
            <path id="path6754" d="M-64.651-312.019l22,22-.438.438a2.787,2.787,0,0,1-3.942,0L-69.47-312.019a2.787,2.787,0,0,1,0-3.941L-47.033-338.4a2.787,2.787,0,0,1,3.942,0l.438.438-22,22a2.787,2.787,0,0,0,0,3.941" transform="translate(70.286 339.215)" fill="#ae6c6c"/>
          </g>
          <g id="g6756" transform="translate(19.061 23.193)">
            <path id="path6758" d="M-74.295-173.5l-6.476-6.476,8.647-8.647,6.476,6.476Z" transform="translate(80.77 188.621)" fill="#dedbee"/>
          </g>
          <g id="g6760" transform="translate(21.523 22.391)">
            <path id="path6762" d="M-12.319-54.087a.8.8,0,0,1-.567-.235L-16.1-57.534a.8.8,0,0,1,0-1.134.8.8,0,0,1,1.134,0l2.645,2.645,7.513-7.513-5.342-5.342-4.309,4.309a.8.8,0,0,1-1.134,0,.8.8,0,0,1,0-1.134l4.876-4.876a.8.8,0,0,1,1.134,0L-3.105-64.1a.8.8,0,0,1,.235.567.8.8,0,0,1-.235.567l-8.647,8.647A.8.8,0,0,1-12.319-54.087Z" transform="translate(16.333 70.813)"/>
          </g>
          <g id="g6764" transform="translate(10.973 24.856)">
            <path id="path6766" d="M-74.295-173.5l-6.476-6.476,8.647-8.647,6.476,6.476Z" transform="translate(80.77 188.622)" fill="#faf7f7"/>
          </g>
          <g id="g6768" transform="translate(12.694 24.054)">
            <path id="path6770" d="M-5.246-132.607a.8.8,0,0,1-.567-.235l-3.952-3.952a.8.8,0,0,1,0-1.134.8.8,0,0,1,1.134,0l3.385,3.385,4.31-4.309,3.2-3.2L-3.074-147.4l-5.1,5.1a.8.8,0,0,1-1.134,0,.8.8,0,0,1,0-1.134l5.67-5.67a.8.8,0,0,1,.567-.235h0a.8.8,0,0,1,.567.235l6.475,6.476a.8.8,0,0,1,0,1.134L.2-137.717l-4.877,4.876A.8.8,0,0,1-5.246-132.607Z" transform="translate(10 149.333)"/>
          </g>
          <g id="g6772" transform="translate(37.15 20.724)">
            <path id="path6774" d="M-133.358,13.238a.8.8,0,0,1-.567-.235.8.8,0,0,1,0-1.134L-120.1-1.954a1.973,1.973,0,0,0,.581-1.4,1.973,1.973,0,0,0-.581-1.4l-3.869-3.869a.8.8,0,0,1,0-1.134.8.8,0,0,1,1.134,0l3.869,3.869a3.566,3.566,0,0,1,1.051,2.538A3.566,3.566,0,0,1-118.968-.82L-132.791,13A.8.8,0,0,1-133.358,13.238Z" transform="translate(134.16 10)"/>
          </g>
          <g id="g6776" transform="translate(1.339 10.77)">
            <path id="path6778" d="M-62.947-256.6a.8.8,0,0,1-.567-.235l-3.869-3.869a3.566,3.566,0,0,1-1.051-2.538,3.566,3.566,0,0,1,1.051-2.538L-53.558-279.6a.8.8,0,0,1,1.134,0,.8.8,0,0,1,0,1.134l-13.824,13.823a1.973,1.973,0,0,0-.581,1.4,1.973,1.973,0,0,0,.581,1.4l3.869,3.869a.8.8,0,0,1,0,1.134A.8.8,0,0,1-62.947-256.6Z" transform="translate(68.433 279.839)"/>
          </g>
          <g id="g6780" transform="translate(10.77 37.15)">
            <path id="path6782" d="M6.6,6.243A3.566,3.566,0,0,1,4.058,5.192L-9.765-8.631a.8.8,0,0,1,0-1.134.8.8,0,0,1,1.134,0L5.192,4.058A1.987,1.987,0,0,0,8,4.058L11.869.189A.8.8,0,0,1,13,1.323L9.134,5.192A3.566,3.566,0,0,1,6.6,6.243Z" transform="translate(10 10)"/>
          </g>
          <g id="g6784" transform="translate(20.724 1.339)">
            <path id="path6786" d="M12.437-52.19a.8.8,0,0,1-.567-.235L-1.954-66.248a1.973,1.973,0,0,0-1.4-.581,1.973,1.973,0,0,0-1.4.581L-8.631-62.38a.8.8,0,0,1-1.134,0,.8.8,0,0,1,0-1.134L-5.9-67.382a3.566,3.566,0,0,1,2.538-1.051A3.566,3.566,0,0,1-.82-67.382L13-53.558a.8.8,0,0,1,0,1.134A.8.8,0,0,1,12.437-52.19Z" transform="translate(10 68.433)"/>
          </g>
          <g id="g6788" transform="translate(47.104 32.404)">
            <path id="path6790" d="M-5.254.9A.8.8,0,0,1-5.662.784a.8.8,0,0,1-.281-1.1,4.223,4.223,0,0,0-.649-5.143L-9.765-8.631a.8.8,0,0,1,0-1.134.8.8,0,0,1,1.134,0l3.173,3.173A5.825,5.825,0,0,1-4.564.5.8.8,0,0,1-5.254.9Z" transform="translate(10 10)"/>
          </g>
          <g id="g6792" transform="translate(42.358 37.15)">
            <path id="path6794" d="M-6.33-5.529A.8.8,0,0,1-6.9-5.763L-9.765-8.631a.8.8,0,0,1,0-1.134.8.8,0,0,1,1.134,0L-5.763-6.9a.8.8,0,0,1,0,1.134A.8.8,0,0,1-6.33-5.529Z" transform="translate(10 10)"/>
          </g>
          <g id="g6796" transform="translate(29.688 39.642)">
            <path id="path6798" d="M-11.275-11.276h0a3.356,3.356,0,0,0,0,4.745L-5.568-.823a5.029,5.029,0,0,0,7.112,0L2.734-2.012-6.53-11.276a3.355,3.355,0,0,0-4.745,0" transform="translate(12.258 12.259)" fill="#fe646f"/>
          </g>
          <g id="g6800" transform="translate(29.688 40.005)">
            <path id="path6802" d="M-21.089,0a3.353,3.353,0,0,0,.62,3.89L-14.761,9.6a5.027,5.027,0,0,0,6.815.275l.012.012-1.19,1.19a5.029,5.029,0,0,1-7.112,0l-5.707-5.708a3.355,3.355,0,0,1,0-4.745A3.306,3.306,0,0,1-21.089,0" transform="translate(22.927 0)" fill="#fd4755"/>
          </g>
          <g id="g6804" transform="translate(28.888 38.841)">
            <path id="path6806" d="M-158.7-147.758a5.827,5.827,0,0,1-4.126-1.71l-5.708-5.708a4.162,4.162,0,0,1,0-5.879,4.132,4.132,0,0,1,2.94-1.218h0a4.128,4.128,0,0,1,2.939,1.217l5.4,5.4a.8.8,0,0,1,0,1.134.8.8,0,0,1-1.134,0l-5.4-5.4a2.532,2.532,0,0,0-1.805-.748,2.539,2.539,0,0,0-1.806.749,2.556,2.556,0,0,0,0,3.611l5.708,5.708a4.223,4.223,0,0,0,5.143.649.8.8,0,0,1,1.1.28.8.8,0,0,1-.28,1.1A5.811,5.811,0,0,1-158.7-147.758Z" transform="translate(169.753 162.273)"/>
          </g>
          <g id="g6808" transform="translate(40.694 40.694)">
            <path id="path6810" d="M-22.239-129.612a6.617,6.617,0,0,1,0-9.359,6.617,6.617,0,0,1,9.359,0c.1.1.2.2.288.308-.88,1.381,0,5.74-1.8,7.54s-6.1.7-7.541,1.8c-.105-.091-.207-.187-.307-.287" transform="translate(24.177 140.909)" fill="#ffdfcf"/>
          </g>
          <g id="g6812" transform="translate(40.694 41.528)">
            <path id="path6814" d="M-94.883-112.194c-2.059.591-4.908.118-6.025.972-.1-.092-.207-.188-.307-.288a6.617,6.617,0,0,1,0-9.359,6.63,6.63,0,0,1,1.458-1.1,6.617,6.617,0,0,0,1.1,7.9c.1.1.2.2.307.288a6.577,6.577,0,0,0,3.466,1.588" transform="translate(103.153 121.973)" fill="#ffcebf"/>
          </g>
          <g id="g6816" transform="translate(42.94 42.941)">
            <path id="path6818" d="M0-107.134a9.759,9.759,0,0,1,2.859-6.48,9.75,9.75,0,0,1,6.481-2.858,6.617,6.617,0,0,1-.288,9.051A6.617,6.617,0,0,1,0-107.134" transform="translate(0 116.472)" fill="#ffd15b"/>
          </g>
          <g id="g6820" transform="translate(42.939 48.033)">
            <path id="path6822" d="M-116.511-28.686a6.592,6.592,0,0,1-1.1,1.458,6.618,6.618,0,0,1-9.052.288,9.784,9.784,0,0,1,1.183-4.246,6.574,6.574,0,0,0,1.069,1.4c.1.1.2.2.307.288a6.62,6.62,0,0,0,7.6.815" transform="translate(126.666 31.187)" fill="#ffc344"/>
          </g>
          <g id="g6824" transform="translate(39.896 39.893)">
            <path id="path6826" d="M-26.717-136.071a7.371,7.371,0,0,1-5.246-2.173,7.428,7.428,0,0,1,0-10.493,7.371,7.371,0,0,1,5.246-2.173,7.371,7.371,0,0,1,5.246,2.173A7.371,7.371,0,0,1-19.3-143.49a7.371,7.371,0,0,1-2.173,5.246A7.371,7.371,0,0,1-26.717-136.071Zm0-13.235a5.778,5.778,0,0,0-4.113,1.7,5.823,5.823,0,0,0,0,8.225,5.778,5.778,0,0,0,4.113,1.7,5.778,5.778,0,0,0,4.113-1.7,5.778,5.778,0,0,0,1.7-4.113,5.778,5.778,0,0,0-1.7-4.113A5.778,5.778,0,0,0-26.717-149.307Z" transform="translate(34.133 150.91)"/>
          </g>
          <g id="g6828" transform="translate(42.139 42.139)">
            <path id="path6830" d="M-125.682.942h-.036A.8.8,0,0,1-126.483.1a10.56,10.56,0,0,1,3.092-7.012A10.56,10.56,0,0,1-116.379-10a.8.8,0,0,1,.837.765.8.8,0,0,1-.765.837,8.96,8.96,0,0,0-5.95,2.624,8.96,8.96,0,0,0-2.624,5.95A.8.8,0,0,1-125.682.942Z" transform="translate(126.484 10)"/>
          </g>
          <g id="g6832" transform="translate(32.404 1.376)">
            <path id="path6834" d="M-9.2-61.728a.8.8,0,0,1-.567-.235.8.8,0,0,1,0-1.134l3.173-3.173a5.826,5.826,0,0,1,7.1-.895.8.8,0,0,1,.281,1.1.8.8,0,0,1-1.1.281,4.223,4.223,0,0,0-5.143.649l-3.173,3.173A.8.8,0,0,1-9.2-61.728Z" transform="translate(10 67.98)"/>
          </g>
          <g id="g6836" transform="translate(37.15 7.902)">
            <path id="path6838" d="M-9.2-41.3a.8.8,0,0,1-.567-.235.8.8,0,0,1,0-1.134L-6.9-45.536a.8.8,0,0,1,1.134,0,.8.8,0,0,1,0,1.134l-2.868,2.868A.8.8,0,0,1-9.2-41.3Z" transform="translate(10 45.771)"/>
          </g>
          <g id="g6840" transform="translate(39.642 10.052)">
            <path id="path6842" d="M-11.275-160.724h0a3.356,3.356,0,0,0,4.745,0l5.708-5.708a5.029,5.029,0,0,0,0-7.112l-1.189-1.189-9.264,9.264a3.356,3.356,0,0,0,0,4.745" transform="translate(12.258 174.733)" fill="#faf7f7"/>
          </g>
          <g id="g6844" transform="translate(39.643 10.051)">
            <path id="path6846" d="M-23.738-169.064a3.349,3.349,0,0,1-1.086-.727,3.355,3.355,0,0,1,0-4.745l9.264-9.264,1.19,1.19a4.983,4.983,0,0,1,.569.678l-9.209,9.209a3.355,3.355,0,0,0-.727,3.659" transform="translate(25.807 183.8)" fill="#dedbee"/>
          </g>
          <g id="g6848" transform="translate(38.841 11.432)">
            <path id="path6850" d="M-158.115,4.41a4.144,4.144,0,0,1-2.939-1.216,4.132,4.132,0,0,1-1.218-2.94,4.129,4.129,0,0,1,1.217-2.94l5.4-5.4a.8.8,0,0,1,1.134,0,.8.8,0,0,1,0,1.134l-5.4,5.4a2.536,2.536,0,0,0-.748,1.805,2.539,2.539,0,0,0,.749,1.806,2.556,2.556,0,0,0,3.611,0l5.708-5.708a4.223,4.223,0,0,0,.649-5.143.8.8,0,0,1,.28-1.1.8.8,0,0,1,1.1.28,5.825,5.825,0,0,1-.895,7.1l-5.708,5.708A4.144,4.144,0,0,1-158.115,4.41Z" transform="translate(162.273 10.002)"/>
          </g>
          <g id="g6852" transform="translate(40.694 2.452)">
            <path id="path6854" d="M-129.612-110.682a6.617,6.617,0,0,1-9.359,0,6.617,6.617,0,0,1,0-9.359c.1-.1.2-.2.308-.288,1.381.88,5.74,0,7.54,1.8s.7,6.1,1.8,7.541c-.091.105-.187.207-.287.307" transform="translate(140.909 120.329)" fill="#d78878"/>
          </g>
          <g id="g6856" transform="translate(40.694 2.451)">
            <path id="path6858" d="M-36.971-122.177a6.619,6.619,0,0,1-1.284-1,6.617,6.617,0,0,1,0-9.359c.1-.1.2-.2.308-.289.958.61,3.346.374,5.321.772a6.571,6.571,0,0,0-3.035,1.514c-.106.092-.208.189-.309.289a6.618,6.618,0,0,0-1,8.075" transform="translate(40.193 132.826)" fill="#ca6e59"/>
          </g>
          <g id="g6860" transform="translate(42.941 0.802)">
            <path id="path6862" d="M-107.134-126.086a9.759,9.759,0,0,1-6.48-2.859,9.75,9.75,0,0,1-2.858-6.481,6.616,6.616,0,0,1,9.051.288,6.617,6.617,0,0,1,.287,9.052" transform="translate(116.472 137.076)" fill="#7a6d79"/>
          </g>
          <g id="g6864" transform="translate(42.941 0.802)">
            <path id="path6866" d="M-11.234-63.127a9.755,9.755,0,0,1-.979-3.853,6.617,6.617,0,0,1,9.051.289,6.618,6.618,0,0,1,1,1.284,6.618,6.618,0,0,0-7.766.713c-.106.092-.208.189-.309.289a6.578,6.578,0,0,0-1,1.278" transform="translate(12.213 68.629)" fill="#685e68"/>
          </g>
          <g id="g6868" transform="translate(39.892 0)">
            <path id="path6870" d="M-143.49-136.071a7.371,7.371,0,0,1-5.246-2.173,7.371,7.371,0,0,1-2.173-5.246,7.371,7.371,0,0,1,2.173-5.246,7.371,7.371,0,0,1,5.246-2.173,7.371,7.371,0,0,1,5.246,2.173,7.428,7.428,0,0,1,0,10.493A7.371,7.371,0,0,1-143.49-136.071Zm0-13.235a5.778,5.778,0,0,0-4.113,1.7,5.778,5.778,0,0,0-1.7,4.113,5.778,5.778,0,0,0,1.7,4.113,5.778,5.778,0,0,0,4.113,1.7,5.778,5.778,0,0,0,4.113-1.7,5.823,5.823,0,0,0,0-8.225A5.778,5.778,0,0,0-143.49-149.307Z" transform="translate(150.91 150.91)"/>
          </g>
          <g id="g6872" transform="translate(42.139 1.65)">
            <path id="path6874" d="M.141.942H.1A10.56,10.56,0,0,1-6.907-2.151,10.56,10.56,0,0,1-10-9.163.8.8,0,0,1-9.234-10a.8.8,0,0,1,.837.765,8.96,8.96,0,0,0,2.624,5.95A8.96,8.96,0,0,0,.176-.66.8.8,0,0,1,.141.942Z" transform="translate(10 10)"/>
          </g>
          <g id="g6876" transform="translate(11.432 47.104)">
            <path id="path6878" d="M-122.543-3.748a5.81,5.81,0,0,1-2.97-.816.8.8,0,0,1-.28-1.1.8.8,0,0,1,1.1-.28,4.223,4.223,0,0,0,5.143-.649l3.173-3.173a.8.8,0,0,1,1.134,0,.8.8,0,0,1,0,1.134l-3.173,3.173A5.827,5.827,0,0,1-122.543-3.748Z" transform="translate(125.905 10)"/>
          </g>
          <g id="g6880" transform="translate(13.111 42.358)">
            <path id="path6882" d="M-44.97-5.529a.8.8,0,0,1-.567-.235.8.8,0,0,1,0-1.134l2.868-2.868a.8.8,0,0,1,1.134,0,.8.8,0,0,1,0,1.134L-44.4-5.763A.8.8,0,0,1-44.97-5.529Z" transform="translate(45.772 10)"/>
          </g>
          <g id="g6884" transform="translate(2.18 29.688)">
            <path id="path6886" d="M-136.826-11.275h0a3.356,3.356,0,0,0-4.745,0l-5.708,5.708a5.029,5.029,0,0,0,0,7.112l1.189,1.189,9.264-9.264a3.356,3.356,0,0,0,0-4.745" transform="translate(148.752 12.258)" fill="#7bacdf"/>
          </g>
          <g id="g6888" transform="translate(2.18 29.688)">
            <path id="path6890" d="M-143.943-21.089a3.353,3.353,0,0,0-3.89.62l-5.707,5.707a5.027,5.027,0,0,0-.275,6.815l-.012.012-1.19-1.19a5.029,5.029,0,0,1,0-7.112l5.708-5.707a3.355,3.355,0,0,1,4.745,0,3.306,3.306,0,0,1,.62.855" transform="translate(156.49 22.927)" fill="#5f99d7"/>
          </g>
          <g id="g6892" transform="translate(1.376 28.888)">
            <path id="path6894" d="M-17.268-155.342a.8.8,0,0,1-.69-.393,5.825,5.825,0,0,1,.895-7.1l5.708-5.708a4.161,4.161,0,0,1,5.879,0,4.132,4.132,0,0,1,1.218,2.94,4.129,4.129,0,0,1-1.217,2.939l-5.4,5.4a.8.8,0,0,1-1.134,0,.8.8,0,0,1,0-1.134l5.4-5.4a2.536,2.536,0,0,0,.748-1.805,2.539,2.539,0,0,0-.749-1.806,2.556,2.556,0,0,0-3.611,0L-15.93-161.7a4.223,4.223,0,0,0-.649,5.143.8.8,0,0,1-.28,1.1A.8.8,0,0,1-17.268-155.342Z" transform="translate(18.774 169.753)"/>
          </g>
          <g id="g6896" transform="translate(2.453 40.694)">
            <path id="path6898" d="M-3.3-22.239a6.617,6.617,0,0,1,9.359,0,6.617,6.617,0,0,1,0,9.359c-.1.1-.2.2-.308.288-1.381-.88-5.74,0-7.54-1.8s-.7-6.1-1.8-7.541c.091-.105.187-.207.287-.307" transform="translate(3.584 24.177)" fill="#ffdfcf"/>
          </g>
          <g id="g6900" transform="translate(2.453 40.694)">
            <path id="path6902" d="M-11.148-94.883c-.591-2.059-.118-4.908-.972-6.025.092-.1.188-.207.288-.307a6.617,6.617,0,0,1,9.359,0,6.63,6.63,0,0,1,1.1,1.458,6.617,6.617,0,0,0-7.9,1.1c-.1.1-.2.2-.288.307a6.577,6.577,0,0,0-1.588,3.466" transform="translate(12.12 103.153)" fill="#ffcebf"/>
          </g>
          <g id="g6904" transform="translate(0.802 42.94)">
            <path id="path6906" d="M-18.939,0a9.759,9.759,0,0,1,6.48,2.859A9.75,9.75,0,0,1-9.6,9.34a6.617,6.617,0,0,1-9.051-.288A6.617,6.617,0,0,1-18.939,0" transform="translate(20.59)" fill="#7a6d79"/>
          </g>
          <g id="g6908" transform="translate(0.802 42.939)">
            <path id="path6910" d="M-38.965-116.511a6.592,6.592,0,0,1-1.458-1.1,6.618,6.618,0,0,1-.288-9.052,9.781,9.781,0,0,1,4.246,1.183,6.575,6.575,0,0,0-1.4,1.069c-.1.1-.2.2-.288.307a6.62,6.62,0,0,0-.815,7.6" transform="translate(42.361 126.666)" fill="#685e68"/>
          </g>
          <g id="g6912" transform="translate(0.004 39.893)">
            <path id="path6914" d="M-26.717-34.176A7.371,7.371,0,0,1-21.471-32,7.371,7.371,0,0,1-19.3-26.757a7.371,7.371,0,0,1-2.173,5.246,7.371,7.371,0,0,1-5.246,2.173,7.371,7.371,0,0,1-5.246-2.173,7.428,7.428,0,0,1,0-10.493A7.371,7.371,0,0,1-26.717-34.176Zm0,13.235a5.778,5.778,0,0,0,4.113-1.7,5.778,5.778,0,0,0,1.7-4.113,5.778,5.778,0,0,0-1.7-4.113,5.778,5.778,0,0,0-4.113-1.7,5.778,5.778,0,0,0-4.113,1.7,5.823,5.823,0,0,0,0,8.225A5.778,5.778,0,0,0-26.717-20.94Z" transform="translate(34.133 34.176)"/>
          </g>
          <g id="g6916" transform="translate(1.65 42.139)">
            <path id="path6918" d="M-116.344-115.541a.8.8,0,0,1-.8-.766,8.96,8.96,0,0,0-2.624-5.95,8.96,8.96,0,0,0-5.95-2.624.8.8,0,0,1-.765-.837.8.8,0,0,1,.837-.765,10.56,10.56,0,0,1,7.012,3.092,10.56,10.56,0,0,1,3.092,7.012.8.8,0,0,1-.765.837Z" transform="translate(126.484 126.484)"/>
          </g>
          <g id="g6920" transform="translate(1.376 11.432)">
            <path id="path6922" d="M-62.529-115.009a.8.8,0,0,1-.567-.235l-3.173-3.173a5.825,5.825,0,0,1-.895-7.1.8.8,0,0,1,1.1-.281.8.8,0,0,1,.281,1.1,4.223,4.223,0,0,0,.649,5.143l3.173,3.173a.8.8,0,0,1,0,1.134A.8.8,0,0,1-62.529-115.009Z" transform="translate(67.98 125.905)"/>
          </g>
          <g id="g6924" transform="translate(7.902 13.111)">
            <path id="path6926" d="M-42.1-41.3a.8.8,0,0,1-.567-.235L-45.536-44.4a.8.8,0,0,1,0-1.134.8.8,0,0,1,1.134,0l2.868,2.868a.8.8,0,0,1,0,1.134A.8.8,0,0,1-42.1-41.3Z" transform="translate(45.771 45.772)"/>
          </g>
          <g id="g6928" transform="translate(10.052 2.18)">
            <path id="path6930" d="M-160.724-136.826h0a3.356,3.356,0,0,0,0-4.745l-5.708-5.708a5.029,5.029,0,0,0-7.112,0l-1.189,1.189,9.264,9.264a3.356,3.356,0,0,0,4.745,0" transform="translate(174.733 148.752)" fill="#bbec6c"/>
          </g>
          <g id="g6932" transform="translate(10.052 3.084)">
            <path id="path6934" d="M-169.064-114a3.349,3.349,0,0,1-.727,1.086,3.355,3.355,0,0,1-4.745,0l-9.264-9.264,1.19-1.19a4.976,4.976,0,0,1,.678-.569l9.209,9.209a3.355,3.355,0,0,0,3.659.727" transform="translate(183.8 123.933)" fill="#a2e62e"/>
          </g>
          <g id="g6936" transform="translate(11.432 1.376)">
            <path id="path6938" d="M.254-4.259A4.128,4.128,0,0,1-2.685-5.476l-5.4-5.4a.8.8,0,0,1,0-1.134.8.8,0,0,1,1.134,0l5.4,5.4a2.532,2.532,0,0,0,1.805.748,2.539,2.539,0,0,0,1.806-.749,2.556,2.556,0,0,0,0-3.611L-3.647-15.93a4.223,4.223,0,0,0-5.143-.649.8.8,0,0,1-1.1-.28.8.8,0,0,1,.28-1.1,5.825,5.825,0,0,1,7.1.895l5.708,5.708a4.161,4.161,0,0,1,0,5.879A4.132,4.132,0,0,1,.254-4.259Z" transform="translate(10.002 18.774)"/>
          </g>
          <g id="g6940" transform="translate(2.452 2.453)">
            <path id="path6942" d="M-110.682-3.3a6.617,6.617,0,0,1,0,9.359,6.617,6.617,0,0,1-9.359,0c-.1-.1-.2-.2-.288-.308.88-1.381,0-5.74,1.8-7.54s6.1-.7,7.541-1.8c.105.091.207.187.307.287" transform="translate(120.329 3.584)" fill="#ffdfcf"/>
          </g>
          <g id="g6944" transform="translate(2.451 6.47)">
            <path id="path6946" d="M-122.177-49.853a6.619,6.619,0,0,1-1,1.284,6.617,6.617,0,0,1-9.359,0c-.1-.1-.2-.2-.289-.308.61-.958.374-3.346.772-5.321a6.571,6.571,0,0,0,1.514,3.035c.092.106.189.208.289.309a6.618,6.618,0,0,0,8.075,1" transform="translate(132.826 54.199)" fill="#ffcebf"/>
          </g>
          <g id="g6948" transform="translate(0.802 0.802)">
            <path id="path6950" d="M-126.086-18.939a9.759,9.759,0,0,1-2.859,6.48A9.75,9.75,0,0,1-135.426-9.6a6.616,6.616,0,0,1,.288-9.051,6.617,6.617,0,0,1,9.052-.287" transform="translate(137.076 20.59)" fill="#b98080"/>
          </g>
          <g id="g6952" transform="translate(0.802 1.738)">
            <path id="path6954" d="M-63.127-104.1a9.755,9.755,0,0,1-3.853.979,6.617,6.617,0,0,1,.289-9.051,6.619,6.619,0,0,1,1.284-1,6.618,6.618,0,0,0,.713,7.766c.092.106.189.208.289.309a6.578,6.578,0,0,0,1.278,1" transform="translate(68.629 113.173)" fill="#ae6c6c"/>
          </g>
          <g id="g6956" transform="translate(0 0)">
            <path id="path6958" d="M-143.49-34.176A7.371,7.371,0,0,1-138.244-32a7.428,7.428,0,0,1,0,10.493,7.371,7.371,0,0,1-5.246,2.173,7.371,7.371,0,0,1-5.246-2.173,7.371,7.371,0,0,1-2.173-5.246A7.371,7.371,0,0,1-148.737-32,7.371,7.371,0,0,1-143.49-34.176Zm0,13.235a5.778,5.778,0,0,0,4.113-1.7,5.823,5.823,0,0,0,0-8.225,5.778,5.778,0,0,0-4.113-1.7,5.778,5.778,0,0,0-4.113,1.7,5.778,5.778,0,0,0-1.7,4.113,5.778,5.778,0,0,0,1.7,4.113A5.778,5.778,0,0,0-143.49-20.94Z" transform="translate(150.91 34.176)"/>
          </g>
          <g id="g6960" transform="translate(1.65 1.65)">
            <path id="path6962" d="M-9.2-115.541a.8.8,0,0,1-.8-.766.8.8,0,0,1,.765-.837,8.96,8.96,0,0,0,5.95-2.624,8.96,8.96,0,0,0,2.624-5.95.8.8,0,0,1,.837-.765.8.8,0,0,1,.765.837,10.56,10.56,0,0,1-3.092,7.012,10.56,10.56,0,0,1-7.012,3.092Z" transform="translate(10 126.484)"/>
          </g>
        </g>
      </g>
    </g>
  </g>
</svg>
