<svg xmlns="http://www.w3.org/2000/svg" width="562.5" height="320.352" viewBox="0 0 562.5 320.352">
  <g id="Grupo_985662" data-name="Grupo 985662" transform="translate(-516 -3859.648)">
    <path id="Trazado_733172" data-name="Trazado 733172" d="M6.93-2.992h.047L9.9-11.375h2.977V0H10.594V-7.766l-.047-.008L7.734,0H6.188L3.375-7.789l-.047.008V0H1.047V-11.375H4.039ZM19.781,0a4.8,4.8,0,0,1-.215-.609,4.239,4.239,0,0,1-.129-.656,3.127,3.127,0,0,1-.93,1.023,2.33,2.33,0,0,1-1.375.406A2.855,2.855,0,0,1,15.086-.52a2.449,2.449,0,0,1-.719-1.863,2.229,2.229,0,0,1,.957-1.926,4.78,4.78,0,0,1,2.793-.684H19.4v-.672a1.315,1.315,0,0,0-.32-.945,1.257,1.257,0,0,0-.953-.336,1.239,1.239,0,0,0-.855.27.941.941,0,0,0-.3.738h-2.2l-.016-.047a2.144,2.144,0,0,1,.934-1.848,4.055,4.055,0,0,1,2.582-.777,3.784,3.784,0,0,1,2.465.766,2.667,2.667,0,0,1,.941,2.2v3.492a6.6,6.6,0,0,0,.09,1.117A5.606,5.606,0,0,0,22.055,0ZM17.7-1.523a1.944,1.944,0,0,0,1.063-.3,1.6,1.6,0,0,0,.641-.687V-3.7H18.117a1.519,1.519,0,0,0-1.1.359,1.181,1.181,0,0,0-.371.883.881.881,0,0,0,.277.684A1.1,1.1,0,0,0,17.7-1.523Zm5.344-2.633A5.493,5.493,0,0,1,23.9-7.383a2.8,2.8,0,0,1,2.434-1.227A2.413,2.413,0,0,1,27.57-8.3a2.766,2.766,0,0,1,.914.887L28.7-8.453h1.938V3.25H28.352V-.789a2.515,2.515,0,0,1-.879.711A2.629,2.629,0,0,1,26.32.164,2.858,2.858,0,0,1,23.9-.977a4.871,4.871,0,0,1-.863-3.016Zm2.273.164a3.511,3.511,0,0,0,.375,1.758,1.3,1.3,0,0,0,1.219.648,1.836,1.836,0,0,0,.859-.187,1.512,1.512,0,0,0,.586-.547V-6.07a1.607,1.607,0,0,0-.582-.578,1.681,1.681,0,0,0-.848-.2A1.286,1.286,0,0,0,25.7-6.1a4.244,4.244,0,0,0-.387,1.945ZM37.6-1.25A2.87,2.87,0,0,1,36.609-.2a2.63,2.63,0,0,1-1.4.367,2.57,2.57,0,0,1-2.09-.906,4.347,4.347,0,0,1-.754-2.812v-4.9h2.273v4.914a2.729,2.729,0,0,0,.3,1.52,1.081,1.081,0,0,0,.934.41,2.273,2.273,0,0,0,.938-.176,1.58,1.58,0,0,0,.641-.52V-8.453h2.281V0H37.844ZM43.852,0H41.57V-8.453h2.281Zm0-10.477H41.57v-1.711h2.281Zm3.961,2.023.1,1.211A3.092,3.092,0,0,1,48.953-8.25a2.7,2.7,0,0,1,1.383-.359,2.513,2.513,0,0,1,2,.824,3.908,3.908,0,0,1,.719,2.605V0H50.766V-5.172a2.024,2.024,0,0,0-.316-1.285,1.166,1.166,0,0,0-.949-.379,1.992,1.992,0,0,0-.895.191,1.746,1.746,0,0,0-.637.527V0H45.688V-8.453ZM59.742,0a4.8,4.8,0,0,1-.215-.609,4.239,4.239,0,0,1-.129-.656,3.127,3.127,0,0,1-.93,1.023,2.33,2.33,0,0,1-1.375.406A2.855,2.855,0,0,1,55.047-.52a2.449,2.449,0,0,1-.719-1.863,2.229,2.229,0,0,1,.957-1.926,4.78,4.78,0,0,1,2.793-.684h1.281v-.672a1.315,1.315,0,0,0-.32-.945,1.257,1.257,0,0,0-.953-.336,1.239,1.239,0,0,0-.855.27.941.941,0,0,0-.3.738h-2.2l-.016-.047a2.144,2.144,0,0,1,.934-1.848,4.055,4.055,0,0,1,2.582-.777,3.784,3.784,0,0,1,2.465.766,2.667,2.667,0,0,1,.941,2.2v3.492a6.605,6.605,0,0,0,.09,1.117A5.606,5.606,0,0,0,62.016,0ZM57.656-1.523a1.944,1.944,0,0,0,1.063-.3,1.6,1.6,0,0,0,.641-.687V-3.7H58.078a1.519,1.519,0,0,0-1.1.359,1.181,1.181,0,0,0-.371.883.881.881,0,0,0,.277.684A1.1,1.1,0,0,0,57.656-1.523ZM67.8-6.492l-.836-.023a1.519,1.519,0,0,0-.836.211,1.337,1.337,0,0,0-.5.594V0H63.352V-8.453h2.117l.1,1.25a2.667,2.667,0,0,1,.77-1.035,1.715,1.715,0,0,1,1.09-.371,1.7,1.7,0,0,1,.316.027q.145.027.293.066ZM71.383,0H69.1V-8.453h2.281Zm0-10.477H69.1v-1.711h2.281ZM78.242,0a4.8,4.8,0,0,1-.215-.609,4.238,4.238,0,0,1-.129-.656,3.127,3.127,0,0,1-.93,1.023,2.33,2.33,0,0,1-1.375.406A2.855,2.855,0,0,1,73.547-.52a2.449,2.449,0,0,1-.719-1.863,2.229,2.229,0,0,1,.957-1.926,4.78,4.78,0,0,1,2.793-.684h1.281v-.672a1.315,1.315,0,0,0-.32-.945,1.257,1.257,0,0,0-.953-.336,1.239,1.239,0,0,0-.855.27.941.941,0,0,0-.3.738h-2.2l-.016-.047a2.144,2.144,0,0,1,.934-1.848,4.055,4.055,0,0,1,2.582-.777,3.784,3.784,0,0,1,2.465.766,2.667,2.667,0,0,1,.941,2.2v3.492a6.6,6.6,0,0,0,.09,1.117A5.606,5.606,0,0,0,80.516,0ZM76.156-1.523a1.944,1.944,0,0,0,1.063-.3,1.6,1.6,0,0,0,.641-.687V-3.7H76.578a1.519,1.519,0,0,0-1.1.359,1.181,1.181,0,0,0-.371.883.881.881,0,0,0,.277.684A1.1,1.1,0,0,0,76.156-1.523Z" transform="translate(524 4171)" fill="#12263f"/>
    <path id="Trazado_733171" data-name="Trazado 733171" d="M4.922-3.086l.141.625h.047l.133-.6,2.477-8.312h2.406L6.258,0H3.914L.055-11.375H2.461ZM15.68,0a4.8,4.8,0,0,1-.215-.609,4.239,4.239,0,0,1-.129-.656,3.127,3.127,0,0,1-.93,1.023,2.33,2.33,0,0,1-1.375.406A2.855,2.855,0,0,1,10.984-.52a2.449,2.449,0,0,1-.719-1.863,2.229,2.229,0,0,1,.957-1.926,4.78,4.78,0,0,1,2.793-.684H15.3v-.672a1.315,1.315,0,0,0-.32-.945,1.257,1.257,0,0,0-.953-.336,1.239,1.239,0,0,0-.855.27.941.941,0,0,0-.3.738h-2.2l-.016-.047a2.144,2.144,0,0,1,.934-1.848,4.055,4.055,0,0,1,2.582-.777,3.784,3.784,0,0,1,2.465.766,2.667,2.667,0,0,1,.941,2.2v3.492a6.6,6.6,0,0,0,.09,1.117A5.606,5.606,0,0,0,17.953,0ZM13.594-1.523a1.944,1.944,0,0,0,1.063-.3,1.6,1.6,0,0,0,.641-.687V-3.7H14.016a1.519,1.519,0,0,0-1.1.359,1.181,1.181,0,0,0-.371.883.881.881,0,0,0,.277.684A1.1,1.1,0,0,0,13.594-1.523ZM23.734-6.492,22.9-6.516a1.519,1.519,0,0,0-.836.211,1.337,1.337,0,0,0-.5.594V0H19.289V-8.453h2.117l.1,1.25a2.667,2.667,0,0,1,.77-1.035,1.715,1.715,0,0,1,1.09-.371,1.7,1.7,0,0,1,.316.027q.145.027.293.066ZM27.32,0H25.039V-8.453H27.32Zm0-10.477H25.039v-1.711H27.32ZM34.18,0a4.8,4.8,0,0,1-.215-.609,4.239,4.239,0,0,1-.129-.656,3.127,3.127,0,0,1-.93,1.023,2.33,2.33,0,0,1-1.375.406A2.855,2.855,0,0,1,29.484-.52a2.449,2.449,0,0,1-.719-1.863,2.229,2.229,0,0,1,.957-1.926,4.78,4.78,0,0,1,2.793-.684H33.8v-.672a1.315,1.315,0,0,0-.32-.945,1.257,1.257,0,0,0-.953-.336,1.239,1.239,0,0,0-.855.27.941.941,0,0,0-.3.738h-2.2l-.016-.047a2.144,2.144,0,0,1,.934-1.848,4.055,4.055,0,0,1,2.582-.777,3.784,3.784,0,0,1,2.465.766,2.667,2.667,0,0,1,.941,2.2v3.492a6.605,6.605,0,0,0,.09,1.117A5.606,5.606,0,0,0,36.453,0ZM32.094-1.523a1.944,1.944,0,0,0,1.063-.3,1.6,1.6,0,0,0,.641-.687V-3.7H32.516a1.519,1.519,0,0,0-1.1.359,1.181,1.181,0,0,0-.371.883.881.881,0,0,0,.277.684A1.1,1.1,0,0,0,32.094-1.523Zm13.32-2.469A4.945,4.945,0,0,1,44.57-.969,2.854,2.854,0,0,1,42.133.164,2.576,2.576,0,0,1,40.84-.148a2.672,2.672,0,0,1-.934-.914L39.719,0h-1.93V-12.187h2.273v4.633a2.582,2.582,0,0,1,.879-.781,2.457,2.457,0,0,1,1.176-.273A2.8,2.8,0,0,1,44.57-7.395a5.577,5.577,0,0,1,.844,3.238Zm-2.273-.164a4.4,4.4,0,0,0-.363-1.957,1.275,1.275,0,0,0-1.238-.723,1.7,1.7,0,0,0-.9.223,1.543,1.543,0,0,0-.578.637V-2.4a1.449,1.449,0,0,0,.582.586,1.874,1.874,0,0,0,.91.2,1.3,1.3,0,0,0,1.234-.621,3.618,3.618,0,0,0,.352-1.762ZM49.219,0H46.938V-12.187h2.281Zm5.539.164A3.8,3.8,0,0,1,51.8-1a4.252,4.252,0,0,1-1.062-2.988V-4.3a4.628,4.628,0,0,1,1.031-3.109,3.506,3.506,0,0,1,2.836-1.2,3.282,3.282,0,0,1,2.613,1.043,4.122,4.122,0,0,1,.91,2.809v1.18H53.094l-.023.047A2.284,2.284,0,0,0,53.6-2.125a1.766,1.766,0,0,0,1.4.539,4.692,4.692,0,0,0,1.3-.156,5.307,5.307,0,0,0,1.105-.477l.617,1.406a4.234,4.234,0,0,1-1.375.7A6.1,6.1,0,0,1,54.758.164Zm-.148-7.016a1.267,1.267,0,0,0-1.059.473A2.371,2.371,0,0,0,53.1-5.125l.016.039H55.9v-.172a1.974,1.974,0,0,0-.3-1.168A1.127,1.127,0,0,0,54.609-6.852Z" transform="translate(642 4171)" fill="#12263f"/>
    <path id="Trazado_733170" data-name="Trazado 733170" d="M3.484,0H1.2V-11.375H3.484ZM7.656-8.453l.1,1.211A3.092,3.092,0,0,1,8.8-8.25a2.7,2.7,0,0,1,1.383-.359,2.513,2.513,0,0,1,2,.824A3.908,3.908,0,0,1,12.9-5.18V0H10.609V-5.172a2.024,2.024,0,0,0-.316-1.285,1.166,1.166,0,0,0-.949-.379,1.992,1.992,0,0,0-.895.191,1.746,1.746,0,0,0-.637.527V0H5.531V-8.453ZM19.172-2.344a.787.787,0,0,0-.363-.645,3.69,3.69,0,0,0-1.348-.473,5.375,5.375,0,0,1-2.254-.9,1.962,1.962,0,0,1-.77-1.633,2.329,2.329,0,0,1,.922-1.852,3.717,3.717,0,0,1,2.453-.766,4.011,4.011,0,0,1,2.566.766A2.237,2.237,0,0,1,21.3-5.937l-.016.047h-2.2a1.106,1.106,0,0,0-.328-.828,1.3,1.3,0,0,0-.945-.32,1.292,1.292,0,0,0-.867.273.85.85,0,0,0-.32.672.759.759,0,0,0,.332.637,3.7,3.7,0,0,0,1.348.441,5.484,5.484,0,0,1,2.316.918,2.014,2.014,0,0,1,.762,1.668,2.231,2.231,0,0,1-.977,1.867,4.215,4.215,0,0,1-2.578.727A3.918,3.918,0,0,1,15.16-.691a2.392,2.392,0,0,1-.934-1.949l.016-.047h2.086a1.186,1.186,0,0,0,.445.984,1.838,1.838,0,0,0,1.1.3,1.567,1.567,0,0,0,.965-.254A.824.824,0,0,0,19.172-2.344ZM28.031-1.25A2.87,2.87,0,0,1,27.039-.2a2.63,2.63,0,0,1-1.4.367,2.57,2.57,0,0,1-2.09-.906A4.347,4.347,0,0,1,22.8-3.555v-4.9H25.07v4.914a2.729,2.729,0,0,0,.3,1.52,1.081,1.081,0,0,0,.934.41,2.273,2.273,0,0,0,.938-.176,1.58,1.58,0,0,0,.641-.52V-8.453h2.281V0H28.273ZM34-8.453l.094,1.117a2.84,2.84,0,0,1,1.02-.941,2.932,2.932,0,0,1,1.418-.332,2.582,2.582,0,0,1,1.391.359A2.217,2.217,0,0,1,38.8-7.164a2.93,2.93,0,0,1,1.016-1.062,2.756,2.756,0,0,1,1.469-.383,2.408,2.408,0,0,1,1.973.887,4.233,4.233,0,0,1,.723,2.707V0H41.7V-5.023a2.369,2.369,0,0,0-.312-1.414,1.109,1.109,0,0,0-.93-.4,1.592,1.592,0,0,0-.84.215,1.565,1.565,0,0,0-.566.6q0,.148.008.254t.008.215V0H36.789V-5.023a2.376,2.376,0,0,0-.312-1.4,1.1,1.1,0,0,0-.937-.41,1.769,1.769,0,0,0-.809.176,1.551,1.551,0,0,0-.574.5V0H31.883V-8.453ZM45.375-4.3A4.536,4.536,0,0,1,46.43-7.4a3.676,3.676,0,0,1,2.922-1.207,3.715,3.715,0,0,1,2.938,1.2,4.512,4.512,0,0,1,1.063,3.1v.164a4.519,4.519,0,0,1-1.059,3.105,3.7,3.7,0,0,1-2.926,1.2,3.709,3.709,0,0,1-2.934-1.2,4.519,4.519,0,0,1-1.059-3.105Zm2.273.164a3.677,3.677,0,0,0,.406,1.855,1.4,1.4,0,0,0,1.313.7,1.389,1.389,0,0,0,1.293-.7,3.653,3.653,0,0,0,.41-1.852V-4.3a3.616,3.616,0,0,0-.414-1.836,1.4,1.4,0,0,0-1.3-.711,1.384,1.384,0,0,0-1.293.715,3.648,3.648,0,0,0-.41,1.832Zm11.68,1.8a.787.787,0,0,0-.363-.645,3.69,3.69,0,0,0-1.348-.473,5.375,5.375,0,0,1-2.254-.9,1.962,1.962,0,0,1-.77-1.633,2.329,2.329,0,0,1,.922-1.852,3.717,3.717,0,0,1,2.453-.766,4.011,4.011,0,0,1,2.566.766,2.237,2.237,0,0,1,.926,1.906l-.016.047h-2.2a1.106,1.106,0,0,0-.328-.828,1.3,1.3,0,0,0-.945-.32,1.292,1.292,0,0,0-.867.273.85.85,0,0,0-.32.672.759.759,0,0,0,.332.637,3.7,3.7,0,0,0,1.348.441,5.484,5.484,0,0,1,2.316.918,2.014,2.014,0,0,1,.762,1.668,2.231,2.231,0,0,1-.977,1.867,4.215,4.215,0,0,1-2.578.727,3.918,3.918,0,0,1-2.668-.855,2.392,2.392,0,0,1-.934-1.949l.016-.047h2.086a1.186,1.186,0,0,0,.445.984,1.838,1.838,0,0,0,1.1.3A1.567,1.567,0,0,0,59-1.652.824.824,0,0,0,59.328-2.344Z" transform="translate(750 4171)" fill="#12263f"/>
    <path id="Trazado_733173" data-name="Trazado 733173" d="M9.578-3.766l.016.047A3.561,3.561,0,0,1,8.484-.867,4.523,4.523,0,0,1,5.336.164a4.361,4.361,0,0,1-3.3-1.316,4.722,4.722,0,0,1-1.258-3.4V-6.812A4.809,4.809,0,0,1,2-10.215a4.182,4.182,0,0,1,3.219-1.324,4.8,4.8,0,0,1,3.25,1.016A3.5,3.5,0,0,1,9.609-7.664l-.016.047H7.375a2.236,2.236,0,0,0-.527-1.629,2.2,2.2,0,0,0-1.629-.535,1.839,1.839,0,0,0-1.6.824,3.645,3.645,0,0,0-.574,2.129v2.273a3.538,3.538,0,0,0,.605,2.141,1.968,1.968,0,0,0,1.684.828,2,2,0,0,0,1.527-.535,2.328,2.328,0,0,0,.5-1.645ZM10.7-4.3a4.536,4.536,0,0,1,1.055-3.1A3.676,3.676,0,0,1,14.68-8.609a3.715,3.715,0,0,1,2.938,1.2A4.512,4.512,0,0,1,18.68-4.3v.164a4.519,4.519,0,0,1-1.059,3.105A3.7,3.7,0,0,1,14.7.164a3.709,3.709,0,0,1-2.934-1.2A4.519,4.519,0,0,1,10.7-4.141Zm2.273.164a3.677,3.677,0,0,0,.406,1.855,1.4,1.4,0,0,0,1.313.7,1.389,1.389,0,0,0,1.293-.7,3.653,3.653,0,0,0,.41-1.852V-4.3a3.616,3.616,0,0,0-.414-1.836,1.4,1.4,0,0,0-1.3-.711,1.384,1.384,0,0,0-1.293.715,3.648,3.648,0,0,0-.41,1.832Zm11.68,1.8a.787.787,0,0,0-.363-.645,3.69,3.69,0,0,0-1.348-.473,5.375,5.375,0,0,1-2.254-.9,1.962,1.962,0,0,1-.77-1.633,2.329,2.329,0,0,1,.922-1.852A3.717,3.717,0,0,1,23.3-8.609a4.011,4.011,0,0,1,2.566.766,2.237,2.237,0,0,1,.926,1.906l-.016.047h-2.2a1.106,1.106,0,0,0-.328-.828,1.3,1.3,0,0,0-.945-.32,1.292,1.292,0,0,0-.867.273.85.85,0,0,0-.32.672.759.759,0,0,0,.332.637,3.7,3.7,0,0,0,1.348.441,5.484,5.484,0,0,1,2.316.918,2.014,2.014,0,0,1,.762,1.668,2.231,2.231,0,0,1-.977,1.867,4.215,4.215,0,0,1-2.578.727,3.918,3.918,0,0,1-2.668-.855,2.392,2.392,0,0,1-.934-1.949l.016-.047h2.086a1.186,1.186,0,0,0,.445.984,1.838,1.838,0,0,0,1.1.3,1.567,1.567,0,0,0,.965-.254A.824.824,0,0,0,24.656-2.344Zm6.414-8.18v2.07H32.5v1.6H31.07v4.3a.982.982,0,0,0,.207.7.727.727,0,0,0,.543.211,2.178,2.178,0,0,0,.313-.02,2.632,2.632,0,0,0,.3-.066L32.625-.07a4.618,4.618,0,0,1-.668.176,3.982,3.982,0,0,1-.707.059,2.431,2.431,0,0,1-1.816-.648A2.843,2.843,0,0,1,28.8-2.539V-6.852H27.563v-1.6H28.8v-2.07ZM33.555-4.3a4.536,4.536,0,0,1,1.055-3.1,3.676,3.676,0,0,1,2.922-1.207,3.715,3.715,0,0,1,2.938,1.2,4.512,4.512,0,0,1,1.063,3.1v.164a4.519,4.519,0,0,1-1.059,3.105,3.7,3.7,0,0,1-2.926,1.2,3.709,3.709,0,0,1-2.934-1.2,4.519,4.519,0,0,1-1.059-3.105Zm2.273.164a3.677,3.677,0,0,0,.406,1.855,1.4,1.4,0,0,0,1.313.7,1.389,1.389,0,0,0,1.293-.7,3.653,3.653,0,0,0,.41-1.852V-4.3a3.616,3.616,0,0,0-.414-1.836,1.4,1.4,0,0,0-1.3-.711,1.384,1.384,0,0,0-1.293.715,3.648,3.648,0,0,0-.41,1.832Zm11.68,1.8a.787.787,0,0,0-.363-.645A3.69,3.69,0,0,0,45.8-3.461a5.375,5.375,0,0,1-2.254-.9,1.962,1.962,0,0,1-.77-1.633A2.329,2.329,0,0,1,43.7-7.844a3.717,3.717,0,0,1,2.453-.766,4.011,4.011,0,0,1,2.566.766,2.237,2.237,0,0,1,.926,1.906l-.016.047h-2.2a1.106,1.106,0,0,0-.328-.828,1.3,1.3,0,0,0-.945-.32,1.292,1.292,0,0,0-.867.273.85.85,0,0,0-.32.672.759.759,0,0,0,.332.637,3.7,3.7,0,0,0,1.348.441,5.484,5.484,0,0,1,2.316.918,2.014,2.014,0,0,1,.762,1.668,2.231,2.231,0,0,1-.977,1.867,4.215,4.215,0,0,1-2.578.727A3.918,3.918,0,0,1,43.5-.691a2.392,2.392,0,0,1-.934-1.949l.016-.047h2.086a1.186,1.186,0,0,0,.445.984,1.838,1.838,0,0,0,1.1.3,1.567,1.567,0,0,0,.965-.254A.824.824,0,0,0,47.508-2.344Z" transform="translate(617 3919)" fill="#12263f"/>
    <path id="Trazado_733174" data-name="Trazado 733174" d="M9.578-3.766l.016.047A3.561,3.561,0,0,1,8.484-.867,4.523,4.523,0,0,1,5.336.164a4.361,4.361,0,0,1-3.3-1.316,4.722,4.722,0,0,1-1.258-3.4V-6.812A4.809,4.809,0,0,1,2-10.215a4.182,4.182,0,0,1,3.219-1.324,4.8,4.8,0,0,1,3.25,1.016A3.5,3.5,0,0,1,9.609-7.664l-.016.047H7.375a2.236,2.236,0,0,0-.527-1.629,2.2,2.2,0,0,0-1.629-.535,1.839,1.839,0,0,0-1.6.824,3.645,3.645,0,0,0-.574,2.129v2.273a3.538,3.538,0,0,0,.605,2.141,1.968,1.968,0,0,0,1.684.828,2,2,0,0,0,1.527-.535,2.328,2.328,0,0,0,.5-1.645ZM10.7-4.3a4.536,4.536,0,0,1,1.055-3.1A3.676,3.676,0,0,1,14.68-8.609a3.715,3.715,0,0,1,2.938,1.2A4.512,4.512,0,0,1,18.68-4.3v.164a4.519,4.519,0,0,1-1.059,3.105A3.7,3.7,0,0,1,14.7.164a3.709,3.709,0,0,1-2.934-1.2A4.519,4.519,0,0,1,10.7-4.141Zm2.273.164a3.677,3.677,0,0,0,.406,1.855,1.4,1.4,0,0,0,1.313.7,1.389,1.389,0,0,0,1.293-.7,3.653,3.653,0,0,0,.41-1.852V-4.3a3.616,3.616,0,0,0-.414-1.836,1.4,1.4,0,0,0-1.3-.711,1.384,1.384,0,0,0-1.293.715,3.648,3.648,0,0,0-.41,1.832ZM22.484,0H20.2V-12.187h2.281Zm6.859,0a4.8,4.8,0,0,1-.215-.609A4.239,4.239,0,0,1,29-1.266a3.127,3.127,0,0,1-.93,1.023A2.33,2.33,0,0,1,26.7.164,2.855,2.855,0,0,1,24.648-.52a2.449,2.449,0,0,1-.719-1.863,2.229,2.229,0,0,1,.957-1.926,4.78,4.78,0,0,1,2.793-.684h1.281v-.672a1.315,1.315,0,0,0-.32-.945,1.257,1.257,0,0,0-.953-.336,1.239,1.239,0,0,0-.855.27.941.941,0,0,0-.3.738h-2.2l-.016-.047a2.144,2.144,0,0,1,.934-1.848,4.055,4.055,0,0,1,2.582-.777,3.784,3.784,0,0,1,2.465.766,2.667,2.667,0,0,1,.941,2.2v3.492a6.6,6.6,0,0,0,.09,1.117A5.606,5.606,0,0,0,31.617,0ZM27.258-1.523a1.944,1.944,0,0,0,1.063-.3,1.6,1.6,0,0,0,.641-.687V-3.7H27.68a1.519,1.519,0,0,0-1.1.359,1.181,1.181,0,0,0-.371.883.881.881,0,0,0,.277.684A1.1,1.1,0,0,0,27.258-1.523Zm13.32-2.469a4.945,4.945,0,0,1-.844,3.023A2.854,2.854,0,0,1,37.3.164,2.576,2.576,0,0,1,36-.148a2.672,2.672,0,0,1-.934-.914L34.883,0h-1.93V-12.187h2.273v4.633a2.582,2.582,0,0,1,.879-.781,2.457,2.457,0,0,1,1.176-.273,2.8,2.8,0,0,1,2.453,1.215,5.577,5.577,0,0,1,.844,3.238ZM38.3-4.156a4.4,4.4,0,0,0-.363-1.957A1.275,1.275,0,0,0,36.7-6.836a1.7,1.7,0,0,0-.9.223,1.543,1.543,0,0,0-.578.637V-2.4a1.449,1.449,0,0,0,.582.586,1.874,1.874,0,0,0,.91.2,1.3,1.3,0,0,0,1.234-.621A3.618,3.618,0,0,0,38.3-3.992ZM41.633-4.3a4.536,4.536,0,0,1,1.055-3.1,3.676,3.676,0,0,1,2.922-1.207,3.715,3.715,0,0,1,2.938,1.2,4.512,4.512,0,0,1,1.063,3.1v.164a4.519,4.519,0,0,1-1.059,3.105,3.7,3.7,0,0,1-2.926,1.2,3.709,3.709,0,0,1-2.934-1.2,4.519,4.519,0,0,1-1.059-3.105Zm2.273.164a3.677,3.677,0,0,0,.406,1.855,1.4,1.4,0,0,0,1.313.7,1.389,1.389,0,0,0,1.293-.7,3.653,3.653,0,0,0,.41-1.852V-4.3a3.616,3.616,0,0,0-.414-1.836,1.4,1.4,0,0,0-1.3-.711,1.384,1.384,0,0,0-1.293.715,3.648,3.648,0,0,0-.41,1.832ZM55.461-6.492l-.836-.023a1.519,1.519,0,0,0-.836.211,1.337,1.337,0,0,0-.5.594V0H51.016V-8.453h2.117l.1,1.25A2.667,2.667,0,0,1,54-8.238a1.715,1.715,0,0,1,1.09-.371,1.705,1.705,0,0,1,.316.027q.145.027.293.066ZM61.633,0a4.8,4.8,0,0,1-.215-.609,4.239,4.239,0,0,1-.129-.656,3.127,3.127,0,0,1-.93,1.023,2.33,2.33,0,0,1-1.375.406A2.855,2.855,0,0,1,56.938-.52a2.449,2.449,0,0,1-.719-1.863,2.229,2.229,0,0,1,.957-1.926,4.78,4.78,0,0,1,2.793-.684H61.25v-.672a1.315,1.315,0,0,0-.32-.945,1.257,1.257,0,0,0-.953-.336,1.239,1.239,0,0,0-.855.27.941.941,0,0,0-.3.738h-2.2l-.016-.047a2.144,2.144,0,0,1,.934-1.848,4.055,4.055,0,0,1,2.582-.777,3.784,3.784,0,0,1,2.465.766,2.667,2.667,0,0,1,.941,2.2v3.492a6.605,6.605,0,0,0,.09,1.117A5.606,5.606,0,0,0,63.906,0ZM59.547-1.523a1.944,1.944,0,0,0,1.063-.3,1.6,1.6,0,0,0,.641-.687V-3.7H59.969a1.519,1.519,0,0,0-1.1.359,1.181,1.181,0,0,0-.371.883.881.881,0,0,0,.277.684A1.1,1.1,0,0,0,59.547-1.523Zm5.344-2.633a5.493,5.493,0,0,1,.863-3.227,2.8,2.8,0,0,1,2.434-1.227,2.367,2.367,0,0,1,1.141.273,2.744,2.744,0,0,1,.891.781v-4.633h2.289V0H70.563l-.2-1.039a2.826,2.826,0,0,1-.945.895,2.5,2.5,0,0,1-1.25.309A2.858,2.858,0,0,1,65.754-.977a4.871,4.871,0,0,1-.863-3.016Zm2.273.164a3.443,3.443,0,0,0,.375,1.746,1.306,1.306,0,0,0,1.219.637,1.775,1.775,0,0,0,.859-.2,1.589,1.589,0,0,0,.6-.582v-3.6a1.756,1.756,0,0,0-.6-.621,1.589,1.589,0,0,0-.848-.223,1.287,1.287,0,0,0-1.223.742,4.194,4.194,0,0,0-.387,1.938ZM73.922-4.3a4.536,4.536,0,0,1,1.055-3.1A3.676,3.676,0,0,1,77.9-8.609a3.715,3.715,0,0,1,2.938,1.2A4.512,4.512,0,0,1,81.9-4.3v.164A4.519,4.519,0,0,1,80.84-1.035a3.7,3.7,0,0,1-2.926,1.2,3.709,3.709,0,0,1-2.934-1.2,4.519,4.519,0,0,1-1.059-3.105Zm2.273.164A3.677,3.677,0,0,0,76.6-2.285a1.4,1.4,0,0,0,1.313.7,1.389,1.389,0,0,0,1.293-.7,3.653,3.653,0,0,0,.41-1.852V-4.3A3.616,3.616,0,0,0,79.2-6.141a1.4,1.4,0,0,0-1.3-.711,1.384,1.384,0,0,0-1.293.715A3.648,3.648,0,0,0,76.2-4.3ZM87.75-6.492l-.836-.023a1.519,1.519,0,0,0-.836.211,1.337,1.337,0,0,0-.5.594V0H83.3V-8.453h2.117l.1,1.25a2.667,2.667,0,0,1,.77-1.035,1.715,1.715,0,0,1,1.09-.371,1.7,1.7,0,0,1,.316.027q.145.027.293.066Zm4.7,6.656A3.8,3.8,0,0,1,89.5-1a4.252,4.252,0,0,1-1.062-2.988V-4.3a4.628,4.628,0,0,1,1.031-3.109,3.506,3.506,0,0,1,2.836-1.2,3.282,3.282,0,0,1,2.613,1.043,4.122,4.122,0,0,1,.91,2.809v1.18H90.789l-.023.047a2.284,2.284,0,0,0,.527,1.406,1.766,1.766,0,0,0,1.4.539A4.692,4.692,0,0,0,94-1.742,5.307,5.307,0,0,0,95.1-2.219l.617,1.406a4.234,4.234,0,0,1-1.375.7A6.1,6.1,0,0,1,92.453.164ZM92.3-6.852a1.267,1.267,0,0,0-1.059.473A2.371,2.371,0,0,0,90.8-5.125l.016.039h2.781v-.172a1.974,1.974,0,0,0-.3-1.168A1.127,1.127,0,0,0,92.3-6.852Zm9.422,4.508a.787.787,0,0,0-.363-.645,3.69,3.69,0,0,0-1.348-.473,5.375,5.375,0,0,1-2.254-.9,1.962,1.962,0,0,1-.77-1.633,2.329,2.329,0,0,1,.922-1.852,3.717,3.717,0,0,1,2.453-.766,4.011,4.011,0,0,1,2.566.766,2.237,2.237,0,0,1,.926,1.906l-.016.047h-2.2a1.106,1.106,0,0,0-.328-.828,1.3,1.3,0,0,0-.945-.32,1.292,1.292,0,0,0-.867.273.85.85,0,0,0-.32.672.759.759,0,0,0,.332.637,3.7,3.7,0,0,0,1.348.441,5.484,5.484,0,0,1,2.316.918,2.014,2.014,0,0,1,.762,1.668,2.231,2.231,0,0,1-.977,1.867,4.215,4.215,0,0,1-2.578.727,3.918,3.918,0,0,1-2.668-.855,2.392,2.392,0,0,1-.934-1.949l.016-.047h2.086a1.186,1.186,0,0,0,.445.984,1.838,1.838,0,0,0,1.1.3,1.567,1.567,0,0,0,.965-.254A.824.824,0,0,0,101.727-2.344Z" transform="translate(690 3919)" fill="#12263f"/>
    <path id="Trazado_733175" data-name="Trazado 733175" d="M9.578-3.766l.016.047A3.561,3.561,0,0,1,8.484-.867,4.523,4.523,0,0,1,5.336.164a4.361,4.361,0,0,1-3.3-1.316,4.722,4.722,0,0,1-1.258-3.4V-6.812A4.809,4.809,0,0,1,2-10.215a4.182,4.182,0,0,1,3.219-1.324,4.8,4.8,0,0,1,3.25,1.016A3.5,3.5,0,0,1,9.609-7.664l-.016.047H7.375a2.236,2.236,0,0,0-.527-1.629,2.2,2.2,0,0,0-1.629-.535,1.839,1.839,0,0,0-1.6.824,3.645,3.645,0,0,0-.574,2.129v2.273a3.538,3.538,0,0,0,.605,2.141,1.968,1.968,0,0,0,1.684.828,2,2,0,0,0,1.527-.535,2.328,2.328,0,0,0,.5-1.645ZM16.039,0a4.8,4.8,0,0,1-.215-.609,4.239,4.239,0,0,1-.129-.656,3.127,3.127,0,0,1-.93,1.023,2.33,2.33,0,0,1-1.375.406A2.855,2.855,0,0,1,11.344-.52a2.449,2.449,0,0,1-.719-1.863,2.229,2.229,0,0,1,.957-1.926,4.78,4.78,0,0,1,2.793-.684h1.281v-.672a1.315,1.315,0,0,0-.32-.945,1.257,1.257,0,0,0-.953-.336,1.239,1.239,0,0,0-.855.27.941.941,0,0,0-.3.738h-2.2l-.016-.047a2.144,2.144,0,0,1,.934-1.848,4.055,4.055,0,0,1,2.582-.777A3.784,3.784,0,0,1,17-7.844a2.667,2.667,0,0,1,.941,2.2v3.492a6.6,6.6,0,0,0,.09,1.117A5.606,5.606,0,0,0,18.313,0ZM13.953-1.523a1.944,1.944,0,0,0,1.063-.3,1.6,1.6,0,0,0,.641-.687V-3.7H14.375a1.519,1.519,0,0,0-1.1.359,1.181,1.181,0,0,0-.371.883.881.881,0,0,0,.277.684A1.1,1.1,0,0,0,13.953-1.523Zm10.875.273A2.87,2.87,0,0,1,23.836-.2a2.63,2.63,0,0,1-1.4.367,2.57,2.57,0,0,1-2.09-.906,4.347,4.347,0,0,1-.754-2.812v-4.9h2.273v4.914a2.729,2.729,0,0,0,.3,1.52,1.081,1.081,0,0,0,.934.41,2.273,2.273,0,0,0,.938-.176,1.58,1.58,0,0,0,.641-.52V-8.453h2.281V0H25.07ZM33.25-2.344a.787.787,0,0,0-.363-.645,3.69,3.69,0,0,0-1.348-.473,5.375,5.375,0,0,1-2.254-.9,1.962,1.962,0,0,1-.77-1.633,2.329,2.329,0,0,1,.922-1.852,3.717,3.717,0,0,1,2.453-.766,4.011,4.011,0,0,1,2.566.766,2.237,2.237,0,0,1,.926,1.906l-.016.047h-2.2a1.106,1.106,0,0,0-.328-.828,1.3,1.3,0,0,0-.945-.32,1.292,1.292,0,0,0-.867.273.85.85,0,0,0-.32.672.759.759,0,0,0,.332.637,3.7,3.7,0,0,0,1.348.441A5.484,5.484,0,0,1,34.7-4.1a2.014,2.014,0,0,1,.762,1.668,2.231,2.231,0,0,1-.977,1.867,4.215,4.215,0,0,1-2.578.727,3.918,3.918,0,0,1-2.668-.855A2.392,2.392,0,0,1,28.3-2.641l.016-.047h2.086a1.186,1.186,0,0,0,.445.984,1.838,1.838,0,0,0,1.1.3,1.567,1.567,0,0,0,.965-.254A.824.824,0,0,0,33.25-2.344ZM41.914,0A4.8,4.8,0,0,1,41.7-.609a4.239,4.239,0,0,1-.129-.656,3.127,3.127,0,0,1-.93,1.023,2.33,2.33,0,0,1-1.375.406A2.855,2.855,0,0,1,37.219-.52,2.449,2.449,0,0,1,36.5-2.383a2.229,2.229,0,0,1,.957-1.926,4.78,4.78,0,0,1,2.793-.684h1.281v-.672a1.315,1.315,0,0,0-.32-.945,1.257,1.257,0,0,0-.953-.336,1.239,1.239,0,0,0-.855.27.941.941,0,0,0-.3.738h-2.2l-.016-.047a2.144,2.144,0,0,1,.934-1.848,4.055,4.055,0,0,1,2.582-.777,3.784,3.784,0,0,1,2.465.766,2.667,2.667,0,0,1,.941,2.2v3.492a6.605,6.605,0,0,0,.09,1.117A5.606,5.606,0,0,0,44.188,0ZM39.828-1.523a1.944,1.944,0,0,0,1.063-.3,1.6,1.6,0,0,0,.641-.687V-3.7H40.25a1.519,1.519,0,0,0-1.1.359,1.181,1.181,0,0,0-.371.883.881.881,0,0,0,.277.684A1.1,1.1,0,0,0,39.828-1.523Z" transform="translate(666 3872)" fill="#12263f"/>
    <path id="Trazado_733176" data-name="Trazado 733176" d="M7.547-5H3.328v3.25H8.344V0h-7.3V-11.375H8.328v1.758h-5v2.859H7.547Zm2.68,5V-6.852H8.969v-1.6h1.258v-.937a2.859,2.859,0,0,1,.82-2.191,3.239,3.239,0,0,1,2.3-.77,4.168,4.168,0,0,1,.59.043q.3.043.66.121l-.2,1.7q-.187-.031-.363-.055a3.144,3.144,0,0,0-.41-.023,1.1,1.1,0,0,0-.84.3,1.234,1.234,0,0,0-.285.875v.938h1.625v1.6H12.508V0Zm8.461.164A3.8,3.8,0,0,1,15.734-1a4.252,4.252,0,0,1-1.062-2.988V-4.3A4.628,4.628,0,0,1,15.7-7.406a3.506,3.506,0,0,1,2.836-1.2,3.282,3.282,0,0,1,2.613,1.043,4.122,4.122,0,0,1,.91,2.809v1.18H17.023L17-3.531a2.284,2.284,0,0,0,.527,1.406,1.766,1.766,0,0,0,1.4.539,4.692,4.692,0,0,0,1.3-.156,5.307,5.307,0,0,0,1.105-.477l.617,1.406a4.234,4.234,0,0,1-1.375.7A6.1,6.1,0,0,1,18.688.164Zm-.148-7.016a1.267,1.267,0,0,0-1.059.473,2.371,2.371,0,0,0-.449,1.254l.016.039h2.781v-.172a1.974,1.974,0,0,0-.3-1.168A1.127,1.127,0,0,0,18.539-6.852Zm8.383,5.266a1.27,1.27,0,0,0,.945-.355,1.291,1.291,0,0,0,.352-.949H30.3l.016.047A2.645,2.645,0,0,1,29.359-.7a3.564,3.564,0,0,1-2.437.863,3.6,3.6,0,0,1-2.9-1.2A4.558,4.558,0,0,1,23-4.1v-.234A4.588,4.588,0,0,1,24.02-7.4a3.57,3.57,0,0,1,2.887-1.207,3.486,3.486,0,0,1,2.492.891,2.976,2.976,0,0,1,.914,2.344l-.016.047H28.219a1.687,1.687,0,0,0-.348-1.09,1.168,1.168,0,0,0-.965-.434,1.3,1.3,0,0,0-1.254.707,3.878,3.878,0,0,0-.371,1.809V-4.1a3.863,3.863,0,0,0,.371,1.82A1.32,1.32,0,0,0,26.922-1.586Zm7.453-8.937v2.07H35.8v1.6h-1.43v4.3a.982.982,0,0,0,.207.7.727.727,0,0,0,.543.211,2.178,2.178,0,0,0,.313-.02,2.632,2.632,0,0,0,.3-.066L35.93-.07a4.618,4.618,0,0,1-.668.176,3.982,3.982,0,0,1-.707.059,2.431,2.431,0,0,1-1.816-.648A2.843,2.843,0,0,1,32.1-2.539V-6.852H30.867v-1.6H32.1v-2.07ZM36.859-4.3a4.536,4.536,0,0,1,1.055-3.1,3.676,3.676,0,0,1,2.922-1.207,3.715,3.715,0,0,1,2.938,1.2,4.512,4.512,0,0,1,1.063,3.1v.164a4.519,4.519,0,0,1-1.059,3.105,3.7,3.7,0,0,1-2.926,1.2,3.709,3.709,0,0,1-2.934-1.2,4.519,4.519,0,0,1-1.059-3.105Zm2.273.164a3.677,3.677,0,0,0,.406,1.855,1.4,1.4,0,0,0,1.313.7,1.389,1.389,0,0,0,1.293-.7,3.653,3.653,0,0,0,.41-1.852V-4.3a3.616,3.616,0,0,0-.414-1.836,1.4,1.4,0,0,0-1.3-.711,1.384,1.384,0,0,0-1.293.715,3.648,3.648,0,0,0-.41,1.832Z" transform="translate(948 3872)" fill="#12263f"/>
    <line id="Línea_172" data-name="Línea 172" x2="560" transform="translate(518.5 3879.5)" fill="none" stroke="#ff6e33" stroke-width="2"/>
    <line id="Línea_173" data-name="Línea 173" y1="293" transform="translate(910.5 3879.5)" fill="none" stroke="#ff6e33" stroke-width="2"/>
    <g id="Grupo_985635" data-name="Grupo 985635">
      <rect id="Rectángulo_338892" data-name="Rectángulo 338892" width="351" height="6" transform="translate(540 4034)" fill="#ff6e33"/>
      <path id="Polígono_30" data-name="Polígono 30" d="M14.5,0,29,25H0Z" transform="translate(911 4023) rotate(90)" fill="#ff6e33"/>
    </g>
    <g id="Grupo_985636" data-name="Grupo 985636">
      <path id="Trazado_212096" data-name="Trazado 212096" d="M5208.961-7759.391l9.861,8.621-9.861,8.145" transform="translate(-4639 11699.891)" fill="none" stroke="#ff6e33" stroke-linecap="round" stroke-width="2"/>
      <line id="Línea_174" data-name="Línea 174" x2="52" transform="translate(527.5 3948.5)" fill="none" stroke="#ff6e33" stroke-linecap="round" stroke-width="2"/>
    </g>
    <g id="Grupo_985637" data-name="Grupo 985637" transform="translate(40 65.734)">
      <path id="Trazado_212096-2" data-name="Trazado 212096" d="M5208.961-7759.391l9.861,8.621-9.861,8.145" transform="translate(-4639 11699.891)" fill="none" stroke="#ff6e33" stroke-linecap="round" stroke-width="2"/>
      <line id="Línea_174-2" data-name="Línea 174" x2="52" transform="translate(527.5 3948.5)" fill="none" stroke="#ff6e33" stroke-linecap="round" stroke-width="2"/>
    </g>
    <g id="Grupo_985642" data-name="Grupo 985642" transform="translate(30 147.734)">
      <path id="Trazado_212096-3" data-name="Trazado 212096" d="M5208.961-7759.391l9.861,8.621-9.861,8.145" transform="translate(-4639 11699.891)" fill="none" stroke="#ff6e33" stroke-linecap="round" stroke-width="2"/>
      <line id="Línea_174-3" data-name="Línea 174" x2="52" transform="translate(527.5 3948.5)" fill="none" stroke="#ff6e33" stroke-linecap="round" stroke-width="2"/>
    </g>
    <g id="Grupo_985643" data-name="Grupo 985643" transform="translate(137 126.734)">
      <path id="Trazado_212096-4" data-name="Trazado 212096" d="M5208.961-7759.391l9.861,8.621-9.861,8.145" transform="translate(-4639 11699.891)" fill="none" stroke="#ff6e33" stroke-linecap="round" stroke-width="2"/>
      <line id="Línea_174-4" data-name="Línea 174" x2="52" transform="translate(527.5 3948.5)" fill="none" stroke="#ff6e33" stroke-linecap="round" stroke-width="2"/>
    </g>
    <g id="Grupo_985644" data-name="Grupo 985644" transform="translate(98 183.734)">
      <path id="Trazado_212096-5" data-name="Trazado 212096" d="M5208.961-7759.391l9.861,8.621-9.861,8.145" transform="translate(-4639 11699.891)" fill="none" stroke="#ff6e33" stroke-linecap="round" stroke-width="2"/>
      <line id="Línea_174-5" data-name="Línea 174" x2="52" transform="translate(527.5 3948.5)" fill="none" stroke="#ff6e33" stroke-linecap="round" stroke-width="2"/>
    </g>
    <g id="Grupo_985645" data-name="Grupo 985645" transform="translate(213 179.734)">
      <path id="Trazado_212096-6" data-name="Trazado 212096" d="M5208.961-7759.391l9.861,8.621-9.861,8.145" transform="translate(-4639 11699.891)" fill="none" stroke="#ff6e33" stroke-linecap="round" stroke-width="2"/>
      <line id="Línea_174-6" data-name="Línea 174" x2="52" transform="translate(527.5 3948.5)" fill="none" stroke="#ff6e33" stroke-linecap="round" stroke-width="2"/>
    </g>
    <g id="Grupo_985646" data-name="Grupo 985646" transform="translate(234 146.969)">
      <path id="Trazado_212096-7" data-name="Trazado 212096" d="M5208.961-7759.391l9.861,8.621-9.861,8.145" transform="translate(-4639 11699.891)" fill="none" stroke="#ff6e33" stroke-linecap="round" stroke-width="2"/>
      <line id="Línea_174-7" data-name="Línea 174" x2="52" transform="translate(527.5 3948.5)" fill="none" stroke="#ff6e33" stroke-linecap="round" stroke-width="2"/>
    </g>
    <g id="Grupo_985647" data-name="Grupo 985647" transform="translate(254 114.203)">
      <path id="Trazado_212096-8" data-name="Trazado 212096" d="M5208.961-7759.391l9.861,8.621-9.861,8.145" transform="translate(-4639 11699.891)" fill="none" stroke="#ff6e33" stroke-linecap="round" stroke-width="2"/>
      <line id="Línea_174-8" data-name="Línea 174" x2="52" transform="translate(527.5 3948.5)" fill="none" stroke="#ff6e33" stroke-linecap="round" stroke-width="2"/>
    </g>
    <g id="Grupo_985648" data-name="Grupo 985648" transform="matrix(0.559, -0.829, 0.829, 0.559, -2749.553, 2317.194)">
      <path id="Trazado_212096-9" data-name="Trazado 212096" d="M5208.961-7759.391l9.861,8.621-9.861,8.145" transform="translate(-4639 11699.891)" fill="none" stroke="#ff6e33" stroke-linecap="round" stroke-width="2"/>
      <line id="Línea_174-9" data-name="Línea 174" y1="3.748" x2="120.819" transform="translate(458.681 3948.5)" fill="none" stroke="#ff6e33" stroke-linecap="round" stroke-width="2"/>
    </g>
    <g id="Grupo_985649" data-name="Grupo 985649" transform="matrix(0.559, -0.829, 0.829, 0.559, -2861.553, 2320.389)">
      <path id="Trazado_212096-10" data-name="Trazado 212096" d="M5208.961-7759.391l9.861,8.621-9.861,8.145" transform="translate(-4639 11699.891)" fill="none" stroke="#ff6e33" stroke-linecap="round" stroke-width="2"/>
      <line id="Línea_174-10" data-name="Línea 174" y1="3.748" x2="120.819" transform="translate(458.681 3948.5)" fill="none" stroke="#ff6e33" stroke-linecap="round" stroke-width="2"/>
    </g>
    <g id="Grupo_985650" data-name="Grupo 985650" transform="matrix(0.559, -0.829, 0.829, 0.559, -2954.312, 2317.195)">
      <path id="Trazado_212096-11" data-name="Trazado 212096" d="M5208.961-7759.391l9.861,8.621-9.861,8.145" transform="translate(-4639 11699.891)" fill="none" stroke="#ff6e33" stroke-linecap="round" stroke-width="2"/>
      <line id="Línea_174-11" data-name="Línea 174" y1="3.748" x2="120.819" transform="translate(458.681 3948.5)" fill="none" stroke="#ff6e33" stroke-linecap="round" stroke-width="2"/>
    </g>
    <g id="Grupo_985651" data-name="Grupo 985651" transform="translate(573.901 3927.694) rotate(56)">
      <path id="Trazado_212096-12" data-name="Trazado 212096" d="M0,16.766,9.861,8.145,0,0" transform="translate(111.28 0)" fill="none" stroke="#ff6e33" stroke-linecap="round" stroke-width="2"/>
      <line id="Línea_174-12" data-name="Línea 174" x2="120.819" y2="3.748" transform="translate(0 5.018)" fill="none" stroke="#ff6e33" stroke-linecap="round" stroke-width="2"/>
    </g>
    <g id="Grupo_985652" data-name="Grupo 985652" transform="translate(678.4 3927.694) rotate(56)">
      <path id="Trazado_212096-13" data-name="Trazado 212096" d="M0,16.766,9.861,8.145,0,0" transform="translate(110.974 0)" fill="none" stroke="#ff6e33" stroke-linecap="round" stroke-width="2"/>
      <line id="Línea_174-13" data-name="Línea 174" x2="120.513" y2="3.748" transform="translate(0 5.018)" fill="none" stroke="#ff6e33" stroke-linecap="round" stroke-width="2"/>
    </g>
    <g id="Grupo_985653" data-name="Grupo 985653" transform="translate(786.987 3923.694) rotate(56)">
      <path id="Trazado_212096-14" data-name="Trazado 212096" d="M0,16.766,9.861,8.145,0,0" transform="translate(110.974 0)" fill="none" stroke="#ff6e33" stroke-linecap="round" stroke-width="2"/>
      <line id="Línea_174-14" data-name="Línea 174" x2="120.513" y2="3.748" transform="translate(0 5.018)" fill="none" stroke="#ff6e33" stroke-linecap="round" stroke-width="2"/>
    </g>
    <g id="Grupo_985638" data-name="Grupo 985638" transform="translate(104)">
      <path id="Trazado_212096-15" data-name="Trazado 212096" d="M5208.961-7759.391l9.861,8.621-9.861,8.145" transform="translate(-4639 11699.891)" fill="none" stroke="#ff6e33" stroke-linecap="round" stroke-width="2"/>
      <line id="Línea_174-15" data-name="Línea 174" x2="52" transform="translate(527.5 3948.5)" fill="none" stroke="#ff6e33" stroke-linecap="round" stroke-width="2"/>
    </g>
    <g id="Grupo_985654" data-name="Grupo 985654" transform="matrix(0.588, -0.809, 0.809, 0.588, -2872.488, 2083.205)">
      <path id="Trazado_212096-16" data-name="Trazado 212096" d="M5208.961-7759.391l9.861,8.621-9.861,8.145" transform="translate(-4660.322 11699.891)" fill="none" stroke="#ff6e33" stroke-linecap="round" stroke-width="2"/>
      <line id="Línea_174-16" data-name="Línea 174" x2="30.678" transform="translate(527.5 3948.5)" fill="none" stroke="#ff6e33" stroke-linecap="round" stroke-width="2"/>
    </g>
    <g id="Grupo_985655" data-name="Grupo 985655" transform="matrix(0.588, -0.809, 0.809, 0.588, -2845.951, 2118.139)">
      <path id="Trazado_212096-17" data-name="Trazado 212096" d="M5208.961-7759.391l9.861,8.621-9.861,8.145" transform="translate(-4660.322 11699.891)" fill="none" stroke="#ff6e33" stroke-linecap="round" stroke-width="2"/>
      <line id="Línea_174-17" data-name="Línea 174" x2="30.678" transform="translate(527.5 3948.5)" fill="none" stroke="#ff6e33" stroke-linecap="round" stroke-width="2"/>
    </g>
    <g id="Grupo_985656" data-name="Grupo 985656" transform="matrix(0.588, -0.809, 0.809, 0.588, -2731.327, 2195.636)">
      <path id="Trazado_212096-18" data-name="Trazado 212096" d="M5208.961-7759.391l9.861,8.621-9.861,8.145" transform="translate(-4660.322 11699.891)" fill="none" stroke="#ff6e33" stroke-linecap="round" stroke-width="2"/>
      <line id="Línea_174-18" data-name="Línea 174" x2="30.678" transform="translate(527.5 3948.5)" fill="none" stroke="#ff6e33" stroke-linecap="round" stroke-width="2"/>
    </g>
    <g id="Grupo_985657" data-name="Grupo 985657" transform="matrix(0.588, -0.809, 0.809, 0.588, -2840.88, 2208.636)">
      <path id="Trazado_212096-19" data-name="Trazado 212096" d="M5208.961-7759.391l9.861,8.621-9.861,8.145" transform="translate(-4660.322 11699.891)" fill="none" stroke="#ff6e33" stroke-linecap="round" stroke-width="2"/>
      <line id="Línea_174-19" data-name="Línea 174" x2="30.678" transform="translate(527.5 3948.5)" fill="none" stroke="#ff6e33" stroke-linecap="round" stroke-width="2"/>
    </g>
    <g id="Grupo_985658" data-name="Grupo 985658" transform="matrix(0.588, 0.809, -0.809, 0.588, 575.439, 3982.471)">
      <path id="Trazado_212096-20" data-name="Trazado 212096" d="M0,16.766,9.861,8.145,0,0" transform="translate(21.139)" fill="none" stroke="#ff6e33" stroke-linecap="round" stroke-width="2"/>
      <line id="Línea_174-20" data-name="Línea 174" x2="30.678" transform="translate(0 8.766)" fill="none" stroke="#ff6e33" stroke-linecap="round" stroke-width="2"/>
    </g>
    <g id="Grupo_985659" data-name="Grupo 985659" transform="matrix(0.588, 0.809, -0.809, 0.588, 775.063, 3962.471)">
      <path id="Trazado_212096-21" data-name="Trazado 212096" d="M0,16.766,9.861,8.145,0,0" transform="translate(21.139)" fill="none" stroke="#ff6e33" stroke-linecap="round" stroke-width="2"/>
      <line id="Línea_174-21" data-name="Línea 174" x2="30.678" transform="translate(0 8.766)" fill="none" stroke="#ff6e33" stroke-linecap="round" stroke-width="2"/>
    </g>
    <g id="Grupo_985660" data-name="Grupo 985660" transform="matrix(0.588, 0.809, -0.809, 0.588, 641.671, 4100.097)">
      <path id="Trazado_212096-22" data-name="Trazado 212096" d="M0,16.766,9.861,8.145,0,0" transform="translate(21.139)" fill="none" stroke="#ff6e33" stroke-linecap="round" stroke-width="2"/>
      <line id="Línea_174-22" data-name="Línea 174" x2="30.678" transform="translate(0 8.766)" fill="none" stroke="#ff6e33" stroke-linecap="round" stroke-width="2"/>
    </g>
    <g id="Grupo_985661" data-name="Grupo 985661" transform="matrix(0.588, 0.809, -0.809, 0.588, 582.565, 4063.086)">
      <path id="Trazado_212096-23" data-name="Trazado 212096" d="M0,16.766,9.861,8.145,0,0" transform="translate(21.139)" fill="none" stroke="#ff6e33" stroke-linecap="round" stroke-width="2"/>
      <line id="Línea_174-23" data-name="Línea 174" x2="30.678" transform="translate(0 8.766)" fill="none" stroke="#ff6e33" stroke-linecap="round" stroke-width="2"/>
    </g>
    <g id="Grupo_985639" data-name="Grupo 985639" transform="translate(126 35)">
      <path id="Trazado_212096-24" data-name="Trazado 212096" d="M5208.961-7759.391l9.861,8.621-9.861,8.145" transform="translate(-4639 11699.891)" fill="none" stroke="#ff6e33" stroke-linecap="round" stroke-width="2"/>
      <line id="Línea_174-24" data-name="Línea 174" x2="52" transform="translate(527.5 3948.5)" fill="none" stroke="#ff6e33" stroke-linecap="round" stroke-width="2"/>
    </g>
    <g id="Grupo_985640" data-name="Grupo 985640" transform="translate(213 -1)">
      <path id="Trazado_212096-25" data-name="Trazado 212096" d="M5208.961-7759.391l9.861,8.621-9.861,8.145" transform="translate(-4639 11699.891)" fill="none" stroke="#ff6e33" stroke-linecap="round" stroke-width="2"/>
      <line id="Línea_174-25" data-name="Línea 174" x2="52" transform="translate(527.5 3948.5)" fill="none" stroke="#ff6e33" stroke-linecap="round" stroke-width="2"/>
    </g>
    <g id="Grupo_985641" data-name="Grupo 985641" transform="translate(246 47)">
      <path id="Trazado_212096-26" data-name="Trazado 212096" d="M5208.961-7759.391l9.861,8.621-9.861,8.145" transform="translate(-4639 11699.891)" fill="none" stroke="#ff6e33" stroke-linecap="round" stroke-width="2"/>
      <line id="Línea_174-26" data-name="Línea 174" x2="52" transform="translate(527.5 3948.5)" fill="none" stroke="#ff6e33" stroke-linecap="round" stroke-width="2"/>
    </g>
    <path id="Sustracción_21" data-name="Sustracción 21" d="M-4565.5,11809a95.475,95.475,0,0,1-28.61-4.282,84.241,84.241,0,0,1-12.485-5.025,73.83,73.83,0,0,1-10.877-6.654,62.557,62.557,0,0,1-8.975-8.065,52.306,52.306,0,0,1-6.776-9.258A42.409,42.409,0,0,1-4639,11754.5a42.417,42.417,0,0,1,5.775-21.216,52.316,52.316,0,0,1,6.776-9.257,62.632,62.632,0,0,1,8.975-8.066,73.83,73.83,0,0,1,10.877-6.654,84.07,84.07,0,0,1,12.485-5.024,95.5,95.5,0,0,1,28.61-4.283,97.174,97.174,0,0,1,22.7,2.649,85.332,85.332,0,0,1,19.819,7.391,68.959,68.959,0,0,1,15.813,11.3,52.4,52.4,0,0,1,10.682,14.373l-57.43,19.146,58.05,17.128a51.372,51.372,0,0,1-10.478,14.863,68,68,0,0,1-15.9,11.715,84.944,84.944,0,0,1-20.119,7.68A97.077,97.077,0,0,1-4565.5,11809Z" transform="translate(5554 -7713)" fill="#ff6e33"/>
    <path id="Trazado_733177" data-name="Trazado 733177" d="M2.08-2.578V0H.654V-7.109h2.72A2.8,2.8,0,0,1,5.3-6.484a2.1,2.1,0,0,1,.7,1.646A2.081,2.081,0,0,1,5.3-3.2a2.814,2.814,0,0,1-1.929.62Zm0-1.1H3.374A1.186,1.186,0,0,0,4.277-4a1.155,1.155,0,0,0,.308-.828,1.209,1.209,0,0,0-.305-.847,1.165,1.165,0,0,0-.906-.334H2.08ZM9.7-4.058l-.522-.015a.95.95,0,0,0-.522.132.836.836,0,0,0-.312.371V0H6.919V-5.283H8.242l.063.781a1.667,1.667,0,0,1,.481-.647,1.072,1.072,0,0,1,.681-.232,1.066,1.066,0,0,1,.2.017q.09.017.183.042Zm.425,1.367a2.835,2.835,0,0,1,.659-1.936,2.3,2.3,0,0,1,1.826-.754,2.322,2.322,0,0,1,1.836.752,2.82,2.82,0,0,1,.664,1.938v.1a2.824,2.824,0,0,1-.662,1.941A2.312,2.312,0,0,1,12.617.1a2.318,2.318,0,0,1-1.833-.75,2.824,2.824,0,0,1-.662-1.941Zm1.421.1a2.3,2.3,0,0,0,.254,1.16.877.877,0,0,0,.82.437.868.868,0,0,0,.808-.439,2.283,2.283,0,0,0,.256-1.157v-.1a2.26,2.26,0,0,0-.259-1.147.876.876,0,0,0-.815-.444.865.865,0,0,0-.808.447,2.28,2.28,0,0,0-.256,1.145Zm4.224-.01a3.433,3.433,0,0,1,.54-2.017,1.752,1.752,0,0,1,1.521-.767,1.479,1.479,0,0,1,.713.171,1.715,1.715,0,0,1,.557.488v-2.9h1.431V0H19.312l-.122-.649A1.766,1.766,0,0,1,18.6-.09,1.562,1.562,0,0,1,17.817.1,1.786,1.786,0,0,1,16.306-.61a3.044,3.044,0,0,1-.54-1.885Zm1.421.1A2.152,2.152,0,0,0,17.422-1.4a.816.816,0,0,0,.762.4,1.109,1.109,0,0,0,.537-.125.993.993,0,0,0,.376-.364V-3.745a1.1,1.1,0,0,0-.374-.388.993.993,0,0,0-.53-.139.8.8,0,0,0-.764.464A2.621,2.621,0,0,0,17.188-2.6ZM24.868-.781a1.794,1.794,0,0,1-.62.654A1.644,1.644,0,0,1,23.374.1a1.606,1.606,0,0,1-1.306-.566A2.717,2.717,0,0,1,21.6-2.222V-5.283h1.421v3.071a1.706,1.706,0,0,0,.188.95.675.675,0,0,0,.583.256,1.421,1.421,0,0,0,.586-.11.988.988,0,0,0,.4-.325V-5.283H26.2V0H25.02Zm4.614-.21a.793.793,0,0,0,.591-.222.807.807,0,0,0,.22-.593h1.3l.01.029a1.653,1.653,0,0,1-.6,1.34A2.228,2.228,0,0,1,29.482.1a2.251,2.251,0,0,1-1.812-.75,2.849,2.849,0,0,1-.64-1.917V-2.71a2.867,2.867,0,0,1,.637-1.917,2.231,2.231,0,0,1,1.8-.754,2.179,2.179,0,0,1,1.558.557A1.86,1.86,0,0,1,31.6-3.359l-.01.029h-1.3a1.054,1.054,0,0,0-.217-.681.73.73,0,0,0-.6-.271.814.814,0,0,0-.784.442,2.423,2.423,0,0,0-.232,1.13v.146a2.414,2.414,0,0,0,.232,1.138A.825.825,0,0,0,29.482-.991Zm4.658-5.586v1.294h.894v1h-.894v2.69a.614.614,0,0,0,.129.439.454.454,0,0,0,.339.132,1.361,1.361,0,0,0,.2-.012A1.645,1.645,0,0,0,35-1.074l.117,1.03a2.886,2.886,0,0,1-.417.11A2.489,2.489,0,0,1,34.253.1,1.52,1.52,0,0,1,33.118-.3a1.777,1.777,0,0,1-.4-1.284v-2.7h-.771v-1h.771V-6.577ZM35.693-2.69a2.835,2.835,0,0,1,.659-1.936,2.3,2.3,0,0,1,1.826-.754,2.322,2.322,0,0,1,1.836.752,2.82,2.82,0,0,1,.664,1.938v.1a2.824,2.824,0,0,1-.662,1.941A2.312,2.312,0,0,1,38.188.1a2.318,2.318,0,0,1-1.833-.75,2.824,2.824,0,0,1-.662-1.941Zm1.421.1a2.3,2.3,0,0,0,.254,1.16.877.877,0,0,0,.82.437A.868.868,0,0,0,39-1.431a2.283,2.283,0,0,0,.256-1.157v-.1a2.26,2.26,0,0,0-.259-1.147.876.876,0,0,0-.815-.444.865.865,0,0,0-.808.447,2.28,2.28,0,0,0-.256,1.145Zm8.237-2.7.063.757a1.932,1.932,0,0,1,.649-.63,1.686,1.686,0,0,1,.864-.225,1.571,1.571,0,0,1,1.25.515,2.442,2.442,0,0,1,.449,1.628V0H47.2V-3.232a1.265,1.265,0,0,0-.2-.8.729.729,0,0,0-.593-.237,1.245,1.245,0,0,0-.559.12,1.091,1.091,0,0,0-.4.33V0H44.023V-5.283ZM49.473-2.69a2.835,2.835,0,0,1,.659-1.936,2.3,2.3,0,0,1,1.826-.754,2.322,2.322,0,0,1,1.836.752,2.82,2.82,0,0,1,.664,1.938v.1A2.824,2.824,0,0,1,53.8-.647,2.312,2.312,0,0,1,51.968.1a2.318,2.318,0,0,1-1.833-.75,2.824,2.824,0,0,1-.662-1.941Zm1.421.1a2.3,2.3,0,0,0,.254,1.16.877.877,0,0,0,.82.437.868.868,0,0,0,.808-.439,2.283,2.283,0,0,0,.256-1.157v-.1a2.26,2.26,0,0,0-.259-1.147.876.876,0,0,0-.815-.444.865.865,0,0,0-.808.447,2.28,2.28,0,0,0-.256,1.145Zm-48.14,13.6a.793.793,0,0,0,.591-.222.807.807,0,0,0,.22-.593h1.3l.01.029a1.653,1.653,0,0,1-.6,1.34,2.228,2.228,0,0,1-1.523.54,2.251,2.251,0,0,1-1.812-.75A2.849,2.849,0,0,1,.3,9.437V9.29A2.867,2.867,0,0,1,.94,7.374a2.231,2.231,0,0,1,1.8-.754A2.179,2.179,0,0,1,4.3,7.176a1.86,1.86,0,0,1,.571,1.465l-.01.029h-1.3a1.054,1.054,0,0,0-.217-.681.73.73,0,0,0-.6-.271.814.814,0,0,0-.784.442,2.423,2.423,0,0,0-.232,1.13v.146a2.414,2.414,0,0,0,.232,1.138A.825.825,0,0,0,2.754,11.009Zm2.729-1.7a2.835,2.835,0,0,1,.659-1.936,2.3,2.3,0,0,1,1.826-.754A2.322,2.322,0,0,1,9.8,7.371a2.82,2.82,0,0,1,.664,1.938v.1a2.824,2.824,0,0,1-.662,1.941,2.312,2.312,0,0,1-1.829.75,2.318,2.318,0,0,1-1.833-.75,2.824,2.824,0,0,1-.662-1.941Zm1.421.1a2.3,2.3,0,0,0,.254,1.16.877.877,0,0,0,.82.437.868.868,0,0,0,.808-.439,2.283,2.283,0,0,0,.256-1.157v-.1a2.26,2.26,0,0,0-.259-1.147.876.876,0,0,0-.815-.444.865.865,0,0,0-.808.447A2.28,2.28,0,0,0,6.9,9.31Zm5.747-2.7.063.757a1.932,1.932,0,0,1,.649-.63,1.686,1.686,0,0,1,.864-.225,1.571,1.571,0,0,1,1.25.515,2.442,2.442,0,0,1,.449,1.628V12H14.5V8.768a1.265,1.265,0,0,0-.2-.8.729.729,0,0,0-.593-.237,1.245,1.245,0,0,0-.559.12,1.091,1.091,0,0,0-.4.33V12H11.323V6.717ZM17.363,12V7.718h-.786v-1h.786V6.131a1.787,1.787,0,0,1,.513-1.37,2.024,2.024,0,0,1,1.44-.481,2.605,2.605,0,0,1,.369.027q.188.027.413.076l-.122,1.06q-.117-.02-.227-.034a1.965,1.965,0,0,0-.256-.015.685.685,0,0,0-.525.19.771.771,0,0,0-.178.547v.586H19.8v1H18.789V12Zm2.9-2.69a2.835,2.835,0,0,1,.659-1.936,2.3,2.3,0,0,1,1.826-.754,2.322,2.322,0,0,1,1.836.752,2.82,2.82,0,0,1,.664,1.938v.1a2.824,2.824,0,0,1-.662,1.941,2.312,2.312,0,0,1-1.829.75,2.318,2.318,0,0,1-1.833-.75,2.824,2.824,0,0,1-.662-1.941Zm1.421.1a2.3,2.3,0,0,0,.254,1.16.975.975,0,0,0,1.628,0,2.283,2.283,0,0,0,.256-1.157v-.1a2.26,2.26,0,0,0-.259-1.147.876.876,0,0,0-.815-.444.865.865,0,0,0-.808.447A2.28,2.28,0,0,0,21.68,9.31ZM28.9,7.942l-.522-.015a.95.95,0,0,0-.522.132.836.836,0,0,0-.312.371V12H26.123V6.717h1.323l.063.781a1.667,1.667,0,0,1,.481-.647,1.124,1.124,0,0,1,.879-.215q.09.017.183.042Zm2.065-1.226.059.7a1.775,1.775,0,0,1,.637-.588,1.832,1.832,0,0,1,.886-.208,1.614,1.614,0,0,1,.869.225,1.386,1.386,0,0,1,.547.679,1.831,1.831,0,0,1,.635-.664,1.722,1.722,0,0,1,.918-.239,1.505,1.505,0,0,1,1.233.554A2.646,2.646,0,0,1,37.2,8.865V12H35.776V8.86a1.481,1.481,0,0,0-.2-.884A.693.693,0,0,0,35,7.728a1,1,0,0,0-.525.134.978.978,0,0,0-.354.374q0,.093,0,.159t0,.134V12H32.71V8.86a1.485,1.485,0,0,0-.2-.876.69.69,0,0,0-.586-.256,1.106,1.106,0,0,0-.505.11.969.969,0,0,0-.359.31V12H29.644V6.717ZM40.586,12.1a2.377,2.377,0,0,1-1.846-.725,2.658,2.658,0,0,1-.664-1.868v-.2a2.893,2.893,0,0,1,.645-1.943,2.191,2.191,0,0,1,1.772-.752,2.051,2.051,0,0,1,1.633.652A2.576,2.576,0,0,1,42.7,9.026v.737H39.546l-.015.029a1.427,1.427,0,0,0,.33.879,1.1,1.1,0,0,0,.876.337,2.933,2.933,0,0,0,.813-.1,3.317,3.317,0,0,0,.691-.3l.386.879a2.646,2.646,0,0,1-.859.435A3.811,3.811,0,0,1,40.586,12.1Zm-.093-4.385a.792.792,0,0,0-.662.3,1.482,1.482,0,0,0-.281.784l.01.024H41.3V8.714a1.234,1.234,0,0,0-.19-.73A.7.7,0,0,0,40.493,7.718ZM5.313,21.5a3.034,3.034,0,0,1-.542,1.885,1.793,1.793,0,0,1-1.514.713,1.692,1.692,0,0,1-.737-.154,1.514,1.514,0,0,1-.552-.452v2.534H.547V18.717H1.831l.083.625a1.693,1.693,0,0,1,.564-.535,1.525,1.525,0,0,1,.769-.188,1.758,1.758,0,0,1,1.523.767A3.422,3.422,0,0,1,5.313,21.4Zm-1.426-.1a2.556,2.556,0,0,0-.249-1.211.812.812,0,0,0-.762-.464,1.077,1.077,0,0,0-.549.132.941.941,0,0,0-.359.376V22.55a.874.874,0,0,0,.359.342,1.209,1.209,0,0,0,.559.117.82.82,0,0,0,.759-.405,2.139,2.139,0,0,0,.242-1.1Zm2.085-.093a2.835,2.835,0,0,1,.659-1.936,2.3,2.3,0,0,1,1.826-.754,2.322,2.322,0,0,1,1.836.752,2.82,2.82,0,0,1,.664,1.938v.1a2.824,2.824,0,0,1-.662,1.941,2.312,2.312,0,0,1-1.829.75,2.318,2.318,0,0,1-1.833-.75,2.824,2.824,0,0,1-.662-1.941Zm1.421.1a2.3,2.3,0,0,0,.254,1.16.877.877,0,0,0,.82.437.868.868,0,0,0,.808-.439,2.283,2.283,0,0,0,.256-1.157v-.1a2.26,2.26,0,0,0-.259-1.147.876.876,0,0,0-.815-.444.865.865,0,0,0-.808.447,2.28,2.28,0,0,0-.256,1.145Zm7.222-1.47-.522-.015a.95.95,0,0,0-.522.132.836.836,0,0,0-.312.371V24H11.836V18.717h1.323l.063.781a1.667,1.667,0,0,1,.481-.647,1.124,1.124,0,0,1,.879-.215q.09.017.183.042Zm3.013,1.46a3.433,3.433,0,0,1,.54-2.017,1.752,1.752,0,0,1,1.521-.767,1.479,1.479,0,0,1,.713.171,1.715,1.715,0,0,1,.557.488v-2.9h1.431V24H21.172l-.122-.649a1.766,1.766,0,0,1-.591.559,1.562,1.562,0,0,1-.781.193,1.786,1.786,0,0,1-1.511-.713,3.044,3.044,0,0,1-.54-1.885Zm1.421.1a2.152,2.152,0,0,0,.234,1.091.816.816,0,0,0,.762.4,1.109,1.109,0,0,0,.537-.125.993.993,0,0,0,.376-.364V20.255a1.1,1.1,0,0,0-.374-.388.993.993,0,0,0-.53-.139.8.8,0,0,0-.764.464,2.621,2.621,0,0,0-.242,1.211Zm6.733,2.6a2.377,2.377,0,0,1-1.846-.725,2.658,2.658,0,0,1-.664-1.868v-.2a2.893,2.893,0,0,1,.645-1.943,2.191,2.191,0,0,1,1.772-.752,2.051,2.051,0,0,1,1.633.652,2.576,2.576,0,0,1,.569,1.755v.737H24.741l-.015.029a1.427,1.427,0,0,0,.33.879,1.1,1.1,0,0,0,.876.337,2.933,2.933,0,0,0,.813-.1,3.317,3.317,0,0,0,.691-.3l.386.879a2.646,2.646,0,0,1-.859.435A3.811,3.811,0,0,1,25.781,24.1Zm-.093-4.385a.792.792,0,0,0-.662.3,1.482,1.482,0,0,0-.281.784l.01.024h1.738v-.107a1.234,1.234,0,0,0-.19-.73A.7.7,0,0,0,25.688,19.718ZM29.092,24V19.718h-.786v-1h.786v-.586a1.787,1.787,0,0,1,.513-1.37,2.024,2.024,0,0,1,1.44-.481,2.6,2.6,0,0,1,.369.027q.188.027.413.076l-.122,1.06q-.117-.02-.227-.034a1.965,1.965,0,0,0-.256-.015.685.685,0,0,0-.525.19.771.771,0,0,0-.178.547v.586h1.016v1H30.518V24Zm5.288.1a2.377,2.377,0,0,1-1.846-.725,2.658,2.658,0,0,1-.664-1.868v-.2a2.893,2.893,0,0,1,.645-1.943,2.191,2.191,0,0,1,1.772-.752,2.051,2.051,0,0,1,1.633.652,2.576,2.576,0,0,1,.569,1.755v.737H33.34l-.015.029a1.427,1.427,0,0,0,.33.879,1.1,1.1,0,0,0,.876.337,2.933,2.933,0,0,0,.813-.1,3.317,3.317,0,0,0,.691-.3l.386.879a2.646,2.646,0,0,1-.859.435A3.811,3.811,0,0,1,34.38,24.1Zm-.093-4.385a.792.792,0,0,0-.662.3,1.482,1.482,0,0,0-.281.784l.01.024h1.738v-.107a1.234,1.234,0,0,0-.19-.73A.7.7,0,0,0,34.287,19.718Zm5.239,3.291a.793.793,0,0,0,.591-.222.807.807,0,0,0,.22-.593h1.3l.01.029a1.653,1.653,0,0,1-.6,1.34,2.228,2.228,0,0,1-1.523.54,2.251,2.251,0,0,1-1.812-.75,2.849,2.849,0,0,1-.64-1.917V21.29a2.867,2.867,0,0,1,.637-1.917,2.231,2.231,0,0,1,1.8-.754,2.179,2.179,0,0,1,1.558.557,1.86,1.86,0,0,1,.571,1.465l-.01.029h-1.3a1.054,1.054,0,0,0-.217-.681.73.73,0,0,0-.6-.271.814.814,0,0,0-.784.442,2.423,2.423,0,0,0-.232,1.13v.146a2.414,2.414,0,0,0,.232,1.138A.825.825,0,0,0,39.526,23.009Zm4.658-5.586v1.294h.894v1h-.894v2.69a.614.614,0,0,0,.129.439.454.454,0,0,0,.339.132,1.361,1.361,0,0,0,.2-.012,1.645,1.645,0,0,0,.19-.042l.117,1.03a2.886,2.886,0,0,1-.417.11,2.489,2.489,0,0,1-.442.037,1.52,1.52,0,0,1-1.135-.405,1.777,1.777,0,0,1-.4-1.284v-2.7h-.771v-1h.771V17.423Zm1.553,3.887a2.835,2.835,0,0,1,.659-1.936,2.3,2.3,0,0,1,1.826-.754,2.322,2.322,0,0,1,1.836.752,2.82,2.82,0,0,1,.664,1.938v.1a2.824,2.824,0,0,1-.662,1.941,2.611,2.611,0,0,1-3.662,0,2.824,2.824,0,0,1-.662-1.941Zm1.421.1a2.3,2.3,0,0,0,.254,1.16.975.975,0,0,0,1.628,0,2.283,2.283,0,0,0,.256-1.157v-.1a2.26,2.26,0,0,0-.259-1.147.876.876,0,0,0-.815-.444.865.865,0,0,0-.808.447,2.28,2.28,0,0,0-.256,1.145Zm7.3,1.123a.492.492,0,0,0-.227-.4,2.306,2.306,0,0,0-.842-.3,3.36,3.36,0,0,1-1.409-.562,1.226,1.226,0,0,1-.481-1.021,1.456,1.456,0,0,1,.576-1.157,2.323,2.323,0,0,1,1.533-.479,2.507,2.507,0,0,1,1.6.479,1.4,1.4,0,0,1,.579,1.191l-.01.029H54.4A.691.691,0,0,0,54.2,19.8a.959.959,0,0,0-1.133-.029.532.532,0,0,0-.2.42.474.474,0,0,0,.208.4,2.31,2.31,0,0,0,.842.276,3.428,3.428,0,0,1,1.448.574,1.258,1.258,0,0,1,.476,1.042,1.4,1.4,0,0,1-.61,1.167,2.634,2.634,0,0,1-1.611.454,2.449,2.449,0,0,1-1.667-.535,1.5,1.5,0,0,1-.583-1.218l.01-.029h1.3a.741.741,0,0,0,.278.615,1.149,1.149,0,0,0,.688.19.979.979,0,0,0,.6-.159A.515.515,0,0,0,54.458,22.535ZM.327,33.4a3.433,3.433,0,0,1,.54-2.017,1.752,1.752,0,0,1,1.521-.767,1.479,1.479,0,0,1,.713.171,1.715,1.715,0,0,1,.557.488v-2.9H5.088V36H3.872l-.122-.649a1.766,1.766,0,0,1-.591.559,1.562,1.562,0,0,1-.781.193A1.786,1.786,0,0,1,.867,35.39,3.044,3.044,0,0,1,.327,33.5Zm1.421.1A2.152,2.152,0,0,0,1.982,34.6a.816.816,0,0,0,.762.4,1.109,1.109,0,0,0,.537-.125.993.993,0,0,0,.376-.364V32.255a1.1,1.1,0,0,0-.374-.388.993.993,0,0,0-.53-.139.8.8,0,0,0-.764.464A2.621,2.621,0,0,0,1.748,33.4Zm6.733,2.6a2.377,2.377,0,0,1-1.846-.725,2.658,2.658,0,0,1-.664-1.868v-.2a2.893,2.893,0,0,1,.645-1.943,2.191,2.191,0,0,1,1.772-.752,2.051,2.051,0,0,1,1.633.652,2.576,2.576,0,0,1,.569,1.755v.737H7.441l-.015.029a1.427,1.427,0,0,0,.33.879,1.1,1.1,0,0,0,.876.337,2.933,2.933,0,0,0,.813-.1,3.317,3.317,0,0,0,.691-.3l.386.879a2.646,2.646,0,0,1-.859.435A3.811,3.811,0,0,1,8.481,36.1Zm-.093-4.385a.792.792,0,0,0-.662.3,1.482,1.482,0,0,0-.281.784l.01.024H9.194v-.107a1.234,1.234,0,0,0-.19-.73A.7.7,0,0,0,8.389,31.718Zm7.729,3.291a.793.793,0,0,0,.591-.222.807.807,0,0,0,.22-.593h1.3l.01.029a1.653,1.653,0,0,1-.6,1.34,2.228,2.228,0,0,1-1.523.54,2.251,2.251,0,0,1-1.812-.75,2.849,2.849,0,0,1-.64-1.917V33.29a2.867,2.867,0,0,1,.637-1.917,2.231,2.231,0,0,1,1.8-.754,2.179,2.179,0,0,1,1.558.557,1.86,1.86,0,0,1,.571,1.465l-.01.029h-1.3a1.054,1.054,0,0,0-.217-.681.73.73,0,0,0-.6-.271.814.814,0,0,0-.784.442,2.423,2.423,0,0,0-.232,1.13v.146a2.414,2.414,0,0,0,.232,1.138A.825.825,0,0,0,16.118,35.009ZM22.183,36a3,3,0,0,1-.134-.381,2.649,2.649,0,0,1-.081-.41,1.954,1.954,0,0,1-.581.64,1.456,1.456,0,0,1-.859.254,1.784,1.784,0,0,1-1.279-.427,1.531,1.531,0,0,1-.449-1.165,1.393,1.393,0,0,1,.6-1.2,2.987,2.987,0,0,1,1.746-.427h.8v-.42a.822.822,0,0,0-.2-.591.786.786,0,0,0-.6-.21.774.774,0,0,0-.535.168.588.588,0,0,0-.188.461H19.053l-.01-.029a1.34,1.34,0,0,1,.583-1.155,2.534,2.534,0,0,1,1.614-.486,2.365,2.365,0,0,1,1.541.479,1.667,1.667,0,0,1,.588,1.372v2.183a4.128,4.128,0,0,0,.056.7A3.5,3.5,0,0,0,23.6,36Zm-1.3-.952a1.215,1.215,0,0,0,.664-.186,1,1,0,0,0,.4-.43v-.747h-.8a.949.949,0,0,0-.686.225.738.738,0,0,0-.232.552.551.551,0,0,0,.173.427A.686.686,0,0,0,20.879,35.048ZM25.938,36H24.512V28.383h1.426Zm2.671,0H27.183V30.717h1.426Zm0-6.548H27.183V28.383h1.426Zm.952,3.95a3.433,3.433,0,0,1,.54-2.017,1.752,1.752,0,0,1,1.521-.767,1.479,1.479,0,0,1,.713.171,1.715,1.715,0,0,1,.557.488v-2.9h1.431V36H33.105l-.122-.649a1.766,1.766,0,0,1-.591.559,1.562,1.562,0,0,1-.781.193A1.786,1.786,0,0,1,30.1,35.39a3.044,3.044,0,0,1-.54-1.885Zm1.421.1a2.152,2.152,0,0,0,.234,1.091.816.816,0,0,0,.762.4,1.109,1.109,0,0,0,.537-.125.993.993,0,0,0,.376-.364V32.255a1.1,1.1,0,0,0-.374-.388.993.993,0,0,0-.53-.139.8.8,0,0,0-.764.464,2.621,2.621,0,0,0-.242,1.211ZM38.54,36a3,3,0,0,1-.134-.381,2.65,2.65,0,0,1-.081-.41,1.954,1.954,0,0,1-.581.64,1.456,1.456,0,0,1-.859.254,1.784,1.784,0,0,1-1.279-.427,1.531,1.531,0,0,1-.449-1.165,1.393,1.393,0,0,1,.6-1.2A2.987,2.987,0,0,1,37.5,32.88h.8v-.42a.822.822,0,0,0-.2-.591.786.786,0,0,0-.6-.21.774.774,0,0,0-.535.168.588.588,0,0,0-.188.461H35.41l-.01-.029a1.34,1.34,0,0,1,.583-1.155,2.534,2.534,0,0,1,1.614-.486,2.365,2.365,0,0,1,1.541.479,1.667,1.667,0,0,1,.588,1.372v2.183a4.128,4.128,0,0,0,.056.7,3.5,3.5,0,0,0,.178.649Zm-1.3-.952a1.215,1.215,0,0,0,.664-.186,1,1,0,0,0,.4-.43v-.747h-.8a.949.949,0,0,0-.686.225.738.738,0,0,0-.232.552.551.551,0,0,0,.173.427A.686.686,0,0,0,37.236,35.048Zm3.34-1.646a3.433,3.433,0,0,1,.54-2.017,1.752,1.752,0,0,1,1.521-.767,1.479,1.479,0,0,1,.713.171,1.715,1.715,0,0,1,.557.488v-2.9h1.431V36H44.121L44,35.351a1.766,1.766,0,0,1-.591.559,1.562,1.562,0,0,1-.781.193,1.786,1.786,0,0,1-1.511-.713,3.044,3.044,0,0,1-.54-1.885ZM42,33.5a2.152,2.152,0,0,0,.234,1.091.816.816,0,0,0,.762.4,1.109,1.109,0,0,0,.537-.125.993.993,0,0,0,.376-.364V32.255a1.1,1.1,0,0,0-.374-.388.993.993,0,0,0-.53-.139.8.8,0,0,0-.764.464A2.621,2.621,0,0,0,42,33.4Z" transform="translate(934 4027)" fill="#12263f"/>
    <g id="Rectángulo_338893" data-name="Rectángulo 338893" transform="translate(605 3898)" fill="none" stroke="#ff6e33" stroke-width="1">
      <rect width="74" height="30" rx="7" stroke="none"/>
      <rect x="0.5" y="0.5" width="73" height="29" rx="6.5" fill="none"/>
    </g>
    <g id="Rectángulo_338894" data-name="Rectángulo 338894" transform="translate(686 3898)" fill="none" stroke="#ff6e33" stroke-width="1">
      <rect width="112" height="30" rx="7" stroke="none"/>
      <rect x="0.5" y="0.5" width="111" height="29" rx="6.5" fill="none"/>
    </g>
    <g id="Rectángulo_338895" data-name="Rectángulo 338895" transform="translate(732 4150)" fill="none" stroke="#ff6e33" stroke-width="1">
      <rect width="97" height="30" rx="7" stroke="none"/>
      <rect x="0.5" y="0.5" width="96" height="29" rx="6.5" fill="none"/>
    </g>
    <g id="Rectángulo_338896" data-name="Rectángulo 338896" transform="translate(516 4150)" fill="none" stroke="#ff6e33" stroke-width="1">
      <rect width="97" height="30" rx="7" stroke="none"/>
      <rect x="0.5" y="0.5" width="96" height="29" rx="6.5" fill="none"/>
    </g>
    <g id="Rectángulo_338897" data-name="Rectángulo 338897" transform="translate(625 4150)" fill="none" stroke="#ff6e33" stroke-width="1">
      <rect width="97" height="30" rx="7" stroke="none"/>
      <rect x="0.5" y="0.5" width="96" height="29" rx="6.5" fill="none"/>
    </g>
  </g>
</svg>
