<svg xmlns="http://www.w3.org/2000/svg" width="85" height="91" viewBox="0 0 85 91">
  <g id="Grupo_985895" data-name="Grupo 985895" transform="translate(-180 -399)">
    <rect id="Rectángulo_33991" data-name="Rectángulo 33991" width="85" height="91" rx="17" transform="translate(180 399)" fill="#ff6e33"/>
    <g id="idea" transform="translate(191 413)">
      <path id="Trazado_728537" data-name="Trazado 728537" d="M86.316,69.9H44.435A2.435,2.435,0,0,1,42,67.464V12.435A2.435,2.435,0,0,1,44.435,10H86.316a2.435,2.435,0,0,1,2.435,2.435V67.464A2.435,2.435,0,0,1,86.316,69.9Zm0,0" transform="translate(-36.887 -8.783)" fill="#fff"/>
      <path id="Trazado_728538" data-name="Trazado 728538" d="M429.611,75.688H426V64h3.611a2.232,2.232,0,0,1,2.232,2.232v7.223A2.232,2.232,0,0,1,429.611,75.688Zm0,0" transform="translate(-374.136 -56.208)" fill="#cbe558"/>
      <path id="Trazado_728539" data-name="Trazado 728539" d="M429.611,171.688H426V160h3.611a2.232,2.232,0,0,1,2.232,2.232v7.223A2.232,2.232,0,0,1,429.611,171.688Zm0,0" transform="translate(-374.136 -140.521)" fill="#00ccf2"/>
      <path id="Trazado_728540" data-name="Trazado 728540" d="M429.611,267.688H426V256h3.611a2.232,2.232,0,0,1,2.232,2.232v7.223A2.232,2.232,0,0,1,429.611,267.688Zm0,0" transform="translate(-374.136 -224.833)" fill="#d675a7"/>
      <path id="Trazado_728541" data-name="Trazado 728541" d="M158.722,168.773A12.1,12.1,0,1,0,139.991,178.9a4.416,4.416,0,0,1,1.922,2.885h9.416a4.375,4.375,0,0,1,1.9-2.869A12.09,12.09,0,0,0,158.722,168.773Zm0,0" transform="translate(-118.142 -137.598)" fill="#ffcb7c"/>
      <path id="Trazado_728542" data-name="Trazado 728542" d="M202.1,370.969h-4.3a2.556,2.556,0,0,0-2.556-2.556v-5.492h9.416v5.492A2.556,2.556,0,0,0,202.1,370.969Zm0,0" transform="translate(-171.472 -318.738)" fill="#b0aeed"/>
      <path id="Trazado_728543" data-name="Trazado 728543" d="M303.081,298.249,317.828,313a3.409,3.409,0,1,1-4.821,4.821L298.26,303.07l-4.827-9.648Zm0,0" transform="translate(-257.709 -257.699)" fill="#00ccf2"/>
      <path id="Trazado_728544" data-name="Trazado 728544" d="M298.257,303.07l4.821-4.821-9.648-4.827Zm0,0" transform="translate(-257.706 -257.699)" fill="#fff"/>
      <path id="Trazado_728545" data-name="Trazado 728545" d="M440.6,445.411l1.657,1.657a3.409,3.409,0,0,0,4.821-4.821l-1.657-1.657Zm0,0" transform="translate(-386.957 -386.95)" fill="#d675a7"/>
      <path id="Trazado_728546" data-name="Trazado 728546" d="M202.777,197.793l-5.507,8.791H200.6V212l5.844-8.517h-3.662Zm0,0" transform="translate(-173.253 -173.712)" fill="#fff"/>
      <path id="Trazado_728547" data-name="Trazado 728547" d="M225.132,97.834a1.217,1.217,0,0,0,1.217-1.217v-1.61a1.217,1.217,0,1,0-2.435,0v1.61A1.218,1.218,0,0,0,225.132,97.834Zm0,0" transform="translate(-196.653 -82.371)"/>
      <path id="Trazado_728548" data-name="Trazado 728548" d="M72.936,246.152a1.217,1.217,0,1,0,0,2.435H74.8a1.217,1.217,0,1,0,0-2.435Zm0,0" transform="translate(-62.987 -216.184)"/>
      <path id="Trazado_728549" data-name="Trazado 728549" d="M362.355,248.419a1.217,1.217,0,1,0,0-2.435h-2.1a1.217,1.217,0,1,0,0,2.435Zm0,0" transform="translate(-315.327 -216.037)"/>
      <path id="Trazado_728550" data-name="Trazado 728550" d="M116.738,345.515a1.218,1.218,0,0,0,1.722,0l1.437-1.437a1.218,1.218,0,0,0-1.722-1.722l-1.437,1.437A1.218,1.218,0,0,0,116.738,345.515Zm0,0" transform="translate(-102.213 -300.363)"/>
      <path id="Trazado_728551" data-name="Trazado 728551" d="M323.5,141.651l1.241-1.241a1.217,1.217,0,0,0-1.722-1.722l-1.241,1.241a1.217,1.217,0,1,0,1.722,1.722Zm0,0" transform="translate(-282.293 -121.491)"/>
      <path id="Trazado_728552" data-name="Trazado 728552" d="M118.706,142.111a1.218,1.218,0,0,0,.861-2.079l-1.226-1.226a1.218,1.218,0,0,0-1.722,1.722l1.227,1.227A1.213,1.213,0,0,0,118.706,142.111Zm0,0" transform="translate(-102.107 -121.594)"/>
      <path id="Trazado_728553" data-name="Trazado 728553" d="M60.98,54.436,59.324,52.78h0l-6.241-6.241V44.072h2.395a3.453,3.453,0,0,0,3.449-3.449V33.4a3.433,3.433,0,0,0-.823-2.232,3.431,3.431,0,0,0,.823-2.232V21.712A3.43,3.43,0,0,0,58.1,19.48a3.434,3.434,0,0,0,.823-2.232V10.024a3.453,3.453,0,0,0-3.449-3.449H53.081V3.652A3.656,3.656,0,0,0,49.429,0H33.349a1.217,1.217,0,0,0,0,2.435h16.08a1.219,1.219,0,0,1,1.217,1.217V44.1l-4.414-4.413a1.212,1.212,0,0,0-.316-.228l-5.357-2.68A13.318,13.318,0,0,0,28.478,17.857h0a13.319,13.319,0,0,0-7.3,24.46,3.215,3.215,0,0,1,1.372,1.993v5.366a1.218,1.218,0,0,0,1.217,1.217,1.34,1.34,0,0,1,1.339,1.339,1.217,1.217,0,0,0,1.217,1.217h4.3a1.218,1.218,0,0,0,1.217-1.217,1.34,1.34,0,0,1,1.338-1.339A1.218,1.218,0,0,0,34.4,49.676V44.31a3.163,3.163,0,0,1,1.347-1.976,13.4,13.4,0,0,0,1.395-1.049l2.317,4.631a1.223,1.223,0,0,0,.228.316L50.66,57.2a1.262,1.262,0,0,0-.014.176v1.3A1.219,1.219,0,0,1,49.429,59.9H7.548A1.219,1.219,0,0,1,6.33,58.682V50.89h.243a1.219,1.219,0,0,1,1.217,1.217,1.217,1.217,0,1,0,2.435,0,3.656,3.656,0,0,0-3.652-3.652H6.33V36.93h.243a1.219,1.219,0,0,1,1.217,1.217,1.217,1.217,0,1,0,2.435,0,3.656,3.656,0,0,0-3.652-3.652H6.33V22.969h.243a1.219,1.219,0,0,1,1.217,1.217,1.217,1.217,0,0,0,2.435,0,3.657,3.657,0,0,0-3.652-3.652H6.33V9.009h.243a1.219,1.219,0,0,1,1.217,1.217,1.217,1.217,0,0,0,2.435,0A3.656,3.656,0,0,0,6.574,6.574H6.33V3.652A1.219,1.219,0,0,1,7.548,2.435H23.608a1.217,1.217,0,0,0,0-2.435H7.548A3.656,3.656,0,0,0,3.9,3.652V6.574H3.652a3.652,3.652,0,0,0,0,7.3H3.9v6.656H3.652a3.652,3.652,0,0,0,0,7.3H3.9V34.5H3.652a3.652,3.652,0,1,0,0,7.3H3.9v6.655H3.652a3.652,3.652,0,1,0,0,7.3H3.9v2.922a3.656,3.656,0,0,0,3.652,3.652H49.429a3.659,3.659,0,0,0,3.553-2.81l1.455,1.455a4.626,4.626,0,0,0,6.542-6.543ZM56.49,21.711v7.223a1.016,1.016,0,0,1-1.014,1.015H53.081V20.7h2.395A1.016,1.016,0,0,1,56.49,21.711Zm0,18.912a1.016,1.016,0,0,1-1.014,1.014H53.081V32.385h2.395A1.016,1.016,0,0,1,56.49,33.4ZM55.476,9.009a1.016,1.016,0,0,1,1.014,1.014v7.223a1.016,1.016,0,0,1-1.014,1.015H53.081V9.009ZM3.652,11.444a1.217,1.217,0,0,1,0-2.435H3.9v2.435Zm0,13.96a1.217,1.217,0,1,1,0-2.435H3.9V25.4Zm0,13.96a1.217,1.217,0,1,1,0-2.435H3.9v2.435Zm0,13.96a1.217,1.217,0,1,1,0-2.435H3.9v2.435Zm38.621-7.954,3.1-3.1L56.74,53.64l-3.1,3.1Zm-10.3,3.29a3.79,3.79,0,0,0-2.354,2.354H27.342a3.79,3.79,0,0,0-2.354-2.354V45.4h6.981Zm2.451-8.366a5.592,5.592,0,0,0-2.149,2.672H24.685a5.672,5.672,0,0,0-2.169-2.686,10.884,10.884,0,0,1,5.959-19.989h0a10.886,10.886,0,0,1,9.9,15.4l-2.113-1.057a1.217,1.217,0,0,0-1.634,1.634l1.379,2.757A10.954,10.954,0,0,1,34.42,40.295Zm4.029-1.847,4.868,2.436-2.433,2.433Zm20.81,20.81a2.191,2.191,0,0,1-3.1,0l-.8-.8,3.1-3.1.8.8a2.191,2.191,0,0,1,0,3.1Zm0,0"/>
      <path id="Trazado_728554" data-name="Trazado 728554" d="M197.656,193.479h-2.445V189.01a1.217,1.217,0,0,0-2.249-.646l-5.507,8.791a1.217,1.217,0,0,0,1.032,1.864h2.108v4.2a1.217,1.217,0,0,0,2.221.689l5.844-8.517a1.217,1.217,0,0,0-1-1.906Zm-4.626,5.809V197.8a1.217,1.217,0,0,0-1.217-1.217h-1.126l2.09-3.337v1.45a1.217,1.217,0,0,0,1.217,1.217h1.351Zm0,0" transform="translate(-164.469 -164.929)"/>
      <path id="Trazado_728555" data-name="Trazado 728555" d="M225.139,2.435a1.217,1.217,0,0,1-.861-2.078A1.217,1.217,0,1,1,226,2.078,1.226,1.226,0,0,1,225.139,2.435Zm0,0" transform="translate(-196.66 0)"/>
    </g>
  </g>
</svg>
