<svg xmlns="http://www.w3.org/2000/svg" width="144.627" height="38.852" viewBox="0 0 144.627 38.852">
  <g id="Grupo_987197" data-name="Grupo 987197" transform="translate(-737.424 -2907.773)">
    <path id="Trazado_733367" data-name="Trazado 733367" d="M98.316,14.063a1.634,1.634,0,0,0-.5-1.2,4.3,4.3,0,0,0-1.645-.887A5.668,5.668,0,0,1,93.793,10.7a2.856,2.856,0,0,1-.8-2.125,3,3,0,0,1,.742-2.1A3.2,3.2,0,0,1,95.77,5.5V3.773H97V5.508a2.985,2.985,0,0,1,2.027,1.07,3.728,3.728,0,0,1,.723,2.406H98.223a2.5,2.5,0,0,0-.492-1.609,1.643,1.643,0,0,0-1.359-.617,1.832,1.832,0,0,0-1.383.48,1.823,1.823,0,0,0-.461,1.316A1.644,1.644,0,0,0,95,9.781a4.668,4.668,0,0,0,1.711.891,5.909,5.909,0,0,1,2.367,1.285,2.816,2.816,0,0,1,.773,2.09,2.864,2.864,0,0,1-.8,2.137,3.575,3.575,0,0,1-2.211.941v1.5H95.613V17.133a3.58,3.58,0,0,1-2.2-.98,3.2,3.2,0,0,1-.828-2.465l.016-.039h1.484a2.128,2.128,0,0,0,.609,1.715,2.231,2.231,0,0,0,1.484.512,2.36,2.36,0,0,0,1.574-.48A1.653,1.653,0,0,0,98.316,14.063Zm10.115-.055c0-1.344-.592-2.224-2.4-3.456,1.52-.464,2.176-1.216,2.176-2.24,0-1.28-1.12-2.32-3.12-2.32-2.208,0-3.584,1.1-3.584,2.8,0,1.216.624,2.064,2.208,3.008a2.7,2.7,0,0,0-2.384,2.688c0,1.712,1.36,2.72,3.392,2.72C107.039,17.208,108.431,15.928,108.431,14.008Zm-2.128-5.6a2.544,2.544,0,0,1-.656,1.84c-1.344-.688-2.08-1.568-2.08-2.464a1.3,1.3,0,0,1,1.328-1.328C105.791,6.456,106.3,7.32,106.3,8.408Zm-.1,6.56c0,1.136-.592,1.728-1.456,1.728-.976,0-1.488-.848-1.488-2.272a3.838,3.838,0,0,1,.816-2.32C105.823,13.272,106.207,13.784,106.207,14.968Zm10.288-3.36c0-2.656-1.024-5.616-3.568-5.616-2.736,0-3.664,3.056-3.664,5.664,0,3.328,1.536,5.552,3.632,5.552C114.975,17.208,116.495,14.984,116.495,11.608Zm-2.528,1.808c0,2.384-.272,3.344-1.072,3.344s-1.1-.96-1.1-3.344v-3.6c0-2.432.288-3.376,1.072-3.376s1.1,1.024,1.1,3.376ZM119.676,17h-1.539V15.422h1.539Zm9.1-5.392c0-2.656-1.024-5.616-3.568-5.616-2.736,0-3.664,3.056-3.664,5.664,0,3.328,1.536,5.552,3.632,5.552C127.256,17.208,128.776,14.984,128.776,11.608Zm-2.528,1.808c0,2.384-.272,3.344-1.072,3.344s-1.1-.96-1.1-3.344v-3.6c0-2.432.288-3.376,1.072-3.376s1.1,1.024,1.1,3.376Zm10.528-1.808c0-2.656-1.024-5.616-3.568-5.616-2.736,0-3.664,3.056-3.664,5.664,0,3.328,1.536,5.552,3.632,5.552C135.256,17.208,136.776,14.984,136.776,11.608Zm-2.528,1.808c0,2.384-.272,3.344-1.072,3.344s-1.1-.96-1.1-3.344v-3.6c0-2.432.288-3.376,1.072-3.376s1.1,1.024,1.1,3.376Zm10.528-1.808c0-2.656-1.024-5.616-3.568-5.616-2.736,0-3.664,3.056-3.664,5.664,0,3.328,1.536,5.552,3.632,5.552C143.256,17.208,144.776,14.984,144.776,11.608Zm-2.528,1.808c0,2.384-.272,3.344-1.072,3.344s-1.1-.96-1.1-3.344v-3.6c0-2.432.288-3.376,1.072-3.376s1.1,1.024,1.1,3.376ZM147.957,17h-1.539V15.422h1.539Zm9.1-5.392c0-2.656-1.024-5.616-3.568-5.616-2.736,0-3.664,3.056-3.664,5.664,0,3.328,1.536,5.552,3.632,5.552C155.537,17.208,157.057,14.984,157.057,11.608Zm-2.528,1.808c0,2.384-.272,3.344-1.072,3.344s-1.1-.96-1.1-3.344v-3.6c0-2.432.288-3.376,1.072-3.376s1.1,1.024,1.1,3.376Zm10.528-1.808c0-2.656-1.024-5.616-3.568-5.616-2.736,0-3.664,3.056-3.664,5.664,0,3.328,1.536,5.552,3.632,5.552C163.537,17.208,165.057,14.984,165.057,11.608Zm-2.528,1.808c0,2.384-.272,3.344-1.072,3.344s-1.1-.96-1.1-3.344v-3.6c0-2.432.288-3.376,1.072-3.376s1.1,1.024,1.1,3.376Zm10.528-1.808c0-2.656-1.024-5.616-3.568-5.616-2.736,0-3.664,3.056-3.664,5.664,0,3.328,1.536,5.552,3.632,5.552C171.537,17.208,173.057,14.984,173.057,11.608Zm-2.528,1.808c0,2.384-.272,3.344-1.072,3.344s-1.1-.96-1.1-3.344v-3.6c0-2.432.288-3.376,1.072-3.376s1.1,1.024,1.1,3.376Zm-101,24.208h-.4c-.416,1.152-.784,1.248-2.448,1.248h-2.24l2.592-2.464a4.742,4.742,0,0,0,1.824-3.488,2.742,2.742,0,0,0-2.912-2.928c-1.6,0-2.816,1.024-3.568,3.264h.448a2.2,2.2,0,0,1,1.952-1.44,1.863,1.863,0,0,1,1.9,2.032,4.628,4.628,0,0,1-.816,2.368,28.9,28.9,0,0,1-3.712,4.416V41h6.64Zm7.872-7.44H72.246L70.694,35.7a12.311,12.311,0,0,1,2.88.352c1.472.464,2.272,1.344,2.272,2.432a1.591,1.591,0,0,1-1.6,1.664,2.375,2.375,0,0,1-1.44-.672,2.487,2.487,0,0,0-1.6-.736.95.95,0,0,0-.976.976c0,.752.928,1.408,2.352,1.408,2.64,0,4.512-1.536,4.512-3.872a3.481,3.481,0,0,0-2.768-3.424,10.122,10.122,0,0,0-2.416-.32l.352-1.3h4.416Zm13.881-.144-3.264.5.064.368a3.677,3.677,0,0,1,.672-.112c.208,0,.272.16.272.352a1.621,1.621,0,0,1-.064.416l-.592,2.432a2.759,2.759,0,0,0-1.36-.336c-2.944,0-4.448,3.248-4.448,5.552a1.872,1.872,0,0,0,2.112,2.016,3.245,3.245,0,0,0,2.256-1.1h.08a1.083,1.083,0,0,0,1.056,1.1,2.862,2.862,0,0,0,2.544-1.68l-.3-.176c-.288.384-.56.752-.848.752a.345.345,0,0,1-.384-.384,3.169,3.169,0,0,1,.128-.656Zm-3.264,5.424a6.866,6.866,0,0,1-.336,1.728c-.432,1.52-1.664,2.928-2.512,2.928-.336,0-.768-.272-.768-1.072,0-2.3,1.408-4.752,2.656-4.752A1.045,1.045,0,0,1,88.015,35.464ZM94.109,41H92.57V32.547h1.539Zm-.023-11.875h1.8l.016.047L93.8,31.2H92.64Zm9.776,10.195c-.336.432-.592.768-.9.768-.192,0-.256-.224-.256-.5a3.253,3.253,0,0,1,.1-.72L103.99,33.8h-1.84l-.176.816h-.032a1.209,1.209,0,0,0-1.344-1.008c-2.64,0-4.5,3.376-4.5,5.6A1.832,1.832,0,0,0,98.15,41.16a3.269,3.269,0,0,0,2.336-1.12h.1a1.034,1.034,0,0,0,1.1,1.12,2.7,2.7,0,0,0,2.48-1.648ZM101.51,35.8c0,1.792-1.712,4.24-2.832,4.24-.288,0-.72-.16-.72-1.04,0-2.288,1.552-4.768,2.688-4.768C101.19,34.232,101.51,34.776,101.51,35.8Zm9.888-2.192H111a.652.652,0,0,1-.624.352,4.976,4.976,0,0,0-1.488-.352,1.916,1.916,0,0,0-2.08,1.872c0,.864.816,1.712,1.456,2.464a2.125,2.125,0,0,1,.752,1.36c0,.656-.272,1.28-1.008,1.28a2.063,2.063,0,0,1-1.7-2.048h-.384l-.352,2.64h.4a.967.967,0,0,1,.624-.352,9.987,9.987,0,0,0,1.76.336,2.223,2.223,0,0,0,2.48-2.064,3.39,3.39,0,0,0-1.2-2.384c-.544-.64-1.088-1.168-1.088-1.632,0-.672.3-.88.736-.88.608,0,1.392.8,1.408,1.968h.352Zm12.56.962h-6.516V33.289h6.516Zm0,3.25h-6.516V36.539h6.516ZM136,38.063a1.634,1.634,0,0,0-.5-1.2,4.3,4.3,0,0,0-1.645-.887,5.668,5.668,0,0,1-2.383-1.273,2.857,2.857,0,0,1-.8-2.125,3,3,0,0,1,.742-2.1,3.2,3.2,0,0,1,2.039-.977V27.773h1.234v1.734a2.985,2.985,0,0,1,2.027,1.07,3.728,3.728,0,0,1,.723,2.406H135.9a2.5,2.5,0,0,0-.492-1.609,1.643,1.643,0,0,0-1.359-.617,1.644,1.644,0,0,0-1.844,1.8,1.644,1.644,0,0,0,.477,1.227,4.668,4.668,0,0,0,1.711.891,5.909,5.909,0,0,1,2.367,1.285,2.816,2.816,0,0,1,.773,2.09,2.864,2.864,0,0,1-.8,2.137,3.575,3.575,0,0,1-2.211.941v1.5h-1.227V41.133a3.58,3.58,0,0,1-2.2-.98,3.2,3.2,0,0,1-.828-2.465l.016-.039h1.484a2.128,2.128,0,0,0,.609,1.715,2.231,2.231,0,0,0,1.484.512,2.36,2.36,0,0,0,1.574-.48A1.653,1.653,0,0,0,136,38.063Zm3.49-5.446a2.2,2.2,0,0,1,2.016-1.328,1.44,1.44,0,0,1,1.584,1.648c0,.944-.576,1.616-2.1,2.1V35.3a6.01,6.01,0,0,1,2.448,1.232,2.639,2.639,0,0,1,.784,1.936c0,1.152-.608,1.952-1.568,1.952a1.627,1.627,0,0,1-1.264-.688,2.1,2.1,0,0,0-1.536-.912.974.974,0,0,0-1.04.96c0,.864.96,1.44,2.432,1.44,2.768,0,4.8-1.824,4.8-4.16a2.944,2.944,0,0,0-1.952-2.848,2.186,2.186,0,0,0,1.344-2.032,2.373,2.373,0,0,0-2.624-2.192,3.973,3.973,0,0,0-3.664,2.432ZM149.356,41h-1.539V39.422h1.539Zm9.132-3.376h-.4c-.416,1.152-.784,1.248-2.448,1.248H153.4l2.592-2.464a4.742,4.742,0,0,0,1.824-3.488,2.742,2.742,0,0,0-2.912-2.928c-1.6,0-2.816,1.024-3.568,3.264h.448a2.2,2.2,0,0,1,1.952-1.44,1.863,1.863,0,0,1,1.9,2.032,4.628,4.628,0,0,1-.816,2.368,28.9,28.9,0,0,1-3.712,4.416V41h6.64Zm7.968-2.016c0-2.656-1.024-5.616-3.568-5.616-2.736,0-3.664,3.056-3.664,5.664,0,3.328,1.536,5.552,3.632,5.552C164.937,41.208,166.457,38.984,166.457,35.608Zm-2.528,1.808c0,2.384-.272,3.344-1.072,3.344s-1.1-.96-1.1-3.344v-3.6c0-2.432.288-3.376,1.072-3.376s1.1,1.024,1.1,3.376Zm10.528-1.808c0-2.656-1.024-5.616-3.568-5.616-2.736,0-3.664,3.056-3.664,5.664,0,3.328,1.536,5.552,3.632,5.552C172.937,41.208,174.457,38.984,174.457,35.608Zm-2.528,1.808c0,2.384-.272,3.344-1.072,3.344s-1.1-.96-1.1-3.344v-3.6c0-2.432.288-3.376,1.072-3.376s1.1,1.024,1.1,3.376ZM177.638,41H176.1V39.422h1.539Zm9.1-5.392c0-2.656-1.024-5.616-3.568-5.616-2.736,0-3.664,3.056-3.664,5.664,0,3.328,1.536,5.552,3.632,5.552C185.218,41.208,186.738,38.984,186.738,35.608Zm-2.528,1.808c0,2.384-.272,3.344-1.072,3.344s-1.1-.96-1.1-3.344v-3.6c0-2.432.288-3.376,1.072-3.376s1.1,1.024,1.1,3.376Zm10.528-1.808c0-2.656-1.024-5.616-3.568-5.616-2.736,0-3.664,3.056-3.664,5.664,0,3.328,1.536,5.552,3.632,5.552C193.218,41.208,194.738,38.984,194.738,35.608Zm-2.528,1.808c0,2.384-.272,3.344-1.072,3.344s-1.1-.96-1.1-3.344v-3.6c0-2.432.288-3.376,1.072-3.376s1.1,1.024,1.1,3.376Zm10.528-1.808c0-2.656-1.024-5.616-3.568-5.616-2.736,0-3.664,3.056-3.664,5.664,0,3.328,1.536,5.552,3.632,5.552C201.218,41.208,202.738,38.984,202.738,35.608Zm-2.528,1.808c0,2.384-.272,3.344-1.072,3.344s-1.1-.96-1.1-3.344v-3.6c0-2.432.288-3.376,1.072-3.376s1.1,1.024,1.1,3.376Z" transform="translate(678 2904)" fill="#9f0925"/>
    <path id="Trazado_733368" data-name="Trazado 733368" d="M0,0H144.627" transform="translate(737.424 2928)" fill="none" stroke="#9f0925" stroke-width="1"/>
  </g>
</svg>
