<svg xmlns="http://www.w3.org/2000/svg" width="228.565" height="35.232" viewBox="0 0 228.565 35.232">
  <g id="Grupo_987218" data-name="Grupo 987218" transform="translate(-738.644 -3024.992)">
    <path id="Trazado_734722" data-name="Trazado 734722" d="M2.506,8.616A2.2,2.2,0,0,1,4.522,7.288,1.44,1.44,0,0,1,6.106,8.936c0,.944-.576,1.616-2.1,2.1V11.3a6.01,6.01,0,0,1,2.448,1.232,2.639,2.639,0,0,1,.784,1.936c0,1.152-.608,1.952-1.568,1.952a1.627,1.627,0,0,1-1.264-.688,2.1,2.1,0,0,0-1.536-.912.974.974,0,0,0-1.04.96c0,.864.96,1.44,2.432,1.44,2.768,0,4.8-1.824,4.8-4.16a2.944,2.944,0,0,0-1.952-2.848A2.186,2.186,0,0,0,8.458,8.184,2.372,2.372,0,0,0,5.834,5.992,3.973,3.973,0,0,0,2.17,8.424ZM12.375,17H10.836V15.422h1.539Zm9.132-3.376h-.4c-.416,1.152-.784,1.248-2.448,1.248h-2.24l2.592-2.464A4.742,4.742,0,0,0,20.835,8.92a2.742,2.742,0,0,0-2.912-2.928c-1.6,0-2.816,1.024-3.568,3.264H14.8a2.2,2.2,0,0,1,1.952-1.44,1.863,1.863,0,0,1,1.9,2.032,4.628,4.628,0,0,1-.816,2.368,28.9,28.9,0,0,1-3.712,4.416V17h6.64Zm7.968-2.016c0-2.656-1.024-5.616-3.568-5.616-2.736,0-3.664,3.056-3.664,5.664,0,3.328,1.536,5.552,3.632,5.552C27.955,17.208,29.475,14.984,29.475,11.608Zm-2.528,1.808c0,2.384-.272,3.344-1.072,3.344s-1.1-.96-1.1-3.344v-3.6c0-2.432.288-3.376,1.072-3.376s1.1,1.024,1.1,3.376Zm10.528-1.808c0-2.656-1.024-5.616-3.568-5.616-2.736,0-3.664,3.056-3.664,5.664,0,3.328,1.536,5.552,3.632,5.552C35.955,17.208,37.475,14.984,37.475,11.608Zm-2.528,1.808c0,2.384-.272,3.344-1.072,3.344s-1.1-.96-1.1-3.344v-3.6c0-2.432.288-3.376,1.072-3.376s1.1,1.024,1.1,3.376ZM40.656,17H39.117V15.422h1.539Zm9.1-5.392c0-2.656-1.024-5.616-3.568-5.616-2.736,0-3.664,3.056-3.664,5.664,0,3.328,1.536,5.552,3.632,5.552C48.237,17.208,49.757,14.984,49.757,11.608Zm-2.528,1.808c0,2.384-.272,3.344-1.072,3.344s-1.1-.96-1.1-3.344v-3.6c0-2.432.288-3.376,1.072-3.376s1.1,1.024,1.1,3.376Zm10.528-1.808c0-2.656-1.024-5.616-3.568-5.616-2.736,0-3.664,3.056-3.664,5.664,0,3.328,1.536,5.552,3.632,5.552C56.237,17.208,57.757,14.984,57.757,11.608Zm-2.528,1.808c0,2.384-.272,3.344-1.072,3.344s-1.1-.96-1.1-3.344v-3.6c0-2.432.288-3.376,1.072-3.376s1.1,1.024,1.1,3.376Zm10.528-1.808c0-2.656-1.024-5.616-3.568-5.616-2.736,0-3.664,3.056-3.664,5.664,0,3.328,1.536,5.552,3.632,5.552C64.237,17.208,65.757,14.984,65.757,11.608Zm-2.528,1.808c0,2.384-.272,3.344-1.072,3.344s-1.1-.96-1.1-3.344v-3.6c0-2.432.288-3.376,1.072-3.376s1.1,1.024,1.1,3.376ZM73.2,17v-.384c-1.456-.032-1.712-.288-1.712-1.5V5.992H71.2L67.181,7.736v.416l.32-.128a3.266,3.266,0,0,1,1.04-.256c.4,0,.576.368.576,1.12v6.048c0,1.392-.3,1.664-1.888,1.68V17Zm8.592-3.376h-.4c-.416,1.152-.784,1.248-2.448,1.248H76.7l2.592-2.464A4.742,4.742,0,0,0,81.117,8.92,2.742,2.742,0,0,0,78.2,5.992c-1.6,0-2.816,1.024-3.568,3.264h.448a2.2,2.2,0,0,1,1.952-1.44,1.863,1.863,0,0,1,1.9,2.032,4.628,4.628,0,0,1-.816,2.368,28.9,28.9,0,0,1-3.712,4.416V17h6.64ZM84.938,17H83.4V15.422h1.539Zm9.036-2.992c0-1.344-.592-2.224-2.4-3.456,1.52-.464,2.176-1.216,2.176-2.24,0-1.28-1.12-2.32-3.12-2.32-2.208,0-3.584,1.1-3.584,2.8,0,1.216.624,2.064,2.208,3.008a2.7,2.7,0,0,0-2.384,2.688c0,1.712,1.36,2.72,3.392,2.72C92.582,17.208,93.974,15.928,93.974,14.008Zm-2.128-5.6a2.544,2.544,0,0,1-.656,1.84c-1.344-.688-2.08-1.568-2.08-2.464a1.3,1.3,0,0,1,1.328-1.328C91.334,6.456,91.846,7.32,91.846,8.408Zm-.1,6.56c0,1.136-.592,1.728-1.456,1.728-.976,0-1.488-.848-1.488-2.272a3.838,3.838,0,0,1,.816-2.32C91.366,13.272,91.75,13.784,91.75,14.968Zm10.288-3.36c0-2.656-1.024-5.616-3.568-5.616-2.736,0-3.664,3.056-3.664,5.664,0,3.328,1.536,5.552,3.632,5.552C100.518,17.208,102.038,14.984,102.038,11.608ZM99.51,13.416c0,2.384-.272,3.344-1.072,3.344s-1.1-.96-1.1-3.344v-3.6c0-2.432.288-3.376,1.072-3.376s1.1,1.024,1.1,3.376Zm10.528-1.808c0-2.656-1.024-5.616-3.568-5.616-2.736,0-3.664,3.056-3.664,5.664,0,3.328,1.536,5.552,3.632,5.552C108.518,17.208,110.038,14.984,110.038,11.608Zm-2.528,1.808c0,2.384-.272,3.344-1.072,3.344s-1.1-.96-1.1-3.344v-3.6c0-2.432.288-3.376,1.072-3.376s1.1,1.024,1.1,3.376ZM28.351,34.408c.32,0,1.024-.032,1.024.432a2.844,2.844,0,0,1-.112.624,19.476,19.476,0,0,0-1.04,4.5c0,.9.736,1.264,1.536,1.264a3.888,3.888,0,0,0,2.08-.688,12,12,0,0,0,3.568-4.128,4.376,4.376,0,0,0,.608-1.744,1.265,1.265,0,0,0-1.232-1.232,1.016,1.016,0,0,0-1.008.96c0,.912.752.848.752,1.68a2.032,2.032,0,0,1-.08.544c-.272.976-2.112,3.312-3.168,3.312-.448,0-.8-.176-.8-.672a21.7,21.7,0,0,1,.992-3.888c.192-.64.336-1.3.544-1.936a20.113,20.113,0,0,1-3.664.592Zm12.016-.88-3.088.544.048.448a1.976,1.976,0,0,1,.656-.176.229.229,0,0,1,.256.24,3.377,3.377,0,0,1-.048.336L36.783,41h1.824l.32-1.28c.1-.384,1.36-4.464,2.032-4.464.256,0,.128.608.784.608a1.329,1.329,0,0,0,1.3-1.376.907.907,0,0,0-.992-.88,2.585,2.585,0,0,0-2,1.376ZM46.108,41H44.569V39.422h1.539Zm9.2-1.664c-.3.416-.576.736-.864.736-.24,0-.3-.288-.3-.56a1.612,1.612,0,0,1,.032-.3L55.416,33.8H53.608l-.3,1.44c-.384,1.84-2.272,4.72-3.04,4.72-.192,0-.336-.064-.336-.352a2.244,2.244,0,0,1,.1-.512l1.264-5.5-3.1.528.048.384a4.605,4.605,0,0,1,.7-.112c.112,0,.208.048.208.336a3.084,3.084,0,0,1-.048.4l-.864,3.808a4.066,4.066,0,0,0-.112.912,1.147,1.147,0,0,0,1.264,1.312c1.52,0,2.464-1.344,2.912-2.064h.048a3.319,3.319,0,0,0-.272,1.312c.016.512.656.752,1.072.752a2.746,2.746,0,0,0,2.48-1.664Zm8.944-.016c-.32.416-.576.752-.864.752-.272,0-.336-.208-.336-.432a2.081,2.081,0,0,1,.048-.352l.8-3.408a6.507,6.507,0,0,0,.112-.976c0-.72-.32-1.3-1.424-1.3a3.194,3.194,0,0,0-2.72,1.7H59.8l.432-1.776-3.12.544.08.448a2.546,2.546,0,0,1,.752-.144c.16,0,.176.064.176.24a1.235,1.235,0,0,1-.032.24L56.68,41h1.84l.4-1.744c.4-1.76,1.744-4.448,2.656-4.448.256,0,.464.128.464.56a4.938,4.938,0,0,1-.048.752l-.864,3.568a2.44,2.44,0,0,0-.1.544c0,.56.352.928,1.088.928A2.775,2.775,0,0,0,64.568,39.5ZM69.9,32.072a1.066,1.066,0,0,0-1.056-.992,1.09,1.09,0,0,0-1.056.992,1.066,1.066,0,0,0,1.056.992A1.043,1.043,0,0,0,69.9,32.072Zm-.72,7.264c-.3.368-.544.736-.864.736a.376.376,0,0,1-.336-.4A2.855,2.855,0,0,1,68.1,38.9l1.248-5.3-3.152.544.064.368a2.974,2.974,0,0,1,.592-.048c.24,0,.32.112.32.288a2.1,2.1,0,0,1-.08.432l-1.056,4.56a1.837,1.837,0,0,0-.064.5c0,.512.256.9,1.072.9a2.8,2.8,0,0,0,2.432-1.616Zm11.056-9.3-3.264.5.064.368a3.677,3.677,0,0,1,.672-.112c.208,0,.272.16.272.352a1.621,1.621,0,0,1-.064.416l-.592,2.432a2.759,2.759,0,0,0-1.36-.336c-2.944,0-4.448,3.248-4.448,5.552a1.872,1.872,0,0,0,2.112,2.016,3.245,3.245,0,0,0,2.256-1.1h.08a1.083,1.083,0,0,0,1.056,1.1,2.862,2.862,0,0,0,2.544-1.68l-.3-.176c-.288.384-.56.752-.848.752a.345.345,0,0,1-.384-.384,3.169,3.169,0,0,1,.128-.656Zm-3.264,5.424a6.866,6.866,0,0,1-.336,1.728c-.432,1.52-1.664,2.928-2.512,2.928-.336,0-.768-.272-.768-1.072,0-2.3,1.408-4.752,2.656-4.752A1.045,1.045,0,0,1,76.968,35.464ZM83.125,41H81.586V39.422h1.539Z" transform="translate(744 3019)" fill="#9f0925"/>
    <path id="Trazado_734721" data-name="Trazado 734721" d="M7.7,10.57H1.188V9.289H7.7Zm0,3.25H1.188V12.539H7.7Zm8.953-.2h-.4c-.416,1.152-.784,1.248-2.448,1.248h-2.24l2.592-2.464A4.742,4.742,0,0,0,15.984,8.92a2.742,2.742,0,0,0-2.912-2.928c-1.6,0-2.816,1.024-3.568,3.264h.448A2.2,2.2,0,0,1,11.9,7.816a1.863,1.863,0,0,1,1.9,2.032,4.628,4.628,0,0,1-.816,2.368A28.9,28.9,0,0,1,9.28,16.632V17h6.64Zm7.872-7.44H19.376L17.824,11.7a12.311,12.311,0,0,1,2.88.352c1.472.464,2.272,1.344,2.272,2.432a1.591,1.591,0,0,1-1.6,1.664,2.375,2.375,0,0,1-1.44-.672,2.487,2.487,0,0,0-1.6-.736.95.95,0,0,0-.976.976c0,.752.928,1.408,2.352,1.408,2.64,0,4.512-1.536,4.512-3.872a3.481,3.481,0,0,0-2.768-3.424,10.122,10.122,0,0,0-2.416-.32l.352-1.3h4.416Zm8.1,5.424c0-2.656-1.024-5.616-3.568-5.616-2.736,0-3.664,3.056-3.664,5.664,0,3.328,1.536,5.552,3.632,5.552C31.1,17.208,32.624,14.984,32.624,11.608ZM30.1,13.416c0,2.384-.272,3.344-1.072,3.344s-1.1-.96-1.1-3.344v-3.6c0-2.432.288-3.376,1.072-3.376s1.1,1.024,1.1,3.376Zm14.6,1.92c-.3.416-.576.736-.864.736-.24,0-.3-.288-.3-.56a1.612,1.612,0,0,1,.032-.3L44.808,9.8H43l-.3,1.44c-.384,1.84-2.272,4.72-3.04,4.72-.192,0-.336-.064-.336-.352a2.244,2.244,0,0,1,.1-.512l1.264-5.5-3.1.528.048.384a4.605,4.605,0,0,1,.7-.112c.112,0,.208.048.208.336a3.084,3.084,0,0,1-.048.4l-.864,3.808a4.066,4.066,0,0,0-.112.912,1.147,1.147,0,0,0,1.264,1.312c1.52,0,2.464-1.344,2.912-2.064h.048a3.319,3.319,0,0,0-.272,1.312c.016.512.656.752,1.072.752a2.746,2.746,0,0,0,2.48-1.664Zm8.944-.016c-.32.416-.576.752-.864.752-.272,0-.336-.208-.336-.432a2.081,2.081,0,0,1,.048-.352l.8-3.408A6.507,6.507,0,0,0,53.4,10.9c0-.72-.32-1.3-1.424-1.3a3.194,3.194,0,0,0-2.72,1.7h-.064l.432-1.776-3.12.544.08.448a2.546,2.546,0,0,1,.752-.144c.16,0,.176.064.176.24a1.235,1.235,0,0,1-.032.24L46.072,17h1.84l.4-1.744c.4-1.76,1.744-4.448,2.656-4.448.256,0,.464.128.464.56a4.938,4.938,0,0,1-.048.752l-.864,3.568a2.439,2.439,0,0,0-.1.544c0,.56.352.928,1.088.928A2.775,2.775,0,0,0,53.96,15.5Zm5.648-7.248a1.066,1.066,0,0,0-1.056-.992,1.09,1.09,0,0,0-1.056.992,1.066,1.066,0,0,0,1.056.992A1.043,1.043,0,0,0,59.288,8.072Zm-.72,7.264c-.3.368-.544.736-.864.736a.376.376,0,0,1-.336-.4A2.855,2.855,0,0,1,57.5,14.9l1.248-5.3-3.152.544.064.368a2.974,2.974,0,0,1,.592-.048c.24,0,.32.112.32.288a2.1,2.1,0,0,1-.08.432l-1.056,4.56a1.837,1.837,0,0,0-.064.5c0,.512.256.9,1.072.9a2.8,2.8,0,0,0,2.432-1.616Zm11.056-9.3-3.264.5.064.368a3.677,3.677,0,0,1,.672-.112c.208,0,.272.16.272.352a1.621,1.621,0,0,1-.064.416l-.592,2.432a2.759,2.759,0,0,0-1.36-.336c-2.944,0-4.448,3.248-4.448,5.552a1.872,1.872,0,0,0,2.112,2.016,3.245,3.245,0,0,0,2.256-1.1h.08a1.083,1.083,0,0,0,1.056,1.1,2.862,2.862,0,0,0,2.544-1.68l-.3-.176c-.288.384-.56.752-.848.752a.345.345,0,0,1-.384-.384,3.169,3.169,0,0,1,.128-.656ZM66.36,11.464a6.867,6.867,0,0,1-.336,1.728c-.432,1.52-1.664,2.928-2.512,2.928-.336,0-.768-.272-.768-1.072,0-2.3,1.408-4.752,2.656-4.752A1.045,1.045,0,0,1,66.36,11.464ZM78.184,15.32c-.336.432-.592.768-.9.768-.192,0-.256-.224-.256-.5a3.253,3.253,0,0,1,.1-.72L78.312,9.8h-1.84l-.176.816h-.032A1.209,1.209,0,0,0,74.92,9.608c-2.64,0-4.5,3.376-4.5,5.6a1.832,1.832,0,0,0,2.048,1.952,3.269,3.269,0,0,0,2.336-1.12h.1a1.034,1.034,0,0,0,1.1,1.12,2.7,2.7,0,0,0,2.48-1.648ZM75.832,11.8c0,1.792-1.712,4.24-2.832,4.24-.288,0-.72-.16-.72-1.04,0-2.288,1.552-4.768,2.688-4.768C75.512,10.232,75.832,10.776,75.832,11.8ZM88.44,6.04l-3.264.5.064.368a3.677,3.677,0,0,1,.672-.112c.208,0,.272.16.272.352a1.621,1.621,0,0,1-.064.416l-.592,2.432a2.759,2.759,0,0,0-1.36-.336c-2.944,0-4.448,3.248-4.448,5.552a1.872,1.872,0,0,0,2.112,2.016,3.245,3.245,0,0,0,2.256-1.1h.08a1.083,1.083,0,0,0,1.056,1.1,2.862,2.862,0,0,0,2.544-1.68l-.3-.176c-.288.384-.56.752-.848.752a.345.345,0,0,1-.384-.384,3.169,3.169,0,0,1,.128-.656Zm-3.264,5.424a6.866,6.866,0,0,1-.336,1.728c-.432,1.52-1.664,2.928-2.512,2.928-.336,0-.768-.272-.768-1.072,0-2.3,1.408-4.752,2.656-4.752A1.045,1.045,0,0,1,85.176,11.464Zm9.952,3.712c-.944.912-1.488,1.264-2.4,1.264-.928,0-1.632-.656-1.632-1.968a.813.813,0,0,1,.064-.368c1.824-.144,4.72-1.248,4.72-3.152,0-1.184-1.264-1.344-1.968-1.344a4.98,4.98,0,0,0-4.576,4.08,3.862,3.862,0,0,0-.1.944,2.341,2.341,0,0,0,2.528,2.528,4.276,4.276,0,0,0,3.664-1.872Zm-.864-4.352c0,1.136-1.712,2.464-2.992,2.64.144-1.248,1.36-3.216,2.448-3.216C94.136,10.248,94.264,10.408,94.264,10.824Zm8.944-1.216h-.4a.652.652,0,0,1-.624.352,4.976,4.976,0,0,0-1.488-.352,1.916,1.916,0,0,0-2.08,1.872c0,.864.816,1.712,1.456,2.464a2.125,2.125,0,0,1,.752,1.36c0,.656-.272,1.28-1.008,1.28a2.063,2.063,0,0,1-1.7-2.048h-.384l-.352,2.64h.4a.967.967,0,0,1,.624-.352,9.987,9.987,0,0,0,1.76.336,2.223,2.223,0,0,0,2.48-2.064,3.39,3.39,0,0,0-1.2-2.384c-.544-.64-1.088-1.168-1.088-1.632,0-.672.3-.88.736-.88.608,0,1.392.8,1.408,1.968h.352Z" transform="translate(864 3031)" fill="#9f0925"/>
    <path id="Trazado_734720" data-name="Trazado 734720" d="M0,0H117.356" transform="translate(738.644 3043)" fill="none" stroke="#9f0925" stroke-width="1"/>
  </g>
</svg>
