<svg xmlns="http://www.w3.org/2000/svg" width="1030" height="113" viewBox="0 0 1030 113">
  <g id="Grupo_986676" data-name="Grupo 986676" transform="translate(-285 -1777)">
    <g id="Grupo_960288" data-name="Grupo 960288" transform="translate(0 12)">
      <rect id="Rectángulo_33820" data-name="Rectángulo 33820" width="1030" height="113" transform="translate(285 1765)" fill="#cdfafb"/>
      <path id="Trazado_730046" data-name="Trazado 730046" d="M6.93,12.008h.047L9.9,3.625h2.977V15H10.594V7.234l-.047-.008L7.734,15H6.188L3.375,7.211l-.047.008V15H1.047V3.625H4.039ZM17.2,15H14.914V6.547H17.2Zm0-10.477H14.914V2.813H17.2ZM21.469,15H19.188V2.813h2.281Zm4.32,0H23.508V6.547h2.281Zm-.68-11.9h2.539l.016.047L25.5,5.18H23.555Zm4.742,3.445.094,1.117a2.84,2.84,0,0,1,1.02-.941,2.932,2.932,0,0,1,1.418-.332,2.582,2.582,0,0,1,1.391.359,2.217,2.217,0,0,1,.875,1.086,2.93,2.93,0,0,1,1.016-1.062,2.756,2.756,0,0,1,1.469-.383,2.408,2.408,0,0,1,1.973.887,4.233,4.233,0,0,1,.723,2.707V15H37.547V9.977a2.369,2.369,0,0,0-.312-1.414,1.109,1.109,0,0,0-.93-.4,1.592,1.592,0,0,0-.84.215,1.565,1.565,0,0,0-.566.6q0,.148.008.254t.008.215V15H32.641V9.977a2.376,2.376,0,0,0-.312-1.4,1.1,1.1,0,0,0-.937-.41,1.769,1.769,0,0,0-.809.176,1.551,1.551,0,0,0-.574.5V15H27.734V6.547Zm15.391,8.617A3.8,3.8,0,0,1,42.289,14a4.252,4.252,0,0,1-1.062-2.988V10.7a4.628,4.628,0,0,1,1.031-3.109,3.506,3.506,0,0,1,2.836-1.2,3.282,3.282,0,0,1,2.613,1.043,4.122,4.122,0,0,1,.91,2.809v1.18H43.578l-.023.047a2.284,2.284,0,0,0,.527,1.406,1.766,1.766,0,0,0,1.4.539,4.692,4.692,0,0,0,1.3-.156,5.307,5.307,0,0,0,1.105-.477l.617,1.406a4.234,4.234,0,0,1-1.375.7A6.1,6.1,0,0,1,45.242,15.164Zm-.148-7.016a1.267,1.267,0,0,0-1.059.473,2.371,2.371,0,0,0-.449,1.254l.016.039h2.781V9.742a1.974,1.974,0,0,0-.3-1.168A1.127,1.127,0,0,0,45.094,8.148ZM52.68,4.477v2.07h1.43v1.6H52.68v4.3a.982.982,0,0,0,.207.7.727.727,0,0,0,.543.211,2.178,2.178,0,0,0,.313-.02,2.632,2.632,0,0,0,.3-.066l.188,1.648a4.618,4.618,0,0,1-.668.176,3.982,3.982,0,0,1-.707.059,2.431,2.431,0,0,1-1.816-.648,2.843,2.843,0,0,1-.637-2.055V8.148H49.172v-1.6h1.234V4.477Zm7.281,4.031-.836-.023a1.519,1.519,0,0,0-.836.211,1.337,1.337,0,0,0-.5.594V15H55.516V6.547h2.117l.1,1.25a2.667,2.667,0,0,1,.77-1.035,1.8,1.8,0,0,1,1.406-.344q.145.027.293.066Zm.68,2.188A4.536,4.536,0,0,1,61.7,7.6a3.676,3.676,0,0,1,2.922-1.207,3.715,3.715,0,0,1,2.938,1.2,4.512,4.512,0,0,1,1.063,3.1v.164a4.519,4.519,0,0,1-1.059,3.105,4.178,4.178,0,0,1-5.859,0,4.519,4.519,0,0,1-1.059-3.105Zm2.273.164a3.677,3.677,0,0,0,.406,1.855,1.561,1.561,0,0,0,2.605,0,3.653,3.653,0,0,0,.41-1.852V10.7a3.616,3.616,0,0,0-.414-1.836,1.4,1.4,0,0,0-1.3-.711,1.384,1.384,0,0,0-1.293.715,3.648,3.648,0,0,0-.41,1.832Zm87.531.375.016.047a3.561,3.561,0,0,1-1.109,2.852,4.523,4.523,0,0,1-3.148,1.031,4.361,4.361,0,0,1-3.3-1.316,4.722,4.722,0,0,1-1.258-3.4V8.188a4.809,4.809,0,0,1,1.227-3.4,4.182,4.182,0,0,1,3.219-1.324,4.8,4.8,0,0,1,3.25,1.016,3.5,3.5,0,0,1,1.141,2.859l-.016.047h-2.219a2.236,2.236,0,0,0-.527-1.629,2.2,2.2,0,0,0-1.629-.535,1.839,1.839,0,0,0-1.6.824,3.645,3.645,0,0,0-.574,2.129v2.273a3.538,3.538,0,0,0,.605,2.141,1.968,1.968,0,0,0,1.684.828,2,2,0,0,0,1.527-.535,2.328,2.328,0,0,0,.5-1.645Zm5.141,3.93A3.8,3.8,0,0,1,152.633,14a4.252,4.252,0,0,1-1.062-2.988V10.7A4.628,4.628,0,0,1,152.6,7.594a3.506,3.506,0,0,1,2.836-1.2,3.282,3.282,0,0,1,2.613,1.043,4.122,4.122,0,0,1,.91,2.809v1.18h-5.039l-.023.047a2.284,2.284,0,0,0,.527,1.406,1.766,1.766,0,0,0,1.4.539,4.692,4.692,0,0,0,1.3-.156,5.307,5.307,0,0,0,1.105-.477l.617,1.406a4.234,4.234,0,0,1-1.375.7A6.1,6.1,0,0,1,155.586,15.164Zm-.148-7.016a1.267,1.267,0,0,0-1.059.473,2.371,2.371,0,0,0-.449,1.254l.016.039h2.781V9.742a1.974,1.974,0,0,0-.3-1.168A1.127,1.127,0,0,0,155.438,8.148Zm6.938-1.6.1,1.211a3.092,3.092,0,0,1,1.039-1.008,2.7,2.7,0,0,1,1.383-.359,2.513,2.513,0,0,1,2,.824,3.908,3.908,0,0,1,.719,2.605V15h-2.289V9.828a2.024,2.024,0,0,0-.316-1.285,1.166,1.166,0,0,0-.949-.379,1.992,1.992,0,0,0-.895.191,1.746,1.746,0,0,0-.637.527V15H160.25V6.547Zm9.68-2.07v2.07h1.43v1.6h-1.43v4.3a.982.982,0,0,0,.207.7.727.727,0,0,0,.543.211,2.178,2.178,0,0,0,.313-.02,2.631,2.631,0,0,0,.3-.066l.188,1.648a4.619,4.619,0,0,1-.668.176,3.982,3.982,0,0,1-.707.059,2.431,2.431,0,0,1-1.816-.648,2.843,2.843,0,0,1-.637-2.055V8.148h-1.234v-1.6h1.234V4.477ZM177.336,15h-2.281V6.547h2.281Zm-.68-11.9H179.2l.016.047L177.047,5.18H175.1ZM181.4,6.547l.094,1.117a2.84,2.84,0,0,1,1.02-.941,2.932,2.932,0,0,1,1.418-.332,2.582,2.582,0,0,1,1.391.359,2.217,2.217,0,0,1,.875,1.086,2.93,2.93,0,0,1,1.016-1.062,2.756,2.756,0,0,1,1.469-.383,2.408,2.408,0,0,1,1.973.887,4.233,4.233,0,0,1,.723,2.707V15h-2.281V9.977a2.369,2.369,0,0,0-.312-1.414,1.109,1.109,0,0,0-.93-.4,1.592,1.592,0,0,0-.84.215,1.565,1.565,0,0,0-.566.6q0,.148.008.254t.008.215V15h-2.273V9.977a2.376,2.376,0,0,0-.312-1.4,1.1,1.1,0,0,0-.937-.41,1.769,1.769,0,0,0-.809.176,1.551,1.551,0,0,0-.574.5V15h-2.273V6.547Zm15.391,8.617A3.8,3.8,0,0,1,193.836,14a4.252,4.252,0,0,1-1.062-2.988V10.7A4.628,4.628,0,0,1,193.8,7.594a3.506,3.506,0,0,1,2.836-1.2,3.282,3.282,0,0,1,2.613,1.043,4.122,4.122,0,0,1,.91,2.809v1.18h-5.039l-.023.047a2.284,2.284,0,0,0,.527,1.406,1.766,1.766,0,0,0,1.4.539,4.692,4.692,0,0,0,1.3-.156,5.307,5.307,0,0,0,1.105-.477l.617,1.406a4.234,4.234,0,0,1-1.375.7A6.1,6.1,0,0,1,196.789,15.164Zm-.148-7.016a1.267,1.267,0,0,0-1.059.473,2.371,2.371,0,0,0-.449,1.254l.016.039h2.781V9.742a1.974,1.974,0,0,0-.3-1.168A1.127,1.127,0,0,0,196.641,8.148Zm7.586-3.672v2.07h1.43v1.6h-1.43v4.3a.982.982,0,0,0,.207.7.727.727,0,0,0,.543.211,2.178,2.178,0,0,0,.313-.02,2.631,2.631,0,0,0,.3-.066l.188,1.648a4.619,4.619,0,0,1-.668.176,3.982,3.982,0,0,1-.707.059,2.431,2.431,0,0,1-1.816-.648,2.843,2.843,0,0,1-.637-2.055V8.148h-1.234v-1.6h1.234V4.477Zm7.281,4.031-.836-.023a1.519,1.519,0,0,0-.836.211,1.337,1.337,0,0,0-.5.594V15h-2.273V6.547h2.117l.1,1.25a2.667,2.667,0,0,1,.77-1.035,1.8,1.8,0,0,1,1.406-.344q.145.027.293.066Zm.68,2.188a4.536,4.536,0,0,1,1.055-3.1,3.676,3.676,0,0,1,2.922-1.207,3.715,3.715,0,0,1,2.938,1.2,4.512,4.512,0,0,1,1.063,3.1v.164a4.519,4.519,0,0,1-1.059,3.105,4.178,4.178,0,0,1-5.859,0,4.519,4.519,0,0,1-1.059-3.105Zm2.273.164a3.677,3.677,0,0,0,.406,1.855,1.561,1.561,0,0,0,2.605,0,3.653,3.653,0,0,0,.41-1.852V10.7a3.616,3.616,0,0,0-.414-1.836,1.4,1.4,0,0,0-1.3-.711,1.384,1.384,0,0,0-1.293.715,3.648,3.648,0,0,0-.41,1.832Zm79,4.141V3.625h3.969a4.693,4.693,0,0,1,3.438,1.332,4.592,4.592,0,0,1,1.352,3.418v1.883a4.576,4.576,0,0,1-1.352,3.418A4.708,4.708,0,0,1,297.43,15Zm2.281-9.617V13.25h1.688a2.227,2.227,0,0,0,1.813-.84,3.287,3.287,0,0,0,.688-2.152v-1.9a3.259,3.259,0,0,0-.687-2.141,2.231,2.231,0,0,0-1.812-.836Zm11.8,9.781A3.8,3.8,0,0,1,304.586,14a4.252,4.252,0,0,1-1.062-2.988V10.7a4.628,4.628,0,0,1,1.031-3.109,3.506,3.506,0,0,1,2.836-1.2A3.282,3.282,0,0,1,310,7.434a4.122,4.122,0,0,1,.91,2.809v1.18h-5.039l-.023.047a2.284,2.284,0,0,0,.527,1.406,1.766,1.766,0,0,0,1.4.539,4.692,4.692,0,0,0,1.3-.156,5.307,5.307,0,0,0,1.105-.477l.617,1.406a4.234,4.234,0,0,1-1.375.7A6.1,6.1,0,0,1,307.539,15.164Zm-.148-7.016a1.267,1.267,0,0,0-1.059.473,2.371,2.371,0,0,0-.449,1.254l.016.039h2.781V9.742a1.974,1.974,0,0,0-.3-1.168A1.127,1.127,0,0,0,307.391,8.148Zm8.383,5.266a1.27,1.27,0,0,0,.945-.355,1.291,1.291,0,0,0,.352-.949h2.078l.016.047a2.645,2.645,0,0,1-.953,2.145,3.564,3.564,0,0,1-2.437.863,3.6,3.6,0,0,1-2.9-1.2,4.558,4.558,0,0,1-1.023-3.066v-.234a4.588,4.588,0,0,1,1.02-3.066,3.57,3.57,0,0,1,2.887-1.207,3.486,3.486,0,0,1,2.492.891,2.976,2.976,0,0,1,.914,2.344l-.016.047H317.07a1.687,1.687,0,0,0-.348-1.09,1.168,1.168,0,0,0-.965-.434,1.3,1.3,0,0,0-1.254.707,3.877,3.877,0,0,0-.371,1.809V10.9a3.863,3.863,0,0,0,.371,1.82A1.32,1.32,0,0,0,315.773,13.414ZM322.938,15h-2.281V6.547h2.281Zm-.68-11.9H324.8l.016.047L322.648,5.18H320.7ZM327,6.547l.094,1.117a2.84,2.84,0,0,1,1.02-.941,2.932,2.932,0,0,1,1.418-.332,2.582,2.582,0,0,1,1.391.359,2.217,2.217,0,0,1,.875,1.086,2.93,2.93,0,0,1,1.016-1.062,2.756,2.756,0,0,1,1.469-.383,2.408,2.408,0,0,1,1.973.887,4.233,4.233,0,0,1,.723,2.707V15H334.7V9.977a2.369,2.369,0,0,0-.312-1.414,1.109,1.109,0,0,0-.93-.4,1.592,1.592,0,0,0-.84.215,1.565,1.565,0,0,0-.566.6q0,.148.008.254t.008.215V15h-2.273V9.977a2.376,2.376,0,0,0-.312-1.4,1.1,1.1,0,0,0-.937-.41,1.769,1.769,0,0,0-.809.176,1.551,1.551,0,0,0-.574.5V15h-2.273V6.547Zm15.391,8.617A3.8,3.8,0,0,1,339.438,14a4.252,4.252,0,0,1-1.062-2.988V10.7a4.628,4.628,0,0,1,1.031-3.109,3.506,3.506,0,0,1,2.836-1.2,3.282,3.282,0,0,1,2.613,1.043,4.122,4.122,0,0,1,.91,2.809v1.18h-5.039l-.023.047a2.284,2.284,0,0,0,.527,1.406,1.766,1.766,0,0,0,1.4.539,4.692,4.692,0,0,0,1.3-.156,5.307,5.307,0,0,0,1.105-.477l.617,1.406a4.234,4.234,0,0,1-1.375.7A6.1,6.1,0,0,1,342.391,15.164Zm-.148-7.016a1.267,1.267,0,0,0-1.059.473,2.371,2.371,0,0,0-.449,1.254l.016.039h2.781V9.742a1.974,1.974,0,0,0-.3-1.168A1.127,1.127,0,0,0,342.242,8.148Zm7.586-3.672v2.07h1.43v1.6h-1.43v4.3a.982.982,0,0,0,.207.7.727.727,0,0,0,.543.211,2.178,2.178,0,0,0,.313-.02,2.633,2.633,0,0,0,.3-.066l.188,1.648a4.617,4.617,0,0,1-.668.176,3.982,3.982,0,0,1-.707.059,2.431,2.431,0,0,1-1.816-.648,2.843,2.843,0,0,1-.637-2.055V8.148H346.32v-1.6h1.234V4.477Zm7.281,4.031-.836-.023a1.519,1.519,0,0,0-.836.211,1.337,1.337,0,0,0-.5.594V15h-2.273V6.547h2.117l.1,1.25a2.667,2.667,0,0,1,.77-1.035,1.8,1.8,0,0,1,1.406-.344q.145.027.293.066Zm.68,2.188a4.536,4.536,0,0,1,1.055-3.1,3.676,3.676,0,0,1,2.922-1.207,3.715,3.715,0,0,1,2.938,1.2,4.512,4.512,0,0,1,1.063,3.1v.164a4.519,4.519,0,0,1-1.059,3.105,4.178,4.178,0,0,1-5.859,0,4.519,4.519,0,0,1-1.059-3.105Zm2.273.164a3.677,3.677,0,0,0,.406,1.855,1.561,1.561,0,0,0,2.605,0,3.653,3.653,0,0,0,.41-1.852V10.7a3.616,3.616,0,0,0-.414-1.836,1.4,1.4,0,0,0-1.3-.711,1.384,1.384,0,0,0-1.293.715,3.648,3.648,0,0,0-.41,1.832Zm84.883,1.148h.047l2.922-8.383h2.977V15h-2.281V7.234l-.047-.008L445.75,15H444.2l-2.812-7.789-.047.008V15h-2.281V3.625h2.992Zm11.531,3.156A3.8,3.8,0,0,1,453.523,14a4.252,4.252,0,0,1-1.062-2.988V10.7a4.628,4.628,0,0,1,1.031-3.109,3.506,3.506,0,0,1,2.836-1.2,3.282,3.282,0,0,1,2.613,1.043,4.122,4.122,0,0,1,.91,2.809v1.18h-5.039l-.023.047a2.284,2.284,0,0,0,.527,1.406,1.766,1.766,0,0,0,1.4.539,4.692,4.692,0,0,0,1.3-.156,5.307,5.307,0,0,0,1.105-.477l.617,1.406a4.234,4.234,0,0,1-1.375.7A6.1,6.1,0,0,1,456.477,15.164Zm-.148-7.016a1.267,1.267,0,0,0-1.059.473,2.371,2.371,0,0,0-.449,1.254l.016.039h2.781V9.742a1.974,1.974,0,0,0-.3-1.168A1.127,1.127,0,0,0,456.328,8.148Zm7.586-3.672v2.07h1.43v1.6h-1.43v4.3a.982.982,0,0,0,.207.7.727.727,0,0,0,.543.211,2.178,2.178,0,0,0,.313-.02,2.633,2.633,0,0,0,.3-.066l.188,1.648a4.617,4.617,0,0,1-.668.176,3.982,3.982,0,0,1-.707.059,2.431,2.431,0,0,1-1.816-.648,2.843,2.843,0,0,1-.637-2.055V8.148h-1.234v-1.6h1.234V4.477ZM471.2,8.508l-.836-.023a1.519,1.519,0,0,0-.836.211,1.337,1.337,0,0,0-.5.594V15H466.75V6.547h2.117l.1,1.25a2.667,2.667,0,0,1,.77-1.035,1.8,1.8,0,0,1,1.406-.344q.145.027.293.066Zm.68,2.188a4.536,4.536,0,0,1,1.055-3.1,3.676,3.676,0,0,1,2.922-1.207,3.715,3.715,0,0,1,2.938,1.2,4.512,4.512,0,0,1,1.063,3.1v.164a4.519,4.519,0,0,1-1.059,3.105,4.178,4.178,0,0,1-5.859,0,4.519,4.519,0,0,1-1.059-3.105Zm2.273.164a3.677,3.677,0,0,0,.406,1.855,1.561,1.561,0,0,0,2.605,0,3.653,3.653,0,0,0,.41-1.852V10.7a3.616,3.616,0,0,0-.414-1.836,1.4,1.4,0,0,0-1.3-.711,1.384,1.384,0,0,0-1.293.715,3.648,3.648,0,0,0-.41,1.832Zm79,4.141V3.625h3.969a4.693,4.693,0,0,1,3.438,1.332,4.592,4.592,0,0,1,1.352,3.418v1.883a4.575,4.575,0,0,1-1.352,3.418A4.708,4.708,0,0,1,557.117,15Zm2.281-9.617V13.25h1.688a2.227,2.227,0,0,0,1.813-.84,3.287,3.287,0,0,0,.688-2.152v-1.9a3.259,3.259,0,0,0-.687-2.141,2.231,2.231,0,0,0-1.812-.836Zm11.8,9.781A3.8,3.8,0,0,1,564.273,14a4.252,4.252,0,0,1-1.062-2.988V10.7a4.628,4.628,0,0,1,1.031-3.109,3.506,3.506,0,0,1,2.836-1.2,3.282,3.282,0,0,1,2.613,1.043,4.122,4.122,0,0,1,.91,2.809v1.18h-5.039l-.023.047a2.283,2.283,0,0,0,.527,1.406,1.766,1.766,0,0,0,1.4.539,4.692,4.692,0,0,0,1.3-.156,5.307,5.307,0,0,0,1.105-.477l.617,1.406a4.234,4.234,0,0,1-1.375.7A6.1,6.1,0,0,1,567.227,15.164Zm-.148-7.016a1.267,1.267,0,0,0-1.059.473,2.371,2.371,0,0,0-.449,1.254l.016.039h2.781V9.742a1.974,1.974,0,0,0-.3-1.168A1.127,1.127,0,0,0,567.078,8.148Zm8.383,5.266a1.27,1.27,0,0,0,.945-.355,1.291,1.291,0,0,0,.352-.949h2.078l.016.047A2.646,2.646,0,0,1,577.9,14.3a3.564,3.564,0,0,1-2.437.863,3.6,3.6,0,0,1-2.9-1.2,4.558,4.558,0,0,1-1.023-3.066v-.234a4.588,4.588,0,0,1,1.02-3.066,3.57,3.57,0,0,1,2.887-1.207,3.486,3.486,0,0,1,2.492.891,2.977,2.977,0,0,1,.914,2.344l-.016.047h-2.078a1.687,1.687,0,0,0-.348-1.09,1.168,1.168,0,0,0-.965-.434,1.3,1.3,0,0,0-1.254.707,3.878,3.878,0,0,0-.371,1.809V10.9a3.863,3.863,0,0,0,.371,1.82A1.32,1.32,0,0,0,575.461,13.414Zm9.7,1.586a4.8,4.8,0,0,1-.215-.609,4.244,4.244,0,0,1-.129-.656,3.127,3.127,0,0,1-.93,1.023,2.33,2.33,0,0,1-1.375.406,2.855,2.855,0,0,1-2.047-.684,2.449,2.449,0,0,1-.719-1.863,2.229,2.229,0,0,1,.957-1.926,4.78,4.78,0,0,1,2.793-.684h1.281V9.336a1.315,1.315,0,0,0-.32-.945,1.257,1.257,0,0,0-.953-.336,1.239,1.239,0,0,0-.855.27.941.941,0,0,0-.3.738h-2.2l-.016-.047a2.144,2.144,0,0,1,.934-1.848,4.055,4.055,0,0,1,2.582-.777,3.784,3.784,0,0,1,2.465.766,2.667,2.667,0,0,1,.941,2.2v3.492a6.607,6.607,0,0,0,.09,1.117A5.606,5.606,0,0,0,587.438,15Zm-2.086-1.523a1.944,1.944,0,0,0,1.063-.3,1.6,1.6,0,0,0,.641-.687V11.3H583.5a1.519,1.519,0,0,0-1.1.359,1.181,1.181,0,0,0-.371.883.881.881,0,0,0,.277.684A1.1,1.1,0,0,0,583.078,13.477Zm.945-10.539h2.539l.016.047-2.164,2.031h-1.945Zm6.867,3.609.094,1.117A2.839,2.839,0,0,1,592,6.723a2.932,2.932,0,0,1,1.418-.332,2.582,2.582,0,0,1,1.391.359,2.217,2.217,0,0,1,.875,1.086A2.93,2.93,0,0,1,596.7,6.773a2.756,2.756,0,0,1,1.469-.383,2.408,2.408,0,0,1,1.973.887,4.233,4.233,0,0,1,.723,2.707V15h-2.281V9.977a2.369,2.369,0,0,0-.312-1.414,1.109,1.109,0,0,0-.93-.4,1.592,1.592,0,0,0-.84.215,1.565,1.565,0,0,0-.566.6q0,.148.008.254t.008.215V15H593.68V9.977a2.376,2.376,0,0,0-.312-1.4,1.1,1.1,0,0,0-.937-.41,1.769,1.769,0,0,0-.809.176,1.551,1.551,0,0,0-.574.5V15h-2.273V6.547Zm15.391,8.617A3.8,3.8,0,0,1,603.328,14a4.252,4.252,0,0,1-1.062-2.988V10.7A4.628,4.628,0,0,1,603.3,7.594a3.506,3.506,0,0,1,2.836-1.2,3.282,3.282,0,0,1,2.613,1.043,4.122,4.122,0,0,1,.91,2.809v1.18h-5.039l-.023.047a2.283,2.283,0,0,0,.527,1.406,1.766,1.766,0,0,0,1.4.539,4.692,4.692,0,0,0,1.3-.156,5.307,5.307,0,0,0,1.105-.477l.617,1.406a4.234,4.234,0,0,1-1.375.7A6.1,6.1,0,0,1,606.281,15.164Zm-.148-7.016a1.267,1.267,0,0,0-1.059.473,2.371,2.371,0,0,0-.449,1.254l.016.039h2.781V9.742a1.974,1.974,0,0,0-.3-1.168A1.127,1.127,0,0,0,606.133,8.148Zm7.586-3.672v2.07h1.43v1.6h-1.43v4.3a.982.982,0,0,0,.207.7.727.727,0,0,0,.543.211,2.178,2.178,0,0,0,.313-.02,2.63,2.63,0,0,0,.3-.066l.188,1.648a4.62,4.62,0,0,1-.668.176,3.982,3.982,0,0,1-.707.059,2.431,2.431,0,0,1-1.816-.648,2.843,2.843,0,0,1-.637-2.055V8.148h-1.234v-1.6h1.234V4.477ZM621,8.508l-.836-.023a1.519,1.519,0,0,0-.836.211,1.337,1.337,0,0,0-.5.594V15h-2.273V6.547h2.117l.1,1.25a2.667,2.667,0,0,1,.77-1.035,1.8,1.8,0,0,1,1.406-.344q.145.027.293.066Zm.68,2.188a4.536,4.536,0,0,1,1.055-3.1,3.676,3.676,0,0,1,2.922-1.207,3.715,3.715,0,0,1,2.938,1.2,4.512,4.512,0,0,1,1.063,3.1v.164a4.519,4.519,0,0,1-1.059,3.105,4.178,4.178,0,0,1-5.859,0,4.519,4.519,0,0,1-1.059-3.105Zm2.273.164a3.678,3.678,0,0,0,.406,1.855,1.561,1.561,0,0,0,2.605,0,3.653,3.653,0,0,0,.41-1.852V10.7a3.616,3.616,0,0,0-.414-1.836,1.4,1.4,0,0,0-1.3-.711,1.384,1.384,0,0,0-1.293.715,3.648,3.648,0,0,0-.41,1.832ZM712.148,15h-2.281V10.273h-4.633V15h-2.281V3.625h2.281V8.516h4.633V3.625h2.281Zm5.586.164A3.8,3.8,0,0,1,714.781,14a4.252,4.252,0,0,1-1.062-2.988V10.7a4.628,4.628,0,0,1,1.031-3.109,3.506,3.506,0,0,1,2.836-1.2A3.282,3.282,0,0,1,720.2,7.434a4.122,4.122,0,0,1,.91,2.809v1.18H716.07l-.023.047a2.283,2.283,0,0,0,.527,1.406,1.766,1.766,0,0,0,1.4.539,4.692,4.692,0,0,0,1.3-.156,5.307,5.307,0,0,0,1.105-.477L721,14.188a4.234,4.234,0,0,1-1.375.7A6.1,6.1,0,0,1,717.734,15.164Zm-.148-7.016a1.267,1.267,0,0,0-1.059.473,2.371,2.371,0,0,0-.449,1.254l.016.039h2.781V9.742a1.974,1.974,0,0,0-.3-1.168A1.127,1.127,0,0,0,717.586,8.148Zm8.383,5.266a1.27,1.27,0,0,0,.945-.355,1.291,1.291,0,0,0,.352-.949h2.078l.016.047a2.646,2.646,0,0,1-.953,2.145,3.564,3.564,0,0,1-2.437.863,3.6,3.6,0,0,1-2.9-1.2,4.558,4.558,0,0,1-1.023-3.066v-.234a4.588,4.588,0,0,1,1.02-3.066,3.57,3.57,0,0,1,2.887-1.207,3.486,3.486,0,0,1,2.492.891,2.977,2.977,0,0,1,.914,2.344l-.016.047h-2.078a1.687,1.687,0,0,0-.348-1.09,1.168,1.168,0,0,0-.965-.434,1.3,1.3,0,0,0-1.254.707,3.878,3.878,0,0,0-.371,1.809V10.9a3.863,3.863,0,0,0,.371,1.82A1.32,1.32,0,0,0,725.969,13.414Zm7.453-8.937v2.07h1.43v1.6h-1.43v4.3a.982.982,0,0,0,.207.7.727.727,0,0,0,.543.211,2.178,2.178,0,0,0,.313-.02,2.63,2.63,0,0,0,.3-.066l.188,1.648a4.62,4.62,0,0,1-.668.176,3.982,3.982,0,0,1-.707.059,2.431,2.431,0,0,1-1.816-.648,2.843,2.843,0,0,1-.637-2.055V8.148h-1.234v-1.6h1.234V4.477Zm2.484,6.219a4.536,4.536,0,0,1,1.055-3.1,3.676,3.676,0,0,1,2.922-1.207,3.715,3.715,0,0,1,2.938,1.2,4.512,4.512,0,0,1,1.063,3.1v.164a4.519,4.519,0,0,1-1.059,3.105,4.178,4.178,0,0,1-5.859,0,4.519,4.519,0,0,1-1.059-3.105Zm2.273.164a3.678,3.678,0,0,0,.406,1.855,1.561,1.561,0,0,0,2.605,0,3.653,3.653,0,0,0,.41-1.852V10.7a3.616,3.616,0,0,0-.414-1.836,1.4,1.4,0,0,0-1.3-.711,1.384,1.384,0,0,0-1.293.715,3.648,3.648,0,0,0-.41,1.832Zm2.164-7.922h2.539l.016.047-2.164,2.031h-1.945Zm7.063,3.609.094,1.117a2.839,2.839,0,0,1,1.02-.941,2.932,2.932,0,0,1,1.418-.332,2.582,2.582,0,0,1,1.391.359,2.217,2.217,0,0,1,.875,1.086,2.93,2.93,0,0,1,1.016-1.062,2.756,2.756,0,0,1,1.469-.383,2.408,2.408,0,0,1,1.973.887,4.233,4.233,0,0,1,.723,2.707V15H755.1V9.977a2.369,2.369,0,0,0-.312-1.414,1.109,1.109,0,0,0-.93-.4,1.592,1.592,0,0,0-.84.215,1.565,1.565,0,0,0-.566.6q0,.148.008.254t.008.215V15H750.2V9.977a2.376,2.376,0,0,0-.312-1.4,1.1,1.1,0,0,0-.937-.41,1.769,1.769,0,0,0-.809.176,1.551,1.551,0,0,0-.574.5V15h-2.273V6.547ZM762.8,15.164A3.8,3.8,0,0,1,759.844,14a4.252,4.252,0,0,1-1.062-2.988V10.7a4.628,4.628,0,0,1,1.031-3.109,3.506,3.506,0,0,1,2.836-1.2,3.282,3.282,0,0,1,2.613,1.043,4.122,4.122,0,0,1,.91,2.809v1.18h-5.039l-.023.047a2.283,2.283,0,0,0,.527,1.406,1.766,1.766,0,0,0,1.4.539,4.692,4.692,0,0,0,1.3-.156,5.307,5.307,0,0,0,1.105-.477l.617,1.406a4.234,4.234,0,0,1-1.375.7A6.1,6.1,0,0,1,762.8,15.164Zm-.148-7.016a1.267,1.267,0,0,0-1.059.473,2.371,2.371,0,0,0-.449,1.254l.016.039h2.781V9.742a1.974,1.974,0,0,0-.3-1.168A1.127,1.127,0,0,0,762.648,8.148Zm7.586-3.672v2.07h1.43v1.6h-1.43v4.3a.982.982,0,0,0,.207.7.727.727,0,0,0,.543.211,2.178,2.178,0,0,0,.313-.02,2.63,2.63,0,0,0,.3-.066l.188,1.648a4.62,4.62,0,0,1-.668.176,3.982,3.982,0,0,1-.707.059,2.431,2.431,0,0,1-1.816-.648,2.843,2.843,0,0,1-.637-2.055V8.148h-1.234v-1.6h1.234V4.477Zm7.281,4.031-.836-.023a1.519,1.519,0,0,0-.836.211,1.337,1.337,0,0,0-.5.594V15H773.07V6.547h2.117l.1,1.25a2.667,2.667,0,0,1,.77-1.035,1.8,1.8,0,0,1,1.406-.344q.145.027.293.066Zm.68,2.188a4.536,4.536,0,0,1,1.055-3.1,3.676,3.676,0,0,1,2.922-1.207,3.715,3.715,0,0,1,2.938,1.2,4.512,4.512,0,0,1,1.063,3.1v.164a4.519,4.519,0,0,1-1.059,3.105,4.178,4.178,0,0,1-5.859,0,4.519,4.519,0,0,1-1.059-3.105Zm2.273.164a3.678,3.678,0,0,0,.406,1.855,1.561,1.561,0,0,0,2.605,0,3.653,3.653,0,0,0,.41-1.852V10.7a3.616,3.616,0,0,0-.414-1.836,1.4,1.4,0,0,0-1.3-.711,1.384,1.384,0,0,0-1.293.715,3.648,3.648,0,0,0-.41,1.832Zm82.117-.609h-.836V15h-2.281V3.625h2.281V8.273h.641l3.117-4.648h2.82l-3.937,5.289L868.633,15h-2.906Zm9.3,4.75h-2.281V6.547h2.281Zm0-10.477h-2.281V2.813h2.281ZM876.164,15h-2.281V2.813h2.281Zm1.523-4.3a4.536,4.536,0,0,1,1.055-3.1,3.676,3.676,0,0,1,2.922-1.207,3.715,3.715,0,0,1,2.938,1.2,4.512,4.512,0,0,1,1.063,3.1v.164a4.519,4.519,0,0,1-1.059,3.105,4.178,4.178,0,0,1-5.859,0,4.519,4.519,0,0,1-1.059-3.105Zm2.273.164a3.678,3.678,0,0,0,.406,1.855,1.561,1.561,0,0,0,2.605,0,3.653,3.653,0,0,0,.41-1.852V10.7a3.616,3.616,0,0,0-.414-1.836,1.4,1.4,0,0,0-1.3-.711,1.384,1.384,0,0,0-1.293.715,3.648,3.648,0,0,0-.41,1.832Zm2.164-7.922h2.539l.016.047-2.164,2.031H880.57Zm7.063,3.609.094,1.117a2.839,2.839,0,0,1,1.02-.941,2.932,2.932,0,0,1,1.418-.332,2.582,2.582,0,0,1,1.391.359,2.217,2.217,0,0,1,.875,1.086A2.93,2.93,0,0,1,895,6.773a2.756,2.756,0,0,1,1.469-.383,2.408,2.408,0,0,1,1.973.887,4.233,4.233,0,0,1,.723,2.707V15h-2.281V9.977a2.369,2.369,0,0,0-.312-1.414,1.109,1.109,0,0,0-.93-.4,1.592,1.592,0,0,0-.84.215,1.565,1.565,0,0,0-.566.6q0,.148.008.254t.008.215V15h-2.273V9.977a2.376,2.376,0,0,0-.312-1.4,1.1,1.1,0,0,0-.937-.41,1.769,1.769,0,0,0-.809.176,1.551,1.551,0,0,0-.574.5V15H887.07V6.547Zm15.391,8.617A3.8,3.8,0,0,1,901.625,14a4.252,4.252,0,0,1-1.062-2.988V10.7a4.628,4.628,0,0,1,1.031-3.109,3.506,3.506,0,0,1,2.836-1.2,3.282,3.282,0,0,1,2.613,1.043,4.122,4.122,0,0,1,.91,2.809v1.18h-5.039l-.023.047a2.283,2.283,0,0,0,.527,1.406,1.766,1.766,0,0,0,1.4.539,4.692,4.692,0,0,0,1.3-.156,5.307,5.307,0,0,0,1.105-.477l.617,1.406a4.234,4.234,0,0,1-1.375.7A6.1,6.1,0,0,1,904.578,15.164Zm-.148-7.016a1.267,1.267,0,0,0-1.059.473,2.371,2.371,0,0,0-.449,1.254l.016.039h2.781V9.742a1.974,1.974,0,0,0-.3-1.168A1.127,1.127,0,0,0,904.43,8.148Zm7.586-3.672v2.07h1.43v1.6h-1.43v4.3a.982.982,0,0,0,.207.7.727.727,0,0,0,.543.211,2.178,2.178,0,0,0,.313-.02,2.63,2.63,0,0,0,.3-.066l.188,1.648a4.62,4.62,0,0,1-.668.176,3.982,3.982,0,0,1-.707.059,2.431,2.431,0,0,1-1.816-.648,2.843,2.843,0,0,1-.637-2.055V8.148h-1.234v-1.6h1.234V4.477ZM919.3,8.508l-.836-.023a1.519,1.519,0,0,0-.836.211,1.337,1.337,0,0,0-.5.594V15h-2.273V6.547h2.117l.1,1.25a2.667,2.667,0,0,1,.77-1.035,1.8,1.8,0,0,1,1.406-.344q.145.027.293.066Zm.68,2.188a4.536,4.536,0,0,1,1.055-3.1,3.676,3.676,0,0,1,2.922-1.207,3.715,3.715,0,0,1,2.938,1.2,4.512,4.512,0,0,1,1.063,3.1v.164a4.519,4.519,0,0,1-1.059,3.105,4.178,4.178,0,0,1-5.859,0,4.519,4.519,0,0,1-1.059-3.105Zm2.273.164a3.678,3.678,0,0,0,.406,1.855,1.561,1.561,0,0,0,2.605,0,3.653,3.653,0,0,0,.41-1.852V10.7a3.616,3.616,0,0,0-.414-1.836,1.4,1.4,0,0,0-1.3-.711,1.384,1.384,0,0,0-1.293.715,3.648,3.648,0,0,0-.41,1.832Z" transform="translate(336 1782)" fill="#12263f"/>
      <path id="Trazado_730048" data-name="Trazado 730048" d="M5.07,7.656,7.2,3.625H9.859L6.484,9.266,10.055,15H7.3L5.1,10.9,2.906,15H.242L3.7,9.266.328,3.625H2.969ZM16.4,15H14.125V5.609H11.773V3.867L16.4,3.461Zm11.4-4.117a4.458,4.458,0,0,1-1.051,3.141,3.606,3.606,0,0,1-2.785,1.141,3.637,3.637,0,0,1-2.8-1.141A4.448,4.448,0,0,1,20.1,10.883V7.75a4.476,4.476,0,0,1,1.051-3.141,3.6,3.6,0,0,1,2.793-1.148,3.618,3.618,0,0,1,2.793,1.148A4.455,4.455,0,0,1,27.8,7.75ZM25.523,7.516a2.944,2.944,0,0,0-.418-1.7,1.42,1.42,0,0,0-2.32,0,2.988,2.988,0,0,0-.41,1.7V11.1a3,3,0,0,0,.414,1.715,1.342,1.342,0,0,0,1.172.6,1.318,1.318,0,0,0,1.152-.6,3.017,3.017,0,0,0,.41-1.715Z" transform="translate(545.5 1849)" fill="#12263f"/>
      <path id="Trazado_730049" data-name="Trazado 730049" d="M8.531,10.523H.492V8.75H8.531ZM5.664,7.4H3.375V5.578H5.664Zm0,6.32H3.375V11.9H5.664ZM15.344,15H13.07V5.609H10.719V3.867l4.625-.406Zm11.4-4.117a4.458,4.458,0,0,1-1.051,3.141,3.606,3.606,0,0,1-2.785,1.141,3.637,3.637,0,0,1-2.8-1.141,4.448,4.448,0,0,1-1.055-3.141V7.75A4.476,4.476,0,0,1,20.1,4.609a3.6,3.6,0,0,1,2.793-1.148,3.618,3.618,0,0,1,2.793,1.148A4.455,4.455,0,0,1,26.742,7.75ZM24.469,7.516a2.944,2.944,0,0,0-.418-1.7,1.42,1.42,0,0,0-2.32,0,2.988,2.988,0,0,0-.41,1.7V11.1a3,3,0,0,0,.414,1.715,1.342,1.342,0,0,0,1.172.6,1.318,1.318,0,0,0,1.152-.6,3.017,3.017,0,0,0,.41-1.715Z" transform="translate(1022 1849)" fill="#12263f"/>
      <line id="Línea_141" data-name="Línea 141" x2="457" transform="translate(337 1843.5)" fill="none" stroke="#12263f" stroke-width="2"/>
      <line id="Línea_142" data-name="Línea 142" x2="457" transform="translate(813.5 1843.5)" fill="none" stroke="#12263f" stroke-width="2"/>
      <path id="Polígono_3" data-name="Polígono 3" d="M7.5,0,15,13H0Z" transform="translate(336 1851) rotate(-90)" fill="#12263f"/>
      <path id="Polígono_4" data-name="Polígono 4" d="M7.5,0,15,13H0Z" transform="translate(1272 1836) rotate(90)" fill="#12263f"/>
      <path id="Trazado_734713" data-name="Trazado 734713" d="M2.8-9.51l.123,1.248a3.23,3.23,0,0,1,1.182-1.05,3.552,3.552,0,0,1,1.666-.374,2.942,2.942,0,0,1,1.63.439A2.658,2.658,0,0,1,8.429-7.928,3.557,3.557,0,0,1,9.62-9.215a3.115,3.115,0,0,1,1.718-.47,2.847,2.847,0,0,1,2.294,1,4.557,4.557,0,0,1,.844,3V0H12.744V-5.7a3.161,3.161,0,0,0-.483-1.991,1.763,1.763,0,0,0-1.441-.584,1.835,1.835,0,0,0-1.437.615,2.678,2.678,0,0,0-.646,1.556V0H7V-5.7A3.118,3.118,0,0,0,6.5-7.66a1.723,1.723,0,0,0-1.428-.62,2.379,2.379,0,0,0-1.3.325,2.1,2.1,0,0,0-.782.914V0H1.257V-9.51Zm15.732,0,.123,1.248a3.23,3.23,0,0,1,1.182-1.05,3.552,3.552,0,0,1,1.666-.374,2.942,2.942,0,0,1,1.63.439,2.658,2.658,0,0,1,1.024,1.318,3.557,3.557,0,0,1,1.191-1.288,3.115,3.115,0,0,1,1.718-.47,2.847,2.847,0,0,1,2.294,1,4.557,4.557,0,0,1,.844,3V0H28.477V-5.7a3.161,3.161,0,0,0-.483-1.991,1.763,1.763,0,0,0-1.441-.584,1.835,1.835,0,0,0-1.437.615,2.678,2.678,0,0,0-.646,1.556V0h-1.74V-5.7a3.118,3.118,0,0,0-.5-1.956,1.723,1.723,0,0,0-1.428-.62,2.379,2.379,0,0,0-1.3.325,2.1,2.1,0,0,0-.782.914V0H16.989V-9.51ZM148.342-1.169a2.036,2.036,0,0,0,1.4-.532,1.68,1.68,0,0,0,.6-1.305H151.9l.026.053a2.731,2.731,0,0,1-1.055,2.184,3.727,3.727,0,0,1-2.531.954,3.734,3.734,0,0,1-3.094-1.362,5.259,5.259,0,0,1-1.09-3.393v-.369a5.235,5.235,0,0,1,1.094-3.379,3.731,3.731,0,0,1,3.089-1.367,3.588,3.588,0,0,1,2.606.984,3.122,3.122,0,0,1,.98,2.417l-.018.053h-1.573a2.1,2.1,0,0,0-.567-1.481,1.866,1.866,0,0,0-1.428-.611,2,2,0,0,0-1.859.989,4.628,4.628,0,0,0-.584,2.4v.369a4.716,4.716,0,0,0,.576,2.417A2,2,0,0,0,148.342-1.169Zm7.189-8.341.123,1.248a3.23,3.23,0,0,1,1.182-1.05,3.552,3.552,0,0,1,1.666-.374,2.942,2.942,0,0,1,1.63.439,2.658,2.658,0,0,1,1.024,1.318,3.557,3.557,0,0,1,1.191-1.288,3.115,3.115,0,0,1,1.718-.47,2.847,2.847,0,0,1,2.294,1,4.557,4.557,0,0,1,.844,3V0h-1.731V-5.7a3.161,3.161,0,0,0-.483-1.991,1.763,1.763,0,0,0-1.441-.584,1.835,1.835,0,0,0-1.437.615,2.678,2.678,0,0,0-.646,1.556V0h-1.74V-5.7a3.118,3.118,0,0,0-.5-1.956,1.723,1.723,0,0,0-1.428-.62,2.379,2.379,0,0,0-1.3.325,2.1,2.1,0,0,0-.782.914V0h-1.731V-9.51Zm148,4.931a6.346,6.346,0,0,1,.98-3.7,3.158,3.158,0,0,1,2.747-1.406,3.405,3.405,0,0,1,1.481.308,3.036,3.036,0,0,1,1.1.9v-5.229h1.731V0h-1.327l-.264-1.2A3.086,3.086,0,0,1,308.83-.167a3.44,3.44,0,0,1-1.591.352,3.264,3.264,0,0,1-2.725-1.261,5.241,5.241,0,0,1-.984-3.318Zm1.731.185a4.037,4.037,0,0,0,.589,2.307,2.056,2.056,0,0,0,1.828.866,2.293,2.293,0,0,0,1.3-.352,2.625,2.625,0,0,0,.861-.984V-7a2.666,2.666,0,0,0-.866-.936,2.288,2.288,0,0,0-1.279-.347,1.979,1.979,0,0,0-1.841,1.028,5.308,5.308,0,0,0-.593,2.672ZM315.7-9.51l.123,1.248a3.23,3.23,0,0,1,1.182-1.05,3.552,3.552,0,0,1,1.666-.374,2.942,2.942,0,0,1,1.63.439,2.658,2.658,0,0,1,1.024,1.318,3.557,3.557,0,0,1,1.191-1.288,3.115,3.115,0,0,1,1.718-.47,2.847,2.847,0,0,1,2.294,1,4.557,4.557,0,0,1,.844,3V0h-1.731V-5.7a3.161,3.161,0,0,0-.483-1.991,1.763,1.763,0,0,0-1.441-.584,1.835,1.835,0,0,0-1.437.615,2.678,2.678,0,0,0-.646,1.556V0H319.9V-5.7a3.118,3.118,0,0,0-.5-1.956,1.723,1.723,0,0,0-1.428-.62,2.379,2.379,0,0,0-1.3.325,2.1,2.1,0,0,0-.782.914V0h-1.731V-9.51Zm132.047,0,.123,1.248a3.23,3.23,0,0,1,1.182-1.05,3.552,3.552,0,0,1,1.666-.374,2.942,2.942,0,0,1,1.63.439,2.658,2.658,0,0,1,1.024,1.318,3.557,3.557,0,0,1,1.191-1.288,3.115,3.115,0,0,1,1.718-.47,2.847,2.847,0,0,1,2.294,1,4.557,4.557,0,0,1,.844,3V0H457.69V-5.7a3.161,3.161,0,0,0-.483-1.991,1.763,1.763,0,0,0-1.441-.584,1.835,1.835,0,0,0-1.437.615,2.678,2.678,0,0,0-.646,1.556V0h-1.74V-5.7a3.118,3.118,0,0,0-.5-1.956,1.723,1.723,0,0,0-1.428-.62,2.379,2.379,0,0,0-1.3.325,2.1,2.1,0,0,0-.782.914V0H446.2V-9.51ZM559.96-4.579a6.346,6.346,0,0,1,.98-3.7,3.158,3.158,0,0,1,2.747-1.406,3.405,3.405,0,0,1,1.481.308,3.036,3.036,0,0,1,1.1.9v-5.229H568V0h-1.327l-.264-1.2A3.086,3.086,0,0,1,565.26-.167a3.44,3.44,0,0,1-1.591.352,3.264,3.264,0,0,1-2.725-1.261,5.241,5.241,0,0,1-.984-3.318Zm1.731.185a4.037,4.037,0,0,0,.589,2.307,2.056,2.056,0,0,0,1.828.866,2.293,2.293,0,0,0,1.3-.352,2.625,2.625,0,0,0,.861-.984V-7a2.666,2.666,0,0,0-.866-.936,2.288,2.288,0,0,0-1.279-.347,1.979,1.979,0,0,0-1.841,1.028,5.308,5.308,0,0,0-.593,2.672ZM576.431,0q-.088-.431-.136-.76a5.58,5.58,0,0,1-.057-.664,4.037,4.037,0,0,1-1.261,1.147A3.225,3.225,0,0,1,573.3.185a3.109,3.109,0,0,1-2.263-.76,2.8,2.8,0,0,1-.778-2.1,2.456,2.456,0,0,1,1.1-2.131,5.151,5.151,0,0,1,2.993-.769h1.881v-.94a1.745,1.745,0,0,0-.51-1.323,2,2,0,0,0-1.441-.488,2.091,2.091,0,0,0-1.362.422,1.266,1.266,0,0,0-.519,1.011l-1.644.018-.018-.053a2.276,2.276,0,0,1,.971-1.9,4.025,4.025,0,0,1,2.667-.861,3.927,3.927,0,0,1,2.6.822,2.911,2.911,0,0,1,.984,2.369v4.579a8.913,8.913,0,0,0,.053.984,5.062,5.062,0,0,0,.193.932Zm-2.874-1.266a3.082,3.082,0,0,0,1.7-.483,2.3,2.3,0,0,0,.984-1.107V-4.4h-1.942a2.52,2.52,0,0,0-1.674.527,1.577,1.577,0,0,0-.628,1.239,1.3,1.3,0,0,0,.4,1A1.656,1.656,0,0,0,573.557-1.266Zm8.473-8.244.123,1.248a3.23,3.23,0,0,1,1.182-1.05A3.552,3.552,0,0,1,585-9.686a2.942,2.942,0,0,1,1.63.439,2.658,2.658,0,0,1,1.024,1.318,3.557,3.557,0,0,1,1.191-1.288,3.115,3.115,0,0,1,1.718-.47,2.847,2.847,0,0,1,2.294,1,4.557,4.557,0,0,1,.844,3V0H591.97V-5.7a3.161,3.161,0,0,0-.483-1.991,1.763,1.763,0,0,0-1.441-.584,1.835,1.835,0,0,0-1.437.615,2.678,2.678,0,0,0-.646,1.556V0h-1.74V-5.7a3.118,3.118,0,0,0-.5-1.956,1.723,1.723,0,0,0-1.428-.62,2.379,2.379,0,0,0-1.3.325,2.1,2.1,0,0,0-.782.914V0h-1.731V-9.51ZM718.734-8.235A3.509,3.509,0,0,1,719.943-9.3a3.316,3.316,0,0,1,1.586-.382,3.071,3.071,0,0,1,2.369.914,4.021,4.021,0,0,1,.848,2.813V0h-1.731V-5.977a2.546,2.546,0,0,0-.505-1.74A1.923,1.923,0,0,0,721-8.279a2.829,2.829,0,0,0-1.345.3,2.446,2.446,0,0,0-.923.848V0H717V-13.711h1.731ZM728.78-9.51l.123,1.248a3.23,3.23,0,0,1,1.182-1.05,3.552,3.552,0,0,1,1.666-.374,2.942,2.942,0,0,1,1.63.439,2.658,2.658,0,0,1,1.024,1.318A3.557,3.557,0,0,1,735.6-9.215a3.115,3.115,0,0,1,1.718-.47,2.847,2.847,0,0,1,2.294,1,4.557,4.557,0,0,1,.844,3V0h-1.731V-5.7a3.161,3.161,0,0,0-.483-1.991,1.763,1.763,0,0,0-1.441-.584,1.835,1.835,0,0,0-1.437.615,2.678,2.678,0,0,0-.646,1.556V0h-1.74V-5.7a3.118,3.118,0,0,0-.5-1.956,1.723,1.723,0,0,0-1.428-.62,2.379,2.379,0,0,0-1.3.325,2.1,2.1,0,0,0-.782.914V0h-1.731V-9.51ZM879.8-4.386h-.888V0h-1.731V-13.711h1.731v7.945h.87l2.856-3.744h2.074l-3.454,4.386L885.015,0h-2.048ZM887.95-9.51l.123,1.248a3.23,3.23,0,0,1,1.182-1.05,3.552,3.552,0,0,1,1.666-.374,2.942,2.942,0,0,1,1.63.439,2.658,2.658,0,0,1,1.024,1.318,3.557,3.557,0,0,1,1.191-1.288,3.115,3.115,0,0,1,1.718-.47,2.847,2.847,0,0,1,2.294,1,4.557,4.557,0,0,1,.844,3V0h-1.731V-5.7a3.161,3.161,0,0,0-.483-1.991,1.763,1.763,0,0,0-1.441-.584,1.835,1.835,0,0,0-1.437.615,2.678,2.678,0,0,0-.646,1.556V0h-1.74V-5.7a3.118,3.118,0,0,0-.5-1.956,1.723,1.723,0,0,0-1.428-.62,2.379,2.379,0,0,0-1.3.325,2.1,2.1,0,0,0-.782.914V0H886.4V-9.51Z" transform="translate(352 1821)" fill="#12263f"/>
    </g>
  </g>
</svg>
