<svg xmlns="http://www.w3.org/2000/svg" xmlns:xlink="http://www.w3.org/1999/xlink" width="505" height="494.996" viewBox="0 0 505 494.996">
  <defs>
    <clipPath id="clip-path">
      <rect id="Rectángulo_338959" data-name="Rectángulo 338959" width="63.243" height="63.237"/>
    </clipPath>
    <clipPath id="clip-path-2">
      <rect id="Rectángulo_338964" data-name="Rectángulo 338964" width="47.693" height="47.676"/>
    </clipPath>
    <clipPath id="clip-path-3">
      <rect id="Rectángulo_338965" data-name="Rectángulo 338965" width="60.931" height="55.735"/>
    </clipPath>
    <clipPath id="clip-path-4">
      <rect id="Rectángulo_338966" data-name="Rectángulo 338966" width="34.72" height="55.031"/>
    </clipPath>
    <clipPath id="clip-path-5">
      <rect id="Rectángulo_338967" data-name="Rectángulo 338967" width="51.333" height="51.337"/>
    </clipPath>
    <clipPath id="clip-path-6">
      <rect id="Rectángulo_338968" data-name="Rectángulo 338968" width="51" height="59.02"/>
    </clipPath>
    <clipPath id="clip-path-7">
      <rect id="Rectángulo_338969" data-name="Rectángulo 338969" width="55.226" height="55.234"/>
    </clipPath>
  </defs>
  <g id="Grupo_987166" data-name="Grupo 987166" transform="translate(-401 -2460)">
    <g id="Elipse_4746" data-name="Elipse 4746" transform="translate(464 2512.802)" fill="none" stroke="#000" stroke-width="5">
      <circle cx="190.5" cy="190.5" r="190.5" stroke="none"/>
      <circle cx="190.5" cy="190.5" r="188" fill="none"/>
    </g>
    <ellipse id="Elipse_4747" data-name="Elipse 4747" cx="67" cy="67.5" rx="67" ry="67.5" transform="translate(588 2635.802)" fill="#ff6e33"/>
    <g id="Grupo_985716" data-name="Grupo 985716" transform="translate(622.769 2659.802)">
      <g id="Grupo_985715" data-name="Grupo 985715" clip-path="url(#clip-path)">
        <path id="Trazado_212185" data-name="Trazado 212185" d="M0,48.507c.28-.6.8-.687,1.39-.685q6.824.014,13.649.005H15.8V45.714c-.928,0-1.847,0-2.766,0-.412,0-.824,0-1.235-.018a.9.9,0,0,1-.03-1.8c.986-.048,1.975-.029,2.962-.036.345,0,.69,0,1.068,0V41.75h-.6c-2.326,0-4.653.01-6.979-.01a.772.772,0,0,0-.8.483,2.844,2.844,0,0,1-3.252,1.416,2.9,2.9,0,0,1-.045-5.6A2.84,2.84,0,0,1,7.39,39.4a.824.824,0,0,0,.855.5c2.306-.018,4.612-.008,6.917-.01.2,0,.4-.018.671-.031,0-.6-.017-1.174.005-1.743a8.6,8.6,0,0,1,.138-1.348.918.918,0,1,1,1.821.239q-.063,11.175-.107,22.35a3.043,3.043,0,0,0,2.157,3.163,4.455,4.455,0,0,0,1.217.16q10.531.014,21.06,0c.389,0,.777-.075,1.167-.1.65-.038,1.054.255,1.119.793a.925.925,0,0,1-.911,1.035c-.795.088-1.6.089-2.4.127l-.579.026c0,1.077-.055,2.123.029,3.159a2.02,2.02,0,0,0,.607,1.1c1.886,1.928,3.813,3.816,5.7,5.742.293.3.523.194.822.112a2.891,2.891,0,1,1,1.533,5.575,2.822,2.822,0,0,1-3.528-2.057,3.654,3.654,0,0,1,.034-1.571.777.777,0,0,0-.235-.849c-1.817-1.793-3.6-3.62-5.428-5.4a4.378,4.378,0,0,1-1.43-3.472c.031-.757.005-1.516.005-2.319h-2.11c0,1.153,0,2.28,0,3.407,0,1.006-.288,1.467-.917,1.479s-.935-.454-.936-1.449c0-1.13,0-2.258,0-3.435H32.551V65.4q0,6.732,0,13.464a4.678,4.678,0,0,1-.043.737.832.832,0,0,1-.9.756.822.822,0,0,1-.858-.735,5.013,5.013,0,0,1-.048-.8q0-6.7,0-13.4v-.834H28.584c0,.252,0,.507,0,.763,0,1.029.012,2.059-.008,3.088a.923.923,0,1,1-1.833.01c-.028-1.028-.01-2.058-.012-3.088v-.773H24.62v1.439c0,2.038.009,4.076-.007,6.114a.769.769,0,0,0,.462.814A2.84,2.84,0,0,1,26.515,76.2a2.9,2.9,0,0,1-5.6.083,2.85,2.85,0,0,1,1.395-3.315.738.738,0,0,0,.468-.75c-.018-2.367-.009-4.735-.01-7.1,0-.161-.017-.323-.033-.614-.788,0-1.564.036-2.335-.007a4.9,4.9,0,0,1-4.565-5.114c0-.553,0-1.108,0-1.676-1.153,0-2.274-.048-3.386.029a1.847,1.847,0,0,0-.967.611q-2.838,2.8-5.629,5.638a.829.829,0,0,0-.19.669,2.924,2.924,0,0,1-1.833,3.684,2.894,2.894,0,0,1-3.694-1.9A2.429,2.429,0,0,0,0,66.171V64.936a.937.937,0,0,0,.129-.188,2.912,2.912,0,0,1,3.75-1.9.831.831,0,0,0,.66-.216c1.747-1.715,3.513-3.416,5.194-5.2a4.863,4.863,0,0,1,4.114-1.682c.645.049,1.3.008,1.947.008v-2.11h-.7c-1.009,0-2.017.01-3.026,0-.735-.011-1.157-.361-1.163-.92s.419-.909,1.146-.927c.473-.011.946,0,1.42,0H15.8V49.681h-.761q-6.823,0-13.645.005C.8,49.687.28,49.6,0,49ZM2.9,64.555a1.054,1.054,0,0,0-1.033,1.013,1.088,1.088,0,0,0,1.055,1.069,1.09,1.09,0,0,0,1.032-1.03A1.048,1.048,0,0,0,2.9,64.555M48.467,76.428a1.044,1.044,0,0,0-.016,2.087,1.044,1.044,0,1,0,.016-2.087M4.87,41.861a1.035,1.035,0,0,0,1.057-1.044A1.059,1.059,0,0,0,4.9,39.791a1.072,1.072,0,0,0-1.062,1.054A1.047,1.047,0,0,0,4.87,41.861M24.731,75.482a1.034,1.034,0,0,0-1.007-1.032A1.059,1.059,0,0,0,22.659,75.5a1.08,1.08,0,0,0,1.02,1.038,1.046,1.046,0,0,0,1.053-1.054" transform="translate(0 -17.129)"/>
        <path id="Trazado_212186" data-name="Trazado 212186" d="M42.684,0A1.317,1.317,0,0,1,43.37,1.39q-.016,6.824-.006,13.649V15.8h2.113c0-.928,0-1.847,0-2.766,0-.412,0-.824.018-1.234a.9.9,0,0,1,1.8-.031c.048.986.029,1.975.036,2.962,0,.345,0,.689,0,1.068h2.11v-.6c0-2.327-.01-4.653.009-6.979a.771.771,0,0,0-.482-.8,2.842,2.842,0,0,1-1.416-3.252,2.9,2.9,0,0,1,5.6-.045A2.838,2.838,0,0,1,51.789,7.39a.825.825,0,0,0-.5.855c.018,2.306.008,4.611.01,6.917,0,.2.018.4.031.674,1.969-.051,3.914-.088,5.442,1.433s1.517,3.462,1.45,5.44c1.138,0,2.223.052,3.3-.029a1.936,1.936,0,0,0,1.034-.616c1.909-1.875,3.789-3.781,5.69-5.664a.632.632,0,0,0,.16-.756,2.854,2.854,0,0,1,1.29-3.354,2.9,2.9,0,0,1,3.95,3.99,2.841,2.841,0,0,1-3.367,1.247.661.661,0,0,0-.79.235c-1.8,1.81-3.625,3.6-5.408,5.423a4.382,4.382,0,0,1-3.468,1.44c-.758-.031-1.518-.005-2.328-.005v2.11c1.115,0,2.22,0,3.324,0a5.2,5.2,0,0,1,.8.051.826.826,0,0,1,.743.912.809.809,0,0,1-.806.855c-.966.035-1.934.026-2.9.033-.385,0-.771,0-1.178,0V30.7h.749q6.763,0,13.526,0c.286,0,.641-.059.843.082.284.2.626.56.624.85s-.352.644-.639.838c-.205.139-.557.079-.844.079q-6.7.005-13.4,0h-.842v2.113c1.065,0,2.111,0,3.156,0,.268,0,.536-.009.8.014a.926.926,0,0,1,.926.889.9.9,0,0,1-.892.92c-.966.043-1.934.024-2.9.029-.348,0-.7,0-1.09,0v2.076c.2.012.378.033.558.033,2.347,0,4.694-.006,7.041.009a.725.725,0,0,0,.758-.452,2.849,2.849,0,0,1,3.237-1.455,2.9,2.9,0,0,1,.106,5.6,2.845,2.845,0,0,1-3.319-1.381.781.781,0,0,0-.806-.479c-2.509.018-5.018.009-7.62.009,0,.546.016,1.053,0,1.557a12.2,12.2,0,0,1-.132,1.535.931.931,0,0,1-1.037.841c-.513-.071-.791-.468-.788-1.072q.057-11.206.1-22.412a3.05,3.05,0,0,0-3.271-3.24q-10.654-.017-21.308,0c-.347,0-.694.078-1.043.1a.92.92,0,1,1-.221-1.821c.836-.094,1.681-.094,2.523-.135l.44-.02c0-1.133.048-2.254-.029-3.367a1.854,1.854,0,0,0-.612-.967q-2.795-2.838-5.636-5.63a.83.83,0,0,0-.67-.192A2.9,2.9,0,1,1,24.815.12,1.2,1.2,0,0,0,25.02,0h1.112A.821.821,0,0,0,26.288.1,2.9,2.9,0,0,1,28.346,3.9a.836.836,0,0,0,.229.652q2.728,2.771,5.494,5.5a4.255,4.255,0,0,1,1.369,3.308c-.025.8,0,1.595,0,2.422h2.11c0-.286,0-.53,0-.773,0-1.028-.016-2.057.012-3.085a.923.923,0,1,1,1.833,0c.021.9.008,1.81.009,2.716q0,.57,0,1.142H41.51v-.766q0-6.819-.006-13.639A1.317,1.317,0,0,1,42.19,0ZM25.625,3.949a1.045,1.045,0,0,0,1.008-1.095,1.057,1.057,0,0,0-1.054-.992A1.1,1.1,0,0,0,24.552,2.9a1.079,1.079,0,0,0,1.073,1.049M72.2,14.81a1.044,1.044,0,1,0-2.087-.039,1.044,1.044,0,0,0,2.087.039M50.334,5.927A1.06,1.06,0,0,0,51.4,4.883a1.084,1.084,0,0,0-1.017-1.041,1.041,1.041,0,0,0-1.053.99,1.03,1.03,0,0,0,1,1.095M70.219,39.539a1.042,1.042,0,0,0-2.085.016,1.054,1.054,0,0,0,1.078,1.03,1.07,1.07,0,0,0,1.006-1.046" transform="translate(-10.814 0)"/>
        <path id="Trazado_212187" data-name="Trazado 212187" d="M51.457,59.884a4.679,4.679,0,0,1-3.031,1.442,4.143,4.143,0,0,1-4.551-3.5.862.862,0,0,0-.309-.555,4.615,4.615,0,0,1-1.172-6.314.578.578,0,0,0-.007-.526A4.225,4.225,0,0,1,44.6,44c.132-.05.261-.107.42-.173a3.266,3.266,0,0,1,1.913-3.7,3.806,3.806,0,0,1,4.33.551,14.514,14.514,0,0,1,2.592-.9A3.44,3.44,0,0,1,57.882,43.5c-.067.39.2.418.447.522A4.314,4.314,0,0,1,61.254,47.8a3.725,3.725,0,0,1-.909,2.8c-.252.3-.307.489-.032.826a4.031,4.031,0,0,1-.669,5.848,1.857,1.857,0,0,0-.737,1.117,4.2,4.2,0,0,1-4.334,2.953,4.645,4.645,0,0,1-3.116-1.457m7.155-4.176a2.252,2.252,0,0,0-.4-3.718c-.932-.649-.946-1.281-.015-1.91a2.3,2.3,0,0,0,1.188-2.324,2.493,2.493,0,0,0-1.829-2.045,3.809,3.809,0,0,0-2.479.075.9.9,0,0,1-1.146-.568.911.911,0,0,1,.562-1.156,5.023,5.023,0,0,1,.822-.259c.817-.2,1.037-.824.477-1.509a1.891,1.891,0,0,0-2.05-.662,1.6,1.6,0,0,0-1.357,1.408c-.065.542-.3.953-.92.96-.654.008-.89-.429-.955-.992a1.524,1.524,0,0,0-.921-1.222,2.1,2.1,0,0,0-2.35.338c-.51.5-.521,1.031-.039,1.954a.915.915,0,0,1-.7,1.423,6.732,6.732,0,0,0-1.7.471,2.214,2.214,0,0,0-.829,3.409c.563-.2,1.112-.43,1.681-.583a.758.758,0,0,1,1.012.47,1.546,1.546,0,0,1-.152,1.013c-.1.189-.436.283-.684.362a3.5,3.5,0,0,0-1.907,1.388,2.553,2.553,0,0,0,.513,3.434,4.44,4.44,0,0,1,.434-.5c.164-.144.385-.361.551-.336a1.693,1.693,0,0,1,.945.392.8.8,0,0,1-.1,1.119,1.856,1.856,0,0,0-.468,1.88,2.414,2.414,0,0,0,2.531,1.469,2.152,2.152,0,0,0,2.172-1.959,19.913,19.913,0,0,0-.011-2.158,1.891,1.891,0,0,0-1.1-1.6c-.179-.1-.375-.169-.552-.272a.905.905,0,0,1-.427-1.205.885.885,0,0,1,1.143-.47c.306.094.6.232.977.383v-.68c0-1.4-.009-2.8.006-4.2.008-.693.358-1.1.9-1.114.561-.015.921.408.948,1.127.01.278,0,.556,0,.915a4.2,4.2,0,0,1,.61-.251,13.787,13.787,0,0,1,1.864-.336.776.776,0,0,1,.835.812.833.833,0,0,1-.694.948,4.917,4.917,0,0,1-.486.084A2.163,2.163,0,0,0,52.376,51.9q-.01,2.594,0,5.188A2.234,2.234,0,0,0,54.683,59.5a2.16,2.16,0,0,0,2.442-2.445,2.264,2.264,0,0,0-1.5-1.515.919.919,0,0,1-.556-1.258.964.964,0,0,1,1.315-.418,4.409,4.409,0,0,1,2.223,1.843" transform="translate(-19.823 -18.908)"/>
      </g>
    </g>
    <path id="Trazado_212182" data-name="Trazado 212182" d="M39.6,0,0,68.6l39.6,68.6h79.21l39.6-68.6L118.815,0Z" transform="translate(574.949 2817.802)" fill="#ff6e33"/>
    <path id="Trazado_730078" data-name="Trazado 730078" d="M9.7,12.031a1.33,1.33,0,0,0-.457-1.055,4.592,4.592,0,0,0-1.605-.75,9.124,9.124,0,0,1-2.988-1.4,2.646,2.646,0,0,1-1.02-2.2A2.761,2.761,0,0,1,4.777,4.348a4.654,4.654,0,0,1,2.93-.887,4.621,4.621,0,0,1,3.043.953,2.982,2.982,0,0,1,1.113,2.5l-.016.047H9.637a1.657,1.657,0,0,0-.516-1.309A2.106,2.106,0,0,0,7.676,5.2a1.91,1.91,0,0,0-1.3.406A1.323,1.323,0,0,0,5.91,6.641a1.135,1.135,0,0,0,.5.949,6.689,6.689,0,0,0,1.727.785A7.429,7.429,0,0,1,11,9.762a2.841,2.841,0,0,1,.984,2.254,2.713,2.713,0,0,1-1.141,2.3,4.952,4.952,0,0,1-3.016.844,5.388,5.388,0,0,1-3.152-.914,3.015,3.015,0,0,1-1.277-2.727l.016-.047H5.621a1.79,1.79,0,0,0,.594,1.484,2.5,2.5,0,0,0,1.609.477,2.2,2.2,0,0,0,1.395-.383A1.242,1.242,0,0,0,9.7,12.031Zm7.453,3.133A3.8,3.8,0,0,1,14.2,14a4.252,4.252,0,0,1-1.062-2.988V10.7a4.628,4.628,0,0,1,1.031-3.109A3.506,3.506,0,0,1,17,6.391a3.282,3.282,0,0,1,2.613,1.043,4.122,4.122,0,0,1,.91,2.809v1.18H15.488l-.023.047a2.284,2.284,0,0,0,.527,1.406,1.766,1.766,0,0,0,1.4.539,4.692,4.692,0,0,0,1.3-.156,5.307,5.307,0,0,0,1.105-.477l.617,1.406a4.234,4.234,0,0,1-1.375.7A6.1,6.1,0,0,1,17.152,15.164ZM17,8.148a1.267,1.267,0,0,0-1.059.473A2.371,2.371,0,0,0,15.5,9.875l.016.039h2.781V9.742a1.974,1.974,0,0,0-.3-1.168A1.127,1.127,0,0,0,17,8.148Zm9.3.359-.836-.023a1.519,1.519,0,0,0-.836.211,1.337,1.337,0,0,0-.5.594V15H21.855V6.547h2.117l.1,1.25a2.667,2.667,0,0,1,.77-1.035,1.8,1.8,0,0,1,1.406-.344q.145.027.293.066Zm4.383,3.344.148.781h.047l.156-.781,1.391-5.3h2.383L31.934,15h-2.18L26.879,6.547h2.383ZM38.2,15H35.918V6.547H38.2Zm0-10.477H35.918V2.813H38.2Zm1.523,6.32a5.493,5.493,0,0,1,.863-3.227A2.8,2.8,0,0,1,43.02,6.391a2.367,2.367,0,0,1,1.141.273,2.744,2.744,0,0,1,.891.781V2.813H47.34V15H45.395l-.2-1.039a2.826,2.826,0,0,1-.945.895,2.5,2.5,0,0,1-1.25.309,2.858,2.858,0,0,1-2.418-1.141,4.871,4.871,0,0,1-.863-3.016ZM42,11.008a3.443,3.443,0,0,0,.375,1.746,1.306,1.306,0,0,0,1.219.637,1.775,1.775,0,0,0,.859-.2,1.589,1.589,0,0,0,.6-.582v-3.6a1.756,1.756,0,0,0-.6-.621,1.589,1.589,0,0,0-.848-.223,1.287,1.287,0,0,0-1.223.742A4.194,4.194,0,0,0,42,10.844Zm6.758-.312a4.536,4.536,0,0,1,1.055-3.1A3.676,3.676,0,0,1,52.73,6.391a3.715,3.715,0,0,1,2.938,1.2,4.512,4.512,0,0,1,1.063,3.1v.164a4.519,4.519,0,0,1-1.059,3.105,4.178,4.178,0,0,1-5.859,0,4.519,4.519,0,0,1-1.059-3.105Zm2.273.164a3.677,3.677,0,0,0,.406,1.855,1.561,1.561,0,0,0,2.605,0,3.653,3.653,0,0,0,.41-1.852V10.7a3.616,3.616,0,0,0-.414-1.836,1.4,1.4,0,0,0-1.3-.711,1.384,1.384,0,0,0-1.293.715,3.648,3.648,0,0,0-.41,1.832ZM62.582,8.508l-.836-.023a1.519,1.519,0,0,0-.836.211,1.337,1.337,0,0,0-.5.594V15H58.137V6.547h2.117l.1,1.25a2.667,2.667,0,0,1,.77-1.035,1.8,1.8,0,0,1,1.406-.344q.145.027.293.066Zm8.836,6.656A3.8,3.8,0,0,1,68.465,14,4.252,4.252,0,0,1,67.4,11.016V10.7a4.628,4.628,0,0,1,1.031-3.109,3.506,3.506,0,0,1,2.836-1.2,3.282,3.282,0,0,1,2.613,1.043,4.122,4.122,0,0,1,.91,2.809v1.18H69.754l-.023.047a2.284,2.284,0,0,0,.527,1.406,1.766,1.766,0,0,0,1.4.539,4.692,4.692,0,0,0,1.3-.156,5.307,5.307,0,0,0,1.105-.477l.617,1.406a4.234,4.234,0,0,1-1.375.7A6.1,6.1,0,0,1,71.418,15.164ZM71.27,8.148a1.267,1.267,0,0,0-1.059.473,2.371,2.371,0,0,0-.449,1.254l.016.039h2.781V9.742a1.974,1.974,0,0,0-.3-1.168A1.127,1.127,0,0,0,71.27,8.148Zm6.938-1.6.1,1.211A3.092,3.092,0,0,1,79.348,6.75a2.7,2.7,0,0,1,1.383-.359,2.513,2.513,0,0,1,2,.824,3.908,3.908,0,0,1,.719,2.605V15H81.16V9.828a2.024,2.024,0,0,0-.316-1.285,1.166,1.166,0,0,0-.949-.379A1.992,1.992,0,0,0,79,8.355a1.746,1.746,0,0,0-.637.527V15H76.082V6.547ZM20.617,33H18.336V20.813h2.281Zm6.859,0a4.8,4.8,0,0,1-.215-.609,4.239,4.239,0,0,1-.129-.656,3.127,3.127,0,0,1-.93,1.023,2.33,2.33,0,0,1-1.375.406,2.855,2.855,0,0,1-2.047-.684,2.449,2.449,0,0,1-.719-1.863,2.229,2.229,0,0,1,.957-1.926,4.78,4.78,0,0,1,2.793-.684h1.281v-.672a1.315,1.315,0,0,0-.32-.945,1.257,1.257,0,0,0-.953-.336,1.239,1.239,0,0,0-.855.27.941.941,0,0,0-.3.738h-2.2l-.016-.047a2.144,2.144,0,0,1,.934-1.848,4.055,4.055,0,0,1,2.582-.777,3.784,3.784,0,0,1,2.465.766,2.667,2.667,0,0,1,.941,2.2v3.492a6.6,6.6,0,0,0,.09,1.117A5.606,5.606,0,0,0,29.75,33Zm-2.086-1.523a1.944,1.944,0,0,0,1.063-.3,1.6,1.6,0,0,0,.641-.687V29.3H25.813a1.519,1.519,0,0,0-1.1.359,1.181,1.181,0,0,0-.371.883.881.881,0,0,0,.277.684A1.1,1.1,0,0,0,25.391,31.477Zm11.766-6.93.1,1.211A3.092,3.092,0,0,1,38.3,24.75a2.7,2.7,0,0,1,1.383-.359,2.513,2.513,0,0,1,2,.824A3.908,3.908,0,0,1,42.4,27.82V33H40.109V27.828a2.024,2.024,0,0,0-.316-1.285,1.166,1.166,0,0,0-.949-.379,1.992,1.992,0,0,0-.895.191,1.746,1.746,0,0,0-.637.527V33H35.031V24.547Zm12.125,7.2a2.87,2.87,0,0,1-.992,1.047,2.63,2.63,0,0,1-1.4.367,2.57,2.57,0,0,1-2.09-.906,4.347,4.347,0,0,1-.754-2.812v-4.9H46.32v4.914a2.729,2.729,0,0,0,.3,1.52,1.081,1.081,0,0,0,.934.41,2.273,2.273,0,0,0,.938-.176,1.58,1.58,0,0,0,.641-.52V24.547h2.281V33H49.523Zm11.477-2.742a4.945,4.945,0,0,1-.844,3.023,2.854,2.854,0,0,1-2.437,1.133,2.576,2.576,0,0,1-1.293-.312,2.672,2.672,0,0,1-.934-.914L55.063,33h-1.93V20.813h2.273v4.633a2.582,2.582,0,0,1,.879-.781,2.457,2.457,0,0,1,1.176-.273,2.8,2.8,0,0,1,2.453,1.215,5.577,5.577,0,0,1,.844,3.238Zm-2.273-.164a4.4,4.4,0,0,0-.363-1.957,1.275,1.275,0,0,0-1.238-.723,1.7,1.7,0,0,0-.9.223,1.543,1.543,0,0,0-.578.637V30.6a1.449,1.449,0,0,0,.582.586,1.874,1.874,0,0,0,.91.2,1.3,1.3,0,0,0,1.234-.621,3.618,3.618,0,0,0,.352-1.762Zm7.344,4.32A3.8,3.8,0,0,1,62.875,32a4.252,4.252,0,0,1-1.062-2.988V28.7a4.628,4.628,0,0,1,1.031-3.109,3.506,3.506,0,0,1,2.836-1.2,3.282,3.282,0,0,1,2.613,1.043,4.122,4.122,0,0,1,.91,2.809v1.18H64.164l-.023.047a2.284,2.284,0,0,0,.527,1.406,1.766,1.766,0,0,0,1.4.539,4.692,4.692,0,0,0,1.3-.156,5.307,5.307,0,0,0,1.105-.477l.617,1.406a4.234,4.234,0,0,1-1.375.7A6.1,6.1,0,0,1,65.828,33.164Zm-.148-7.016a1.267,1.267,0,0,0-1.059.473,2.371,2.371,0,0,0-.449,1.254l.016.039h2.781v-.172a1.974,1.974,0,0,0-.3-1.168A1.127,1.127,0,0,0,65.68,26.148Z" transform="translate(611 2895.887)"/>
    <g id="Grupo_985718" data-name="Grupo 985718" transform="translate(629.545 2842.887)">
      <g id="Grupo_985717" data-name="Grupo 985717" clip-path="url(#clip-path-2)">
        <path id="Trazado_212188" data-name="Trazado 212188" d="M34.174,0H45.813a2.633,2.633,0,0,1,1.878,2.933c-.059,2.3-.011,4.593-.017,6.889A2.313,2.313,0,0,1,45.2,12.3c-.695.005-1.39,0-2.112,0v1.564H44.57v1.53H40.752v9.2H37.178c.128.434.262.811.345,1.2.06.282.185.367.47.363,1.241-.015,2.483-.007,3.724-.007H42.3v7.679h5.351V47.648H35.409V33.815h5.313V27.688H37.642a11.123,11.123,0,0,1-.331,1.115,5.392,5.392,0,0,1-5.259,3.5q-6.7,0-13.406,0c-1.1,0-2.2.02-3.305-.006a5.371,5.371,0,0,1-5.316-4.927c-.015-.148-.044-.293-.064-.427H8.5v6.883c1.456,0,2.881-.005,4.307,0A2.342,2.342,0,0,1,15.372,36.4q0,3.049,0,6.1v.563h1.553c0,.726,0,1.39,0,2.053a2.357,2.357,0,0,1-2.588,2.562q-5.889,0-11.777,0a3.619,3.619,0,0,1-.784-.075A2.447,2.447,0,0,1,0,45.813V43.02H1.542c0-.247,0-.446,0-.646.008-2.141-.015-4.282.036-6.421a2.119,2.119,0,0,1,1.965-2.069c.831-.078,1.672-.044,2.509-.057.273,0,.547,0,.86,0V25.379c1.039,0,2,.005,2.959-.006.138,0,.35-.041.4-.132.237-.443.43-.911.655-1.4H5.372V20c-.995,0-1.94,0-2.885,0A2.344,2.344,0,0,1,.361,18.9,7.546,7.546,0,0,1,0,18.158V1.862A2.706,2.706,0,0,1,1.862,0h8.566a2.605,2.605,0,0,1,1.885,2.922C12.252,5,12.3,7.079,12.3,9.158q0,4.165,0,8.33A2.33,2.33,0,0,1,9.807,20c-.729.009-1.458,0-2.188,0H6.943V22.3h3.651a6.116,6.116,0,0,0,3.124-.457,1.521,1.521,0,0,0,.779-.693,6.09,6.09,0,0,1,7.533-3.087.581.581,0,0,0,.79-.245,5.917,5.917,0,0,1,6.142-2.28,6.031,6.031,0,0,1,4.85,5.818.54.54,0,0,0,.357.551c.578.286,1.115.654,1.669.988.1.063.208.175.314.176,1,.013,2.008.008,3.032.008V15.368H35.4V13.847H36.87V12.3c-.695,0-1.359,0-2.022,0A2.317,2.317,0,0,1,32.3,9.761q-.005-3.607,0-7.213a3.515,3.515,0,0,1,.071-.783A2.429,2.429,0,0,1,34.174,0M23.159,20.364c-.218-.129-.364-.213-.508-.3A4.6,4.6,0,0,0,15.54,22.68c-.1.31-.269.382-.561.42a3.842,3.842,0,0,0,.665,7.654q8.194-.015,16.388,0c.14,0,.279,0,.419-.013a3.821,3.821,0,0,0,.649-7.557c-.313-.074-.63-.129-1-.2a4.843,4.843,0,0,0-.376-3.625,4.56,4.56,0,0,0-2.874-2.265,4.416,4.416,0,0,0-2.872.172,4.993,4.993,0,0,0-2.822,3.107M13.806,43.028a1.661,1.661,0,0,0,.041-.245c0-2.155.009-4.311,0-6.466,0-.674-.3-.937-.989-.938q-4.4,0-8.792,0c-.732,0-.988.27-.989,1.027q0,2.814,0,5.629v.993Zm20.02-35.36H46.1a3.389,3.389,0,0,0,.036-.343c0-1.6.007-3.194,0-4.792,0-.746-.255-.988-1.023-.989q-5.117-.005-10.235,0c-.791,0-1.044.264-1.046,1.072,0,1.085,0,2.171,0,3.256v1.8M1.579,12.276h9.158V4.647H1.579Zm9.184,1.6h-9.2c0,1.324-.018,2.621.01,3.918.01.441.348.646.769.648q3.792.01,7.585,0a.728.728,0,0,0,.822-.76c.028-1.253.009-2.507.009-3.806m26.161,26.06H46.1v-4.52H36.924Zm9.19,1.623H36.934v4.534h9.181ZM15.371,44.638H1.574c-.118,1.266.089,1.5,1.313,1.5h9.86c.6,0,1.21.013,1.814-.009a.751.751,0,0,0,.809-.82c.009-.214,0-.43,0-.666M46.11,9.254H33.874c-.17,1.181.112,1.52,1.236,1.52h8.467c.558,0,1.117.013,1.675-.005.516-.017.8-.243.852-.678a7.324,7.324,0,0,0,.006-.836M10.72,3.048c.216-1.369-.314-1.528-1.223-1.516-2.169.03-4.338.009-6.508.011a6.925,6.925,0,0,0-.788.028.66.66,0,0,0-.629.633c-.027.271-.005.548-.005.844Zm27.768,10.76H41.5V12.321H38.487Z"/>
        <rect id="Rectángulo_338960" data-name="Rectángulo 338960" width="3.016" height="1.499" transform="translate(4.648 15.398)"/>
        <rect id="Rectángulo_338961" data-name="Rectángulo 338961" width="3.015" height="1.484" transform="translate(41.567 36.941)"/>
        <rect id="Rectángulo_338962" data-name="Rectángulo 338962" width="1.448" height="1.499" transform="translate(38.489 36.922)"/>
        <rect id="Rectángulo_338963" data-name="Rectángulo 338963" width="3.033" height="1.482" transform="translate(38.471 43.085)"/>
        <path id="Trazado_212189" data-name="Trazado 212189" d="M118.17,119.576c-.012-.077-.027-.136-.03-.2-.065-1.383.082-1.507,1.518-1.256v1.453Z" transform="translate(-75.081 -75.013)"/>
      </g>
    </g>
    <path id="Trazado_212179" data-name="Trazado 212179" d="M39.6,0,0,68.6l39.6,68.6h79.21l39.6-68.6L118.815,0Z" transform="translate(574.949 2460)" fill="#ff6e33"/>
    <path id="Trazado_730081" data-name="Trazado 730081" d="M6.809,11.914l.141.625H7l.133-.6L9.605,3.625h2.406L8.145,15H5.8L1.941,3.625H4.348ZM15.34,15H13.059V6.547H15.34Zm0-10.477H13.059V2.813H15.34Zm6.445,8.133a.787.787,0,0,0-.363-.645,3.69,3.69,0,0,0-1.348-.473,5.375,5.375,0,0,1-2.254-.9,1.962,1.962,0,0,1-.77-1.633,2.329,2.329,0,0,1,.922-1.852,3.717,3.717,0,0,1,2.453-.766,4.011,4.011,0,0,1,2.566.766,2.237,2.237,0,0,1,.926,1.906l-.016.047H21.7a1.106,1.106,0,0,0-.328-.828,1.534,1.534,0,0,0-1.812-.047.85.85,0,0,0-.32.672.759.759,0,0,0,.332.637,3.7,3.7,0,0,0,1.348.441,5.484,5.484,0,0,1,2.316.918A2.014,2.014,0,0,1,24,12.57a2.231,2.231,0,0,1-.977,1.867,4.215,4.215,0,0,1-2.578.727,3.918,3.918,0,0,1-2.668-.855,2.392,2.392,0,0,1-.934-1.949l.016-.047h2.086a1.186,1.186,0,0,0,.445.984,1.838,1.838,0,0,0,1.1.3,1.567,1.567,0,0,0,.965-.254A.824.824,0,0,0,21.785,12.656Zm8.859,1.094a2.87,2.87,0,0,1-.992,1.047,2.63,2.63,0,0,1-1.4.367,2.57,2.57,0,0,1-2.09-.906,4.347,4.347,0,0,1-.754-2.812v-4.9h2.273v4.914a2.729,2.729,0,0,0,.3,1.52,1.081,1.081,0,0,0,.934.41,2.273,2.273,0,0,0,.938-.176,1.58,1.58,0,0,0,.641-.52V6.547h2.281V15H30.887ZM39.48,15a4.8,4.8,0,0,1-.215-.609,4.239,4.239,0,0,1-.129-.656,3.127,3.127,0,0,1-.93,1.023,2.33,2.33,0,0,1-1.375.406,2.855,2.855,0,0,1-2.047-.684,2.449,2.449,0,0,1-.719-1.863,2.229,2.229,0,0,1,.957-1.926,4.78,4.78,0,0,1,2.793-.684H39.1V9.336a1.315,1.315,0,0,0-.32-.945,1.257,1.257,0,0,0-.953-.336,1.239,1.239,0,0,0-.855.27.941.941,0,0,0-.3.738h-2.2l-.016-.047a2.144,2.144,0,0,1,.934-1.848,4.055,4.055,0,0,1,2.582-.777,3.784,3.784,0,0,1,2.465.766,2.667,2.667,0,0,1,.941,2.2v3.492a6.605,6.605,0,0,0,.09,1.117A5.606,5.606,0,0,0,41.754,15Zm-2.086-1.523a1.944,1.944,0,0,0,1.063-.3,1.6,1.6,0,0,0,.641-.687V11.3H37.816a1.519,1.519,0,0,0-1.1.359,1.181,1.181,0,0,0-.371.883.881.881,0,0,0,.277.684A1.1,1.1,0,0,0,37.395,13.477ZM45.488,15H43.207V2.813h2.281Zm4.273,0H47.48V6.547h2.281Zm0-10.477H47.48V2.813h2.281Zm4.422,8.727h4.188V15H51.348V13.656l4.023-5.344h-3.9V6.547h6.766v1.3ZM64.793,15a4.8,4.8,0,0,1-.215-.609,4.238,4.238,0,0,1-.129-.656,3.127,3.127,0,0,1-.93,1.023,2.33,2.33,0,0,1-1.375.406A2.855,2.855,0,0,1,60.1,14.48a2.449,2.449,0,0,1-.719-1.863,2.229,2.229,0,0,1,.957-1.926,4.78,4.78,0,0,1,2.793-.684H64.41V9.336a1.315,1.315,0,0,0-.32-.945,1.257,1.257,0,0,0-.953-.336,1.239,1.239,0,0,0-.855.27.941.941,0,0,0-.3.738h-2.2l-.016-.047A2.144,2.144,0,0,1,60.7,7.168a4.055,4.055,0,0,1,2.582-.777,3.784,3.784,0,0,1,2.465.766,2.667,2.667,0,0,1,.941,2.2v3.492a6.6,6.6,0,0,0,.09,1.117A5.606,5.606,0,0,0,67.066,15Zm-2.086-1.523a1.944,1.944,0,0,0,1.063-.3,1.6,1.6,0,0,0,.641-.687V11.3H63.129a1.519,1.519,0,0,0-1.1.359,1.181,1.181,0,0,0-.371.883.881.881,0,0,0,.277.684A1.1,1.1,0,0,0,62.707,13.477Zm9.227-.062a1.27,1.27,0,0,0,.945-.355,1.291,1.291,0,0,0,.352-.949h2.078l.016.047a2.645,2.645,0,0,1-.953,2.145,3.564,3.564,0,0,1-2.437.863,3.6,3.6,0,0,1-2.9-1.2A4.558,4.558,0,0,1,68.012,10.9v-.234A4.588,4.588,0,0,1,69.031,7.6a3.57,3.57,0,0,1,2.887-1.207,3.486,3.486,0,0,1,2.492.891,2.976,2.976,0,0,1,.914,2.344l-.016.047H73.23a1.687,1.687,0,0,0-.348-1.09,1.168,1.168,0,0,0-.965-.434,1.3,1.3,0,0,0-1.254.707,3.878,3.878,0,0,0-.371,1.809V10.9a3.863,3.863,0,0,0,.371,1.82A1.32,1.32,0,0,0,71.934,13.414ZM79.051,15H76.77V6.547h2.281Zm0-10.477H76.77V2.813h2.281ZM80.574,10.7a4.536,4.536,0,0,1,1.055-3.1,3.676,3.676,0,0,1,2.922-1.207,3.715,3.715,0,0,1,2.938,1.2,4.512,4.512,0,0,1,1.063,3.1v.164a4.519,4.519,0,0,1-1.059,3.105,4.178,4.178,0,0,1-5.859,0,4.519,4.519,0,0,1-1.059-3.105Zm2.273.164a3.677,3.677,0,0,0,.406,1.855,1.561,1.561,0,0,0,2.605,0,3.653,3.653,0,0,0,.41-1.852V10.7a3.616,3.616,0,0,0-.414-1.836,1.4,1.4,0,0,0-1.3-.711,1.384,1.384,0,0,0-1.293.715,3.648,3.648,0,0,0-.41,1.832Zm2.164-7.922h2.539l.016.047L85.4,5.016H83.457Zm7.031,3.609.1,1.211A3.092,3.092,0,0,1,93.184,6.75a2.7,2.7,0,0,1,1.383-.359,2.513,2.513,0,0,1,2,.824,3.908,3.908,0,0,1,.719,2.605V15H95V9.828a2.024,2.024,0,0,0-.316-1.285,1.166,1.166,0,0,0-.949-.379,1.992,1.992,0,0,0-.895.191,1.746,1.746,0,0,0-.637.527V15H89.918V6.547Zm-72.449,22.3a5.493,5.493,0,0,1,.863-3.227,2.8,2.8,0,0,1,2.434-1.227,2.367,2.367,0,0,1,1.141.273,2.744,2.744,0,0,1,.891.781V20.813h2.289V33H25.266l-.2-1.039a2.826,2.826,0,0,1-.945.895,2.5,2.5,0,0,1-1.25.309,2.858,2.858,0,0,1-2.418-1.141,4.871,4.871,0,0,1-.863-3.016Zm2.273.164a3.443,3.443,0,0,0,.375,1.746,1.306,1.306,0,0,0,1.219.637,1.775,1.775,0,0,0,.859-.2,1.589,1.589,0,0,0,.6-.582v-3.6a1.756,1.756,0,0,0-.6-.621,1.589,1.589,0,0,0-.848-.223,1.287,1.287,0,0,0-1.223.742,4.194,4.194,0,0,0-.387,1.938Zm10.773,4.156A3.8,3.8,0,0,1,29.688,32a4.252,4.252,0,0,1-1.062-2.988V28.7a4.628,4.628,0,0,1,1.031-3.109,3.506,3.506,0,0,1,2.836-1.2,3.282,3.282,0,0,1,2.613,1.043,4.122,4.122,0,0,1,.91,2.809v1.18H30.977l-.023.047a2.284,2.284,0,0,0,.527,1.406,1.766,1.766,0,0,0,1.4.539,4.692,4.692,0,0,0,1.3-.156,5.307,5.307,0,0,0,1.105-.477l.617,1.406a4.234,4.234,0,0,1-1.375.7A6.1,6.1,0,0,1,32.641,33.164Zm-.148-7.016a1.267,1.267,0,0,0-1.059.473,2.371,2.371,0,0,0-.449,1.254l.016.039h2.781v-.172a1.974,1.974,0,0,0-.3-1.168A1.127,1.127,0,0,0,32.492,26.148Zm8.484,2.7a5.493,5.493,0,0,1,.863-3.227,2.8,2.8,0,0,1,2.434-1.227,2.367,2.367,0,0,1,1.141.273,2.744,2.744,0,0,1,.891.781V20.813h2.289V33H46.648l-.2-1.039a2.826,2.826,0,0,1-.945.895,2.5,2.5,0,0,1-1.25.309,2.858,2.858,0,0,1-2.418-1.141,4.871,4.871,0,0,1-.863-3.016Zm2.273.164a3.443,3.443,0,0,0,.375,1.746,1.306,1.306,0,0,0,1.219.637,1.775,1.775,0,0,0,.859-.2,1.589,1.589,0,0,0,.6-.582v-3.6a1.756,1.756,0,0,0-.6-.621,1.589,1.589,0,0,0-.848-.223,1.287,1.287,0,0,0-1.223.742,4.194,4.194,0,0,0-.387,1.938ZM55.344,33a4.8,4.8,0,0,1-.215-.609A4.239,4.239,0,0,1,55,31.734a3.127,3.127,0,0,1-.93,1.023,2.33,2.33,0,0,1-1.375.406,2.855,2.855,0,0,1-2.047-.684,2.449,2.449,0,0,1-.719-1.863,2.229,2.229,0,0,1,.957-1.926,4.78,4.78,0,0,1,2.793-.684h1.281v-.672a1.315,1.315,0,0,0-.32-.945,1.257,1.257,0,0,0-.953-.336,1.239,1.239,0,0,0-.855.27.941.941,0,0,0-.3.738h-2.2l-.016-.047a2.144,2.144,0,0,1,.934-1.848,4.055,4.055,0,0,1,2.582-.777,3.784,3.784,0,0,1,2.465.766,2.667,2.667,0,0,1,.941,2.2v3.492a6.605,6.605,0,0,0,.09,1.117A5.606,5.606,0,0,0,57.617,33Zm-2.086-1.523a1.944,1.944,0,0,0,1.063-.3,1.6,1.6,0,0,0,.641-.687V29.3H53.68a1.519,1.519,0,0,0-1.1.359,1.181,1.181,0,0,0-.371.883.881.881,0,0,0,.277.684A1.1,1.1,0,0,0,53.258,31.477Zm8.43-9v2.07h1.43v1.6h-1.43v4.3a.982.982,0,0,0,.207.7.727.727,0,0,0,.543.211,2.178,2.178,0,0,0,.313-.02,2.632,2.632,0,0,0,.3-.066l.188,1.648a4.618,4.618,0,0,1-.668.176,3.982,3.982,0,0,1-.707.059,2.431,2.431,0,0,1-1.816-.648,2.843,2.843,0,0,1-.637-2.055V26.148H58.18v-1.6h1.234v-2.07ZM64.172,28.7a4.536,4.536,0,0,1,1.055-3.1,3.676,3.676,0,0,1,2.922-1.207,3.715,3.715,0,0,1,2.938,1.2,4.512,4.512,0,0,1,1.063,3.1v.164a4.519,4.519,0,0,1-1.059,3.105,4.178,4.178,0,0,1-5.859,0,4.519,4.519,0,0,1-1.059-3.105Zm2.273.164a3.677,3.677,0,0,0,.406,1.855,1.561,1.561,0,0,0,2.605,0,3.653,3.653,0,0,0,.41-1.852V28.7a3.616,3.616,0,0,0-.414-1.836,1.4,1.4,0,0,0-1.3-.711,1.384,1.384,0,0,0-1.293.715,3.648,3.648,0,0,0-.41,1.832Zm11.68,1.8a.787.787,0,0,0-.363-.645,3.69,3.69,0,0,0-1.348-.473,5.375,5.375,0,0,1-2.254-.9,1.962,1.962,0,0,1-.77-1.633,2.329,2.329,0,0,1,.922-1.852,3.717,3.717,0,0,1,2.453-.766,4.011,4.011,0,0,1,2.566.766,2.237,2.237,0,0,1,.926,1.906l-.016.047h-2.2a1.106,1.106,0,0,0-.328-.828,1.534,1.534,0,0,0-1.812-.047.85.85,0,0,0-.32.672.759.759,0,0,0,.332.637,3.7,3.7,0,0,0,1.348.441,5.484,5.484,0,0,1,2.316.918,2.014,2.014,0,0,1,.762,1.668,2.231,2.231,0,0,1-.977,1.867,4.215,4.215,0,0,1-2.578.727,3.918,3.918,0,0,1-2.668-.855,2.392,2.392,0,0,1-.934-1.949l.016-.047h2.086a1.186,1.186,0,0,0,.445.984,1.838,1.838,0,0,0,1.1.3,1.567,1.567,0,0,0,.965-.254A.824.824,0,0,0,78.125,30.656Z" transform="translate(603.865 2540.567)"/>
    <g id="Grupo_985720" data-name="Grupo 985720" transform="translate(624.349 2475.256)">
      <g id="Grupo_985719" data-name="Grupo 985719" clip-path="url(#clip-path-3)">
        <path id="Trazado_212190" data-name="Trazado 212190" d="M9.434,56.944a1.026,1.026,0,0,1-1.026-1.026V3.117a1.026,1.026,0,0,1,2.052,0v52.8a1.026,1.026,0,0,1-1.026,1.026" transform="translate(-4.862 -1.209)"/>
        <path id="Trazado_212191" data-name="Trazado 212191" d="M59.9,117.052H1.026a1.026,1.026,0,0,1,0-2.052H59.9a1.026,1.026,0,0,1,0,2.052" transform="translate(0 -66.493)"/>
        <path id="Trazado_212192" data-name="Trazado 212192" d="M15.856,64.314a1.026,1.026,0,0,1-.875-1.561l9.735-15.942a1.023,1.023,0,0,1,1-.484L50.052,49.28l8.849-17.8a1.026,1.026,0,0,1,1.838.913L51.567,50.842a1.026,1.026,0,0,1-1.042.562l-24.4-2.96L16.732,63.822a1.025,1.025,0,0,1-.877.491" transform="translate(-8.575 -17.87)"/>
        <path id="Trazado_212193" data-name="Trazado 212193" d="M117.853,19.742a1.028,1.028,0,0,1-.486-.122l-16.6-8.925a1.026,1.026,0,0,1,.007-1.811l16.6-8.766a1.027,1.027,0,0,1,1.5.908V18.716a1.025,1.025,0,0,1-1.026,1.026M103.431,9.8l13.4,7.2V2.727Z" transform="translate(-57.949 0)"/>
      </g>
    </g>
    <path id="Trazado_212180" data-name="Trazado 212180" d="M39.6,0,0,68.6l39.6,68.6h79.21l39.6-68.6L118.815,0Z" transform="translate(747.581 2547.567)" fill="#ff6e33"/>
    <path id="Trazado_730080" data-name="Trazado 730080" d="M11.059,12.008h.047l2.922-8.383H17V15H14.723V7.234l-.047-.008L11.863,15H10.316L7.5,7.211l-.047.008V15H5.176V3.625H8.168ZM18.574,10.7a4.536,4.536,0,0,1,1.055-3.1,3.676,3.676,0,0,1,2.922-1.207,3.715,3.715,0,0,1,2.938,1.2,4.512,4.512,0,0,1,1.063,3.1v.164a4.519,4.519,0,0,1-1.059,3.105,3.7,3.7,0,0,1-2.926,1.2,3.709,3.709,0,0,1-2.934-1.2,4.519,4.519,0,0,1-1.059-3.105Zm2.273.164a3.677,3.677,0,0,0,.406,1.855,1.561,1.561,0,0,0,2.605,0,3.653,3.653,0,0,0,.41-1.852V10.7a3.616,3.616,0,0,0-.414-1.836,1.4,1.4,0,0,0-1.3-.711,1.384,1.384,0,0,0-1.293.715,3.648,3.648,0,0,0-.41,1.832Zm9.2-4.312.1,1.211A3.092,3.092,0,0,1,31.184,6.75a2.7,2.7,0,0,1,1.383-.359,2.513,2.513,0,0,1,2,.824,3.908,3.908,0,0,1,.719,2.605V15H33V9.828a2.024,2.024,0,0,0-.316-1.285,1.166,1.166,0,0,0-.949-.379,1.992,1.992,0,0,0-.895.191,1.746,1.746,0,0,0-.637.527V15H27.918V6.547ZM39.387,15H37.105V6.547h2.281Zm0-10.477H37.105V2.813h2.281ZM44,4.477v2.07h1.43v1.6H44v4.3a.982.982,0,0,0,.207.7.727.727,0,0,0,.543.211,2.178,2.178,0,0,0,.313-.02,2.632,2.632,0,0,0,.3-.066l.188,1.648a4.618,4.618,0,0,1-.668.176,3.982,3.982,0,0,1-.707.059,2.431,2.431,0,0,1-1.816-.648,2.843,2.843,0,0,1-.637-2.055V8.148H40.488v-1.6h1.234V4.477ZM46.48,10.7a4.536,4.536,0,0,1,1.055-3.1,3.676,3.676,0,0,1,2.922-1.207,3.715,3.715,0,0,1,2.938,1.2,4.512,4.512,0,0,1,1.063,3.1v.164A4.519,4.519,0,0,1,53.4,13.965a4.178,4.178,0,0,1-5.859,0,4.519,4.519,0,0,1-1.059-3.105Zm2.273.164a3.677,3.677,0,0,0,.406,1.855,1.561,1.561,0,0,0,2.605,0,3.653,3.653,0,0,0,.41-1.852V10.7a3.616,3.616,0,0,0-.414-1.836,1.4,1.4,0,0,0-1.3-.711,1.384,1.384,0,0,0-1.293.715,3.648,3.648,0,0,0-.41,1.832ZM60.309,8.508l-.836-.023a1.519,1.519,0,0,0-.836.211,1.337,1.337,0,0,0-.5.594V15H55.863V6.547H57.98l.1,1.25a2.667,2.667,0,0,1,.77-1.035,1.8,1.8,0,0,1,1.406-.344q.145.027.293.066Zm4.7,6.656A3.8,3.8,0,0,1,62.059,14,4.252,4.252,0,0,1,61,11.016V10.7a4.628,4.628,0,0,1,1.031-3.109,3.506,3.506,0,0,1,2.836-1.2,3.282,3.282,0,0,1,2.613,1.043,4.122,4.122,0,0,1,.91,2.809v1.18H63.348l-.023.047a2.284,2.284,0,0,0,.527,1.406,1.766,1.766,0,0,0,1.4.539,4.692,4.692,0,0,0,1.3-.156,5.307,5.307,0,0,0,1.105-.477l.617,1.406a4.234,4.234,0,0,1-1.375.7A6.1,6.1,0,0,1,65.012,15.164Zm-.148-7.016a1.267,1.267,0,0,0-1.059.473,2.371,2.371,0,0,0-.449,1.254l.016.039h2.781V9.742a1.974,1.974,0,0,0-.3-1.168A1.127,1.127,0,0,0,64.863,8.148Zm4.5,2.547a4.536,4.536,0,0,1,1.055-3.1A3.676,3.676,0,0,1,73.34,6.391a3.715,3.715,0,0,1,2.938,1.2,4.512,4.512,0,0,1,1.063,3.1v.164a4.519,4.519,0,0,1-1.059,3.105,4.178,4.178,0,0,1-5.859,0,4.519,4.519,0,0,1-1.059-3.105Zm2.273.164a3.677,3.677,0,0,0,.406,1.855,1.561,1.561,0,0,0,2.605,0,3.653,3.653,0,0,0,.41-1.852V10.7a3.616,3.616,0,0,0-.414-1.836,1.4,1.4,0,0,0-1.3-.711,1.384,1.384,0,0,0-1.293.715,3.648,3.648,0,0,0-.41,1.832ZM20.656,26.508l-.836-.023a1.519,1.519,0,0,0-.836.211,1.337,1.337,0,0,0-.5.594V33H16.211V24.547h2.117l.1,1.25a2.667,2.667,0,0,1,.77-1.035,1.8,1.8,0,0,1,1.406-.344q.145.027.293.066Zm4.7,6.656A3.8,3.8,0,0,1,22.406,32a4.252,4.252,0,0,1-1.062-2.988V28.7a4.628,4.628,0,0,1,1.031-3.109,3.506,3.506,0,0,1,2.836-1.2,3.282,3.282,0,0,1,2.613,1.043,4.122,4.122,0,0,1,.91,2.809v1.18H23.7l-.023.047a2.284,2.284,0,0,0,.527,1.406,1.766,1.766,0,0,0,1.4.539,4.692,4.692,0,0,0,1.3-.156,5.307,5.307,0,0,0,1.105-.477l.617,1.406a4.234,4.234,0,0,1-1.375.7A6.1,6.1,0,0,1,25.359,33.164Zm-.148-7.016a1.267,1.267,0,0,0-1.059.473,2.371,2.371,0,0,0-.449,1.254l.016.039H26.5v-.172a1.974,1.974,0,0,0-.3-1.168A1.127,1.127,0,0,0,25.211,26.148Zm6.969-1.6.094,1.117a2.84,2.84,0,0,1,1.02-.941,2.932,2.932,0,0,1,1.418-.332,2.582,2.582,0,0,1,1.391.359,2.217,2.217,0,0,1,.875,1.086,2.93,2.93,0,0,1,1.016-1.062,2.756,2.756,0,0,1,1.469-.383,2.408,2.408,0,0,1,1.973.887,4.233,4.233,0,0,1,.723,2.707V33H39.875V27.977a2.369,2.369,0,0,0-.312-1.414,1.109,1.109,0,0,0-.93-.4,1.592,1.592,0,0,0-.84.215,1.565,1.565,0,0,0-.566.6q0,.148.008.254t.008.215V33H34.969V27.977a2.376,2.376,0,0,0-.312-1.4,1.1,1.1,0,0,0-.937-.41,1.769,1.769,0,0,0-.809.176,1.551,1.551,0,0,0-.574.5V33H30.063V24.547ZM43.555,28.7a4.536,4.536,0,0,1,1.055-3.1,3.676,3.676,0,0,1,2.922-1.207,3.715,3.715,0,0,1,2.938,1.2,4.512,4.512,0,0,1,1.063,3.1v.164a4.519,4.519,0,0,1-1.059,3.105,4.178,4.178,0,0,1-5.859,0,4.519,4.519,0,0,1-1.059-3.105Zm2.273.164a3.677,3.677,0,0,0,.406,1.855,1.561,1.561,0,0,0,2.605,0,3.653,3.653,0,0,0,.41-1.852V28.7a3.616,3.616,0,0,0-.414-1.836,1.4,1.4,0,0,0-1.3-.711,1.384,1.384,0,0,0-1.293.715,3.648,3.648,0,0,0-.41,1.832Zm9.844-6.383v2.07H57.1v1.6h-1.43v4.3a.982.982,0,0,0,.207.7.727.727,0,0,0,.543.211,2.178,2.178,0,0,0,.313-.02,2.632,2.632,0,0,0,.3-.066l.188,1.648a4.618,4.618,0,0,1-.668.176,3.982,3.982,0,0,1-.707.059,2.431,2.431,0,0,1-1.816-.648,2.843,2.843,0,0,1-.637-2.055V26.148H52.164v-1.6H53.4v-2.07ZM58.156,28.7a4.536,4.536,0,0,1,1.055-3.1,3.676,3.676,0,0,1,2.922-1.207,3.715,3.715,0,0,1,2.938,1.2,4.512,4.512,0,0,1,1.063,3.1v.164a4.519,4.519,0,0,1-1.059,3.105,4.178,4.178,0,0,1-5.859,0,4.519,4.519,0,0,1-1.059-3.105Zm2.273.164a3.677,3.677,0,0,0,.406,1.855,1.561,1.561,0,0,0,2.605,0,3.653,3.653,0,0,0,.41-1.852V28.7a3.616,3.616,0,0,0-.414-1.836,1.4,1.4,0,0,0-1.3-.711,1.384,1.384,0,0,0-1.293.715,3.648,3.648,0,0,0-.41,1.832Z" transform="translate(785.58 2624.802)"/>
    <g id="Grupo_985723" data-name="Grupo 985723" transform="translate(808.58 2565.134)">
      <g id="Grupo_985722" data-name="Grupo 985722">
        <g id="Grupo_985721" data-name="Grupo 985721" clip-path="url(#clip-path-4)">
          <path id="Trazado_212194" data-name="Trazado 212194" d="M30.577,0a10.959,10.959,0,0,1,1.061.34,4.728,4.728,0,0,1,3.046,4.133c.026.267.029.536.029.8q0,22.24.008,44.48a4.842,4.842,0,0,1-2.814,4.783,5.207,5.207,0,0,1-1.858.449c-1.034.074-2.077.03-3.115.022-.579,0-.924-.333-.91-.827a.8.8,0,0,1,.9-.778c.949-.009,1.9,0,2.848,0a3.213,3.213,0,0,0,3.318-3.164c.007-.143.007-.286.007-.43q0-22.294,0-44.588a3.568,3.568,0,0,0-.695-2.368,3.3,3.3,0,0,0-2.727-1.244q-9.591.011-19.181,0-2.714,0-5.427,0A3.225,3.225,0,0,0,1.617,5.071c-.009,2.56,0,5.121,0,7.682a3.191,3.191,0,0,1-.04.641A.716.716,0,0,1,.8,14a.717.717,0,0,1-.765-.616A3.316,3.316,0,0,1,0,12.746Q0,9.04,0,5.333C0,2.456,1.265.818,4.056.064,4.087.056,4.112.023,4.139,0Z" transform="translate(-0.001 -0.001)"/>
          <path id="Trazado_212195" data-name="Trazado 212195" d="M0,58.738Q0,50.6,0,42.461a5.361,5.361,0,0,1,.015-.59.746.746,0,0,1,.773-.736.759.759,0,0,1,.81.754,6.053,6.053,0,0,1,.014.644q0,16.089,0,32.179A3.682,3.682,0,0,0,2.1,76.822,3.252,3.252,0,0,0,5,78.351q8.758-.007,17.516,0c.161,0,.323-.006.484,0a.8.8,0,1,1,.026,1.606c-.089.007-.179,0-.268,0q-8.892,0-17.785,0A4.8,4.8,0,0,1,.122,76.134,7.116,7.116,0,0,1,0,74.64q-.012-7.951,0-15.9" transform="translate(0 -24.946)"/>
          <path id="Trazado_212196" data-name="Trazado 212196" d="M35.519,8.189c.822,0,1.644,0,2.466,0,.62,0,.976.318.96.829-.015.485-.362.778-.957.779q-2.52.008-5.04,0c-.62,0-.975-.319-.96-.83.014-.485.36-.774.957-.778.858-.006,1.715,0,2.573,0" transform="translate(-19.4 -4.966)"/>
          <path id="Trazado_212197" data-name="Trazado 212197" d="M54.053,9.016a.793.793,0,1,1-.807-.814.8.8,0,0,1,.807.814" transform="translate(-31.82 -4.974)"/>
        </g>
      </g>
    </g>
    <path id="Trazado_212181" data-name="Trazado 212181" d="M39.6,0,0,68.6l39.6,68.6h79.21l39.6-68.6L118.815,0Z" transform="translate(747.581 2735.802)" fill="#ff6e33"/>
    <path id="Trazado_730079" data-name="Trazado 730079" d="M19.031,12.547H15.344L14.578,15H12.2L16.031,3.625h2.336L22.188,15H19.8Zm-3.125-1.789h2.57L17.219,6.75h-.047ZM25.508,15H23.227V2.813h2.281Zm5.539.164A3.8,3.8,0,0,1,28.094,14a4.252,4.252,0,0,1-1.062-2.988V10.7a4.628,4.628,0,0,1,1.031-3.109,3.506,3.506,0,0,1,2.836-1.2,3.282,3.282,0,0,1,2.613,1.043,4.122,4.122,0,0,1,.91,2.809v1.18H29.383l-.023.047a2.284,2.284,0,0,0,.527,1.406,1.766,1.766,0,0,0,1.4.539,4.692,4.692,0,0,0,1.3-.156,5.307,5.307,0,0,0,1.105-.477l.617,1.406a4.234,4.234,0,0,1-1.375.7A6.1,6.1,0,0,1,31.047,15.164ZM30.9,8.148a1.267,1.267,0,0,0-1.059.473,2.371,2.371,0,0,0-.449,1.254l.016.039h2.781V9.742a1.974,1.974,0,0,0-.3-1.168A1.127,1.127,0,0,0,30.9,8.148Zm9.3.359-.836-.023a1.519,1.519,0,0,0-.836.211,1.337,1.337,0,0,0-.5.594V15H35.75V6.547h2.117l.1,1.25a2.667,2.667,0,0,1,.77-1.035,1.8,1.8,0,0,1,1.406-.344q.145.027.293.066ZM44.25,4.477v2.07h1.43v1.6H44.25v4.3a.982.982,0,0,0,.207.7.727.727,0,0,0,.543.211,2.178,2.178,0,0,0,.313-.02,2.632,2.632,0,0,0,.3-.066L45.8,14.93a4.618,4.618,0,0,1-.668.176,3.982,3.982,0,0,1-.707.059,2.431,2.431,0,0,1-1.816-.648,2.843,2.843,0,0,1-.637-2.055V8.148H40.742v-1.6h1.234V4.477ZM52.07,15a4.8,4.8,0,0,1-.215-.609,4.239,4.239,0,0,1-.129-.656,3.127,3.127,0,0,1-.93,1.023,2.33,2.33,0,0,1-1.375.406,2.855,2.855,0,0,1-2.047-.684,2.449,2.449,0,0,1-.719-1.863,2.229,2.229,0,0,1,.957-1.926,4.78,4.78,0,0,1,2.793-.684h1.281V9.336a1.315,1.315,0,0,0-.32-.945,1.257,1.257,0,0,0-.953-.336,1.239,1.239,0,0,0-.855.27.941.941,0,0,0-.3.738h-2.2l-.016-.047a2.144,2.144,0,0,1,.934-1.848,4.055,4.055,0,0,1,2.582-.777,3.784,3.784,0,0,1,2.465.766,2.667,2.667,0,0,1,.941,2.2v3.492a6.605,6.605,0,0,0,.09,1.117A5.606,5.606,0,0,0,54.344,15Zm-2.086-1.523a1.944,1.944,0,0,0,1.063-.3,1.6,1.6,0,0,0,.641-.687V11.3H50.406a1.519,1.519,0,0,0-1.1.359,1.181,1.181,0,0,0-.371.883.881.881,0,0,0,.277.684A1.1,1.1,0,0,0,49.984,13.477Zm12.734-1.625.148.781h.047l.156-.781,1.391-5.3h2.383L63.969,15h-2.18L58.914,6.547H61.3ZM70.281,15H68V6.547h2.281ZM69.6,3.1h2.539l.016.047L69.992,5.18H68.047ZM77.211,15A4.8,4.8,0,0,1,77,14.391a4.238,4.238,0,0,1-.129-.656,3.127,3.127,0,0,1-.93,1.023,2.33,2.33,0,0,1-1.375.406,2.855,2.855,0,0,1-2.047-.684,2.449,2.449,0,0,1-.719-1.863,2.229,2.229,0,0,1,.957-1.926,4.78,4.78,0,0,1,2.793-.684h1.281V9.336a1.315,1.315,0,0,0-.32-.945,1.257,1.257,0,0,0-.953-.336,1.239,1.239,0,0,0-.855.27.941.941,0,0,0-.3.738H72.2l-.016-.047a2.144,2.144,0,0,1,.934-1.848A4.055,4.055,0,0,1,75.7,6.391a3.784,3.784,0,0,1,2.465.766,2.667,2.667,0,0,1,.941,2.2v3.492a6.6,6.6,0,0,0,.09,1.117A5.606,5.606,0,0,0,79.484,15Zm-2.086-1.523a1.944,1.944,0,0,0,1.063-.3,1.6,1.6,0,0,0,.641-.687V11.3H75.547a1.519,1.519,0,0,0-1.1.359,1.181,1.181,0,0,0-.371.883.881.881,0,0,0,.277.684A1.1,1.1,0,0,0,75.125,13.477ZM5.941,33.164A3.8,3.8,0,0,1,2.988,32a4.252,4.252,0,0,1-1.062-2.988V28.7a4.628,4.628,0,0,1,1.031-3.109,3.506,3.506,0,0,1,2.836-1.2,3.282,3.282,0,0,1,2.613,1.043,4.122,4.122,0,0,1,.91,2.809v1.18H4.277l-.023.047a2.284,2.284,0,0,0,.527,1.406,1.766,1.766,0,0,0,1.4.539,4.692,4.692,0,0,0,1.3-.156,5.307,5.307,0,0,0,1.105-.477l.617,1.406a4.234,4.234,0,0,1-1.375.7A6.1,6.1,0,0,1,5.941,33.164Zm-.148-7.016a1.267,1.267,0,0,0-1.059.473,2.371,2.371,0,0,0-.449,1.254l.016.039H7.082v-.172a1.974,1.974,0,0,0-.3-1.168A1.127,1.127,0,0,0,5.793,26.148Zm6.969-1.6.094,1.117a2.84,2.84,0,0,1,1.02-.941,2.932,2.932,0,0,1,1.418-.332,2.582,2.582,0,0,1,1.391.359,2.217,2.217,0,0,1,.875,1.086,2.93,2.93,0,0,1,1.016-1.062,2.756,2.756,0,0,1,1.469-.383,2.408,2.408,0,0,1,1.973.887,4.233,4.233,0,0,1,.723,2.707V33H20.457V27.977a2.369,2.369,0,0,0-.312-1.414,1.109,1.109,0,0,0-.93-.4,1.592,1.592,0,0,0-.84.215,1.565,1.565,0,0,0-.566.6q0,.148.008.254t.008.215V33H15.551V27.977a2.376,2.376,0,0,0-.312-1.4,1.1,1.1,0,0,0-.937-.41,1.769,1.769,0,0,0-.809.176,1.551,1.551,0,0,0-.574.5V33H10.645V24.547ZM29.473,33a4.8,4.8,0,0,1-.215-.609,4.239,4.239,0,0,1-.129-.656,3.127,3.127,0,0,1-.93,1.023,2.33,2.33,0,0,1-1.375.406,2.855,2.855,0,0,1-2.047-.684,2.449,2.449,0,0,1-.719-1.863,2.229,2.229,0,0,1,.957-1.926,4.78,4.78,0,0,1,2.793-.684H29.09v-.672a1.315,1.315,0,0,0-.32-.945,1.257,1.257,0,0,0-.953-.336,1.239,1.239,0,0,0-.855.27.941.941,0,0,0-.3.738h-2.2l-.016-.047a2.144,2.144,0,0,1,.934-1.848,4.055,4.055,0,0,1,2.582-.777,3.784,3.784,0,0,1,2.465.766,2.667,2.667,0,0,1,.941,2.2v3.492a6.6,6.6,0,0,0,.09,1.117A5.606,5.606,0,0,0,31.746,33Zm-2.086-1.523a1.944,1.944,0,0,0,1.063-.3,1.6,1.6,0,0,0,.641-.687V29.3H27.809a1.519,1.519,0,0,0-1.1.359,1.181,1.181,0,0,0-.371.883.881.881,0,0,0,.277.684A1.1,1.1,0,0,0,27.387,31.477ZM35.48,33H33.2V24.547H35.48Zm0-10.477H33.2V20.813H35.48ZM39.754,33H37.473V20.813h2.281Zm8.906-3.547.094.469H48.8l1.617-5.375h2.453l-3.43,9.719a4.474,4.474,0,0,1-.977,1.527,2.505,2.505,0,0,1-1.852.621,2.863,2.863,0,0,1-.535-.047q-.246-.047-.6-.133l.266-1.664.219.031a1.611,1.611,0,0,0,.211.016,1.243,1.243,0,0,0,.867-.277,1.83,1.83,0,0,0,.469-.691l.266-.656-3-8.445H47.23Zm15.211.578a1.33,1.33,0,0,0-.457-1.055,4.592,4.592,0,0,0-1.605-.75,9.124,9.124,0,0,1-2.988-1.4,2.646,2.646,0,0,1-1.02-2.2,2.761,2.761,0,0,1,1.148-2.285,5.309,5.309,0,0,1,5.973.066,2.982,2.982,0,0,1,1.113,2.5l-.016.047H63.809a1.657,1.657,0,0,0-.516-1.309,2.106,2.106,0,0,0-1.445-.457,1.91,1.91,0,0,0-1.3.406,1.323,1.323,0,0,0-.461,1.039,1.135,1.135,0,0,0,.5.949,6.689,6.689,0,0,0,1.727.785,7.429,7.429,0,0,1,2.859,1.387,2.841,2.841,0,0,1,.984,2.254,2.713,2.713,0,0,1-1.141,2.3A4.952,4.952,0,0,1,62,33.164a5.388,5.388,0,0,1-3.152-.914,3.015,3.015,0,0,1-1.277-2.727l.016-.047h2.211a1.79,1.79,0,0,0,.594,1.484A2.5,2.5,0,0,0,62,31.438a2.2,2.2,0,0,0,1.395-.383A1.242,1.242,0,0,0,63.871,30.031Zm9.844-.023h.047l2.922-8.383H79.66V33H77.379V25.234l-.047-.008L74.52,33H72.973L70.16,25.211l-.047.008V33H67.832V21.625h2.992Zm13.969.023a1.33,1.33,0,0,0-.457-1.055,4.592,4.592,0,0,0-1.605-.75,9.124,9.124,0,0,1-2.988-1.4,2.646,2.646,0,0,1-1.02-2.2,2.761,2.761,0,0,1,1.148-2.285,5.309,5.309,0,0,1,5.973.066,2.982,2.982,0,0,1,1.113,2.5l-.016.047H87.621a1.657,1.657,0,0,0-.516-1.309A2.106,2.106,0,0,0,85.66,23.2a1.91,1.91,0,0,0-1.3.406,1.323,1.323,0,0,0-.461,1.039,1.135,1.135,0,0,0,.5.949,6.689,6.689,0,0,0,1.727.785,7.429,7.429,0,0,1,2.859,1.387,2.841,2.841,0,0,1,.984,2.254,2.713,2.713,0,0,1-1.141,2.3,4.952,4.952,0,0,1-3.016.844,5.388,5.388,0,0,1-3.152-.914,3.015,3.015,0,0,1-1.277-2.727l.016-.047h2.211a1.79,1.79,0,0,0,.594,1.484,2.5,2.5,0,0,0,1.609.477,2.2,2.2,0,0,0,1.395-.383A1.242,1.242,0,0,0,87.684,30.031Z" transform="translate(780.58 2804.661)"/>
    <g id="Grupo_985725" data-name="Grupo 985725" transform="translate(800.58 2748.802)">
      <g id="Grupo_985724" data-name="Grupo 985724" clip-path="url(#clip-path-5)">
        <path id="Trazado_212198" data-name="Trazado 212198" d="M0,56.957a16.994,16.994,0,0,1,1.085-2.869A6.456,6.456,0,0,1,6.7,50.773c3.439-.087,6.883-.032,10.324-.027a1.022,1.022,0,0,1,1.112.982c.012.6-.459,1.015-1.18,1.017q-4.787.008-9.573,0A5.061,5.061,0,0,0,2.005,58.1q0,7.393,0,14.786a5.054,5.054,0,0,0,5.306,5.324c1.988,0,3.976.007,5.964,0a1.454,1.454,0,0,1,1.163.545c.743.807,1.559,1.546,2.4,2.372,0-.584,0-1.125,0-1.666.008-.879.374-1.244,1.262-1.245q5.137,0,10.275,0a5.053,5.053,0,0,0,5.3-5.278q0-3.133,0-6.265a2.762,2.762,0,0,1,.043-.6.976.976,0,0,1,1.911-.016,2.117,2.117,0,0,1,.047.5c0,2.205.017,4.411,0,6.616a6.968,6.968,0,0,1-5.544,6.875,8.2,8.2,0,0,1-1.739.167c-3.157.015-6.314.008-9.554.008v1.343c0,.568-.028,1.138.007,1.7a1.307,1.307,0,0,1-.709,1.364h-.6c-.334-.3-.682-.576-1-.889-1.08-1.066-2.14-2.152-3.233-3.205a1.17,1.17,0,0,0-.727-.3c-1.951-.027-3.9.04-5.852-.037a6.563,6.563,0,0,1-5.649-3.327A16.921,16.921,0,0,1,0,74V56.957" transform="translate(0 -33.287)"/>
        <path id="Trazado_212199" data-name="Trazado 212199" d="M72.909.024A15.858,15.858,0,0,1,79.155.87a14.074,14.074,0,0,1,9.23,10.224,14,14,0,0,1-4.3,14.213,1.79,1.79,0,0,0-.666,1.485c.048,1.552.01,3.107.019,4.66a1.049,1.049,0,0,1-1.9.79c-1.072-1.078-2.155-2.144-3.221-3.228a.749.749,0,0,0-.776-.249,22,22,0,0,1-9.73-.185,13.982,13.982,0,0,1-8.254-6.045,14.036,14.036,0,0,1-2.306-9.29A14.213,14.213,0,0,1,62.744,3.154,14.612,14.612,0,0,1,72.909.024m8.525,29.285c0-1.194.043-2.244-.014-3.288a1.9,1.9,0,0,1,.816-1.752,11.556,11.556,0,0,0,3.881-5.481A12.232,12.232,0,0,0,84.749,7.679a12.078,12.078,0,0,0-8.438-5.468,20.859,20.859,0,0,0-6.091-.058,12.63,12.63,0,0,0-3.637,1.018,12,12,0,0,0-7.224,9.547A12.088,12.088,0,0,0,63.945,24.4a11.758,11.758,0,0,0,7.224,2.713,20.193,20.193,0,0,0,6.562-.451,1.341,1.341,0,0,1,1.485.413c.69.724,1.407,1.423,2.219,2.238" transform="translate(-37.528 0)"/>
        <path id="Trazado_212200" data-name="Trazado 212200" d="M27.391,90.433H37.514a3.462,3.462,0,0,1,.5.017.989.989,0,0,1,0,1.969,3.461,3.461,0,0,1-.5.017H17.066c-.813,0-1.3-.378-1.3-1s.483-1,1.3-1q5.162,0,10.324,0" transform="translate(-10.349 -59.345)"/>
        <path id="Trazado_212201" data-name="Trazado 212201" d="M25.438,106.762q4.083,0,8.165,0a2.481,2.481,0,0,1,.691.078.972.972,0,0,1-.012,1.846,2.481,2.481,0,0,1-.691.074q-8.216.006-16.431,0h-.15c-.767-.009-1.244-.4-1.239-1.009s.48-.995,1.251-1q4.208,0,8.416,0" transform="translate(-10.349 -70.06)"/>
        <path id="Trazado_212202" data-name="Trazado 212202" d="M24.1,74.1q3.483,0,6.966,0a2.416,2.416,0,0,1,.594.057.959.959,0,0,1,.731.959.944.944,0,0,1-.715.922,2.209,2.209,0,0,1-.594.062q-6.991,0-13.982,0a2.645,2.645,0,0,1-.5-.03.982.982,0,0,1-.017-1.938,2.771,2.771,0,0,1,.548-.034q3.483,0,6.966,0" transform="translate(-10.349 -48.628)"/>
        <path id="Trazado_212203" data-name="Trazado 212203" d="M78.281,106.787a.994.994,0,1,1-.981,1.008,1.034,1.034,0,0,1,.981-1.008" transform="translate(-50.727 -70.077)"/>
        <path id="Trazado_212204" data-name="Trazado 212204" d="M95.033,29.9c0-.384-.01-.768,0-1.152a1.836,1.836,0,0,1,1.306-1.765c.157-.056.318-.1.473-.161a2.226,2.226,0,0,0,1.41-2.486A2.254,2.254,0,0,0,95.973,22.5a2.214,2.214,0,0,0-2.15,1.932c-.131.958-.5,1.357-1.187,1.271-.623-.079-.876-.541-.8-1.467a4.211,4.211,0,0,1,7.307-2.36,4.2,4.2,0,0,1-1.756,6.851.439.439,0,0,0-.357.5c.022.634.027,1.27,0,1.9a1,1,0,1,1-1.994-.029c-.006-.15,0-.3,0-.451q0-.376,0-.751h0" transform="translate(-60.256 -13.457)"/>
        <path id="Trazado_212205" data-name="Trazado 212205" d="M103.158,61.2a1.007,1.007,0,0,1-.973,1.005.981.981,0,0,1-1.011-.959,1,1,0,0,1,.964-1.014,1.023,1.023,0,0,1,1.019.968" transform="translate(-66.394 -39.527)"/>
      </g>
    </g>
    <path id="Trazado_212183" data-name="Trazado 212183" d="M39.6,0,0,68.6l39.6,68.6h79.21l39.6-68.6L118.815,0Z" transform="translate(409 2735.802)" fill="#ff6e33"/>
    <path id="Trazado_730077" data-name="Trazado 730077" d="M9.621,12.031a1.33,1.33,0,0,0-.457-1.055,4.592,4.592,0,0,0-1.605-.75,9.124,9.124,0,0,1-2.988-1.4,2.646,2.646,0,0,1-1.02-2.2A2.761,2.761,0,0,1,4.7,4.348a4.654,4.654,0,0,1,2.93-.887,4.621,4.621,0,0,1,3.043.953,2.982,2.982,0,0,1,1.113,2.5l-.016.047H9.559a1.657,1.657,0,0,0-.516-1.309A2.106,2.106,0,0,0,7.6,5.2a1.91,1.91,0,0,0-1.3.406,1.323,1.323,0,0,0-.461,1.039,1.135,1.135,0,0,0,.5.949,6.689,6.689,0,0,0,1.727.785,7.429,7.429,0,0,1,2.859,1.387,2.841,2.841,0,0,1,.984,2.254,2.713,2.713,0,0,1-1.141,2.3,4.952,4.952,0,0,1-3.016.844,5.388,5.388,0,0,1-3.152-.914,3.015,3.015,0,0,1-1.277-2.727l.016-.047H5.543a1.79,1.79,0,0,0,.594,1.484,2.5,2.5,0,0,0,1.609.477,2.2,2.2,0,0,0,1.395-.383A1.242,1.242,0,0,0,9.621,12.031Zm7.453,3.133A3.8,3.8,0,0,1,14.121,14a4.252,4.252,0,0,1-1.062-2.988V10.7A4.628,4.628,0,0,1,14.09,7.594a3.506,3.506,0,0,1,2.836-1.2,3.282,3.282,0,0,1,2.613,1.043,4.122,4.122,0,0,1,.91,2.809v1.18H15.41l-.023.047a2.284,2.284,0,0,0,.527,1.406,1.766,1.766,0,0,0,1.4.539,4.692,4.692,0,0,0,1.3-.156,5.307,5.307,0,0,0,1.105-.477l.617,1.406a4.234,4.234,0,0,1-1.375.7A6.1,6.1,0,0,1,17.074,15.164Zm-.148-7.016a1.267,1.267,0,0,0-1.059.473,2.371,2.371,0,0,0-.449,1.254l.016.039h2.781V9.742a1.974,1.974,0,0,0-.3-1.168A1.127,1.127,0,0,0,16.926,8.148Zm4.516,2.7a5.474,5.474,0,0,1,.867-3.227,2.813,2.813,0,0,1,2.438-1.227,2.4,2.4,0,0,1,1.25.32,2.806,2.806,0,0,1,.922.914l.18-1.078h1.961v8.414a3.142,3.142,0,0,1-1.078,2.551,4.552,4.552,0,0,1-3.008.9,5.73,5.73,0,0,1-1.359-.176,6.313,6.313,0,0,1-1.328-.48l.383-1.7a5.235,5.235,0,0,0,1.082.379,5.362,5.362,0,0,0,1.207.129,2.042,2.042,0,0,0,1.379-.391,1.546,1.546,0,0,0,.441-1.219v-.766a2.552,2.552,0,0,1-.883.727,2.6,2.6,0,0,1-1.164.25,2.869,2.869,0,0,1-2.422-1.141,4.855,4.855,0,0,1-.867-3.016Zm2.281.164a3.473,3.473,0,0,0,.371,1.746,1.3,1.3,0,0,0,1.215.637A1.883,1.883,0,0,0,26.2,13.2a1.462,1.462,0,0,0,.582-.559V8.977a1.559,1.559,0,0,0-.582-.6,1.706,1.706,0,0,0-.871-.211,1.279,1.279,0,0,0-1.219.742,4.231,4.231,0,0,0-.383,1.938ZM35.988,13.75A2.87,2.87,0,0,1,35,14.8a2.63,2.63,0,0,1-1.4.367,2.57,2.57,0,0,1-2.09-.906,4.347,4.347,0,0,1-.754-2.812v-4.9h2.273v4.914a2.729,2.729,0,0,0,.3,1.52,1.081,1.081,0,0,0,.934.41,2.273,2.273,0,0,0,.938-.176,1.58,1.58,0,0,0,.641-.52V6.547h2.281V15H36.23ZM42.238,15H39.957V6.547h2.281Zm0-10.477H39.957V2.813h2.281ZM46.23,6.547l.094,1.117a2.84,2.84,0,0,1,1.02-.941,2.932,2.932,0,0,1,1.418-.332,2.582,2.582,0,0,1,1.391.359,2.217,2.217,0,0,1,.875,1.086,2.93,2.93,0,0,1,1.016-1.062,2.756,2.756,0,0,1,1.469-.383,2.408,2.408,0,0,1,1.973.887,4.233,4.233,0,0,1,.723,2.707V15H53.926V9.977a2.369,2.369,0,0,0-.312-1.414,1.109,1.109,0,0,0-.93-.4,1.592,1.592,0,0,0-.84.215,1.565,1.565,0,0,0-.566.6q0,.148.008.254t.008.215V15H49.02V9.977a2.376,2.376,0,0,0-.312-1.4,1.1,1.1,0,0,0-.937-.41,1.769,1.769,0,0,0-.809.176,1.551,1.551,0,0,0-.574.5V15H44.113V6.547ZM60.355,15H58.074V6.547h2.281Zm0-10.477H58.074V2.813h2.281Zm5.539,10.641A3.8,3.8,0,0,1,62.941,14a4.252,4.252,0,0,1-1.062-2.988V10.7A4.628,4.628,0,0,1,62.91,7.594a3.506,3.506,0,0,1,2.836-1.2,3.282,3.282,0,0,1,2.613,1.043,4.122,4.122,0,0,1,.91,2.809v1.18H64.23l-.023.047a2.284,2.284,0,0,0,.527,1.406,1.766,1.766,0,0,0,1.4.539,4.692,4.692,0,0,0,1.3-.156,5.307,5.307,0,0,0,1.105-.477l.617,1.406a4.234,4.234,0,0,1-1.375.7A6.1,6.1,0,0,1,65.895,15.164Zm-.148-7.016a1.267,1.267,0,0,0-1.059.473,2.371,2.371,0,0,0-.449,1.254l.016.039h2.781V9.742a1.974,1.974,0,0,0-.3-1.168A1.127,1.127,0,0,0,65.746,8.148Zm6.938-1.6.1,1.211A3.092,3.092,0,0,1,73.824,6.75a2.7,2.7,0,0,1,1.383-.359,2.513,2.513,0,0,1,2,.824,3.908,3.908,0,0,1,.719,2.605V15H75.637V9.828a2.024,2.024,0,0,0-.316-1.285,1.166,1.166,0,0,0-.949-.379,1.992,1.992,0,0,0-.895.191,1.746,1.746,0,0,0-.637.527V15H70.559V6.547Zm9.68-2.07v2.07h1.43v1.6h-1.43v4.3a.982.982,0,0,0,.207.7.727.727,0,0,0,.543.211,2.178,2.178,0,0,0,.313-.02,2.632,2.632,0,0,0,.3-.066l.188,1.648a4.618,4.618,0,0,1-.668.176,3.982,3.982,0,0,1-.707.059,2.431,2.431,0,0,1-1.816-.648,2.843,2.843,0,0,1-.637-2.055V8.148H78.855v-1.6H80.09V4.477ZM84.848,10.7A4.536,4.536,0,0,1,85.9,7.6a3.676,3.676,0,0,1,2.922-1.207,3.715,3.715,0,0,1,2.938,1.2,4.512,4.512,0,0,1,1.063,3.1v.164a4.519,4.519,0,0,1-1.059,3.105,4.178,4.178,0,0,1-5.859,0,4.519,4.519,0,0,1-1.059-3.105Zm2.273.164a3.677,3.677,0,0,0,.406,1.855,1.561,1.561,0,0,0,2.605,0,3.653,3.653,0,0,0,.41-1.852V10.7a3.616,3.616,0,0,0-.414-1.836,1.4,1.4,0,0,0-1.3-.711,1.384,1.384,0,0,0-1.293.715,3.648,3.648,0,0,0-.41,1.832ZM11.82,28.844a5.493,5.493,0,0,1,.863-3.227,2.8,2.8,0,0,1,2.434-1.227,2.367,2.367,0,0,1,1.141.273,2.744,2.744,0,0,1,.891.781V20.813h2.289V33H17.492l-.2-1.039a2.826,2.826,0,0,1-.945.895,2.5,2.5,0,0,1-1.25.309,2.858,2.858,0,0,1-2.418-1.141,4.871,4.871,0,0,1-.863-3.016Zm2.273.164a3.443,3.443,0,0,0,.375,1.746,1.306,1.306,0,0,0,1.219.637,1.775,1.775,0,0,0,.859-.2,1.589,1.589,0,0,0,.6-.582v-3.6a1.756,1.756,0,0,0-.6-.621,1.589,1.589,0,0,0-.848-.223,1.287,1.287,0,0,0-1.223.742,4.194,4.194,0,0,0-.387,1.938Zm10.773,4.156A3.8,3.8,0,0,1,21.914,32a4.252,4.252,0,0,1-1.062-2.988V28.7a4.628,4.628,0,0,1,1.031-3.109,3.506,3.506,0,0,1,2.836-1.2,3.282,3.282,0,0,1,2.613,1.043,4.122,4.122,0,0,1,.91,2.809v1.18H23.2l-.023.047a2.284,2.284,0,0,0,.527,1.406,1.766,1.766,0,0,0,1.4.539,4.692,4.692,0,0,0,1.3-.156,5.307,5.307,0,0,0,1.105-.477l.617,1.406a4.234,4.234,0,0,1-1.375.7A6.1,6.1,0,0,1,24.867,33.164Zm-.148-7.016a1.267,1.267,0,0,0-1.059.473,2.371,2.371,0,0,0-.449,1.254l.016.039h2.781v-.172a1.974,1.974,0,0,0-.3-1.168A1.127,1.127,0,0,0,24.719,26.148ZM38.539,33a4.8,4.8,0,0,1-.215-.609,4.239,4.239,0,0,1-.129-.656,3.127,3.127,0,0,1-.93,1.023,2.33,2.33,0,0,1-1.375.406,2.855,2.855,0,0,1-2.047-.684,2.449,2.449,0,0,1-.719-1.863,2.229,2.229,0,0,1,.957-1.926,4.78,4.78,0,0,1,2.793-.684h1.281v-.672a1.315,1.315,0,0,0-.32-.945,1.257,1.257,0,0,0-.953-.336,1.239,1.239,0,0,0-.855.27.941.941,0,0,0-.3.738h-2.2l-.016-.047a2.144,2.144,0,0,1,.934-1.848,4.055,4.055,0,0,1,2.582-.777,3.784,3.784,0,0,1,2.465.766,2.667,2.667,0,0,1,.941,2.2v3.492a6.605,6.605,0,0,0,.09,1.117A5.606,5.606,0,0,0,40.813,33Zm-2.086-1.523a1.944,1.944,0,0,0,1.063-.3,1.6,1.6,0,0,0,.641-.687V29.3H36.875a1.519,1.519,0,0,0-1.1.359,1.181,1.181,0,0,0-.371.883.881.881,0,0,0,.277.684A1.1,1.1,0,0,0,36.453,31.477Zm9.227-.062a1.27,1.27,0,0,0,.945-.355,1.291,1.291,0,0,0,.352-.949h2.078l.016.047a2.645,2.645,0,0,1-.953,2.145,3.564,3.564,0,0,1-2.437.863,3.6,3.6,0,0,1-2.9-1.2A4.558,4.558,0,0,1,41.758,28.9v-.234a4.588,4.588,0,0,1,1.02-3.066,3.57,3.57,0,0,1,2.887-1.207,3.486,3.486,0,0,1,2.492.891,2.976,2.976,0,0,1,.914,2.344l-.016.047H46.977a1.687,1.687,0,0,0-.348-1.09,1.168,1.168,0,0,0-.965-.434,1.3,1.3,0,0,0-1.254.707,3.878,3.878,0,0,0-.371,1.809V28.9a3.863,3.863,0,0,0,.371,1.82A1.32,1.32,0,0,0,45.68,31.414Zm7.453-8.937v2.07h1.43v1.6h-1.43v4.3a.982.982,0,0,0,.207.7.727.727,0,0,0,.543.211,2.178,2.178,0,0,0,.313-.02,2.632,2.632,0,0,0,.3-.066l.188,1.648a4.618,4.618,0,0,1-.668.176,3.982,3.982,0,0,1-.707.059,2.431,2.431,0,0,1-1.816-.648,2.843,2.843,0,0,1-.637-2.055V26.148H49.625v-1.6h1.234v-2.07ZM58.367,33H56.086V24.547h2.281Zm0-10.477H56.086V20.813h2.281Zm4.93,7.328.148.781h.047l.156-.781,1.391-5.3h2.383L64.547,33h-2.18l-2.875-8.453h2.383ZM67.945,28.7A4.536,4.536,0,0,1,69,25.6a3.676,3.676,0,0,1,2.922-1.207,3.715,3.715,0,0,1,2.938,1.2,4.512,4.512,0,0,1,1.063,3.1v.164a4.519,4.519,0,0,1-1.059,3.105,4.178,4.178,0,0,1-5.859,0,4.519,4.519,0,0,1-1.059-3.105Zm2.273.164a3.677,3.677,0,0,0,.406,1.855,1.561,1.561,0,0,0,2.605,0,3.653,3.653,0,0,0,.41-1.852V28.7a3.616,3.616,0,0,0-.414-1.836,1.4,1.4,0,0,0-1.3-.711,1.384,1.384,0,0,0-1.293.715,3.648,3.648,0,0,0-.41,1.832Zm11.68,1.8a.787.787,0,0,0-.363-.645,3.69,3.69,0,0,0-1.348-.473,5.375,5.375,0,0,1-2.254-.9,1.962,1.962,0,0,1-.77-1.633,2.329,2.329,0,0,1,.922-1.852,3.717,3.717,0,0,1,2.453-.766,4.011,4.011,0,0,1,2.566.766,2.237,2.237,0,0,1,.926,1.906l-.016.047h-2.2a1.106,1.106,0,0,0-.328-.828,1.534,1.534,0,0,0-1.812-.047.85.85,0,0,0-.32.672.759.759,0,0,0,.332.637,3.7,3.7,0,0,0,1.348.441,5.484,5.484,0,0,1,2.316.918,2.014,2.014,0,0,1,.762,1.668,2.231,2.231,0,0,1-.977,1.867,4.215,4.215,0,0,1-2.578.727,3.918,3.918,0,0,1-2.668-.855,2.392,2.392,0,0,1-.934-1.949l.016-.047h2.086a1.186,1.186,0,0,0,.445.984,1.838,1.838,0,0,0,1.1.3,1.567,1.567,0,0,0,.965-.254A.824.824,0,0,0,81.9,30.656Z" transform="translate(440 2812.247)"/>
    <g id="Grupo_985727" data-name="Grupo 985727" transform="translate(463 2745.38)">
      <g id="Grupo_985726" data-name="Grupo 985726" clip-path="url(#clip-path-6)">
        <path id="Trazado_212206" data-name="Trazado 212206" d="M.025,15.717a.789.789,0,0,0,.781.772.792.792,0,0,0,.892-.645,2.465,2.465,0,0,0,.043-.628c0-4.321.009-8.642-.008-12.963,0-.423.087-.536.527-.535q14.547.022,29.093,0c.415,0,.546.075.541.523-.027,2.3-.017,4.609-.011,6.913a1.817,1.817,0,0,0,2.031,2.021c2.324,0,4.647.014,6.97-.011.443,0,.539.12.529.542-.031,1.209-.006,2.42-.014,3.629a.893.893,0,0,0,.483.9c.622.308,1.237-.142,1.244-.929.012-1.4-.025-2.8.014-4.205a2.46,2.46,0,0,0-.812-1.936Q38.108,5,33.931.783A2.823,2.823,0,0,0,32.767,0H1.182A1.92,1.92,0,0,0,0,2.007C.034,6.4.015,10.8.015,15.2a4.712,4.712,0,0,0,.009.518M33.6,3.106l6.344,6.346H35.5c-.519,0-1.037-.008-1.556,0-.233.005-.345-.051-.344-.316.009-2.026.005-4.053.005-6.033" transform="translate(0)"/>
        <path id="Trazado_212207" data-name="Trazado 212207" d="M74.911,26.614q-.461-.235-.928-.457a2.31,2.31,0,0,0-3.323,1.129q-8.469,17.185-16.93,34.372a1.877,1.877,0,0,0-.2,1c.04.517.05,1.036.073,1.554h-.013c.032.556.082,1.112.091,1.669a1.239,1.239,0,0,0,.671,1.236,1.289,1.289,0,0,0,1.4-.19q1.289-.919,2.6-1.813a2.339,2.339,0,0,0,.8-.952c1.02-2.1,2.06-4.194,3.093-6.289.483-.979.974-1.954,1.446-2.939a.882.882,0,0,0-.43-1.29c-.461-.168-.865.033-1.146.6-.816,1.647-1.632,3.295-2.432,4.95-.146.3-.267.4-.59.2a9.315,9.315,0,0,0-1.39-.685c-.4-.156-.452-.3-.253-.7,1.651-3.306,3.274-6.626,4.905-9.942q3.183-6.469,6.359-12.942c.182-.373.328-.472.709-.237a9.445,9.445,0,0,0,1.34.656c.354.148.428.3.239.67-.885,1.74-1.737,3.5-2.6,5.25q-2.247,4.561-4.49,9.122c-.3.615-.186,1.083.309,1.33s.929.037,1.243-.573c.035-.068.069-.137.1-.206l5.278-10.72q2.588-5.256,5.173-10.515a2.311,2.311,0,0,0-1.1-3.29M55.36,65.09V62.938l1.812.89L55.36,65.09M58.448,61a1.822,1.822,0,0,1,.252.19c-.207.4-.375.757-.583,1.095-.072.117-.209-.016-.3-.06-.549-.262-1.083-.557-1.642-.8-.307-.132-.271-.269-.153-.516.428-.9.421-.9,1.3-.47.375.185.752.367,1.124.558M72,34.129c-.061.111-.179.03-.256-.008-.6-.293-1.2-.6-1.8-.885-.19-.089-.186-.165-.118-.346.394-1.047.4-1.056,1.409-.559.344.169.682.347,1.028.512.12.057.234.107.275.23-.188.376-.351.722-.535,1.057m2.571-5.278a2.855,2.855,0,0,1-.124.335c-.307.635-.633,1.261-.925,1.9-.135.3-.268.342-.558.18-.5-.279-1.017-.524-1.539-.755-.262-.116-.346-.217-.191-.5.353-.654.674-1.325,1-2a.634.634,0,0,1,.984-.324c.323.164.65.32.972.485a.623.623,0,0,1,.385.675" transform="translate(-25.317 -12.226)"/>
        <path id="Trazado_212208" data-name="Trazado 212208" d="M43.081,57.022a.788.788,0,0,0-.807-.613.776.776,0,0,0-.8.544,2.2,2.2,0,0,0-.059.681c0,5.187-.012,10.373.012,15.56,0,.548-.115.687-.677.686q-19.162-.028-38.323,0c-.537,0-.689-.1-.688-.669q.03-18.412.013-36.824a2.875,2.875,0,0,0-.046-.685.794.794,0,0,0-.89-.652.8.8,0,0,0-.781.781c-.014.152-.008.307-.008.461q0,18.672,0,37.343c0,1.422.55,1.962,1.995,1.962H41.152c1.419,0,1.987-.567,1.987-1.984q0-7.981,0-15.963a2.4,2.4,0,0,0-.056-.625" transform="translate(-0.012 -16.575)"/>
        <path id="Trazado_212209" data-name="Trazado 212209" d="M7.88,62.352a1.652,1.652,0,0,0,1.7,1.721q2.274.039,4.55,0A1.686,1.686,0,0,0,15.848,62.3q.017-2.217,0-4.434a1.62,1.62,0,0,0-1.6-1.753c-1.591-.05-3.186-.048-4.777,0A1.588,1.588,0,0,0,7.88,57.8c-.018.748,0,1.5,0,2.246,0,.768-.015,1.536,0,2.3M9.595,58.17c0-.273.084-.366.361-.363q1.926.017,3.851,0c.257,0,.323.095.321.337-.009,1.284-.015,2.568,0,3.851.005.337-.146.366-.414.36-.632-.014-1.265,0-1.9,0-.613,0-1.227-.015-1.839.007-.308.011-.39-.1-.387-.394q.019-1.9,0-3.794" transform="translate(-3.723 -26.523)"/>
        <path id="Trazado_212210" data-name="Trazado 212210" d="M7.879,42.595a1.614,1.614,0,0,0,1.633,1.718q2.359.063,4.721-.005a1.631,1.631,0,0,0,1.615-1.742q.017-2.217,0-4.434a1.675,1.675,0,0,0-1.7-1.786q-2.3-.043-4.607,0a1.63,1.63,0,0,0-1.659,1.7c-.02.767,0,1.536,0,2.3,0,.748-.015,1.5,0,2.246m1.715-4.184c0-.277.086-.36.362-.358,1.266.013,2.532.016,3.8,0,.319,0,.378.112.375.4q-.019,1.9,0,3.8c0,.274-.075.37-.355.363-.632-.018-1.266-.006-1.9-.006-.614,0-1.228-.012-1.841.005-.3.008-.448-.043-.443-.4.022-1.266.015-2.532,0-3.8" transform="translate(-3.723 -17.18)"/>
        <path id="Trazado_212211" data-name="Trazado 212211" d="M7.884,82.159a1.639,1.639,0,0,0,1.693,1.659q2.275.021,4.55,0a1.668,1.668,0,0,0,1.719-1.706q.027-2.275,0-4.55a1.645,1.645,0,0,0-1.708-1.706q-2.274-.024-4.55,0a1.623,1.623,0,0,0-1.71,1.7c-.018.748,0,1.5,0,2.246h0c0,.787-.019,1.575,0,2.362m1.71-4.2c0-.294.067-.4.38-.392.632.024,1.266.007,1.9.007s1.266.012,1.9-.006c.272-.008.362.069.359.351-.015,1.285-.012,2.571,0,3.856,0,.246-.061.331-.319.328q-1.928-.019-3.856,0c-.266,0-.364-.06-.36-.346q.022-1.9,0-3.8" transform="translate(-3.723 -35.873)"/>
        <path id="Trazado_212212" data-name="Trazado 212212" d="M15.841,18.279a1.638,1.638,0,0,0-1.649-1.654q-2.331-.038-4.665,0A1.61,1.61,0,0,0,7.883,18.27q-.036,2.331,0,4.665a1.617,1.617,0,0,0,1.694,1.652c.748.014,1.5,0,2.246,0h2.246c.038,0,.077,0,.115,0a1.651,1.651,0,0,0,1.656-1.644q.037-2.332,0-4.665m-2.066,4.588c-.632-.019-1.265-.006-1.9-.006-.652,0-1.3-.01-1.955,0-.247.005-.331-.066-.329-.322q.017-1.927,0-3.853c0-.279.08-.355.355-.352,1.284.013,2.569.011,3.853,0,.244,0,.331.059.328.318q-.019,1.927,0,3.853c0,.275-.075.364-.353.356" transform="translate(-3.72 -7.854)"/>
        <path id="Trazado_212213" data-name="Trazado 212213" d="M45.617,46.908a.777.777,0,0,0-.573-.883,2.093,2.093,0,0,0-.622-.063q-8.894,0-17.786,0a2.425,2.425,0,0,0-.515.027.847.847,0,0,0-.663,1.041.913.913,0,0,0,1.013.659c3.032-.01,6.063,0,9.095,0h8.807a3.187,3.187,0,0,0,.517-.012.793.793,0,0,0,.728-.763" transform="translate(-12.025 -21.738)"/>
        <path id="Trazado_212214" data-name="Trazado 212214" d="M26.766,38.642a4.265,4.265,0,0,0-.575.019.787.787,0,0,0-.739.813.775.775,0,0,0,.638.839,2.711,2.711,0,0,0,.628.056q8.817,0,17.635,0a2.426,2.426,0,0,0,.738-.082.843.843,0,0,0-.115-1.612,3.269,3.269,0,0,0-.631-.031q-4.38,0-8.76,0H26.766" transform="translate(-12.037 -18.277)"/>
        <path id="Trazado_212215" data-name="Trazado 212215" d="M43.913,67.412a.827.827,0,0,0,.9-.942c-.05-.539-.413-.779-1.2-.779q-8.471,0-16.941,0a2.138,2.138,0,0,0-.68.079.775.775,0,0,0-.548.849.785.785,0,0,0,.664.763,3.227,3.227,0,0,0,.631.034q4.177,0,8.355,0h5.877c.98,0,1.959.013,2.939-.007" transform="translate(-12.034 -31.07)"/>
        <path id="Trazado_212216" data-name="Trazado 212216" d="M26.412,60.1c.1,0,.192,0,.288,0q7.837,0,15.675,0a1.854,1.854,0,0,0,.684-.06.844.844,0,0,0,.5-1.165.96.96,0,0,0-1.008-.506q-4,.01-8.01,0H31.087c-1.556,0-3.112,0-4.668,0a.874.874,0,0,0-.983.823c-.019.522.362.875.976.9" transform="translate(-12.031 -27.605)"/>
        <path id="Trazado_212217" data-name="Trazado 212217" d="M40.87,79.81a.836.836,0,0,0,.805-.825.85.85,0,0,0-.8-.889,4.586,4.586,0,0,0-.518-.007H26.821a5.509,5.509,0,0,0-.576.007.846.846,0,0,0-.8.884.832.832,0,0,0,.8.83,3.617,3.617,0,0,0,.46.008H40.41a3.833,3.833,0,0,0,.461-.008" transform="translate(-12.033 -36.932)"/>
        <path id="Trazado_212218" data-name="Trazado 212218" d="M26.53,27.967q6.655,0,13.309,0c.713,0,1.129-.328,1.129-.87s-.411-.858-1.13-.859q-3.313,0-6.626,0-3.342,0-6.683,0c-.685,0-1.075.3-1.093.831-.018.551.392.9,1.093.9" transform="translate(-12.031 -12.41)"/>
        <path id="Trazado_212219" data-name="Trazado 212219" d="M26.13,20.578a3.251,3.251,0,0,0,.574.023q3.225,0,6.451,0h3.4c1.171,0,2.342.008,3.513-.006a.853.853,0,0,0,.9-.845.891.891,0,0,0-.84-.863,1.971,1.971,0,0,0-.23-.005q-6.709,0-13.419,0a1.376,1.376,0,0,0-.506.081.844.844,0,0,0,.159,1.612" transform="translate(-12.033 -8.931)"/>
        <path id="Trazado_212220" data-name="Trazado 212220" d="M38.355,85.481a3.4,3.4,0,0,0-.631-.033q-2.735,0-5.47,0-2.3,0-4.606,0c-.48,0-.961-.012-1.438.022a.772.772,0,0,0-.759.791.789.789,0,0,0,.67.872,2.319,2.319,0,0,0,.513.042q5.614,0,11.228,0a1.839,1.839,0,0,0,.621-.081.841.841,0,0,0-.129-1.611" transform="translate(-12.037 -40.414)"/>
      </g>
    </g>
    <path id="Trazado_212184" data-name="Trazado 212184" d="M39.6,0,0,68.6l39.6,68.6h79.21l39.6-68.6L118.815,0Z" transform="translate(401 2547.567)" fill="#ff6e33"/>
    <path id="Trazado_730082" data-name="Trazado 730082" d="M13.223,12.547H9.535L8.77,15H6.387L10.223,3.625h2.336L16.379,15H14ZM10.1,10.758h2.57L11.41,6.75h-.047Zm10.734,2.656a1.27,1.27,0,0,0,.945-.355,1.291,1.291,0,0,0,.352-.949h2.078l.016.047A2.645,2.645,0,0,1,23.27,14.3a3.564,3.564,0,0,1-2.437.863,3.6,3.6,0,0,1-2.9-1.2A4.558,4.558,0,0,1,16.91,10.9v-.234A4.588,4.588,0,0,1,17.93,7.6a3.57,3.57,0,0,1,2.887-1.207,3.486,3.486,0,0,1,2.492.891,2.976,2.976,0,0,1,.914,2.344l-.016.047H22.129a1.687,1.687,0,0,0-.348-1.09,1.168,1.168,0,0,0-.965-.434,1.3,1.3,0,0,0-1.254.707,3.878,3.878,0,0,0-.371,1.809V10.9a3.863,3.863,0,0,0,.371,1.82A1.32,1.32,0,0,0,20.832,13.414Zm7.453-8.937v2.07h1.43v1.6h-1.43v4.3a.982.982,0,0,0,.207.7.727.727,0,0,0,.543.211,2.178,2.178,0,0,0,.313-.02,2.632,2.632,0,0,0,.3-.066l.188,1.648a4.618,4.618,0,0,1-.668.176,3.982,3.982,0,0,1-.707.059,2.431,2.431,0,0,1-1.816-.648,2.843,2.843,0,0,1-.637-2.055V8.148H24.777v-1.6h1.234V4.477ZM33.52,15H31.238V6.547H33.52Zm0-10.477H31.238V2.813H33.52Zm4.93,7.328.148.781h.047l.156-.781,1.391-5.3h2.383L39.7,15H37.52L34.645,6.547h2.383ZM48.434,15a4.8,4.8,0,0,1-.215-.609,4.239,4.239,0,0,1-.129-.656,3.127,3.127,0,0,1-.93,1.023,2.33,2.33,0,0,1-1.375.406,2.855,2.855,0,0,1-2.047-.684,2.449,2.449,0,0,1-.719-1.863,2.229,2.229,0,0,1,.957-1.926,4.78,4.78,0,0,1,2.793-.684h1.281V9.336a1.315,1.315,0,0,0-.32-.945,1.257,1.257,0,0,0-.953-.336,1.239,1.239,0,0,0-.855.27.941.941,0,0,0-.3.738h-2.2l-.016-.047a2.144,2.144,0,0,1,.934-1.848,4.055,4.055,0,0,1,2.582-.777,3.784,3.784,0,0,1,2.465.766,2.667,2.667,0,0,1,.941,2.2v3.492a6.605,6.605,0,0,0,.09,1.117A5.606,5.606,0,0,0,50.707,15Zm-2.086-1.523a1.944,1.944,0,0,0,1.063-.3,1.6,1.6,0,0,0,.641-.687V11.3H46.77a1.519,1.519,0,0,0-1.1.359,1.181,1.181,0,0,0-.371.883.881.881,0,0,0,.277.684A1.1,1.1,0,0,0,46.348,13.477Zm9.227-.062a1.27,1.27,0,0,0,.945-.355,1.291,1.291,0,0,0,.352-.949h2.078l.016.047a2.645,2.645,0,0,1-.953,2.145,3.564,3.564,0,0,1-2.437.863,3.6,3.6,0,0,1-2.9-1.2A4.558,4.558,0,0,1,51.652,10.9v-.234A4.588,4.588,0,0,1,52.672,7.6a3.57,3.57,0,0,1,2.887-1.207,3.486,3.486,0,0,1,2.492.891,2.976,2.976,0,0,1,.914,2.344l-.016.047H56.871a1.687,1.687,0,0,0-.348-1.09,1.168,1.168,0,0,0-.965-.434,1.3,1.3,0,0,0-1.254.707,3.878,3.878,0,0,0-.371,1.809V10.9a3.863,3.863,0,0,0,.371,1.82A1.32,1.32,0,0,0,55.574,13.414ZM62.691,15H60.41V6.547h2.281Zm0-10.477H60.41V2.813h2.281ZM64.215,10.7A4.536,4.536,0,0,1,65.27,7.6a3.676,3.676,0,0,1,2.922-1.207,3.715,3.715,0,0,1,2.938,1.2,4.512,4.512,0,0,1,1.063,3.1v.164a4.519,4.519,0,0,1-1.059,3.105,4.178,4.178,0,0,1-5.859,0,4.519,4.519,0,0,1-1.059-3.105Zm2.273.164a3.677,3.677,0,0,0,.406,1.855,1.561,1.561,0,0,0,2.605,0,3.653,3.653,0,0,0,.41-1.852V10.7A3.616,3.616,0,0,0,69.5,8.859a1.4,1.4,0,0,0-1.3-.711,1.384,1.384,0,0,0-1.293.715,3.648,3.648,0,0,0-.41,1.832Zm2.164-7.922h2.539l.016.047L69.043,5.016H67.1Zm7.031,3.609.1,1.211A3.092,3.092,0,0,1,76.824,6.75a2.7,2.7,0,0,1,1.383-.359,2.513,2.513,0,0,1,2,.824,3.908,3.908,0,0,1,.719,2.605V15H78.637V9.828a2.024,2.024,0,0,0-.316-1.285,1.166,1.166,0,0,0-.949-.379,1.992,1.992,0,0,0-.895.191,1.746,1.746,0,0,0-.637.527V15H73.559V6.547ZM5.539,28.844A5.493,5.493,0,0,1,6.4,25.617a2.8,2.8,0,0,1,2.434-1.227,2.367,2.367,0,0,1,1.141.273,2.744,2.744,0,0,1,.891.781V20.813h2.289V33H11.211l-.2-1.039a2.826,2.826,0,0,1-.945.895,2.5,2.5,0,0,1-1.25.309A2.858,2.858,0,0,1,6.4,32.023a4.871,4.871,0,0,1-.863-3.016Zm2.273.164a3.443,3.443,0,0,0,.375,1.746,1.306,1.306,0,0,0,1.219.637,1.775,1.775,0,0,0,.859-.2,1.589,1.589,0,0,0,.6-.582v-3.6a1.756,1.756,0,0,0-.6-.621,1.589,1.589,0,0,0-.848-.223,1.287,1.287,0,0,0-1.223.742,4.194,4.194,0,0,0-.387,1.938Zm10.773,4.156A3.8,3.8,0,0,1,15.633,32a4.252,4.252,0,0,1-1.062-2.988V28.7A4.628,4.628,0,0,1,15.6,25.594a3.506,3.506,0,0,1,2.836-1.2,3.282,3.282,0,0,1,2.613,1.043,4.122,4.122,0,0,1,.91,2.809v1.18H16.922l-.023.047a2.284,2.284,0,0,0,.527,1.406,1.766,1.766,0,0,0,1.4.539,4.692,4.692,0,0,0,1.3-.156,5.307,5.307,0,0,0,1.105-.477l.617,1.406a4.234,4.234,0,0,1-1.375.7A6.1,6.1,0,0,1,18.586,33.164Zm-.148-7.016a1.267,1.267,0,0,0-1.059.473,2.371,2.371,0,0,0-.449,1.254l.016.039h2.781v-.172a1.974,1.974,0,0,0-.3-1.168A1.127,1.127,0,0,0,18.438,26.148Zm12.5,7.016A3.8,3.8,0,0,1,27.984,32a4.252,4.252,0,0,1-1.062-2.988V28.7a4.628,4.628,0,0,1,1.031-3.109,3.506,3.506,0,0,1,2.836-1.2A3.282,3.282,0,0,1,33.4,25.434a4.122,4.122,0,0,1,.91,2.809v1.18H29.273l-.023.047a2.284,2.284,0,0,0,.527,1.406,1.766,1.766,0,0,0,1.4.539,4.692,4.692,0,0,0,1.3-.156,5.307,5.307,0,0,0,1.105-.477l.617,1.406a4.234,4.234,0,0,1-1.375.7A6.1,6.1,0,0,1,30.938,33.164Zm-.148-7.016a1.267,1.267,0,0,0-1.059.473,2.371,2.371,0,0,0-.449,1.254l.016.039h2.781v-.172a1.974,1.974,0,0,0-.3-1.168A1.127,1.127,0,0,0,30.789,26.148Zm7.8,3.7.148.781h.047l.156-.781,1.391-5.3h2.383L39.844,33h-2.18l-2.875-8.453h2.383Zm8.68,3.313A3.8,3.8,0,0,1,44.32,32a4.252,4.252,0,0,1-1.062-2.988V28.7a4.628,4.628,0,0,1,1.031-3.109,3.506,3.506,0,0,1,2.836-1.2,3.282,3.282,0,0,1,2.613,1.043,4.122,4.122,0,0,1,.91,2.809v1.18H45.609l-.023.047a2.284,2.284,0,0,0,.527,1.406,1.766,1.766,0,0,0,1.4.539,4.692,4.692,0,0,0,1.3-.156,5.307,5.307,0,0,0,1.105-.477l.617,1.406a4.234,4.234,0,0,1-1.375.7A6.1,6.1,0,0,1,47.273,33.164Zm-.148-7.016a1.267,1.267,0,0,0-1.059.473,2.371,2.371,0,0,0-.449,1.254l.016.039h2.781v-.172a1.974,1.974,0,0,0-.3-1.168A1.127,1.127,0,0,0,47.125,26.148Zm6.938-1.6.1,1.211A3.092,3.092,0,0,1,55.2,24.75a2.7,2.7,0,0,1,1.383-.359,2.513,2.513,0,0,1,2,.824A3.908,3.908,0,0,1,59.3,27.82V33H57.016V27.828a2.024,2.024,0,0,0-.316-1.285,1.166,1.166,0,0,0-.949-.379,1.992,1.992,0,0,0-.895.191,1.746,1.746,0,0,0-.637.527V33H51.938V24.547Zm9.68-2.07v2.07h1.43v1.6h-1.43v4.3a.982.982,0,0,0,.207.7.727.727,0,0,0,.543.211,2.178,2.178,0,0,0,.313-.02,2.632,2.632,0,0,0,.3-.066L65.3,32.93a4.618,4.618,0,0,1-.668.176,3.982,3.982,0,0,1-.707.059,2.431,2.431,0,0,1-1.816-.648,2.843,2.843,0,0,1-.637-2.055V26.148H60.234v-1.6h1.234v-2.07ZM66.227,28.7a4.536,4.536,0,0,1,1.055-3.1A3.676,3.676,0,0,1,70.2,24.391a3.715,3.715,0,0,1,2.938,1.2A4.512,4.512,0,0,1,74.2,28.7v.164a4.519,4.519,0,0,1-1.059,3.105,4.178,4.178,0,0,1-5.859,0,4.519,4.519,0,0,1-1.059-3.105Zm2.273.164a3.677,3.677,0,0,0,.406,1.855,1.561,1.561,0,0,0,2.605,0,3.653,3.653,0,0,0,.41-1.852V28.7a3.616,3.616,0,0,0-.414-1.836,1.4,1.4,0,0,0-1.3-.711,1.384,1.384,0,0,0-1.293.715A3.648,3.648,0,0,0,68.5,28.7Zm11.68,1.8a.787.787,0,0,0-.363-.645,3.69,3.69,0,0,0-1.348-.473,5.375,5.375,0,0,1-2.254-.9,1.962,1.962,0,0,1-.77-1.633,2.329,2.329,0,0,1,.922-1.852,3.717,3.717,0,0,1,2.453-.766,4.011,4.011,0,0,1,2.566.766,2.237,2.237,0,0,1,.926,1.906l-.016.047h-2.2a1.106,1.106,0,0,0-.328-.828,1.534,1.534,0,0,0-1.812-.047.85.85,0,0,0-.32.672.759.759,0,0,0,.332.637,3.7,3.7,0,0,0,1.348.441,5.484,5.484,0,0,1,2.316.918,2.014,2.014,0,0,1,.762,1.668,2.231,2.231,0,0,1-.977,1.867,4.215,4.215,0,0,1-2.578.727,3.918,3.918,0,0,1-2.668-.855,2.392,2.392,0,0,1-.934-1.949l.016-.047h2.086a1.186,1.186,0,0,0,.445.984,1.838,1.838,0,0,0,1.1.3,1.567,1.567,0,0,0,.965-.254A.824.824,0,0,0,80.18,30.656Z" transform="translate(436 2627.802)"/>
    <g id="Grupo_985729" data-name="Grupo 985729" transform="translate(453 2565.567)">
      <g id="Grupo_985728" data-name="Grupo 985728" clip-path="url(#clip-path-7)">
        <path id="Trazado_212221" data-name="Trazado 212221" d="M38.5,0a12.075,12.075,0,0,1,1.316.423,5.318,5.318,0,0,1,3.416,5.041c.056,3.2.016,6.4.016,9.6v.62a12.82,12.82,0,0,1,9.181,4.868,12.643,12.643,0,0,1,2.77,7.283A12.988,12.988,0,0,1,45.089,41.17c0,1.052-.007,2.111.008,3.17a.824.824,0,0,0,.186.427,3.76,3.76,0,0,1,.736,2.268c.01,1.492.026,2.984-.006,4.475a3.673,3.673,0,0,1-7.233.952,6.407,6.407,0,0,1-.131-1.282c-.022-.5-.005-1-.005-1.465H23.292q-8.572,0-17.144,0c-3.344,0-5.227-1.451-6.084-4.7A.978.978,0,0,0,0,44.874V4.746c.038-.114.087-.226.113-.342A5.381,5.381,0,0,1,2.865.7,13.938,13.938,0,0,1,4.745,0ZM1.838,12.92v.515q0,15.209,0,30.418a3.712,3.712,0,0,0,3.985,4.021q14.748,0,29.495,0c.934,0,1.868-.035,2.8-.042.412,0,.551-.181.53-.6a3.714,3.714,0,0,1,.766-2.524.7.7,0,0,0,.147-.387c.012-1.058.007-2.118.007-3.169A12.945,12.945,0,0,1,29.452,28.088a12.569,12.569,0,0,1,2.592-7.294,12.844,12.844,0,0,1,9.348-5.116V12.92Zm40.44,26.663a11.05,11.05,0,1,0-10.993-11.1,11.08,11.08,0,0,0,10.993,11.1m-.927-28.561a.711.711,0,0,0,.053-.156c0-1.762.02-3.524.005-5.285a3.664,3.664,0,0,0-3.771-3.74q-15.988-.01-31.976,0a3.67,3.67,0,0,0-3.82,3.8c-.012,1.636,0,3.272,0,4.908,0,.153.021.306.033.471ZM40.49,49.235c0,.737-.014,1.474,0,2.211a1.844,1.844,0,1,0,3.682-.007q.029-2.183,0-4.368a1.846,1.846,0,1,0-3.683.007c-.014.719,0,1.438,0,2.157m.961-5.929h1.763V41.423H41.45Z"/>
        <path id="Trazado_212222" data-name="Trazado 212222" d="M15.618,48.232a6.468,6.468,0,1,1,8.758-9.5,6.518,6.518,0,0,1-.51,9.482c.245.122.485.23.714.358A6.2,6.2,0,0,1,28,54.059c.069,2.226.034,4.456.013,6.684a2.7,2.7,0,0,1-2.753,2.724q-5.5.022-11,0a2.7,2.7,0,0,1-2.783-2.748c-.022-2.192-.051-4.386.006-6.576a6.242,6.242,0,0,1,3.64-5.676c.157-.082.319-.156.486-.237M22.51,61.61V59.617c0-1.743-.005-3.486,0-5.228a.925.925,0,1,1,1.834.011c0,.161,0,.323,0,.485,0,1.887,0,3.773.006,5.659,0,.667.381,1.1.932,1.087a.935.935,0,0,0,.9-1.059c0-2.138.022-4.276-.008-6.414a4.411,4.411,0,0,0-3.783-4.381,34.056,34.056,0,0,0-4.355-.107,4.567,4.567,0,0,0-4.715,4.681c-.014,1.473,0,2.946,0,4.42,0,.647-.009,1.294.011,1.94a.9.9,0,0,0,.871.917.939.939,0,0,0,.945-.854,3.28,3.28,0,0,0,.009-.431c0-1.994,0-3.988.006-5.983a.917.917,0,1,1,1.828-.045C17,56.74,17,59.162,17,61.61ZM19.823,38.634a4.6,4.6,0,1,0,4.521,4.7,4.571,4.571,0,0,0-4.521-4.7" transform="translate(-6.868 -22.052)"/>
        <path id="Trazado_212223" data-name="Trazado 212223" d="M26.637,109.813q-6.981,0-13.961,0c-.69,0-1.056-.241-1.143-.737-.112-.639.314-1.1,1.055-1.1q3.531-.01,7.062-.005l20.753,0c.126,0,.252,0,.377,0,.686.013,1.083.356,1.078.932s-.393.9-1.1.9q-7.062,0-14.123,0" transform="translate(-6.901 -64.715)"/>
        <path id="Trazado_212224" data-name="Trazado 212224" d="M62.513,100.644c-1.312,0-2.624,0-3.935,0-.72,0-1.152-.351-1.154-.921s.432-.917,1.154-.917q3.936,0,7.871,0c.689,0,1.086.343,1.088.917s-.4.916-1.089.918c-1.312,0-2.624,0-3.935,0Z" transform="translate(-34.418 -59.219)"/>
        <path id="Trazado_212225" data-name="Trazado 212225" d="M61.143,89.616c.861,0,1.722-.006,2.583,0,.641.006,1.045.357,1.055.9.01.56-.405.939-1.074.941q-2.609.011-5.219,0a.951.951,0,0,1-1.061-.906c-.013-.552.412-.923,1.081-.928.879-.006,1.758,0,2.637,0Z" transform="translate(-34.419 -53.712)"/>
        <path id="Trazado_212226" data-name="Trazado 212226" d="M84.267,67.1c-.469-.415-.859-.729-1.213-1.08a.9.9,0,0,1-.1-1.376.916.916,0,0,1,1.379.064q.851.822,1.675,1.671a.933.933,0,0,1,0,1.464q-.841.87-1.711,1.711a.928.928,0,0,1-1.344.071.9.9,0,0,1,.058-1.377c.365-.367.764-.7,1.259-1.147" transform="translate(-49.543 -38.576)"/>
        <path id="Trazado_212227" data-name="Trazado 212227" d="M101.543,87.134c-.42.457-.745.841-1.1,1.192a.92.92,0,1,1-1.3-1.286c.561-.581,1.131-1.155,1.714-1.715a.91.91,0,0,1,1.387-.01q.9.856,1.752,1.754a.917.917,0,1,1-1.32,1.268c-.358-.351-.688-.731-1.128-1.2" transform="translate(-59.218 -50.945)"/>
        <path id="Trazado_212228" data-name="Trazado 212228" d="M101.561,49.853c.415-.468.732-.857,1.084-1.213a.911.911,0,0,1,1.381-.1.927.927,0,0,1-.077,1.385c-.55.568-1.109,1.129-1.678,1.677a.937.937,0,0,1-1.466-.026q-.829-.81-1.638-1.641a.925.925,0,0,1-.1-1.383.9.9,0,0,1,1.38.076c.355.354.677.742,1.111,1.222" transform="translate(-59.219 -28.932)"/>
        <path id="Trazado_212229" data-name="Trazado 212229" d="M121.53,67.133c.464.405.857.716,1.212,1.066a.9.9,0,0,1,.1,1.379.92.92,0,0,1-1.382-.069q-.85-.826-1.675-1.677a.929.929,0,0,1,.021-1.464q.806-.831,1.637-1.639a.927.927,0,1,1,1.277,1.316c-.342.341-.714.653-1.193,1.088" transform="translate(-71.589 -38.576)"/>
        <path id="Trazado_212230" data-name="Trazado 212230" d="M69.365,14.69q-2.207,0-4.415,0a2.763,2.763,0,1,1-.023-5.518q4.469-.013,8.939,0a2.761,2.761,0,1,1,.023,5.518c-1.508.014-3.015,0-4.523,0Zm-.021-1.846v0c1.473,0,2.947,0,4.42,0,.718,0,1.152-.362,1.138-.929-.013-.546-.442-.906-1.12-.907Q69.389,11,65,11.01c-.719,0-1.138.363-1.128.943.01.563.41.889,1.11.891,1.455,0,2.911,0,4.366,0" transform="translate(-37.17 -5.493)"/>
        <path id="Trazado_212231" data-name="Trazado 212231" d="M30.325,14.693a2.758,2.758,0,1,1,2.753-2.732,2.762,2.762,0,0,1-2.753,2.732m-.02-1.844a.893.893,0,0,0,.92-.909.909.909,0,0,0-1.818-.023.9.9,0,0,0,.9.931" transform="translate(-16.513 -5.5)"/>
        <path id="Trazado_212232" data-name="Trazado 212232" d="M11.947,14.7a2.759,2.759,0,1,1,2.747-2.728A2.727,2.727,0,0,1,11.947,14.7m.9-2.761a.92.92,0,0,0-.928-.913.95.95,0,0,0-.9.9.919.919,0,0,0,.915.926.886.886,0,0,0,.912-.914" transform="translate(-5.502 -5.503)"/>
      </g>
    </g>
    <path id="Trazado_734724" data-name="Trazado 734724" d="M7.854-8.415H5.011V0h-2V-8.415H.212V-9.953H7.854ZM13-1.094a2.511,2.511,0,0,1-.868.916A2.3,2.3,0,0,1,10.91.144,2.249,2.249,0,0,1,9.082-.649a3.8,3.8,0,0,1-.66-2.461V-7.4h1.989v4.3a2.388,2.388,0,0,0,.263,1.33.946.946,0,0,0,.817.359,1.989,1.989,0,0,0,.82-.154,1.383,1.383,0,0,0,.561-.455V-7.4h2V0H13.214ZM22.463-6.5a3.158,3.158,0,0,1,.974-.762,2.569,2.569,0,0,1,1.159-.27,1.941,1.941,0,0,1,1.678.776A3.2,3.2,0,0,1,26.6-4.389L25.942,0h-2l.663-4.4a1.928,1.928,0,0,0-.092-1.237.862.862,0,0,0-.783-.342,2,2,0,0,0-.81.157,1.867,1.867,0,0,0-.625.444L21.492,0h-2l1.6-10.664h2ZM31.924,0a3.241,3.241,0,0,1-.109-.537,4.038,4.038,0,0,1-.027-.578,3.4,3.4,0,0,1-.947.9,2.283,2.283,0,0,1-1.254.355,2.183,2.183,0,0,1-1.682-.6,1.849,1.849,0,0,1-.4-1.624,2.308,2.308,0,0,1,1.08-1.706,4.754,4.754,0,0,1,2.543-.578h1.121l.089-.588a1.034,1.034,0,0,0-.154-.837.984.984,0,0,0-.8-.284,1.247,1.247,0,0,0-.776.236.93.93,0,0,0-.366.646H28.321l-.007-.041A2.251,2.251,0,0,1,29.371-6.87a4.037,4.037,0,0,1,2.362-.663,2.906,2.906,0,0,1,2.03.677,2.018,2.018,0,0,1,.561,1.914l-.458,3.056A5.476,5.476,0,0,0,33.8-.9a4.8,4.8,0,0,0,.116.9ZM30.3-1.333a1.894,1.894,0,0,0,.957-.263,1.782,1.782,0,0,0,.663-.6l.157-1.039H30.953a1.5,1.5,0,0,0-.995.321,1.22,1.22,0,0,0-.455.766.667.667,0,0,0,.15.6A.865.865,0,0,0,30.3-1.333Zm9.645-4.348L39.211-5.7a1.422,1.422,0,0,0-.752.195,1.565,1.565,0,0,0-.533.55L37.187,0H35.2l1.107-7.4h1.853l-.068,1.06a2.736,2.736,0,0,1,.8-.885,1.751,1.751,0,0,1,1-.311,1.565,1.565,0,0,1,.277.024,2.367,2.367,0,0,1,.25.058Zm.41,2.044a5.469,5.469,0,0,1,1.172-2.854,2.907,2.907,0,0,1,2.293-1.042,1.774,1.774,0,0,1,.947.25,2.071,2.071,0,0,1,.687.714l.615-4.095h2L46.471,0h-1.7l-.034-.909a3.059,3.059,0,0,1-.943.783,2.424,2.424,0,0,1-1.135.27A2.127,2.127,0,0,1,40.718-.868a3.772,3.772,0,0,1-.386-2.625Zm1.969.144a2.788,2.788,0,0,0,.089,1.545.978.978,0,0,0,.991.54,1.67,1.67,0,0,0,.776-.181,1.738,1.738,0,0,0,.6-.523l.472-3.131a1.215,1.215,0,0,0-.441-.543,1.254,1.254,0,0,0-.714-.195,1.356,1.356,0,0,0-1.152.66,3.944,3.944,0,0,0-.6,1.685Zm12.66.731h.041L56.608-7.4H58.55L55.562,0H53.894l-.731-4.259-.041-.007L51.105,0H49.444l-.772-7.4h1.941l.212,4.614.041.007L52.944-7.4h1.333ZM62.911,0A3.241,3.241,0,0,1,62.8-.537a4.038,4.038,0,0,1-.027-.578,3.4,3.4,0,0,1-.947.9,2.283,2.283,0,0,1-1.254.355,2.183,2.183,0,0,1-1.682-.6,1.849,1.849,0,0,1-.4-1.624,2.308,2.308,0,0,1,1.08-1.706,4.754,4.754,0,0,1,2.543-.578h1.121l.089-.588a1.034,1.034,0,0,0-.154-.837.984.984,0,0,0-.8-.284,1.247,1.247,0,0,0-.776.236.93.93,0,0,0-.366.646H59.309L59.3-5.236A2.251,2.251,0,0,1,60.358-6.87a4.037,4.037,0,0,1,2.362-.663,2.906,2.906,0,0,1,2.03.677,2.018,2.018,0,0,1,.561,1.914l-.458,3.056a5.476,5.476,0,0,0-.068.984A4.8,4.8,0,0,0,64.9,0ZM61.284-1.333a1.894,1.894,0,0,0,.957-.263,1.782,1.782,0,0,0,.663-.6l.157-1.039H61.94a1.5,1.5,0,0,0-.995.321,1.22,1.22,0,0,0-.455.766.667.667,0,0,0,.15.6A.865.865,0,0,0,61.284-1.333ZM70.93-5.681,70.2-5.7a1.422,1.422,0,0,0-.752.195,1.565,1.565,0,0,0-.533.55L68.175,0H66.185l1.107-7.4h1.853l-.068,1.06a2.736,2.736,0,0,1,.8-.885,1.751,1.751,0,0,1,1-.311,1.565,1.565,0,0,1,.277.024,2.367,2.367,0,0,1,.25.058ZM74.286.144a2.874,2.874,0,0,1-2.4-1.029,3.213,3.213,0,0,1-.567-2.6l.041-.273a4.675,4.675,0,0,1,1.3-2.751A3.6,3.6,0,0,1,75.3-7.533a2.473,2.473,0,0,1,2.123.923,3.162,3.162,0,0,1,.455,2.447l-.15,1.032H73.315L73.3-3.1a1.735,1.735,0,0,0,.26,1.248,1.353,1.353,0,0,0,1.162.461,4.385,4.385,0,0,0,1.155-.14,5.275,5.275,0,0,0,1.039-.414l.355,1.23a4.535,4.535,0,0,1-1.3.608A5.666,5.666,0,0,1,74.286.144ZM75.079-6a1.277,1.277,0,0,0-.967.417,2.477,2.477,0,0,0-.571,1.087l.014.041h2.42L76-4.6a1.6,1.6,0,0,0-.106-1.032A.853.853,0,0,0,75.079-6Z" transform="translate(616 2740)"/>
  </g>
</svg>
