<svg xmlns="http://www.w3.org/2000/svg" xmlns:xlink="http://www.w3.org/1999/xlink" width="176" height="165" viewBox="0 0 176 165">
  <defs>
    <clipPath id="clip-path">
      <path id="path1110" d="M0-682.665H121.7v121.7H0Z" transform="translate(0 682.665)" fill="#9f0925"/>
    </clipPath>
  </defs>
  <g id="Grupo_985933" data-name="Grupo 985933" transform="translate(-1149 -2628)">
    <g id="Rectángulo_344456" data-name="Rectángulo 344456" transform="translate(1149 2628)" fill="none" stroke="#9f0925" stroke-width="4">
      <rect width="176" height="165" rx="11" stroke="none"/>
      <rect x="2" y="2" width="172" height="161" rx="9" fill="none"/>
    </g>
    <g id="g1104" transform="translate(1176.151 3332.315)">
      <g id="g1106" transform="translate(0 -682.665)">
        <g id="g1108" clip-path="url(#clip-path)">
          <g id="g1114" transform="translate(90.311 7.618)">
            <path id="path1116" d="M-76.187-66.2a9.918,9.918,0,0,1-7.059-2.924,9.918,9.918,0,0,1-2.924-7.059,9.918,9.918,0,0,1,2.924-7.059,9.918,9.918,0,0,1,7.059-2.924,9.918,9.918,0,0,1,7.059,2.924A9.918,9.918,0,0,1-66.2-76.187a9.918,9.918,0,0,1-2.924,7.059A9.918,9.918,0,0,1-76.187-66.2Zm0-15.212a5.2,5.2,0,0,0-3.7,1.532,5.2,5.2,0,0,0-1.532,3.7,5.2,5.2,0,0,0,1.532,3.7,5.2,5.2,0,0,0,3.7,1.532,5.2,5.2,0,0,0,3.7-1.532,5.2,5.2,0,0,0,1.532-3.7,5.2,5.2,0,0,0-1.532-3.7A5.2,5.2,0,0,0-76.187-81.416Z" transform="translate(86.17 86.17)" fill="#9f0925"/>
          </g>
          <g id="g1118" transform="translate(11.421 94.114)">
            <path id="path1120" d="M-76.187-66.2a9.918,9.918,0,0,1-7.059-2.924,9.918,9.918,0,0,1-2.924-7.059,9.918,9.918,0,0,1,2.924-7.059,9.918,9.918,0,0,1,7.059-2.924,9.918,9.918,0,0,1,7.059,2.924A9.918,9.918,0,0,1-66.2-76.187a9.918,9.918,0,0,1-2.924,7.059A9.918,9.918,0,0,1-76.187-66.2Zm0-15.212a5.2,5.2,0,0,0-3.7,1.532,5.2,5.2,0,0,0-1.532,3.7,5.2,5.2,0,0,0,1.532,3.7,5.2,5.2,0,0,0,3.7,1.532,5.2,5.2,0,0,0,3.7-1.532,5.2,5.2,0,0,0,1.532-3.7,5.2,5.2,0,0,0-1.532-3.7A5.2,5.2,0,0,0-76.187-81.416Z" transform="translate(86.17 86.17)" fill="#9f0925"/>
          </g>
          <g id="g1122" transform="translate(46.941 21.346)">
            <path id="path1124" d="M.573-442.864a61.309,61.309,0,0,1-12-1.183,2.377,2.377,0,0,1-1.865-2.8,2.377,2.377,0,0,1,2.8-1.865A56.541,56.541,0,0,0,.573-447.618a56.159,56.159,0,0,0,56.1-56.1,56.185,56.185,0,0,0-12.757-35.616,2.377,2.377,0,0,1,.325-3.346,2.377,2.377,0,0,1,3.346.325,60.951,60.951,0,0,1,13.84,38.637A60.918,60.918,0,0,1,.573-442.864Z" transform="translate(13.336 543.216)" fill="#9f0925"/>
          </g>
          <g id="g1126" transform="translate(0 0)">
            <path id="path1128" d="M-390.963,80.517a2.372,2.372,0,0,1-1.837-.867,60.951,60.951,0,0,1-13.84-38.637A60.918,60.918,0,0,1-345.79-19.836a61.3,61.3,0,0,1,12.113,1.206,2.377,2.377,0,0,1,1.859,2.8,2.377,2.377,0,0,1-2.8,1.859,56.533,56.533,0,0,0-11.171-1.112,56.159,56.159,0,0,0-56.1,56.1,56.185,56.185,0,0,0,12.757,35.616,2.377,2.377,0,0,1-.325,3.346A2.367,2.367,0,0,1-390.963,80.517Z" transform="translate(406.639 19.836)" fill="#9f0925"/>
          </g>
          <g id="g1130" transform="translate(17.585 17.589)">
            <path id="path1132" d="M-191.994-252.986h-14.862a2.377,2.377,0,0,1-2.377-2.377v-4.608a37.217,37.217,0,0,1-8.921-3.7l-3.253,3.253a2.372,2.372,0,0,1-1.681.7,2.377,2.377,0,0,1-1.681-.7l-10.505-10.513a2.377,2.377,0,0,1,0-3.361l3.249-3.249a37.223,37.223,0,0,1-3.7-8.921h-4.591a2.377,2.377,0,0,1-1.681-.7,2.377,2.377,0,0,1-.7-1.682l.008-14.862a2.377,2.377,0,0,1,2.377-2.376h4.583a37.216,37.216,0,0,1,3.7-8.921l-3.232-3.232a2.377,2.377,0,0,1-.7-1.681,2.377,2.377,0,0,1,.7-1.681l10.513-10.505a2.377,2.377,0,0,1,3.361,0l3.228,3.228a37.209,37.209,0,0,1,8.92-3.7v-4.566a2.377,2.377,0,0,1,2.377-2.377h14.862a2.377,2.377,0,0,1,2.377,2.377v4.566a37.209,37.209,0,0,1,8.92,3.7l3.228-3.228a2.377,2.377,0,0,1,3.361,0l10.513,10.505a2.377,2.377,0,0,1,.7,1.681,2.377,2.377,0,0,1-.7,1.681L-166.826-315a37.218,37.218,0,0,1,3.7,8.921h4.591a2.377,2.377,0,0,1,2.377,2.377v14.862a2.377,2.377,0,0,1-2.377,2.377h-4.591a37.22,37.22,0,0,1-3.7,8.921l3.249,3.249a2.377,2.377,0,0,1,0,3.361l-10.505,10.513a2.377,2.377,0,0,1-1.681.7,2.377,2.377,0,0,1-1.681-.7l-3.253-3.253a37.217,37.217,0,0,1-8.921,3.7v4.608A2.377,2.377,0,0,1-191.994-252.986Zm-12.485-4.754h10.109v-4.1a2.377,2.377,0,0,1,1.878-2.324,32.543,32.543,0,0,0,10.865-4.5,2.377,2.377,0,0,1,2.971.316l2.894,2.894,7.145-7.15-2.891-2.891a2.377,2.377,0,0,1-.316-2.971,32.546,32.546,0,0,0,4.5-10.865A2.377,2.377,0,0,1-165-291.213h4.084v-10.108H-165a2.377,2.377,0,0,1-2.324-1.878,32.543,32.543,0,0,0-4.5-10.865,2.377,2.377,0,0,1,.316-2.971l2.873-2.873-7.15-7.145-2.87,2.87a2.377,2.377,0,0,1-2.971.316,32.538,32.538,0,0,0-10.865-4.5,2.377,2.377,0,0,1-1.878-2.324v-4.059h-10.109v4.059a2.377,2.377,0,0,1-1.878,2.324,32.538,32.538,0,0,0-10.865,4.5,2.377,2.377,0,0,1-2.971-.316l-2.87-2.87-7.15,7.145,2.873,2.873a2.377,2.377,0,0,1,.316,2.971,32.543,32.543,0,0,0-4.5,10.865,2.377,2.377,0,0,1-2.324,1.878h-4.077l-.006,10.108h4.083a2.377,2.377,0,0,1,2.324,1.878,32.547,32.547,0,0,0,4.5,10.865,2.377,2.377,0,0,1-.316,2.971l-2.891,2.891,7.145,7.15,2.894-2.894a2.377,2.377,0,0,1,2.971-.316,32.543,32.543,0,0,0,10.865,4.5,2.377,2.377,0,0,1,1.878,2.324Zm5.054-18.866a19.663,19.663,0,0,1-19.64-19.64,19.663,19.663,0,0,1,19.64-19.64,19.663,19.663,0,0,1,19.64,19.64A19.663,19.663,0,0,1-199.425-276.605Zm0-34.527a14.9,14.9,0,0,0-14.887,14.886,14.9,14.9,0,0,0,14.887,14.887,14.9,14.9,0,0,0,14.887-14.887A14.9,14.9,0,0,0-199.425-311.132Z" transform="translate(242.689 339.506)" fill="#9f0925"/>
          </g>
          <g id="g1134" transform="translate(82.735 6.611)">
            <path id="path1136" fill="#9f0925"/>
          </g>
          <g id="g1138" transform="translate(39.067 115.129)">
            <path id="path1140" fill="#9f0925"/>
          </g>
        </g>
      </g>
    </g>
  </g>
</svg>
