<svg xmlns="http://www.w3.org/2000/svg" width="85" height="92" viewBox="0 0 85 92">
  <g id="Grupo_985936" data-name="Grupo 985936" transform="translate(-377 -2637)">
    <rect id="Rectángulo_338875" data-name="Rectángulo 338875" width="85" height="92" rx="10" transform="translate(377 2637)" fill="#ff6e33"/>
    <g id="analitica" transform="translate(421.334 2684.298)">
      <g id="Grupo_986484" data-name="Grupo 986484" transform="translate(-35.334 -35.298)">
        <g id="Grupo_986479" data-name="Grupo 986479" transform="translate(0 0)">
          <circle id="Elipse_5911" data-name="Elipse 5911" cx="12.869" cy="12.869" r="12.869" transform="translate(0 18.197) rotate(-45)" fill="#60b7ff"/>
          <circle id="Elipse_5912" data-name="Elipse 5912" cx="11.27" cy="11.27" r="11.27" transform="translate(2.261 18.197) rotate(-45)" fill="#8ac9fe"/>
          <path id="Trazado_729711" data-name="Trazado 729711" d="M112.608,112.62h12.869a12.864,12.864,0,0,1-6.434,11.147Z" transform="translate(-94.408 -94.423)" fill="#fd4755" fill-rule="evenodd"/>
          <path id="Trazado_729712" data-name="Trazado 729712" d="M112.608,112.62h11.27a11.266,11.266,0,0,1-5.634,9.762Z" transform="translate(-94.408 -94.423)" fill="#fe646f" fill-rule="evenodd"/>
          <path id="Trazado_729713" data-name="Trazado 729713" d="M125.477,20.879H112.608V8.01A12.869,12.869,0,0,1,125.477,20.879Z" transform="translate(-94.408 -2.682)" fill="#ffd064" fill-rule="evenodd"/>
          <path id="Trazado_729714" data-name="Trazado 729714" d="M123.878,32.278h-11.27V21.008A11.27,11.27,0,0,1,123.878,32.278Z" transform="translate(-94.408 -14.081)" fill="#ffe177" fill-rule="evenodd"/>
        </g>
        <g id="Grupo_986480" data-name="Grupo 986480" transform="translate(37.164 4.988)">
          <path id="Trazado_729715" data-name="Trazado 729715" d="M268.144,5.247h3.319a1.388,1.388,0,0,1,1.385,1.385V9.951a1.388,1.388,0,0,1-1.385,1.385h-3.319a1.388,1.388,0,0,1-1.385-1.385V6.632A1.387,1.387,0,0,1,268.144,5.247Z" transform="translate(-266.759 -5.247)" fill="#8ac9fe" fill-rule="evenodd"/>
          <path id="Trazado_729716" data-name="Trazado 729716" d="M268.144,87.873h3.319a1.388,1.388,0,0,1,1.385,1.385v3.319a1.388,1.388,0,0,1-1.385,1.385h-3.319a1.388,1.388,0,0,1-1.385-1.385V89.258A1.387,1.387,0,0,1,268.144,87.873Z" transform="translate(-266.759 -77.708)" fill="#ffe177" fill-rule="evenodd"/>
          <path id="Trazado_729717" data-name="Trazado 729717" d="M268.144,170.5h3.319a1.388,1.388,0,0,1,1.385,1.385V175.2a1.388,1.388,0,0,1-1.385,1.385h-3.319a1.388,1.388,0,0,1-1.385-1.385v-3.319A1.387,1.387,0,0,1,268.144,170.5Z" transform="translate(-266.759 -150.169)" fill="#fe646f" fill-rule="evenodd"/>
        </g>
        <g id="Grupo_986481" data-name="Grupo 986481" transform="translate(5.331 38.131)">
          <path id="Trazado_729718" data-name="Trazado 729718" d="M198.242,348.361h4.087a1.233,1.233,0,0,1,1.23,1.23v16.688a1.233,1.233,0,0,1-1.23,1.23h-4.087a1.233,1.233,0,0,1-1.23-1.23V349.591A1.233,1.233,0,0,1,198.242,348.361Z" transform="translate(-173.759 -339.294)" fill="#ffe177" fill-rule="evenodd"/>
          <path id="Trazado_729719" data-name="Trazado 729719" d="M202.329,348.361a1.233,1.233,0,0,1,1.23,1.23v16.688a1.233,1.233,0,0,1-1.23,1.23h-4.087a1.233,1.233,0,0,1-1.23-1.23H201.1a1.233,1.233,0,0,0,1.23-1.23Z" transform="translate(-173.759 -339.294)" fill="#ffd064" fill-rule="evenodd"/>
          <path id="Trazado_729720" data-name="Trazado 729720" d="M294.827,348.361h4.087a1.233,1.233,0,0,1,1.23,1.23v16.688a1.233,1.233,0,0,1-1.23,1.23h-4.087a1.233,1.233,0,0,1-1.23-1.23V349.591A1.233,1.233,0,0,1,294.827,348.361Z" transform="translate(-258.462 -339.294)" fill="#fe646f" fill-rule="evenodd"/>
          <path id="Trazado_729721" data-name="Trazado 729721" d="M298.914,348.361a1.233,1.233,0,0,1,1.23,1.23v16.688a1.233,1.233,0,0,1-1.23,1.23h-4.087a1.233,1.233,0,0,1-1.23-1.23h4.087a1.233,1.233,0,0,0,1.23-1.23Z" transform="translate(-258.462 -339.294)" fill="#fd4755" fill-rule="evenodd"/>
          <path id="Trazado_729722" data-name="Trazado 729722" d="M9.23,321.361h4.087a1.233,1.233,0,0,1,1.23,1.23V342.6a1.233,1.233,0,0,1-1.23,1.23H9.23A1.233,1.233,0,0,1,8,342.6v-20.01A1.233,1.233,0,0,1,9.23,321.361Z" transform="translate(-8 -315.616)" fill="#6cf5c2" fill-rule="evenodd"/>
          <path id="Trazado_729723" data-name="Trazado 729723" d="M13.317,321.361a1.233,1.233,0,0,1,1.23,1.23V342.6a1.233,1.233,0,0,1-1.23,1.23H9.23A1.233,1.233,0,0,1,8,342.6h4.087a1.233,1.233,0,0,0,1.23-1.23Z" transform="translate(-8 -315.616)" fill="#00e499" fill-rule="evenodd"/>
          <path id="Trazado_729724" data-name="Trazado 729724" d="M101.656,274.658h4.087a1.233,1.233,0,0,1,1.23,1.23v25.755a1.233,1.233,0,0,1-1.23,1.23h-4.087a1.233,1.233,0,0,1-1.23-1.23V275.888A1.233,1.233,0,0,1,101.656,274.658Z" transform="translate(-89.056 -274.658)" fill="#8ac9fe" fill-rule="evenodd"/>
          <path id="Trazado_729725" data-name="Trazado 729725" d="M105.743,274.658a1.233,1.233,0,0,1,1.23,1.23v25.755a1.233,1.233,0,0,1-1.23,1.23h-4.087a1.233,1.233,0,0,1-1.23-1.23h4.087a1.233,1.233,0,0,0,1.23-1.23Z" transform="translate(-89.056 -274.658)" fill="#60b7ff" fill-rule="evenodd"/>
        </g>
        <g id="Grupo_986482" data-name="Grupo 986482" transform="translate(24.99 23.701)">
          <path id="Trazado_729726" data-name="Trazado 729726" d="M375.372,354.862a12.746,12.746,0,0,1-2.151,2.368l5.848,5.732,2.226-2.294Z" transform="translate(-347.95 -330.565)" fill="#a79ba7" fill-rule="evenodd"/>
          <path id="Trazado_729727" data-name="Trazado 729727" d="M386.486,354.541a1.469,1.469,0,0,1-.637.854l5.809,5.771.711-.779Z" transform="translate(-359.024 -330.284)" fill="#837683" fill-rule="evenodd"/>
          <path id="Trazado_729728" data-name="Trazado 729728" d="M417.242,400.664l2.512-2.589a1.155,1.155,0,0,0-.025-1.629l-6.959-6.753a1.155,1.155,0,0,0-1.629.024l-2.512,2.589a1.155,1.155,0,0,0,.025,1.629l6.959,6.752A1.155,1.155,0,0,0,417.242,400.664Z" transform="translate(-378.718 -360.827)" fill="#f1ba84" fill-rule="evenodd"/>
          <path id="Trazado_729729" data-name="Trazado 729729" d="M434.185,389.692l6.959,6.753a1.155,1.155,0,0,1,.024,1.629l-2.513,2.589a1.143,1.143,0,0,1-.312.228,1.157,1.157,0,0,0,1.342-.228l2.512-2.589a1.155,1.155,0,0,0-.025-1.629l-6.959-6.753a1.156,1.156,0,0,0-1.317-.2A1.146,1.146,0,0,1,434.185,389.692Z" transform="translate(-401.161 -360.826)" fill="#e3a76f" fill-rule="evenodd"/>
          <circle id="Elipse_5913" data-name="Elipse 5913" cx="12.672" cy="12.672" r="12.672" transform="translate(0 17.918) rotate(-45)" fill="#eceff1"/>
          <path id="Trazado_729730" data-name="Trazado 729730" d="M309.129,200a12.672,12.672,0,0,1,0,25.344q-.309,0-.615-.015a12.672,12.672,0,0,0,0-25.313Q308.82,200,309.129,200Z" transform="translate(-291.203 -194.758)" fill="#d1d1d6" fill-rule="evenodd"/>
        </g>
        <g id="Grupo_986483" data-name="Grupo 986483" transform="translate(33.689 32.392)">
          <circle id="Elipse_5914" data-name="Elipse 5914" cx="9.227" cy="9.227" r="9.227" transform="translate(0 0)" fill="#837683"/>
          <path id="Trazado_729731" data-name="Trazado 729731" d="M315.252,237.232a9.228,9.228,0,0,1-8.407,9.191q.405.036.82.036a9.31,9.31,0,0,0,1.32-.094l.166-.025a9.227,9.227,0,0,0-1.487-18.334q-.415,0-.82.036A9.228,9.228,0,0,1,315.252,237.232Z" transform="translate(-298.439 -228.005)" fill="#685e68" fill-rule="evenodd"/>
          <path id="Trazado_729732" data-name="Trazado 729732" d="M267.843,310.239a6.446,6.446,0,0,0-6.407,5.75,9.2,9.2,0,0,0,6.406,2.587,9.309,9.309,0,0,0,1.32-.094,9.2,9.2,0,0,0,5.086-2.493A6.444,6.444,0,0,0,267.843,310.239Z" transform="translate(-258.616 -300.122)" fill="#8ac9fe" fill-rule="evenodd"/>
          <path id="Trazado_729733" data-name="Trazado 729733" d="M306.847,310.291c3.835.487,5.381,3.389,5.736,6.867a9.255,9.255,0,0,0,1.49-1.169,6.444,6.444,0,0,0-6.406-5.75A6.515,6.515,0,0,0,306.847,310.291Z" transform="translate(-298.44 -300.122)" fill="#60b7ff" fill-rule="evenodd"/>
          <circle id="Elipse_5915" data-name="Elipse 5915" cx="3.258" cy="3.258" r="3.258" transform="translate(5.969 3.114)" fill="#f6dccd"/>
          <path id="Trazado_729734" data-name="Trazado 729734" d="M313.029,256.576a3.258,3.258,0,0,1-2.848,3.232,3.258,3.258,0,1,0,0-6.464A3.258,3.258,0,0,1,313.029,256.576Z" transform="translate(-301.364 -250.204)" fill="#f1cbbc" fill-rule="evenodd"/>
        </g>
      </g>
      <path id="Trazado_729735" data-name="Trazado 729735" d="M30.323,37.285a8.192,8.192,0,0,0,1.361,4.528,7.407,7.407,0,0,1,3.82-3.966,4.242,4.242,0,1,1,6.126,0,7.413,7.413,0,0,1,3.82,3.966,8.241,8.241,0,1,0-15.126-4.528Zm8.243-.095a2.274,2.274,0,1,1,2.273-2.274A2.276,2.276,0,0,1,38.566,37.19Zm0,8.337a8.2,8.2,0,0,1-5.352-1.983,5.46,5.46,0,0,1,10.707,0A8.208,8.208,0,0,1,38.566,45.527ZM28.355,37.285A10.211,10.211,0,1,1,38.566,47.5,10.223,10.223,0,0,1,28.355,37.285Zm-10.439-2.5H13.336V61.028h4.579Zm1.968-.984V62.012A.985.985,0,0,1,18.9,63H12.352a.984.984,0,0,1-.984-.984V33.8a.984.984,0,0,1,.984-.984H18.9a.985.985,0,0,1,.984.984ZM60.967,55.691l-6.959-6.752a.161.161,0,0,0-.116-.046h0a.165.165,0,0,0-.118.049l-2.512,2.589a.173.173,0,0,0,0,.237l6.958,6.753a.173.173,0,0,0,.238,0l2.513-2.59A.173.173,0,0,0,60.967,55.691ZM41.68,50.582a13.687,13.687,0,0,1-4.579.279V61.028H41.68ZM29.8,47.744a13.753,13.753,0,0,1-3.2-3.9H25.218v17.18H29.8ZM26.879,37.285A11.688,11.688,0,1,1,38.566,48.972,11.7,11.7,0,0,1,26.879,37.285Zm7.259-12.919a13.562,13.562,0,0,1,3.441-.7V22.307H34.138ZM49.052,46.022c-.262.315-.539.618-.828.908l2.45,2.377.856-.882ZM62.383,57.3l-2.512,2.589a2.139,2.139,0,0,1-3.022.045l-6.958-6.752a2.141,2.141,0,0,1-.483-2.359l-2.678-2.6a13.65,13.65,0,0,1-3.083,1.735V62.012a.985.985,0,0,1-.984.984H36.117a.984.984,0,0,1-.984-.984V50.5a13.551,13.551,0,0,1-3.367-1.38V62.012a.984.984,0,0,1-.984.984H24.234a.984.984,0,0,1-.984-.984V42.864a.984.984,0,0,1,.984-.984h1.472A13.655,13.655,0,0,1,32.17,25.222v-3.9a.984.984,0,0,1,.984-.984h5.409a.985.985,0,0,1,.984.984v2.341A13.551,13.551,0,0,1,44.736,25.1h7.745a.984.984,0,1,1,0,1.968H47.622a13.633,13.633,0,0,1,2.592,17.335l2.792,2.71a2.142,2.142,0,0,1,2.373.41l6.958,6.753a2.138,2.138,0,0,1,.045,3.02ZM6.545,40.526H1.966v20.5H6.545Zm1.969-.984v22.47A.984.984,0,0,1,7.529,63H.981A.984.984,0,0,1,0,62.012V39.542a.984.984,0,0,1,.984-.984H7.529a.984.984,0,0,1,.984.984Zm25.625-23.96h3.441V12.142H34.138Zm-1.968.984V11.158a.984.984,0,0,1,.984-.984h5.409a.984.984,0,0,1,.984.984v5.409a.984.984,0,0,1-.984.984H33.154A.984.984,0,0,1,32.17,16.567Zm10.791.34h9.52a.984.984,0,0,0,0-1.969h-9.52a.984.984,0,0,0,0,1.969Zm0-4.121H62a.984.984,0,0,0,0-1.969H42.961a.984.984,0,0,0,0,1.969ZM34.138,5.418h3.441V1.978H34.138ZM32.17,6.4V.993a.984.984,0,0,1,.984-.984h5.409a.984.984,0,0,1,.984.984V6.4a.984.984,0,0,1-.984.984H33.154A.984.984,0,0,1,32.17,6.4Zm10.791.34h9.52a.984.984,0,1,0,0-1.968h-9.52a.984.984,0,0,0,0,1.968Zm0-4.12H62A.984.984,0,0,0,62,.653H42.961a.984.984,0,0,0,0,1.969Zm-41,11.24A11.884,11.884,0,0,0,19,24.571l-6-10.21a.993.993,0,0,1-.135-.5V2.018a11.9,11.9,0,0,0-10.9,11.844ZM14.835,2.018A11.907,11.907,0,0,1,25.7,12.883l-10.861,0ZM25.694,14.852l-10.123,0L20.7,23.57a11.887,11.887,0,0,0,4.994-8.719ZM0,13.862A13.854,13.854,0,1,0,13.851.009,13.87,13.87,0,0,0,0,13.862Zm41.98,8.1a.984.984,0,0,0,.984.984H62a.984.984,0,1,0,0-1.968H42.961A.984.984,0,0,0,41.977,21.967Z" transform="translate(-30.985 -30.963)" fill-rule="evenodd"/>
    </g>
  </g>
</svg>
