<svg xmlns="http://www.w3.org/2000/svg" width="66" height="62" viewBox="0 0 66 62">
  <g id="Grupo_986463" data-name="Grupo 986463" transform="translate(-1149 -2628)">
    <g id="Rectángulo_344456" data-name="Rectángulo 344456" transform="translate(1149 2628)" fill="none" stroke="#9f0925" stroke-width="4">
      <rect width="66" height="62" rx="11" stroke="none"/>
      <rect x="2" y="2" width="62" height="58" rx="9" fill="none"/>
    </g>
    <g id="carrete-de-hilo" transform="translate(1123.569 2618.639)">
      <path id="Trazado_729854" data-name="Trazado 729854" d="M76.031,54.362c-.025-.981-.629-2.349-3.2-3.55v-21.4a4.777,4.777,0,0,0,2.317-1.846.784.784,0,0,0,.054-.138l1.312-4.592a2.584,2.584,0,0,0,.32-1.232c0-1.171-.827-2.842-4.768-4.156A34.332,34.332,0,0,0,61.621,16a34.332,34.332,0,0,0-10.443,1.448c-3.941,1.314-4.768,2.985-4.768,4.156a2.584,2.584,0,0,0,.32,1.232l1.312,4.592a.785.785,0,0,0,.054.138,4.777,4.777,0,0,0,2.317,1.846V41.081a4.845,4.845,0,0,0-2.906.454c-1.687.858-2.857,2.714-3.48,5.514-1.179,5.3-2.3,8.179-4.823,8.179-1.06,0-1.654-.906-2.507-2.4s-1.832-3.205-3.9-3.205a.8.8,0,0,0,0,1.6c1.06,0,1.654.906,2.507,2.4s1.832,3.205,3.9,3.205c3.961,0,5.281-4.462,6.386-9.433.511-2.3,1.394-3.788,2.624-4.425a3.333,3.333,0,0,1,2.2-.265v8.106c-2.565,1.2-3.175,2.56-3.2,3.55l-.794,5.557a.8.8,0,0,0,.152.594c.27.36,2.99,3.523,15.051,3.523S76.4,60.873,76.672,60.513a.8.8,0,0,0,.152-.594ZM58.8,31.137a10.608,10.608,0,0,1-6.781,6.62v-1.7a8.937,8.937,0,0,0,5.134-5.039Q57.927,31.088,58.8,31.137Zm-6.781,8.3c.191-.057,6.869-1.931,8.432-8.238.38.008.771.013,1.175.013l.474,0A13.8,13.8,0,0,1,52.014,41.1ZM64.55,37.506a28.408,28.408,0,0,0,6.679-1.247v1.507a26.9,26.9,0,0,1-7.89,1.412A17.9,17.9,0,0,0,64.55,37.506Zm-2.72,3.311a31.352,31.352,0,0,0,9.4-1.354v1.505a28.828,28.828,0,0,1-9.607,1.451q-.82,0-1.628-.035a19.371,19.371,0,0,0,1.837-1.567Zm-4.061,3.012a38.309,38.309,0,0,0,3.853.192,31.549,31.549,0,0,0,9.607-1.355v1.55a28.828,28.828,0,0,1-9.607,1.451,33.957,33.957,0,0,1-6.517-.6,20.054,20.054,0,0,0,2.665-1.236Zm-5.754,2.137.1-.021a31.726,31.726,0,0,0,9.5,1.322,31.549,31.549,0,0,0,9.607-1.355v1.461a28.828,28.828,0,0,1-9.607,1.451,28.831,28.831,0,0,1-9.607-1.451Zm19.214-11.4A24.171,24.171,0,0,1,65.5,35.811a16.873,16.873,0,0,0,.713-1.673,26.152,26.152,0,0,0,5.012-1.08Zm-10.4,5a18.3,18.3,0,0,1-8.814,4.768V42.753A15.394,15.394,0,0,0,63.745,31.17q.863-.034,1.643-.095A15.741,15.741,0,0,1,60.828,39.559Zm.793,10.866a31.549,31.549,0,0,0,9.607-1.355v1.505a28.828,28.828,0,0,1-9.607,1.451,28.831,28.831,0,0,1-9.607-1.451V49.069A31.549,31.549,0,0,0,61.621,50.425Zm-9.607,1.847a31.549,31.549,0,0,0,9.607,1.355,31.549,31.549,0,0,0,9.607-1.355v1.56a33.929,33.929,0,0,1-19.214,0ZM71.228,31.36a22.287,22.287,0,0,1-4.5,1.094q.189-.761.308-1.542a22.957,22.957,0,0,0,4.191-.872ZM61.621,17.6c8.432,0,13.61,2.332,13.61,4s-5.178,4-13.61,4-13.61-2.332-13.61-4S53.189,17.6,61.621,17.6Zm-12.073,9.27-.584-2.043a14,14,0,0,0,2.214.932,34.332,34.332,0,0,0,10.443,1.448A34.332,34.332,0,0,0,72.064,25.76a14,14,0,0,0,2.214-.932l-.584,2.043c-.287.369-2.512,2.739-12.073,2.739S49.836,27.24,49.548,26.871ZM55.5,30.816A7.29,7.29,0,0,1,52.014,34.3V30.039A21.786,21.786,0,0,0,55.5,30.816Zm-5.086,21.8v1.815a.8.8,0,0,0,.565.765,35.566,35.566,0,0,0,21.286,0,.8.8,0,0,0,.565-.765V52.614c1.02.588,1.6,1.234,1.6,1.814,0,1.671-4.873,4-12.809,4s-12.809-2.332-12.809-4C48.812,53.843,49.391,53.2,50.413,52.613Zm11.208,9.82c-9.474,0-12.748-2.034-13.56-2.694l.414-2.9a9.99,9.99,0,0,0,3.256,1.739,30.833,30.833,0,0,0,9.89,1.453,30.835,30.835,0,0,0,9.89-1.453,9.985,9.985,0,0,0,3.256-1.739l.414,2.9c-.812.66-4.086,2.694-13.56,2.694Z" fill="#9f0925"/>
      <path id="Trazado_729855" data-name="Trazado 729855" d="M245.374,52.318a33.1,33.1,0,0,0,11.3,0c.8-.164,2.911-.6,2.911-1.916s-2.115-1.752-2.911-1.916a33.1,33.1,0,0,0-11.3,0c-.8.164-2.911.6-2.911,1.916S244.577,52.154,245.374,52.318Zm.817-2.357a29.739,29.739,0,0,1,4.831-.359,21.083,21.083,0,0,1,6.582.8,9.063,9.063,0,0,1-1.751.443,29.734,29.734,0,0,1-4.831.359,21.083,21.083,0,0,1-6.582-.8A9.065,9.065,0,0,1,246.191,49.961Z" transform="translate(-189.401 -28.798)" fill="#9f0925"/>
    </g>
  </g>
</svg>
