<svg xmlns="http://www.w3.org/2000/svg" width="85" height="91" viewBox="0 0 85 91">
  <g id="Grupo_985837" data-name="Grupo 985837" transform="translate(-180 -399)">
    <rect id="Rectángulo_33991" data-name="Rectángulo 33991" width="85" height="91" rx="17" transform="translate(180 399)" fill="#ff6e33"/>
    <g id="software" transform="translate(190 416.5)">
      <path id="Trazado_728316" data-name="Trazado 728316" d="M7.5,10.779V47.992a2.779,2.779,0,0,0,2.779,2.779H63.057a2.779,2.779,0,0,0,2.779-2.779V10.779A2.779,2.779,0,0,0,63.057,8H10.279A2.779,2.779,0,0,0,7.5,10.779Zm0,0" transform="translate(-6.537 -6.537)" fill="#87d1ea"/>
      <path id="Trazado_728317" data-name="Trazado 728317" d="M419.164,8h-3.082a2.779,2.779,0,0,1,2.779,2.779V47.992a2.779,2.779,0,0,1-2.779,2.779h3.082a2.779,2.779,0,0,0,2.779-2.779V10.779A2.779,2.779,0,0,0,419.164,8Zm0,0" transform="translate(-362.645 -6.537)" fill="#5fa6ce"/>
      <path id="Trazado_728318" data-name="Trazado 728318" d="M7.5,283.02v4.672a2.779,2.779,0,0,0,2.779,2.779H63.057a2.779,2.779,0,0,0,2.779-2.779V283.02Zm0,0" transform="translate(-6.537 -246.236)" fill="#cae5ed"/>
      <path id="Trazado_728319" data-name="Trazado 728319" d="M418.861,287.691a2.779,2.779,0,0,1-2.779,2.779h3.082c.052,0,.1,0,.154,0,.085,0,.169-.013.252-.025.052-.008.1-.016.155-.027l.134-.031a2.79,2.79,0,0,0,2.052-2.269c.007-.046.013-.092.018-.139.009-.094.014-.189.014-.284V283.02h-3.082Zm0,0" transform="translate(-362.645 -246.236)" fill="#9bb8d1"/>
      <path id="Trazado_728320" data-name="Trazado 728320" d="M190.876,341.031l-1.629,7.541H200.9l-1.629-7.541Zm0,0" transform="translate(-164.941 -296.797)" fill="#3a4d7b"/>
      <path id="Trazado_728321" data-name="Trazado 728321" d="M206.948,343.733l-.583-2.7h-8.394l-.584,2.7Zm0,0" transform="translate(-172.036 -296.797)" fill="#242e5b"/>
      <path id="Trazado_728322" data-name="Trazado 728322" d="M127.58,391.238h26.593a.514.514,0,0,0,.351-.889c-2.968-2.771-7.973-4.591-13.648-4.591s-10.68,1.82-13.648,4.591A.514.514,0,0,0,127.58,391.238Zm0,0" transform="translate(-110.746 -335.779)" fill="#cae5ed"/>
      <path id="Trazado_728323" data-name="Trazado 728323" d="M238.429,390.349c-2.968-2.771-7.974-4.591-13.648-4.591q-.733,0-1.449.041a14.366,14.366,0,0,1,9.883,4.55c.276.318.093.889-.285.889h5.147A.514.514,0,0,0,238.429,390.349Zm0,0" transform="translate(-194.65 -335.779)" fill="#9bb8d1"/>
      <path id="Trazado_728324" data-name="Trazado 728324" d="M407.165,200.632l-4.085-7.076a.568.568,0,0,1,.208-.776l3.046-1.758a.568.568,0,0,0,0-.984l-11.972-6.911a.966.966,0,0,0-1.45.837v13.824a.568.568,0,0,0,.852.492l3.046-1.758a.568.568,0,0,1,.776.208l4.086,7.076a.568.568,0,0,0,.776.208l4.511-2.6A.568.568,0,0,0,407.165,200.632Zm0,0" transform="translate(-342.449 -159.057)" fill="#ea6789"/>
      <path id="Trazado_728325" data-name="Trazado 728325" d="M243.077,2.426h24.462a1.818,1.818,0,0,1,1.816,1.816V24.195a.963.963,0,0,0,1.926,0V4.243A3.747,3.747,0,0,0,267.538.5H243.077a.963.963,0,1,0,0,1.926Zm0,0" transform="translate(-211.019)"/>
      <path id="Trazado_728326" data-name="Trazado 728326" d="M233.552,85.041,241.1,89.4a.966.966,0,0,0,.482.129h0a.966.966,0,0,0,.482-.129l7.545-4.356a.963.963,0,0,0,.482-.834V75.494a.963.963,0,0,0-.482-.834l-.007,0L242.06,70.3a.963.963,0,0,0-.963,0l-7.538,4.353-.007,0a.963.963,0,0,0-.482.834v8.712A.963.963,0,0,0,233.552,85.041ZM235,83.65V77.163l.324.187,5.295,3.057v6.487Zm7.545,3.243V80.407l5.294-3.057.324-.187V83.65Zm-.963-14.643,5.618,3.244-.828.478-4.79,2.766-4.791-2.766-.827-.478Zm0,0" transform="translate(-203.137 -60.727)"/>
      <path id="Trazado_728327" data-name="Trazado 728327" d="M101.658,84.043h.055a.963.963,0,0,0,.961-.909l.134-2.405a.964.964,0,0,0-.527-.914l-2.15-1.086a.963.963,0,1,0-.869,1.719l.56.283-5.782,3.338V77.395l.525.344a.963.963,0,1,0,1.055-1.612L93.6,74.808a.962.962,0,0,0-1.055,0l-2.016,1.319a.963.963,0,0,0,1.055,1.612l.525-.344c0,9.182.028,8.576.025,8.563.005.022.01.041.016.059.191.655.263.345,7.668,4.729l-.56.283a.963.963,0,0,0,.435,1.823.953.953,0,0,0,.433-.1l2.15-1.086a.963.963,0,0,0,.527-.914l-.134-2.406a.963.963,0,1,0-1.923.108l.035.626L95,85.74l5.782-3.339-.035.627A.962.962,0,0,0,101.658,84.043Zm0,0" transform="translate(-78.527 -64.627)"/>
      <path id="Trazado_728328" data-name="Trazado 728328" d="M65.55,41.093l-3.888-6.734,2.7-1.561a1.531,1.531,0,0,0,0-2.652L52.393,23.234A1.93,1.93,0,0,0,49.5,24.906V35.822H1.926V4.243A1.818,1.818,0,0,1,3.743,2.426H28.2A.963.963,0,0,0,28.2.5H3.743A3.747,3.747,0,0,0,0,4.243V41.455A3.747,3.747,0,0,0,3.743,45.2h21l-.993,4.6q-.637.163-1.259.36a.963.963,0,1,0,.582,1.836q.805-.255,1.64-.449a.985.985,0,0,0,.128-.029,24.036,24.036,0,0,1,5.293-.573A20.35,20.35,0,0,1,42.2,54.5H18.066A14.106,14.106,0,0,1,19.74,53.41a.963.963,0,0,0-.936-1.684,15.123,15.123,0,0,0-2.979,2.139,1.477,1.477,0,0,0,1.009,2.557H43.428a1.477,1.477,0,0,0,1.008-2.557A18.229,18.229,0,0,0,36.517,49.8l-1-4.6h21a3.726,3.726,0,0,0,1.633-.374l.234.4a1.532,1.532,0,0,0,2.092.56l4.511-2.6a1.531,1.531,0,0,0,.561-2.091Zm-31.1,8.275a26.809,26.809,0,0,0-8.641-.006l.9-4.165H33.55Zm22.068-6.1H3.743a1.818,1.818,0,0,1-1.816-1.816V37.747H49.5v.982a1.532,1.532,0,0,0,2.3,1.326l2.7-1.561,2.685,4.652A1.819,1.819,0,0,1,56.52,43.271Zm3.338.652-.542-.939c-.01-.019-.02-.037-.031-.054L55.97,37.19a1.525,1.525,0,0,0-.93-.714,1.551,1.551,0,0,0-.4-.053,1.527,1.527,0,0,0-.763.206l-2.453,1.416L51.43,24.9l11.38,6.569-2.453,1.416A1.533,1.533,0,0,0,59.8,34.98l3.888,6.734Zm0,0"/>
    </g>
  </g>
</svg>
