<svg xmlns="http://www.w3.org/2000/svg" width="85" height="92" viewBox="0 0 85 92">
  <g id="Grupo_985839" data-name="Grupo 985839" transform="translate(-370 -871)">
    <rect id="Rectángulo_338864" data-name="Rectángulo 338864" width="85" height="92" rx="10" transform="translate(370 871)" fill="#ff6e33"/>
    <g id="pregunta" transform="translate(361.86 879)">
      <path id="Trazado_728329" data-name="Trazado 728329" d="M66.03,312l13.927,2.322a12.364,12.364,0,0,1,10.066,9.648L93.229,339.2H24l3.206-15.23a12.364,12.364,0,0,1,10.066-9.648L51.195,312Z" transform="translate(-8.333 -263.784)" fill="#ececec"/>
      <g id="Grupo_985838" data-name="Grupo 985838" transform="translate(35.444 48.216)">
        <path id="Trazado_728330" data-name="Trazado 728330" d="M262.832,313.236l-4.945,14.836L248,319.418,255.414,312Z" transform="translate(-233.16 -312)" fill="#b6c1ce"/>
        <path id="Trazado_728331" data-name="Trazado 728331" d="M310.249,339.2h6.182l-3.206-15.23a12.364,12.364,0,0,0-10.065-9.648L289.232,312H288l15.5,8.268a7.419,7.419,0,0,1,3.762,4.991Z" transform="translate(-266.979 -312)" fill="#b6c1ce"/>
        <path id="Trazado_728332" data-name="Trazado 728332" d="M152,313.236l4.945,14.836,9.89-8.654L159.414,312Z" transform="translate(-151.996 -312)" fill="#b6c1ce"/>
      </g>
      <path id="Trazado_728333" data-name="Trazado 728333" d="M214.832,280v4.945l-7.418,7.418L200,284.945V280Z" transform="translate(-157.134 -236.729)" fill="#f9e0a6"/>
      <path id="Trazado_728334" data-name="Trazado 728334" d="M202.284,366.182l4.592,4.945-2.473,8.654h9.89l-2.473-8.654,4.592-4.945L209.348,360Z" transform="translate(-159.069 -304.366)" fill="#fb5968"/>
      <circle id="Elipse_5885" data-name="Elipse 5885" cx="22.253" cy="22.253" r="22.253" transform="translate(28.026 1.236)" fill="#92e0c0"/>
      <path id="Trazado_728335" data-name="Trazado 728335" d="M237.85,8c-.626,0-1.241.043-1.854.094a22.235,22.235,0,0,1,0,44.319c.613.051,1.229.094,1.854.094A22.253,22.253,0,0,0,237.85,8Z" transform="translate(-187.571 -6.764)" fill="#48c397"/>
      <circle id="Elipse_5886" data-name="Elipse 5886" cx="2.473" cy="2.473" r="2.473" transform="translate(47.807 33.38)" fill="#ececec"/>
      <path id="Trazado_728336" data-name="Trazado 728336" d="M82.9,59.931A13.518,13.518,0,0,0,71.827,49.319l-12.893-2.15V45.307a23.49,23.49,0,1,0-17.308,0v1.862l-12.895,2.15A13.52,13.52,0,0,0,17.659,59.931L14.14,76.651H86.42Zm-2.419.509,2.893,13.738H76.112L75,64.152l-2.457.273,1.083,9.753H56.157L54.11,67.011,57,63.157l3.756,3.286,5.2-15.6,5.467.911A11.059,11.059,0,0,1,80.48,60.44ZM48.471,55.573l-7.5,6.56-3.9-11.7,5.363-.894Zm9.651-6.033,5.363.894-3.9,11.7-7.5-6.56Zm-7.9,7.786.056.056.056-.056,4.8,4.2-3.74,4.985,2.192,7.669H46.972l2.192-7.669-3.74-4.985ZM29.262,23.49A21.017,21.017,0,1,1,50.28,44.507,21.041,21.041,0,0,1,29.262,23.49ZM50.28,46.98a23.348,23.348,0,0,0,6.182-.853V47.7L50.28,53.885,44.1,47.7V46.126A23.348,23.348,0,0,0,50.28,46.98ZM20.079,60.44a11.061,11.061,0,0,1,9.06-8.683l5.467-.911,5.2,15.6,3.756-3.286,2.889,3.855L44.4,74.178H26.934l1.084-9.754-2.457-.273L24.447,74.178H17.186Z" transform="translate(0)"/>
      <path id="Trazado_728337" data-name="Trazado 728337" d="M206.8,50.473a4.332,4.332,0,0,1,4.327,4.327v.786a4.306,4.306,0,0,1-1.267,3.061l-3.678,3.677v6.693h2.473v-5.67l2.955-2.954a6.758,6.758,0,0,0,1.99-4.809V54.8a6.8,6.8,0,0,0-13.6,0v.618h2.473V54.8A4.332,4.332,0,0,1,206.8,50.473Z" transform="translate(-157.134 -40.582)"/>
      <path id="Trazado_728338" data-name="Trazado 728338" d="M231.414,211.709a3.709,3.709,0,1,0-3.709,3.709A3.713,3.713,0,0,0,231.414,211.709Zm-4.945,0a1.236,1.236,0,1,1,1.236,1.236A1.238,1.238,0,0,1,226.469,211.709Z" transform="translate(-177.425 -175.856)"/>
    </g>
  </g>
</svg>
