<svg xmlns="http://www.w3.org/2000/svg" width="85" height="92" viewBox="0 0 85 92">
  <g id="Grupo_985840" data-name="Grupo 985840" transform="translate(-685 -871)">
    <rect id="Rectángulo_338866" data-name="Rectángulo 338866" width="85" height="92" rx="10" transform="translate(685 871)" fill="#ff6e33"/>
    <g id="donde" transform="translate(643.314 883.001)">
      <path id="Trazado_728339" data-name="Trazado 728339" d="M245.181,97.829v54.01a1.99,1.99,0,0,0,1.653-.881l14.881-22.092a19.924,19.924,0,0,0-16.535-31.037Z" transform="translate(-162.594 -84.837)" fill="#1448d3"/>
      <path id="Trazado_728340" data-name="Trazado 728340" d="M115.1,97.829a19.924,19.924,0,0,0-16.534,31.037l14.881,22.092a1.991,1.991,0,0,0,1.653.881,1.538,1.538,0,0,0,1.323-.881l11.9-22.092a23.477,23.477,0,0,0,2.71-11.116,24.8,24.8,0,0,0-1.132-7.389C127.714,103.158,121.906,97.829,115.1,97.829Z" transform="translate(-32.515 -84.837)" fill="#1448d3"/>
      <circle id="Elipse_5887" data-name="Elipse 5887" cx="11.953" cy="11.953" r="11.953" transform="translate(70.634 20.961)" fill="#fff"/>
      <path id="Trazado_728341" data-name="Trazado 728341" d="M245.181,187.829v15.937a7.969,7.969,0,1,0,0-15.937Z" transform="translate(-162.594 -162.884)" fill="#6ae6eb"/>
      <path id="Trazado_728342" data-name="Trazado 728342" d="M197.134,195.8c0-4.4-1.784-7.969-3.984-7.969a7.969,7.969,0,1,0,0,15.937C195.35,203.766,197.134,200.2,197.134,195.8Z" transform="translate(-110.562 -162.884)" fill="#a9f8f7"/>
      <path id="Trazado_728343" data-name="Trazado 728343" d="M186.646,198.258a8.965,8.965,0,1,0-8.965-8.965A8.975,8.975,0,0,0,186.646,198.258Zm0-15.937a6.973,6.973,0,1,1-6.973,6.973A6.98,6.98,0,0,1,186.646,182.321Z" transform="translate(-104.058 -156.38)"/>
      <path id="Trazado_728344" data-name="Trazado 728344" d="M108.6,90.329a20.92,20.92,0,0,0-17.36,32.59l14.881,22.092a2.989,2.989,0,0,0,4.959,0l14.881-22.092A20.92,20.92,0,0,0,108.6,90.329Zm15.708,31.477-14.88,22.09a1,1,0,0,1-1.656,0L92.893,121.809a18.925,18.925,0,1,1,31.414,0Z" transform="translate(-26.011 -78.333)"/>
      <path id="Trazado_728345" data-name="Trazado 728345" d="M160.63,150.329a12.841,12.841,0,0,0-5.432,1.192,1,1,0,1,0,.837,1.808,10.971,10.971,0,1,1-3.013,2.065,1,1,0,0,0-1.384-1.433,12.948,12.948,0,1,0,8.992-3.632Z" transform="translate(-78.043 -130.364)"/>
      <path id="Trazado_728346" data-name="Trazado 728346" d="M146.193,7.843a1,1,0,0,0-1.908.574l.821,2.731-3.373,1.014-.821-2.731A1,1,0,1,0,139,10l2.295,7.631a1,1,0,1,0,1.908-.574l-.9-2.992,3.373-1.014.9,2.992a1,1,0,0,0,1.908-.574Z" transform="translate(-70.482 -6.187)"/>
      <path id="Trazado_728347" data-name="Trazado 728347" d="M278.054,8.775a2.985,2.985,0,0,0-.214-2.383,3.231,3.231,0,0,0-1.825-1.54l-2.008-.676a1,1,0,0,0-1.262.626L270.2,12.352a1,1,0,1,0,1.888.636l.72-2.137,1.5,3.579a1,1,0,0,0,1.837-.77l-1.185-2.828a3.221,3.221,0,0,0,1.48-.29,2.984,2.984,0,0,0,1.612-1.768Zm-1.888-.636a1.013,1.013,0,0,1-.554.593,1.262,1.262,0,0,1-.919.045l-1.066-.355.688-2.041,1.064.358a1.262,1.262,0,0,1,.7.592A1.015,1.015,0,0,1,276.166,8.139Z" transform="translate(-184.245 -3.576)"/>
      <path id="Trazado_728348" data-name="Trazado 728348" d="M224.661,2.086a1,1,0,0,0,.057-1.991L221.393,0a1,1,0,0,0-1.024.967l-.225,7.893a1,1,0,0,0,.967,1.024l3.326.095h.029a1,1,0,0,0,.028-1.992l-2.33-.067.056-1.955,2.085.059h.029a1,1,0,0,0,.028-1.992l-2.085-.059.056-1.955Z" transform="translate(-140.881)"/>
      <path id="Trazado_728349" data-name="Trazado 728349" d="M332.532,35.119a1,1,0,0,0-.235-1.389L329.585,31.8a1,1,0,0,0-1.389.235l-4.572,6.437a1,1,0,0,0,.235,1.389l2.712,1.927a1,1,0,0,0,1.154-1.624l-1.9-1.35,1.133-1.594,1.7,1.208a1,1,0,0,0,1.154-1.624l-1.7-1.208L329.243,34l1.9,1.35A1,1,0,0,0,332.532,35.119Z" transform="translate(-230.458 -27.421)"/>
      <path id="Trazado_728350" data-name="Trazado 728350" d="M66.206,38.281a1,1,0,0,0-1.774.905l2.03,3.978-3.7-2.711-.029-.021A1.176,1.176,0,0,0,60.967,41.8l.013.034,1.714,4.254L59.34,43.143a1,1,0,1,0-1.315,1.5l5.944,5.227a1.176,1.176,0,0,0,1.872-1.293l-.013-.033L63.9,43.757,68.06,46.8l.029.021A1.176,1.176,0,0,0,69.8,45.32Z" transform="translate(0 -32.726)"/>
      <path id="Trazado_728351" data-name="Trazado 728351" d="M368.329,116.071a1,1,0,1,0,1.408.034A1,1,0,0,0,368.329,116.071Z" transform="translate(-269.119 -100.418)"/>
      <path id="Trazado_728352" data-name="Trazado 728352" d="M394.436,48.5a3.931,3.931,0,0,0-5.916-.562,1,1,0,0,0,1.375,1.442,1.977,1.977,0,0,1,.21-.174,1.95,1.95,0,0,1,2.715.458,1.9,1.9,0,0,1-.089,2.356,1.929,1.929,0,0,1-1.863.669,4.981,4.981,0,0,0-4.373,1.237l-.071.067A1,1,0,0,0,387.8,55.44l.071-.068a2.946,2.946,0,0,1,2.625-.722,3.933,3.933,0,0,0,3.942-6.146Z" transform="translate(-284.81 -40.636)"/>
    </g>
  </g>
</svg>
