<svg xmlns="http://www.w3.org/2000/svg" xmlns:xlink="http://www.w3.org/1999/xlink" width="85" height="92" viewBox="0 0 85 92">
  <defs>
    <clipPath id="clip-path">
      <path id="path2538" d="M0-682.665H64.665V-618H0Z" transform="translate(0 682.665)"/>
    </clipPath>
  </defs>
  <g id="Grupo_985856" data-name="Grupo 985856" transform="translate(-1000 -1137)">
    <rect id="Rectángulo_338868" data-name="Rectángulo 338868" width="85" height="92" rx="10" transform="translate(1000 1137)" fill="#ff6e33"/>
    <g id="g2532" transform="translate(1010.667 1833.666)">
      <g id="g2534" transform="translate(0 -682.665)">
        <g id="g2536" clip-path="url(#clip-path)">
          <g id="g2542" transform="translate(0.947 13.657)">
            <path id="path2544" d="M-142.506-72.194a3.439,3.439,0,0,1,3.43,3.43c0,6.054,1.636,10.039,1.636,14.668,0,4.457-1.493,8.245-3.573,9.641V-41l-5.685,2.485L-152.333-41c-1.4-6.43-5.084-9.036-5.084-19.308,0-10.737,4.207-19.437,9.394-19.437a4.891,4.891,0,0,1,2.091.48v10.5a3.439,3.439,0,0,1,3.426-3.43" transform="translate(157.417 79.748)" fill="#ffccbf" fill-rule="evenodd"/>
          </g>
          <g id="g2546" transform="translate(5.272 1.126)">
            <path id="path2548" d="M-32.641-66.651h2.882a.839.839,0,0,0,.677-.677V-70.21a3.424,3.424,0,0,1,3.415-3.415,3.424,3.424,0,0,1,3.416,3.415v2.882a.838.838,0,0,0,.68.677h2.878a3.429,3.429,0,0,1,3.419,3.415v3.562h3.559A3.424,3.424,0,0,1-8.3-56.258a3.426,3.426,0,0,1-3.415,3.415h-3.559v3.559a3.427,3.427,0,0,1-3.419,3.416H-32.641a3.424,3.424,0,0,1-3.415-3.416V-63.236a3.426,3.426,0,0,1,3.415-3.415" transform="translate(36.056 73.625)" fill="#bcf59d" fill-rule="evenodd"/>
          </g>
          <g id="g2550" transform="translate(12.432 21.211)">
            <path id="path2552" d="M-32.744,0a3.439,3.439,0,0,1,3.43,3.43c0,6.054,1.636,10.039,1.636,14.668,0,4.457-1.493,8.245-3.573,9.641V31.19h-4.919V3.43A3.439,3.439,0,0,1-32.744,0" transform="translate(36.171 0)" fill="#ffccbf" fill-rule="evenodd"/>
          </g>
          <g id="g2554" transform="translate(43.737 13.657)">
            <path id="path2556" d="M-48.414-72.194a3.439,3.439,0,0,0-3.43,3.43c0,6.054-1.636,10.039-1.636,14.668,0,4.457,1.493,8.245,3.577,9.641V-41l5.914,2.578L-38.583-41c1.4-6.43,5.084-9.036,5.084-19.308,0-10.737-4.207-19.437-9.4-19.437a4.889,4.889,0,0,0-2.087.48v10.5a3.439,3.439,0,0,0-3.43-3.43" transform="translate(53.48 79.748)" fill="#ffccbf" fill-rule="evenodd"/>
          </g>
          <g id="g2558" transform="translate(37.601 1.126)">
            <path id="path2560" d="M-165.943-66.651h-2.882a.838.838,0,0,1-.677-.677V-70.21a3.424,3.424,0,0,0-3.415-3.415,3.424,3.424,0,0,0-3.415,3.415v2.882a.838.838,0,0,1-.68.677h-2.878a3.426,3.426,0,0,0-3.415,3.415v2.882a.837.837,0,0,0,.677.68h2.882a3.424,3.424,0,0,1,3.415,3.416,3.426,3.426,0,0,1-3.415,3.415h-2.882a.838.838,0,0,0-.677.677v2.882a3.424,3.424,0,0,0,3.415,3.416h13.948a3.424,3.424,0,0,0,3.415-3.416V-63.236a3.426,3.426,0,0,0-3.415-3.415" transform="translate(183.306 73.625)" fill="#ff8895" fill-rule="evenodd"/>
          </g>
          <g id="g2562" transform="translate(43.737 21.211)">
            <path id="path2564" d="M-48.414,0a3.439,3.439,0,0,0-3.43,3.43c0,6.054-1.636,10.039-1.636,14.668,0,3.809,1.1,7.125,2.71,8.889a2.734,2.734,0,0,1,.866,2.2v2h4.919V3.43A3.439,3.439,0,0,0-48.414,0" transform="translate(53.48 0)" fill="#ffccbf" fill-rule="evenodd"/>
          </g>
          <g id="g2566" transform="translate(2.716 52.401)">
            <path id="path2568" d="M-171.555-96.794v-6.813a3.326,3.326,0,0,0-3.315-3.315h-11.32a3.326,3.326,0,0,0-3.315,3.315v6.813a1.185,1.185,0,0,0,1.013,1.01h15.924a1.193,1.193,0,0,0,1.013-1.01" transform="translate(189.506 106.922)" fill="#93ceff" fill-rule="evenodd"/>
          </g>
          <g id="g2570" transform="translate(43.998 52.401)">
            <path id="path2572" d="M0-96.794v-6.813a3.326,3.326,0,0,1,3.315-3.315H14.632a3.326,3.326,0,0,1,3.315,3.315v6.813a1.185,1.185,0,0,1-1.01,1.01H1.01A1.185,1.185,0,0,1,0-96.794" transform="translate(0 106.922)" fill="#93ceff" fill-rule="evenodd"/>
          </g>
          <g id="g2574" transform="translate(10.592 28.883)">
            <path id="path2576" d="M-17.586-57.858a.92.92,0,0,1-.92.92.92.92,0,0,1-.92-.92v-6.054h1.84Z" transform="translate(19.427 63.912)" fill="#ffb7a7"/>
          </g>
          <g id="g2578" transform="translate(52.233 28.883)">
            <path id="path2580" d="M-17.588-57.858a.92.92,0,0,1-.92.92.92.92,0,0,1-.92-.92v-6.054h1.84Z" transform="translate(19.428 63.912)" fill="#ffb7a7"/>
          </g>
          <g id="g2582" transform="translate(14.404 21.214)">
            <path id="path2584" d="M-34.192-154.173c0,3.834-1.1,7.171-2.739,8.918a3.863,3.863,0,0,0-.834,2.85v3.287h2.943v-1.923c0-1.529.43-1.375,1.654-3.333a15.176,15.176,0,0,0,1.919-7.837c0-4.629-1.636-8.614-1.636-14.668a3.44,3.44,0,0,0-3.272-3.426,3.4,3.4,0,0,1,.329,1.464c0,6.054,1.636,10.039,1.636,14.668" transform="translate(37.77 170.305)" fill="#ffb7a7" fill-rule="evenodd"/>
          </g>
          <g id="g2586" transform="translate(12.264 1.126)">
            <path id="path2588" d="M-102.473-128.58v10.887a3.424,3.424,0,0,1-3.416,3.415h3.065a3.427,3.427,0,0,0,3.419-3.415v-3.559h3.559a3.426,3.426,0,0,0,3.415-3.415,3.424,3.424,0,0,0-3.415-3.416h-3.559v-3.562a3.429,3.429,0,0,0-3.419-3.416H-105.7a.838.838,0,0,1-.68-.677v-2.882a3.424,3.424,0,0,0-3.416-3.416,3.424,3.424,0,0,0-3.4,3.079c.107-.011.222-.014.333-.014a3.424,3.424,0,0,1,3.416,3.415v2.882a.838.838,0,0,0,.68.677h2.878a3.426,3.426,0,0,1,3.416,3.415" transform="translate(113.196 142.034)" fill="#9ce79e" fill-rule="evenodd"/>
          </g>
          <g id="g2590" transform="translate(44.589 1.126)">
            <path id="path2592" d="M-102.51-128.58v10.887a3.428,3.428,0,0,1-3.083,3.4v.014h2.732a3.424,3.424,0,0,0,3.416-3.415v-13.952a3.426,3.426,0,0,0-3.416-3.416h-2.882a.838.838,0,0,1-.677-.677v-2.882a3.424,3.424,0,0,0-3.416-3.416,3.431,3.431,0,0,0-3.4,3.079c.111-.011.222-.014.336-.014a3.424,3.424,0,0,1,3.415,3.415v2.882a.838.838,0,0,0,.677.677h2.882a3.432,3.432,0,0,1,3.312,2.578,3.492,3.492,0,0,1,.1.68c0,.05,0,.1,0,.158" transform="translate(113.236 142.034)" fill="#ff6979" fill-rule="evenodd"/>
          </g>
          <g id="g2594" transform="translate(55.566 15.558)">
            <path id="path2596" d="M-48.619-167.585c0,10.271-3.688,12.878-5.087,19.308h3.068c1.4-6.43,5.084-9.036,5.084-19.308,0-7.726-2.18-14.4-5.338-17.535v4.865a33.64,33.64,0,0,1,2.273,12.67" transform="translate(53.707 185.121)" fill="#ffb7a7" fill-rule="evenodd"/>
          </g>
          <g id="g2598" transform="translate(55.566 52.401)">
            <path id="path2600" d="M-31.682-31.683v6.813a1.185,1.185,0,0,1-1.01,1.01h3.065a1.185,1.185,0,0,0,1.01-1.01v-6.813A3.326,3.326,0,0,0-31.933-35H-35a3.311,3.311,0,0,1,1.862.576,3.323,3.323,0,0,1,1.453,2.739" transform="translate(34.997 34.999)" fill="#6cc0ff" fill-rule="evenodd"/>
          </g>
          <g id="g2602" transform="translate(14.287 52.401)">
            <path id="path2604" d="M-31.65-31.683v6.813a1.185,1.185,0,0,1-1.01,1.01h3.065a1.193,1.193,0,0,0,1.013-1.01v-6.813A3.326,3.326,0,0,0-31.9-35h-3.065a3.291,3.291,0,0,1,1.858.576,3.314,3.314,0,0,1,1.454,2.739" transform="translate(34.961 34.999)" fill="#6cc0ff" fill-rule="evenodd"/>
          </g>
          <g id="g2606" transform="translate(-0.002 15.776)">
            <path id="path2608" d="M-113.911-56.008h-11.32a.949.949,0,0,1-.927-.747,29.223,29.223,0,0,0-2.062-5.811,29.624,29.624,0,0,1-3.044-13.7c0-7.085,1.65-13.263,4.526-16.952a.949.949,0,0,1,1.332-.165.949.949,0,0,1,.165,1.332c-2.583,3.312-4.124,9.213-4.124,15.785a28,28,0,0,0,2.883,12.934,33.634,33.634,0,0,1,2,5.424h9.621v-2.5a.949.949,0,0,1,.42-.788c1.856-1.246,3.153-4.887,3.153-8.854a35.258,35.258,0,0,0-.722-6.169,46.639,46.639,0,0,1-.915-8.5A2.484,2.484,0,0,0-115.4-87.2a2.482,2.482,0,0,0-2.477,2.481.949.949,0,0,1-.949.949.949.949,0,0,1-.949-.949A4.382,4.382,0,0,1-115.4-89.1a4.383,4.383,0,0,1,4.378,4.379,44.44,44.44,0,0,0,.886,8.17,36.684,36.684,0,0,1,.75,6.5c0,4.43-1.388,8.316-3.573,10.116v2.977A.949.949,0,0,1-113.911-56.008Z" transform="translate(131.264 93.582)"/>
          </g>
          <g id="g2610" transform="translate(42.788 14.609)">
            <path id="path2612" d="M-83.859-67.162H-95.18a.949.949,0,0,1-.949-.949v-2.976c-2.187-1.8-3.577-5.685-3.577-10.116a36.686,36.686,0,0,1,.75-6.5,44.444,44.444,0,0,0,.886-8.17,4.384,4.384,0,0,1,4.379-4.379,4.383,4.383,0,0,1,4.379,4.379.949.949,0,0,1-.949.949.949.949,0,0,1-.949-.949,2.484,2.484,0,0,0-2.481-2.481,2.484,2.484,0,0,0-2.481,2.481,46.643,46.643,0,0,1-.915,8.5,35.26,35.26,0,0,0-.722,6.169c0,3.967,1.3,7.608,3.156,8.853a.949.949,0,0,1,.421.788v2.5h9.621a33.633,33.633,0,0,1,2-5.424,28,28,0,0,0,2.883-12.934c0-7.181-1.986-13.8-5.059-16.863a.949.949,0,0,1,0-1.342.949.949,0,0,1,1.342,0c3.465,3.453,5.617,10.43,5.617,18.207a29.624,29.624,0,0,1-3.044,13.7,29.224,29.224,0,0,0-2.062,5.811A.949.949,0,0,1-83.859-67.162Z" transform="translate(99.705 105.902)"/>
          </g>
          <g id="g2614" transform="translate(4.323 0.178)">
            <path id="path2616" d="M-67.293-273.388h-3.086a.949.949,0,0,1-.949-.949.949.949,0,0,1,.949-.949h3.086a2.471,2.471,0,0,0,2.47-2.467v-3.559a.949.949,0,0,1,.949-.949h3.559a2.469,2.469,0,0,0,2.467-2.467,2.469,2.469,0,0,0-2.467-2.467h-3.559a.949.949,0,0,1-.949-.949V-291.7a2.471,2.471,0,0,0-2.47-2.467h-3.559a.949.949,0,0,1-.949-.949v-3.559a2.469,2.469,0,0,0-2.467-2.467,2.469,2.469,0,0,0-2.467,2.467v3.559a.949.949,0,0,1-.949.949h-3.559a2.469,2.469,0,0,0-2.467,2.467v13.952a2.469,2.469,0,0,0,2.467,2.467H-77.5a.949.949,0,0,1,.949.949.949.949,0,0,1-.949.949h-3.745a4.369,4.369,0,0,1-4.364-4.364V-291.7a4.369,4.369,0,0,1,4.364-4.364h2.61v-2.61a4.369,4.369,0,0,1,4.364-4.364,4.369,4.369,0,0,1,4.364,4.364v2.61h2.61a4.371,4.371,0,0,1,4.368,4.364v2.613h2.61a4.369,4.369,0,0,1,4.364,4.364,4.369,4.369,0,0,1-4.364,4.364h-2.61v2.61A4.371,4.371,0,0,1-67.293-273.388Z" transform="translate(85.605 303.042)"/>
          </g>
          <g id="g2618" transform="translate(36.652 0.178)">
            <path id="path2620" d="M-146.172-273.388H-148.9a.949.949,0,0,1-.949-.949.949.949,0,0,1,.949-.949h2.732a2.469,2.469,0,0,0,2.467-2.467V-291.7a2.47,2.47,0,0,0-2.467-2.467h-3.559a.949.949,0,0,1-.949-.949v-3.559a2.469,2.469,0,0,0-2.467-2.467,2.469,2.469,0,0,0-2.467,2.467v3.559a.949.949,0,0,1-.949.949h-3.559a2.469,2.469,0,0,0-2.467,2.467v2.613h2.61a4.369,4.369,0,0,1,4.364,4.364,4.369,4.369,0,0,1-4.364,4.364h-2.61v2.61a2.469,2.469,0,0,0,2.467,2.467h4.1a.949.949,0,0,1,.949.949.949.949,0,0,1-.949.949h-4.1a4.369,4.369,0,0,1-4.364-4.364v-3.559a.949.949,0,0,1,.949-.949h3.559a2.469,2.469,0,0,0,2.467-2.467,2.47,2.47,0,0,0-2.467-2.467h-3.559a.949.949,0,0,1-.949-.949V-291.7a4.369,4.369,0,0,1,4.364-4.364h2.61v-2.61a4.369,4.369,0,0,1,4.364-4.364,4.369,4.369,0,0,1,4.364,4.364v2.61h2.61a4.369,4.369,0,0,1,4.364,4.364v13.952A4.369,4.369,0,0,1-146.172-273.388Z" transform="translate(164.485 303.042)"/>
          </g>
          <g id="g2622" transform="translate(1.767 51.452)">
            <path id="path2624" d="M-108.509-114.562h-6.831a.949.949,0,0,1-.949-.949.949.949,0,0,1,.949-.949h5.882v-6.874a2.369,2.369,0,0,0-2.366-2.366h-11.32a2.369,2.369,0,0,0-2.366,2.366v6.874h5.882a.949.949,0,0,1,.949.949.949.949,0,0,1-.949.949h-6.831a.949.949,0,0,1-.949-.949v-7.823a4.269,4.269,0,0,1,4.264-4.264h11.32a4.269,4.269,0,0,1,4.264,4.264v7.823A.949.949,0,0,1-108.509-114.562Z" transform="translate(127.409 127.597)"/>
          </g>
          <g id="g2626" transform="translate(43.05 51.452)">
            <path id="path2628" d="M-63.2-114.562h-6.827a.949.949,0,0,1-.949-.949.949.949,0,0,1,.949-.949h5.879v-6.874a2.369,2.369,0,0,0-2.366-2.366H-77.828a2.369,2.369,0,0,0-2.366,2.366v6.874h5.879a.949.949,0,0,1,.949.949.949.949,0,0,1-.949.949h-6.827a.949.949,0,0,1-.949-.949v-7.823a4.269,4.269,0,0,1,4.264-4.264h11.317a4.269,4.269,0,0,1,4.264,4.264v7.823A.949.949,0,0,1-63.2-114.562Z" transform="translate(82.092 127.597)"/>
          </g>
          <g id="g2630" transform="translate(11.484 23.692)">
            <path id="path2632" d="M-9.067-106.52a.949.949,0,0,1-.949-.949v-10.3a.949.949,0,0,1,.949-.949.949.949,0,0,1,.949.949v10.3A.949.949,0,0,1-9.067-106.52Z" transform="translate(10.016 118.714)"/>
          </g>
          <g id="g2634" transform="translate(51.284 23.692)">
            <path id="path2636" d="M-9.067-106.52a.949.949,0,0,1-.949-.949v-10.3a.949.949,0,0,1,.949-.949.949.949,0,0,1,.949.949v10.3A.949.949,0,0,1-9.067-106.52Z" transform="translate(10.016 118.714)"/>
          </g>
        </g>
      </g>
    </g>
  </g>
</svg>
