<svg xmlns="http://www.w3.org/2000/svg" width="85" height="92" viewBox="0 0 85 92">
  <g id="Grupo_985861" data-name="Grupo 985861" transform="translate(-377 -2637)">
    <rect id="Rectángulo_338875" data-name="Rectángulo 338875" width="85" height="92" rx="10" transform="translate(377 2637)" fill="#ff6e33"/>
    <g id="FILLED_OUTLINE" transform="translate(348 2634)">
      <rect id="Rectángulo_344370" data-name="Rectángulo 344370" width="49" height="61" rx="16" transform="translate(45 17)" fill="#7950ea"/>
      <path id="Trazado_728395" data-name="Trazado 728395" d="M112,56h39.435v52.58H112Z" transform="translate(-62.141 -34.523)" fill="#8b74f7"/>
      <g id="Grupo_985860" data-name="Grupo 985860" transform="translate(68.481 24.763)">
        <path id="Trazado_728396" data-name="Trazado 728396" d="M248,80h16.431v2.191H248Z" transform="translate(-248 -80)" fill="#f9cb58"/>
        <path id="Trazado_728397" data-name="Trazado 728397" d="M248,216h10.954v2.191H248Z" transform="translate(-248 -197.378)" fill="#f9cb58"/>
        <path id="Trazado_728398" data-name="Trazado 728398" d="M248,320h9.859v2.191H248Z" transform="translate(-248 -287.137)" fill="#f9cb58"/>
        <path id="Trazado_728399" data-name="Trazado 728399" d="M248,112h13.145v2.191H248Z" transform="translate(-248 -107.618)" fill="#f9cb58"/>
        <path id="Trazado_728400" data-name="Trazado 728400" d="M248,184h16.431v2.191H248Z" transform="translate(-248 -169.759)" fill="#f9cb58"/>
      </g>
      <rect id="Rectángulo_344371" data-name="Rectángulo 344371" width="9" height="9" rx="4.5" transform="translate(55 26)" fill="#eab849"/>
      <path id="Trazado_728401" data-name="Trazado 728401" d="M0,0H7.746V2.191H0Z" transform="translate(57.844 30.564) rotate(-45)" fill="#f4f4f4"/>
      <rect id="Rectángulo_344372" data-name="Rectángulo 344372" width="9" height="9" rx="4.5" transform="translate(55 40)" fill="#eab849"/>
      <path id="Trazado_728402" data-name="Trazado 728402" d="M0,0H7.746V2.191H0Z" transform="translate(57.842 44.803) rotate(-45)" fill="#f4f4f4"/>
      <rect id="Rectángulo_344373" data-name="Rectángulo 344373" width="9" height="9" rx="4.5" transform="translate(55 54)" fill="#eab849"/>
      <path id="Trazado_728403" data-name="Trazado 728403" d="M277.029,191.71a2.324,2.324,0,0,0-3.286,0L248,217.452v3.286h3.286L277.029,195a2.324,2.324,0,0,0,0-3.286Z" transform="translate(-179.519 -151.063)" fill="#eab849"/>
      <path id="Trazado_728404" data-name="Trazado 728404" d="M416,194.449l3.286,3.286L422.025,195a2.324,2.324,0,0,0-3.286-3.286Z" transform="translate(-324.515 -151.063)" fill="#d3a039"/>
      <path id="Trazado_728405" data-name="Trazado 728405" d="M277.92,268.05l-.388-.194a2.191,2.191,0,0,1-1.054-2.773l3.082-7.705A2.191,2.191,0,0,1,281.594,256h5.863A6.573,6.573,0,0,1,293,259.044l5.731,9.006,7.668,7.668v13.145l-13.6-13.6a2.191,2.191,0,0,0-1.549-.642h-2.379a6.573,6.573,0,0,1-3.944-1.315l-4.774-3.581a2.425,2.425,0,0,1,2.658-4.045l4.763,2.721a1.957,1.957,0,0,0,2.6-2.784l-1.3-1.952-3.286-3.286Z" transform="translate(-203.961 -207.137)" fill="#f9cea0"/>
      <path id="Trazado_728406" data-name="Trazado 728406" d="M0,0H9.295V4.647H0Z" transform="translate(80.522 54.341) rotate(-45)" fill="#eab849"/>
      <path id="Trazado_728407" data-name="Trazado 728407" d="M65.357,209.184l-.056-.042a2.707,2.707,0,0,0-3.628.346l-7.385,8.131a1.1,1.1,0,0,1-1.906-.737V200l-2.629,1.972A4.382,4.382,0,0,0,48,205.477v35.054h9.859V229.389A7.48,7.48,0,0,1,60.05,224.1a7.48,7.48,0,0,0,2.191-5.289v-.49a2.189,2.189,0,0,1,.508-1.4l3.088-3.7a2.795,2.795,0,0,0-.479-4.031Z" transform="translate(-6.905 -158.805)" fill="#f9cea0"/>
      <path id="Trazado_728408" data-name="Trazado 728408" d="M87.291,66.389H84.912a5.512,5.512,0,0,1-3.286-1.1l-4.774-3.581A1.329,1.329,0,0,1,78.309,59.5l4.763,2.722a3.052,3.052,0,0,0,4.053-4.343l-.8-1.2,2.72-2.72L93.912,61.6l7.753,7.753,1.549-1.549-7.583-7.583-.86-1.351V48.221l3.513-3.513a3.42,3.42,0,0,0-3.513-5.658V19.286A3.29,3.29,0,0,0,91.485,16H47.668a3.29,3.29,0,0,0-3.286,3.286V40.647L42.191,42.29A5.5,5.5,0,0,0,40,46.672V81.725h2.191V46.672a3.3,3.3,0,0,1,1.314-2.629l.876-.657V58.077a2.191,2.191,0,0,0,3.813,1.473l2.743-3.019h.017v-.019l4.625-5.092a1.605,1.605,0,0,1,2.16-.206l.056.042a1.7,1.7,0,0,1,.677,1.173,1.677,1.677,0,0,1-.382,1.28C57,55.019,55.7,56.573,55,57.411a3.291,3.291,0,0,0-.762,2.1V60a6.342,6.342,0,0,1-1.87,4.515,8.519,8.519,0,0,0-2.512,6.064V81.725H52.05V79.535H91.485a3.29,3.29,0,0,0,3.286-3.286v-.642l6.893,6.893,1.549-1.549-13.6-13.6a3.265,3.265,0,0,0-2.324-.963ZM75.537,63.466l.509.382L71.314,68.58H69.576V66.843L74.4,62.015A3.518,3.518,0,0,0,75.537,63.466Zm-2-5.114,3.082-7.705a1.09,1.09,0,0,1,1.017-.689h5.731l-9.58,9.58A1.1,1.1,0,0,1,73.533,58.352Zm5.479-.944L91.485,44.935l1.737,1.737L81.244,58.65,79.4,57.594a3.5,3.5,0,0,0-.384-.186ZM85.3,59.09a.861.861,0,0,1-1.144,1.225l-.943-.539,1.527-1.527Zm7.278-3.661-1.951-3.066,1.951-1.951Zm3.286-14.368a1.228,1.228,0,0,1,.868,2.1l-1.964,1.964-1.737-1.737L95,41.422a1.22,1.22,0,0,1,.868-.36ZM46.573,58.076V19.286a1.1,1.1,0,0,1,1.1-1.1H91.485a1.1,1.1,0,0,1,1.1,1.1V40.741l-2.191,2.191V20.382H48.763V55.664Zm9.859,1.439a1.1,1.1,0,0,1,.254-.7L59.5,55.435h2.406a1.1,1.1,0,0,1,1.1,1.1v4.382a1.1,1.1,0,0,1-1.1,1.1H57.527a1.1,1.1,0,0,1-1.1-1.1ZM53.92,66.069A8.577,8.577,0,0,0,55.643,63.6a3.267,3.267,0,0,0,1.883.6h4.382a3.29,3.29,0,0,0,3.286-3.286V56.531a3.29,3.29,0,0,0-3.286-3.286H60.626a3.908,3.908,0,0,0,.023-1.07,3.86,3.86,0,0,0-1.03-2.216h2.289a3.29,3.29,0,0,0,3.286-3.286V44.481H63v2.191a1.1,1.1,0,0,1-1.1,1.1H57.527a1.1,1.1,0,0,1-1.1-1.1V42.29a1.1,1.1,0,0,1,1.1-1.1h2.191V39H57.527a3.29,3.29,0,0,0-3.286,3.286v4.382a3.276,3.276,0,0,0,.992,2.35,3.817,3.817,0,0,0-1.275.924l-3,3.306V22.573H88.2v22.55L85.331,47.99a7.639,7.639,0,0,0-1.836-.223H77.632a3.271,3.271,0,0,0-3.051,2.066L71.5,57.538c-.012.029-.02.059-.03.088H68.481v2.191h2.968a3.316,3.316,0,0,0,.787,1.268l-4.851,4.851v4.835h4.835l5.6-5.6,2.495,1.871a7.716,7.716,0,0,0,4.6,1.534h2.379a1.088,1.088,0,0,1,.774.321l.133.133v3.928H52.05V70.583A6.342,6.342,0,0,1,53.92,66.069ZM92.58,76.248a1.1,1.1,0,0,1-1.1,1.1H52.05V75.153h38.34V71.225l2.191,2.191Z"/>
      <path id="Trazado_728409" data-name="Trazado 728409" d="M154.954,85.477h-2.191v2.191a1.1,1.1,0,0,1-1.1,1.1h-4.382a1.1,1.1,0,0,1-1.1-1.1V83.286a1.1,1.1,0,0,1,1.1-1.1h2.191V80h-2.191A3.29,3.29,0,0,0,144,83.286v4.382a3.29,3.29,0,0,0,3.286,3.286h4.382a3.29,3.29,0,0,0,3.286-3.286Z" transform="translate(-89.759 -55.237)"/>
      <path id="Trazado_728410" data-name="Trazado 728410" d="M0,0H7.746V2.191H0Z" transform="translate(57.844 30.562) rotate(-45)"/>
      <path id="Trazado_728411" data-name="Trazado 728411" d="M248,80h16.431v2.191H248Z" transform="translate(-179.519 -55.237)"/>
      <path id="Trazado_728412" data-name="Trazado 728412" d="M0,0H7.746V2.191H0Z" transform="translate(57.842 44.803) rotate(-45)"/>
      <path id="Trazado_728413" data-name="Trazado 728413" d="M248,216h10.954v2.191H248Z" transform="translate(-179.519 -172.614)"/>
      <path id="Trazado_728414" data-name="Trazado 728414" d="M248,112h13.145v2.191H248Z" transform="translate(-179.519 -82.855)"/>
      <path id="Trazado_728415" data-name="Trazado 728415" d="M248,184h16.431v2.191H248Z" transform="translate(-179.519 -144.996)"/>
    </g>
  </g>
</svg>
