<svg xmlns="http://www.w3.org/2000/svg" width="85" height="92" viewBox="0 0 85 92">
  <g id="Grupo_985862" data-name="Grupo 985862" transform="translate(-692 -2637)">
    <rect id="Rectángulo_338877" data-name="Rectángulo 338877" width="85" height="92" rx="10" transform="translate(692 2637)" fill="#ff6e33"/>
    <g id="patron-de-tela" transform="translate(705 2598.378)">
      <path id="Trazado_728416" data-name="Trazado 728416" d="M158.673,212.184H124.688a1.863,1.863,0,0,1-1.863-1.863v-12.97h37.71v12.97a1.863,1.863,0,0,1-1.863,1.863Z" transform="translate(-108.53 -119.933)" fill="#0a81f9"/>
      <path id="Trazado_728417" data-name="Trazado 728417" d="M100.391,69.12c-3.706,0-6.71,4-6.71,8.927s3,8.927,6.71,8.927h34.392V69.12Z" transform="translate(-82.778 -6.625)" fill="#62b4fd"/>
      <path id="Trazado_728418" data-name="Trazado 728418" d="M128.124,69.12a20.552,20.552,0,0,0-1.97,8.927v.035a3.371,3.371,0,0,1-3.362,3.392H98.675a5.118,5.118,0,0,1-.712-.05c1,3.256,3.4,5.55,6.212,5.55h34.392V69.12Z" transform="translate(-86.562 -6.625)" fill="#27a2fb"/>
      <ellipse id="Elipse_5893" data-name="Elipse 5893" cx="6.71" cy="8.927" rx="6.71" ry="8.927" transform="translate(45.295 62.495)" fill="#89c6fc"/>
      <path id="Trazado_728419" data-name="Trazado 728419" d="M72.488,330.264H38.5A1.863,1.863,0,0,1,36.64,328.4v-12.97H74.35V328.4a1.863,1.863,0,0,1-1.863,1.863Z" transform="translate(-32.376 -224.27)" fill="#fa4954"/>
      <path id="Trazado_728420" data-name="Trazado 728420" d="M69.243,315.431v7.863a1.862,1.862,0,0,1-1.862,1.862H36.64V328.4a1.862,1.862,0,0,0,1.862,1.862H72.488A1.862,1.862,0,0,0,74.35,328.4V315.431Z" transform="translate(-32.376 -224.27)" fill="#fa2a3b"/>
      <path id="Trazado_728421" data-name="Trazado 728421" d="M14.206,187.2c-3.706,0-6.71,4-6.71,8.927s3,8.927,6.71,8.927H48.6V187.2Z" transform="translate(-6.624 -110.963)" fill="#fa989e"/>
      <path id="Trazado_728422" data-name="Trazado 728422" d="M41.94,187.2a20.553,20.553,0,0,0-1.97,8.927v.035a3.371,3.371,0,0,1-3.362,3.392H12.49a5.117,5.117,0,0,1-.712-.05c1,3.256,3.4,5.55,6.212,5.55H52.382V187.2Z" transform="translate(-10.407 -110.963)" fill="#fb636f"/>
      <ellipse id="Elipse_5894" data-name="Elipse 5894" cx="6.71" cy="8.927" rx="6.71" ry="8.927" transform="translate(35.265 76.237)" fill="#ffc3c6"/>
      <path id="Trazado_728423" data-name="Trazado 728423" d="M406.221,72.486a11.088,11.088,0,0,1,1.1,4.895c0,4.93-3,8.927-6.71,8.927a5.191,5.191,0,0,1-1.97-.392c1.2,2.428,3.263,4.032,5.61,4.032,3.706,0,6.71-4,6.71-8.927C410.961,77,408.966,73.606,406.221,72.486Z" transform="translate(-352.246 -9.6)" fill="#62b4fd"/>
      <ellipse id="Elipse_5895" data-name="Elipse 5895" cx="3.778" cy="5.027" rx="3.778" ry="5.027" transform="translate(48.227 66.395)" fill="#62b4fd"/>
      <path id="Trazado_728424" data-name="Trazado 728424" d="M440.077,120.323c-.2,3.538-1.945,6.5-4.342,7.692a2.949,2.949,0,0,0,1.293.3c2.087,0,3.778-2.25,3.778-5.026A6.174,6.174,0,0,0,440.077,120.323Z" transform="translate(-385.023 -51.869)" fill="#0a81f9"/>
      <path id="Trazado_728425" data-name="Trazado 728425" d="M320.037,190.566a11.088,11.088,0,0,1,1.1,4.895c0,4.93-3,8.927-6.71,8.927a5.191,5.191,0,0,1-1.97-.392c1.2,2.428,3.263,4.032,5.61,4.032,3.706,0,6.71-4,6.71-8.927,0-4.018-2-7.415-4.74-8.535Z" transform="translate(-276.093 -113.937)" fill="#fa989e"/>
      <ellipse id="Elipse_5896" data-name="Elipse 5896" cx="3.778" cy="5.027" rx="3.778" ry="5.027" transform="translate(38.197 80.138)" fill="#fa989e"/>
      <path id="Trazado_728426" data-name="Trazado 728426" d="M353.893,238.4c-.2,3.538-1.945,6.5-4.342,7.692a2.949,2.949,0,0,0,1.293.3c2.087,0,3.778-2.25,3.778-5.026A6.175,6.175,0,0,0,353.893,238.4Z" transform="translate(-308.87 -156.207)" fill="#fb636f"/>
      <path id="Trazado_728427" data-name="Trazado 728427" d="M57.447,64.585a6.816,6.816,0,0,0-5.442-2.963H17.613a6.816,6.816,0,0,0-5.442,2.963,11.407,11.407,0,0,0-2.14,6.837,12.341,12.341,0,0,0,.636,3.943H7.582A6.816,6.816,0,0,0,2.14,78.327,11.989,11.989,0,0,0,2.14,92a8.466,8.466,0,0,0,1.251,1.342v10.789a2.738,2.738,0,0,0,2.735,2.735H40.113a2.738,2.738,0,0,0,2.735-2.735v-.61a.873.873,0,0,0-1.745,0v.61a.991.991,0,0,1-.99.99H6.126a.991.991,0,0,1-.989-.99V94.447a6.093,6.093,0,0,0,2.446.517H41.1v4.844a.873.873,0,1,0,1.745,0V94.9a6.607,6.607,0,0,0,3.562-1.775h3.734a2.738,2.738,0,0,0,2.735-2.735V81.156a7.025,7.025,0,0,0,4.57-2.9,11.989,11.989,0,0,0,0-13.673ZM41.975,93.219H7.582c-3.219,0-5.837-3.613-5.837-8.055s2.619-8.055,5.837-8.055h8.332a.873.873,0,1,0,0-1.745H12.528a10.424,10.424,0,0,1-.752-3.943c0-4.441,2.619-8.055,5.837-8.055h30.06a8.549,8.549,0,0,0-1.11,1.218,11.408,11.408,0,0,0-2.14,6.837A12.016,12.016,0,0,0,45.5,76.48a6.24,6.24,0,0,0-3.529-1.115h-22.4a.873.873,0,1,0,0,1.745H37.643a8.555,8.555,0,0,0-1.11,1.218,11.407,11.407,0,0,0-2.14,6.837,11.765,11.765,0,0,0,1.466,5.805.873.873,0,0,0,1.518-.861,10.02,10.02,0,0,1-1.238-4.944c0-4.441,2.619-8.055,5.837-8.055s5.837,3.613,5.837,8.055-2.619,8.055-5.838,8.055Zm8.168-1.84h-2.3a11.639,11.639,0,0,0,1.713-6.215,12.017,12.017,0,0,0-1.081-5.058,6.347,6.347,0,0,0,2.657,1.05v9.233a.99.99,0,0,1-.989.99Zm1.862-11.9c-3.219,0-5.837-3.613-5.837-8.055s2.619-8.055,5.837-8.055,5.837,3.613,5.837,8.055S55.224,79.476,52.005,79.476Z"/>
      <path id="Trazado_728428" data-name="Trazado 728428" d="M411.54,95.139c-2.564,0-4.651,2.646-4.651,5.9s2.086,5.9,4.651,5.9,4.651-2.646,4.651-5.9S414.1,95.139,411.54,95.139Zm0,10.053c-1.575,0-2.906-1.9-2.906-4.154s1.331-4.154,2.906-4.154,2.906,1.9,2.906,4.154S413.115,105.192,411.54,105.192Z" transform="translate(-359.535 -29.616)"/>
      <path id="Trazado_728429" data-name="Trazado 728429" d="M439.077,134.124c-.565,0-1.024.61-1.024,1.362s.458,1.362,1.024,1.362,1.024-.61,1.024-1.362S439.642,134.124,439.077,134.124Z" transform="translate(-387.072 -64.064)"/>
      <path id="Trazado_728430" data-name="Trazado 728430" d="M325.355,213.219c-2.564,0-4.651,2.646-4.651,5.9s2.086,5.9,4.651,5.9,4.651-2.646,4.651-5.9S327.919,213.219,325.355,213.219Zm0,10.053c-1.575,0-2.906-1.9-2.906-4.154s1.331-4.154,2.906-4.154,2.906,1.9,2.906,4.154S326.93,223.272,325.355,223.272Z" transform="translate(-283.38 -133.954)"/>
      <path id="Trazado_728431" data-name="Trazado 728431" d="M352.892,252.2c-.565,0-1.024.61-1.024,1.362s.458,1.362,1.024,1.362,1.024-.61,1.024-1.362S353.457,252.2,352.892,252.2Z" transform="translate(-310.917 -168.401)"/>
    </g>
  </g>
</svg>
