<svg xmlns="http://www.w3.org/2000/svg" width="85" height="92" viewBox="0 0 85 92">
  <g id="Grupo_985864" data-name="Grupo 985864" transform="translate(-1007 -2637)">
    <rect id="Rectángulo_338879" data-name="Rectángulo 338879" width="85" height="92" rx="10" transform="translate(1007 2637)" fill="#ff6e33"/>
    <g id="_29-sewing" data-name="29-sewing" transform="translate(1017.002 2651)">
      <path id="Trazado_728432" data-name="Trazado 728432" d="M63,57v6H23V61a4,4,0,0,1,4-4Z" fill="#cfcfcf"/>
      <circle id="Elipse_5897" data-name="Elipse 5897" cx="3" cy="3" r="3" transform="translate(53 37)" fill="#58dff5"/>
      <circle id="Elipse_5898" data-name="Elipse 5898" cx="3" cy="3" r="3" transform="translate(53 47)" fill="#58dff5"/>
      <path id="Trazado_728433" data-name="Trazado 728433" d="M51,27h6v6H51Z" fill="#fb9881"/>
      <path id="Trazado_728434" data-name="Trazado 728434" d="M39,27h6v6H39Z" fill="#55d0f2"/>
      <path id="Trazado_728435" data-name="Trazado 728435" d="M39,33H59a4,4,0,0,1,4,4V57H49V43H41v2a4,4,0,0,1-4,4H33a4,4,0,0,1-4-4V37a4,4,0,0,1,4-4Zm20,7a3,3,0,1,0-3,3,3,3,0,0,0,3-3Zm0,10a3,3,0,1,0-3,3,3,3,0,0,0,3-3Z" fill="#f0f0f0"/>
      <path id="Trazado_728436" data-name="Trazado 728436" d="M59,33H56a4,4,0,0,1,4,4V57h3V37A4,4,0,0,0,59,33Z" fill="#f7f7f7"/>
      <path id="Trazado_728437" data-name="Trazado 728437" d="M29,47H19V15l4,4,5.9-6.88,1.81.65a4.858,4.858,0,0,1,3.56,2.14,4.782,4.782,0,0,1,.81,2.4L36.06,33H33a4,4,0,0,0-4,4v8a4.026,4.026,0,0,0,.48,1.9Z" fill="#fe7b83"/>
      <path id="Trazado_728438" data-name="Trazado 728438" d="M28.9,12.12,23,19l-4-4,6-4,.09-.24Z" fill="#fcfcfc"/>
      <path id="Trazado_728439" data-name="Trazado 728439" d="M25,11l-6,4-6.91-3.95,1.59-.57A2.011,2.011,0,0,0,15,8.59V8a2.006,2.006,0,0,1,2-2h4a2.006,2.006,0,0,1,2,2v.59a2.011,2.011,0,0,0,1.32,1.89l.77.28Z" fill="#e4e4e4"/>
      <path id="Trazado_728440" data-name="Trazado 728440" d="M21,47V63H17V47h4Z" fill="#adadad"/>
      <path id="Trazado_728441" data-name="Trazado 728441" d="M17,1h4V6H17Z" fill="#adadad"/>
      <path id="Trazado_728442" data-name="Trazado 728442" d="M9,44H1.25L2.92,17.31a4.782,4.782,0,0,1,.81-2.4,4.858,4.858,0,0,1,3.56-2.14l1.09-.39L15,19l4-4V47H9Z" fill="#fe7b83"/>
      <path id="Trazado_728443" data-name="Trazado 728443" d="M19,15l-4,4L8.38,12.38l3.71-1.33Z" fill="#fcfcfc"/>
      <path id="Trazado_728444" data-name="Trazado 728444" d="M9,47v1H1l.25-4H9Z" fill="#fcfcfc"/>
      <path id="Trazado_728445" data-name="Trazado 728445" d="M56,42a2.99,2.99,0,0,1-2.95-2.5A3.048,3.048,0,0,0,53,40a3,3,0,0,0,6,0,3.047,3.047,0,0,0-.05-.5A2.99,2.99,0,0,1,56,42Z" fill="#50b6f4"/>
      <path id="Trazado_728446" data-name="Trazado 728446" d="M56,52a2.99,2.99,0,0,1-2.95-2.5A3.048,3.048,0,0,0,53,50a3,3,0,0,0,6,0,3.047,3.047,0,0,0-.05-.5A2.99,2.99,0,0,1,56,52Z" fill="#50b6f4"/>
      <path id="Trazado_728447" data-name="Trazado 728447" d="M35,55l-1-6h2Z" fill="#f0f0f0"/>
      <path id="Trazado_728448" data-name="Trazado 728448" d="M49,43V57h2V45A2,2,0,0,0,49,43Z" fill="#d9d9d9"/>
      <path id="Trazado_728449" data-name="Trazado 728449" d="M32.48,46.9A4.026,4.026,0,0,1,32,45V37a4,4,0,0,1,4-4H33a4,4,0,0,0-4,4v8a4,4,0,0,0,4,4h3a4.005,4.005,0,0,1-3.52-2.1Z" fill="#cfcfcf"/>
      <path id="Trazado_728450" data-name="Trazado 728450" d="M41,43a2,2,0,0,0-2,2,4,4,0,0,1-4,4h2a4,4,0,0,0,4-4Z" fill="#d9d9d9"/>
      <path id="Trazado_728451" data-name="Trazado 728451" d="M55,29h2V27H51v6h2V31A2,2,0,0,1,55,29Z" fill="#fe7b83"/>
      <path id="Trazado_728452" data-name="Trazado 728452" d="M43,29h2V27H39v6h2V31A2,2,0,0,1,43,29Z" fill="#50b6f4"/>
      <path id="Trazado_728453" data-name="Trazado 728453" d="M30,59H63V57H27a4,4,0,0,0-4,4v2h4V62a3,3,0,0,1,3-3Z" fill="#d9d9d9"/>
      <path id="Trazado_728454" data-name="Trazado 728454" d="M19,63V51a2,2,0,0,1,2-2V47H17V63Z" fill="#848484"/>
      <path id="Trazado_728455" data-name="Trazado 728455" d="M19,1V2a2,2,0,0,0,2,2V6H17V1Z" fill="#848484"/>
      <path id="Trazado_728456" data-name="Trazado 728456" d="M1.25,44l-.125,2H5a2,2,0,0,1,2,2H9V44Z" fill="#f0f0f0"/>
      <path id="Trazado_728457" data-name="Trazado 728457" d="M19,17V47h1V18Z" fill="#ffc69e"/>
      <path id="Trazado_728458" data-name="Trazado 728458" d="M30.025,24A1.025,1.025,0,0,0,29,25.025V37a4,4,0,0,1,2.464-3.693l-.415-8.333A1.026,1.026,0,0,0,30.025,24Z" fill="#ea4e76"/>
      <path id="Trazado_728459" data-name="Trazado 728459" d="M7.975,24a1.026,1.026,0,0,0-1.024.974L6,44H9V25.025A1.025,1.025,0,0,0,7.975,24Z" fill="#ea4e76"/>
      <path id="Trazado_728460" data-name="Trazado 728460" d="M18,18V47h1V17Z" fill="#fb9881"/>
      <path id="Trazado_728461" data-name="Trazado 728461" d="M25,37V47h4l.48-.1A4.026,4.026,0,0,1,29,45V31.349A6,6,0,0,0,25,37Z" fill="#f05a7f"/>
      <path id="Trazado_728462" data-name="Trazado 728462" d="M31.35,31l.115,2.307A4,4,0,0,1,33,33h3.06l-.125-2Z" fill="#f05a7f"/>
      <path id="Trazado_728463" data-name="Trazado 728463" d="M31,31a5.971,5.971,0,0,0-2,.349V37a4,4,0,0,1,2.464-3.693L31.35,31Z" fill="#c23b5f"/>
      <path id="Trazado_728464" data-name="Trazado 728464" d="M24.32,10.48a2,2,0,0,1-.57-.33L19,13l-5.187-2.594c-.047.022-.084.056-.133.074l-1.59.57L19,15l6-4,.09-.24Z" fill="#c1c1c1"/>
      <path id="Trazado_728465" data-name="Trazado 728465" d="M22,10v1.2l1.75-1.05A2,2,0,0,1,23,8.59V8a2.006,2.006,0,0,0-2-2H17a2.006,2.006,0,0,0-2,2h5A2,2,0,0,1,22,10Z" fill="#f0f0f0"/>
      <rect id="Rectángulo_344374" data-name="Rectángulo 344374" width="2" height="3" rx="1" transform="translate(62 59) rotate(90)" fill="#e4e4e4"/>
      <rect id="Rectángulo_344375" data-name="Rectángulo 344375" width="8" height="2" rx="1" transform="translate(50 59)" fill="#e4e4e4"/>
      <rect id="Rectángulo_344376" data-name="Rectángulo 344376" width="2" height="3" rx="1" transform="translate(11 33)" fill="#fea8ad"/>
      <rect id="Rectángulo_344377" data-name="Rectángulo 344377" width="8" height="2" rx="1" transform="translate(11 45) rotate(-90)" fill="#fea8ad"/>
      <g id="Grupo_985863" data-name="Grupo 985863">
        <ellipse id="Elipse_5899" data-name="Elipse 5899" cx="1.642" cy="2.286" rx="1.642" ry="2.286" transform="translate(32.897 43.258) rotate(-45)" fill="#f6fafd"/>
        <ellipse id="Elipse_5900" data-name="Elipse 5900" cx="0.825" cy="1.148" rx="0.825" ry="1.148" transform="translate(34.278 39.497) rotate(-45)" fill="#f6fafd"/>
        <ellipse id="Elipse_5901" data-name="Elipse 5901" cx="0.825" cy="1.148" rx="0.825" ry="1.148" transform="translate(31.285 17.493) rotate(-45)" fill="#f6fafd"/>
        <ellipse id="Elipse_5902" data-name="Elipse 5902" cx="0.413" cy="0.574" rx="0.413" ry="0.574" transform="translate(31.728 15.108) rotate(-45)" fill="#f6fafd"/>
      </g>
      <path id="Trazado_728466" data-name="Trazado 728466" d="M59,32H58V28h1V26H49v2h1v4H46V28h1V26H37v2h1v4H33a5.006,5.006,0,0,0-5,5v8a5.006,5.006,0,0,0,5,5h1v5h2V50h1a5.006,5.006,0,0,0,5-5V44h6V56H27a5.006,5.006,0,0,0-5,5V48h5V46H20V17.414l2.293,2.293a.953.953,0,0,0,.745.292,1,1,0,0,0,.721-.349l5.449-6.357,1.168.42a1.026,1.026,0,0,0,.238.054,3.864,3.864,0,0,1,3.47,3.6l.793,12.7,2-.124-.793-12.7a5.863,5.863,0,0,0-5.139-5.451L24.662,9.534A1,1,0,0,1,24,8.594V8a3,3,0,0,0-2-2.816V1a1,1,0,0,0-1-1H17a1,1,0,0,0-1,1V5.184A3,3,0,0,0,14,8v.594a1,1,0,0,1-.662.94L7.059,11.791A5.863,5.863,0,0,0,1.92,17.242l-.106,1.7,2,.125.1-1.7a3.864,3.864,0,0,1,3.47-3.6,1.026,1.026,0,0,0,.238-.054l.5-.178,6.173,6.172a1,1,0,0,0,1.414,0L18,17.414V46H10V29H8V43H2.314L3.686,21.063l-2-.125L0,47.938A1,1,0,0,0,1,49H9a1,1,0,0,0,1-1h6v2h2V48h2V62H18V52H16V63a1,1,0,0,0,1,1h4a1,1,0,0,0,1-1,1,1,0,0,0,1,1H63a1,1,0,0,0,1-1V45H62V56H54v2h8v4H24V61a3,3,0,0,1,3-3H52V56H50V43a1,1,0,0,0-1-1H41a1,1,0,0,0-1,1v2a3,3,0,0,1-3,3H33a3,3,0,0,1-3-3V37a3,3,0,0,1,3-3H59a3,3,0,0,1,3,3v2h2V37A5.006,5.006,0,0,0,59,32ZM2.064,47l.125-2H8v2ZM22.943,17.529,20.57,15.155l4.84-3.226,1.785.641ZM18,2h2V5H18ZM16,8.594V8a1,1,0,0,1,1-1h4a1,1,0,0,1,1,1v.594a3,3,0,0,0,1.206,2.4L18.96,13.825l-4.537-2.592A3.008,3.008,0,0,0,16,8.594Zm-1,8.992-4.8-4.8,1.787-.642,5.379,3.074ZM52,28h4v4H52ZM40,28h4v4H40Z"/>
      <path id="Trazado_728467" data-name="Trazado 728467" d="M62,41h2v2H62Z"/>
      <path id="Trazado_728468" data-name="Trazado 728468" d="M56,36a4,4,0,1,0,4,4A4,4,0,0,0,56,36Zm0,6a2,2,0,1,1,2-2A2,2,0,0,1,56,42Z"/>
      <path id="Trazado_728469" data-name="Trazado 728469" d="M56,46a4,4,0,1,0,4,4A4,4,0,0,0,56,46Zm0,6a2,2,0,1,1,2-2A2,2,0,0,1,56,52Z"/>
      <path id="Trazado_728470" data-name="Trazado 728470" d="M28,25h2v5H28Z"/>
      <path id="Trazado_728471" data-name="Trazado 728471" d="M8,25h2v2H8Z"/>
    </g>
  </g>
</svg>
