<svg xmlns="http://www.w3.org/2000/svg" width="493.004" height="491.996" viewBox="0 0 493.004 491.996">
  <g id="Grupo_987216" data-name="Grupo 987216" transform="translate(-548.901 -1310.004)">
    <path id="Trazado_734723" data-name="Trazado 734723" d="M243,0H.074C.025,1.923,0,3.958,0,6.049A237.409,237.409,0,0,0,4.758,53.4,234.076,234.076,0,0,0,18.4,97.5,235.174,235.174,0,0,0,40,137.413a236.883,236.883,0,0,0,28.6,34.77,236.107,236.107,0,0,0,34.662,28.689,233.749,233.749,0,0,0,39.779,21.662,232.349,232.349,0,0,0,43.96,13.69,235.34,235.34,0,0,0,47.2,4.773c2.919,0,5.885-.056,8.813-.164V0Z" transform="translate(1041.905 1551.002) rotate(180)" fill="#9f0925" opacity="0.137"/>
    <path id="Trazado_734713" data-name="Trazado 734713" d="M243,241H.074C.025,239.075,0,237.04,0,234.949A237.409,237.409,0,0,1,4.758,187.6,234.114,234.114,0,0,1,40,103.585a235.8,235.8,0,0,1,63.258-63.459A232.693,232.693,0,0,1,234.189,0c2.919,0,5.885.056,8.813.164V241Z" transform="translate(1041.905 1802) rotate(180)" fill="#1448d3" opacity="0.137"/>
    <path id="Trazado_734724" data-name="Trazado 734724" d="M243,241H.074C.025,239.075,0,237.04,0,234.949A237.409,237.409,0,0,1,4.758,187.6,234.114,234.114,0,0,1,40,103.585a235.8,235.8,0,0,1,63.258-63.459A232.693,232.693,0,0,1,234.189,0c2.919,0,5.885.056,8.813.164V241Z" transform="translate(548.901 1310.004)" fill="#ff6e33" opacity="0.137"/>
    <path id="Trazado_734718" data-name="Trazado 734718" d="M243,0H.074C.025,1.923,0,3.958,0,6.049A237.409,237.409,0,0,0,4.758,53.4,234.076,234.076,0,0,0,18.4,97.5,235.175,235.175,0,0,0,40,137.413a236.883,236.883,0,0,0,28.6,34.77,236.107,236.107,0,0,0,34.662,28.689,233.749,233.749,0,0,0,39.779,21.662,232.349,232.349,0,0,0,43.96,13.69,235.34,235.34,0,0,0,47.2,4.773c2.919,0,5.885-.056,8.813-.164V0Z" transform="translate(548.901 1561.002)" fill="#0ce6ea" opacity="0.137"/>
    <path id="Trazado_734725" data-name="Trazado 734725" d="M-8448.188,11931.523h-222.743c-.044-1.755-.067-3.612-.067-5.521a215.794,215.794,0,0,1,4.363-43.225,212.974,212.974,0,0,1,12.512-40.259,214.345,214.345,0,0,1,19.8-36.435,216.5,216.5,0,0,1,26.219-31.739,216.257,216.257,0,0,1,31.782-26.189,214.575,214.575,0,0,1,36.475-19.774,213.688,213.688,0,0,1,40.307-12.5,216.727,216.727,0,0,1,43.274-4.357c2.677,0,5.4.052,8.081.15v219.848Z" transform="translate(9240.094 -10380.521)" fill="#ff6e33" opacity="0.137"/>
    <path id="Trazado_734719" data-name="Trazado 734719" d="M221.8,0H.067C.023,1.747,0,3.6,0,5.5A214.819,214.819,0,0,0,4.343,48.525,212.02,212.02,0,0,0,16.8,88.6a213.407,213.407,0,0,0,19.708,36.268,214.751,214.751,0,0,0,57.738,57.666,213.649,213.649,0,0,0,36.308,19.685,212.761,212.761,0,0,0,40.124,12.441A215.723,215.723,0,0,0,213.753,219c2.665,0,5.371-.051,8.044-.149V0Z" transform="translate(570.106 1560.002)" fill="#0ce6ea" opacity="0.137"/>
    <path id="Trazado_734726" data-name="Trazado 734726" d="M222,0H.067C.023,1.755,0,3.613,0,5.522A216.557,216.557,0,0,0,4.347,48.747,213.555,213.555,0,0,0,16.814,89.006a214.628,214.628,0,0,0,19.726,36.434,216.277,216.277,0,0,0,26.124,31.74A215.665,215.665,0,0,0,94.33,183.369a213.6,213.6,0,0,0,36.342,19.775,212.392,212.392,0,0,0,40.161,12.5A215.165,215.165,0,0,0,213.95,220c2.667,0,5.376-.051,8.052-.15V0Z" transform="translate(1020.905 1551.002) rotate(180)" fill="#9f0925" opacity="0.137"/>
    <path id="Trazado_734714" data-name="Trazado 734714" d="M221,219H.067C.023,217.251,0,215.4,0,213.5a215.564,215.564,0,0,1,4.327-43.028A212.648,212.648,0,0,1,36.375,94.129,214.366,214.366,0,0,1,93.905,36.463,211.759,211.759,0,0,1,212.987,0c2.655,0,5.352.051,8.015.149V219Z" transform="translate(1019.905 1779) rotate(180)" fill="#1448d3" opacity="0.137"/>
    <path id="Trazado_734727" data-name="Trazado 734727" d="M202,199H.063C.021,197.347,0,195.667,0,194a194.767,194.767,0,0,1,3.955-39.1A192.622,192.622,0,0,1,33.247,85.533,194.6,194.6,0,0,1,194.675,0c2.438,0,4.9.045,7.325.134V199Z" transform="translate(589.903 1352.002)" fill="#ff6e33"/>
    <path id="Trazado_734728" data-name="Trazado 734728" d="M202,0H.063C.021,1.653,0,3.333,0,5A194.746,194.746,0,0,0,3.955,44.1,192.531,192.531,0,0,0,15.3,80.511a193.878,193.878,0,0,0,17.948,32.955,195.589,195.589,0,0,0,23.772,28.711,195.973,195.973,0,0,0,28.811,23.69A194.974,194.974,0,0,0,118.9,183.754a194.179,194.179,0,0,0,36.542,11.3A196.729,196.729,0,0,0,194.676,199c2.437,0,4.9-.045,7.324-.134V0Z" transform="translate(1000.903 1551.002) rotate(180)" fill="#9f0925"/>
    <path id="Trazado_734732" data-name="Trazado 734732" d="M14.7-17.534V0H4.443V-49.766H23.857a22.461,22.461,0,0,1,9.861,2.051,15.112,15.112,0,0,1,6.545,5.828,16.249,16.249,0,0,1,2.29,8.6q0,7.314-5.007,11.536t-13.86,4.221Zm0-8.306h9.16q4.067,0,6.2-1.914A6.962,6.962,0,0,0,32.2-33.223a8.209,8.209,0,0,0-2.153-5.913A8.044,8.044,0,0,0,24.1-41.46H14.7Z" transform="translate(702.903 1486.002)" fill="#fff"/>
    <path id="Trazado_734731" data-name="Trazado 734731" d="M44.946,0H34.692V-21.328h-20V0H4.443V-49.766H14.7V-29.6h20V-49.766H44.946Z" transform="translate(843.903 1492.002)" fill="#fff"/>
    <path id="Trazado_734720" data-name="Trazado 734720" d="M202,0H.063C.021,1.653,0,3.333,0,5A194.746,194.746,0,0,0,3.955,44.1,192.531,192.531,0,0,0,15.3,80.511a193.878,193.878,0,0,0,17.948,32.955,195.589,195.589,0,0,0,23.772,28.711,195.973,195.973,0,0,0,28.811,23.69A194.974,194.974,0,0,0,118.9,183.754a194.179,194.179,0,0,0,36.542,11.3A196.729,196.729,0,0,0,194.676,199c2.437,0,4.9-.045,7.324-.134V0Z" transform="translate(589.903 1560.002)" fill="#0ce6ea"/>
    <path id="Trazado_734715" data-name="Trazado 734715" d="M202,199H.063C.021,197.347,0,195.667,0,194a194.746,194.746,0,0,1,3.955-39.1A192.616,192.616,0,0,1,33.247,85.533,194.6,194.6,0,0,1,194.676,0c2.437,0,4.9.045,7.324.134V199Z" transform="translate(1000.903 1759.002) rotate(180)" fill="#5281ff"/>
    <path id="Trazado_734722" data-name="Trazado 734722" d="M32.539-10.254H14.561L11.143,0H.239L18.765-49.766h9.5L46.895,0h-10.9ZM17.329-18.56H29.771L23.516-37.187Z" transform="translate(702.903 1636.002)" fill="#12263f"/>
    <path id="Trazado_734716" data-name="Trazado 734716" d="M22.832-12.339,34.111-49.766H45.527L28.2,0H17.5L.239-49.766H11.621Z" transform="translate(838.903 1630.002)" fill="#fff"/>
    <path id="Trazado_734730" data-name="Trazado 734730" d="M6.78,14.658V19H3.7V6.2H8.8a5.948,5.948,0,0,1,2.6.541,4.074,4.074,0,0,1,1.749,1.538,4.2,4.2,0,0,1,.62,2.263,3.7,3.7,0,0,1-1.34,2.993,5.561,5.561,0,0,1-3.678,1.121Zm0-2.382H8.8a1.906,1.906,0,0,0,1.367-.448,1.665,1.665,0,0,0,.47-1.266,2.059,2.059,0,0,0-.483-1.433,1.712,1.712,0,0,0-1.318-.545H6.78ZM18.4,19H15.429V5.5H18.4Zm7.181,0a3.344,3.344,0,0,1-.281-.853,2.754,2.754,0,0,1-2.285,1.028,3.374,3.374,0,0,1-2.285-.813,2.588,2.588,0,0,1-.94-2.043,2.66,2.66,0,0,1,1.143-2.338,5.821,5.821,0,0,1,3.322-.791h.914v-.5q0-1.316-1.134-1.316a.927.927,0,0,0-1.055,1.042H20.017a2.655,2.655,0,0,1,1.173-2.239,4.931,4.931,0,0,1,2.993-.86,4.323,4.323,0,0,1,2.874.888,3.086,3.086,0,0,1,1.081,2.435v4.21a4.311,4.311,0,0,0,.4,2V19Zm-1.854-1.934a1.652,1.652,0,0,0,.918-.237,1.487,1.487,0,0,0,.523-.536V14.772h-.861q-1.547,0-1.547,1.389a.848.848,0,0,0,.272.655A.986.986,0,0,0,23.726,17.066ZM32.5,9.49l.1,1.116A3.225,3.225,0,0,1,35.31,9.314a2.713,2.713,0,0,1,2.219.888,4.226,4.226,0,0,1,.76,2.672V19H35.318V13a1.6,1.6,0,0,0-.29-1.059,1.342,1.342,0,0,0-1.055-.338,1.413,1.413,0,0,0-1.292.686V19H29.72V9.49Zm12.032,9.686a4.889,4.889,0,0,1-3.542-1.305,4.507,4.507,0,0,1-1.354-3.4v-.246a5.84,5.84,0,0,1,.541-2.575,3.955,3.955,0,0,1,1.578-1.727,4.763,4.763,0,0,1,2.461-.611,4.117,4.117,0,0,1,3.164,1.244,4.887,4.887,0,0,1,1.16,3.467v1.151H42.648a2.135,2.135,0,0,0,.694,1.257,2.066,2.066,0,0,0,1.389.457,2.662,2.662,0,0,0,2.2-.984l1.354,1.6a3.784,3.784,0,0,1-1.569,1.217A5.3,5.3,0,0,1,44.529,19.176ZM44.2,11.6q-1.3,0-1.547,1.723h2.988v-.229a1.467,1.467,0,0,0-.36-1.1A1.434,1.434,0,0,0,44.2,11.6ZM55.085,19a3.344,3.344,0,0,1-.281-.853,2.754,2.754,0,0,1-2.285,1.028,3.374,3.374,0,0,1-2.285-.813,2.588,2.588,0,0,1-.94-2.043,2.66,2.66,0,0,1,1.143-2.338,5.821,5.821,0,0,1,3.322-.791h.914v-.5q0-1.316-1.134-1.316a.927.927,0,0,0-1.055,1.042H49.521a2.655,2.655,0,0,1,1.173-2.239,4.931,4.931,0,0,1,2.993-.86,4.323,4.323,0,0,1,2.874.888,3.086,3.086,0,0,1,1.081,2.435v4.21a4.311,4.311,0,0,0,.4,2V19ZM53.23,17.066a1.652,1.652,0,0,0,.918-.237,1.487,1.487,0,0,0,.523-.536V14.772h-.861q-1.547,0-1.547,1.389a.848.848,0,0,0,.272.655A.986.986,0,0,0,53.23,17.066Zm11.8-4.9-.976-.07a1.752,1.752,0,0,0-1.793.879V19H59.3V9.49h2.777l.1,1.222a2.294,2.294,0,0,1,2.083-1.4,2.888,2.888,0,0,1,.826.105Z" transform="translate(690.903 1494.002)" fill="#fff"/>
    <path id="Trazado_734729" data-name="Trazado 734729" d="M14.077,19H11.009V13.656H6.465V19H3.38V6.2H6.465v5.08h4.544V6.2h3.067Zm7.172,0a3.344,3.344,0,0,1-.281-.853,2.754,2.754,0,0,1-2.285,1.028,3.374,3.374,0,0,1-2.285-.813,2.588,2.588,0,0,1-.94-2.043A2.66,2.66,0,0,1,16.6,13.981a5.821,5.821,0,0,1,3.322-.791h.914v-.5q0-1.316-1.134-1.316a.927.927,0,0,0-1.055,1.042H15.685a2.655,2.655,0,0,1,1.173-2.239,4.931,4.931,0,0,1,2.993-.86,4.323,4.323,0,0,1,2.874.888,3.086,3.086,0,0,1,1.081,2.435v4.21a4.311,4.311,0,0,0,.4,2V19Zm-1.854-1.934a1.652,1.652,0,0,0,.918-.237,1.487,1.487,0,0,0,.523-.536V14.772h-.861q-1.547,0-1.547,1.389a.848.848,0,0,0,.272.655A.986.986,0,0,0,19.394,17.066Zm10.072-.176a1.317,1.317,0,0,0,.967-.338,1.241,1.241,0,0,0,.334-.945h2.777a3.288,3.288,0,0,1-1.121,2.566,4.168,4.168,0,0,1-2.887,1,4.22,4.22,0,0,1-3.27-1.3,5.125,5.125,0,0,1-1.2-3.6v-.123A5.792,5.792,0,0,1,25.6,11.6a3.872,3.872,0,0,1,1.534-1.7,4.573,4.573,0,0,1,2.373-.593,4.116,4.116,0,0,1,2.944,1.028,3.647,3.647,0,0,1,1.09,2.786H30.767A1.626,1.626,0,0,0,30.407,12a1.244,1.244,0,0,0-.967-.4q-1.151,0-1.345,1.468a10.357,10.357,0,0,0-.062,1.283,4.068,4.068,0,0,0,.343,1.986A1.187,1.187,0,0,0,29.466,16.891ZM39.4,19.176a4.889,4.889,0,0,1-3.542-1.305,4.507,4.507,0,0,1-1.354-3.4v-.246a5.84,5.84,0,0,1,.541-2.575,3.955,3.955,0,0,1,1.578-1.727,4.763,4.763,0,0,1,2.461-.611,4.117,4.117,0,0,1,3.164,1.244,4.887,4.887,0,0,1,1.16,3.467v1.151H37.517a2.135,2.135,0,0,0,.694,1.257,2.066,2.066,0,0,0,1.389.457,2.662,2.662,0,0,0,2.2-.984l1.354,1.6a3.784,3.784,0,0,1-1.569,1.217A5.3,5.3,0,0,1,39.4,19.176ZM39.064,11.6q-1.3,0-1.547,1.723h2.988v-.229a1.467,1.467,0,0,0-.36-1.1A1.434,1.434,0,0,0,39.064,11.6Zm11.285.571-.976-.07a1.752,1.752,0,0,0-1.793.879V19H44.619V9.49H47.4l.1,1.222a2.294,2.294,0,0,1,2.083-1.4,2.888,2.888,0,0,1,.826.105Z" transform="translate(841.903 1500.002)" fill="#fff"/>
    <path id="Trazado_734717" data-name="Trazado 734717" d="M9.618,15.52,12.167,6.2h3.445L11.306,19H7.931L3.659,6.2H7.078Zm11.391,3.656a4.889,4.889,0,0,1-3.542-1.305,4.507,4.507,0,0,1-1.354-3.4v-.246a5.84,5.84,0,0,1,.541-2.575,3.955,3.955,0,0,1,1.578-1.727,4.763,4.763,0,0,1,2.461-.611,4.117,4.117,0,0,1,3.164,1.244,4.887,4.887,0,0,1,1.16,3.467v1.151H19.128a2.135,2.135,0,0,0,.694,1.257,2.066,2.066,0,0,0,1.389.457,2.662,2.662,0,0,0,2.2-.984l1.354,1.6a3.784,3.784,0,0,1-1.569,1.217A5.3,5.3,0,0,1,21.009,19.176ZM20.675,11.6q-1.3,0-1.547,1.723h2.988v-.229a1.467,1.467,0,0,0-.36-1.1A1.434,1.434,0,0,0,20.675,11.6Zm11.285.571-.976-.07a1.752,1.752,0,0,0-1.793.879V19H26.229V9.49h2.777l.1,1.222a2.294,2.294,0,0,1,2.083-1.4,2.888,2.888,0,0,1,.826.105ZM36.152,19H33.182V9.49h2.971ZM33.006,7.038A1.322,1.322,0,0,1,33.463,6a1.943,1.943,0,0,1,2.373,0,1.322,1.322,0,0,1,.457,1.037,1.322,1.322,0,0,1-.457,1.037,1.943,1.943,0,0,1-2.373,0A1.322,1.322,0,0,1,33.006,7.038ZM38.666,19V11.547h-1.38V9.49h1.38V9.174a3.631,3.631,0,0,1,1.248-2.909,4.987,4.987,0,0,1,3.243-.949,11.509,11.509,0,0,1,3.094.51l-.4,2.338-.492-.132a7.832,7.832,0,0,0-2.021-.255q-1.7,0-1.7,1.547V9.49H43.5v2.057H41.637V19Zm8.947,0H44.634V9.49h2.979Zm5.827-2.109a1.317,1.317,0,0,0,.967-.338,1.241,1.241,0,0,0,.334-.945h2.777A3.288,3.288,0,0,1,56.4,18.174a4.168,4.168,0,0,1-2.887,1,4.22,4.22,0,0,1-3.27-1.3,5.125,5.125,0,0,1-1.2-3.6v-.123a5.792,5.792,0,0,1,.532-2.544,3.872,3.872,0,0,1,1.534-1.7,4.573,4.573,0,0,1,2.373-.593,4.116,4.116,0,0,1,2.944,1.028,3.647,3.647,0,0,1,1.09,2.786H54.741A1.626,1.626,0,0,0,54.381,12a1.244,1.244,0,0,0-.967-.4q-1.151,0-1.345,1.468a10.357,10.357,0,0,0-.062,1.283,4.068,4.068,0,0,0,.343,1.986A1.187,1.187,0,0,0,53.44,16.891ZM64.128,19a3.344,3.344,0,0,1-.281-.853,2.754,2.754,0,0,1-2.285,1.028,3.374,3.374,0,0,1-2.285-.813,2.588,2.588,0,0,1-.94-2.043,2.66,2.66,0,0,1,1.143-2.338A5.821,5.821,0,0,1,62.8,13.19h.914v-.5q0-1.316-1.134-1.316a.927.927,0,0,0-1.055,1.042H58.564a2.655,2.655,0,0,1,1.173-2.239,4.931,4.931,0,0,1,2.993-.86A4.323,4.323,0,0,1,65.6,10.2a3.086,3.086,0,0,1,1.081,2.435v4.21a4.311,4.311,0,0,0,.4,2V19Zm-1.854-1.934a1.652,1.652,0,0,0,.918-.237,1.487,1.487,0,0,0,.523-.536V14.772h-.861q-1.547,0-1.547,1.389a.848.848,0,0,0,.272.655A.986.986,0,0,0,62.273,17.066Zm11.8-4.9L73.1,12.1a1.752,1.752,0,0,0-1.793.879V19H68.347V9.49h2.777l.1,1.222a2.294,2.294,0,0,1,2.083-1.4,2.888,2.888,0,0,1,.826.105Z" transform="translate(821.903 1639.002)" fill="#fff"/>
    <path id="Trazado_734721" data-name="Trazado 734721" d="M15.077,16.609H10.85L10.111,19h-3.3L11.509,6.2h2.9L19.138,19H15.824Zm-3.489-2.382h2.751l-1.38-4.438Zm12.366,2.663a1.317,1.317,0,0,0,.967-.338,1.241,1.241,0,0,0,.334-.945h2.777a3.288,3.288,0,0,1-1.121,2.566,4.168,4.168,0,0,1-2.887,1,4.22,4.22,0,0,1-3.27-1.3,5.125,5.125,0,0,1-1.2-3.6v-.123a5.792,5.792,0,0,1,.532-2.544,3.872,3.872,0,0,1,1.534-1.7A4.573,4.573,0,0,1,24,9.314a4.116,4.116,0,0,1,2.944,1.028,3.647,3.647,0,0,1,1.09,2.786H25.255A1.626,1.626,0,0,0,24.895,12a1.244,1.244,0,0,0-.967-.4q-1.151,0-1.345,1.468a10.357,10.357,0,0,0-.062,1.283,4.068,4.068,0,0,0,.343,1.986A1.187,1.187,0,0,0,23.954,16.891Zm8.78-9.765V9.49H34.3v2.057H32.734V15.9a1.111,1.111,0,0,0,.193.747,1.037,1.037,0,0,0,.765.211,4.345,4.345,0,0,0,.738-.053v2.118a5.466,5.466,0,0,1-1.67.255,3.1,3.1,0,0,1-2.259-.721,2.954,2.954,0,0,1-.729-2.188v-4.72H28.56V9.49h1.213V7.126Zm8.394,10.846a3.054,3.054,0,0,1-2.54,1.2,3,3,0,0,1-2.369-.91,3.826,3.826,0,0,1-.8-2.615V9.49h2.962v6.179a1.065,1.065,0,0,0,1.187,1.222,1.548,1.548,0,0,0,1.45-.729V9.49h2.979V19H41.216ZM50.972,19a3.344,3.344,0,0,1-.281-.853,2.754,2.754,0,0,1-2.285,1.028,3.374,3.374,0,0,1-2.285-.813,2.588,2.588,0,0,1-.94-2.043,2.66,2.66,0,0,1,1.143-2.338,5.821,5.821,0,0,1,3.322-.791h.914v-.5q0-1.316-1.134-1.316a.927.927,0,0,0-1.055,1.042H45.408a2.655,2.655,0,0,1,1.173-2.239,4.931,4.931,0,0,1,2.993-.86,4.323,4.323,0,0,1,2.874.888,3.086,3.086,0,0,1,1.081,2.435v4.21a4.311,4.311,0,0,0,.4,2V19Zm-1.854-1.934a1.652,1.652,0,0,0,.918-.237,1.487,1.487,0,0,0,.523-.536V14.772H49.7q-1.547,0-1.547,1.389a.848.848,0,0,0,.272.655A.986.986,0,0,0,49.117,17.066Zm11.8-4.9-.976-.07a1.752,1.752,0,0,0-1.793.879V19H55.19V9.49h2.777l.1,1.222a2.294,2.294,0,0,1,2.083-1.4,2.888,2.888,0,0,1,.826.105Z" transform="translate(690.903 1645.002)" fill="#12263f"/>
    <path id="Trazado_734733" data-name="Trazado 734733" d="M46,0A46,46,0,1,1,0,46,46,46,0,0,1,46,0Z" transform="translate(611 1373)" fill="#fff"/>
    <g id="Layer_32" data-name="Layer 32" transform="translate(628 1390)">
      <path id="Trazado_728472" data-name="Trazado 728472" d="M52,6h8.968v5.381l-2.69.9v2.69H52Z" transform="translate(-5.266 -0.516)" fill="#f19537"/>
      <path id="Trazado_728473" data-name="Trazado 728473" d="M52,20h8.968v5.381l-2.69.9v2.69H52Z" transform="translate(-5.266 -1.962)" fill="#82d055"/>
      <path id="Trazado_728474" data-name="Trazado 728474" d="M2,4.69A2.69,2.69,0,0,1,4.69,2H48.631V50.425l-2.69,2.69,2.69,2.69H4.69A2.69,2.69,0,0,1,2,53.115Z" transform="translate(-0.103 -0.103)" fill="#4da8e2"/>
      <path id="Trazado_728475" data-name="Trazado 728475" d="M2,4.69V53.115a2.668,2.668,0,0,0,.109.717l6.169-3.408V2H4.69A2.69,2.69,0,0,0,2,4.69Z" transform="translate(-0.103 -0.103)" fill="#3a64db"/>
      <path id="Trazado_728476" data-name="Trazado 728476" d="M14,15.023A30.918,30.918,0,0,0,44.918,45.941H49.87V2H14Z" transform="translate(-1.342 -0.103)" fill="#68c1f7"/>
      <path id="Trazado_728477" data-name="Trazado 728477" d="M4.69,61.381H48.631l-2.69-2.69L48.631,56H4.69a2.69,2.69,0,0,0,0,5.381Z" transform="translate(-0.103 -5.679)" fill="#abe7ff"/>
      <g id="Grupo_985865" data-name="Grupo 985865" transform="translate(12.658 18.038)">
        <path id="Trazado_728478" data-name="Trazado 728478" d="M14,41.522l8.968-8.071L28.8,39.28l13-13,2.69,2.69.9-8.968-8.968.9,2.69,2.69L28.8,33.9l-5.829-5.829L14,36.142Z" transform="translate(-14 -20)" fill="#ec525b"/>
        <path id="Trazado_728479" data-name="Trazado 728479" d="M18.484,51.277V45L14,48.587v2.69Z" transform="translate(-14 -22.581)" fill="#ec525b"/>
        <path id="Trazado_728480" data-name="Trazado 728480" d="M23,41v9.864h4.484V45.484Z" transform="translate(-14.929 -22.168)" fill="#ec525b"/>
        <path id="Trazado_728481" data-name="Trazado 728481" d="M36.484,41v9.864H32V45.484Z" transform="translate(-15.858 -22.168)" fill="#ec525b"/>
        <path id="Trazado_728482" data-name="Trazado 728482" d="M41,36.484V49.935h4.484V32Z" transform="translate(-16.788 -21.239)" fill="#ec525b"/>
      </g>
      <path id="Trazado_728483" data-name="Trazado 728483" d="M18.484,5H14.9a.9.9,0,0,0-.9.9v7.174h1.794v-2.69h2.69a2.69,2.69,0,0,0,0-5.381Zm0,3.587h-2.69V6.794h2.69a.9.9,0,1,1,0,1.794Z" transform="translate(-1.342 -0.413)" fill="#f2f2f2"/>
      <path id="Trazado_728484" data-name="Trazado 728484" d="M24.794,5H23v7.174a.9.9,0,0,0,.9.9h4.484V11.277H24.794Z" transform="translate(-2.271 -0.413)" fill="#f2f2f2"/>
      <path id="Trazado_728485" data-name="Trazado 728485" d="M33.587,5A3.587,3.587,0,0,0,30,8.587v4.484h1.793V11.277h3.587v1.794h1.794V8.587A3.587,3.587,0,0,0,33.587,5ZM31.794,9.484v-.9a1.794,1.794,0,1,1,3.587,0v.9Z" transform="translate(-2.994 -0.413)" fill="#f2f2f2"/>
      <path id="Trazado_728486" data-name="Trazado 728486" d="M46.277,5v6.1a.19.19,0,0,1-.353.072L43.8,6.2a1.977,1.977,0,0,0-3.8.778v6.093h1.794V6.977a.19.19,0,0,1,.353-.072l2.129,4.966a1.977,1.977,0,0,0,3.8-.774V5Z" transform="translate(-4.027 -0.413)" fill="#f2f2f2"/>
      <path id="Trazado_728487" data-name="Trazado 728487" d="M13.532,42.238a.9.9,0,0,0,.965-.153l8.335-7.5,5.227,5.227a.9.9,0,0,0,1.268,0L41.7,27.441,43.752,29.5a.9.9,0,0,0,1.531-.544l.9-8.968A.9.9,0,0,0,45.2,19l-8.968.9a.9.9,0,0,0-.544,1.524l2.052,2.063-9.045,9.045L23.5,27.333a.9.9,0,0,0-1.234-.032L13.3,35.371a.9.9,0,0,0-.3.666v5.381a.9.9,0,0,0,.532.82Zm1.262-5.8L22.832,29.2l5.227,5.227a.9.9,0,0,0,1.268,0L39.64,24.117a.9.9,0,0,0,0-1.268L38.288,21.5l5.994-.6-.6,5.993L42.33,25.539a.9.9,0,0,0-1.268,0L28.693,37.908,23.5,32.714a.9.9,0,0,0-1.234-.032l-7.471,6.724Z" transform="translate(-1.239 -1.858)"/>
      <path id="Trazado_728488" data-name="Trazado 728488" d="M13.9,52.071h4.484a.9.9,0,0,0,.9-.9V44.9a.9.9,0,0,0-1.457-.7l-4.484,3.587a.9.9,0,0,0-.336.7v2.69A.9.9,0,0,0,13.9,52.071Zm.9-3.157,2.69-2.152v3.515h-2.69Z" transform="translate(-1.239 -4.44)"/>
      <path id="Trazado_728489" data-name="Trazado 728489" d="M23.531,40.263A.9.9,0,0,0,22,40.9v9.864a.9.9,0,0,0,.9.9h4.484a.9.9,0,0,0,.9-.9V45.381a.9.9,0,0,0-.263-.634Zm2.953,9.6h-2.69v-6.8l2.69,2.69Z" transform="translate(-2.168 -4.027)"/>
      <path id="Trazado_728490" data-name="Trazado 728490" d="M36.724,40.068a.9.9,0,0,0-.977.195l-4.484,4.484A.9.9,0,0,0,31,45.38v5.381a.9.9,0,0,0,.9.9h4.484a.9.9,0,0,0,.9-.9V40.9A.9.9,0,0,0,36.724,40.068Zm-1.24,9.8h-2.69V45.752l2.69-2.69Z" transform="translate(-3.097 -4.027)"/>
      <path id="Trazado_728491" data-name="Trazado 728491" d="M45.724,31.068a.9.9,0,0,0-.977.195l-4.484,4.484a.9.9,0,0,0-.263.634V49.832a.9.9,0,0,0,.9.9h4.484a.9.9,0,0,0,.9-.9V31.9A.9.9,0,0,0,45.724,31.068Zm-1.24,17.867h-2.69V36.752l2.69-2.69Z" transform="translate(-4.027 -3.097)"/>
      <path id="Trazado_728492" data-name="Trazado 728492" d="M15.794,10.381h2.69a2.69,2.69,0,0,0,0-5.381H14.9a.9.9,0,0,0-.9.9v7.174h1.794Zm0-3.587h2.69a.9.9,0,1,1,0,1.794h-2.69Z" transform="translate(-1.342 -0.413)"/>
      <path id="Trazado_728493" data-name="Trazado 728493" d="M23.9,13.071h4.484V11.277H24.794V5H23v7.174A.9.9,0,0,0,23.9,13.071Z" transform="translate(-2.271 -0.413)"/>
      <path id="Trazado_728494" data-name="Trazado 728494" d="M31.794,11.277h3.587v1.794h1.794V8.587a3.587,3.587,0,1,0-7.174,0v4.484h1.793Zm1.794-4.484a1.794,1.794,0,0,1,1.794,1.794v.9H31.794v-.9A1.794,1.794,0,0,1,33.587,6.794Z" transform="translate(-2.994 -0.413)"/>
      <path id="Trazado_728495" data-name="Trazado 728495" d="M41.794,6.977a.19.19,0,0,1,.353-.072l2.129,4.966a1.977,1.977,0,0,0,3.8-.774V5H46.277v6.1a.19.19,0,0,1-.353.072L43.8,6.2a1.977,1.977,0,0,0-3.8.778v6.093h1.794Z" transform="translate(-4.027 -0.413)"/>
      <path id="Trazado_728496" data-name="Trazado 728496" d="M55.7,4.587H49.425V1.9a.9.9,0,0,0-.9-.9H4.587A3.587,3.587,0,0,0,1,4.587V53.012A3.587,3.587,0,0,0,4.587,56.6H48.528a.9.9,0,0,0,.634-1.531l-2.056-2.056,2.056-2.056a.9.9,0,0,0,.263-.634V27.9h3.587a.9.9,0,0,0,.9-.9V24.962l2.077-.692a.9.9,0,0,0,.613-.851V18.038a.9.9,0,0,0-.9-.9H49.425V15.348h3.587a.9.9,0,0,0,.9-.9V12.408l2.077-.692a.9.9,0,0,0,.613-.851V5.484a.9.9,0,0,0-.9-.9ZM47.631,49.425H9.071V2.794h38.56ZM4.587,2.794h2.69V49.425H4.587a3.55,3.55,0,0,0-1.794.5V4.587A1.794,1.794,0,0,1,4.587,2.794Zm0,52.012a1.794,1.794,0,0,1,0-3.587H46.363l-1.16,1.16a.9.9,0,0,0,0,1.268l1.16,1.16Zm50.218-35.87v3.837l-2.077.692a.9.9,0,0,0-.613.851v1.794h-2.69V18.935Zm0-8.717-2.077.692a.9.9,0,0,0-.613.851v1.794h-2.69V6.381h5.381Z"/>
    </g>
    <g id="Grupo_985866" data-name="Grupo 985866">
      <ellipse id="Elipse_4740" data-name="Elipse 4740" cx="46" cy="46" rx="46" ry="46" transform="translate(900 1373)" fill="#fff"/>
      <g id="planificacion" transform="translate(914 1387)">
        <g id="Grupo_985890" data-name="Grupo 985890">
          <g id="Grupo_985880" data-name="Grupo 985880">
            <path id="Trazado_728508" data-name="Trazado 728508" d="M60,56H4a2,2,0,0,1-2-2V20H62V54A2,2,0,0,1,60,56Z" fill="#e6e9ed"/>
          </g>
          <g id="Grupo_985881" data-name="Grupo 985881">
            <path id="Trazado_728509" data-name="Trazado 728509" d="M60,8H4a2.006,2.006,0,0,0-2,2V20H62V10A2.006,2.006,0,0,0,60,8Z" fill="#b4dd7f"/>
          </g>
          <g id="Grupo_985882" data-name="Grupo 985882">
            <path id="Trazado_728510" data-name="Trazado 728510" d="M57,56l1,6H47l1-6,1-6h7Z" fill="#b4dd7f"/>
          </g>
          <g id="Grupo_985883" data-name="Grupo 985883">
            <path id="Trazado_728511" data-name="Trazado 728511" d="M49,50H37a1,1,0,0,1-1-1V41a1,1,0,0,1,1-1H47a1,1,0,0,0-1,1v3.39A6.768,6.768,0,0,0,49,50Z" fill="#fcd770"/>
          </g>
          <g id="Grupo_985884" data-name="Grupo 985884">
            <path id="Trazado_728512" data-name="Trazado 728512" d="M58,27V37H54V34a2.015,2.015,0,0,0-2-2,2.006,2.006,0,0,0-2,2v3H46V27a1,1,0,0,1,1-1H57A1,1,0,0,1,58,27Z" fill="#ff826e"/>
          </g>
          <g id="Grupo_985885" data-name="Grupo 985885">
            <path id="Trazado_728513" data-name="Trazado 728513" d="M18,2l-.75,6L16,18H9L7.75,8,7,2Z" fill="#fcd770"/>
          </g>
          <g id="Grupo_985886" data-name="Grupo 985886">
            <path id="Trazado_728514" data-name="Trazado 728514" d="M58,44v1.17A6.835,6.835,0,0,1,56,50H49a6.768,6.768,0,0,1-3-5.61V41a1,1,0,0,1,1-1,3,3,0,0,1,3,3V34a2.006,2.006,0,0,1,2-2,2.015,2.015,0,0,1,2,2v6a3.995,3.995,0,0,1,4,4Z" fill="#f0d0b4"/>
          </g>
          <g id="Grupo_985887" data-name="Grupo 985887">
            <path id="Trazado_728515" data-name="Trazado 728515" d="M28,31v8a1,1,0,0,1-1,1H19a1,1,0,0,1-1-1V31a1,1,0,0,1,1-1h8A1,1,0,0,1,28,31Z" fill="#ff826e"/>
          </g>
          <g id="Grupo_985888" data-name="Grupo 985888">
            <path id="Trazado_728516" data-name="Trazado 728516" d="M20,44v3a1,1,0,0,1-1,1H7a1,1,0,0,1-1-1V35a1,1,0,0,1,1-1h3a2.006,2.006,0,0,0,2,2,2.015,2.015,0,0,0,2-2h4v5a1,1,0,0,0,1,1h1Z" fill="#fcd770"/>
          </g>
          <g id="Grupo_985889" data-name="Grupo 985889">
            <path id="Trazado_728517" data-name="Trazado 728517" d="M18,22.83V24a3.995,3.995,0,0,1-4,4v6a2.015,2.015,0,0,1-2,2,2.006,2.006,0,0,1-2-2V25a3,3,0,0,1-3,3,1,1,0,0,1-1-1V23.61A6.763,6.763,0,0,1,9,18h7a6.9,6.9,0,0,1,2,4.83Z" fill="#f0d0b4"/>
          </g>
        </g>
        <g id="Grupo_985891" data-name="Grupo 985891">
          <path id="Trazado_728518" data-name="Trazado 728518" d="M60,7H18.383l.75-6H5.867l.75,6H4a3,3,0,0,0-3,3V54a3,3,0,0,0,3,3H46.82l-1,6H59.181l-1-6H60a3,3,0,0,0,3-3V10A3,3,0,0,0,60,7Zm1,3v9H33V9H60A1,1,0,0,1,61,10ZM31,9V19H18a7.852,7.852,0,0,0-.947-1.33L18.133,9ZM19,41v6H7V35H9.184a2.982,2.982,0,0,0,5.632,0H17v4A2,2,0,0,0,19,41Zm0-2V31h8v8ZM13,27v7a1,1,0,0,1-2,0V25H9a2,2,0,0,1-2,2V23.6A5.717,5.717,0,0,1,9.334,19h6.225A5.788,5.788,0,0,1,17,22.829V24a3,3,0,0,1-3,3ZM16.867,3l-1.75,14H9.883L8.133,3ZM4,9H6.867l1.069,8.555A7.751,7.751,0,0,0,6.53,19H3V10A1,1,0,0,1,4,9ZM3,54V21H5.46A7.728,7.728,0,0,0,5,23.6V27a2,2,0,0,0,2,2,3.97,3.97,0,0,0,2-.537V33H7a2,2,0,0,0-2,2V47a2,2,0,0,0,2,2H19a2,2,0,0,0,2-2V41h6a2,2,0,0,0,2-2V31a2,2,0,0,0-2-2H19a2,2,0,0,0-2,2v2H15V28.9A5.009,5.009,0,0,0,19,24V22.829A7.841,7.841,0,0,0,18.777,21H31V55H4a1,1,0,0,1-1-1ZM54,41a3,3,0,0,1,3,3v1.171A5.788,5.788,0,0,1,55.559,49H49.334A5.717,5.717,0,0,1,47,44.4V41a2,2,0,0,1,2,2h2V34a1,1,0,0,1,2,0v7ZM48.181,61l1.666-10h5.307L56.82,61ZM60,55H57.847l-.782-4.688A7.767,7.767,0,0,0,59,45.171V44a5.008,5.008,0,0,0-4-4.9V34a3,3,0,0,0-6,0v5.537A3.97,3.97,0,0,0,47,39a2,2,0,0,0-2,2v3.4a7.708,7.708,0,0,0,2.915,6.034L47.153,55H33V21H61V54A1,1,0,0,1,60,55Z"/>
          <path id="Trazado_728519" data-name="Trazado 728519" d="M47,13h2v2H47Z"/>
          <path id="Trazado_728520" data-name="Trazado 728520" d="M51,13h2v2H51Z"/>
          <path id="Trazado_728521" data-name="Trazado 728521" d="M55,13h2v2H55Z"/>
          <path id="Trazado_728522" data-name="Trazado 728522" d="M35,13H45v2H35Z"/>
          <path id="Trazado_728523" data-name="Trazado 728523" d="M37,41h6V39H37a2,2,0,0,0-2,2v8a2,2,0,0,0,2,2h8V49H37Z"/>
          <path id="Trazado_728524" data-name="Trazado 728524" d="M57,25H47a2,2,0,0,0-2,2V37h2V27H57V37h2V27A2,2,0,0,0,57,25Z"/>
          <path id="Trazado_728525" data-name="Trazado 728525" d="M35,29h6v2H35Z"/>
          <path id="Trazado_728526" data-name="Trazado 728526" d="M35,33h8v2H35Z"/>
          <path id="Trazado_728527" data-name="Trazado 728527" d="M25,47h4v2H25Z"/>
          <path id="Trazado_728528" data-name="Trazado 728528" d="M23,43h6v2H23Z"/>
        </g>
      </g>
    </g>
    <g id="Grupo_985879" data-name="Grupo 985879">
      <ellipse id="Elipse_4741" data-name="Elipse 4741" cx="46" cy="46" rx="46" ry="46" transform="translate(605 1645)" fill="#fff"/>
      <g id="objetivo" transform="translate(619 1658.868)">
        <g id="Grupo_985878" data-name="Grupo 985878">
          <g id="Grupo_985867" data-name="Grupo 985867">
            <path id="Trazado_728497" data-name="Trazado 728497" d="M54,48H22a2,2,0,0,1-2-2V24H56V46A2,2,0,0,1,54,48Z" fill="#e6e9ed"/>
          </g>
          <g id="Grupo_985868" data-name="Grupo 985868">
            <path id="Trazado_728498" data-name="Trazado 728498" d="M26,36A12,12,0,1,1,38,48,12,12,0,0,1,26,36Z" fill="#fcd770"/>
          </g>
          <g id="Grupo_985869" data-name="Grupo 985869">
            <path id="Trazado_728499" data-name="Trazado 728499" d="M30,36a8,8,0,1,1,8,8A8,8,0,0,1,30,36Z" fill="#ffeaa7"/>
          </g>
          <g id="Grupo_985870" data-name="Grupo 985870">
            <circle id="Elipse_5903" data-name="Elipse 5903" cx="4" cy="4" r="4" transform="translate(34 32)" fill="#ffc729"/>
          </g>
          <g id="Grupo_985871" data-name="Grupo 985871">
            <path id="Trazado_728500" data-name="Trazado 728500" d="M54,16H22a2.006,2.006,0,0,0-2,2v6H56V18A2.006,2.006,0,0,0,54,16Z" fill="#ff826e"/>
          </g>
          <g id="Grupo_985872" data-name="Grupo 985872">
            <path id="Trazado_728501" data-name="Trazado 728501" d="M12,32l2,4H8L6,32Z" fill="#5cd6b3"/>
          </g>
          <g id="Grupo_985873" data-name="Grupo 985873">
            <path id="Trazado_728502" data-name="Trazado 728502" d="M14,36l-2,4H6l2-4h6Z" fill="#5cd6b3"/>
          </g>
          <g id="Grupo_985874" data-name="Grupo 985874">
            <path id="Trazado_728503" data-name="Trazado 728503" d="M52,16v3a1,1,0,0,1-1,1H49a1,1,0,0,1-1-1V13a1,1,0,0,1,1-1h2a1,1,0,0,1,1,1Z" fill="#aab2bd"/>
          </g>
          <g id="Grupo_985875" data-name="Grupo 985875">
            <path id="Trazado_728504" data-name="Trazado 728504" d="M44,16v3a1,1,0,0,1-1,1H41a1,1,0,0,1-1-1V13a1,1,0,0,1,1-1h2a1,1,0,0,1,1,1Z" fill="#aab2bd"/>
          </g>
          <g id="Grupo_985876" data-name="Grupo 985876">
            <path id="Trazado_728505" data-name="Trazado 728505" d="M36,16v3a1,1,0,0,1-1,1H33a1,1,0,0,1-1-1V13a1,1,0,0,1,1-1h2a1,1,0,0,1,1,1Z" fill="#aab2bd"/>
          </g>
          <g id="Grupo_985877" data-name="Grupo 985877">
            <path id="Trazado_728506" data-name="Trazado 728506" d="M28,16v3a1,1,0,0,1-1,1H25a1,1,0,0,1-1-1V13a1,1,0,0,1,1-1h2a1,1,0,0,1,1,1Z" fill="#aab2bd"/>
          </g>
        </g>
        <path id="Trazado_728507" data-name="Trazado 728507" d="M63,32a27.066,27.066,0,0,0-3.042-12.462l-1.773.925A24.975,24.975,0,0,1,57,45.539V18a3,3,0,0,0-3-3H53V13a2,2,0,0,0-2-2H49a2,2,0,0,0-2,2v2H45V13a2,2,0,0,0-2-2H41a2,2,0,0,0-2,2v2H37V13a2,2,0,0,0-2-2H33a2,2,0,0,0-2,2v2H29V13a2,2,0,0,0-2-2H25a2,2,0,0,0-2,2v2H22a3,3,0,0,0-3,3V35H14.618l-2-4H4.382l2.5,5L4.55,40.665A25,25,0,0,1,28,7h3.766L21.5,1.132,20.5,2.868l4.1,2.344A27.012,27.012,0,0,0,4.042,44.462l1.773-.924A24.653,24.653,0,0,1,4.677,41h7.941l2-4H19v9a3,3,0,0,0,3,3H54a2.96,2.96,0,0,0,.341-.034A24.936,24.936,0,0,1,36,57H32.234L42.5,62.868l.992-1.736-4.1-2.344A27.041,27.041,0,0,0,63,32ZM11.382,33l1,2H8.618l-1-2Zm0,6H7.618l1-2h3.764ZM49,13h2v6H49Zm-8,0h2v6H41Zm-8,0h2v6H33Zm-8,0h2v6H25Zm-3,4h1v2a2,2,0,0,0,2,2h2a2,2,0,0,0,2-2V17h2v2a2,2,0,0,0,2,2h2a2,2,0,0,0,2-2V17h2v2a2,2,0,0,0,2,2h2a2,2,0,0,0,2-2V17h2v2a2,2,0,0,0,2,2h2a2,2,0,0,0,2-2V17h1a1,1,0,0,1,1,1v5H21V18A1,1,0,0,1,22,17Zm7.059,20a9,9,0,1,0,0-2H27.051a11,11,0,1,1,0,2ZM33.1,37a5,5,0,1,0,0-2H31.08a7,7,0,1,1,0,2Zm2.083-2a3,3,0,1,1,0,2H39V35ZM21,25H31.1a12.991,12.991,0,0,0-6.053,10H21Zm1,22a1,1,0,0,1-1-1V37h4.051A12.991,12.991,0,0,0,31.1,47Zm22.9,0a12.964,12.964,0,0,0,0-22H55V46a1,1,0,0,1-1,1Z"/>
      </g>
    </g>
    <g id="Grupo_985894" data-name="Grupo 985894">
      <ellipse id="Elipse_4742" data-name="Elipse 4742" cx="46" cy="46" rx="46" ry="46" transform="translate(894 1645)" fill="#fff"/>
      <g id="verificar" transform="translate(898 1658)">
        <g id="Grupo_985892" data-name="Grupo 985892" transform="translate(11.309 1.309)">
          <path id="Trazado_728529" data-name="Trazado 728529" d="M331.643,251.055a2.512,2.512,0,0,0-2.521,2.488v-8.9a2.669,2.669,0,0,0-5.338,0v14.727l-.557.317a2.226,2.226,0,0,0-1.2,1.7,4.677,4.677,0,0,0,.188,1.836l.985,3.411,1.409,4.875v2.764a1.773,1.773,0,0,0,1.78,1.756h13.346a1.773,1.773,0,0,0,1.78-1.756v-2.764l1.615-2.113a5.188,5.188,0,0,0,1.117-3.833v-8.7a2.521,2.521,0,0,0-5.042,0v-1.626a2.505,2.505,0,0,0-1.944-2.422,2.538,2.538,0,0,0-.577-.066,2.512,2.512,0,0,0-2.521,2.488v-1.692a2.518,2.518,0,0,0-2.521-2.488Z" transform="translate(-282.479 -211.642)" fill="#ffdcd5" fill-rule="evenodd"/>
          <path id="Trazado_728530" data-name="Trazado 728530" d="M59.55,59.746A23.557,23.557,0,1,1,69.777,49.488,2.5,2.5,0,0,1,71.685,51.9v1.692a2.524,2.524,0,0,1,3.1-2.422,28.792,28.792,0,1,0-14.06,13.821l-.985-3.411a4.678,4.678,0,0,1-.188-1.835Z" transform="translate(-20 -10)" fill="#9de3d1" fill-rule="evenodd"/>
          <path id="Trazado_728531" data-name="Trazado 728531" d="M83.556,97.112a23.554,23.554,0,0,0,10.759-2.6,2.226,2.226,0,0,1,1.2-1.7l.557-.317V77.761a2.669,2.669,0,0,1,5.338,0v8.9a2.512,2.512,0,0,1,2.521-2.488,2.54,2.54,0,0,1,.613.075A23.556,23.556,0,1,0,83.556,97.112Z" transform="translate(-54.765 -44.765)" fill="#b8ecbc" fill-rule="evenodd"/>
          <path id="Trazado_728532" data-name="Trazado 728532" d="M151.587,174.146a3.271,3.271,0,1,1,4.626-4.626l3.775,3.775,8.448-8.448a3.271,3.271,0,0,1,4.626,4.626L162.3,180.234a3.271,3.271,0,0,1-4.626,0Z" transform="translate(-133.534 -143.75)" fill="#fff" fill-rule="evenodd"/>
        </g>
        <g id="Grupo_985893" data-name="Grupo 985893" transform="translate(10 0)">
          <path id="Trazado_728533" data-name="Trazado 728533" d="M70.557,42.731a3.834,3.834,0,0,0-1.666.379A3.832,3.832,0,0,0,67.8,41.86,30.31,30.31,0,0,0,70.2,30.1a29.975,29.975,0,0,0-4.93-16.508,1.309,1.309,0,1,0-2.187,1.438,27.362,27.362,0,0,1,4.5,15.071,27.668,27.668,0,0,1-2.3,11.013,3.827,3.827,0,0,0-1.4.358,3.829,3.829,0,0,0-1.063-1.261,24.862,24.862,0,1,0-44.108,2.565,1.309,1.309,0,1,0,2.251-1.336A22.25,22.25,0,1,1,60.3,39.42a3.841,3.841,0,0,0-1.036.188V34.3a3.978,3.978,0,0,0-7.956,0V48.273a3.488,3.488,0,0,0-1.569,1.876,22.249,22.249,0,0,1-20.974-.906,1.309,1.309,0,1,0-1.336,2.251,24.853,24.853,0,0,0,22.3,1.524c.017.071.033.141.052.214l.006.02.665,2.3A27.481,27.481,0,1,1,40.1,2.617a27.359,27.359,0,0,1,15.072,4.5A1.309,1.309,0,1,0,56.609,4.93,30.1,30.1,0,0,0,18.816,51.383a30.094,30.094,0,0,0,32.369,6.7l.947,3.279v2.578A3.08,3.08,0,0,0,55.22,67H68.566a3.08,3.08,0,0,0,3.088-3.065V61.618L73,59.857a6.462,6.462,0,0,0,1.386-4.628v-8.7a3.818,3.818,0,0,0-3.83-3.8Zm1.212,12.5a3.937,3.937,0,0,1-.849,3.039l-1.615,2.113a1.309,1.309,0,0,0-.269.795v2.764a.466.466,0,0,1-.471.448H55.22a.466.466,0,0,1-.471-.448V61.175a1.306,1.306,0,0,0-.051-.363l-2.391-8.275c-.427-1.581.05-1.852.4-2.051l.557-.317a1.309,1.309,0,0,0,.661-1.137V34.3a1.361,1.361,0,0,1,2.721,0V45.933a1.309,1.309,0,1,0,2.617,0V43.21a1.213,1.213,0,0,1,2.425,0V44.9a1.309,1.309,0,0,0,2.617,0,1.213,1.213,0,0,1,2.425,0v1.626a1.309,1.309,0,1,0,2.617,0,1.213,1.213,0,0,1,2.425,0Z" transform="translate(-10 0)"/>
          <path id="Trazado_728534" data-name="Trazado 728534" d="M386.876,67.056a1.309,1.309,0,0,0,.925-2.234h0a1.309,1.309,0,1,0-.925,2.235Z" transform="translate(-336.418 -56.005)"/>
          <path id="Trazado_728535" data-name="Trazado 728535" d="M104.034,349.9a1.309,1.309,0,0,0,1-2.146h0a1.309,1.309,0,1,0-1,2.147Z" transform="translate(-90.59 -301.834)"/>
          <path id="Trazado_728536" data-name="Trazado 728536" d="M148.059,172.483a4.58,4.58,0,0,0,6.477,0L165.3,161.722a4.58,4.58,0,0,0-6.477-6.477l-7.522,7.522-2.849-2.849a4.58,4.58,0,0,0-6.477,6.477Zm-4.237-10.714a1.965,1.965,0,0,1,2.776,0l3.775,3.775a1.309,1.309,0,0,0,1.851,0l8.448-8.448a1.963,1.963,0,1,1,2.776,2.775l-10.761,10.761a1.965,1.965,0,0,1-2.776,0l-6.088-6.088A1.965,1.965,0,0,1,143.822,161.768Z" transform="translate(-123.535 -133.764)"/>
        </g>
      </g>
    </g>
  </g>
</svg>
