<svg xmlns="http://www.w3.org/2000/svg" width="240.892" height="42.06" viewBox="0 0 240.892 42.06">
  <g id="Grupo_987192" data-name="Grupo 987192" transform="translate(-881.608 -1479.456)">
    <path id="Trazado_733352" data-name="Trazado 733352" d="M.969,12.375a10.562,10.562,0,0,1,1.188-5.2,5.946,5.946,0,0,1,2.688-2.77h.047L5.3,5.547A5.671,5.671,0,0,0,3.586,8.016a11.6,11.6,0,0,0-.7,4.344v.2a11.592,11.592,0,0,0,.7,4.348A5.858,5.858,0,0,0,5.3,19.4l-.414,1.117H4.844A5.947,5.947,0,0,1,2.156,17.75a10.556,10.556,0,0,1-1.187-5.2ZM11.773,17H9.5V7.609H7.148V5.867l4.625-.406Zm10.617-4.7H15.875V10.523h6.516Zm1.969-4.492a2.315,2.315,0,0,1,.652-1.68,2.414,2.414,0,0,1,1.816-.672,2.43,2.43,0,0,1,1.828.668A2.319,2.319,0,0,1,29.3,7.813v.6a2.3,2.3,0,0,1-.648,1.672,2.417,2.417,0,0,1-1.812.664,2.454,2.454,0,0,1-1.828-.664,2.281,2.281,0,0,1-.656-1.672Zm1.516.6a1.171,1.171,0,0,0,.25.762.871.871,0,0,0,.719.309.843.843,0,0,0,.7-.309,1.183,1.183,0,0,0,.246-.762v-.6a1.2,1.2,0,0,0-.25-.77.853.853,0,0,0-.711-.316.842.842,0,0,0-.707.316,1.216,1.216,0,0,0-.246.77Zm3.922,5.8a2.3,2.3,0,0,1,.656-1.672,2.813,2.813,0,0,1,3.645,0,2.3,2.3,0,0,1,.652,1.676v.6a2.306,2.306,0,0,1-.648,1.68,2.417,2.417,0,0,1-1.812.664,2.459,2.459,0,0,1-1.832-.668,2.287,2.287,0,0,1-.66-1.676Zm1.516.6a1.135,1.135,0,0,0,.27.762.884.884,0,0,0,.707.316.848.848,0,0,0,.727-.293,1.282,1.282,0,0,0,.219-.785v-.6a1.191,1.191,0,0,0-.25-.762.961.961,0,0,0-1.426,0,1.2,1.2,0,0,0-.246.762Zm-4.094,1.336-1.109-.586,5.555-8.891,1.109.586Zm19.307-6H45.294l-.336,1.2a11.6,11.6,0,0,1-1.744,3.5c-.56.736-1.2,1.232-1.6,1.232-.288,0-.416-.208-.416-.544a1.68,1.68,0,0,1,.048-.384L42.59,9.944l-2.512.416.048.24a1.845,1.845,0,0,1,.416-.048c.352,0,.528.176.528.368a2.364,2.364,0,0,1-.1.4l-.944,3.7a3.634,3.634,0,0,0-.128.944c0,.608.224,1.184.976,1.184A2.05,2.05,0,0,0,42.03,16.7a27.133,27.133,0,0,0,2.192-2.5h.016l-.416,1.52a2.772,2.772,0,0,0-.064.592c0,.528.176.832.64.832.928,0,1.744-1.184,2.112-1.712l-.208-.176-.08.1c-.272.32-.576.736-.912.736a.2.2,0,0,1-.224-.224.494.494,0,0,1,.016-.144Zm5.008-.16h-1.12l.5-2.064H50.7a3.648,3.648,0,0,1-2.832,2.208l-.08.464h1.232l-1.3,5.12a2.3,2.3,0,0,0-.08.592c0,.432.128.832.624.832.944,0,1.744-1.216,2.128-1.712l-.208-.176c-.592.8-.96.832-.96.832-.208,0-.256-.1-.256-.192a.68.68,0,0,1,.032-.176l1.248-5.12h1.12Zm4.592-2.048a.819.819,0,0,0-.768-.8.785.785,0,0,0-.768.8.723.723,0,0,0,.768.736A.752.752,0,0,0,56.126,7.944Zm-.48,2-2.528.352.048.256a1.889,1.889,0,0,1,.448-.064c.368,0,.5.08.5.352a.688.688,0,0,1-.032.192c-1.264,4.912-1.264,5.216-1.264,5.408,0,.432.192.736.64.736.784,0,1.584-.96,2.144-1.68l-.208-.16c-.576.624-.672.816-1.024.816-.112,0-.208-.048-.208-.16a1.217,1.217,0,0,1,.016-.224Zm5.792-3.632-2.512.368.048.24c.128-.016.32-.048.432-.048.368,0,.5.16.5.352a1.62,1.62,0,0,1-.048.384l-2.048,8.16a2.168,2.168,0,0,0-.1.576c0,.4.144.816.624.816.928,0,1.616-1.056,2.16-1.7l-.256-.192c-.144.256-.624.88-.992.88a.189.189,0,0,1-.192-.208.8.8,0,0,1,.016-.176ZM66.19,7.944a.819.819,0,0,0-.768-.8.785.785,0,0,0-.768.8.723.723,0,0,0,.768.736A.752.752,0,0,0,66.19,7.944Zm-.48,2-2.528.352.048.256a1.889,1.889,0,0,1,.448-.064c.368,0,.5.08.5.352a.688.688,0,0,1-.032.192c-1.264,4.912-1.264,5.216-1.264,5.408,0,.432.192.736.64.736.784,0,1.584-.96,2.144-1.68l-.208-.16c-.576.624-.672.816-1.024.816-.112,0-.208-.048-.208-.16a1.216,1.216,0,0,1,.016-.224Zm9.776-3.632-2.5.384.064.24a3.235,3.235,0,0,1,.432-.048c.416,0,.528.112.528.32a.8.8,0,0,1-.032.192l-.848,3.344H73.1c-.016-.384-.384-.8-1.3-.8-2.464,0-4.112,3.568-4.112,5.216,0,.848.24,2.032,1.408,2.032.592,0,1.552-.192,2.736-1.68h.08a3.48,3.48,0,0,0-.16,1.024.6.6,0,0,0,.64.656c.752,0,1.6-.96,2.08-1.68L74.3,15.32c-.224.336-.672.9-.992.9q-.24,0-.24-.144a.8.8,0,0,1,.032-.192ZM72.862,11.56a5.879,5.879,0,0,1-.256,1.68c-.448,1.472-1.5,2.976-2.624,2.976-.448,0-.9-.272-.9-1.056,0-1.536,1.3-4.736,2.88-4.736C72.622,10.424,72.862,10.808,72.862,11.56Zm10.256-1.408h-1.28l-.144.528h-.016c-.032-.352-.368-.736-1.056-.736-2.3,0-4.416,3.2-4.416,5.312,0,1.024.416,1.9,1.424,1.9A3.483,3.483,0,0,0,80.4,15.48h.064a3.3,3.3,0,0,0-.176.8c0,.512.144.88.672.88.768,0,1.632-.96,2.128-1.712l-.192-.192c-.624.832-.864.864-1.024.864-.128,0-.224-.1-.224-.272a.508.508,0,0,1,.016-.176Zm-1.68,1.392a6.006,6.006,0,0,1-.24,1.6c-.448,1.52-1.568,3.04-2.672,3.04-.432,0-.928-.208-.928-1.056a5.623,5.623,0,0,1,.448-1.984c.544-1.344,1.5-2.736,2.592-2.736C81.246,10.408,81.438,10.888,81.438,11.544ZM92.03,6.312l-2.5.384.064.24a3.235,3.235,0,0,1,.432-.048c.416,0,.528.112.528.32a.8.8,0,0,1-.032.192l-.848,3.344h-.032c-.016-.384-.384-.8-1.3-.8-2.464,0-4.112,3.568-4.112,5.216,0,.848.24,2.032,1.408,2.032.592,0,1.552-.192,2.736-1.68h.08a3.48,3.48,0,0,0-.16,1.024.6.6,0,0,0,.64.656c.752,0,1.6-.96,2.08-1.68l-.176-.192c-.224.336-.672.9-.992.9q-.24,0-.24-.144a.8.8,0,0,1,.032-.192ZM89.406,11.56a5.879,5.879,0,0,1-.256,1.68c-.448,1.472-1.5,2.976-2.624,2.976-.448,0-.9-.272-.9-1.056,0-1.536,1.3-4.736,2.88-4.736C89.166,10.424,89.406,10.808,89.406,11.56Zm7.407.987a10.279,10.279,0,0,1-1.238,5.168,6.087,6.087,0,0,1-2.754,2.8h-.047L92.352,19.4a5.792,5.792,0,0,0,1.711-2.477,11.568,11.568,0,0,0,.7-4.359v-.2a11.472,11.472,0,0,0-.711-4.348,5.984,5.984,0,0,0-1.7-2.5l.422-1.109h.047a6.086,6.086,0,0,1,2.754,2.8,10.284,10.284,0,0,1,1.238,5.164Z" transform="translate(1021.031 1501)" fill="#9f0925"/>
    <line id="Línea_151" data-name="Línea 151" x2="105" transform="translate(1017.5 1500.5)" fill="none" stroke="#9f0925" stroke-width="1"/>
    <path id="Trazado_733350" data-name="Trazado 733350" d="M3.216,6.552l-.064.256h.3c.976,0,1.248.256,1.248.592a1.737,1.737,0,0,1-.064.4l-2,7.952c-.144.544-.464.992-1.7.992H.672L.608,17H6.064l.064-.256H5.616c-.944,0-1.232-.24-1.232-.624a1.453,1.453,0,0,1,.048-.368l.9-3.568a.688.688,0,0,0,.192.032A6.889,6.889,0,0,0,6.7,12.3c3.264,0,4.56-1.616,4.56-3.184,0-1.184-.992-2.56-3.712-2.56Zm3.36.64a6.445,6.445,0,0,1,.784-.048c1.52,0,2,.848,2,1.808A2.752,2.752,0,0,1,6.448,11.7a4.354,4.354,0,0,1-.96-.128ZM12.3,12.728l.736-2.784-2.512.368.032.24a3.565,3.565,0,0,1,.432-.048c.352,0,.528.1.528.3a1.45,1.45,0,0,1-.064.368L9.984,17h1.232l.336-1.216c.08-.272,1.472-4.368,2.448-4.368.288,0,.128.608.752.608.656,0,1.04-.7,1.04-1.312a.69.69,0,0,0-.7-.768c-.88,0-1.648,1.04-2.192,1.9-.176.288-.368.608-.512.9Zm9.536,2.48a2.552,2.552,0,0,1-2.016,1.024,1.726,1.726,0,0,1-1.808-1.712v-.448c1.9-.1,4.576-.88,4.576-2.912,0-.992-.96-1.216-1.632-1.216-2.032,0-3.792,2-4.192,3.776a3.913,3.913,0,0,0-.1.96,2.259,2.259,0,0,0,2.192,2.5,4.013,4.013,0,0,0,3.2-1.76Zm-3.824-1.584c.464-1.36,1.424-3.2,2.608-3.2a.677.677,0,0,1,.7.688c0,1.408-1.5,2.512-3.168,2.512Zm10.944,1.6A3.262,3.262,0,0,1,26.688,16.3c-.72,0-1.5-.352-1.5-1.744,0-1.28.912-4.144,2.816-4.144.384,0,.544.144.544.336,0,.352-.464.544-.464.928a.6.6,0,0,0,.608.608c.608,0,.864-.512.864-1.12,0-.784-.752-1.216-1.552-1.216-2.272,0-4.208,2.512-4.208,4.752a2.216,2.216,0,0,0,2.192,2.48,4.158,4.158,0,0,0,3.168-1.744ZM33.9,7.944a.819.819,0,0,0-.768-.8.785.785,0,0,0-.768.8.723.723,0,0,0,.768.736A.752.752,0,0,0,33.9,7.944Zm-.48,2L30.9,10.3l.048.256a1.889,1.889,0,0,1,.448-.064c.368,0,.5.08.5.352a.688.688,0,0,1-.032.192c-1.264,4.912-1.264,5.216-1.264,5.408,0,.432.192.736.64.736.784,0,1.584-.96,2.144-1.68l-.208-.16c-.576.624-.672.816-1.024.816-.112,0-.208-.048-.208-.16a1.217,1.217,0,0,1,.016-.224Zm8.352,2.464a2.215,2.215,0,0,0-2.352-2.464c-2.368,0-4.016,2.576-4.016,4.624,0,1.168.544,2.608,2.16,2.608C40.016,17.176,41.776,14.632,41.776,12.408Zm-1.3-.5c0,1.216-1.136,4.784-2.832,4.784-.9,0-.944-1.184-.944-1.712,0-2.176,1.392-4.56,2.7-4.56C40.256,10.424,40.48,11.3,40.48,11.912ZM54.5,6.312l-2.5.384.064.24a3.235,3.235,0,0,1,.432-.048c.416,0,.528.112.528.32A.8.8,0,0,1,53,7.4l-.848,3.344h-.032c-.016-.384-.384-.8-1.3-.8-2.464,0-4.112,3.568-4.112,5.216,0,.848.24,2.032,1.408,2.032.592,0,1.552-.192,2.736-1.68h.08a3.48,3.48,0,0,0-.16,1.024.6.6,0,0,0,.64.656c.752,0,1.6-.96,2.08-1.68l-.176-.192c-.224.336-.672.9-.992.9q-.24,0-.24-.144a.8.8,0,0,1,.032-.192ZM51.881,11.56a5.879,5.879,0,0,1-.256,1.68c-.448,1.472-1.5,2.976-2.624,2.976-.448,0-.9-.272-.9-1.056,0-1.536,1.3-4.736,2.88-4.736C51.641,10.424,51.881,10.808,51.881,11.56Zm8.512,3.648a2.552,2.552,0,0,1-2.016,1.024,1.726,1.726,0,0,1-1.808-1.712v-.448c1.9-.1,4.576-.88,4.576-2.912,0-.992-.96-1.216-1.632-1.216-2.032,0-3.792,2-4.192,3.776a3.912,3.912,0,0,0-.1.96,2.259,2.259,0,0,0,2.192,2.5,4.013,4.013,0,0,0,3.2-1.76Zm-3.824-1.584c.464-1.36,1.424-3.2,2.608-3.2a.677.677,0,0,1,.7.688c0,1.408-1.5,2.512-3.168,2.512ZM69.633,9.736l-.064-.064a15.141,15.141,0,0,1-2.5.672v.24c.208,0,.912,0,.912.32a1.773,1.773,0,0,1-.08.4l-.928,3.36a3.46,3.46,0,0,0-.144.992c0,1.168.832,1.488,1.856,1.488a4.029,4.029,0,0,0,3.1-1.664A7.857,7.857,0,0,0,73.345,11c0-.512-.08-1.328-.752-1.328-.464,0-.864.128-.864.672,0,.7.976.56.976,1.744a3.806,3.806,0,0,1-.24,1.184c-.512,1.44-1.632,3.248-3.36,3.248a.935.935,0,0,1-.96-1.056,1.8,1.8,0,0,1,.064-.512Zm9.952,5.472a2.552,2.552,0,0,1-2.016,1.024,1.726,1.726,0,0,1-1.808-1.712v-.448c1.9-.1,4.576-.88,4.576-2.912,0-.992-.96-1.216-1.632-1.216-2.032,0-3.792,2-4.192,3.776a3.912,3.912,0,0,0-.1.96,2.259,2.259,0,0,0,2.192,2.5,4.013,4.013,0,0,0,3.2-1.76Zm-3.824-1.584c.464-1.36,1.424-3.2,2.608-3.2a.677.677,0,0,1,.7.688c0,1.408-1.5,2.512-3.168,2.512Zm12.608,1.84-.208-.176c-.224.272-.608.848-.992.848a.232.232,0,0,1-.24-.224.4.4,0,0,1,.016-.16l.944-3.7a4.693,4.693,0,0,0,.176-1.12c0-.528-.192-.992-.9-.992-.96,0-1.92,1.056-2.56,1.856a10.746,10.746,0,0,1-.9,1.168h-.048l.816-3.024-2.544.368.032.24a3.2,3.2,0,0,1,.448-.048c.432,0,.48.224.48.512L81.377,17h1.232l.528-1.984a9.738,9.738,0,0,1,1.088-1.952c.5-.752,1.5-2.128,2.112-2.128.288,0,.384.3.384.608a3.245,3.245,0,0,1-.112.672L85.7,15.752a2.673,2.673,0,0,0-.112.64c0,.368.144.736.656.736.832,0,1.6-1.024,2.048-1.568Zm5.008-5.472h-1.12l.5-2.064h-.208a3.648,3.648,0,0,1-2.832,2.208l-.08.464h1.232l-1.3,5.12a2.3,2.3,0,0,0-.08.592c0,.432.128.832.624.832.944,0,1.744-1.216,2.128-1.712l-.208-.176c-.592.8-.96.832-.96.832-.208,0-.256-.1-.256-.192a.68.68,0,0,1,.032-.176L92.1,10.6h1.12Zm8.032.16h-1.28l-.144.528h-.016c-.032-.352-.368-.736-1.056-.736-2.3,0-4.416,3.2-4.416,5.312,0,1.024.416,1.9,1.424,1.9a3.483,3.483,0,0,0,2.768-1.68h.064a3.3,3.3,0,0,0-.176.8c0,.512.144.88.672.88.768,0,1.632-.96,2.128-1.712l-.192-.192c-.624.832-.864.864-1.024.864-.128,0-.224-.1-.224-.272a.508.508,0,0,1,.016-.176Zm-1.68,1.392a6.006,6.006,0,0,1-.24,1.6c-.448,1.52-1.568,3.04-2.672,3.04-.432,0-.928-.208-.928-1.056a5.623,5.623,0,0,1,.448-1.984c.544-1.344,1.5-2.736,2.592-2.736C99.537,10.408,99.729,10.888,99.729,11.544ZM125.5,10.57h-6.516V9.289H125.5Zm0,3.25h-6.516V12.539H125.5Z" transform="translate(881 1488.748)" fill="#9f0925"/>
    <path id="Trazado_733351" data-name="Trazado 733351" d="M60.144,6.456h-.288a.723.723,0,0,1-.672.432c-.832,0-1.664-.432-2.528-.432-3.872,0-7.088,2.608-7.088,6.288a4.272,4.272,0,0,0,4.608,4.448,5.289,5.289,0,0,0,3.088-.976,5.709,5.709,0,0,0,1.424-1.472l-.32-.208a2.413,2.413,0,0,1-.272.32,4.678,4.678,0,0,1-3.456,1.568c-2.16,0-3.12-1.632-3.12-3.424,0-2.736,1.888-5.952,5.1-5.952a2.157,2.157,0,0,1,2.432,2.3,6.092,6.092,0,0,1-.016.672H59.3Zm6.368,5.952A2.215,2.215,0,0,0,64.16,9.944c-2.368,0-4.016,2.576-4.016,4.624,0,1.168.544,2.608,2.16,2.608C64.752,17.176,66.512,14.632,66.512,12.408Zm-1.3-.5c0,1.216-1.136,4.784-2.832,4.784-.9,0-.944-1.184-.944-1.712,0-2.176,1.392-4.56,2.7-4.56C64.992,10.424,65.216,11.3,65.216,11.912Zm7.856-1.968h-.256a.722.722,0,0,1-.48.32c-.464,0-.784-.32-1.472-.32a1.651,1.651,0,0,0-1.824,1.712c0,1.568,2.08,2.368,2.08,3.68,0,.624-.224,1.424-1.168,1.424-1.008,0-1.664-1.072-1.664-2.08h-.256l-.4,2.5H67.9c.192-.272.336-.336.48-.336a16.6,16.6,0,0,0,1.76.32,2.03,2.03,0,0,0,2.16-2c0-1.52-2.144-2.992-2.144-3.872a.823.823,0,0,1,.816-.928c.9,0,1.472.9,1.472,1.92h.24Zm5.328.048H77.28l.5-2.064h-.208a3.648,3.648,0,0,1-2.832,2.208l-.08.464h1.232l-1.3,5.12a2.3,2.3,0,0,0-.08.592c0,.432.128.832.624.832.944,0,1.744-1.216,2.128-1.712l-.208-.176c-.592.8-.96.832-.96.832-.208,0-.256-.1-.256-.192a.68.68,0,0,1,.032-.176L77.12,10.6h1.12Zm7.488,2.416a2.215,2.215,0,0,0-2.352-2.464c-2.368,0-4.016,2.576-4.016,4.624,0,1.168.544,2.608,2.16,2.608C84.128,17.176,85.888,14.632,85.888,12.408Zm-1.3-.5c0,1.216-1.136,4.784-2.832,4.784-.9,0-.944-1.184-.944-1.712,0-2.176,1.392-4.56,2.7-4.56C84.368,10.424,84.592,11.3,84.592,11.912Z" transform="translate(1002.432 1473)" fill="#9f0925"/>
  </g>
</svg>
