<svg xmlns="http://www.w3.org/2000/svg" width="187.053" height="14.852" viewBox="0 0 187.053 14.852">
  <path id="Trazado_733359" data-name="Trazado 733359" d="M3.168,6.3l-.1.368h.592c.736,0,.944.208.96.592a1.218,1.218,0,0,1-.048.336l-1.84,8.064c-.144.624-.368.976-1.36.976H.736L.672,17h6.08l.064-.368H5.984c-.752,0-.928-.128-.96-.56a2.123,2.123,0,0,1,.064-.384L5.9,12.152a7.663,7.663,0,0,0,1.072.048c3.44,0,4.752-1.744,4.752-3.3,0-1.888-1.36-2.608-4.016-2.608Zm3.888.736a4.653,4.653,0,0,1,.48-.016,1.538,1.538,0,0,1,1.7,1.648A2.57,2.57,0,0,1,6.72,11.48a3.045,3.045,0,0,1-.64-.08Zm6.848,2.5-3.088.544.048.448a1.976,1.976,0,0,1,.656-.176.229.229,0,0,1,.256.24,3.377,3.377,0,0,1-.048.336L10.32,17h1.824l.32-1.28c.1-.384,1.36-4.464,2.032-4.464.256,0,.128.608.784.608a1.329,1.329,0,0,0,1.3-1.376.907.907,0,0,0-.992-.88,2.585,2.585,0,0,0-2,1.376Zm9.536,5.648c-.944.912-1.488,1.264-2.4,1.264-.928,0-1.632-.656-1.632-1.968a.813.813,0,0,1,.064-.368c1.824-.144,4.72-1.248,4.72-3.152,0-1.184-1.264-1.344-1.968-1.344a4.98,4.98,0,0,0-4.576,4.08,3.862,3.862,0,0,0-.1.944A2.341,2.341,0,0,0,20.08,17.16a4.276,4.276,0,0,0,3.664-1.872Zm-.864-4.352c0,1.136-1.712,2.464-2.992,2.64.144-1.248,1.36-3.216,2.448-3.216C22.448,10.248,22.576,10.408,22.576,10.824Zm8.832,4.352a3.229,3.229,0,0,1-2.416,1.264c-.816,0-1.616-.448-1.616-1.92,0-1.392,1.168-4.272,2.848-4.272.144,0,.24.08.24.32,0,.336-.368.272-.368.848,0,.224.128.688.832.688a1.149,1.149,0,0,0,1.248-1.184c0-.72-.8-1.312-1.952-1.312-2.944,0-4.7,2.848-4.7,4.96a2.372,2.372,0,0,0,2.592,2.592A4.483,4.483,0,0,0,31.7,15.3Zm5.84-7.1a1.066,1.066,0,0,0-1.056-.992,1.09,1.09,0,0,0-1.056.992,1.066,1.066,0,0,0,1.056.992A1.043,1.043,0,0,0,37.248,8.072Zm-.72,7.264c-.3.368-.544.736-.864.736a.376.376,0,0,1-.336-.4,2.855,2.855,0,0,1,.128-.768l1.248-5.3-3.152.544.064.368a2.974,2.974,0,0,1,.592-.048c.24,0,.32.112.32.288a2.1,2.1,0,0,1-.08.432l-1.056,4.56a1.837,1.837,0,0,0-.064.5c0,.512.256.9,1.072.9a2.8,2.8,0,0,0,2.432-1.616Zm10.256-3.088c0-1.712-1.312-2.64-3.2-2.64a4.656,4.656,0,0,0-4.72,4.672,2.721,2.721,0,0,0,2.992,2.88A4.816,4.816,0,0,0,46.784,12.248ZM44.928,12.2c0,2.048-1.328,4.32-2.8,4.32-.96,0-1.408-.5-1.408-2.048,0-1.808,1.376-4.224,2.784-4.224C44.24,10.248,44.928,10.744,44.928,12.2ZM60.537,6.04l-3.264.5.064.368a3.677,3.677,0,0,1,.672-.112c.208,0,.272.16.272.352a1.621,1.621,0,0,1-.064.416l-.592,2.432a2.759,2.759,0,0,0-1.36-.336c-2.944,0-4.448,3.248-4.448,5.552a1.872,1.872,0,0,0,2.112,2.016,3.245,3.245,0,0,0,2.256-1.1h.08a1.083,1.083,0,0,0,1.056,1.1,2.862,2.862,0,0,0,2.544-1.68l-.3-.176c-.288.384-.56.752-.848.752a.345.345,0,0,1-.384-.384,3.169,3.169,0,0,1,.128-.656Zm-3.264,5.424a6.867,6.867,0,0,1-.336,1.728c-.432,1.52-1.664,2.928-2.512,2.928-.336,0-.768-.272-.768-1.072,0-2.3,1.408-4.752,2.656-4.752A1.045,1.045,0,0,1,57.273,11.464Zm9.952,3.712c-.944.912-1.488,1.264-2.4,1.264-.928,0-1.632-.656-1.632-1.968a.813.813,0,0,1,.064-.368c1.824-.144,4.72-1.248,4.72-3.152,0-1.184-1.264-1.344-1.968-1.344a4.98,4.98,0,0,0-4.576,4.08,3.862,3.862,0,0,0-.1.944,2.341,2.341,0,0,0,2.528,2.528,4.276,4.276,0,0,0,3.664-1.872Zm-.864-4.352c0,1.136-1.712,2.464-2.992,2.64.144-1.248,1.36-3.216,2.448-3.216C66.233,10.248,66.361,10.408,66.361,10.824Zm7.177-.416c.32,0,1.024-.032,1.024.432a2.844,2.844,0,0,1-.112.624,19.475,19.475,0,0,0-1.04,4.5c0,.9.736,1.264,1.536,1.264a3.888,3.888,0,0,0,2.08-.688,12,12,0,0,0,3.568-4.128,4.376,4.376,0,0,0,.608-1.744,1.265,1.265,0,0,0-1.232-1.232,1.016,1.016,0,0,0-1.008.96c0,.912.752.848.752,1.68a2.032,2.032,0,0,1-.08.544c-.272.976-2.112,3.312-3.168,3.312-.448,0-.8-.176-.8-.672a21.7,21.7,0,0,1,.992-3.888c.192-.64.336-1.3.544-1.936a20.113,20.113,0,0,1-3.664.592Zm14.5,4.768c-.944.912-1.488,1.264-2.4,1.264-.928,0-1.632-.656-1.632-1.968a.813.813,0,0,1,.064-.368c1.824-.144,4.72-1.248,4.72-3.152,0-1.184-1.264-1.344-1.968-1.344a4.98,4.98,0,0,0-4.576,4.08,3.862,3.862,0,0,0-.1.944,2.341,2.341,0,0,0,2.528,2.528,4.276,4.276,0,0,0,3.664-1.872Zm-.864-4.352c0,1.136-1.712,2.464-2.992,2.64.144-1.248,1.36-3.216,2.448-3.216C87.041,10.248,87.169,10.408,87.169,10.824Zm10.336,4.5c-.32.416-.576.752-.864.752-.272,0-.336-.208-.336-.432a2.081,2.081,0,0,1,.048-.352l.8-3.408a6.507,6.507,0,0,0,.112-.976c0-.72-.32-1.3-1.424-1.3a3.194,3.194,0,0,0-2.72,1.7h-.064l.432-1.776-3.12.544.08.448a2.546,2.546,0,0,1,.752-.144c.16,0,.176.064.176.24a1.235,1.235,0,0,1-.032.24L89.937,17h1.84l.4-1.744c.4-1.76,1.744-4.448,2.656-4.448.256,0,.464.128.464.56a4.938,4.938,0,0,1-.048.752l-.864,3.568a2.44,2.44,0,0,0-.1.544c0,.56.352.928,1.088.928A2.775,2.775,0,0,0,97.825,15.5Zm5.936-5.68h-1.088l.464-2.112h-.864c-.528,1.408-.784,2.112-2.672,2.112l-.128.752h1.184l-1.216,5.264a2.069,2.069,0,0,0-.064.528c0,.7.464.976,1.056.976a2.916,2.916,0,0,0,2.416-1.664l-.32-.16c-.3.432-.576.7-.864.7-.208,0-.32-.208-.32-.512a2,2,0,0,1,.048-.3l1.1-4.832h1.072Zm8.992,5.68c-.336.432-.592.768-.9.768-.192,0-.256-.224-.256-.5a3.253,3.253,0,0,1,.1-.72L112.561,9.8h-1.84l-.176.816h-.032a1.209,1.209,0,0,0-1.344-1.008c-2.64,0-4.5,3.376-4.5,5.6a1.832,1.832,0,0,0,2.048,1.952,3.269,3.269,0,0,0,2.336-1.12h.1a1.034,1.034,0,0,0,1.1,1.12,2.7,2.7,0,0,0,2.48-1.648Zm-2.352-3.52c0,1.792-1.712,4.24-2.832,4.24-.288,0-.72-.16-.72-1.04,0-2.288,1.552-4.768,2.688-4.768C109.761,10.232,110.081,10.776,110.081,11.8Zm14.864-1.23h-6.516V9.289h6.516Zm0,3.25h-6.516V12.539h6.516Zm4.1,3.18h-1.539V15.422h1.539Zm12.219-2.937a1.634,1.634,0,0,0-.5-1.2,4.3,4.3,0,0,0-1.645-.887,5.668,5.668,0,0,1-2.383-1.273,2.857,2.857,0,0,1-.8-2.125,3,3,0,0,1,.742-2.1,3.2,3.2,0,0,1,2.039-.977V3.773h1.234V5.508a2.985,2.985,0,0,1,2.027,1.07,3.728,3.728,0,0,1,.723,2.406h-1.531a2.5,2.5,0,0,0-.492-1.609,1.643,1.643,0,0,0-1.359-.617,1.832,1.832,0,0,0-1.383.48,1.823,1.823,0,0,0-.461,1.316,1.644,1.644,0,0,0,.477,1.227,4.668,4.668,0,0,0,1.711.891,5.909,5.909,0,0,1,2.367,1.285,2.816,2.816,0,0,1,.773,2.09,2.864,2.864,0,0,1-.8,2.137,3.575,3.575,0,0,1-2.211.941v1.5h-1.227V17.133a3.58,3.58,0,0,1-2.2-.98,3.2,3.2,0,0,1-.828-2.465l.016-.039h1.484a2.128,2.128,0,0,0,.609,1.715,2.231,2.231,0,0,0,1.484.512,2.36,2.36,0,0,0,1.574-.48A1.653,1.653,0,0,0,141.265,14.063Zm3.49-5.446a2.2,2.2,0,0,1,2.016-1.328,1.44,1.44,0,0,1,1.584,1.648c0,.944-.576,1.616-2.1,2.1V11.3a6.01,6.01,0,0,1,2.448,1.232,2.639,2.639,0,0,1,.784,1.936c0,1.152-.608,1.952-1.568,1.952a1.627,1.627,0,0,1-1.264-.688,2.1,2.1,0,0,0-1.536-.912.974.974,0,0,0-1.04.96c0,.864.96,1.44,2.432,1.44,2.768,0,4.8-1.824,4.8-4.16a2.944,2.944,0,0,0-1.952-2.848,2.186,2.186,0,0,0,1.344-2.032,2.373,2.373,0,0,0-2.624-2.192,3.973,3.973,0,0,0-3.664,2.432Zm14.592-2.432H154.2l-1.552,5.52a12.311,12.311,0,0,1,2.88.352C157,12.52,157.8,13.4,157.8,14.488a1.591,1.591,0,0,1-1.6,1.664,2.375,2.375,0,0,1-1.44-.672,2.487,2.487,0,0,0-1.6-.736.95.95,0,0,0-.976.976c0,.752.928,1.408,2.352,1.408,2.64,0,4.512-1.536,4.512-3.872a3.481,3.481,0,0,0-2.768-3.424,10.122,10.122,0,0,0-2.416-.32l.352-1.3h4.416ZM162.624,17h-1.539V15.422h1.539Zm9.116-10.816H165.1l-.72,3.552h.416c.3-1.024.656-1.36,1.68-1.36h3.184L166.461,17h1.52ZM179.165,17v-.384c-1.456-.032-1.712-.288-1.712-1.5V5.992h-.288l-4.016,1.744v.416l.32-.128a3.266,3.266,0,0,1,1.04-.256c.4,0,.576.368.576,1.12v6.048c0,1.392-.3,1.664-1.888,1.68V17Zm8.56-2.3V12.92H186.7V5.992h-1.28l-5.008,6.9V14.7h3.968V17h2.32V14.7ZM184.4,12.92h-3.328l3.328-4.7Z" transform="translate(-0.672 -3.773)" fill="#9f0925"/>
</svg>
