<svg xmlns="http://www.w3.org/2000/svg" xmlns:xlink="http://www.w3.org/1999/xlink" width="295" height="230.17" viewBox="0 0 295 230.17">
  <defs>
    <clipPath id="clip-path">
      <rect id="Rectángulo_344444" data-name="Rectángulo 344444" width="250.714" height="230.17" fill="none"/>
    </clipPath>
  </defs>
  <g id="Grupo_985904" data-name="Grupo 985904" transform="translate(-180 -2213)">
    <rect id="Rectángulo_33972" data-name="Rectángulo 33972" width="170" height="134" rx="10" transform="translate(305 2213)" fill="#ea526f"/>
    <g id="Grupo_985903" data-name="Grupo 985903" transform="translate(180 2213)">
      <path id="Trazado_728670" data-name="Trazado 728670" d="M53.713,131.726l.692-.225-7.682-24.607-.692.226Z" transform="translate(156.948 -15.488)" fill="#e08b78"/>
      <rect id="Rectángulo_344403" data-name="Rectángulo 344403" width="3.978" height="21.853" transform="translate(201.787 76.006)" fill="#6171c1"/>
      <g id="Grupo_985902" data-name="Grupo 985902">
        <g id="Grupo_985901" data-name="Grupo 985901" clip-path="url(#clip-path)">
          <path id="Trazado_728671" data-name="Trazado 728671" d="M53.459,109.794h1.514a2.53,2.53,0,0,0,2.53-2.531V92.546a2.529,2.529,0,0,0-2.53-2.53H53.459a2.53,2.53,0,0,0-2.531,2.53v14.716a2.531,2.531,0,0,0,2.531,2.531" transform="translate(149.661 -13.042)" fill="#e08b78"/>
          <path id="Trazado_728672" data-name="Trazado 728672" d="M70.427,131.726l.692-.225-7.682-24.607-.692.226Z" transform="translate(125.942 -15.488)" fill="#e08b78"/>
          <rect id="Rectángulo_344404" data-name="Rectángulo 344404" width="3.977" height="21.853" transform="translate(187.496 76.006)" fill="#6171c1"/>
          <path id="Trazado_728673" data-name="Trazado 728673" d="M70.171,109.794h1.516a2.531,2.531,0,0,0,2.53-2.531V92.546a2.531,2.531,0,0,0-2.53-2.53H70.171a2.53,2.53,0,0,0-2.53,2.53v14.716a2.531,2.531,0,0,0,2.53,2.531" transform="translate(118.656 -13.042)" fill="#e08b78"/>
          <path id="Trazado_728674" data-name="Trazado 728674" d="M87.141,131.726l.692-.225L80.15,106.893l-.692.226Z" transform="translate(94.936 -15.488)" fill="#e08b78"/>
          <rect id="Rectángulo_344405" data-name="Rectángulo 344405" width="3.977" height="21.853" transform="translate(173.204 76.006)" fill="#6171c1"/>
          <path id="Trazado_728675" data-name="Trazado 728675" d="M86.887,109.794H88.4a2.53,2.53,0,0,0,2.53-2.531V92.546a2.529,2.529,0,0,0-2.53-2.53H86.887a2.53,2.53,0,0,0-2.531,2.53v14.716a2.531,2.531,0,0,0,2.531,2.531" transform="translate(87.649 -13.042)" fill="#e08b78"/>
          <path id="Trazado_728676" data-name="Trazado 728676" d="M103.853,131.726l.693-.225-7.683-24.607-.691.226Z" transform="translate(63.931 -15.488)" fill="#e08b78"/>
          <rect id="Rectángulo_344406" data-name="Rectángulo 344406" width="3.977" height="21.853" transform="translate(158.912 76.006)" fill="#6171c1"/>
          <path id="Trazado_728677" data-name="Trazado 728677" d="M103.6,109.794h1.515a2.531,2.531,0,0,0,2.531-2.531V92.546a2.53,2.53,0,0,0-2.531-2.53H103.6a2.53,2.53,0,0,0-2.53,2.53v14.716a2.531,2.531,0,0,0,2.53,2.531" transform="translate(56.643 -13.042)" fill="#e08b78"/>
          <path id="Trazado_728678" data-name="Trazado 728678" d="M120.569,131.726l.692-.225-7.682-24.607-.692.226Z" transform="translate(32.923 -15.488)" fill="#e08b78"/>
          <rect id="Rectángulo_344407" data-name="Rectángulo 344407" width="3.977" height="21.853" transform="translate(144.62 76.006)" fill="#6171c1"/>
          <path id="Trazado_728679" data-name="Trazado 728679" d="M120.315,109.794h1.514a2.53,2.53,0,0,0,2.53-2.531V92.546a2.529,2.529,0,0,0-2.53-2.53h-1.514a2.53,2.53,0,0,0-2.531,2.53v14.716a2.531,2.531,0,0,0,2.531,2.531" transform="translate(25.636 -13.042)" fill="#e08b78"/>
          <path id="Trazado_728680" data-name="Trazado 728680" d="M137.282,131.726l.692-.225-7.682-24.607-.691.226Z" transform="translate(1.918 -15.488)" fill="#e08b78"/>
          <rect id="Rectángulo_344408" data-name="Rectángulo 344408" width="3.978" height="21.853" transform="translate(130.327 76.006)" fill="#6171c1"/>
          <path id="Trazado_728681" data-name="Trazado 728681" d="M137.027,109.794h1.514a2.532,2.532,0,0,0,2.532-2.531V92.546a2.531,2.531,0,0,0-2.532-2.53h-1.514a2.53,2.53,0,0,0-2.531,2.53v14.716a2.531,2.531,0,0,0,2.531,2.531" transform="translate(-5.368 -13.042)" fill="#e08b78"/>
          <path id="Trazado_728682" data-name="Trazado 728682" d="M154,131.726l.693-.225L147,106.893l-.692.226Z" transform="translate(-29.088 -15.488)" fill="#e08b78"/>
          <rect id="Rectángulo_344409" data-name="Rectángulo 344409" width="3.978" height="21.853" transform="translate(116.035 76.006)" fill="#6171c1"/>
          <path id="Trazado_728683" data-name="Trazado 728683" d="M153.741,109.794h1.514a2.531,2.531,0,0,0,2.531-2.531V92.546a2.53,2.53,0,0,0-2.531-2.53h-1.514a2.53,2.53,0,0,0-2.531,2.53v14.716a2.531,2.531,0,0,0,2.531,2.531" transform="translate(-36.374 -13.042)" fill="#e08b78"/>
          <path id="Trazado_728684" data-name="Trazado 728684" d="M170.708,131.726l.693-.225-7.683-24.607-.691.226Z" transform="translate(-60.093 -15.488)" fill="#e08b78"/>
          <rect id="Rectángulo_344410" data-name="Rectángulo 344410" width="3.978" height="21.853" transform="translate(101.743 76.006)" fill="#6171c1"/>
          <path id="Trazado_728685" data-name="Trazado 728685" d="M170.455,109.794h1.514a2.531,2.531,0,0,0,2.531-2.531V92.546a2.53,2.53,0,0,0-2.531-2.53h-1.514a2.53,2.53,0,0,0-2.531,2.53v14.716a2.531,2.531,0,0,0,2.531,2.531" transform="translate(-67.38 -13.042)" fill="#e08b78"/>
          <path id="Trazado_728686" data-name="Trazado 728686" d="M64.315,99.588l.693-.225L57.325,74.757l-.692.225Z" transform="translate(137.279 -10.831)" fill="#c66454"/>
          <rect id="Rectángulo_344411" data-name="Rectángulo 344411" width="3.978" height="21.853" transform="translate(192.721 48.525)" fill="#6171c1"/>
          <path id="Trazado_728687" data-name="Trazado 728687" d="M64.06,77.657h1.514a2.532,2.532,0,0,0,2.532-2.531V60.409a2.532,2.532,0,0,0-2.532-2.531H64.06a2.53,2.53,0,0,0-2.53,2.531V75.126a2.53,2.53,0,0,0,2.53,2.531" transform="translate(129.993 -8.386)" fill="#c66454"/>
          <path id="Trazado_728688" data-name="Trazado 728688" d="M81.03,99.588l.692-.225L74.038,74.757l-.691.225Z" transform="translate(106.273 -10.831)" fill="#c66454"/>
          <rect id="Rectángulo_344412" data-name="Rectángulo 344412" width="3.978" height="21.853" transform="translate(178.429 48.525)" fill="#6171c1"/>
          <path id="Trazado_728689" data-name="Trazado 728689" d="M80.776,77.657h1.514a2.531,2.531,0,0,0,2.531-2.531V60.409a2.531,2.531,0,0,0-2.531-2.531H80.776a2.531,2.531,0,0,0-2.531,2.531V75.126a2.531,2.531,0,0,0,2.531,2.531" transform="translate(98.984 -8.386)" fill="#c66454"/>
          <path id="Trazado_728690" data-name="Trazado 728690" d="M97.744,99.588l.692-.225L90.753,74.757l-.692.225Z" transform="translate(75.267 -10.831)" fill="#c66454"/>
          <rect id="Rectángulo_344413" data-name="Rectángulo 344413" width="3.977" height="21.853" transform="translate(164.138 48.525)" fill="#6171c1"/>
          <path id="Trazado_728691" data-name="Trazado 728691" d="M97.488,77.657H99a2.531,2.531,0,0,0,2.531-2.531V60.409A2.531,2.531,0,0,0,99,57.878H97.488a2.53,2.53,0,0,0-2.53,2.531V75.126a2.53,2.53,0,0,0,2.53,2.531" transform="translate(67.981 -8.386)" fill="#c66454"/>
          <path id="Trazado_728692" data-name="Trazado 728692" d="M114.457,99.588l.692-.225-7.683-24.607-.691.225Z" transform="translate(44.261 -10.831)" fill="#c66454"/>
          <rect id="Rectángulo_344414" data-name="Rectángulo 344414" width="3.978" height="21.853" transform="translate(149.845 48.525)" fill="#6171c1"/>
          <path id="Trazado_728693" data-name="Trazado 728693" d="M114.2,77.657h1.515a2.531,2.531,0,0,0,2.53-2.531V60.409a2.531,2.531,0,0,0-2.53-2.531H114.2a2.53,2.53,0,0,0-2.53,2.531V75.126a2.53,2.53,0,0,0,2.53,2.531" transform="translate(36.975 -8.386)" fill="#ffc35a"/>
          <path id="Trazado_728694" data-name="Trazado 728694" d="M131.171,99.588l.692-.225-7.682-24.607-.692.225Z" transform="translate(13.255 -10.831)" fill="#c66454"/>
          <rect id="Rectángulo_344415" data-name="Rectángulo 344415" width="3.977" height="21.853" transform="translate(135.553 48.525)" fill="#6171c1"/>
          <path id="Trazado_728695" data-name="Trazado 728695" d="M130.916,77.657h1.515a2.531,2.531,0,0,0,2.53-2.531V60.409a2.531,2.531,0,0,0-2.53-2.531h-1.515a2.53,2.53,0,0,0-2.53,2.531V75.126a2.53,2.53,0,0,0,2.53,2.531" transform="translate(5.968 -8.386)" fill="#ffc35a"/>
          <path id="Trazado_728696" data-name="Trazado 728696" d="M147.885,99.588l.692-.225-7.683-24.607-.691.225Z" transform="translate(-17.752 -10.831)" fill="#c66454"/>
          <rect id="Rectángulo_344416" data-name="Rectángulo 344416" width="3.978" height="21.853" transform="translate(121.26 48.525)" fill="#6171c1"/>
          <path id="Trazado_728697" data-name="Trazado 728697" d="M147.63,77.657h1.516a2.53,2.53,0,0,0,2.529-2.531V60.409a2.53,2.53,0,0,0-2.529-2.531H147.63a2.531,2.531,0,0,0-2.53,2.531V75.126a2.531,2.531,0,0,0,2.53,2.531" transform="translate(-25.038 -8.386)" fill="#ffc35a"/>
          <path id="Trazado_728698" data-name="Trazado 728698" d="M164.6,99.588l.692-.225-7.682-24.607-.692.225Z" transform="translate(-48.758 -10.831)" fill="#c66454"/>
          <rect id="Rectángulo_344417" data-name="Rectángulo 344417" width="3.977" height="21.853" transform="translate(106.968 48.525)" fill="#6171c1"/>
          <path id="Trazado_728699" data-name="Trazado 728699" d="M164.344,77.657h1.515a2.531,2.531,0,0,0,2.53-2.531V60.409a2.531,2.531,0,0,0-2.53-2.531h-1.515a2.531,2.531,0,0,0-2.53,2.531V75.126a2.531,2.531,0,0,0,2.53,2.531" transform="translate(-56.044 -8.386)" fill="#ffc35a"/>
          <path id="Trazado_728700" data-name="Trazado 728700" d="M181.313,99.588l.692-.225-7.682-24.607-.692.225Z" transform="translate(-79.764 -10.831)" fill="#c66454"/>
          <rect id="Rectángulo_344418" data-name="Rectángulo 344418" width="3.977" height="21.853" transform="translate(92.676 48.525)" fill="#6171c1"/>
          <path id="Trazado_728701" data-name="Trazado 728701" d="M181.059,77.657h1.514a2.531,2.531,0,0,0,2.53-2.531V60.409a2.531,2.531,0,0,0-2.53-2.531h-1.514a2.531,2.531,0,0,0-2.531,2.531V75.126a2.531,2.531,0,0,0,2.531,2.531" transform="translate(-87.051 -8.386)" fill="#ffc35a"/>
          <rect id="Rectángulo_344419" data-name="Rectángulo 344419" width="137.241" height="8.111" transform="translate(81.976 163.216)" fill="#505783"/>
          <rect id="Rectángulo_344420" data-name="Rectángulo 344420" width="130.705" height="41.428" transform="translate(85.385 155.214)" fill="#e08b78"/>
          <rect id="Rectángulo_344421" data-name="Rectángulo 344421" width="158.113" height="8.111" transform="translate(68.771 99.767)" fill="#7682d3"/>
          <rect id="Rectángulo_344422" data-name="Rectángulo 344422" width="130.705" height="54.967" transform="translate(85.385 99.399)" fill="#e08b78"/>
          <path id="Trazado_728702" data-name="Trazado 728702" d="M71.507,117.47s1.4,4.3.9,30.385,4.874,30.516,3.288,41.51-1.042,13.077-1.042,13.077l85.757-6.2s-19.123-21.883-17.441-35.61-2.571-34.3-.958-40.595-26.262-.3-70.5-2.563" transform="translate(29.159 -16.959)" fill="#ffc35a"/>
          <rect id="Rectángulo_344423" data-name="Rectángulo 344423" width="137.241" height="8.111" transform="translate(81.976 150.311)" fill="#505783"/>
          <rect id="Rectángulo_344424" data-name="Rectángulo 344424" width="19.038" height="8.11" transform="translate(203.376 195.118)" fill="#6171c1"/>
          <rect id="Rectángulo_344425" data-name="Rectángulo 344425" width="3.978" height="21.089" transform="translate(219.107 150.342)" fill="#505783"/>
          <rect id="Rectángulo_344426" data-name="Rectángulo 344426" width="3.977" height="21.089" transform="translate(79.503 150.342)" fill="#505783"/>
          <rect id="Rectángulo_344427" data-name="Rectángulo 344427" width="5.82" height="1.823" transform="translate(244.12 176.675)" fill="#6171c1"/>
          <path id="Trazado_728703" data-name="Trazado 728703" d="M0,207.342a1.961,1.961,0,0,0,1.94,1.98,1.98,1.98,0,0,0,0-3.96A1.961,1.961,0,0,0,0,207.342" transform="translate(246.835 -29.755)" fill="#e08b78"/>
          <rect id="Rectángulo_344428" data-name="Rectángulo 344428" width="5.82" height="1.823" transform="translate(244.12 181.786)" fill="#6171c1"/>
          <path id="Trazado_728704" data-name="Trazado 728704" d="M0,213.318a1.961,1.961,0,0,0,1.94,1.98,1.98,1.98,0,0,0,0-3.96A1.961,1.961,0,0,0,0,213.318" transform="translate(246.835 -30.621)" fill="#e08b78"/>
          <rect id="Rectángulo_344429" data-name="Rectángulo 344429" width="5.398" height="35.945" transform="translate(242.019 127.377)" fill="#6171c1"/>
          <path id="Trazado_728705" data-name="Trazado 728705" d="M9.146,249.334H17.13a2.8,2.8,0,0,0,2.8-2.794V138.5a2.8,2.8,0,0,0-2.8-2.8H9.146a2.8,2.8,0,0,0-2.795,2.8V246.54a2.794,2.794,0,0,0,2.795,2.794" transform="translate(225.358 -19.663)" fill="#6171c1"/>
          <rect id="Rectángulo_344430" data-name="Rectángulo 344430" width="16.367" height="154.858" transform="translate(222.129 74.814)" fill="#7682d3"/>
          <rect id="Rectángulo_344431" data-name="Rectángulo 344431" width="23.154" height="60.998" transform="translate(222.129 168.674)" fill="#6171c1"/>
          <rect id="Rectángulo_344432" data-name="Rectángulo 344432" width="126.053" height="39.844" transform="translate(90.039 177.682)" fill="#c66454"/>
          <path id="Trazado_728706" data-name="Trazado 728706" d="M182.459,228.019c0,10.91,2.083,19.755,4.653,19.755s4.654-8.844,4.654-19.755-2.083-19.755-4.654-19.755-4.653,8.844-4.653,19.755" transform="translate(-97.074 -30.175)" fill="#998f82"/>
          <path id="Trazado_728707" data-name="Trazado 728707" d="M187.337,244.96c1.573,0,3.325-6.721,3.325-16.367s-1.752-16.365-3.325-16.365-3.325,6.721-3.325,16.365,1.752,16.367,3.325,16.367" transform="translate(-97.298 -30.75)" fill="#e9e3cd"/>
          <path id="Trazado_728708" data-name="Trazado 728708" d="M187.562,242.145c.154,0,.623-.693,1.093-2.835a57.41,57.41,0,0,0,0-20.285c-.47-2.142-.939-2.836-1.093-2.836s-.623.693-1.093,2.836a57.412,57.412,0,0,0,0,20.285c.47,2.141.94,2.835,1.093,2.835" transform="translate(-97.523 -31.324)" fill="#afaa98"/>
          <path id="Trazado_728709" data-name="Trazado 728709" d="M39.7,208.265c2.57,0,4.653,8.844,4.653,19.755S42.27,247.774,39.7,247.774s-4.653-8.845-4.653-19.755,2.082-19.755,4.653-19.755" transform="translate(176.391 -30.176)" fill="#c66454"/>
          <rect id="Rectángulo_344433" data-name="Rectángulo 344433" width="13.177" height="8.11" transform="translate(76.861 195.118)" fill="#7682d3"/>
          <rect id="Rectángulo_344434" data-name="Rectángulo 344434" width="29.348" height="3.187" transform="translate(219.032 226.983)" fill="#6171c1"/>
          <rect id="Rectángulo_344435" data-name="Rectángulo 344435" width="5.397" height="35.945" transform="translate(55.061 127.377)" fill="#6171c1"/>
          <path id="Trazado_728710" data-name="Trazado 728710" d="M221.213,249.334h-7.985a2.794,2.794,0,0,1-2.794-2.794V138.5a2.794,2.794,0,0,1,2.794-2.8h7.985a2.8,2.8,0,0,1,2.8,2.8V246.54a2.8,2.8,0,0,1-2.8,2.794" transform="translate(-153.238 -19.663)" fill="#6171c1"/>
          <rect id="Rectángulo_344436" data-name="Rectángulo 344436" width="16.368" height="154.858" transform="translate(63.981 74.814)" fill="#7682d3"/>
          <path id="Trazado_728711" data-name="Trazado 728711" d="M199.092,260.566h22.991l2.759-47.338H196.332Z" transform="translate(-142.014 -30.895)" fill="#6171c1"/>
          <rect id="Rectángulo_344437" data-name="Rectángulo 344437" width="29.347" height="3.187" transform="translate(53.9 226.983)" fill="#6171c1"/>
          <rect id="Rectángulo_344438" data-name="Rectángulo 344438" width="142.736" height="1.547" transform="translate(80.349 74.814)" fill="#7682d3"/>
          <rect id="Rectángulo_344439" data-name="Rectángulo 344439" width="142.736" height="1.548" transform="translate(80.014 45.729)" fill="#7682d3"/>
          <rect id="Rectángulo_344440" data-name="Rectángulo 344440" width="142.736" height="1.547" transform="translate(80.014 69.605)" fill="#7682d3"/>
          <rect id="Rectángulo_344441" data-name="Rectángulo 344441" width="11.576" height="41.702" transform="translate(222.129 45.73)" fill="#7682d3"/>
          <rect id="Rectángulo_344442" data-name="Rectángulo 344442" width="11.577" height="41.702" transform="translate(68.258 45.73)" fill="#7682d3"/>
          <path id="Trazado_728712" data-name="Trazado 728712" d="M227.895,196.387c.942-.278,42.413-6.075,47.868,1.267s-51.853,4.014-54.647.977,6.778-2.244,6.778-2.244" transform="translate(-214.057 -28.102)" fill="#603f36"/>
          <path id="Trazado_728713" data-name="Trazado 728713" d="M269.447,15.062s-4.989-2.959-9.728,3.528,7.421,11.258.873,15.234-6.922,9.713.25,12.707,19.3,1.542,20-10.486-11.4-20.983-11.4-20.983" transform="translate(-248.7 -2.085)" fill="#ba5a13"/>
          <path id="Trazado_728714" data-name="Trazado 728714" d="M194.086,69.288l.87-2.346a10.74,10.74,0,0,1,2.291-3.745c1.118-1.152,2.556-2.354,3.365-1.909,1.452.8-1.331,2.181-1.4,4.872s-5.123,3.13-5.123,3.13" transform="translate(-116.282 -8.866)" fill="#ffab6d"/>
          <path id="Trazado_728715" data-name="Trazado 728715" d="M195.431,73.153l16.243-4.837c1.554-.46,4.441-.217,4.89,1.8a4.708,4.708,0,0,1-2.137,5.16L200.9,81.723c-1.069-3.225-4.706-5.2-5.474-8.57" transform="translate(-133.081 -9.87)" fill="#ffcaa6"/>
          <path id="Trazado_728716" data-name="Trazado 728716" d="M212.27,46.868c2.762-3.816,4.712-6.542,10.033,3.271l7.931,14.314c2.179,3.918,3.914,5.68,5.822,5.118l5.144-1.545a78.177,78.177,0,0,0,2.207,9.211c.01.029-10.792,5.176-10.792,5.176a3.677,3.677,0,0,1-4.416-.943l-.488-.533s-9.458-11.993-9.632-12.238c-2.357-3.32-8.267-18.435-5.81-21.83" transform="translate(-173.707 -6.287)" fill="#ffcaa6"/>
          <path id="Trazado_728717" data-name="Trazado 728717" d="M188.029,72.85c-.824-1.82,3.749-5.489,4.745-6.332.792-.67,1.809-1.764,2.754-1.9s1.677.652,2.584.687c1.122.044,1.8-.916,2.426-2.015.529-.935,1.143-2,2.057-1.438a6.123,6.123,0,0,1,1.61,2.662,4.185,4.185,0,0,1,.071,2.735,9.908,9.908,0,0,1-1.371,3.29,22.362,22.362,0,0,1-2.755,2.5,15.431,15.431,0,0,1-5.6,1.353c-.8-.1-1.594-.232-2.4-.28-1.19-.073-3.476.167-4.122-1.26" transform="translate(-114.456 -8.938)" fill="#ffcaa6"/>
          <path id="Trazado_728718" data-name="Trazado 728718" d="M189.254,68.194a.231.231,0,0,1-.045-.08.307.307,0,0,1,.117-.341l.677-.42a6.117,6.117,0,0,0,2.376-2.976l.615-1.56a.212.212,0,0,1,.274-.148.255.255,0,0,1,.087.325l-.615,1.56a6.67,6.67,0,0,1-2.593,3.245l-.676.42a.165.165,0,0,1-.217-.026" transform="translate(-104.446 -9.078)" fill="#d35e0d"/>
          <path id="Trazado_728719" data-name="Trazado 728719" d="M188.062,70.289a.223.223,0,0,1-.046-.08.306.306,0,0,1,.117-.34l.677-.42a6.119,6.119,0,0,0,2.377-2.976l.615-1.56a.211.211,0,0,1,.273-.148.255.255,0,0,1,.087.325l-.615,1.56a6.664,6.664,0,0,1-2.592,3.245l-.677.42a.165.165,0,0,1-.216-.026" transform="translate(-102.234 -9.382)" fill="#d35e0d"/>
          <path id="Trazado_728720" data-name="Trazado 728720" d="M235.577,71.239l-4.866,9.8-2.737-2.911Z" transform="translate(-179.806 -10.322)" fill="#603f36"/>
          <path id="Trazado_728721" data-name="Trazado 728721" d="M246.7,59.783,239.33,72.646s-13.917-18.152-8.31-27.554c5.128-7.705,12.346,6.282,15.681,14.692" transform="translate(-192.397 -6.209)" fill="#e9e3cd"/>
          <path id="Trazado_728722" data-name="Trazado 728722" d="M238.2,67.243l-2.222-4.591-8.891,11.34,3.177,4.53a16.8,16.8,0,0,0,7.937-11.28" transform="translate(-181.677 -9.078)" fill="#fffae9"/>
          <path id="Trazado_728723" data-name="Trazado 728723" d="M224.236,185.9l-1.76,55.754,12.465,6.009,13.01-61.763Z" transform="translate(-187.478 -26.935)" fill="#ffcaa6"/>
          <path id="Trazado_728724" data-name="Trazado 728724" d="M264.8,185.9l-5.332,55.759,13.045,3.344,14.359-59.1Z" transform="translate(-258.029 -26.935)" fill="#ffb685"/>
          <path id="Trazado_728725" data-name="Trazado 728725" d="M240.022,74.716,237.115,48.5c.709-5.912,13.62-6.643,20.009-8.755l8.493-.211c5.627.977,14.312,2.359,15.3,8.23l-.083,30.078-6.315,20.64-27.607-.553Z" transform="translate(-232.963 -5.729)" fill="#e9e3cd"/>
          <path id="Trazado_728726" data-name="Trazado 728726" d="M242.462,42.46a42.853,42.853,0,0,1,4.859,26.76l-.286,1.983L236.907,74.9s3.822,24.129,4.686,24.306,33.361.705,33.361.705l2.765-21.881.122-2.139a87.836,87.836,0,0,0-1.3-20.813l-2.357-12.83-4.758-1.453-1.372,10.789a3.137,3.137,0,0,1-3.177,2.741l-10.351-.212a3.38,3.38,0,0,1-3.157-2.369l-3.377-10.773Z" transform="translate(-229.848 -5.911)" fill="#998f82"/>
          <path id="Trazado_728727" data-name="Trazado 728727" d="M221.509,173.579c.348-3.4,2.521-7.951,2.563-10.852.022-1.582-1.866-6.126-1.85-7.481.09-7.792,1.753-9.7.649-15.251a15.989,15.989,0,0,0-.65-2.931c-5.768-14.4,4.785-39.2,4.785-39.2l37.474-1.195s5.315,19.21,12.192,41.708c4.431,14.5,2.461,41.666,2.631,44.448a6.986,6.986,0,0,1-.166,2.019,38.257,38.257,0,0,0-18.438-1.335c-12.84,2.411-21.392,9.725-39.516,1.23,1.271-4.026-.1-7.012.327-11.163" transform="translate(-217.429 -14.007)" fill="#998f82"/>
          <path id="Trazado_728728" data-name="Trazado 728728" d="M230,12.448l-.242.612c.106-.241.184-.44.24-.586s.095-.261.106-.293Z" transform="translate(-175.866 -1.765)" fill="#eab681"/>
          <path id="Trazado_728729" data-name="Trazado 728729" d="M258.485,45.2h-1.293a5.814,5.814,0,0,1-5.814-5.815V22.829H264.3V39.386a5.815,5.815,0,0,1-5.816,5.815" transform="translate(-228.542 -3.308)" fill="#ffb685"/>
          <path id="Trazado_728730" data-name="Trazado 728730" d="M259.078,35.965c-4.68,0-7.847-4.472-7.882-4.523a.191.191,0,0,1,.044-.263.181.181,0,0,1,.257.044c.038.054,3.8,5.365,9.112,4.2a.186.186,0,0,1,.22.145.189.189,0,0,1-.141.224,7.455,7.455,0,0,1-1.61.177" transform="translate(-224.891 -4.513)" fill="#ee7035"/>
          <path id="Trazado_728731" data-name="Trazado 728731" d="M242.457,18.08s3.7,13.9,12.839,13.365,9.422-19.139,7.959-23.02S251.776-.062,244.8,7c-3.974,4.022-2.342,11.082-2.342,11.082" transform="translate(-220.248 -0.482)" fill="#ffb685"/>
          <path id="Trazado_728732" data-name="Trazado 728732" d="M254.6,24.062a1.061,1.061,0,1,1-1.061-1.083,1.073,1.073,0,0,1,1.061,1.083" transform="translate(-219.774 -3.329)" fill="#e08b78"/>
          <path id="Trazado_728733" data-name="Trazado 728733" d="M250.418,20.541a.7.7,0,0,0,1.3.525.7.7,0,0,0-1.3-.525" transform="translate(-215.145 -2.913)" fill="#603f36"/>
          <path id="Trazado_728734" data-name="Trazado 728734" d="M243.611,20.566a.642.642,0,0,0,1.189.481.642.642,0,0,0-1.189-.481" transform="translate(-202.407 -2.922)" fill="#603f36"/>
          <path id="Trazado_728735" data-name="Trazado 728735" d="M251.441,29.922a1.866,1.866,0,0,1-.9-.266,3.747,3.747,0,0,1-1.345-2.623.185.185,0,1,1,.368-.033,3.436,3.436,0,0,0,1.167,2.332,2.022,2.022,0,0,0,1.92-.061.184.184,0,0,1,.244.1.192.192,0,0,1-.095.249,3.059,3.059,0,0,1-1.355.305" transform="translate(-215.279 -3.887)" fill="#6a4a3f"/>
          <path id="Trazado_728736" data-name="Trazado 728736" d="M247.458,25.75a1.2,1.2,0,0,0,.449-.086,1.243,1.243,0,0,0,.67-1.537c-.239-.968-.859-3.584-.865-3.61a.218.218,0,0,0-.262-.163.221.221,0,0,0-.16.267c.006.027.626,2.644.865,3.615a.812.812,0,0,1-.409,1.018c-.392.159-.97-.012-1.376-.752a.215.215,0,0,0-.3-.084.224.224,0,0,0-.083.3,1.728,1.728,0,0,0,1.466,1.033" transform="translate(-208.24 -2.948)" fill="#603f36"/>
          <path id="Trazado_728737" data-name="Trazado 728737" d="M246.97,39.972a3.886,3.886,0,0,1,1.978-.866c.167-.046.579-.181.675.024a1.341,1.341,0,0,1,.039.406c.019.243.036.486.056.729.18,2.151.275,4.925,2.233,6.339,2.121,1.53,5.427.987,7.359-.581a8.361,8.361,0,0,0,2.929-4.772,7.7,7.7,0,0,1,.115-.94c.272-1.034,1.414-.689,2.167-.5.641.16,1.472.353,1.756,1.033.345.823-.174,1.791-.431,2.564-.66,1.979-1.2,4.04-2.547,5.691a4.546,4.546,0,0,1-2.7,1.671,3.789,3.789,0,0,1-3.733-1.627,2.761,2.761,0,0,1-.227-.412c-.05-.119-.06-.319-.174-.4a2.522,2.522,0,0,0-.316.573,3.2,3.2,0,0,1-.35.506,3.918,3.918,0,0,1-5.222.659c-2.174-1.642-2.726-4.837-3.337-7.323a14.777,14.777,0,0,1-.4-2.074.914.914,0,0,1,.128-.7" transform="translate(-226.74 -5.653)" fill="#fffae9"/>
          <path id="Trazado_728738" data-name="Trazado 728738" d="M204.818,106.455l.863.123,4.707-30.526-.863-.123Z" transform="translate(-134.816 -11.001)" fill="#c66454"/>
          <rect id="Rectángulo_344443" data-name="Rectángulo 344443" width="4.766" height="26.183" transform="translate(74.425 73.099) rotate(-153.899)" fill="#6171c1"/>
          <path id="Trazado_728739" data-name="Trazado 728739" d="M194.42,78.8l1.63.8a3.031,3.031,0,0,0,4.057-1.389l7.759-15.835a3.032,3.032,0,0,0-1.39-4.057l-1.631-.8a3.032,3.032,0,0,0-4.057,1.389l-7.758,15.835A3.031,3.031,0,0,0,194.42,78.8" transform="translate(-122.259 -8.289)" fill="#c66454"/>
          <path id="Trazado_728740" data-name="Trazado 728740" d="M205.527,80.205l1.567-2.063a10.4,10.4,0,0,1,3.657-3.034c1.651-.816,3.724-1.589,4.672-.921,1.7,1.2-2.124,1.768-2.739,4.4s-7.158,1.62-7.158,1.62" transform="translate(-140.891 -10.712)" fill="#ffb685"/>
          <path id="Trazado_728741" data-name="Trazado 728741" d="M212.571,47.348c2.749-2.282,6.777-1.84,12.2,6.081l8.422,17.759a7.167,7.167,0,0,0,6.193,3.452l33.033-.128a4,4,0,0,1,4.031,3.656,4.254,4.254,0,0,1-3.733,4.471L231.7,88.144a5.94,5.94,0,0,1-5.463-2.187l-.522-.664s-9.768-14.5-9.944-14.8c-2.369-3.94-6.757-20.193-3.2-23.15" transform="translate(-206.371 -6.687)" fill="#ffb685"/>
          <path id="Trazado_728742" data-name="Trazado 728742" d="M199.6,85.242c-1.174-1.931,4.514-5.28,5.751-6.054.983-.615,2.232-1.644,3.444-1.7s2.207.812,3.382.926c1.451.143,2.275-.777,3.013-1.846.628-.909,1.355-1.947,2.57-1.29A7.4,7.4,0,0,1,220,78.134a3.5,3.5,0,0,1,.256,2.8,7.79,7.79,0,0,1-1.573,3.242,22.984,22.984,0,0,1-3.41,2.315c-.688.467-5.828,1.113-7.155.894-1.035-.17-2.073-.375-3.113-.5-1.543-.178-4.482-.132-5.4-1.646" transform="translate(-140.257 -10.877)" fill="#ffb685"/>
          <path id="Trazado_728743" data-name="Trazado 728743" d="M201.387,81.482a.266.266,0,0,1-.063-.086.253.253,0,0,1,.131-.338l.849-.37a5.644,5.644,0,0,0,2.893-2.832l.7-1.539a.262.262,0,0,1,.345-.127.256.256,0,0,1,.132.339l-.7,1.539a6.15,6.15,0,0,1-3.155,3.089l-.849.37a.265.265,0,0,1-.281-.045" transform="translate(-127.817 -11.036)" fill="#d35e0d"/>
          <path id="Trazado_728744" data-name="Trazado 728744" d="M199.721,83.725a.254.254,0,0,1,.068-.424l.849-.369A5.64,5.64,0,0,0,203.53,80.1l.7-1.539a.262.262,0,0,1,.345-.127.255.255,0,0,1,.132.339l-.7,1.539a6.153,6.153,0,0,1-3.155,3.089l-.849.37a.265.265,0,0,1-.281-.045" transform="translate(-124.725 -11.361)" fill="#d35e0d"/>
          <path id="Trazado_728745" data-name="Trazado 728745" d="M276.864,75.367l-8.356,8.027-2.83-3.73Z" transform="translate(-253.333 -10.92)" fill="#603f36"/>
          <path id="Trazado_728746" data-name="Trazado 728746" d="M285.873,65.632l-14.046,8.839s-13.9-20.588-4.908-28.248c5.615-2.955,12.142,3.724,18.954,19.408" transform="translate(-260.814 -6.598)" fill="#e9e3cd"/>
          <path id="Trazado_728747" data-name="Trazado 728747" d="M278.485,70.4l-2.7-4.972-2.273,3.259a29.353,29.353,0,0,1-11.152,7.368l2.459,4.146s10.078-2.352,13.664-9.8" transform="translate(-252.119 -9.479)" fill="#fffae9"/>
          <path id="Trazado_728748" data-name="Trazado 728748" d="M278.852,67.251c.258.426.451.889.669,1.337q.31.641.629,1.279.654,1.308,1.353,2.594Q282.88,75,284.418,77.45c.274.436.559.869.792,1.33.181.362.472.912.319,1.316-.01.027-.043.048-.066.019a1.447,1.447,0,0,1-.211-.489,4.354,4.354,0,0,0-.282-.648c-.213-.41-.473-.794-.724-1.181-.511-.789-1-1.592-1.483-2.4q-1.475-2.483-2.774-5.066-.371-.738-.727-1.483a12.87,12.87,0,0,1-.647-1.484.132.132,0,0,1,.238-.112" transform="translate(-273.097 -9.734)" fill="#998f82"/>
          <path id="Trazado_728749" data-name="Trazado 728749" d="M237.56,8.087s.848.558,1.429,4.116c.846,5.184,13.031,4.437,12.943,0-1.1,2.085-3.578.113-2.816-2.03,2.11-5.935-8.893-7.111-11.556-2.086" transform="translate(-204.359 -0.714)" fill="#ba5a13"/>
          <path id="Trazado_728750" data-name="Trazado 728750" d="M259.876,8.676s-1.509,7.7-8.832,7.375c-2.073,1.49-2.437,4.278-2.438,6.051a1.716,1.716,0,0,1-3.176.908c-.014-.022-.028-.045-.041-.068-1.384-2.34-4.66-7.839-.3-17.594,2.4-5.359,12.621-8.708,20.016,0,6.213,7.316-5.234,3.328-5.234,3.328" transform="translate(-223.955 0)" fill="#ba5a13"/>
          <path id="Trazado_728751" data-name="Trazado 728751" d="M264.271,19.922a2.19,2.19,0,0,0-1.149-2.163c-1.054-.545-2.418-.6-2.952.882-1.257,3.5,2.7,4.334,3.815,4.768Z" transform="translate(-235.832 -2.522)" fill="#ffb685"/>
          <path id="Trazado_728752" data-name="Trazado 728752" d="M263.01,20.565a.185.185,0,0,1-.155-.128c-.6-1.864-1.858-1.209-2.022-1.166a.185.185,0,0,1-.225-.135.189.189,0,0,1,.133-.23,2.036,2.036,0,0,1,2.464,1.413.188.188,0,0,1-.117.238.166.166,0,0,1-.079.009" transform="translate(-235.345 -2.732)" fill="#ee7035"/>
          <path id="Trazado_728753" data-name="Trazado 728753" d="M242.787,101.075a110.614,110.614,0,0,0,14.143,1.384q3.514.11,7.032-.008a45.7,45.7,0,0,0,6.317-.547,21.334,21.334,0,0,0,3.342-.841,18.1,18.1,0,0,0,3.128-1.447c.167-.1.27.174.132.27a15.681,15.681,0,0,1-5.709,2.278,38.035,38.035,0,0,1-6.154.7,105.76,105.76,0,0,1-14.255-.314c-2.671-.238-5.338-.569-7.982-1.014-.252-.043-.246-.5.008-.458" transform="translate(-233.674 -14.43)" fill="#e9e3cd"/>
          <path id="Trazado_728754" data-name="Trazado 728754" d="M258.494,94.9a35.579,35.579,0,0,0,3.916,1.114,36.536,36.536,0,0,0,4.047.623,64.56,64.56,0,0,0,8.215.211q1.142-.032,2.281-.082c.78-.033,1.564-.1,2.345-.079.163,0,.148.259,0,.279-.679.087-1.368.1-2.051.138q-1.049.051-2.1.091c-1.387.052-2.774.081-4.161.069a45.086,45.086,0,0,1-8.146-.732,25.547,25.547,0,0,1-4.447-1.225c-.215-.085-.135-.487.1-.407" transform="translate(-249.546 -13.748)" fill="#e9e3cd"/>
          <path id="Trazado_728755" data-name="Trazado 728755" d="M267.335,123.983a4.742,4.742,0,0,1,.93-.425q.464-.187.924-.388.922-.4,1.82-.859a37.169,37.169,0,0,0,9.717-7.115,38.054,38.054,0,0,0,2.99-3.425c.125-.162.3.088.192.227a35.386,35.386,0,0,1-5.56,5.966,36.834,36.834,0,0,1-6.762,4.571q-1,.523-2.027.984c-.352.16-.71.312-1.069.46a4.116,4.116,0,0,1-1.077.354c-.184.021-.194-.272-.077-.351" transform="translate(-261.762 -16.187)" fill="#e9e3cd"/>
          <path id="Trazado_728756" data-name="Trazado 728756" d="M236.9,238.376l-15.972-1.645v21.875h24.707s4.7-4.288,0-9.153a11.482,11.482,0,0,0-10.323-3.534l1.023-4.855Z" transform="translate(-185.932 -34.3)" fill="#cc9a9a"/>
          <path id="Trazado_728757" data-name="Trazado 728757" d="M277.483,238.376l-15.972-1.645-2.046,21.875h26.753s4.7-4.288,0-9.153a11.482,11.482,0,0,0-10.323-3.534l1.023-4.855Z" transform="translate(-259.465 -34.3)" fill="#c48d8d"/>
          <path id="Trazado_728758" data-name="Trazado 728758" d="M253.526,183.7c.365-1.068.689-2.149,1-3.233a55.992,55.992,0,0,0,1.491-6.66,56.892,56.892,0,0,0,.535-13.547,1.2,1.2,0,0,1,.887-1.388,1.182,1.182,0,0,1,1.243,1.079,56.668,56.668,0,0,1-.33,14.387,58.871,58.871,0,0,1-1.5,6.944c-.331,1.172-.724,2.328-1.146,3.471a5.615,5.615,0,0,1-1.768,2.929c-.5.32-1.033-.275-1.1-.716a7.417,7.417,0,0,1,.689-3.267" transform="translate(-224.451 -23.017)" fill="#8e8273"/>
        </g>
      </g>
    </g>
  </g>
</svg>
