<svg xmlns="http://www.w3.org/2000/svg" width="171.892" height="34.88" viewBox="0 0 171.892 34.88">
  <g id="Grupo_987195" data-name="Grupo 987195" transform="translate(-1216.608 -2340.312)">
    <g id="Grupo_985067" data-name="Grupo 985067" transform="translate(991 839)">
      <path id="Trazado_733360" data-name="Trazado 733360" d="M43.052,10.392H41.036a2.035,2.035,0,0,0-1.408-.448,2.649,2.649,0,0,0-2.784,2.528,1.745,1.745,0,0,0,1.5,1.744v.064a1.477,1.477,0,0,0-1.36,1.392.884.884,0,0,0,.384.752c-.992.32-1.872.8-1.872,1.728s.8,1.84,2.944,1.84c2.384,0,3.44-1.28,3.44-2.416,0-2-3.728-1.36-3.728-2.368,0-.4.464-.8,1.408-.928a2.386,2.386,0,0,0,2.256-2.368,1.064,1.064,0,0,0-.272-.8h1.3Zm-2.5,1.024c0,.9-.4,2.528-1.536,2.528-.7,0-.9-.56-.9-1.3,0-1.088.7-2.224,1.568-2.224C40.4,10.424,40.556,10.824,40.556,11.416Zm.208,6.688c0,.7-.576,1.44-2.032,1.44-1.52,0-2.224-.8-2.224-1.552a1.6,1.6,0,0,1,.768-1.152c.128-.1.288-.176.416-.256C38.652,16.936,40.764,16.856,40.764,18.1Zm9.84-7.952h-1.28l-.144.528h-.016c-.032-.352-.368-.736-1.056-.736-2.3,0-4.416,3.2-4.416,5.312,0,1.024.416,1.9,1.424,1.9a3.483,3.483,0,0,0,2.768-1.68h.064a3.3,3.3,0,0,0-.176.8c0,.512.144.88.672.88.768,0,1.632-.96,2.128-1.712l-.192-.192c-.624.832-.864.864-1.024.864-.128,0-.224-.1-.224-.272a.508.508,0,0,1,.016-.176Zm-1.68,1.392a6.006,6.006,0,0,1-.24,1.6c-.448,1.52-1.568,3.04-2.672,3.04-.432,0-.928-.208-.928-1.056a5.623,5.623,0,0,1,.448-1.984c.544-1.344,1.5-2.736,2.592-2.736C48.732,10.408,48.924,10.888,48.924,11.544Zm8.4-1.6h-.256a.722.722,0,0,1-.48.32c-.464,0-.784-.32-1.472-.32a1.651,1.651,0,0,0-1.824,1.712c0,1.568,2.08,2.368,2.08,3.68,0,.624-.224,1.424-1.168,1.424-1.008,0-1.664-1.072-1.664-2.08h-.256l-.4,2.5h.272c.192-.272.336-.336.48-.336a16.6,16.6,0,0,0,1.76.32,2.03,2.03,0,0,0,2.16-2c0-1.52-2.144-2.992-2.144-3.872a.823.823,0,0,1,.816-.928c.9,0,1.472.9,1.472,1.92h.24Zm5.328.048h-1.12l.5-2.064H61.82a3.648,3.648,0,0,1-2.832,2.208l-.08.464H60.14l-1.3,5.12a2.3,2.3,0,0,0-.08.592c0,.432.128.832.624.832.944,0,1.744-1.216,2.128-1.712l-.208-.176c-.592.8-.96.832-.96.832-.208,0-.256-.1-.256-.192a.68.68,0,0,1,.032-.176l1.248-5.12h1.12Zm7.488,2.416a2.215,2.215,0,0,0-2.352-2.464c-2.368,0-4.016,2.576-4.016,4.624,0,1.168.544,2.608,2.16,2.608C68.38,17.176,70.14,14.632,70.14,12.408Zm-1.3-.5c0,1.216-1.136,4.784-2.832,4.784-.9,0-.944-1.184-.944-1.712,0-2.176,1.392-4.56,2.7-4.56C68.62,10.424,68.844,11.3,68.844,11.912ZM76.7,9.944h-.256a.722.722,0,0,1-.48.32c-.464,0-.784-.32-1.472-.32a1.651,1.651,0,0,0-1.824,1.712c0,1.568,2.08,2.368,2.08,3.68,0,.624-.224,1.424-1.168,1.424-1.008,0-1.664-1.072-1.664-2.08H71.66l-.4,2.5h.272c.192-.272.336-.336.48-.336a16.6,16.6,0,0,0,1.76.32,2.03,2.03,0,0,0,2.16-2c0-1.52-2.144-2.992-2.144-3.872a.823.823,0,0,1,.816-.928c.9,0,1.472.9,1.472,1.92h.24Zm15.456,5.344c-.3.592-.72.848-.992.848-.144,0-.24-.064-.24-.192a.8.8,0,0,1,.032-.192l.976-3.7a3.8,3.8,0,0,0,.112-.976c0-.72-.288-1.136-.864-1.136a1.7,1.7,0,0,0-.976.352,7.532,7.532,0,0,0-2.08,2.352h-.08l.16-.576a2.758,2.758,0,0,0,.144-.832c0-.7-.288-1.3-.88-1.3-.608,0-1.568.416-3.072,2.7h-.1l.7-2.7-2.512.384.032.224a3.923,3.923,0,0,1,.432-.032c.432,0,.528.208.528.5L81.964,17h1.248l.56-2.16c.256-.976,2.016-3.872,2.848-3.872.288,0,.368.288.368.608a3.148,3.148,0,0,1-.08.64L85.676,17H86.94l.544-2.16c.24-.976,2-3.872,2.864-3.872.288,0,.384.288.384.608a1.992,1.992,0,0,1-.1.64l-.9,3.536a2.44,2.44,0,0,0-.1.592c0,.624.272.784.624.784.752,0,1.584-.8,2.1-1.664Zm6.5-.08a2.552,2.552,0,0,1-2.016,1.024,1.726,1.726,0,0,1-1.808-1.712v-.448c1.9-.1,4.576-.88,4.576-2.912,0-.992-.96-1.216-1.632-1.216-2.032,0-3.792,2-4.192,3.776a3.912,3.912,0,0,0-.1.96,2.259,2.259,0,0,0,2.192,2.5,4.013,4.013,0,0,0,3.2-1.76Zm-3.824-1.584c.464-1.36,1.424-3.2,2.608-3.2a.677.677,0,0,1,.7.688c0,1.408-1.5,2.512-3.168,2.512Zm12.608,1.84-.208-.176c-.224.272-.608.848-.992.848a.232.232,0,0,1-.24-.224.4.4,0,0,1,.016-.16l.944-3.7a4.693,4.693,0,0,0,.176-1.12c0-.528-.192-.992-.9-.992-.96,0-1.92,1.056-2.56,1.856a10.746,10.746,0,0,1-.9,1.168h-.048l.816-3.024L101,10.312l.032.24a3.2,3.2,0,0,1,.448-.048c.432,0,.48.224.48.512L100.444,17h1.232l.528-1.984a9.738,9.738,0,0,1,1.088-1.952c.5-.752,1.5-2.128,2.112-2.128.288,0,.384.3.384.608a3.245,3.245,0,0,1-.112.672l-.912,3.536a2.673,2.673,0,0,0-.112.64c0,.368.144.736.656.736.832,0,1.6-1.024,2.048-1.568Zm6.72-5.52H113.9a.722.722,0,0,1-.48.32c-.464,0-.784-.32-1.472-.32a1.651,1.651,0,0,0-1.824,1.712c0,1.568,2.08,2.368,2.08,3.68,0,.624-.224,1.424-1.168,1.424-1.008,0-1.664-1.072-1.664-2.08h-.256l-.4,2.5h.272c.192-.272.336-.336.48-.336a16.6,16.6,0,0,0,1.76.32,2.03,2.03,0,0,0,2.16-2c0-1.52-2.144-2.992-2.144-3.872a.823.823,0,0,1,.816-.928c.9,0,1.472.9,1.472,1.92h.24Zm7.9.208h-1.232l-.336,1.2a11.6,11.6,0,0,1-1.744,3.5c-.56.736-1.2,1.232-1.6,1.232-.288,0-.416-.208-.416-.544a1.68,1.68,0,0,1,.048-.384l1.344-5.216-2.512.416.048.24a1.845,1.845,0,0,1,.416-.048c.352,0,.528.176.528.368a2.364,2.364,0,0,1-.1.4l-.944,3.7a3.634,3.634,0,0,0-.128.944c0,.608.224,1.184.976,1.184a2.05,2.05,0,0,0,1.152-.448,27.133,27.133,0,0,0,2.192-2.5h.016l-.416,1.52a2.772,2.772,0,0,0-.064.592c0,.528.176.832.64.832.928,0,1.744-1.184,2.112-1.712l-.208-.176-.08.1c-.272.32-.576.736-.912.736a.2.2,0,0,1-.224-.224.494.494,0,0,1,.016-.144Zm8.032,0h-1.28l-.144.528h-.016c-.032-.352-.368-.736-1.056-.736-2.3,0-4.416,3.2-4.416,5.312,0,1.024.416,1.9,1.424,1.9a3.483,3.483,0,0,0,2.768-1.68h.064a3.3,3.3,0,0,0-.176.8c0,.512.144.88.672.88.768,0,1.632-.96,2.128-1.712l-.192-.192c-.624.832-.864.864-1.024.864-.128,0-.224-.1-.224-.272a.508.508,0,0,1,.016-.176Zm-1.68,1.392a6.007,6.007,0,0,1-.24,1.6c-.448,1.52-1.568,3.04-2.672,3.04-.432,0-.928-.208-.928-1.056a5.623,5.623,0,0,1,.448-1.984c.544-1.344,1.5-2.736,2.592-2.736C128.22,10.408,128.412,10.888,128.412,11.544Zm6.608-5.232-2.512.368.048.24c.128-.016.32-.048.432-.048.368,0,.5.16.5.352a1.62,1.62,0,0,1-.048.384l-2.048,8.16a2.169,2.169,0,0,0-.1.576c0,.4.144.816.624.816.928,0,1.616-1.056,2.16-1.7l-.256-.192c-.144.256-.624.88-.992.88a.189.189,0,0,1-.192-.208.8.8,0,0,1,.016-.176Zm6.448,8.9a2.552,2.552,0,0,1-2.016,1.024,1.726,1.726,0,0,1-1.808-1.712v-.448c1.9-.1,4.576-.88,4.576-2.912,0-.992-.96-1.216-1.632-1.216-2.032,0-3.792,2-4.192,3.776a3.913,3.913,0,0,0-.1.96,2.259,2.259,0,0,0,2.192,2.5,4.013,4.013,0,0,0,3.2-1.76Zm-3.824-1.584c.464-1.36,1.424-3.2,2.608-3.2a.677.677,0,0,1,.7.688c0,1.408-1.5,2.512-3.168,2.512Zm11.376-3.68h-.256a.722.722,0,0,1-.48.32c-.464,0-.784-.32-1.472-.32a1.651,1.651,0,0,0-1.824,1.712c0,1.568,2.08,2.368,2.08,3.68,0,.624-.224,1.424-1.168,1.424-1.008,0-1.664-1.072-1.664-2.08h-.256l-.4,2.5h.272c.192-.272.336-.336.48-.336a16.6,16.6,0,0,0,1.76.32,2.03,2.03,0,0,0,2.16-2c0-1.52-2.144-2.992-2.144-3.872a.823.823,0,0,1,.816-.928c.9,0,1.472.9,1.472,1.92h.24ZM62.98,31.813a2.315,2.315,0,0,1,.652-1.68,2.813,2.813,0,0,1,3.645,0,2.319,2.319,0,0,1,.648,1.684v.6a2.3,2.3,0,0,1-.648,1.672,2.417,2.417,0,0,1-1.812.664,2.454,2.454,0,0,1-1.828-.664,2.281,2.281,0,0,1-.656-1.672Zm1.516.6a1.171,1.171,0,0,0,.25.762.871.871,0,0,0,.719.309.843.843,0,0,0,.7-.309,1.183,1.183,0,0,0,.246-.762v-.6a1.2,1.2,0,0,0-.25-.77.853.853,0,0,0-.711-.316.842.842,0,0,0-.707.316,1.216,1.216,0,0,0-.246.77Zm3.922,5.8a2.3,2.3,0,0,1,.656-1.672,2.813,2.813,0,0,1,3.645,0,2.3,2.3,0,0,1,.652,1.676v.6a2.306,2.306,0,0,1-.648,1.68,2.417,2.417,0,0,1-1.812.664,2.459,2.459,0,0,1-1.832-.668,2.287,2.287,0,0,1-.66-1.676Zm1.516.6a1.135,1.135,0,0,0,.27.762.884.884,0,0,0,.707.316.848.848,0,0,0,.727-.293,1.282,1.282,0,0,0,.219-.785v-.6a1.191,1.191,0,0,0-.25-.762.961.961,0,0,0-1.426,0,1.2,1.2,0,0,0-.246.762ZM65.84,40.148l-1.109-.586,5.555-8.891,1.109.586Zm19.307-6H83.915l-.336,1.2a11.6,11.6,0,0,1-1.744,3.5c-.56.736-1.2,1.232-1.6,1.232-.288,0-.416-.208-.416-.544a1.68,1.68,0,0,1,.048-.384l1.344-5.216L78.7,34.36l.048.24a1.845,1.845,0,0,1,.416-.048c.352,0,.528.176.528.368a2.364,2.364,0,0,1-.1.4l-.944,3.7a3.634,3.634,0,0,0-.128.944c0,.608.224,1.184.976,1.184a2.05,2.05,0,0,0,1.152-.448,27.133,27.133,0,0,0,2.192-2.5h.016l-.416,1.52a2.772,2.772,0,0,0-.064.592c0,.528.176.832.64.832.928,0,1.744-1.184,2.112-1.712l-.208-.176-.08.1c-.272.32-.576.736-.912.736a.2.2,0,0,1-.224-.224.494.494,0,0,1,.016-.144Zm5.008-.16h-1.12l.5-2.064h-.208a3.648,3.648,0,0,1-2.832,2.208l-.08.464h1.232l-1.3,5.12a2.3,2.3,0,0,0-.08.592c0,.432.128.832.624.832.944,0,1.744-1.216,2.128-1.712l-.208-.176c-.592.8-.96.832-.96.832-.208,0-.256-.1-.256-.192a.68.68,0,0,1,.032-.176l1.248-5.12h1.12Zm4.592-2.048a.819.819,0,0,0-.768-.8.785.785,0,0,0-.768.8.723.723,0,0,0,.768.736A.752.752,0,0,0,94.747,31.944Zm-.48,2-2.528.352.048.256a1.889,1.889,0,0,1,.448-.064c.368,0,.5.08.5.352a.688.688,0,0,1-.032.192c-1.264,4.912-1.264,5.216-1.264,5.408,0,.432.192.736.64.736.784,0,1.584-.96,2.144-1.68l-.208-.16c-.576.624-.672.816-1.024.816-.112,0-.208-.048-.208-.16a1.216,1.216,0,0,1,.016-.224Zm5.792-3.632-2.512.368.048.24c.128-.016.32-.048.432-.048.368,0,.5.16.5.352a1.62,1.62,0,0,1-.048.384l-2.048,8.16a2.168,2.168,0,0,0-.1.576c0,.4.144.816.624.816.928,0,1.616-1.056,2.16-1.7l-.256-.192c-.144.256-.624.88-.992.88a.189.189,0,0,1-.192-.208.8.8,0,0,1,.016-.176Zm4.752,1.632a.819.819,0,0,0-.768-.8.785.785,0,0,0-.768.8.723.723,0,0,0,.768.736A.752.752,0,0,0,104.811,31.944Zm-.48,2L101.8,34.3l.048.256a1.889,1.889,0,0,1,.448-.064c.368,0,.5.08.5.352a.688.688,0,0,1-.032.192c-1.264,4.912-1.264,5.216-1.264,5.408,0,.432.192.736.64.736.784,0,1.584-.96,2.144-1.68l-.208-.16c-.576.624-.672.816-1.024.816-.112,0-.208-.048-.208-.16a1.216,1.216,0,0,1,.016-.224Zm9.776-3.632-2.5.384.064.24a3.235,3.235,0,0,1,.432-.048c.416,0,.528.112.528.32a.8.8,0,0,1-.032.192l-.848,3.344h-.032c-.016-.384-.384-.8-1.3-.8-2.464,0-4.112,3.568-4.112,5.216,0,.848.24,2.032,1.408,2.032.592,0,1.552-.192,2.736-1.68h.08a3.48,3.48,0,0,0-.16,1.024.6.6,0,0,0,.64.656c.752,0,1.6-.96,2.08-1.68l-.176-.192c-.224.336-.672.9-.992.9q-.24,0-.24-.144a.8.8,0,0,1,.032-.192Zm-2.624,5.248a5.879,5.879,0,0,1-.256,1.68c-.448,1.472-1.5,2.976-2.624,2.976-.448,0-.9-.272-.9-1.056,0-1.536,1.3-4.736,2.88-4.736C111.243,34.424,111.483,34.808,111.483,35.56Zm10.256-1.408h-1.28l-.144.528H120.3c-.032-.352-.368-.736-1.056-.736-2.3,0-4.416,3.2-4.416,5.312,0,1.024.416,1.9,1.424,1.9a3.483,3.483,0,0,0,2.768-1.68h.064a3.3,3.3,0,0,0-.176.8c0,.512.144.88.672.88.768,0,1.632-.96,2.128-1.712l-.192-.192c-.624.832-.864.864-1.024.864-.128,0-.224-.1-.224-.272a.508.508,0,0,1,.016-.176Zm-1.68,1.392a6.006,6.006,0,0,1-.24,1.6c-.448,1.52-1.568,3.04-2.672,3.04-.432,0-.928-.208-.928-1.056a5.623,5.623,0,0,1,.448-1.984c.544-1.344,1.5-2.736,2.592-2.736C119.867,34.408,120.059,34.888,120.059,35.544Zm10.592-5.232-2.5.384.064.24a3.235,3.235,0,0,1,.432-.048c.416,0,.528.112.528.32a.8.8,0,0,1-.032.192l-.848,3.344h-.032c-.016-.384-.384-.8-1.3-.8-2.464,0-4.112,3.568-4.112,5.216,0,.848.24,2.032,1.408,2.032.592,0,1.552-.192,2.736-1.68h.08a3.48,3.48,0,0,0-.16,1.024.6.6,0,0,0,.64.656c.752,0,1.6-.96,2.08-1.68l-.176-.192c-.224.336-.672.9-.992.9q-.24,0-.24-.144a.8.8,0,0,1,.032-.192Zm-2.624,5.248a5.879,5.879,0,0,1-.256,1.68c-.448,1.472-1.5,2.976-2.624,2.976-.448,0-.9-.272-.9-1.056,0-1.536,1.3-4.736,2.88-4.736C127.787,34.424,128.027,34.808,128.027,35.56Z" transform="translate(237.5 1495)" fill="#9f0925"/>
      <line id="Línea_151" data-name="Línea 151" x2="135" transform="translate(262.5 1519.5)" fill="none" stroke="#9f0925" stroke-width="1"/>
    </g>
    <path id="Trazado_733361" data-name="Trazado 733361" d="M3.216,6.552l-.064.256h.3c.976,0,1.248.256,1.248.592a1.737,1.737,0,0,1-.064.4l-2,7.952c-.144.544-.464.992-1.7.992H.672L.608,17H6.064l.064-.256H5.616c-.944,0-1.232-.24-1.232-.624a1.453,1.453,0,0,1,.048-.368l.9-3.568a.688.688,0,0,0,.192.032A6.889,6.889,0,0,0,6.7,12.3c3.264,0,4.56-1.616,4.56-3.184,0-1.184-.992-2.56-3.712-2.56Zm3.36.64a6.445,6.445,0,0,1,.784-.048c1.52,0,2,.848,2,1.808A2.752,2.752,0,0,1,6.448,11.7a4.354,4.354,0,0,1-.96-.128Zm14.672-.64H12.7l-.064.256h.3c.944,0,1.2.176,1.2.56a2.725,2.725,0,0,1-.08.576l-1.92,7.808c-.128.544-.5.992-1.664.992h-.3L10.112,17h9.136L20.3,13.832h-.256c-.688,1.808-1.584,2.56-4.112,2.56H14.864c-.752,0-1.008-.176-1.008-.432a.7.7,0,0,1,.032-.16l1.056-4.128h1.44c.5,0,1.152.064,1.152.816,0,.272-.08.752-.1.96h.272l.928-3.872h-.256a1.76,1.76,0,0,1-2.016,1.52h-1.28l.96-3.968h2.56c.816,0,1.7.208,1.744,1.392,0,.176-.016.352-.032.56h.256Zm11.36,4.018H26.092V9.289h6.516Zm0,3.25H26.092V12.539h6.516Z" transform="translate(1216 2346)" fill="#9f0925"/>
  </g>
</svg>
