<svg xmlns="http://www.w3.org/2000/svg" width="250.298" height="37.451" viewBox="0 0 250.298 37.451">
  <g id="Grupo_987196" data-name="Grupo 987196" transform="translate(-653.33 -2720.773)">
    <path id="Trazado_733362" data-name="Trazado 733362" d="M6.758,14.063a1.634,1.634,0,0,0-.5-1.2,4.3,4.3,0,0,0-1.645-.887A5.668,5.668,0,0,1,2.234,10.7a2.856,2.856,0,0,1-.8-2.125,3,3,0,0,1,.742-2.1A3.2,3.2,0,0,1,4.211,5.5V3.773H5.445V5.508a2.985,2.985,0,0,1,2.027,1.07A3.728,3.728,0,0,1,8.2,8.984H6.664a2.5,2.5,0,0,0-.492-1.609,1.643,1.643,0,0,0-1.359-.617,1.832,1.832,0,0,0-1.383.48,1.823,1.823,0,0,0-.461,1.316,1.644,1.644,0,0,0,.477,1.227,4.668,4.668,0,0,0,1.711.891,5.909,5.909,0,0,1,2.367,1.285,2.816,2.816,0,0,1,.773,2.09,2.864,2.864,0,0,1-.8,2.137,3.575,3.575,0,0,1-2.211.941v1.5H4.055V17.133a3.58,3.58,0,0,1-2.2-.98,3.2,3.2,0,0,1-.828-2.465l.016-.039H2.523a2.128,2.128,0,0,0,.609,1.715,2.231,2.231,0,0,0,1.484.512,2.36,2.36,0,0,0,1.574-.48A1.653,1.653,0,0,0,6.758,14.063Zm10.21-.438h-.4c-.416,1.152-.784,1.248-2.448,1.248H11.88l2.592-2.464A4.742,4.742,0,0,0,16.3,8.92a2.742,2.742,0,0,0-2.912-2.928c-1.6,0-2.816,1.024-3.568,3.264h.448a2.2,2.2,0,0,1,1.952-1.44,1.863,1.863,0,0,1,1.9,2.032,4.628,4.628,0,0,1-.816,2.368,28.9,28.9,0,0,1-3.712,4.416V17h6.64ZM24.936,14.7V12.92H23.912V5.992h-1.28l-5.008,6.9V14.7h3.968V17h2.32V14.7ZM21.608,12.92H18.28l3.328-4.7ZM28.117,17H26.578V15.422h1.539Zm9.1-5.392c0-2.656-1.024-5.616-3.568-5.616-2.736,0-3.664,3.056-3.664,5.664,0,3.328,1.536,5.552,3.632,5.552C35.7,17.208,37.218,14.984,37.218,11.608ZM34.69,13.416c0,2.384-.272,3.344-1.072,3.344s-1.1-.96-1.1-3.344v-3.6c0-2.432.288-3.376,1.072-3.376s1.1,1.024,1.1,3.376Zm10.528-1.808c0-2.656-1.024-5.616-3.568-5.616-2.736,0-3.664,3.056-3.664,5.664,0,3.328,1.536,5.552,3.632,5.552C43.7,17.208,45.218,14.984,45.218,11.608ZM42.69,13.416c0,2.384-.272,3.344-1.072,3.344s-1.1-.96-1.1-3.344v-3.6c0-2.432.288-3.376,1.072-3.376s1.1,1.024,1.1,3.376Zm10.528-1.808c0-2.656-1.024-5.616-3.568-5.616-2.736,0-3.664,3.056-3.664,5.664,0,3.328,1.536,5.552,3.632,5.552C51.7,17.208,53.218,14.984,53.218,11.608ZM50.69,13.416c0,2.384-.272,3.344-1.072,3.344s-1.1-.96-1.1-3.344v-3.6c0-2.432.288-3.376,1.072-3.376s1.1,1.024,1.1,3.376ZM56.4,17H54.859V15.422H56.4Zm9.1-5.392c0-2.656-1.024-5.616-3.568-5.616-2.736,0-3.664,3.056-3.664,5.664,0,3.328,1.536,5.552,3.632,5.552C63.979,17.208,65.5,14.984,65.5,11.608Zm-2.528,1.808c0,2.384-.272,3.344-1.072,3.344s-1.1-.96-1.1-3.344v-3.6c0-2.432.288-3.376,1.072-3.376s1.1,1.024,1.1,3.376ZM73.5,11.608c0-2.656-1.024-5.616-3.568-5.616-2.736,0-3.664,3.056-3.664,5.664,0,3.328,1.536,5.552,3.632,5.552C71.979,17.208,73.5,14.984,73.5,11.608Zm-2.528,1.808c0,2.384-.272,3.344-1.072,3.344s-1.1-.96-1.1-3.344v-3.6c0-2.432.288-3.376,1.072-3.376s1.1,1.024,1.1,3.376ZM81.5,11.608c0-2.656-1.024-5.616-3.568-5.616-2.736,0-3.664,3.056-3.664,5.664,0,3.328,1.536,5.552,3.632,5.552C79.979,17.208,81.5,14.984,81.5,11.608Zm-2.528,1.808c0,2.384-.272,3.344-1.072,3.344s-1.1-.96-1.1-3.344v-3.6c0-2.432.288-3.376,1.072-3.376s1.1,1.024,1.1,3.376ZM39.429,35.608c0-2.656-1.024-5.616-3.568-5.616-2.736,0-3.664,3.056-3.664,5.664,0,3.328,1.536,5.552,3.632,5.552C37.909,41.208,39.429,38.984,39.429,35.608ZM36.9,37.416c0,2.384-.272,3.344-1.072,3.344s-1.1-.96-1.1-3.344v-3.6c0-2.432.288-3.376,1.072-3.376s1.1,1.024,1.1,3.376ZM42.609,41H41.07V39.422h1.539Zm2.412-8.384a2.2,2.2,0,0,1,2.016-1.328,1.44,1.44,0,0,1,1.584,1.648c0,.944-.576,1.616-2.1,2.1V35.3a6.01,6.01,0,0,1,2.448,1.232,2.639,2.639,0,0,1,.784,1.936c0,1.152-.608,1.952-1.568,1.952a1.627,1.627,0,0,1-1.264-.688,2.1,2.1,0,0,0-1.536-.912.974.974,0,0,0-1.04.96c0,.864.96,1.44,2.432,1.44,2.768,0,4.8-1.824,4.8-4.16a2.944,2.944,0,0,0-1.952-2.848,2.186,2.186,0,0,0,1.344-2.032,2.372,2.372,0,0,0-2.624-2.192,3.973,3.973,0,0,0-3.664,2.432ZM59.71,35.608c0-2.656-1.024-5.616-3.568-5.616-2.736,0-3.664,3.056-3.664,5.664,0,3.328,1.536,5.552,3.632,5.552C58.19,41.208,59.71,38.984,59.71,35.608Zm-2.528,1.808c0,2.384-.272,3.344-1.072,3.344s-1.1-.96-1.1-3.344v-3.6c0-2.432.288-3.376,1.072-3.376s1.1,1.024,1.1,3.376Z" transform="translate(716 2717)" fill="#9f0925"/>
    <path id="Trazado_733364" data-name="Trazado 733364" d="M0,0H88.627" transform="translate(713.424 2738)" fill="none" stroke="#9f0925" stroke-width="1"/>
    <path id="Trazado_733365" data-name="Trazado 733365" d="M-18.174-10.7l-.1.368h.592c.736,0,.944.208.96.592a1.218,1.218,0,0,1-.048.336l-1.84,8.064c-.144.624-.368.976-1.36.976h-.64L-20.67,0h6.08l.064-.368h-.832c-.752,0-.928-.128-.96-.56a2.123,2.123,0,0,1,.064-.384l.816-3.536a7.663,7.663,0,0,0,1.072.048c3.44,0,4.752-1.744,4.752-3.3,0-1.888-1.36-2.608-4.016-2.608Zm3.888.736a4.653,4.653,0,0,1,.48-.016,1.538,1.538,0,0,1,1.7,1.648A2.57,2.57,0,0,1-14.622-5.52a3.045,3.045,0,0,1-.64-.08ZM.514-10.7H-8.478l-.064.368h.592c.672,0,.944.24.944.672a1.6,1.6,0,0,1-.032.256l-1.84,8.064c-.144.624-.416.976-1.36.976h-.576L-10.878,0h9.6L-.3-3.3H-.654C-1.326-1.392-2.51-.72-4.846-.72h-1.04c-.5,0-.672-.1-.672-.32a2.042,2.042,0,0,1,.032-.272L-5.6-5.44h1.1c.464,0,1.36.048,1.36.736a6.4,6.4,0,0,1-.1,1.04h.368L-2-7.68H-2.35A1.9,1.9,0,0,1-4.542-6.16h-.88l.88-3.824h2.16c.736,0,1.92.192,1.936,1.36a3.12,3.12,0,0,1-.048.608h.368ZM20.178-5.961h-7V-7.75h7Zm0,3.367h-7V-4.383h7Z" transform="translate(674 2742)" fill="#9f0925"/>
    <path id="Trazado_733363" data-name="Trazado 733363" d="M-39.949-5.961h-7V-7.75h7Zm0,3.367h-7V-4.383h7Zm11.523-.4a1.43,1.43,0,0,0-.367-1.027,3.627,3.627,0,0,0-1.3-.746,7.275,7.275,0,0,1-2.617-1.383,2.875,2.875,0,0,1-.852-2.219,2.9,2.9,0,0,1,.852-2.16,3.711,3.711,0,0,1,2.313-.988v-1.672h1.242v1.7a3.455,3.455,0,0,1,2.2,1.1,3.329,3.329,0,0,1,.773,2.348l-.016.039h-2.227a1.972,1.972,0,0,0-.387-1.309,1.34,1.34,0,0,0-1.082-.457,1.329,1.329,0,0,0-1.062.383,1.531,1.531,0,0,0-.328,1.031,1.323,1.323,0,0,0,.348.961,4.238,4.238,0,0,0,1.332.773,6.792,6.792,0,0,1,2.594,1.379,2.94,2.94,0,0,1,.859,2.238A2.881,2.881,0,0,1-27-.832a3.774,3.774,0,0,1-2.316.965V1.672h-1.242V.133a4.129,4.129,0,0,1-2.465-1A3.141,3.141,0,0,1-33.957-3.4l.023-.047h2.219a1.808,1.808,0,0,0,.488,1.426,1.862,1.862,0,0,0,1.27.426,1.58,1.58,0,0,0,1.148-.375A1.367,1.367,0,0,0-28.426-2.992Zm10.677,0c0-1.344-.592-2.224-2.4-3.456,1.52-.464,2.176-1.216,2.176-2.24,0-1.28-1.12-2.32-3.12-2.32-2.208,0-3.584,1.1-3.584,2.8,0,1.216.624,2.064,2.208,3.008a2.7,2.7,0,0,0-2.384,2.688c0,1.712,1.36,2.72,3.392,2.72C-19.141.208-17.749-1.072-17.749-2.992Zm-2.128-5.6a2.544,2.544,0,0,1-.656,1.84c-1.344-.688-2.08-1.568-2.08-2.464a1.3,1.3,0,0,1,1.328-1.328C-20.389-10.544-19.877-9.68-19.877-8.592Zm-.1,6.56C-19.973-.9-20.565-.3-21.429-.3c-.976,0-1.488-.848-1.488-2.272A3.838,3.838,0,0,1-22.1-4.9C-20.357-3.728-19.973-3.216-19.973-2.032Zm10.288-3.36c0-2.656-1.024-5.616-3.568-5.616-2.736,0-3.664,3.056-3.664,5.664,0,3.328,1.536,5.552,3.632,5.552C-11.2.208-9.685-2.016-9.685-5.392Zm-2.528,1.808c0,2.384-.272,3.344-1.072,3.344s-1.1-.96-1.1-3.344v-3.6c0-2.432.288-3.376,1.072-3.376s1.1,1.024,1.1,3.376ZM-5.895,0H-8.176V-2h2.281ZM2.971-5.392c0-2.656-1.024-5.616-3.568-5.616-2.736,0-3.664,3.056-3.664,5.664C-4.261-2.016-2.725.208-.629.208,1.451.208,2.971-2.016,2.971-5.392ZM.443-3.584C.443-1.2.171-.24-.629-.24s-1.1-.96-1.1-3.344v-3.6c0-2.432.288-3.376,1.072-3.376s1.1,1.024,1.1,3.376ZM10.971-5.392c0-2.656-1.024-5.616-3.568-5.616-2.736,0-3.664,3.056-3.664,5.664C3.739-2.016,5.275.208,7.371.208,9.451.208,10.971-2.016,10.971-5.392ZM8.443-3.584C8.443-1.2,8.171-.24,7.371-.24s-1.1-.96-1.1-3.344v-3.6c0-2.432.288-3.376,1.072-3.376s1.1,1.024,1.1,3.376ZM18.971-5.392c0-2.656-1.024-5.616-3.568-5.616-2.736,0-3.664,3.056-3.664,5.664,0,3.328,1.536,5.552,3.632,5.552C17.451.208,18.971-2.016,18.971-5.392ZM16.443-3.584c0,2.384-.272,3.344-1.072,3.344s-1.1-.96-1.1-3.344v-3.6c0-2.432.288-3.376,1.072-3.376s1.1,1.024,1.1,3.376ZM22.762,0H20.48V-2h2.281Zm8.866-5.392c0-2.656-1.024-5.616-3.568-5.616-2.736,0-3.664,3.056-3.664,5.664,0,3.328,1.536,5.552,3.632,5.552C30.108.208,31.628-2.016,31.628-5.392ZM29.1-3.584C29.1-1.2,28.828-.24,28.028-.24s-1.1-.96-1.1-3.344v-3.6c0-2.432.288-3.376,1.072-3.376s1.1,1.024,1.1,3.376ZM39.628-5.392c0-2.656-1.024-5.616-3.568-5.616-2.736,0-3.664,3.056-3.664,5.664,0,3.328,1.536,5.552,3.632,5.552C38.108.208,39.628-2.016,39.628-5.392ZM37.1-3.584C37.1-1.2,36.828-.24,36.028-.24s-1.1-.96-1.1-3.344v-3.6c0-2.432.288-3.376,1.072-3.376s1.1,1.024,1.1,3.376ZM47.628-5.392c0-2.656-1.024-5.616-3.568-5.616-2.736,0-3.664,3.056-3.664,5.664,0,3.328,1.536,5.552,3.632,5.552C46.108.208,47.628-2.016,47.628-5.392ZM45.1-3.584C45.1-1.2,44.828-.24,44.028-.24s-1.1-.96-1.1-3.344v-3.6c0-2.432.288-3.376,1.072-3.376s1.1,1.024,1.1,3.376Z" transform="translate(856 2742)" fill="#9f0925"/>
  </g>
</svg>
