<svg xmlns="http://www.w3.org/2000/svg" width="177.108" height="37.451" viewBox="0 0 177.108 37.451">
  <g id="Grupo_987220" data-name="Grupo 987220" transform="translate(-754.398 -2913.773)">
    <g id="Grupo_987217" data-name="Grupo 987217">
      <path id="Trazado_733368" data-name="Trazado 733368" d="M0,0H86.833" transform="translate(754.398 2934)" fill="none" stroke="#9f0925" stroke-width="1"/>
      <path id="Trazado_734718" data-name="Trazado 734718" d="M19.316,14.063a1.634,1.634,0,0,0-.5-1.2,4.3,4.3,0,0,0-1.645-.887A5.668,5.668,0,0,1,14.793,10.7a2.857,2.857,0,0,1-.8-2.125,3,3,0,0,1,.742-2.1A3.2,3.2,0,0,1,16.77,5.5V3.773H18V5.508a2.985,2.985,0,0,1,2.027,1.07,3.728,3.728,0,0,1,.723,2.406H19.223a2.5,2.5,0,0,0-.492-1.609,1.643,1.643,0,0,0-1.359-.617,1.832,1.832,0,0,0-1.383.48,1.823,1.823,0,0,0-.461,1.316A1.644,1.644,0,0,0,16,9.781a4.668,4.668,0,0,0,1.711.891,5.909,5.909,0,0,1,2.367,1.285,2.816,2.816,0,0,1,.773,2.09,2.864,2.864,0,0,1-.8,2.137,3.575,3.575,0,0,1-2.211.941v1.5H16.613V17.133a3.58,3.58,0,0,1-2.2-.98,3.2,3.2,0,0,1-.828-2.465l.016-.039h1.484a2.128,2.128,0,0,0,.609,1.715,2.231,2.231,0,0,0,1.484.512,2.36,2.36,0,0,0,1.574-.48A1.653,1.653,0,0,0,19.316,14.063Zm10.115-.055c0-1.344-.592-2.224-2.4-3.456,1.52-.464,2.176-1.216,2.176-2.24,0-1.28-1.12-2.32-3.12-2.32-2.208,0-3.584,1.1-3.584,2.8,0,1.216.624,2.064,2.208,3.008a2.7,2.7,0,0,0-2.384,2.688c0,1.712,1.36,2.72,3.392,2.72C28.039,17.208,29.431,15.928,29.431,14.008ZM27.3,8.408a2.544,2.544,0,0,1-.656,1.84c-1.344-.688-2.08-1.568-2.08-2.464a1.3,1.3,0,0,1,1.328-1.328C26.791,6.456,27.3,7.32,27.3,8.408Zm-.1,6.56c0,1.136-.592,1.728-1.456,1.728-.976,0-1.488-.848-1.488-2.272a3.838,3.838,0,0,1,.816-2.32C26.823,13.272,27.207,13.784,27.207,14.968Zm10.288-3.36c0-2.656-1.024-5.616-3.568-5.616-2.736,0-3.664,3.056-3.664,5.664,0,3.328,1.536,5.552,3.632,5.552C35.975,17.208,37.495,14.984,37.495,11.608Zm-2.528,1.808c0,2.384-.272,3.344-1.072,3.344s-1.1-.96-1.1-3.344v-3.6c0-2.432.288-3.376,1.072-3.376s1.1,1.024,1.1,3.376ZM40.676,17H39.137V15.422h1.539Zm9.1-5.392c0-2.656-1.024-5.616-3.568-5.616-2.736,0-3.664,3.056-3.664,5.664,0,3.328,1.536,5.552,3.632,5.552C48.256,17.208,49.776,14.984,49.776,11.608Zm-2.528,1.808c0,2.384-.272,3.344-1.072,3.344s-1.1-.96-1.1-3.344v-3.6c0-2.432.288-3.376,1.072-3.376s1.1,1.024,1.1,3.376Zm10.528-1.808c0-2.656-1.024-5.616-3.568-5.616-2.736,0-3.664,3.056-3.664,5.664,0,3.328,1.536,5.552,3.632,5.552C56.256,17.208,57.776,14.984,57.776,11.608Zm-2.528,1.808c0,2.384-.272,3.344-1.072,3.344s-1.1-.96-1.1-3.344v-3.6c0-2.432.288-3.376,1.072-3.376s1.1,1.024,1.1,3.376Zm10.528-1.808c0-2.656-1.024-5.616-3.568-5.616-2.736,0-3.664,3.056-3.664,5.664,0,3.328,1.536,5.552,3.632,5.552C64.256,17.208,65.776,14.984,65.776,11.608Zm-2.528,1.808c0,2.384-.272,3.344-1.072,3.344s-1.1-.96-1.1-3.344v-3.6c0-2.432.288-3.376,1.072-3.376s1.1,1.024,1.1,3.376ZM68.957,17H67.418V15.422h1.539Zm9.1-5.392c0-2.656-1.024-5.616-3.568-5.616-2.736,0-3.664,3.056-3.664,5.664,0,3.328,1.536,5.552,3.632,5.552C76.537,17.208,78.057,14.984,78.057,11.608Zm-2.528,1.808c0,2.384-.272,3.344-1.072,3.344s-1.1-.96-1.1-3.344v-3.6c0-2.432.288-3.376,1.072-3.376s1.1,1.024,1.1,3.376Zm10.528-1.808c0-2.656-1.024-5.616-3.568-5.616-2.736,0-3.664,3.056-3.664,5.664,0,3.328,1.536,5.552,3.632,5.552C84.537,17.208,86.057,14.984,86.057,11.608Zm-2.528,1.808c0,2.384-.272,3.344-1.072,3.344s-1.1-.96-1.1-3.344v-3.6c0-2.432.288-3.376,1.072-3.376s1.1,1.024,1.1,3.376Zm10.528-1.808c0-2.656-1.024-5.616-3.568-5.616-2.736,0-3.664,3.056-3.664,5.664,0,3.328,1.536,5.552,3.632,5.552C92.537,17.208,94.057,14.984,94.057,11.608Zm-2.528,1.808c0,2.384-.272,3.344-1.072,3.344s-1.1-.96-1.1-3.344v-3.6c0-2.432.288-3.376,1.072-3.376s1.1,1.024,1.1,3.376ZM35.948,37.624h-.4c-.416,1.152-.784,1.248-2.448,1.248H30.86l2.592-2.464a4.742,4.742,0,0,0,1.824-3.488,2.742,2.742,0,0,0-2.912-2.928c-1.6,0-2.816,1.024-3.568,3.264h.448a2.2,2.2,0,0,1,1.952-1.44,1.863,1.863,0,0,1,1.9,2.032,4.628,4.628,0,0,1-.816,2.368,28.9,28.9,0,0,1-3.712,4.416V41h6.64Zm7.872-7.44H38.668L37.116,35.7a12.312,12.312,0,0,1,2.88.352c1.472.464,2.272,1.344,2.272,2.432a1.591,1.591,0,0,1-1.6,1.664,2.375,2.375,0,0,1-1.44-.672,2.487,2.487,0,0,0-1.6-.736.95.95,0,0,0-.976.976c0,.752.928,1.408,2.352,1.408,2.64,0,4.512-1.536,4.512-3.872a3.481,3.481,0,0,0-2.768-3.424,10.122,10.122,0,0,0-2.416-.32l.352-1.3H43.1ZM57.7,30.04l-3.264.5.064.368a3.677,3.677,0,0,1,.672-.112c.208,0,.272.16.272.352a1.621,1.621,0,0,1-.064.416l-.592,2.432a2.759,2.759,0,0,0-1.36-.336c-2.944,0-4.448,3.248-4.448,5.552a1.872,1.872,0,0,0,2.112,2.016,3.245,3.245,0,0,0,2.256-1.1h.08a1.083,1.083,0,0,0,1.056,1.1,2.862,2.862,0,0,0,2.544-1.68l-.3-.176c-.288.384-.56.752-.848.752a.345.345,0,0,1-.384-.384,3.169,3.169,0,0,1,.128-.656Zm-3.264,5.424a6.867,6.867,0,0,1-.336,1.728c-.432,1.52-1.664,2.928-2.512,2.928-.336,0-.768-.272-.768-1.072,0-2.3,1.408-4.752,2.656-4.752A1.045,1.045,0,0,1,54.437,35.464ZM60.531,41H58.992V32.547h1.539Zm-.023-11.875h1.8l.016.047-2.1,2.031H59.062ZM70.284,39.32c-.336.432-.592.768-.9.768-.192,0-.256-.224-.256-.5a3.253,3.253,0,0,1,.1-.72L70.412,33.8h-1.84l-.176.816h-.032a1.209,1.209,0,0,0-1.344-1.008c-2.64,0-4.5,3.376-4.5,5.6a1.832,1.832,0,0,0,2.048,1.952,3.269,3.269,0,0,0,2.336-1.12H67a1.034,1.034,0,0,0,1.1,1.12,2.7,2.7,0,0,0,2.48-1.648ZM67.932,35.8c0,1.792-1.712,4.24-2.832,4.24-.288,0-.72-.16-.72-1.04,0-2.288,1.552-4.768,2.688-4.768C67.612,34.232,67.932,34.776,67.932,35.8Zm9.888-2.192h-.4a.652.652,0,0,1-.624.352,4.976,4.976,0,0,0-1.488-.352,1.916,1.916,0,0,0-2.08,1.872c0,.864.816,1.712,1.456,2.464a2.125,2.125,0,0,1,.752,1.36c0,.656-.272,1.28-1.008,1.28a2.063,2.063,0,0,1-1.7-2.048h-.384L72,41.176h.4a.967.967,0,0,1,.624-.352,9.987,9.987,0,0,0,1.76.336A2.223,2.223,0,0,0,77.26,39.1a3.39,3.39,0,0,0-1.2-2.384c-.544-.64-1.088-1.168-1.088-1.632,0-.672.3-.88.736-.88.608,0,1.392.8,1.408,1.968h.352Z" transform="translate(747 2910)" fill="#9f0925"/>
      <path id="Trazado_734717" data-name="Trazado 734717" d="M7.7,10.57H1.188V9.289H7.7Zm0,3.25H1.188V12.539H7.7Zm8.063.242a1.634,1.634,0,0,0-.5-1.2,4.3,4.3,0,0,0-1.645-.887A5.668,5.668,0,0,1,11.242,10.7a2.857,2.857,0,0,1-.8-2.125,3,3,0,0,1,.742-2.1A3.2,3.2,0,0,1,13.219,5.5V3.773h1.234V5.508a2.985,2.985,0,0,1,2.027,1.07A3.728,3.728,0,0,1,17.2,8.984H15.672a2.5,2.5,0,0,0-.492-1.609,1.643,1.643,0,0,0-1.359-.617,1.832,1.832,0,0,0-1.383.48,1.823,1.823,0,0,0-.461,1.316,1.644,1.644,0,0,0,.477,1.227,4.668,4.668,0,0,0,1.711.891,5.909,5.909,0,0,1,2.367,1.285,2.816,2.816,0,0,1,.773,2.09,2.864,2.864,0,0,1-.8,2.137,3.575,3.575,0,0,1-2.211.941v1.5H13.063V17.133a3.58,3.58,0,0,1-2.2-.98,3.2,3.2,0,0,1-.828-2.465l.016-.039h1.484a2.128,2.128,0,0,0,.609,1.715,2.231,2.231,0,0,0,1.484.512,2.36,2.36,0,0,0,1.574-.48A1.653,1.653,0,0,0,15.766,14.063Zm3.49-5.446a2.2,2.2,0,0,1,2.016-1.328,1.44,1.44,0,0,1,1.584,1.648c0,.944-.576,1.616-2.1,2.1V11.3a6.01,6.01,0,0,1,2.448,1.232,2.639,2.639,0,0,1,.784,1.936c0,1.152-.608,1.952-1.568,1.952a1.627,1.627,0,0,1-1.264-.688,2.1,2.1,0,0,0-1.536-.912.974.974,0,0,0-1.04.96c0,.864.96,1.44,2.432,1.44,2.768,0,4.8-1.824,4.8-4.16a2.944,2.944,0,0,0-1.952-2.848,2.186,2.186,0,0,0,1.344-2.032,2.372,2.372,0,0,0-2.624-2.192A3.973,3.973,0,0,0,18.92,8.424ZM29.125,17H27.586V15.422h1.539Zm9.132-3.376h-.4c-.416,1.152-.784,1.248-2.448,1.248h-2.24l2.592-2.464A4.742,4.742,0,0,0,37.585,8.92a2.742,2.742,0,0,0-2.912-2.928c-1.6,0-2.816,1.024-3.568,3.264h.448a2.2,2.2,0,0,1,1.952-1.44,1.863,1.863,0,0,1,1.9,2.032,4.628,4.628,0,0,1-.816,2.368,28.9,28.9,0,0,1-3.712,4.416V17h6.64Zm7.968-2.016c0-2.656-1.024-5.616-3.568-5.616-2.736,0-3.664,3.056-3.664,5.664,0,3.328,1.536,5.552,3.632,5.552C44.705,17.208,46.225,14.984,46.225,11.608ZM43.7,13.416c0,2.384-.272,3.344-1.072,3.344s-1.1-.96-1.1-3.344v-3.6c0-2.432.288-3.376,1.072-3.376s1.1,1.024,1.1,3.376Zm10.528-1.808c0-2.656-1.024-5.616-3.568-5.616-2.736,0-3.664,3.056-3.664,5.664,0,3.328,1.536,5.552,3.632,5.552C52.705,17.208,54.225,14.984,54.225,11.608ZM51.7,13.416c0,2.384-.272,3.344-1.072,3.344s-1.1-.96-1.1-3.344v-3.6c0-2.432.288-3.376,1.072-3.376s1.1,1.024,1.1,3.376ZM57.406,17H55.867V15.422h1.539Zm9.1-5.392c0-2.656-1.024-5.616-3.568-5.616-2.736,0-3.664,3.056-3.664,5.664,0,3.328,1.536,5.552,3.632,5.552C64.987,17.208,66.507,14.984,66.507,11.608Zm-2.528,1.808c0,2.384-.272,3.344-1.072,3.344s-1.1-.96-1.1-3.344v-3.6c0-2.432.288-3.376,1.072-3.376s1.1,1.024,1.1,3.376Zm10.528-1.808c0-2.656-1.024-5.616-3.568-5.616-2.736,0-3.664,3.056-3.664,5.664,0,3.328,1.536,5.552,3.632,5.552C72.987,17.208,74.507,14.984,74.507,11.608Zm-2.528,1.808c0,2.384-.272,3.344-1.072,3.344s-1.1-.96-1.1-3.344v-3.6c0-2.432.288-3.376,1.072-3.376s1.1,1.024,1.1,3.376Zm10.528-1.808c0-2.656-1.024-5.616-3.568-5.616-2.736,0-3.664,3.056-3.664,5.664,0,3.328,1.536,5.552,3.632,5.552C80.987,17.208,82.507,14.984,82.507,11.608Zm-2.528,1.808c0,2.384-.272,3.344-1.072,3.344s-1.1-.96-1.1-3.344v-3.6c0-2.432.288-3.376,1.072-3.376s1.1,1.024,1.1,3.376Z" transform="translate(849 2921)" fill="#9f0925"/>
    </g>
    <path id="Trazado_734719" data-name="Trazado 734719" d="M0,0H86.833" transform="translate(754.398 2934)" fill="none" stroke="#9f0925" stroke-width="1"/>
  </g>
</svg>
