<svg xmlns="http://www.w3.org/2000/svg" width="223.351" height="14.852" viewBox="0 0 223.351 14.852">
  <path id="Trazado_733369" data-name="Trazado 733369" d="M26.879,14.063a1.634,1.634,0,0,0-.5-1.2,4.3,4.3,0,0,0-1.645-.887A5.668,5.668,0,0,1,22.355,10.7a2.856,2.856,0,0,1-.8-2.125,3,3,0,0,1,.742-2.1A3.2,3.2,0,0,1,24.332,5.5V3.773h1.234V5.508a2.985,2.985,0,0,1,2.027,1.07,3.728,3.728,0,0,1,.723,2.406H26.785a2.5,2.5,0,0,0-.492-1.609,1.643,1.643,0,0,0-1.359-.617,1.832,1.832,0,0,0-1.383.48,1.823,1.823,0,0,0-.461,1.316,1.644,1.644,0,0,0,.477,1.227,4.668,4.668,0,0,0,1.711.891,5.909,5.909,0,0,1,2.367,1.285,2.816,2.816,0,0,1,.773,2.09,2.864,2.864,0,0,1-.8,2.137,3.575,3.575,0,0,1-2.211.941v1.5H24.176V17.133a3.58,3.58,0,0,1-2.2-.98,3.2,3.2,0,0,1-.828-2.465l.016-.039h1.484a2.128,2.128,0,0,0,.609,1.715,2.231,2.231,0,0,0,1.484.512,2.36,2.36,0,0,0,1.574-.48A1.653,1.653,0,0,0,26.879,14.063Zm10.115-.055c0-1.344-.592-2.224-2.4-3.456,1.52-.464,2.176-1.216,2.176-2.24,0-1.28-1.12-2.32-3.12-2.32-2.208,0-3.584,1.1-3.584,2.8,0,1.216.624,2.064,2.208,3.008a2.7,2.7,0,0,0-2.384,2.688c0,1.712,1.36,2.72,3.392,2.72C35.6,17.208,36.993,15.928,36.993,14.008Zm-2.128-5.6a2.544,2.544,0,0,1-.656,1.84c-1.344-.688-2.08-1.568-2.08-2.464a1.3,1.3,0,0,1,1.328-1.328C34.353,6.456,34.865,7.32,34.865,8.408Zm-.1,6.56c0,1.136-.592,1.728-1.456,1.728-.976,0-1.488-.848-1.488-2.272a3.838,3.838,0,0,1,.816-2.32C34.385,13.272,34.769,13.784,34.769,14.968Zm10.288-3.36c0-2.656-1.024-5.616-3.568-5.616-2.736,0-3.664,3.056-3.664,5.664,0,3.328,1.536,5.552,3.632,5.552C43.537,17.208,45.057,14.984,45.057,11.608Zm-2.528,1.808c0,2.384-.272,3.344-1.072,3.344s-1.1-.96-1.1-3.344v-3.6c0-2.432.288-3.376,1.072-3.376s1.1,1.024,1.1,3.376ZM48.238,17H46.7V15.422h1.539Zm9.1-5.392c0-2.656-1.024-5.616-3.568-5.616-2.736,0-3.664,3.056-3.664,5.664,0,3.328,1.536,5.552,3.632,5.552C55.819,17.208,57.339,14.984,57.339,11.608Zm-2.528,1.808c0,2.384-.272,3.344-1.072,3.344s-1.1-.96-1.1-3.344v-3.6c0-2.432.288-3.376,1.072-3.376s1.1,1.024,1.1,3.376Zm10.528-1.808c0-2.656-1.024-5.616-3.568-5.616-2.736,0-3.664,3.056-3.664,5.664,0,3.328,1.536,5.552,3.632,5.552C63.819,17.208,65.339,14.984,65.339,11.608Zm-2.528,1.808c0,2.384-.272,3.344-1.072,3.344s-1.1-.96-1.1-3.344v-3.6c0-2.432.288-3.376,1.072-3.376s1.1,1.024,1.1,3.376Zm10.528-1.808c0-2.656-1.024-5.616-3.568-5.616-2.736,0-3.664,3.056-3.664,5.664,0,3.328,1.536,5.552,3.632,5.552C71.819,17.208,73.339,14.984,73.339,11.608Zm-2.528,1.808c0,2.384-.272,3.344-1.072,3.344s-1.1-.96-1.1-3.344v-3.6c0-2.432.288-3.376,1.072-3.376s1.1,1.024,1.1,3.376ZM76.52,17H74.98V15.422H76.52Zm9.1-5.392c0-2.656-1.024-5.616-3.568-5.616-2.736,0-3.664,3.056-3.664,5.664,0,3.328,1.536,5.552,3.632,5.552C84.1,17.208,85.62,14.984,85.62,11.608Zm-2.528,1.808c0,2.384-.272,3.344-1.072,3.344s-1.1-.96-1.1-3.344v-3.6c0-2.432.288-3.376,1.072-3.376s1.1,1.024,1.1,3.376ZM93.62,11.608c0-2.656-1.024-5.616-3.568-5.616-2.736,0-3.664,3.056-3.664,5.664,0,3.328,1.536,5.552,3.632,5.552C92.1,17.208,93.62,14.984,93.62,11.608Zm-2.528,1.808c0,2.384-.272,3.344-1.072,3.344s-1.1-.96-1.1-3.344v-3.6c0-2.432.288-3.376,1.072-3.376s1.1,1.024,1.1,3.376Zm10.528-1.808c0-2.656-1.024-5.616-3.568-5.616-2.736,0-3.664,3.056-3.664,5.664,0,3.328,1.536,5.552,3.632,5.552C100.1,17.208,101.62,14.984,101.62,11.608Zm-2.528,1.808c0,2.384-.272,3.344-1.072,3.344s-1.1-.96-1.1-3.344v-3.6c0-2.432.288-3.376,1.072-3.376s1.1,1.024,1.1,3.376Zm11.4-.244a6.524,6.524,0,0,0,1.109-.969.951.951,0,0,1,.594-.359.4.4,0,0,1,.313.152.511.511,0,0,1,.148.355q0,.422-.727.586a9.26,9.26,0,0,0-1.312.477,9.1,9.1,0,0,0,1.227.461,2,2,0,0,1,.652.234.422.422,0,0,1,.176.367.494.494,0,0,1-.156.359.5.5,0,0,1-.367.156q-.219,0-.727-.57a5.23,5.23,0,0,0-.5-.437l-.445-.352A8.316,8.316,0,0,0,110.754,15a1.675,1.675,0,0,1,.109.539q0,.484-.43.484a.494.494,0,0,1-.375-.168.58.58,0,0,1-.156-.41,1.756,1.756,0,0,1,.086-.508q.055-.2.141-.633l.125-.648a4.038,4.038,0,0,0-1.078.891q-.383.453-.633.453a.412.412,0,0,1-.312-.184.607.607,0,0,1-.148-.387q0-.344.563-.5l.688-.2q.2-.055.8-.312-.578-.227-.8-.289l-.7-.164q-.586-.148-.586-.547a.57.57,0,0,1,.156-.387.456.456,0,0,1,.344-.176.893.893,0,0,1,.6.352l.391.422a5.169,5.169,0,0,0,.727.57,7.466,7.466,0,0,0-.172-.914l-.2-.664a1.339,1.339,0,0,1-.062-.375.418.418,0,0,1,.477-.469.48.48,0,0,1,.539.547,1.217,1.217,0,0,1-.047.336l-.187.648A4.719,4.719,0,0,0,110.5,13.172Zm8.764-4.556a2.2,2.2,0,0,1,2.016-1.328,1.44,1.44,0,0,1,1.584,1.648c0,.944-.576,1.616-2.1,2.1V11.3a6.01,6.01,0,0,1,2.448,1.232A2.639,2.639,0,0,1,124,14.472c0,1.152-.608,1.952-1.568,1.952a1.627,1.627,0,0,1-1.264-.688,2.1,2.1,0,0,0-1.536-.912.974.974,0,0,0-1.04.96c0,.864.96,1.44,2.432,1.44,2.768,0,4.8-1.824,4.8-4.16a2.944,2.944,0,0,0-1.952-2.848,2.186,2.186,0,0,0,1.344-2.032,2.372,2.372,0,0,0-2.624-2.192,3.973,3.973,0,0,0-3.664,2.432Zm14.688,2.992c0-2.656-1.024-5.616-3.568-5.616-2.736,0-3.664,3.056-3.664,5.664,0,3.328,1.536,5.552,3.632,5.552C132.428,17.208,133.948,14.984,133.948,11.608Zm-2.528,1.808c0,2.384-.272,3.344-1.072,3.344s-1.1-.96-1.1-3.344v-3.6c0-2.432.288-3.376,1.072-3.376s1.1,1.024,1.1,3.376Zm3.725-5.6a2.345,2.345,0,0,1,.641-1.672,2.5,2.5,0,0,1,3.422,0,2.342,2.342,0,0,1,.641,1.676v.6a2.326,2.326,0,0,1-.637,1.664,2.231,2.231,0,0,1-1.7.672,2.276,2.276,0,0,1-1.723-.672,2.311,2.311,0,0,1-.645-1.664Zm1.141.6a1.537,1.537,0,0,0,.316.98,1.089,1.089,0,0,0,.91.4,1.057,1.057,0,0,0,.883-.4,1.546,1.546,0,0,0,.313-.984v-.6a1.57,1.57,0,0,0-.316-.988,1.185,1.185,0,0,0-1.793,0,1.583,1.583,0,0,0-.312.988Zm4.367,5.8a2.332,2.332,0,0,1,.641-1.668,2.5,2.5,0,0,1,3.418,0,2.324,2.324,0,0,1,.645,1.668v.609a2.328,2.328,0,0,1-.641,1.672,2.234,2.234,0,0,1-1.7.672,2.276,2.276,0,0,1-1.723-.672,2.32,2.32,0,0,1-.645-1.672Zm1.141.609a1.549,1.549,0,0,0,.316.988,1.089,1.089,0,0,0,.91.4,1.053,1.053,0,0,0,.883-.4,1.562,1.562,0,0,0,.313-.988v-.609a1.541,1.541,0,0,0-.32-.984,1.184,1.184,0,0,0-1.785,0,1.554,1.554,0,0,0-.316.984Zm-3.883,1.32-.852-.523,5.555-8.891.852.523Zm19.8-5.57H151.2V9.289h6.516Zm0,3.25H151.2V12.539h6.516Zm12.039.242a1.634,1.634,0,0,0-.5-1.2,4.3,4.3,0,0,0-1.645-.887A5.668,5.668,0,0,1,165.23,10.7a2.857,2.857,0,0,1-.8-2.125,3,3,0,0,1,.742-2.1,3.2,3.2,0,0,1,2.039-.977V3.773h1.234V5.508a2.985,2.985,0,0,1,2.027,1.07,3.728,3.728,0,0,1,.723,2.406H169.66a2.5,2.5,0,0,0-.492-1.609,1.643,1.643,0,0,0-1.359-.617,1.832,1.832,0,0,0-1.383.48,1.823,1.823,0,0,0-.461,1.316,1.644,1.644,0,0,0,.477,1.227,4.668,4.668,0,0,0,1.711.891,5.909,5.909,0,0,1,2.367,1.285,2.816,2.816,0,0,1,.773,2.09,2.864,2.864,0,0,1-.8,2.137,3.575,3.575,0,0,1-2.211.941v1.5h-1.227V17.133a3.58,3.58,0,0,1-2.2-.98,3.2,3.2,0,0,1-.828-2.465l.016-.039h1.484a2.128,2.128,0,0,0,.609,1.715,2.231,2.231,0,0,0,1.484.512,2.36,2.36,0,0,0,1.574-.48A1.653,1.653,0,0,0,169.754,14.063Zm10.21-.438h-.4c-.416,1.152-.784,1.248-2.448,1.248h-2.24l2.592-2.464a4.742,4.742,0,0,0,1.824-3.488,2.742,2.742,0,0,0-2.912-2.928c-1.6,0-2.816,1.024-3.568,3.264h.448a2.2,2.2,0,0,1,1.952-1.44,1.863,1.863,0,0,1,1.9,2.032,4.628,4.628,0,0,1-.816,2.368,28.9,28.9,0,0,1-3.712,4.416V17h6.64Zm7.968,1.072V12.92h-1.024V5.992h-1.28l-5.008,6.9V14.7h3.968V17h2.32V14.7ZM184.6,12.92h-3.328l3.328-4.7ZM191.113,17h-1.539V15.422h1.539Zm9.1-5.392c0-2.656-1.024-5.616-3.568-5.616-2.736,0-3.664,3.056-3.664,5.664,0,3.328,1.536,5.552,3.632,5.552C198.694,17.208,200.214,14.984,200.214,11.608Zm-2.528,1.808c0,2.384-.272,3.344-1.072,3.344s-1.1-.96-1.1-3.344v-3.6c0-2.432.288-3.376,1.072-3.376s1.1,1.024,1.1,3.376Zm10.528-1.808c0-2.656-1.024-5.616-3.568-5.616-2.736,0-3.664,3.056-3.664,5.664,0,3.328,1.536,5.552,3.632,5.552C206.694,17.208,208.214,14.984,208.214,11.608Zm-2.528,1.808c0,2.384-.272,3.344-1.072,3.344s-1.1-.96-1.1-3.344v-3.6c0-2.432.288-3.376,1.072-3.376s1.1,1.024,1.1,3.376Zm10.528-1.808c0-2.656-1.024-5.616-3.568-5.616-2.736,0-3.664,3.056-3.664,5.664,0,3.328,1.536,5.552,3.632,5.552C214.694,17.208,216.214,14.984,216.214,11.608Zm-2.528,1.808c0,2.384-.272,3.344-1.072,3.344s-1.1-.96-1.1-3.344v-3.6c0-2.432.288-3.376,1.072-3.376s1.1,1.024,1.1,3.376ZM219.395,17h-1.539V15.422h1.539Zm9.1-5.392c0-2.656-1.024-5.616-3.568-5.616-2.736,0-3.664,3.056-3.664,5.664,0,3.328,1.536,5.552,3.632,5.552C226.975,17.208,228.495,14.984,228.495,11.608Zm-2.528,1.808c0,2.384-.272,3.344-1.072,3.344s-1.1-.96-1.1-3.344v-3.6c0-2.432.288-3.376,1.072-3.376s1.1,1.024,1.1,3.376Zm10.528-1.808c0-2.656-1.024-5.616-3.568-5.616-2.736,0-3.664,3.056-3.664,5.664,0,3.328,1.536,5.552,3.632,5.552C234.975,17.208,236.495,14.984,236.495,11.608Zm-2.528,1.808c0,2.384-.272,3.344-1.072,3.344s-1.1-.96-1.1-3.344v-3.6c0-2.432.288-3.376,1.072-3.376s1.1,1.024,1.1,3.376Zm10.528-1.808c0-2.656-1.024-5.616-3.568-5.616-2.736,0-3.664,3.056-3.664,5.664,0,3.328,1.536,5.552,3.632,5.552C242.975,17.208,244.495,14.984,244.495,11.608Zm-2.528,1.808c0,2.384-.272,3.344-1.072,3.344s-1.1-.96-1.1-3.344v-3.6c0-2.432.288-3.376,1.072-3.376s1.1,1.024,1.1,3.376Z" transform="translate(-21.143 -3.773)" fill="#9f0925"/>
</svg>
