<svg xmlns="http://www.w3.org/2000/svg" width="62" height="62" viewBox="0 0 62 62">
  <g id="Grupo_985912" data-name="Grupo 985912" transform="translate(-829 -1427)">
    <rect id="Rectángulo_33954" data-name="Rectángulo 33954" width="62" height="62" rx="9" transform="translate(829 1427)" fill="#9f0925"/>
    <g id="analitica" transform="translate(875.334 1473.298)">
      <g id="Grupo_985911" data-name="Grupo 985911" transform="translate(-35.334 -35.298)">
        <g id="Grupo_985906" data-name="Grupo 985906" transform="translate(0 0)">
          <circle id="Elipse_5904" data-name="Elipse 5904" cx="7.836" cy="7.836" r="7.836" transform="translate(0 11.08) rotate(-45)" fill="#60b7ff"/>
          <circle id="Elipse_5905" data-name="Elipse 5905" cx="6.863" cy="6.863" r="6.863" transform="translate(1.377 11.08) rotate(-45)" fill="#8ac9fe"/>
          <path id="Trazado_728801" data-name="Trazado 728801" d="M112.608,112.62h7.836a7.833,7.833,0,0,1-3.918,6.787Z" transform="translate(-101.526 -101.54)" fill="#fd4755" fill-rule="evenodd"/>
          <path id="Trazado_728802" data-name="Trazado 728802" d="M112.608,112.62h6.863a6.86,6.86,0,0,1-3.431,5.944Z" transform="translate(-101.526 -101.54)" fill="#fe646f" fill-rule="evenodd"/>
          <path id="Trazado_728803" data-name="Trazado 728803" d="M120.444,15.846h-7.836V8.01A7.836,7.836,0,0,1,120.444,15.846Z" transform="translate(-101.526 -4.766)" fill="#ffd064" fill-rule="evenodd"/>
          <path id="Trazado_728804" data-name="Trazado 728804" d="M119.471,27.871h-6.863V21.008A6.863,6.863,0,0,1,119.471,27.871Z" transform="translate(-101.526 -16.79)" fill="#ffe177" fill-rule="evenodd"/>
        </g>
        <g id="Grupo_985907" data-name="Grupo 985907" transform="translate(22.629 3.037)">
          <path id="Trazado_728805" data-name="Trazado 728805" d="M267.6,5.247h2.021a.845.845,0,0,1,.843.843V8.111a.845.845,0,0,1-.843.843H267.6a.845.845,0,0,1-.843-.843V6.09A.845.845,0,0,1,267.6,5.247Z" transform="translate(-266.759 -5.247)" fill="#8ac9fe" fill-rule="evenodd"/>
          <path id="Trazado_728806" data-name="Trazado 728806" d="M267.6,87.873h2.021a.845.845,0,0,1,.843.843v2.021a.845.845,0,0,1-.843.843H267.6a.845.845,0,0,1-.843-.843V88.716A.845.845,0,0,1,267.6,87.873Z" transform="translate(-266.759 -81.684)" fill="#ffe177" fill-rule="evenodd"/>
          <path id="Trazado_728807" data-name="Trazado 728807" d="M267.6,170.5h2.021a.845.845,0,0,1,.843.843v2.021a.845.845,0,0,1-.843.843H267.6a.845.845,0,0,1-.843-.843v-2.021A.845.845,0,0,1,267.6,170.5Z" transform="translate(-266.759 -158.119)" fill="#fe646f" fill-rule="evenodd"/>
        </g>
        <g id="Grupo_985908" data-name="Grupo 985908" transform="translate(3.246 23.218)">
          <path id="Trazado_728808" data-name="Trazado 728808" d="M197.761,348.361h2.488a.751.751,0,0,1,.749.749v10.161a.751.751,0,0,1-.749.749h-2.488a.751.751,0,0,1-.749-.749V349.11A.751.751,0,0,1,197.761,348.361Z" transform="translate(-182.853 -342.84)" fill="#ffe177" fill-rule="evenodd"/>
          <path id="Trazado_728809" data-name="Trazado 728809" d="M200.249,348.361a.751.751,0,0,1,.749.749v10.161a.751.751,0,0,1-.749.749h-2.488a.751.751,0,0,1-.749-.749H199.5a.751.751,0,0,0,.749-.749Z" transform="translate(-182.853 -342.84)" fill="#ffd064" fill-rule="evenodd"/>
          <path id="Trazado_728810" data-name="Trazado 728810" d="M294.346,348.361h2.488a.751.751,0,0,1,.749.749v10.161a.751.751,0,0,1-.749.749h-2.488a.751.751,0,0,1-.749-.749V349.11A.751.751,0,0,1,294.346,348.361Z" transform="translate(-272.203 -342.84)" fill="#fe646f" fill-rule="evenodd"/>
          <path id="Trazado_728811" data-name="Trazado 728811" d="M296.834,348.361a.751.751,0,0,1,.749.749v10.161a.751.751,0,0,1-.749.749h-2.488a.751.751,0,0,1-.749-.749h2.488a.751.751,0,0,0,.749-.749Z" transform="translate(-272.203 -342.84)" fill="#fd4755" fill-rule="evenodd"/>
          <path id="Trazado_728812" data-name="Trazado 728812" d="M8.749,321.361h2.488a.751.751,0,0,1,.749.749v12.184a.751.751,0,0,1-.749.749H8.749A.751.751,0,0,1,8,334.294V322.11A.751.751,0,0,1,8.749,321.361Z" transform="translate(-8 -317.863)" fill="#6cf5c2" fill-rule="evenodd"/>
          <path id="Trazado_728813" data-name="Trazado 728813" d="M11.237,321.361a.751.751,0,0,1,.749.749v12.184a.751.751,0,0,1-.749.749H8.749A.751.751,0,0,1,8,334.294h2.488a.751.751,0,0,0,.749-.749Z" transform="translate(-8 -317.863)" fill="#00e499" fill-rule="evenodd"/>
          <path id="Trazado_728814" data-name="Trazado 728814" d="M101.175,274.658h2.488a.751.751,0,0,1,.749.749V291.09a.751.751,0,0,1-.749.749h-2.488a.751.751,0,0,1-.749-.749V275.407A.751.751,0,0,1,101.175,274.658Z" transform="translate(-93.502 -274.658)" fill="#8ac9fe" fill-rule="evenodd"/>
          <path id="Trazado_728815" data-name="Trazado 728815" d="M103.663,274.658a.751.751,0,0,1,.749.749V291.09a.751.751,0,0,1-.749.749h-2.488a.751.751,0,0,1-.749-.749h2.488a.751.751,0,0,0,.749-.749Z" transform="translate(-93.502 -274.658)" fill="#60b7ff" fill-rule="evenodd"/>
        </g>
        <g id="Grupo_985909" data-name="Grupo 985909" transform="translate(15.217 14.432)">
          <path id="Trazado_728816" data-name="Trazado 728816" d="M374.53,354.862a7.759,7.759,0,0,1-1.309,1.442l3.561,3.49,1.356-1.4Z" transform="translate(-357.833 -340.068)" fill="#a79ba7" fill-rule="evenodd"/>
          <path id="Trazado_728817" data-name="Trazado 728817" d="M386.237,354.541a.9.9,0,0,1-.388.52l3.537,3.514.433-.475Z" transform="translate(-369.515 -339.771)" fill="#837683" fill-rule="evenodd"/>
          <path id="Trazado_728818" data-name="Trazado 728818" d="M413.747,396.247l1.53-1.577a.7.7,0,0,0-.015-.992l-4.237-4.112a.7.7,0,0,0-.992.015l-1.53,1.577a.7.7,0,0,0,.015.992l4.237,4.112A.7.7,0,0,0,413.747,396.247Z" transform="translate(-390.29 -371.99)" fill="#f1ba84" fill-rule="evenodd"/>
          <path id="Trazado_728819" data-name="Trazado 728819" d="M434.072,389.566l4.237,4.112a.7.7,0,0,1,.015.992l-1.53,1.577a.7.7,0,0,1-.19.139.7.7,0,0,0,.817-.139l1.53-1.577a.7.7,0,0,0-.015-.992l-4.237-4.112a.7.7,0,0,0-.8-.124A.7.7,0,0,1,434.072,389.566Z" transform="translate(-413.964 -371.989)" fill="#e3a76f" fill-rule="evenodd"/>
          <circle id="Elipse_5906" data-name="Elipse 5906" cx="7.716" cy="7.716" r="7.716" transform="translate(0 10.91) rotate(-45)" fill="#eceff1"/>
          <path id="Trazado_728820" data-name="Trazado 728820" d="M308.889,200a7.716,7.716,0,0,1,0,15.432q-.188,0-.375-.009a7.716,7.716,0,0,0,0-15.413Q308.7,200,308.889,200Z" transform="translate(-297.973 -196.81)" fill="#d1d1d6" fill-rule="evenodd"/>
        </g>
        <g id="Grupo_985910" data-name="Grupo 985910" transform="translate(20.514 19.724)">
          <circle id="Elipse_5907" data-name="Elipse 5907" cx="5.618" cy="5.618" r="5.618" transform="translate(0 0)" fill="#837683"/>
          <path id="Trazado_728821" data-name="Trazado 728821" d="M311.964,233.623a5.619,5.619,0,0,1-5.119,5.6q.247.022.5.022a5.668,5.668,0,0,0,.8-.057l.1-.016a5.619,5.619,0,0,0-.905-11.164q-.253,0-.5.022A5.619,5.619,0,0,1,311.964,233.623Z" transform="translate(-301.726 -228.005)" fill="#685e68" fill-rule="evenodd"/>
          <path id="Trazado_728822" data-name="Trazado 728822" d="M265.337,310.239a3.925,3.925,0,0,0-3.9,3.5,5.6,5.6,0,0,0,3.9,1.575,5.669,5.669,0,0,0,.8-.057,5.6,5.6,0,0,0,3.1-1.518A3.924,3.924,0,0,0,265.337,310.239Z" transform="translate(-259.719 -304.079)" fill="#8ac9fe" fill-rule="evenodd"/>
          <path id="Trazado_728823" data-name="Trazado 728823" d="M306.847,310.27c2.335.3,3.276,2.064,3.493,4.182a5.635,5.635,0,0,0,.907-.712,3.924,3.924,0,0,0-3.9-3.5,3.965,3.965,0,0,0-.5.031Z" transform="translate(-301.728 -304.079)" fill="#60b7ff" fill-rule="evenodd"/>
          <circle id="Elipse_5908" data-name="Elipse 5908" cx="1.984" cy="1.984" r="1.984" transform="translate(3.635 1.896)" fill="#f6dccd"/>
          <path id="Trazado_728824" data-name="Trazado 728824" d="M311.915,255.3a1.984,1.984,0,0,1-1.734,1.968,2.007,2.007,0,0,0,.25.016,1.984,1.984,0,1,0-.25-3.952A1.984,1.984,0,0,1,311.915,255.3Z" transform="translate(-304.812 -251.422)" fill="#f1cbbc" fill-rule="evenodd"/>
        </g>
      </g>
      <path id="Trazado_728825" data-name="Trazado 728825" d="M18.463,22.706a4.988,4.988,0,0,0,.829,2.757,4.51,4.51,0,0,1,2.326-2.415,2.583,2.583,0,1,1,3.73,0,4.514,4.514,0,0,1,2.326,2.415,5.018,5.018,0,1,0-9.21-2.757Zm5.019-.058a1.384,1.384,0,1,1,1.384-1.385A1.386,1.386,0,0,1,23.482,22.649Zm0,5.076a5,5,0,0,1-3.259-1.207,3.325,3.325,0,0,1,6.519,0A5,5,0,0,1,23.482,27.725Zm-6.217-5.019a6.217,6.217,0,1,1,6.217,6.217A6.225,6.225,0,0,1,17.264,22.706Zm-6.357-1.525H8.119V37.164h2.788Zm1.2-.6V37.763a.6.6,0,0,1-.6.6H7.52a.6.6,0,0,1-.6-.6V20.582a.6.6,0,0,1,.6-.6h3.987a.6.6,0,0,1,.6.6ZM37.122,33.914,32.884,29.8a.1.1,0,0,0-.07-.028h0a.1.1,0,0,0-.072.03l-1.53,1.577a.105.105,0,0,0,0,.145l4.237,4.112a.106.106,0,0,0,.145,0l1.53-1.577A.105.105,0,0,0,37.122,33.914ZM25.378,30.8a8.334,8.334,0,0,1-2.788.17v6.191h2.788Zm-7.236-1.728a8.375,8.375,0,0,1-1.95-2.372h-.838V37.164h2.788Zm-1.777-6.369a7.117,7.117,0,1,1,7.116,7.116,7.125,7.125,0,0,1-7.116-7.116Zm4.42-7.866a8.258,8.258,0,0,1,2.1-.427v-.826h-2.1Zm9.081,13.187c-.16.192-.328.376-.5.553l1.492,1.448.521-.537Zm8.117,6.867L36.455,36.47a1.3,1.3,0,0,1-1.84.028l-4.237-4.112a1.3,1.3,0,0,1-.294-1.436l-1.631-1.583a8.311,8.311,0,0,1-1.877,1.057v7.339a.6.6,0,0,1-.6.6H21.99a.6.6,0,0,1-.6-.6V30.755a8.251,8.251,0,0,1-2.05-.84v7.848a.6.6,0,0,1-.6.6H14.755a.6.6,0,0,1-.6-.6V26.1a.6.6,0,0,1,.6-.6h.9a8.315,8.315,0,0,1,3.936-10.143V12.987a.6.6,0,0,1,.6-.6H23.48a.6.6,0,0,1,.6.6v1.426a8.251,8.251,0,0,1,3.159.876h4.716a.6.6,0,1,1,0,1.2H29a8.3,8.3,0,0,1,1.578,10.555l1.7,1.65a1.3,1.3,0,0,1,1.445.25l4.237,4.112a1.3,1.3,0,0,1,.028,1.839Zm-34-10.213H1.2V37.164H3.984Zm1.2-.6V37.763a.6.6,0,0,1-.6.6H.6a.6.6,0,0,1-.6-.6V24.081a.6.6,0,0,1,.6-.6H4.583a.6.6,0,0,1,.6.6Zm15.6-14.589h2.1V7.4h-2.1Zm-1.2.6V6.8a.6.6,0,0,1,.6-.6H23.48a.6.6,0,0,1,.6.6v3.294a.6.6,0,0,1-.6.6H20.187A.6.6,0,0,1,19.587,10.091Zm6.571.207h5.8a.6.6,0,0,0,0-1.2h-5.8a.6.6,0,0,0,0,1.2Zm0-2.509H37.751a.6.6,0,0,0,0-1.2H26.158a.6.6,0,0,0,0,1.2ZM20.786,3.3h2.1V1.208h-2.1Zm-1.2.6V.608a.6.6,0,0,1,.6-.6H23.48a.6.6,0,0,1,.6.6V3.9a.6.6,0,0,1-.6.6H20.187A.6.6,0,0,1,19.587,3.9Zm6.571.207h5.8a.6.6,0,1,0,0-1.2h-5.8a.6.6,0,0,0,0,1.2Zm0-2.509H37.751a.6.6,0,1,0,0-1.2H26.158a.6.6,0,0,0,0,1.2ZM1.2,8.444a7.236,7.236,0,0,0,10.375,6.521L7.916,8.748a.6.6,0,0,1-.082-.3V1.232A7.247,7.247,0,0,0,1.2,8.444ZM9.032,1.232a7.25,7.25,0,0,1,6.613,6.616l-6.613,0Zm6.612,7.814-6.164,0L12.6,14.356a7.238,7.238,0,0,0,3.041-5.309ZM0,8.444A8.436,8.436,0,1,0,8.433.009,8.445,8.445,0,0,0,0,8.444Zm25.562,4.935a.6.6,0,0,0,.6.6H37.751a.6.6,0,1,0,0-1.2H26.158A.6.6,0,0,0,25.559,13.379Z" transform="translate(-32.685 -32.662)" fill-rule="evenodd"/>
    </g>
  </g>
</svg>
