<svg xmlns="http://www.w3.org/2000/svg" width="85" height="91" viewBox="0 0 85 91">
  <g id="Grupo_985779" data-name="Grupo 985779" transform="translate(-180 -2001)">
    <rect id="Rectángulo_33822" data-name="Rectángulo 33822" width="85" height="91" rx="11" transform="translate(180 2001)" fill="#ea526f"/>
    <g id="modista" transform="translate(192 2033)">
      <path id="Trazado_212431" data-name="Trazado 212431" d="M41.212,84.1H16.047a8.535,8.535,0,0,1-8.535-8.535v-10.8h33.7Zm0,0" transform="translate(-6.623 -57.099)" fill="#f9a806"/>
      <path id="Trazado_212432" data-name="Trazado 212432" d="M41.212,14.286c0-3.741-7.544-6.774-16.85-6.774s-16.85,3.033-16.85,6.774,7.544,6.775,16.85,6.775S41.212,18.027,41.212,14.286Zm0,0" transform="translate(-6.623 -6.623)" fill="#ffb509"/>
      <path id="Trazado_212433" data-name="Trazado 212433" d="M43.78,34.257c0,3.742-7.544,6.775-16.849,6.775-8.139,0-14.93-2.32-16.505-5.405,3.078,1.629,7.945,2.68,13.425,2.68,9.306,0,16.85-3.033,16.85-6.775a2.98,2.98,0,0,0-.345-1.368C42.5,31.3,43.78,32.718,43.78,34.257Zm0,0" transform="translate(-9.192 -26.595)" fill="#f9a806"/>
      <path id="Trazado_212434" data-name="Trazado 212434" d="M84.2,39.169c0-1.9-4.561-3.435-10.187-3.435s-10.187,1.538-10.187,3.435S68.385,42.6,74.011,42.6,84.2,41.066,84.2,39.169Zm0,0" transform="translate(-56.272 -31.506)" fill="#d3d3d8"/>
      <path id="Trazado_212435" data-name="Trazado 212435" d="M89.511,44.693c0,1.9-4.561,3.435-10.186,3.435-4.3,0-7.979-.9-9.474-2.169a25.2,25.2,0,0,0,6.326.742c5.625,0,10.186-1.538,10.186-3.435A1.709,1.709,0,0,0,85.65,42C88,42.629,89.511,43.6,89.511,44.693Zm0,0" transform="translate(-61.586 -37.03)" fill="#babac0"/>
      <path id="Trazado_212436" data-name="Trazado 212436" d="M407.222,134.58H395.551V122.016h11.672a1.218,1.218,0,0,1,1.218,1.218v10.128A1.218,1.218,0,0,1,407.222,134.58Zm0,0" transform="translate(-348.747 -107.578)" fill="#d93131"/>
      <path id="Trazado_212437" data-name="Trazado 212437" d="M479.292,134.58h-2V122.016h2a1.218,1.218,0,0,1,1.218,1.218v10.128A1.218,1.218,0,0,1,479.292,134.58Zm0,0" transform="translate(-420.818 -107.578)" fill="#cb2c2c"/>
      <path id="Trazado_212438" data-name="Trazado 212438" d="M433.557,156.095A2.552,2.552,0,1,1,431,153.543,2.552,2.552,0,0,1,433.557,156.095Zm0,0" transform="translate(-377.757 -135.375)" fill="#d3d3d8"/>
      <path id="Trazado_212439" data-name="Trazado 212439" d="M433.557,156.095A2.552,2.552,0,1,1,431,153.543,2.552,2.552,0,0,1,433.557,156.095Zm0,0" transform="translate(-377.757 -135.375)" fill="#d3d3d8"/>
      <path id="Trazado_212440" data-name="Trazado 212440" d="M435.038,157.582a2.553,2.553,0,0,1-4.9.991,2.554,2.554,0,0,0,3.344-3.342A2.551,2.551,0,0,1,435.038,157.582Zm0,0" transform="translate(-379.238 -136.863)" fill="#babac0"/>
      <path id="Trazado_212441" data-name="Trazado 212441" d="M53.426,71.533V84.1H16.047a8.535,8.535,0,0,1-8.536-8.534V64.758c0,3.742,7.544,6.775,16.849,6.775H53.426Zm0,0" transform="translate(-6.623 -57.095)" fill="#ffb509"/>
      <path id="Trazado_212442" data-name="Trazado 212442" d="M367.52,122.016h3.317v12.565H367.52Zm0,0" transform="translate(-324.033 -107.578)" fill="#f9a806"/>
      <path id="Trazado_212443" data-name="Trazado 212443" d="M424.382,146.031a3.441,3.441,0,1,0,3.441,3.441A3.445,3.445,0,0,0,424.382,146.031Zm0,5.1a1.663,1.663,0,1,1,1.663-1.663A1.665,1.665,0,0,1,424.382,151.135Zm0,0" transform="translate(-371.134 -128.752)"/>
      <path id="Trazado_212444" data-name="Trazado 212444" d="M67.392,36.87c5.5,0,11.075-1.485,11.075-4.323S72.9,28.223,67.392,28.223s-11.075,1.485-11.075,4.323S61.888,36.87,67.392,36.87Zm-6.919-5.91A22.543,22.543,0,0,1,67.392,30a22.542,22.542,0,0,1,6.919.96c1.882.634,2.379,1.315,2.379,1.586s-.5.953-2.379,1.587a22.542,22.542,0,0,1-6.919.96,22.546,22.546,0,0,1-6.92-.96c-1.882-.634-2.379-1.315-2.379-1.587S58.591,31.594,60.473,30.96Zm0,0" transform="translate(-49.653 -24.883)"/>
      <path id="Trazado_212445" data-name="Trazado 212445" d="M58.475,13.549H42.337a.889.889,0,0,0,0,1.777h3.578V26.114h-2.1V21.62a.889.889,0,1,0-1.777,0v4.494h-2.1v-3.16a.889.889,0,1,0-1.777,0v3.16h-2.1v-3.16a.889.889,0,1,0-1.777,0v3.16h-2.1v-3.16a.889.889,0,1,0-1.777,0v3.16h-2.1v-3.16a.889.889,0,1,0-1.777,0v3.16h-2.1V21.62a.889.889,0,1,0-1.777,0v4.494h-2.1v-3.16a.889.889,0,1,0-1.778,0v3.16h-2.1v-3.16a.889.889,0,1,0-1.777,0v3.16h-2.1v-3.16a.889.889,0,1,0-1.777,0v3.16H9.424c-.181,0-.359-.009-.537-.021V22.954a.889.889,0,1,0-1.777,0v2.8a7.626,7.626,0,0,1-2.1-1.052V21.62a.889.889,0,1,0-1.777,0v1.324a7.6,7.6,0,0,1-1.453-4.476V11.1l0,0A16.491,16.491,0,0,0,8.95,14.358a37.874,37.874,0,0,0,8.788.968h19.07a.889.889,0,0,0,0-1.777h-1.33V7.663c0-2.2-1.951-4.191-5.492-5.614A33.912,33.912,0,0,0,17.739,0,37.669,37.669,0,0,0,8.215,1.153.889.889,0,0,0,8.673,2.87a35.856,35.856,0,0,1,9.066-1.093c9.406,0,15.961,3.1,15.961,5.886,0,1.561-1.722,2.657-2.926,3.3a21.469,21.469,0,0,1-5.716,1.949A31.14,31.14,0,0,1,20.6,13.5a45.249,45.249,0,0,1-8.879-.4,20.669,20.669,0,0,1-7.266-2.282c-1.118-.631-2.671-1.684-2.681-3.137,0,0,0-.008,0-.012,0-.71.418-1.807,2.407-3a.889.889,0,0,0-.915-1.523C.568,4.76,0,6.494,0,7.662V18.468a9.437,9.437,0,0,0,7.791,9.278.877.877,0,0,0,.116.021,9.443,9.443,0,0,0,1.518.124h49.05a2.109,2.109,0,0,0,2.107-2.107V15.656A2.109,2.109,0,0,0,58.475,13.549Zm-28.49-.271A12.648,12.648,0,0,0,33.7,11.1v2.446H29.27C29.513,13.461,29.752,13.371,29.985,13.278ZM58.8,25.784a.33.33,0,0,1-.33.33H47.692V15.326H58.475a.33.33,0,0,1,.33.33Zm0,0"/>
    </g>
  </g>
</svg>
