<svg xmlns="http://www.w3.org/2000/svg" xmlns:xlink="http://www.w3.org/1999/xlink" width="1600" height="220" viewBox="0 0 1600 220">
  <defs>
    <clipPath id="clip-path">
      <path id="Recurso_1" data-name="Recurso 1" d="M1600,0H0V220H1600Z" fill="#f8e1d7"/>
    </clipPath>
    <clipPath id="clip-path-2">
      <path id="Trazado_113528" data-name="Trazado 113528" d="M6.929.486A3.094,3.094,0,0,0,7.3,0L.372,11.24A3.1,3.1,0,0,1,0,11.728Z" fill="none"/>
    </clipPath>
    <clipPath id="clip-path-3">
      <path id="Trazado_113531" data-name="Trazado 113531" d="M6.93.484A3.168,3.168,0,0,0,7.3,0L.37,11.242a2.964,2.964,0,0,1-.37.484Z" fill="none"/>
    </clipPath>
    <clipPath id="clip-path-4">
      <path id="Trazado_113534" data-name="Trazado 113534" d="M6.932.488A3.1,3.1,0,0,0,7.3,0L.375,11.24A3.338,3.338,0,0,1,0,11.73Z" fill="none"/>
    </clipPath>
    <clipPath id="clip-path-5">
      <path id="Trazado_113537" data-name="Trazado 113537" d="M6.932.484A2.97,2.97,0,0,0,7.3,0L.372,11.242A3.179,3.179,0,0,1,0,11.726Z" fill="none"/>
    </clipPath>
    <clipPath id="clip-path-6">
      <rect id="Rectángulo_33773" data-name="Rectángulo 33773" width="1243.473" height="564.455" transform="translate(0 0.001)" fill="none"/>
    </clipPath>
    <clipPath id="clip-path-7">
      <path id="Trazado_113550" data-name="Trazado 113550" d="M4.322,19.615C.733,17.04-.879,13.44.477,11.242L7.408,0c-1.356,2.2.255,5.8,3.846,8.373,3.917,2.811,8.629,3.355,10.6,1.233L14.923,20.848a4.755,4.755,0,0,1-3.57,1.292,12.617,12.617,0,0,1-7.031-2.525" fill="none"/>
    </clipPath>
    <clipPath id="clip-path-9">
      <path id="Trazado_113563" data-name="Trazado 113563" d="M4.326,19.612C.716,17.019-.876,13.439.48,11.24L7.41,0c-1.355,2.2.238,5.781,3.848,8.37,3.869,2.777,8.606,3.336,10.575,1.216L14.9,20.827a4.754,4.754,0,0,1-3.57,1.288,12.58,12.58,0,0,1-7.007-2.5" fill="none"/>
    </clipPath>
    <clipPath id="clip-path-11">
      <path id="Trazado_113576" data-name="Trazado 113576" d="M4.311,19.627C.724,17.052-.877,13.442.479,11.242L7.409,0c-1.358,2.2.245,5.81,3.834,8.385,3.917,2.813,8.642,3.341,10.612,1.221L14.923,20.848a4.77,4.77,0,0,1-3.584,1.3,12.617,12.617,0,0,1-7.028-2.518" fill="none"/>
    </clipPath>
    <clipPath id="clip-path-13">
      <path id="Trazado_113589" data-name="Trazado 113589" d="M4.317,19.622C.709,17.033-.875,13.44.481,11.24L7.411,0c-1.356,2.2.226,5.791,3.836,8.38,3.871,2.778,8.62,3.325,10.589,1.2L14.9,20.826a4.769,4.769,0,0,1-3.586,1.294,12.562,12.562,0,0,1-7-2.5" fill="none"/>
    </clipPath>
    <clipPath id="clip-path-15">
      <path id="Trazado_113602" data-name="Trazado 113602" d="M57.809,24.915C36.593,9.695,10.705,6.744,0,18.268L6.93,7.026C17.634-4.5,43.523-1.547,64.738,13.675c19.678,14.118,28.39,33.811,21.006,45.784L78.815,70.7c7.382-11.975-1.33-31.668-21.006-45.786" fill="none"/>
    </clipPath>
    <clipPath id="clip-path-17">
      <path id="Trazado_113844" data-name="Trazado 113844" d="M191.4,56.192a95.6,95.6,0,1,1-67.605-28,95.608,95.608,0,0,1,67.605,28" transform="translate(-28.187 -28.187)" fill="#1448d3"/>
    </clipPath>
    <clipPath id="clip-path-18">
      <rect id="Rectángulo_33782" data-name="Rectángulo 33782" width="536.559" height="212.63" fill="none"/>
    </clipPath>
    <clipPath id="clip-path-19">
      <path id="Trazado_113926" data-name="Trazado 113926" d="M112,0A112,112,0,1,1,0,112,112,112,0,0,1,112,0Z" transform="translate(0 -0.001)" fill="#1448d3"/>
    </clipPath>
  </defs>
  <g id="Grupo_80256" data-name="Grupo 80256" transform="translate(0)">
    <g id="Grupo_53028" data-name="Grupo 53028" transform="translate(0)">
      <g id="Grupo_49020" data-name="Grupo 49020">
        <g id="Group_1153" data-name="Group 1153">
          <path id="Recurso_1-2" data-name="Recurso 1" d="M1600,0H0V220H1600Z" fill="#dee9f0"/>
        </g>
      </g>
    </g>
    <g id="Enmascarar_grupo_52" data-name="Enmascarar grupo 52" transform="translate(0 0)" clip-path="url(#clip-path)">
      <ellipse id="Elipse_4724" data-name="Elipse 4724" cx="297.5" cy="297.5" rx="297.5" ry="297.5" transform="translate(1165 -215)" fill="#cde3f2"/>
      <ellipse id="Elipse_4723" data-name="Elipse 4723" cx="659" cy="658.999" rx="659" ry="658.999" transform="translate(-542 22)" fill="#cde3f2"/>
      <ellipse id="Elipse_4725" data-name="Elipse 4725" cx="403.5" cy="403.5" rx="403.5" ry="403.5" transform="translate(305 -776.999)" fill="#cde3f2"/>
      <g id="Grupo_80158" data-name="Grupo 80158" transform="translate(1663.075 630.855) rotate(-167)">
        <g id="Grupo_80119" data-name="Grupo 80119" transform="translate(1.477 1.478)">
          <g id="Grupo_80207" data-name="Grupo 80207" transform="translate(0)">
            <path id="Trazado_113525" data-name="Trazado 113525" d="M1230.624,433.952c-17.261,41.224-56.835,72.283-100.982,79.248-54.328,8.573-108.02-17.254-154.165-47.182s-90.448-65.366-143.513-79.826c-50.56-13.776-104.713-7.029-155.019,7.644s-97.995,37-147.19,55.055c-80.644,29.591-169.838,47.557-252.176,23.074s-153.5-101.779-147.242-187.451c2.613-35.77,17.792-69.207,31.238-102.456S187.13,113.464,183.16,77.819,154.649,6.42,119.231.775C90.824-3.754,62.052,12.09,44.3,34.722S18.034,85.8,12.052,113.938c-32.665,153.6,1.957,320.294,93.091,448.184" transform="translate(0)" fill="none" stroke="#4d342c" stroke-miterlimit="10" stroke-width="1.701"/>
          </g>
        </g>
        <g id="Grupo_80121" data-name="Grupo 80121" transform="translate(645.392 408.487)">
          <g id="Grupo_80120" data-name="Grupo 80120" transform="translate(0 0)" clip-path="url(#clip-path-2)">
            <path id="Trazado_113526" data-name="Trazado 113526" d="M.189,11.242,7.12,0A2.85,2.85,0,0,1,6.93.274L0,11.515a2.837,2.837,0,0,0,.189-.273" transform="translate(0.182 -0.002)" fill="#1d3237"/>
            <path id="Trazado_113527" data-name="Trazado 113527" d="M.182,11.242,7.113,0c-.057.075-.118.146-.182.215L0,11.457c.064-.069.125-.142.182-.215" transform="translate(0 0.271)" fill="#1e3439"/>
          </g>
        </g>
        <g id="Grupo_80123" data-name="Grupo 80123" transform="translate(627.64 395.753)">
          <g id="Grupo_80122" data-name="Grupo 80122" transform="translate(0 0)" clip-path="url(#clip-path-3)">
            <path id="Trazado_113529" data-name="Trazado 113529" d="M.188,11.242,7.118,0A2.9,2.9,0,0,1,6.93.271L0,11.513a3.179,3.179,0,0,0,.188-.271" transform="translate(0.182 -0.002)" fill="#1d3237"/>
            <path id="Trazado_113530" data-name="Trazado 113530" d="M.182,11.242,7.113,0A2.647,2.647,0,0,1,6.93.215L0,11.456q.1-.1.182-.214" transform="translate(0 0.271)" fill="#1e3439"/>
          </g>
        </g>
        <g id="Grupo_80125" data-name="Grupo 80125" transform="translate(655.163 397.965)">
          <g id="Grupo_80124" data-name="Grupo 80124" transform="translate(0 0)" clip-path="url(#clip-path-4)">
            <path id="Trazado_113532" data-name="Trazado 113532" d="M.189,11.242,7.12,0A2.872,2.872,0,0,1,6.93.274L0,11.515a3.2,3.2,0,0,0,.189-.273" transform="translate(0.184 -0.002)" fill="#1d3237"/>
            <path id="Trazado_113533" data-name="Trazado 113533" d="M.182,11.242,7.113,0c-.057.075-.118.146-.182.215L0,11.457c.064-.069.125-.142.182-.215" transform="translate(0.002 0.273)" fill="#1e3439"/>
          </g>
        </g>
        <g id="Grupo_80127" data-name="Grupo 80127" transform="translate(637.413 385.232)">
          <g id="Grupo_80126" data-name="Grupo 80126" transform="translate(0 0)" clip-path="url(#clip-path-5)">
            <path id="Trazado_113535" data-name="Trazado 113535" d="M.188,11.242,7.118,0A3.164,3.164,0,0,1,6.93.273L0,11.513a2.9,2.9,0,0,0,.188-.271" transform="translate(0.182 0)" fill="#1d3237"/>
            <path id="Trazado_113536" data-name="Trazado 113536" d="M.182,11.242,7.113,0c-.057.075-.118.146-.182.215L0,11.456q.1-.1.182-.214" transform="translate(0 0.271)" fill="#1e3439"/>
          </g>
        </g>
        <g id="Grupo_80129" data-name="Grupo 80129" transform="translate(0)">
          <g id="Grupo_80128" data-name="Grupo 80128" clip-path="url(#clip-path-6)">
            <path id="Trazado_113538" data-name="Trazado 113538" d="M7.408,0,.477,11.242c-1.356,2.2.255,5.8,3.845,8.373,3.919,2.811,8.632,3.353,10.6,1.233L21.853,9.606c-1.969,2.12-6.682,1.578-10.6-1.233C7.663,5.8,6.051,2.2,7.408,0" transform="translate(630.469 399.367)" fill="#1f4144"/>
          </g>
        </g>
        <g id="Grupo_80131" data-name="Grupo 80131" transform="translate(630.469 399.367)">
          <g id="Grupo_80130" data-name="Grupo 80130" transform="translate(0 0)" clip-path="url(#clip-path-7)">
            <path id="Trazado_113539" data-name="Trazado 113539" d="M.457,11.242,7.387,0A3.3,3.3,0,0,1,6.93.41L0,11.652a3.421,3.421,0,0,0,.457-.41" transform="translate(14.465 9.606)" fill="#1f4144"/>
            <path id="Trazado_113540" data-name="Trazado 113540" d="M.8,11.242,7.734,0a3.959,3.959,0,0,1-.8.458L0,11.7a3.957,3.957,0,0,0,.8-.458" transform="translate(13.661 10.016)" fill="#1f4144"/>
            <path id="Trazado_113541" data-name="Trazado 113541" d="M1.08,11.242,8.01,0A5.044,5.044,0,0,1,6.93.32L0,11.56a4.975,4.975,0,0,0,1.08-.318" transform="translate(12.582 10.474)" fill="#1f4144"/>
            <path id="Trazado_113542" data-name="Trazado 113542" d="M2.04,11.24,8.971,0A7.514,7.514,0,0,1,6.93.066L0,11.306a7.446,7.446,0,0,0,2.04-.066" transform="translate(10.542 10.794)" fill="#1f4144"/>
            <path id="Trazado_113543" data-name="Trazado 113543" d="M2.292,11.726,9.223.484A10.827,10.827,0,0,1,6.93,0L0,11.242a10.914,10.914,0,0,0,2.292.484" transform="translate(8.25 10.374)" fill="#1f4144"/>
            <path id="Trazado_113544" data-name="Trazado 113544" d="M2.31,12.23,9.24.988A13.669,13.669,0,0,1,6.93,0L0,11.24a13.619,13.619,0,0,0,2.31.99" transform="translate(5.94 9.386)" fill="#1f4144"/>
            <path id="Trazado_113545" data-name="Trazado 113545" d="M1.407,12.1,8.337.861A15.216,15.216,0,0,1,6.93,0L0,11.24a14.426,14.426,0,0,0,1.407.863" transform="translate(4.534 8.523)" fill="#1f4144"/>
            <path id="Trazado_113546" data-name="Trazado 113546" d="M1.148,12.121,8.078.879C8.009.83,7.937.781,7.866.729,7.538.495,7.226.25,6.932,0L0,11.24q.443.378.936.731c.071.05.141.1.212.149" transform="translate(3.386 7.644)" fill="#1f4144"/>
            <path id="Trazado_113547" data-name="Trazado 113547" d="M1.009,12.2,7.939.953A13.286,13.286,0,0,1,6.93,0L0,11.24a12.959,12.959,0,0,0,1.009.955" transform="translate(2.379 6.689)" fill="#1f4144"/>
            <path id="Trazado_113548" data-name="Trazado 113548" d="M.972,12.414,7.9,1.172A11.392,11.392,0,0,1,6.93,0L0,11.24a11.239,11.239,0,0,0,.972,1.174" transform="translate(1.406 5.515)" fill="#1f4144"/>
            <path id="Trazado_113549" data-name="Trazado 113549" d="M1.405,16.755l6.93-11.24C6.914,3.532,6.509,1.459,7.407,0L.477,11.24c-.9,1.459-.493,3.532.929,5.515" transform="translate(0.001 0)" fill="#1f4144"/>
          </g>
        </g>
        <g id="Grupo_80133" data-name="Grupo 80133" transform="translate(0)">
          <g id="Grupo_80132" data-name="Grupo 80132" clip-path="url(#clip-path-6)">
            <path id="Trazado_113551" data-name="Trazado 113551" d="M7.41,0,.48,11.242c-1.356,2.2.238,5.779,3.848,8.37C8.2,22.388,12.934,22.948,14.9,20.827l6.93-11.24c-1.969,2.119-6.7,1.559-10.575-1.217C7.648,5.781,6.055,2.2,7.41,0" transform="translate(612.737 386.65)" fill="#1f4144"/>
          </g>
        </g>
        <g id="Grupo_80135" data-name="Grupo 80135" transform="translate(612.737 386.652)">
          <g id="Grupo_80134" data-name="Grupo 80134" transform="translate(0 0)" clip-path="url(#clip-path-9)">
            <path id="Trazado_113552" data-name="Trazado 113552" d="M.455,11.242,7.385,0a3.378,3.378,0,0,1-.453.408L0,11.648a3.168,3.168,0,0,0,.455-.406" transform="translate(14.448 9.585)" fill="#1f4144"/>
            <path id="Trazado_113553" data-name="Trazado 113553" d="M.8,11.242,7.731,0a3.8,3.8,0,0,1-.8.457L0,11.7a3.88,3.88,0,0,0,.8-.457" transform="translate(13.648 9.992)" fill="#1f4144"/>
            <path id="Trazado_113554" data-name="Trazado 113554" d="M1.08,11.242,8.01,0A5.075,5.075,0,0,1,6.93.32L0,11.56a4.976,4.976,0,0,0,1.08-.318" transform="translate(12.568 10.448)" fill="#1f4144"/>
            <path id="Trazado_113555" data-name="Trazado 113555" d="M2.049,11.24,8.979,0A7.509,7.509,0,0,1,6.93.066L0,11.306a7.509,7.509,0,0,0,2.049-.066" transform="translate(10.518 10.768)" fill="#1f4144"/>
            <path id="Trazado_113556" data-name="Trazado 113556" d="M2.3,11.728,9.235.488A11.035,11.035,0,0,1,6.93,0L0,11.242a11.142,11.142,0,0,0,2.3.486" transform="translate(8.214 10.348)" fill="#1f4144"/>
            <path id="Trazado_113557" data-name="Trazado 113557" d="M2.3,12.225,9.228.983A13.683,13.683,0,0,1,6.93,0L0,11.24a13.632,13.632,0,0,0,2.3.985" transform="translate(5.917 9.363)" fill="#1f4144"/>
            <path id="Trazado_113558" data-name="Trazado 113558" d="M1.382,12.089,8.313.849A14.99,14.99,0,0,1,6.93,0L0,11.242a14.394,14.394,0,0,0,1.382.847" transform="translate(4.535 8.514)" fill="#1f4144"/>
            <path id="Trazado_113559" data-name="Trazado 113559" d="M1.151,12.126,8.082.884c-.069-.047-.139-.1-.207-.146C7.543.5,7.227.254,6.93,0L0,11.242c.3.254.613.5.945.738l.207.146" transform="translate(3.383 7.63)" fill="#1f4144"/>
            <path id="Trazado_113560" data-name="Trazado 113560" d="M1.012,12.2,7.943.957A13.047,13.047,0,0,1,6.93,0L0,11.24a12.758,12.758,0,0,0,1.012.959" transform="translate(2.371 6.673)" fill="#1f4144"/>
            <path id="Trazado_113561" data-name="Trazado 113561" d="M.972,12.412,7.9,1.17A10.966,10.966,0,0,1,6.932,0L0,11.24a11.408,11.408,0,0,0,.972,1.172" transform="translate(1.398 5.503)" fill="#1f4144"/>
            <path id="Trazado_113562" data-name="Trazado 113562" d="M1.4,16.745,8.329,5.5C6.909,3.523,6.511,1.457,7.411,0L.479,11.242c-.9,1.457-.5,3.522.92,5.5" transform="translate(-0.001 -0.002)" fill="#1f4144"/>
          </g>
        </g>
        <g id="Grupo_80137" data-name="Grupo 80137" transform="translate(0)">
          <g id="Grupo_80136" data-name="Grupo 80136" clip-path="url(#clip-path-6)">
            <path id="Trazado_113564" data-name="Trazado 113564" d="M7.41,0,.48,11.24c-1.358,2.2.245,5.812,3.834,8.387,3.917,2.811,8.642,3.339,10.612,1.221l6.93-11.242c-1.969,2.12-6.694,1.591-10.612-1.221C7.655,5.81,6.054,2.2,7.41,0" transform="translate(640.24 388.847)" fill="#1f4144"/>
          </g>
        </g>
        <g id="Grupo_80139" data-name="Grupo 80139" transform="translate(640.24 388.847)">
          <g id="Grupo_80138" data-name="Grupo 80138" transform="translate(0 0)" clip-path="url(#clip-path-11)">
            <path id="Trazado_113565" data-name="Trazado 113565" d="M.458,11.242,7.389,0a3.435,3.435,0,0,1-.457.412L0,11.652a3.33,3.33,0,0,0,.458-.41" transform="translate(14.466 9.606)" fill="#1f4144"/>
            <path id="Trazado_113566" data-name="Trazado 113566" d="M.807,11.242,7.738,0a3.846,3.846,0,0,1-.806.46L0,11.7a3.94,3.94,0,0,0,.807-.46" transform="translate(13.659 10.016)" fill="#1f4144"/>
            <path id="Trazado_113567" data-name="Trazado 113567" d="M1.085,11.242,8.016,0A5.026,5.026,0,0,1,6.93.321L0,11.561a5.124,5.124,0,0,0,1.085-.32" transform="translate(12.575 10.476)" fill="#1f4144"/>
            <path id="Trazado_113568" data-name="Trazado 113568" d="M2.051,11.24,8.981,0A7.522,7.522,0,0,1,6.93.066L0,11.308a7.519,7.519,0,0,0,2.051-.068" transform="translate(10.523 10.797)" fill="#1f4144"/>
            <path id="Trazado_113569" data-name="Trazado 113569" d="M2.3,11.726,9.231.484A11.014,11.014,0,0,1,6.93,0L0,11.24a10.91,10.91,0,0,0,2.3.486" transform="translate(8.222 10.379)" fill="#1f4144"/>
            <path id="Trazado_113570" data-name="Trazado 113570" d="M2.3,12.228,9.233.986A13.534,13.534,0,0,1,6.93,0L0,11.242a13.672,13.672,0,0,0,2.3.986" transform="translate(5.921 9.391)" fill="#1f4144"/>
            <path id="Trazado_113571" data-name="Trazado 113571" d="M1.4,12.1,8.328.856A14.8,14.8,0,0,1,6.93,0L0,11.24a14.821,14.821,0,0,0,1.4.858" transform="translate(4.523 8.535)" fill="#1f4144"/>
            <path id="Trazado_113572" data-name="Trazado 113572" d="M1.139,12.115,8.069.875C8,.827,7.929.776,7.859.726Q7.37.374,6.93,0L0,11.242c.293.248.6.491.929.726.069.05.141.1.21.148" transform="translate(3.384 7.66)" fill="#1f4144"/>
            <path id="Trazado_113573" data-name="Trazado 113573" d="M1,12.192,7.934.95a12.823,12.823,0,0,1-1-.95L0,11.242a12.823,12.823,0,0,0,1,.95" transform="translate(2.38 6.71)" fill="#1f4144"/>
            <path id="Trazado_113574" data-name="Trazado 113574" d="M.971,12.411,7.9,1.17A11.568,11.568,0,0,1,6.93,0L0,11.24a11.16,11.16,0,0,0,.971,1.17" transform="translate(1.41 5.539)" fill="#1f4144"/>
            <path id="Trazado_113575" data-name="Trazado 113575" d="M1.41,16.781,8.341,5.539C6.913,3.549,6.509,1.464,7.41,0L.48,11.242c-.9,1.462-.5,3.549.931,5.539" transform="translate(-0.001 0)" fill="#1f4144"/>
          </g>
        </g>
        <g id="Grupo_80141" data-name="Grupo 80141" transform="translate(0)">
          <g id="Grupo_80140" data-name="Grupo 80140" clip-path="url(#clip-path-6)">
            <path id="Trazado_113577" data-name="Trazado 113577" d="M7.412,0,.481,11.242c-1.356,2.2.226,5.791,3.836,8.382,3.871,2.777,8.618,3.324,10.587,1.2L21.837,9.585c-1.969,2.12-6.718,1.575-10.589-1.2C7.637,5.793,6.055,2.2,7.412,0" transform="translate(622.508 376.131)" fill="#1f4144"/>
          </g>
        </g>
        <g id="Grupo_80143" data-name="Grupo 80143" transform="translate(622.509 376.133)">
          <g id="Grupo_80142" data-name="Grupo 80142" transform="translate(0 0)" clip-path="url(#clip-path-13)">
            <path id="Trazado_113578" data-name="Trazado 113578" d="M.455,11.242,7.385,0A3.4,3.4,0,0,1,6.93.408L0,11.65a3.4,3.4,0,0,0,.455-.408" transform="translate(14.449 9.584)" fill="#1f4144"/>
            <path id="Trazado_113579" data-name="Trazado 113579" d="M.806,11.242,7.736,0A3.883,3.883,0,0,1,6.93.458L0,11.7a3.927,3.927,0,0,0,.806-.458" transform="translate(13.645 9.992)" fill="#1f4144"/>
            <path id="Trazado_113580" data-name="Trazado 113580" d="M1.087,11.242,8.017,0A5.014,5.014,0,0,1,6.93.321L0,11.561a5.04,5.04,0,0,0,1.087-.32" transform="translate(12.558 10.45)" fill="#1f4144"/>
            <path id="Trazado_113581" data-name="Trazado 113581" d="M2.06,11.24,8.99,0A7.587,7.587,0,0,1,6.93.066L0,11.308a7.516,7.516,0,0,0,2.06-.068" transform="translate(10.501 10.771)" fill="#1f4144"/>
            <path id="Trazado_113582" data-name="Trazado 113582" d="M2.311,11.73,9.242.49A11.079,11.079,0,0,1,6.93,0L0,11.242a11.074,11.074,0,0,0,2.311.488" transform="translate(8.188 10.349)" fill="#1f4144"/>
            <path id="Trazado_113583" data-name="Trazado 113583" d="M2.29,12.221,9.221.979A13.6,13.6,0,0,1,6.93,0L0,11.24a13.55,13.55,0,0,0,2.29.981" transform="translate(5.897 9.37)" fill="#1f4144"/>
            <path id="Trazado_113584" data-name="Trazado 113584" d="M1.374,12.084,8.3.842A14.23,14.23,0,0,1,6.93,0L0,11.242a14.238,14.238,0,0,0,1.374.842" transform="translate(4.524 8.526)" fill="#1f4144"/>
            <path id="Trazado_113585" data-name="Trazado 113585" d="M1.143,12.119,8.073.877C8,.83,7.936.781,7.868.733Q7.373.379,6.93,0L0,11.242c.293.25.608.495.938.733.068.049.135.1.2.144" transform="translate(3.379 7.649)" fill="#1f4144"/>
            <path id="Trazado_113586" data-name="Trazado 113586" d="M1.007,12.2,7.937.953A12.933,12.933,0,0,1,6.93,0L0,11.242a12.942,12.942,0,0,0,1.007.953" transform="translate(2.372 6.694)" fill="#1f4144"/>
            <path id="Trazado_113587" data-name="Trazado 113587" d="M.969,12.409,7.9,1.167A11.311,11.311,0,0,1,6.93,0L0,11.24a11.143,11.143,0,0,0,.969,1.169" transform="translate(1.403 5.527)" fill="#1f4144"/>
            <path id="Trazado_113588" data-name="Trazado 113588" d="M1.4,16.769,8.334,5.527C6.906,3.539,6.51,1.462,7.412,0L.481,11.242c-.9,1.46-.505,3.537.922,5.527" transform="translate(0 -0.002)" fill="#1f4144"/>
          </g>
        </g>
        <g id="Grupo_80145" data-name="Grupo 80145" transform="translate(0)">
          <g id="Grupo_80144" data-name="Grupo 80144" clip-path="url(#clip-path-6)">
            <path id="Trazado_113590" data-name="Trazado 113590" d="M78.814,70.7l6.93-11.242c7.383-11.973-1.328-31.666-21.006-45.784C43.523-1.547,17.634-4.5,6.93,7.026L0,18.268C10.7,6.744,36.591,9.693,57.808,24.915,77.485,39.034,86.2,58.726,78.814,70.7" transform="translate(595.979 357.719)" fill="#1f4144"/>
          </g>
        </g>
        <g id="Grupo_80147" data-name="Grupo 80147" transform="translate(595.979 357.719)">
          <g id="Grupo_80146" data-name="Grupo 80146" transform="translate(0 0)" clip-path="url(#clip-path-15)">
            <path id="Trazado_113591" data-name="Trazado 113591" d="M5.09,41.425l6.93-11.242C16.924,22.23,14.727,10.87,6.93,0L0,11.24c7.8,10.87,9.993,22.23,5.09,30.185" transform="translate(73.724 29.275)" fill="#1f4144"/>
            <path id="Trazado_113592" data-name="Trazado 113592" d="M5.308,17.643,12.239,6.4A61.171,61.171,0,0,0,6.93,0L0,11.24a61.4,61.4,0,0,1,5.308,6.4" transform="translate(68.416 22.873)" fill="#1f4144"/>
            <path id="Trazado_113593" data-name="Trazado 113593" d="M5.5,16.45l6.93-11.242A71.005,71.005,0,0,0,6.93,0L0,11.24A71,71,0,0,1,5.5,16.45" transform="translate(62.913 17.665)" fill="#1f4144"/>
            <path id="Trazado_113594" data-name="Trazado 113594" d="M6.234,16.028l6.93-11.242Q10.752,2.733,8.061.8,7.5.393,6.93,0L0,11.242c.379.26.754.526,1.13.8q2.691,1.93,5.1,3.99" transform="translate(56.679 12.878)" fill="#1f4144"/>
            <path id="Trazado_113595" data-name="Trazado 113595" d="M7.547,15.866l6.93-11.24A79.481,79.481,0,0,0,6.932,0L0,11.24a79.872,79.872,0,0,1,7.547,4.626" transform="translate(49.132 8.253)" fill="#1f4144"/>
            <path id="Trazado_113596" data-name="Trazado 113596" d="M12.539,16.609l6.93-11.242A74.734,74.734,0,0,0,6.932,0L0,11.24a74.558,74.558,0,0,1,12.539,5.369" transform="translate(36.593 2.884)" fill="#1f4144"/>
            <path id="Trazado_113597" data-name="Trazado 113597" d="M12.616,13.907l6.93-11.242A60.248,60.248,0,0,0,6.932,0L0,11.242a60.132,60.132,0,0,1,12.616,2.665" transform="translate(23.977 0.217)" fill="#1f4144"/>
            <path id="Trazado_113598" data-name="Trazado 113598" d="M11.228,11.46,18.158.218A41.131,41.131,0,0,0,6.93.582L0,11.824a41.129,41.129,0,0,1,11.228-.365" transform="translate(12.751 -0.001)" fill="#1f4144"/>
            <path id="Trazado_113599" data-name="Trazado 113599" d="M5.913,11.242,12.843,0A27.817,27.817,0,0,0,6.93,1.743L0,12.984a27.712,27.712,0,0,1,5.913-1.742" transform="translate(6.838 0.582)" fill="#1f4144"/>
            <path id="Trazado_113600" data-name="Trazado 113600" d="M4.369,11.24,11.3,0A21.116,21.116,0,0,0,6.93,2.49L0,13.73a21.194,21.194,0,0,1,4.369-2.49" transform="translate(2.468 2.325)" fill="#1f4144"/>
            <path id="Trazado_113601" data-name="Trazado 113601" d="M2.468,11.24,9.4,0A18.222,18.222,0,0,0,6.93,2.209L0,13.451A18.348,18.348,0,0,1,2.468,11.24" transform="translate(0.002 4.815)" fill="#1f4144"/>
          </g>
        </g>
        <g id="Grupo_80149" data-name="Grupo 80149" transform="translate(0)">
          <g id="Grupo_80148" data-name="Grupo 80148" clip-path="url(#clip-path-6)">
            <path id="Trazado_113603" data-name="Trazado 113603" d="M4.643,7.026C-6.085,18.573,2.407,40.248,23.623,55.47s47.079,18.2,57.807,6.647C92.134,50.6,83.666,28.9,62.451,13.673S15.347-4.5,4.643,7.026m66.275,47.55c-7.793,8.387-26.594,6.211-41.98-4.827S7.387,22.974,15.18,14.585,41.738,8.37,57.123,19.409,78.7,46.2,70.918,54.576" transform="translate(591.335 368.961)" fill="#598583"/>
            <path id="Trazado_113604" data-name="Trazado 113604" d="M3.374,5.1c-7.793,8.389-1.627,24.123,13.758,35.164S51.32,53.481,59.112,45.094,60.7,20.965,45.317,9.927,11.154-3.272,3.374,5.1m48.649,26.15c-1.969,2.12-6.694,1.591-10.612-1.221-3.871-2.777-5.43-6.757-3.461-8.875s6.718-1.575,10.587,1.2c3.919,2.811,5.442,6.788,3.485,8.894M34.272,18.515c-1.969,2.12-6.717,1.575-10.587-1.2-3.895-2.8-5.43-6.757-3.461-8.877s6.694-1.591,10.589,1.2c3.871,2.777,5.416,6.769,3.459,8.875m7.979,23.258c-1.969,2.119-6.682,1.577-10.6-1.235-3.871-2.777-5.44-6.743-3.471-8.863s6.717-1.573,10.587,1.2c3.918,2.811,5.442,6.786,3.485,8.894M24.5,29.037c-1.969,2.12-6.706,1.561-10.575-1.216-3.9-2.794-5.442-6.745-3.473-8.863s6.694-1.592,10.587,1.2c3.871,2.777,5.418,6.769,3.461,8.875" transform="translate(603.141 378.443)" fill="#355d65"/>
            <path id="Trazado_113605" data-name="Trazado 113605" d="M0,20.928S40.851,4.826,55.642,0" transform="translate(598.457 403.018)" fill="none" stroke="#4d342c" stroke-miterlimit="10" stroke-width="1.701"/>
          </g>
        </g>
      </g>
      <g id="Grupo_80253" data-name="Grupo 80253" transform="translate(-156 82)">
        <ellipse id="Elipse_4722" data-name="Elipse 4722" cx="165" cy="165" rx="165" ry="165" transform="translate(0)" fill="#0ce6ea"/>
        <g id="Grupo_80253-2" data-name="Grupo 80253" transform="translate(72.565 53.228)">
          <g id="Grupo_80251" data-name="Grupo 80251" transform="translate(0 0)" clip-path="url(#clip-path-17)">
            <rect id="Rectángulo_33802" data-name="Rectángulo 33802" width="245.229" height="1.354" transform="translate(117.463 247.155) rotate(-135)" fill="#1448d3"/>
            <rect id="Rectángulo_33803" data-name="Rectángulo 33803" width="245.229" height="1.354" transform="translate(127.367 237.252) rotate(-135)" fill="#1448d3"/>
            <rect id="Rectángulo_33804" data-name="Rectángulo 33804" width="245.229" height="1.354" transform="translate(137.268 227.351) rotate(-135)" fill="#1448d3"/>
            <rect id="Rectángulo_33805" data-name="Rectángulo 33805" width="245.229" height="1.354" transform="translate(147.171 217.447) rotate(-135)" fill="#1448d3"/>
            <rect id="Rectángulo_33806" data-name="Rectángulo 33806" width="245.229" height="1.354" transform="translate(157.073 207.546) rotate(-135)" fill="#1448d3"/>
            <path id="Trazado_113843" data-name="Trazado 113843" d="M39.918,40.876l173.4,173.4.957-.959-173.4-173.4Z" transform="translate(-46.345 -16.637)" fill="#1448d3"/>
            <rect id="Rectángulo_33807" data-name="Rectángulo 33807" width="245.229" height="1.354" transform="translate(176.879 187.739) rotate(-135)" fill="#1448d3"/>
            <rect id="Rectángulo_33808" data-name="Rectángulo 33808" width="245.229" height="1.354" transform="translate(186.781 177.838) rotate(-135)" fill="#1448d3"/>
            <rect id="Rectángulo_33809" data-name="Rectángulo 33809" width="245.229" height="1.354" transform="translate(196.684 167.935) rotate(-135)" fill="#1448d3"/>
            <rect id="Rectángulo_33810" data-name="Rectángulo 33810" width="245.229" height="1.354" transform="translate(206.588 158.031) rotate(-135)" fill="#1448d3"/>
            <rect id="Rectángulo_33811" data-name="Rectángulo 33811" width="245.229" height="1.354" transform="translate(216.489 148.13) rotate(-135)" fill="#1448d3"/>
            <rect id="Rectángulo_33812" data-name="Rectángulo 33812" width="245.229" height="1.354" transform="translate(226.392 138.227) rotate(-135)" fill="#1448d3"/>
            <rect id="Rectángulo_33813" data-name="Rectángulo 33813" width="245.229" height="1.354" transform="translate(236.294 128.325) rotate(-135)" fill="#1448d3"/>
            <rect id="Rectángulo_33814" data-name="Rectángulo 33814" width="245.229" height="1.354" transform="translate(246.197 118.422) rotate(-135)" fill="#1448d3"/>
          </g>
        </g>
      </g>
      <g id="Grupo_80254" data-name="Grupo 80254" transform="translate(494.133 177.943) rotate(172)">
        <g id="Grupo_80160" data-name="Grupo 80160" transform="translate(0)" clip-path="url(#clip-path-18)">
          <path id="Trazado_113607" data-name="Trazado 113607" d="M249.906,34.926a.682.682,0,0,1-.271-.043L109.849,16l-29.456-3.99-8.4-1.129L43.832,7.071,39.9,6.55c-.045.03-.061-.034-.123-.069l-2.693-.372-.045.03L5.434,1.865.482,1.2A.571.571,0,0,1,0,.547.566.566,0,0,1,.588,0L3.4.219l36.037,3.1,31.3,2.672L82.81,7.06l28.744,2.434L250.967,21.47c3.353.305,5.845,3.528,5.559,7.265a6.473,6.473,0,0,1-6.62,6.192m2-6.552c.307-2.845-7.157-3.776-8.014-3.878s-13.18-1.118-13.486,1.728c-.263,2.817,12.064,4.056,12.921,4.157.814.132,8.316.809,8.58-2.008" transform="translate(0.001 27.946)" fill="#4f5251"/>
          <path id="Trazado_113608" data-name="Trazado 113608" d="M0,57.138C.592,35.911,11.018,9.771,32.489,2.6S78.965,3.624,94.127,20.43s20.889,40.913,17.734,63.326c-1.548,11-5.23,21.967-12.364,30.481s-18.09,14.26-29.16,13.352c-18.66-1.53-31.827-23.264-26.663-41.26S69,56.912,87.576,59.243s34.431,16.58,41.411,33.952c7.823,19.466,5.576,41.56,11.293,61.743a81.25,81.25,0,0,0,33.849,45.7c9.049,5.824,19.6,9.859,30.351,9.413,12.233-.509,23.534-6.707,33.3-14.091,33.181-25.092,53.564-66.292,53.377-107.893" transform="translate(244.13 1.272)" fill="none" stroke="#1448d3" stroke-miterlimit="10" stroke-width="1.701"/>
        </g>
      </g>
      <g id="Grupo_80255" data-name="Grupo 80255" transform="translate(1477.788 101.999)">
        <g id="Grupo_80252" data-name="Grupo 80252" transform="translate(0 0)" clip-path="url(#clip-path-19)">
          <path id="Trazado_113845" data-name="Trazado 113845" d="M0,2.947A2.948,2.948,0,1,1,2.947,5.894,2.947,2.947,0,0,1,0,2.947" transform="translate(218.107 -0.003)" fill="#1448d3"/>
          <path id="Trazado_113846" data-name="Trazado 113846" d="M10.076,2.947a2.947,2.947,0,1,1,2.947,2.947,2.947,2.947,0,0,1-2.947-2.947" transform="translate(180.768 -0.003)" fill="#1448d3"/>
          <path id="Trazado_113847" data-name="Trazado 113847" d="M20.151,2.947A2.947,2.947,0,1,1,23.1,5.894a2.947,2.947,0,0,1-2.947-2.947" transform="translate(143.429 -0.003)" fill="#1448d3"/>
          <path id="Trazado_113848" data-name="Trazado 113848" d="M30.225,2.947a2.948,2.948,0,1,1,2.947,2.947,2.947,2.947,0,0,1-2.947-2.947" transform="translate(106.092 -0.003)" fill="#1448d3"/>
          <path id="Trazado_113849" data-name="Trazado 113849" d="M40.3,2.947a2.947,2.947,0,1,1,2.947,2.947A2.947,2.947,0,0,1,40.3,2.947" transform="translate(68.753 -0.003)" fill="#1448d3"/>
          <path id="Trazado_113850" data-name="Trazado 113850" d="M50.376,2.947a2.947,2.947,0,1,1,2.947,2.947,2.947,2.947,0,0,1-2.947-2.947" transform="translate(31.414 -0.003)" fill="#1448d3"/>
          <path id="Trazado_113851" data-name="Trazado 113851" d="M60.45,2.947A2.948,2.948,0,1,1,63.4,5.894,2.947,2.947,0,0,1,60.45,2.947" transform="translate(-5.923 -0.003)" fill="#1448d3"/>
          <path id="Trazado_113852" data-name="Trazado 113852" d="M70.526,2.947a2.947,2.947,0,1,1,2.947,2.947,2.947,2.947,0,0,1-2.947-2.947" transform="translate(-43.263 -0.003)" fill="#1448d3"/>
          <path id="Trazado_113853" data-name="Trazado 113853" d="M80.6,2.947a2.948,2.948,0,1,1,2.947,2.947A2.947,2.947,0,0,1,80.6,2.947" transform="translate(-80.6 -0.003)" fill="#1448d3"/>
          <path id="Trazado_113854" data-name="Trazado 113854" d="M0,13.022a2.948,2.948,0,1,1,2.947,2.947A2.947,2.947,0,0,1,0,13.022" transform="translate(218.107 17.186)" fill="#1448d3"/>
          <path id="Trazado_113855" data-name="Trazado 113855" d="M10.076,13.022a2.947,2.947,0,1,1,2.947,2.947,2.947,2.947,0,0,1-2.947-2.947" transform="translate(180.768 17.186)" fill="#1448d3"/>
          <path id="Trazado_113856" data-name="Trazado 113856" d="M20.151,13.022A2.947,2.947,0,1,1,23.1,15.969a2.947,2.947,0,0,1-2.947-2.947" transform="translate(143.429 17.186)" fill="#1448d3"/>
          <path id="Trazado_113857" data-name="Trazado 113857" d="M30.225,13.022a2.948,2.948,0,1,1,2.947,2.947,2.947,2.947,0,0,1-2.947-2.947" transform="translate(106.092 17.186)" fill="#1448d3"/>
          <path id="Trazado_113858" data-name="Trazado 113858" d="M40.3,13.022a2.947,2.947,0,1,1,2.947,2.947A2.947,2.947,0,0,1,40.3,13.022" transform="translate(68.753 17.186)" fill="#1448d3"/>
          <path id="Trazado_113859" data-name="Trazado 113859" d="M50.376,13.022a2.947,2.947,0,1,1,2.947,2.947,2.947,2.947,0,0,1-2.947-2.947" transform="translate(31.414 17.186)" fill="#1448d3"/>
          <path id="Trazado_113860" data-name="Trazado 113860" d="M60.45,13.022A2.948,2.948,0,1,1,63.4,15.969a2.947,2.947,0,0,1-2.947-2.947" transform="translate(-5.923 17.186)" fill="#1448d3"/>
          <path id="Trazado_113861" data-name="Trazado 113861" d="M70.526,13.022a2.947,2.947,0,1,1,2.947,2.947,2.947,2.947,0,0,1-2.947-2.947" transform="translate(-43.263 17.186)" fill="#1448d3"/>
          <path id="Trazado_113862" data-name="Trazado 113862" d="M80.6,13.022a2.948,2.948,0,1,1,2.947,2.947A2.947,2.947,0,0,1,80.6,13.022" transform="translate(-80.6 17.186)" fill="#1448d3"/>
          <path id="Trazado_113863" data-name="Trazado 113863" d="M0,23.1a2.948,2.948,0,1,1,2.947,2.947A2.947,2.947,0,0,1,0,23.1" transform="translate(218.107 34.374)" fill="#1448d3"/>
          <path id="Trazado_113864" data-name="Trazado 113864" d="M10.076,23.1a2.947,2.947,0,1,1,2.947,2.947A2.947,2.947,0,0,1,10.076,23.1" transform="translate(180.768 34.374)" fill="#1448d3"/>
          <path id="Trazado_113865" data-name="Trazado 113865" d="M20.151,23.1A2.947,2.947,0,1,1,23.1,26.044,2.947,2.947,0,0,1,20.151,23.1" transform="translate(143.429 34.374)" fill="#1448d3"/>
          <path id="Trazado_113866" data-name="Trazado 113866" d="M30.225,23.1a2.948,2.948,0,1,1,2.947,2.947A2.947,2.947,0,0,1,30.225,23.1" transform="translate(106.092 34.374)" fill="#1448d3"/>
          <path id="Trazado_113867" data-name="Trazado 113867" d="M40.3,23.1a2.947,2.947,0,1,1,2.947,2.947A2.947,2.947,0,0,1,40.3,23.1" transform="translate(68.753 34.374)" fill="#1448d3"/>
          <path id="Trazado_113868" data-name="Trazado 113868" d="M50.376,23.1a2.947,2.947,0,1,1,2.947,2.947A2.947,2.947,0,0,1,50.376,23.1" transform="translate(31.414 34.374)" fill="#1448d3"/>
          <path id="Trazado_113869" data-name="Trazado 113869" d="M60.45,23.1A2.948,2.948,0,1,1,63.4,26.044,2.947,2.947,0,0,1,60.45,23.1" transform="translate(-5.923 34.374)" fill="#1448d3"/>
          <path id="Trazado_113870" data-name="Trazado 113870" d="M70.526,23.1a2.947,2.947,0,1,1,2.947,2.947A2.947,2.947,0,0,1,70.526,23.1" transform="translate(-43.263 34.374)" fill="#1448d3"/>
          <path id="Trazado_113871" data-name="Trazado 113871" d="M80.6,23.1a2.948,2.948,0,1,1,2.947,2.947A2.947,2.947,0,0,1,80.6,23.1" transform="translate(-80.6 34.374)" fill="#1448d3"/>
          <path id="Trazado_113872" data-name="Trazado 113872" d="M0,33.172a2.948,2.948,0,1,1,2.947,2.947A2.947,2.947,0,0,1,0,33.172" transform="translate(218.107 51.562)" fill="#1448d3"/>
          <path id="Trazado_113873" data-name="Trazado 113873" d="M10.076,33.172a2.947,2.947,0,1,1,2.947,2.947,2.947,2.947,0,0,1-2.947-2.947" transform="translate(180.768 51.562)" fill="#1448d3"/>
          <path id="Trazado_113874" data-name="Trazado 113874" d="M20.151,33.172A2.947,2.947,0,1,1,23.1,36.119a2.947,2.947,0,0,1-2.947-2.947" transform="translate(143.429 51.562)" fill="#1448d3"/>
          <path id="Trazado_113875" data-name="Trazado 113875" d="M30.225,33.172a2.948,2.948,0,1,1,2.947,2.947,2.947,2.947,0,0,1-2.947-2.947" transform="translate(106.092 51.562)" fill="#1448d3"/>
          <path id="Trazado_113876" data-name="Trazado 113876" d="M40.3,33.172a2.947,2.947,0,1,1,2.947,2.947A2.947,2.947,0,0,1,40.3,33.172" transform="translate(68.753 51.562)" fill="#1448d3"/>
          <path id="Trazado_113877" data-name="Trazado 113877" d="M50.376,33.172a2.947,2.947,0,1,1,2.947,2.947,2.947,2.947,0,0,1-2.947-2.947" transform="translate(31.414 51.562)" fill="#1448d3"/>
          <path id="Trazado_113878" data-name="Trazado 113878" d="M60.45,33.172A2.948,2.948,0,1,1,63.4,36.119a2.947,2.947,0,0,1-2.947-2.947" transform="translate(-5.923 51.562)" fill="#1448d3"/>
          <path id="Trazado_113879" data-name="Trazado 113879" d="M70.526,33.172a2.947,2.947,0,1,1,2.947,2.947,2.947,2.947,0,0,1-2.947-2.947" transform="translate(-43.263 51.562)" fill="#1448d3"/>
          <path id="Trazado_113880" data-name="Trazado 113880" d="M80.6,33.172a2.948,2.948,0,1,1,2.947,2.947A2.947,2.947,0,0,1,80.6,33.172" transform="translate(-80.6 51.562)" fill="#1448d3"/>
          <path id="Trazado_113881" data-name="Trazado 113881" d="M0,43.247a2.948,2.948,0,1,1,2.947,2.947A2.947,2.947,0,0,1,0,43.247" transform="translate(218.107 68.751)" fill="#1448d3"/>
          <path id="Trazado_113882" data-name="Trazado 113882" d="M10.076,43.247a2.947,2.947,0,1,1,2.947,2.947,2.947,2.947,0,0,1-2.947-2.947" transform="translate(180.768 68.751)" fill="#1448d3"/>
          <path id="Trazado_113883" data-name="Trazado 113883" d="M20.151,43.247A2.947,2.947,0,1,1,23.1,46.194a2.947,2.947,0,0,1-2.947-2.947" transform="translate(143.429 68.751)" fill="#1448d3"/>
          <path id="Trazado_113884" data-name="Trazado 113884" d="M30.225,43.247a2.948,2.948,0,1,1,2.947,2.947,2.947,2.947,0,0,1-2.947-2.947" transform="translate(106.092 68.751)" fill="#1448d3"/>
          <path id="Trazado_113885" data-name="Trazado 113885" d="M40.3,43.247a2.947,2.947,0,1,1,2.947,2.947A2.947,2.947,0,0,1,40.3,43.247" transform="translate(68.753 68.751)" fill="#1448d3"/>
          <path id="Trazado_113886" data-name="Trazado 113886" d="M50.376,43.247a2.947,2.947,0,1,1,2.947,2.947,2.947,2.947,0,0,1-2.947-2.947" transform="translate(31.414 68.751)" fill="#1448d3"/>
          <path id="Trazado_113887" data-name="Trazado 113887" d="M60.45,43.247A2.948,2.948,0,1,1,63.4,46.194a2.947,2.947,0,0,1-2.947-2.947" transform="translate(-5.923 68.751)" fill="#1448d3"/>
          <path id="Trazado_113888" data-name="Trazado 113888" d="M70.526,43.247a2.947,2.947,0,1,1,2.947,2.947,2.947,2.947,0,0,1-2.947-2.947" transform="translate(-43.263 68.751)" fill="#1448d3"/>
          <path id="Trazado_113889" data-name="Trazado 113889" d="M80.6,43.247a2.948,2.948,0,1,1,2.947,2.947A2.947,2.947,0,0,1,80.6,43.247" transform="translate(-80.6 68.751)" fill="#1448d3"/>
          <path id="Trazado_113890" data-name="Trazado 113890" d="M0,53.322a2.948,2.948,0,1,1,2.947,2.947A2.947,2.947,0,0,1,0,53.322" transform="translate(218.107 85.939)" fill="#1448d3"/>
          <path id="Trazado_113891" data-name="Trazado 113891" d="M10.076,53.322a2.947,2.947,0,1,1,2.947,2.947,2.947,2.947,0,0,1-2.947-2.947" transform="translate(180.768 85.939)" fill="#1448d3"/>
          <path id="Trazado_113892" data-name="Trazado 113892" d="M20.151,53.322A2.947,2.947,0,1,1,23.1,56.269a2.947,2.947,0,0,1-2.947-2.947" transform="translate(143.429 85.939)" fill="#1448d3"/>
          <path id="Trazado_113893" data-name="Trazado 113893" d="M30.225,53.322a2.948,2.948,0,1,1,2.947,2.947,2.947,2.947,0,0,1-2.947-2.947" transform="translate(106.092 85.939)" fill="#1448d3"/>
          <path id="Trazado_113894" data-name="Trazado 113894" d="M40.3,53.322a2.947,2.947,0,1,1,2.947,2.947A2.947,2.947,0,0,1,40.3,53.322" transform="translate(68.753 85.939)" fill="#1448d3"/>
          <path id="Trazado_113895" data-name="Trazado 113895" d="M50.376,53.322a2.947,2.947,0,1,1,2.947,2.947,2.947,2.947,0,0,1-2.947-2.947" transform="translate(31.414 85.939)" fill="#1448d3"/>
          <path id="Trazado_113896" data-name="Trazado 113896" d="M60.45,53.322A2.948,2.948,0,1,1,63.4,56.269a2.947,2.947,0,0,1-2.947-2.947" transform="translate(-5.923 85.939)" fill="#1448d3"/>
          <path id="Trazado_113897" data-name="Trazado 113897" d="M70.526,53.322a2.947,2.947,0,1,1,2.947,2.947,2.947,2.947,0,0,1-2.947-2.947" transform="translate(-43.263 85.939)" fill="#1448d3"/>
          <path id="Trazado_113898" data-name="Trazado 113898" d="M80.6,53.322a2.948,2.948,0,1,1,2.947,2.947A2.947,2.947,0,0,1,80.6,53.322" transform="translate(-80.6 85.939)" fill="#1448d3"/>
          <path id="Trazado_113899" data-name="Trazado 113899" d="M0,63.4a2.948,2.948,0,1,1,2.947,2.947A2.947,2.947,0,0,1,0,63.4" transform="translate(218.107 103.128)" fill="#1448d3"/>
          <path id="Trazado_113900" data-name="Trazado 113900" d="M10.076,63.4a2.947,2.947,0,1,1,2.947,2.947A2.947,2.947,0,0,1,10.076,63.4" transform="translate(180.768 103.128)" fill="#1448d3"/>
          <path id="Trazado_113901" data-name="Trazado 113901" d="M20.151,63.4A2.947,2.947,0,1,1,23.1,66.344,2.947,2.947,0,0,1,20.151,63.4" transform="translate(143.429 103.128)" fill="#1448d3"/>
          <path id="Trazado_113902" data-name="Trazado 113902" d="M30.225,63.4a2.948,2.948,0,1,1,2.947,2.947A2.947,2.947,0,0,1,30.225,63.4" transform="translate(106.092 103.128)" fill="#1448d3"/>
          <path id="Trazado_113903" data-name="Trazado 113903" d="M40.3,63.4a2.947,2.947,0,1,1,2.947,2.947A2.947,2.947,0,0,1,40.3,63.4" transform="translate(68.753 103.128)" fill="#1448d3"/>
          <path id="Trazado_113904" data-name="Trazado 113904" d="M50.376,63.4a2.947,2.947,0,1,1,2.947,2.947A2.947,2.947,0,0,1,50.376,63.4" transform="translate(31.414 103.128)" fill="#1448d3"/>
          <path id="Trazado_113905" data-name="Trazado 113905" d="M60.45,63.4A2.948,2.948,0,1,1,63.4,66.344,2.947,2.947,0,0,1,60.45,63.4" transform="translate(-5.923 103.128)" fill="#1448d3"/>
          <path id="Trazado_113906" data-name="Trazado 113906" d="M70.526,63.4a2.947,2.947,0,1,1,2.947,2.947A2.947,2.947,0,0,1,70.526,63.4" transform="translate(-43.263 103.128)" fill="#1448d3"/>
          <path id="Trazado_113907" data-name="Trazado 113907" d="M80.6,63.4a2.948,2.948,0,1,1,2.947,2.947A2.947,2.947,0,0,1,80.6,63.4" transform="translate(-80.6 103.128)" fill="#1448d3"/>
          <path id="Trazado_113908" data-name="Trazado 113908" d="M0,73.473A2.948,2.948,0,1,1,2.947,76.42,2.947,2.947,0,0,1,0,73.473" transform="translate(218.107 120.318)" fill="#1448d3"/>
          <path id="Trazado_113909" data-name="Trazado 113909" d="M10.076,73.473a2.947,2.947,0,1,1,2.947,2.947,2.947,2.947,0,0,1-2.947-2.947" transform="translate(180.768 120.318)" fill="#1448d3"/>
          <path id="Trazado_113910" data-name="Trazado 113910" d="M20.151,73.473A2.947,2.947,0,1,1,23.1,76.42a2.947,2.947,0,0,1-2.947-2.947" transform="translate(143.429 120.318)" fill="#1448d3"/>
          <path id="Trazado_113911" data-name="Trazado 113911" d="M30.225,73.473a2.948,2.948,0,1,1,2.947,2.947,2.947,2.947,0,0,1-2.947-2.947" transform="translate(106.092 120.318)" fill="#1448d3"/>
          <path id="Trazado_113912" data-name="Trazado 113912" d="M40.3,73.473a2.947,2.947,0,1,1,2.947,2.947A2.947,2.947,0,0,1,40.3,73.473" transform="translate(68.753 120.318)" fill="#1448d3"/>
          <path id="Trazado_113913" data-name="Trazado 113913" d="M50.376,73.473a2.947,2.947,0,1,1,2.947,2.947,2.947,2.947,0,0,1-2.947-2.947" transform="translate(31.414 120.318)" fill="#1448d3"/>
          <path id="Trazado_113914" data-name="Trazado 113914" d="M60.45,73.473A2.948,2.948,0,1,1,63.4,76.42a2.947,2.947,0,0,1-2.947-2.947" transform="translate(-5.923 120.318)" fill="#1448d3"/>
          <path id="Trazado_113915" data-name="Trazado 113915" d="M70.526,73.473a2.947,2.947,0,1,1,2.947,2.947,2.947,2.947,0,0,1-2.947-2.947" transform="translate(-43.263 120.318)" fill="#1448d3"/>
          <path id="Trazado_113916" data-name="Trazado 113916" d="M80.6,73.473a2.948,2.948,0,1,1,2.947,2.947A2.947,2.947,0,0,1,80.6,73.473" transform="translate(-80.6 120.318)" fill="#1448d3"/>
          <path id="Trazado_113917" data-name="Trazado 113917" d="M0,83.548a2.948,2.948,0,1,1,2.947,2.947A2.947,2.947,0,0,1,0,83.548" transform="translate(218.107 137.506)" fill="#1448d3"/>
          <path id="Trazado_113918" data-name="Trazado 113918" d="M10.076,83.548a2.947,2.947,0,1,1,2.947,2.947,2.947,2.947,0,0,1-2.947-2.947" transform="translate(180.768 137.506)" fill="#1448d3"/>
          <path id="Trazado_113919" data-name="Trazado 113919" d="M20.151,83.548A2.947,2.947,0,1,1,23.1,86.495a2.947,2.947,0,0,1-2.947-2.947" transform="translate(143.429 137.506)" fill="#1448d3"/>
          <path id="Trazado_113920" data-name="Trazado 113920" d="M30.225,83.548a2.948,2.948,0,1,1,2.947,2.947,2.947,2.947,0,0,1-2.947-2.947" transform="translate(106.092 137.506)" fill="#1448d3"/>
          <path id="Trazado_113921" data-name="Trazado 113921" d="M40.3,83.548a2.947,2.947,0,1,1,2.947,2.947A2.947,2.947,0,0,1,40.3,83.548" transform="translate(68.753 137.506)" fill="#1448d3"/>
          <path id="Trazado_113922" data-name="Trazado 113922" d="M50.376,83.548a2.947,2.947,0,1,1,2.947,2.947,2.947,2.947,0,0,1-2.947-2.947" transform="translate(31.414 137.506)" fill="#1448d3"/>
          <path id="Trazado_113923" data-name="Trazado 113923" d="M60.45,83.548A2.948,2.948,0,1,1,63.4,86.495a2.947,2.947,0,0,1-2.947-2.947" transform="translate(-5.923 137.506)" fill="#1448d3"/>
          <path id="Trazado_113924" data-name="Trazado 113924" d="M70.526,83.548a2.947,2.947,0,1,1,2.947,2.947,2.947,2.947,0,0,1-2.947-2.947" transform="translate(-43.263 137.506)" fill="#1448d3"/>
          <path id="Trazado_113925" data-name="Trazado 113925" d="M80.6,83.548a2.948,2.948,0,1,1,2.947,2.947A2.947,2.947,0,0,1,80.6,83.548" transform="translate(-80.6 137.506)" fill="#1448d3"/>
        </g>
      </g>
      <path id="Trazado_113927" data-name="Trazado 113927" d="M607.658,153.084A65.818,65.818,0,0,1,564.4,256.408c-27.143,4.283-53.969-8.62-77.025-23.573s-45.19-32.659-71.7-39.883c-25.261-6.883-52.317-3.512-77.452,3.819s-48.961,18.487-73.54,27.507c-40.292,14.785-84.856,23.761-125.993,11.529S61.993,184.955,65.12,142.151c1.306-17.872,8.889-34.578,15.607-51.19S93.494,56.689,91.511,38.88,77.266,3.208,59.571.387C45.378-1.876,31,6.04,22.132,17.348S9.01,42.869,6.021,56.926C-10.3,133.671,7,216.953,52.532,280.85" transform="matrix(-0.545, 0.839, -0.839, -0.545, 887.5, 83.368)" fill="none" stroke="#1448d3" stroke-miterlimit="10" stroke-width="1.701"/>
      <path id="Trazado_113928" data-name="Trazado 113928" d="M533.879,114.112C452.607,84.29,362.718,66.185,279.74,90.858S125.045,193.429,131.352,279.769c2.634,36.048,17.93,69.746,31.481,103.254s25.753,69.128,21.752,105.051-28.733,71.955-64.426,77.644c-28.628,4.564-57.624-11.4-75.518-34.211s-26.467-51.48-32.5-79.833C-20.774,296.874,14.118,128.886,105.962,0" transform="matrix(-0.839, -0.545, 0.545, -0.839, 1262.155, 561)" fill="none" stroke="#4d342c" stroke-miterlimit="10" stroke-width="1.701" stroke-dasharray="3"/>
    </g>
  </g>
</svg>
