<svg xmlns="http://www.w3.org/2000/svg" width="176" height="165" viewBox="0 0 176 165">
  <g id="Grupo_985932" data-name="Grupo 985932" transform="translate(-1149 -2628)">
    <g id="Rectángulo_344456" data-name="Rectángulo 344456" transform="translate(1149 2628)" fill="none" stroke="#9f0925" stroke-width="4">
      <rect width="176" height="165" rx="11" stroke="none"/>
      <rect x="2" y="2" width="172" height="161" rx="9" fill="none"/>
    </g>
    <g id="Outline" transform="translate(1176 2647.965)">
      <path id="Trazado_728826" data-name="Trazado 728826" d="M110.707,33.322a2.123,2.123,0,0,0-.17,2.972,6.368,6.368,0,0,1-4.245,10.613,39.248,39.248,0,0,0-2.462-6.368H99.054a34.216,34.216,0,0,1,4.585,16.981c0,13.075-7.535,25.11-20.143,32.178a2.123,2.123,0,0,0-1.083,1.783v12.736h-8.49V96.469a2.123,2.123,0,0,0-2.611-2.123,48.331,48.331,0,0,1-20.356.446,2.123,2.123,0,0,0-2.526,2.123v7.3H39.961V92.691a2.123,2.123,0,0,0-1.167-1.91,40.456,40.456,0,0,1-19.1-19.273,2.123,2.123,0,0,0-1.932-1.252h-2.95a4.564,4.564,0,0,1-4.564-4.564V49.347a4.564,4.564,0,0,1,4.564-4.564h2.929a2.123,2.123,0,0,0,1.932-1.252,37.442,37.442,0,0,1,6.368-9.785,2.123,2.123,0,0,0,.446-2.123A56.949,56.949,0,0,0,20.71,19.313a18.849,18.849,0,0,1,11.144,6.835,2.123,2.123,0,0,0,2.759.4,46.867,46.867,0,0,1,22.33-7.132V15.068a51.282,51.282,0,0,0-23.094,6.941c-8.363-8.6-17.235-6.941-17.639-6.941a2.123,2.123,0,0,0-1.295,3.354,52.555,52.555,0,0,1,7.217,13.372,41.73,41.73,0,0,0-5.752,8.745H14.809A8.809,8.809,0,0,0,6,49.347V65.691A8.809,8.809,0,0,0,14.809,74.5h1.571A44.765,44.765,0,0,0,35.716,93.985v12.353a2.123,2.123,0,0,0,2.123,2.123H50.574a2.123,2.123,0,0,0,2.123-2.123v-6.9a51.982,51.982,0,0,0,16.981-.361v7.259a2.123,2.123,0,0,0,2.123,2.123H84.536a2.123,2.123,0,0,0,2.123-2.123V92.775c13.309-7.917,21.226-21.014,21.226-35.256A37.782,37.782,0,0,0,107.311,51a10.613,10.613,0,0,0,6.368-17.49A2.123,2.123,0,0,0,110.707,33.322Z" transform="translate(0 12.242)" fill="#9f0925"/>
      <path id="Trazado_728827" data-name="Trazado 728827" d="M33.035,22.4a2.123,2.123,0,0,0,2.611,1.486A16.981,16.981,0,0,1,56.532,35.732a2.157,2.157,0,1,0,4.181-1.061A21.226,21.226,0,0,0,34.605,19.813a2.123,2.123,0,0,0-1.571,2.59Z" transform="translate(30.275 16.857)" fill="#9f0925"/>
      <path id="Trazado_728828" data-name="Trazado 728828" d="M39.488,30.111a2.123,2.123,0,0,0,1.91-2.292A17.978,17.978,0,0,1,57.615,8.206a18.275,18.275,0,0,1,2.7,0,17.978,17.978,0,0,1,.594,35.85A2.125,2.125,0,0,0,61.1,48.3h.191A22.181,22.181,0,1,0,37.132,28.286,2.123,2.123,0,0,0,39.488,30.111Z" transform="translate(34.838 0)" fill="#9f0925"/>
      <path id="Trazado_728829" data-name="Trazado 728829" d="M51.968,29.244a2.5,2.5,0,0,1-2.5-1.443,2.462,2.462,0,0,1-.212-.807,2.131,2.131,0,1,0-4.245.382A6.665,6.665,0,0,0,45.6,29.5a6.75,6.75,0,0,0,4.67,3.8l.127,1.316a2.123,2.123,0,0,0,2.123,1.932h.191a2.123,2.123,0,0,0,1.8-2.314V32.895a6.729,6.729,0,0,0-3.4-12.884,2.5,2.5,0,1,1,2.038-3.545,2.462,2.462,0,0,1,.212.807,2.131,2.131,0,1,0,4.245-.382,6.665,6.665,0,0,0-.594-2.123,6.75,6.75,0,0,0-4.627-3.821l-.127-1.316a2.132,2.132,0,1,0-4.245.4l.127,1.337a6.729,6.729,0,0,0,2.7,12.905h.637a2.5,2.5,0,1,1,.467,4.988Z" transform="translate(42.756 4.115)" fill="#9f0925"/>
      <path id="Trazado_728830" data-name="Trazado 728830" d="M38.368,15.509A53.957,53.957,0,0,0,32,15v4.245a50.942,50.942,0,0,1,6.368.552Z" transform="translate(29.187 12.309)" fill="#9f0925"/>
      <path id="Trazado_728831" data-name="Trazado 728831" d="M24.49,30.123a2.123,2.123,0,1,1-4.245,0,2.123,2.123,0,0,0-4.245,0,6.368,6.368,0,1,0,12.736,0,2.123,2.123,0,0,0-4.245,0Z" transform="translate(11.226 26.903)" fill="#9f0925"/>
    </g>
  </g>
</svg>
