<svg xmlns="http://www.w3.org/2000/svg" width="176" height="165" viewBox="0 0 176 165">
  <g id="Grupo_985934" data-name="Grupo 985934" transform="translate(-1149 -2628)">
    <g id="Rectángulo_344456" data-name="Rectángulo 344456" transform="translate(1149 2628)" fill="none" stroke="#9f0925" stroke-width="4">
      <rect width="176" height="165" rx="11" stroke="none"/>
      <rect x="2" y="2" width="172" height="161" rx="9" fill="none"/>
    </g>
    <g id="recursos-humanos" transform="translate(1173.077 2647)">
      <circle id="Elipse_5909" data-name="Elipse 5909" cx="2.022" cy="2.022" r="2.022" transform="translate(29.38 33.344)" fill="#9f0925"/>
      <circle id="Elipse_5910" data-name="Elipse 5910" cx="2.022" cy="2.022" r="2.022" transform="translate(45.552 33.344)" fill="#9f0925"/>
      <path id="Trazado_728832" data-name="Trazado 728832" d="M17,31.086h8.086A8.094,8.094,0,0,0,33.172,23H29.129a4.047,4.047,0,0,1-4.043,4.043H17Z" transform="translate(16.423 22.473)" fill="#9f0925"/>
      <path id="Trazado_728833" data-name="Trazado 728833" d="M24.494,19.7a11.707,11.707,0,0,1-3.451-8.333V9H17v2.367a15.722,15.722,0,0,0,4.635,11.191Z" transform="translate(16.423 8.172)" fill="#9f0925"/>
      <path id="Trazado_728834" data-name="Trazado 728834" d="M106.545,77.818a7.68,7.68,0,0,0-5.472,2.268L99.3,81.861H98.111a6.072,6.072,0,0,0-6.065,6.065v.968L80.555,96.937,74.563,85.619a13.855,13.855,0,0,0,.813-16.983l-6.908-9.845A14.879,14.879,0,0,1,66.533,45.53l1.894-5.689a26.926,26.926,0,0,0,0-17.035l-.416-1.247a30.067,30.067,0,0,0-57.049,0L10.549,22.8a26.907,26.907,0,0,0,0,17.035l1.9,5.691a14.831,14.831,0,0,1,.764,4.71,14.83,14.83,0,0,1-2.7,8.553L3.6,68.638A13.87,13.87,0,0,0,4.891,86.162,36.821,36.821,0,0,0,3.28,94.519L.923,126.334h60.8V109.681l1.3,1.561a19.413,19.413,0,0,0,14.957,7.007,16.346,16.346,0,0,0,11.634-4.819l22.4-22.4a7.739,7.739,0,0,0-5.472-13.211ZM6.909,70.959l6.908-9.845A18.849,18.849,0,0,0,17.251,50.24a18.9,18.9,0,0,0-.97-5.988l-1.9-5.691a22.865,22.865,0,0,1,0-14.48l.412-1.243a26.025,26.025,0,0,1,49.38,0l.416,1.245a22.884,22.884,0,0,1,0,14.48L62.7,44.25a18.932,18.932,0,0,0,2.462,16.863l6.908,9.845a9.677,9.677,0,0,1,.37,10.645L70.2,77.377A30.155,30.155,0,0,0,49.122,61.924L48.7,60.653a14.161,14.161,0,0,0,8.984-13.158V34a8.53,8.53,0,0,0-5.84-8.1,9.189,9.189,0,0,1-6.289-8.727H41.509a13.228,13.228,0,0,0,9.054,12.562A4.492,4.492,0,0,1,53.638,34V47.495A10.119,10.119,0,0,1,43.53,57.6H35.444A10.119,10.119,0,0,1,25.337,47.495V29.3a4.047,4.047,0,0,1,4.043-4.043V21.215A8.094,8.094,0,0,0,21.294,29.3V47.495a14.167,14.167,0,0,0,8.982,13.16l-.457,1.373A36.5,36.5,0,0,0,6.6,81.816a9.868,9.868,0,0,1,.309-10.858Zm26.514,2.816V63.992l.8-2.41c.4.036.809.063,1.219.063H43.53c.41,0,.817-.026,1.219-.063l.8,2.41v9.782Zm12.07,4.043a25.348,25.348,0,0,1-6.006,15.214,25.352,25.352,0,0,1-6.006-15.214ZM17.251,122.291H5.277L7.165,96.781l10.085,6.3ZM57.681,85.9v36.387H21.294V85.9H17.251V98.316L7.6,92.284a32.5,32.5,0,0,1,21.78-25.92V76.489A29.425,29.425,0,0,0,38.058,97.44l1.429,1.429,1.429-1.429A29.425,29.425,0,0,0,49.6,76.489V66.139A26.118,26.118,0,0,1,66.626,79.267l6.4,12.095-11.3,7.065V85.9Zm51.478,2.268-22.4,22.4a12.334,12.334,0,0,1-8.775,3.635,15.385,15.385,0,0,1-11.85-5.551l-4.409-5.288V103.2l13.2-8.252,2.292,4.33-4.522,3.166,2.317,3.313L96.09,91V87.925A2.024,2.024,0,0,1,98.111,85.9h2.858l2.962-2.962a3.7,3.7,0,0,1,6.309,2.616,3.678,3.678,0,0,1-1.082,2.614Z" transform="translate(0)" fill="#9f0925"/>
      <path id="Trazado_728835" data-name="Trazado 728835" d="M57.112,21H51.047V41.215H55.09V33.129h2.022a2.024,2.024,0,0,1,2.022,2.022v6.065h4.043V35.151A6.026,6.026,0,0,0,61.6,31.108,6.039,6.039,0,0,0,57.112,21Zm0,8.086H55.09V25.043h2.022a2.022,2.022,0,0,1,0,4.043Z" transform="translate(51.202 20.43)" fill="#9f0925"/>
      <path id="Trazado_728836" data-name="Trazado 728836" d="M51.086,29.086H47.043V21H43V41.215h4.043V33.129h4.043v8.086h4.043V21H51.086Z" transform="translate(42.982 20.43)" fill="#9f0925"/>
      <path id="Trazado_728837" data-name="Trazado 728837" d="M83.495,17H43.065A6.072,6.072,0,0,0,37,23.065V47.323a6.072,6.072,0,0,0,6.065,6.065h8.086v3.206a4.88,4.88,0,0,0,8.331,3.451l6.657-6.657H83.495a6.072,6.072,0,0,0,6.065-6.065V23.065A6.072,6.072,0,0,0,83.495,17Zm2.022,30.323a2.024,2.024,0,0,1-2.022,2.022H64.464l-7.843,7.841a.869.869,0,0,1-1.427-.592V49.344H43.065a2.024,2.024,0,0,1-2.022-2.022V23.065a2.024,2.024,0,0,1,2.022-2.022h40.43a2.024,2.024,0,0,1,2.022,2.022Z" transform="translate(36.853 16.344)" fill="#9f0925"/>
    </g>
  </g>
</svg>
