<svg xmlns="http://www.w3.org/2000/svg" width="85" height="92" viewBox="0 0 85 92">
  <g id="Grupo_985937" data-name="Grupo 985937" transform="translate(-377 -2637)">
    <rect id="Rectángulo_338875" data-name="Rectángulo 338875" width="85" height="92" rx="10" transform="translate(377 2637)" fill="#ff6e33"/>
    <g id="analytics" transform="translate(388.032 2651.772)">
      <g id="Grupo_986486" data-name="Grupo 986486" transform="translate(0.947 0.809)">
        <g id="Grupo_986485" data-name="Grupo 986485" transform="translate(14.645)">
          <path id="Trazado_729736" data-name="Trazado 729736" d="M131.581,46.789a23.6,23.6,0,1,1,33.377,0A23.628,23.628,0,0,1,131.581,46.789Z" transform="translate(-124.679 -6.51)" fill="#54a0ff"/>
        </g>
        <path id="Trazado_729737" data-name="Trazado 729737" d="M134.065,46.8A23.589,23.589,0,0,1,149.511,6.552a23.59,23.59,0,1,0,0,47.114A23.507,23.507,0,0,1,134.065,46.8Z" transform="translate(-110.035 -6.518)" fill="#338def"/>
        <path id="Trazado_729738" data-name="Trazado 729738" d="M177.454,78.946A19.448,19.448,0,1,1,196.9,59.5,19.448,19.448,0,0,1,177.454,78.946Z" transform="translate(-139.22 -35.881)" fill="#acd6fc"/>
        <path id="Trazado_729739" data-name="Trazado 729739" d="M160.491,59.5A19.449,19.449,0,0,1,178.7,40.09c-.411-.026-.825-.041-1.242-.041A19.448,19.448,0,1,0,178.7,78.905,19.448,19.448,0,0,1,160.491,59.5Z" transform="translate(-139.221 -35.881)" fill="#8ac2ff"/>
        <path id="Trazado_729740" data-name="Trazado 729740" d="M9.629,357.749l-2-2a2.694,2.694,0,0,1,0-3.8l13.7-13.7a1.5,1.5,0,0,1,2.109,0l3.578,3.578a1.5,1.5,0,0,1,0,2.109l-13.81,13.81A2.541,2.541,0,0,1,9.629,357.749Z" transform="translate(-6.849 -296.643)" fill="#ff6b6b"/>
        <path id="Trazado_729741" data-name="Trazado 729741" d="M9.1,353.985l14.259-14.259a1.486,1.486,0,0,1,1.121-.432l-1.047-1.047a1.5,1.5,0,0,0-2.108,0l-13.7,13.7a2.692,2.692,0,0,0,0,3.8l.775.775A2.687,2.687,0,0,1,9.1,353.985Z" transform="translate(-6.842 -296.639)" fill="#ee5253"/>
        <rect id="Rectángulo_344477" data-name="Rectángulo 344477" width="8.043" height="3.734" transform="translate(11.275 44.82) rotate(45)" fill="#ee5253"/>
        <rect id="Rectángulo_344478" data-name="Rectángulo 344478" width="3.734" height="2.483" transform="translate(13.031 46.576) rotate(135)" fill="#d83941"/>
        <path id="Trazado_729742" data-name="Trazado 729742" d="M203.9,198.371V178.024H197.7a1,1,0,0,0-1,1v14.185A19.471,19.471,0,0,0,203.9,198.371Z" transform="translate(-173.107 -156.709)" fill="#576574"/>
        <path id="Trazado_729743" data-name="Trazado 729743" d="M261.808,150.032V121.151h-6.194a1,1,0,0,0-1,1v26.412A19.356,19.356,0,0,0,261.808,150.032Z" transform="translate(-223.819 -106.904)" fill="#15ba8b"/>
        <path id="Trazado_729744" data-name="Trazado 729744" d="M319.72,98.937V64.277h-6.194a1,1,0,0,0-1,1v6.968h0v27.978A19.305,19.305,0,0,0,319.72,98.937Z" transform="translate(-274.534 -57.098)" fill="#feca57"/>
        <path id="Trazado_729745" data-name="Trazado 729745" d="M377.629,44.284V8.38a.976.976,0,0,0-.976-.976h-5.219a1,1,0,0,0-1,1V49.132A19.453,19.453,0,0,0,377.629,44.284Z" transform="translate(-325.246 -7.293)" fill="#ee5253"/>
        <path id="Trazado_729746" data-name="Trazado 729746" d="M199.187,178.9a1,1,0,0,1,.52-.879h-2a1,1,0,0,0-1,1v14.185a19.507,19.507,0,0,0,2.486,2.374Z" transform="translate(-173.106 -156.71)" fill="#3e4b5a"/>
        <path id="Trazado_729747" data-name="Trazado 729747" d="M257.1,121.9a1,1,0,0,1,.343-.755h-1.826a1,1,0,0,0-1,1v26.412a19.262,19.262,0,0,0,2.486.834V121.9Z" transform="translate(-223.819 -106.903)" fill="#11aa7b"/>
        <path id="Trazado_729748" data-name="Trazado 729748" d="M315.008,72.248h0V65.031a1,1,0,0,1,.344-.755h-1.826a1,1,0,0,0-1,1v6.968h0v27.978a18.854,18.854,0,0,0,2.486-.127Z" transform="translate(-274.533 -57.098)" fill="#f4b537"/>
        <path id="Trazado_729749" data-name="Trazado 729749" d="M372.919,8.157a1,1,0,0,1,.343-.754h-1.826a1,1,0,0,0-1,1V49.131a19.369,19.369,0,0,0,2.486-1.165Z" transform="translate(-325.247 -7.292)" fill="#d83941"/>
      </g>
      <g id="Grupo_986487" data-name="Grupo 986487" transform="translate(0.11 0)">
        <path id="Trazado_729750" data-name="Trazado 729750" d="M54.343,5.209V1.914A1.91,1.91,0,0,0,52.436.007H47.217a1.933,1.933,0,0,0-1.595.842A24.5,24.5,0,0,0,21.253,41.154L19.4,42.963,18.28,41.848a2.427,2.427,0,0,0-3.427,0L1.168,55.532a3.622,3.622,0,0,0,0,5.117L3.159,62.64a3.47,3.47,0,0,0,4.9,0L21.853,48.847a2.426,2.426,0,0,0,0-3.427l-1.139-1.139,1.857-1.808a24.485,24.485,0,0,0,14.961,6.471l.065,0a.932.932,0,0,0,.063-1.862,22.637,22.637,0,1,1,7.622-44.4v2.4A20.363,20.363,0,1,0,54.09,38.458l0,0,.021-.023a20.357,20.357,0,0,0,.23-27.551V7.635A22.645,22.645,0,0,1,41.84,46.99a.932.932,0,0,0,.212,1.852A24.505,24.505,0,0,0,54.343,5.209ZM6.741,61.322a1.6,1.6,0,0,1-2.264,0L2.486,59.331a1.756,1.756,0,0,1,0-2.481l7.181-7.181,4.363,4.363Zm8.607-8.607-4.363-4.363,1.32-1.32,4.363,4.363Zm5.185-5.185-2.547,2.547-4.363-4.363,2.548-2.548a.563.563,0,0,1,.791,0l3.572,3.572A.563.563,0,0,1,20.534,47.529Zm10.354-6.5a18.608,18.608,0,0,1-5.333-4.068V23.146a.071.071,0,0,1,.071-.071h5.262V41.033Zm7.2,1.957a18.308,18.308,0,0,1-5.333-1.136V16.078a.071.071,0,0,1,.07-.071h5.262V42.99Zm7.2-.974a18.388,18.388,0,0,1-5.333,1v-34h0a.071.071,0,0,1,.071-.071h5.262Zm0-34.941H40.02A1.937,1.937,0,0,0,38.085,9.01v5.133H32.823a1.937,1.937,0,0,0-1.935,1.935v5.133H25.626a1.937,1.937,0,0,0-1.935,1.935v11.4A18.5,18.5,0,0,1,45.282,7.047v.027ZM57.734,24.531a18.418,18.418,0,0,1-3.391,10.675V26.624a.932.932,0,1,0-1.864,0V37.443a18.63,18.63,0,0,1-5.333,3.811V1.942a.071.071,0,0,1,.07-.071h5.219a.044.044,0,0,1,.043.043v20.36a.932.932,0,1,0,1.864,0V13.857A18.418,18.418,0,0,1,57.734,24.531Z" transform="translate(-0.11 0)"/>
      </g>
    </g>
  </g>
</svg>
