<svg xmlns="http://www.w3.org/2000/svg" width="85" height="92" viewBox="0 0 85 92">
  <g id="Grupo_985939" data-name="Grupo 985939" transform="translate(-377 -2637)">
    <rect id="Rectángulo_338875" data-name="Rectángulo 338875" width="85" height="92" rx="10" transform="translate(377 2637)" fill="#ff6e33"/>
    <g id="matematicas" transform="translate(388.001 2651)">
      <path id="Trazado_729791" data-name="Trazado 729791" d="M66.622,7.8H34.505a1.819,1.819,0,0,0-1.814,1.814v58.5a1.819,1.819,0,0,0,1.814,1.814h39a1.819,1.819,0,0,0,1.814-1.814V16.5Zm0,0" transform="translate(-28.606 -6.829)" fill="#edebed"/>
      <path id="Trazado_729792" data-name="Trazado 729792" d="M36.441,68.116V9.619A1.819,1.819,0,0,1,38.255,7.8h-3.75a1.819,1.819,0,0,0-1.814,1.814v58.5a1.819,1.819,0,0,0,1.814,1.814h3.75A1.819,1.819,0,0,1,36.441,68.116Zm0,0" transform="translate(-28.606 -6.829)" fill="#e0d9d5"/>
      <path id="Trazado_729793" data-name="Trazado 729793" d="M305.95,16.5h6.881l-8.695-8.7v6.881A1.819,1.819,0,0,0,305.95,16.5Zm0,0" transform="translate(-266.12 -6.829)" fill="#e0d9d5"/>
      <path id="Trazado_729794" data-name="Trazado 729794" d="M307.887,14.686V11.555l-3.75-3.75v6.881A1.819,1.819,0,0,0,305.95,16.5h3.75A1.819,1.819,0,0,1,307.887,14.686Zm0,0" transform="translate(-266.12 -6.829)" fill="#cec8c6"/>
      <path id="Trazado_729795" data-name="Trazado 729795" d="M47.7,90.282l-26.4-7.921a1.819,1.819,0,0,0-2.259,1.216L7.767,121.127a1.819,1.819,0,0,0,1.216,2.258l26.4,7.922a1.82,1.82,0,0,0,2.259-1.216l11.266-37.55A1.82,1.82,0,0,0,47.7,90.282Zm0,0" transform="translate(-6.731 -71.999)" fill="#6397d6"/>
      <path id="Trazado_729796" data-name="Trazado 729796" d="M13.125,123.385a1.818,1.818,0,0,1-1.216-2.258l11.266-37.55a1.786,1.786,0,0,1,.288-.565l-2.171-.651a1.819,1.819,0,0,0-2.259,1.216L7.767,121.127a1.819,1.819,0,0,0,1.216,2.258l26.4,7.922a1.82,1.82,0,0,0,1.971-.651Zm0,0" transform="translate(-6.731 -71.999)" fill="#4686c6"/>
      <path id="Trazado_729797" data-name="Trazado 729797" d="M77.221,225.852l-19.545-5.864a.947.947,0,0,0-1.176.633l-5.571,18.568a.947.947,0,0,0,.633,1.176l19.545,5.864a.947.947,0,0,0,1.176-.633L76.6,231.217l1.257-4.189A.948.948,0,0,0,77.221,225.852Zm0,0" transform="translate(-44.529 -192.454)" fill="#f9ca46"/>
      <path id="Trazado_729798" data-name="Trazado 729798" d="M180.221,338.047l-3.057,10.189,4.434,1.33a.947.947,0,0,0,1.176-.633l2.785-9.284Zm0,0" transform="translate(-155.019 -295.791)" fill="#fc5f61"/>
      <path id="Trazado_729799" data-name="Trazado 729799" d="M132.226,131.457l-19.545-5.864a.948.948,0,0,0-1.177.633l-1.759,5.864a.947.947,0,0,0,.633,1.176l19.545,5.864a.948.948,0,0,0,1.176-.634l1.759-5.863A.947.947,0,0,0,132.226,131.457Zm0,0" transform="translate(-95.993 -109.859)" fill="#f9ca46"/>
      <path id="Trazado_729800" data-name="Trazado 729800" d="M55.644,241.575c.235-.782,4.824-16.078,6.11-20.364l-4.078-1.224a.947.947,0,0,0-1.176.633l-5.571,18.568a.947.947,0,0,0,.633,1.176l4.079,1.224Zm0,0" transform="translate(-44.529 -192.454)" fill="#efae2e"/>
      <path id="Trazado_729801" data-name="Trazado 729801" d="M113.979,133.461l1.8-5.989a.968.968,0,0,1,.882-.686l-3.978-1.193a.948.948,0,0,0-1.177.633l-1.759,5.864a.947.947,0,0,0,.633,1.176l3.843,1.153A.967.967,0,0,1,113.979,133.461Zm0,0" transform="translate(-95.993 -109.859)" fill="#efae2e"/>
      <path id="Trazado_729802" data-name="Trazado 729802" d="M70.925,218.389,51.38,212.524a1.883,1.883,0,0,0-2.344,1.262l-5.571,18.568a1.884,1.884,0,0,0,1.262,2.344l19.545,5.864a1.884,1.884,0,0,0,2.344-1.262l5.571-18.568A1.884,1.884,0,0,0,70.925,218.389Zm-3.05,10.191-3.543-1.063.99-3.3,2.367.71,1.176.353Zm-6.867,3.493-3.543-1.063.99-3.3,2.688.806.855.257Zm1.528-5.095-3.542-1.062.99-3.3,3.542,1.063Zm-5.339-1.6-2.362-.708-1.181-.354.99-3.3,3.542,1.063Zm-4.082.733,1.771.532,1.771.531-.99,3.3-3.543-1.063Zm10.949-4.226-3.543-1.063.99-3.3,3.542,1.063Zm-5.339-1.6-3.543-1.062.99-3.3,3.543,1.063Zm-6.867,3.493-3.539-1.062.991-3.3,3.538,1.061Zm-4.079.734,3.332,1,.208.063-.99,3.3-3.541-1.062Zm3.807,6.7,3.542,1.063-.99,3.3L50.6,234.5Zm5.339,1.6,3.542,1.063-.99,3.3L55.937,236.1Zm12.477-9.32-3.542-1.062.989-3.3,3.541,1.068Zm-15.026-8.1-.99,3.3-3.537-1.061.991-3.3ZM46.251,229.6l3.542,1.063-.989,3.3-3.541-1.068Zm18.561,9.165-3.536-1.061,2.518-8.393,3.542,1.063Zm0,0" transform="translate(-37.964 -185.889)" fill="#4686c6"/>
      <path id="Trazado_729803" data-name="Trazado 729803" d="M426.964,31.834h3.44V26.757a1.976,1.976,0,1,0-3.952,0v5.077Zm0,0" transform="translate(-373.147 -21.643)" fill="#6397d6"/>
      <path id="Trazado_729804" data-name="Trazado 729804" d="M429.277,26.947a2.232,2.232,0,0,1,.616-1.545,1.947,1.947,0,0,0-1.463-.667,2,2,0,0,0-1.976,2.022v5.077h2.824Zm0,0" transform="translate(-373.147 -21.643)" fill="#4686c6"/>
      <path id="Trazado_729805" data-name="Trazado 729805" d="M420.749,446.582l-3.073.375,1.9,5.588a1.235,1.235,0,0,0,2.338,0l1.9-5.588Zm0,0" transform="translate(-365.467 -390.759)" fill="#4686c6"/>
      <path id="Trazado_729806" data-name="Trazado 729806" d="M421.36,446.957l1.229-.15-1.844-.225-3.074.375,1.9,5.588a1.235,1.235,0,0,0,2.338,0l.675-1.98Zm0,0" transform="translate(-365.464 -390.759)" fill="#1b75b2"/>
      <path id="Trazado_729807" data-name="Trazado 729807" d="M417.672,183.121h6.147v33.308h-6.147Zm0,0" transform="translate(-365.464 -160.231)" fill="#edebed"/>
      <path id="Trazado_729808" data-name="Trazado 729808" d="M417.672,183.121h3.688v33.308h-3.688Zm0,0" transform="translate(-365.464 -160.231)" fill="#e0d9d5"/>
      <path id="Trazado_729809" data-name="Trazado 729809" d="M416.771,80.223h-4.744a1.608,1.608,0,0,0-1.608,1.608V92.924a.693.693,0,0,0,.693.693h6.575a.693.693,0,0,0,.693-.693V81.831A1.608,1.608,0,0,0,416.771,80.223Zm0,0" transform="translate(-359.116 -70.195)" fill="#4686c6"/>
      <path id="Trazado_729810" data-name="Trazado 729810" d="M414.105,92.924V81.831a1.608,1.608,0,0,1,1.608-1.608h-3.687a1.608,1.608,0,0,0-1.608,1.608V92.924a.693.693,0,0,0,.693.693H414.8A.693.693,0,0,1,414.105,92.924Zm0,0" transform="translate(-359.116 -70.195)" fill="#1b75b2"/>
      <path id="Trazado_729811" data-name="Trazado 729811" d="M409.625,47.726a.938.938,0,0,0,.938-.938V28.2a.938.938,0,0,0-.938-.937h-2.74v-.847a2.549,2.549,0,0,0-2-2.487V19.843a2.913,2.913,0,0,0-5.827,0v4.082a2.549,2.549,0,0,0-2,2.486v.857a.937.937,0,0,0,0,1.855V37.5a1.63,1.63,0,0,0,.907,1.458v32.01a.923.923,0,0,0,.05.3l1.9,5.588a2.173,2.173,0,0,0,4.113,0l1.9-5.588a.938.938,0,0,0,.05-.3V56.016a.938.938,0,0,0-1.875,0v14.02h-4.271v-30.9H404.1v12.5a.938.938,0,0,0,1.875,0V38.964a1.632,1.632,0,0,0,.907-1.459V29.134h1.8V46.789A.937.937,0,0,0,409.625,47.726Zm-8.7-27.883a1.038,1.038,0,0,1,2.076,0v4.022h-2.076Zm-1.334,5.9h4.744a.672.672,0,0,1,.671.67v.847h-6.086v-.847A.671.671,0,0,1,399.594,25.741Zm4.135,46.17-1.481,4.348a.3.3,0,0,1-.563,0L400.2,71.911Zm1.28-34.65h-6.086V29.134h6.086Zm0,0" transform="translate(-346.713 -14.813)"/>
      <path id="Trazado_729812" data-name="Trazado 729812" d="M125.74,123.688l-19.545-5.864a1.884,1.884,0,0,0-2.344,1.262l-1.759,5.864a1.884,1.884,0,0,0,1.262,2.344l19.545,5.864a1.884,1.884,0,0,0,2.344-1.262L127,126.032A1.884,1.884,0,0,0,125.74,123.688Zm-2.3,7.673-19.55-5.873,1.768-5.868,19.545,5.864,0,.009Zm0,0" transform="translate(-89.261 -103.026)"/>
      <path id="Trazado_729813" data-name="Trazado 729813" d="M70.738,218.084,51.193,212.22a1.884,1.884,0,0,0-2.344,1.262s-4.314,14.378-4.314,14.378l-1.257,4.189a1.884,1.884,0,0,0,1.262,2.344l19.545,5.864A1.885,1.885,0,0,0,66.429,239c.142-.472,5.348-17.823,5.571-18.568A1.886,1.886,0,0,0,70.738,218.084Zm-9.917,13.684L57.278,230.7l.989-3.3,3.543,1.063Zm1.528-5.095-3.542-1.063.99-3.3,3.542,1.063Zm-5.339-1.6-3.542-1.063.99-3.3L58,221.773Zm-4.081.733,3.542,1.063-.99,3.3L51.939,229.1Zm11.216,1.408.99-3.3,3.541,1.062-.991,3.3Zm-.268-5.633-3.543-1.063.99-3.3,3.543,1.063Zm-5.339-1.6L55,218.914l.99-3.3,3.543,1.063Zm-6.867,3.493-3.539-1.062.991-3.3,3.538,1.062Zm-4.079.734,3.54,1.062-.989,3.3L46.6,227.5Zm3.807,6.7,3.543,1.063-.99,3.3L50.41,234.2Zm5.339,1.6,3.543,1.063-.99,3.3L55.749,235.8Zm12.476-9.32-3.542-1.063.989-3.3,3.541,1.068Zm-15.025-8.1-.99,3.3-3.537-1.061.991-3.3ZM46.063,229.3,49.6,230.36l-.989,3.3-3.541-1.068Zm18.562,9.164L61.088,237.4l2.518-8.393,3.539,1.062Zm0,0" transform="translate(-37.799 -185.622)"/>
      <path id="Trazado_729814" data-name="Trazado 729814" d="M47.626,61.249V9.633a.942.942,0,0,0-.274-.663l-8.7-8.7A.948.948,0,0,0,37.993,0H5.876A2.755,2.755,0,0,0,3.125,2.751V38.791L.115,48.82A2.754,2.754,0,0,0,1.96,52.246l1.165.35v8.653A2.755,2.755,0,0,0,5.876,64H23.187a.938.938,0,0,0,0-1.875H5.876A.877.877,0,0,1,5,61.249v-8.09l23.364,7.01a2.756,2.756,0,0,0,3.426-1.845l11.266-37.55a2.755,2.755,0,0,0-1.845-3.426l-26.4-7.922a2.756,2.756,0,0,0-3.426,1.845L5,32.541V2.751a.878.878,0,0,1,.876-.876H37.055V7.819a2.755,2.755,0,0,0,2.751,2.751h5.944V61.249a.877.877,0,0,1-.876.876H27.563a.938.938,0,1,0,0,1.875H44.874A2.755,2.755,0,0,0,47.626,61.249ZM29.993,57.784a.878.878,0,0,1-1.091.588L2.5,50.45a.881.881,0,0,1-.587-1.091L4.96,39.2h0l8.218-27.389a.881.881,0,0,1,1.091-.587l26.4,7.921a.881.881,0,0,1,.587,1.091ZM39.807,8.7a.877.877,0,0,1-.876-.876V3.2L44.425,8.7Zm0,0"/>
    </g>
  </g>
</svg>
