<svg xmlns="http://www.w3.org/2000/svg" width="85" height="92" viewBox="0 0 85 92">
  <g id="Grupo_985940" data-name="Grupo 985940" transform="translate(-377 -2637)">
    <rect id="Rectángulo_338875" data-name="Rectángulo 338875" width="85" height="92" rx="10" transform="translate(377 2637)" fill="#ff6e33"/>
    <g id="planificacion" transform="translate(388 2651)">
      <g id="Grupo_986499" data-name="Grupo 986499">
        <g id="Grupo_986489" data-name="Grupo 986489">
          <path id="Trazado_729815" data-name="Trazado 729815" d="M60,56H4a2,2,0,0,1-2-2V20H62V54A2,2,0,0,1,60,56Z" fill="#e6e9ed"/>
        </g>
        <g id="Grupo_986490" data-name="Grupo 986490">
          <path id="Trazado_729816" data-name="Trazado 729816" d="M60,8H4a2.006,2.006,0,0,0-2,2V20H62V10A2.006,2.006,0,0,0,60,8Z" fill="#b4dd7f"/>
        </g>
        <g id="Grupo_986491" data-name="Grupo 986491">
          <path id="Trazado_729817" data-name="Trazado 729817" d="M57,56l1,6H47l1-6,1-6h7Z" fill="#b4dd7f"/>
        </g>
        <g id="Grupo_986492" data-name="Grupo 986492">
          <path id="Trazado_729818" data-name="Trazado 729818" d="M49,50H37a1,1,0,0,1-1-1V41a1,1,0,0,1,1-1H47a1,1,0,0,0-1,1v3.39A6.768,6.768,0,0,0,49,50Z" fill="#fcd770"/>
        </g>
        <g id="Grupo_986493" data-name="Grupo 986493">
          <path id="Trazado_729819" data-name="Trazado 729819" d="M58,27V37H54V34a2.015,2.015,0,0,0-2-2,2.006,2.006,0,0,0-2,2v3H46V27a1,1,0,0,1,1-1H57A1,1,0,0,1,58,27Z" fill="#ff826e"/>
        </g>
        <g id="Grupo_986494" data-name="Grupo 986494">
          <path id="Trazado_729820" data-name="Trazado 729820" d="M18,2l-.75,6L16,18H9L7.75,8,7,2Z" fill="#fcd770"/>
        </g>
        <g id="Grupo_986495" data-name="Grupo 986495">
          <path id="Trazado_729821" data-name="Trazado 729821" d="M58,44v1.17A6.835,6.835,0,0,1,56,50H49a6.768,6.768,0,0,1-3-5.61V41a1,1,0,0,1,1-1,3,3,0,0,1,3,3V34a2.006,2.006,0,0,1,2-2,2.015,2.015,0,0,1,2,2v6a3.995,3.995,0,0,1,4,4Z" fill="#f0d0b4"/>
        </g>
        <g id="Grupo_986496" data-name="Grupo 986496">
          <path id="Trazado_729822" data-name="Trazado 729822" d="M28,31v8a1,1,0,0,1-1,1H19a1,1,0,0,1-1-1V31a1,1,0,0,1,1-1h8A1,1,0,0,1,28,31Z" fill="#ff826e"/>
        </g>
        <g id="Grupo_986497" data-name="Grupo 986497">
          <path id="Trazado_729823" data-name="Trazado 729823" d="M20,44v3a1,1,0,0,1-1,1H7a1,1,0,0,1-1-1V35a1,1,0,0,1,1-1h3a2.006,2.006,0,0,0,2,2,2.015,2.015,0,0,0,2-2h4v5a1,1,0,0,0,1,1h1Z" fill="#fcd770"/>
        </g>
        <g id="Grupo_986498" data-name="Grupo 986498">
          <path id="Trazado_729824" data-name="Trazado 729824" d="M18,22.83V24a3.995,3.995,0,0,1-4,4v6a2.015,2.015,0,0,1-2,2,2.006,2.006,0,0,1-2-2V25a3,3,0,0,1-3,3,1,1,0,0,1-1-1V23.61A6.763,6.763,0,0,1,9,18h7a6.9,6.9,0,0,1,2,4.83Z" fill="#f0d0b4"/>
        </g>
      </g>
      <g id="Grupo_986500" data-name="Grupo 986500">
        <path id="Trazado_729825" data-name="Trazado 729825" d="M60,7H18.383l.75-6H5.867l.75,6H4a3,3,0,0,0-3,3V54a3,3,0,0,0,3,3H46.82l-1,6H59.181l-1-6H60a3,3,0,0,0,3-3V10A3,3,0,0,0,60,7Zm1,3v9H33V9H60A1,1,0,0,1,61,10ZM31,9V19H18a7.852,7.852,0,0,0-.947-1.33L18.133,9ZM19,41v6H7V35H9.184a2.982,2.982,0,0,0,5.632,0H17v4A2,2,0,0,0,19,41Zm0-2V31h8v8ZM13,27v7a1,1,0,0,1-2,0V25H9a2,2,0,0,1-2,2V23.6A5.717,5.717,0,0,1,9.334,19h6.225A5.788,5.788,0,0,1,17,22.829V24a3,3,0,0,1-3,3ZM16.867,3l-1.75,14H9.883L8.133,3ZM4,9H6.867l1.069,8.555A7.751,7.751,0,0,0,6.53,19H3V10A1,1,0,0,1,4,9ZM3,54V21H5.46A7.728,7.728,0,0,0,5,23.6V27a2,2,0,0,0,2,2,3.97,3.97,0,0,0,2-.537V33H7a2,2,0,0,0-2,2V47a2,2,0,0,0,2,2H19a2,2,0,0,0,2-2V41h6a2,2,0,0,0,2-2V31a2,2,0,0,0-2-2H19a2,2,0,0,0-2,2v2H15V28.9A5.009,5.009,0,0,0,19,24V22.829A7.841,7.841,0,0,0,18.777,21H31V55H4a1,1,0,0,1-1-1ZM54,41a3,3,0,0,1,3,3v1.171A5.788,5.788,0,0,1,55.559,49H49.334A5.717,5.717,0,0,1,47,44.4V41a2,2,0,0,1,2,2h2V34a1,1,0,0,1,2,0v7ZM48.181,61l1.666-10h5.307L56.82,61ZM60,55H57.847l-.782-4.688A7.767,7.767,0,0,0,59,45.171V44a5.008,5.008,0,0,0-4-4.9V34a3,3,0,0,0-6,0v5.537A3.97,3.97,0,0,0,47,39a2,2,0,0,0-2,2v3.4a7.708,7.708,0,0,0,2.915,6.034L47.153,55H33V21H61V54A1,1,0,0,1,60,55Z"/>
        <path id="Trazado_729826" data-name="Trazado 729826" d="M47,13h2v2H47Z"/>
        <path id="Trazado_729827" data-name="Trazado 729827" d="M51,13h2v2H51Z"/>
        <path id="Trazado_729828" data-name="Trazado 729828" d="M55,13h2v2H55Z"/>
        <path id="Trazado_729829" data-name="Trazado 729829" d="M35,13H45v2H35Z"/>
        <path id="Trazado_729830" data-name="Trazado 729830" d="M37,41h6V39H37a2,2,0,0,0-2,2v8a2,2,0,0,0,2,2h8V49H37Z"/>
        <path id="Trazado_729831" data-name="Trazado 729831" d="M57,25H47a2,2,0,0,0-2,2V37h2V27H57V37h2V27A2,2,0,0,0,57,25Z"/>
        <path id="Trazado_729832" data-name="Trazado 729832" d="M35,29h6v2H35Z"/>
        <path id="Trazado_729833" data-name="Trazado 729833" d="M35,33h8v2H35Z"/>
        <path id="Trazado_729834" data-name="Trazado 729834" d="M25,47h4v2H25Z"/>
        <path id="Trazado_729835" data-name="Trazado 729835" d="M23,43h6v2H23Z"/>
      </g>
    </g>
  </g>
</svg>
