<svg xmlns="http://www.w3.org/2000/svg" width="66" height="62" viewBox="0 0 66 62">
  <g id="Grupo_986462" data-name="Grupo 986462" transform="translate(-1149 -2627.657)">
    <g id="Rectángulo_344456" data-name="Rectángulo 344456" transform="translate(1149 2627.656)" fill="none" stroke="#9f0925" stroke-width="4">
      <rect width="66" height="62" rx="11" stroke="none"/>
      <rect x="2" y="2" width="62" height="58" rx="9" fill="none"/>
    </g>
    <g id="procesador" transform="translate(1150.133 2627.657)">
      <g id="Grupo_986503" data-name="Grupo 986503" transform="translate(29.462 9.375)">
        <path id="Trazado_729836" data-name="Trazado 729836" d="M40.7,27.781a1.073,1.073,0,0,1-1.074-1.074v-4.15H28.981a1.073,1.073,0,0,1-1.074-1.074V10.216a1.074,1.074,0,1,1,2.148,0V20.409H40.7a1.073,1.073,0,0,1,1.074,1.074v5.224A1.073,1.073,0,0,1,40.7,27.781Z" transform="translate(-27.907 -9.143)" fill="#9f0925"/>
      </g>
      <g id="Grupo_986504" data-name="Grupo 986504" transform="translate(42.483 36.825)">
        <path id="Trazado_729837" data-name="Trazado 729837" d="M50.748,36.851H41.106a1.074,1.074,0,0,1,0-2.148h9.642a1.074,1.074,0,0,1,0,2.148Z" transform="translate(-40.032 -34.703)" fill="#9f0925"/>
      </g>
      <g id="Grupo_986505" data-name="Grupo 986505" transform="translate(29.462 43.971)">
        <path id="Trazado_729838" data-name="Trazado 729838" d="M28.981,50.132a1.073,1.073,0,0,1-1.074-1.074V42.431a1.074,1.074,0,0,1,2.148,0v6.627A1.073,1.073,0,0,1,28.981,50.132Z" transform="translate(-27.907 -41.357)" fill="#9f0925"/>
      </g>
      <g id="Grupo_986506" data-name="Grupo 986506" transform="translate(18.363 5.999)">
        <path id="Trazado_729839" data-name="Trazado 729839" d="M23.975,25.881H18.646a1.074,1.074,0,1,1,0-2.148H22.9V7.073a1.074,1.074,0,1,1,2.148,0V24.807A1.073,1.073,0,0,1,23.975,25.881Z" transform="translate(-17.572 -5.999)" fill="#9f0925"/>
      </g>
      <g id="Grupo_986507" data-name="Grupo 986507" transform="translate(13.804 21.452)">
        <path id="Trazado_729840" data-name="Trazado 729840" d="M16.679,27.093a3.352,3.352,0,1,1,3.352-3.352A3.356,3.356,0,0,1,16.679,27.093Zm0-4.557a1.2,1.2,0,1,0,1.2,1.2A1.206,1.206,0,0,0,16.679,22.536Z" transform="translate(-13.326 -20.389)" fill="#9f0925"/>
      </g>
      <g id="Grupo_986508" data-name="Grupo 986508" transform="translate(38.903 25.865)">
        <path id="Trazado_729841" data-name="Trazado 729841" d="M40.051,31.2A3.353,3.353,0,1,1,43.4,27.851,3.356,3.356,0,0,1,40.051,31.2Zm0-4.558a1.2,1.2,0,1,0,1.2,1.2A1.206,1.206,0,0,0,40.051,26.646Z" transform="translate(-36.698 -24.498)" fill="#9f0925"/>
      </g>
      <g id="Grupo_986509" data-name="Grupo 986509" transform="translate(46.358 20.93)">
        <path id="Trazado_729842" data-name="Trazado 729842" d="M46.993,26.608a3.353,3.353,0,1,1,3.353-3.353A3.356,3.356,0,0,1,46.993,26.608Zm0-4.558a1.2,1.2,0,1,0,1.2,1.205A1.206,1.206,0,0,0,46.993,22.05Z" transform="translate(-43.641 -19.902)" fill="#9f0925"/>
      </g>
      <g id="Grupo_986510" data-name="Grupo 986510" transform="translate(37.927 34.547)">
        <path id="Trazado_729843" data-name="Trazado 729843" d="M39.142,39.287a3.352,3.352,0,1,1,3.352-3.353A3.356,3.356,0,0,1,39.142,39.287Zm0-4.557a1.2,1.2,0,1,0,1.2,1.2A1.206,1.206,0,0,0,39.142,34.73Z" transform="translate(-35.789 -32.582)" fill="#9f0925"/>
      </g>
      <g id="Grupo_986511" data-name="Grupo 986511" transform="translate(27.184 39.414)">
        <path id="Trazado_729844" data-name="Trazado 729844" d="M29.138,43.819a3.352,3.352,0,1,1,3.353-3.352A3.356,3.356,0,0,1,29.138,43.819Zm0-4.557a1.2,1.2,0,1,0,1.205,1.2A1.206,1.206,0,0,0,29.138,39.262Z" transform="translate(-25.786 -37.114)" fill="#9f0925"/>
      </g>
      <g id="Grupo_986512" data-name="Grupo 986512" transform="translate(49.846 43.514)">
        <path id="Trazado_729845" data-name="Trazado 729845" d="M50.241,47.638a3.353,3.353,0,1,1,3.353-3.353A3.356,3.356,0,0,1,50.241,47.638Zm0-4.558a1.2,1.2,0,1,0,1.2,1.2A1.206,1.206,0,0,0,50.241,43.08Z" transform="translate(-46.889 -40.933)" fill="#9f0925"/>
      </g>
      <g id="Grupo_986513" data-name="Grupo 986513" transform="translate(35.648 44.385)">
        <path id="Trazado_729846" data-name="Trazado 729846" d="M37.02,48.448A3.352,3.352,0,1,1,40.373,45.1,3.356,3.356,0,0,1,37.02,48.448Zm0-4.557a1.2,1.2,0,1,0,1.2,1.2A1.206,1.206,0,0,0,37.02,43.891Z" transform="translate(-33.667 -41.743)" fill="#9f0925"/>
      </g>
      <g id="Grupo_986514" data-name="Grupo 986514" transform="translate(27.184 25.36)">
        <path id="Trazado_729847" data-name="Trazado 729847" d="M29.138,30.732a3.352,3.352,0,1,1,3.353-3.352A3.356,3.356,0,0,1,29.138,30.732Zm0-4.557a1.2,1.2,0,1,0,1.205,1.2A1.206,1.206,0,0,0,29.138,26.175Z" transform="translate(-25.786 -24.027)" fill="#9f0925"/>
      </g>
      <g id="Grupo_986515" data-name="Grupo 986515" transform="translate(16.082 29.916)">
        <path id="Trazado_729848" data-name="Trazado 729848" d="M16.522,55.9a1.073,1.073,0,0,1-1.074-1.074V35.287a1.073,1.073,0,0,1,1.074-1.074H28.828V29.344a1.074,1.074,0,0,1,2.148,0v5.942A1.073,1.073,0,0,1,29.9,36.36H17.6V54.827A1.073,1.073,0,0,1,16.522,55.9Z" transform="translate(-15.448 -28.271)" fill="#9f0925"/>
      </g>
      <g id="Grupo_986516" data-name="Grupo 986516" transform="translate(36.468 6.001)">
        <path id="Trazado_729849" data-name="Trazado 729849" d="M47.674,23.078A1.073,1.073,0,0,1,46.6,22V17.025H35.5a1.073,1.073,0,0,1-1.074-1.074V7.075a1.074,1.074,0,1,1,2.148,0v7.8h11.1a1.073,1.073,0,0,1,1.074,1.074V22A1.073,1.073,0,0,1,47.674,23.078Z" transform="translate(-34.431 -6.001)" fill="#9f0925"/>
      </g>
      <g id="Grupo_986517" data-name="Grupo 986517" transform="translate(22.148 46.666)">
        <path id="Trazado_729850" data-name="Trazado 729850" d="M37.946,54.75H22.171A1.073,1.073,0,0,1,21.1,53.676V44.941a1.074,1.074,0,1,1,2.148,0V52.6H36.872V47.214a1.074,1.074,0,1,1,2.148,0v6.462A1.073,1.073,0,0,1,37.946,54.75Z" transform="translate(-21.097 -43.867)" fill="#9f0925"/>
      </g>
      <g id="Grupo_986518" data-name="Grupo 986518" transform="translate(44.893 45.793)">
        <path id="Trazado_729851" data-name="Trazado 729851" d="M43.35,54.81a1.073,1.073,0,0,1-1.074-1.074V44.129a1.073,1.073,0,0,1,1.074-1.074H48.3a1.074,1.074,0,0,1,0,2.148H44.424v8.534A1.073,1.073,0,0,1,43.35,54.81Z" transform="translate(-42.276 -43.055)" fill="#9f0925"/>
      </g>
      <g id="Grupo_986521" data-name="Grupo 986521" transform="translate(6.867 28.428)">
        <g id="Grupo_986519" data-name="Grupo 986519">
          <path id="Trazado_729852" data-name="Trazado 729852" d="M10.22,33.59a3.353,3.353,0,1,1,3.353-3.353A3.356,3.356,0,0,1,10.22,33.59Zm0-4.558a1.2,1.2,0,1,0,1.2,1.2A1.206,1.206,0,0,0,10.22,29.033Z" transform="translate(-6.867 -26.885)" fill="#9f0925"/>
        </g>
        <g id="Grupo_986520" data-name="Grupo 986520" transform="translate(4.558 2.279)">
          <path id="Trazado_729853" data-name="Trazado 729853" d="M22.3,31.155H12.185a1.074,1.074,0,1,1,0-2.148H22.3a1.074,1.074,0,1,1,0,2.148Z" transform="translate(-11.111 -29.007)" fill="#9f0925"/>
        </g>
      </g>
    </g>
  </g>
</svg>
