<svg xmlns="http://www.w3.org/2000/svg" width="66" height="62" viewBox="0 0 66 62">
  <g id="Grupo_986464" data-name="Grupo 986464" transform="translate(-1149 -2628)">
    <g id="Rectángulo_344456" data-name="Rectángulo 344456" transform="translate(1149 2628)" fill="none" stroke="#9f0925" stroke-width="4">
      <rect width="66" height="62" rx="11" stroke="none"/>
      <rect x="2" y="2" width="62" height="58" rx="9" fill="none"/>
    </g>
    <path id="gestion-de-crisis" d="M30.833,3.385a.667.667,0,0,1,.667-.667h7.125a.667.667,0,0,1,0,1.333H31.5A.667.667,0,0,1,30.833,3.385Zm.667,9.64h7.125a.667.667,0,0,0,0-1.333H31.5a.667.667,0,1,0,0,1.333ZM31.5,22h7.125a.667.667,0,0,0,0-1.333H31.5A.667.667,0,1,0,31.5,22Zm0,8.974h7.125a.667.667,0,0,0,0-1.333H31.5a.667.667,0,1,0,0,1.333Zm0,8.974h7.125a.667.667,0,0,0,0-1.333H31.5a.667.667,0,0,0,0,1.333ZM27.489,5.373V4.052H11.547V9.657a3.829,3.829,0,0,1,2.691,1.881l2.307,4,1.862-3.488a.667.667,0,0,1,.588-.353h8.495V10.371a1.4,1.4,0,0,1,1.4-1.4H41.238a1.4,1.4,0,0,1,1.4,1.4v3.977a1.4,1.4,0,0,1-1.4,1.4H28.886a1.4,1.4,0,0,1-1.4-1.4V13.026H19.395L17.33,16.894l2.178,3.772h7.981V19.344a1.4,1.4,0,0,1,1.4-1.4H41.238a1.4,1.4,0,0,1,1.4,1.4v3.977a1.4,1.4,0,0,1-1.4,1.4H28.886a1.4,1.4,0,0,1-1.4-1.4V22H20.278l.991,1.716a3.88,3.88,0,0,1-2.262,5.66l.265.265H27.49V28.318a1.4,1.4,0,0,1,1.4-1.4H41.238a1.4,1.4,0,0,1,1.4,1.4v3.977a1.4,1.4,0,0,1-1.4,1.4H28.886a1.4,1.4,0,0,1-1.4-1.4V30.973H18.995a.666.666,0,0,1-.471-.2l-1.247-1.247H11.547v9.082H27.489V37.292a1.4,1.4,0,0,1,1.4-1.4H41.238a1.4,1.4,0,0,1,1.4,1.4v3.977a1.4,1.4,0,0,1-1.4,1.4H28.886a1.4,1.4,0,0,1-1.4-1.4V39.947H10.881a.667.667,0,0,1-.667-.667V29.531H3.85A3.877,3.877,0,0,1,.492,23.715L7.523,11.538a3.829,3.829,0,0,1,2.691-1.881V3.385a.667.667,0,0,1,.667-.667H27.489V1.4a1.4,1.4,0,0,1,1.4-1.4H41.238a1.4,1.4,0,0,1,1.4,1.4V5.374a1.4,1.4,0,0,1-1.4,1.4H28.886a1.4,1.4,0,0,1-1.4-1.4Zm1.333,35.895a.066.066,0,0,0,.064.064H41.238a.066.066,0,0,0,.064-.064V37.292a.066.066,0,0,0-.064-.064H28.886a.066.066,0,0,0-.064.064Zm0-8.974a.066.066,0,0,0,.064.064H41.238a.066.066,0,0,0,.064-.064V28.318a.066.066,0,0,0-.064-.064H28.886a.066.066,0,0,0-.064.064Zm0-8.974a.066.066,0,0,0,.064.064H41.238a.066.066,0,0,0,.064-.064V19.344a.066.066,0,0,0-.064-.064H28.886a.066.066,0,0,0-.064.064Zm0-8.974a.066.066,0,0,0,.064.064H41.238a.066.066,0,0,0,.064-.064V10.371a.066.066,0,0,0-.064-.064H28.886a.066.066,0,0,0-.064.064ZM10.881,10.933a2.518,2.518,0,0,0-2.2,1.272L1.647,24.382A2.544,2.544,0,0,0,3.85,28.2H17.911a2.544,2.544,0,0,0,2.2-3.816L13.084,12.2a2.518,2.518,0,0,0-2.2-1.272ZM28.823,5.373a.066.066,0,0,0,.064.064H41.238a.066.066,0,0,0,.064-.064V1.4a.066.066,0,0,0-.064-.064H28.886a.066.066,0,0,0-.064.064Zm-16.2,20.086a1.743,1.743,0,1,1-1.743-1.743A1.745,1.745,0,0,1,12.624,25.459Zm-1.333,0a.41.41,0,1,0-.41.41A.41.41,0,0,0,11.291,25.459Zm-.622-11.23h.425A1.507,1.507,0,0,1,12.6,15.791l-.212,5.883a1.507,1.507,0,0,1-3.012,0l-.212-5.883a1.507,1.507,0,0,1,1.506-1.562Zm.425,1.333h-.425a.174.174,0,0,0-.174.18l.212,5.883a.174.174,0,0,0,.347,0l.212-5.883a.174.174,0,0,0-.174-.18Z" transform="translate(1157.717 2637.667)" fill="#9f0925"/>
  </g>
</svg>
