<svg xmlns="http://www.w3.org/2000/svg" width="66" height="62" viewBox="0 0 66 62">
  <g id="Grupo_986465" data-name="Grupo 986465" transform="translate(-1149 -2628)">
    <g id="Rectángulo_344456" data-name="Rectángulo 344456" transform="translate(1149 2628)" fill="none" stroke="#9f0925" stroke-width="4">
      <rect width="66" height="62" rx="11" stroke="none"/>
      <rect x="2" y="2" width="62" height="58" rx="9" fill="none"/>
    </g>
    <g id="cronograma" transform="translate(1159 2635.2)">
      <path id="Trazado_729856" data-name="Trazado 729856" d="M39.419,3.8H5a3.033,3.033,0,0,0-3,3V38.807a2.991,2.991,0,0,0,3,3h34.42a2.991,2.991,0,0,0,3-3V6.8a3.033,3.033,0,0,0-3-3Z" transform="translate(0)" fill="none" stroke="#9f0925" stroke-linecap="round" stroke-linejoin="round" stroke-miterlimit="10" stroke-width="1.5"/>
      <path id="Trazado_729857" data-name="Trazado 729857" d="M42.418,19.1H2" transform="translate(0 -5.326)" fill="none" stroke="#9f0925" stroke-linecap="round" stroke-linejoin="round" stroke-miterlimit="10" stroke-width="1.5"/>
      <path id="Trazado_729858" data-name="Trazado 729858" d="M12.7,25.7V45.127" transform="translate(-3.725 -7.623)" fill="none" stroke="#9f0925" stroke-linecap="round" stroke-linejoin="round" stroke-miterlimit="10" stroke-width="1.5"/>
      <path id="Trazado_729859" data-name="Trazado 729859" d="M22.9,49.373V37.9" transform="translate(-7.275 -11.87)" fill="none" stroke="#9f0925" stroke-linecap="round" stroke-linejoin="round" stroke-miterlimit="10" stroke-width="1.5"/>
      <path id="Trazado_729860" data-name="Trazado 729860" d="M22.9,25.9v-.2" transform="translate(-7.275 -7.623)" fill="none" stroke="#9f0925" stroke-linecap="round" stroke-linejoin="round" stroke-miterlimit="10" stroke-width="1.5"/>
      <path id="Trazado_729861" data-name="Trazado 729861" d="M33,25.7V45.127" transform="translate(-10.791 -7.623)" fill="none" stroke="#9f0925" stroke-linecap="round" stroke-linejoin="round" stroke-miterlimit="10" stroke-width="1.5"/>
      <path id="Trazado_729862" data-name="Trazado 729862" d="M43.2,52.4V46.6" transform="translate(-14.342 -14.899)" fill="none" stroke="#9f0925" stroke-linecap="round" stroke-linejoin="round" stroke-miterlimit="10" stroke-width="1.5"/>
      <path id="Trazado_729863" data-name="Trazado 729863" d="M43.2,31.567V25.7" transform="translate(-14.342 -7.623)" fill="none" stroke="#9f0925" stroke-linecap="round" stroke-linejoin="round" stroke-miterlimit="10" stroke-width="1.5"/>
      <path id="Trazado_729864" data-name="Trazado 729864" d="M53.3,25.7V45.127" transform="translate(-17.857 -7.623)" fill="none" stroke="#9f0925" stroke-linecap="round" stroke-linejoin="round" stroke-miterlimit="10" stroke-width="1.5"/>
      <path id="Trazado_729865" data-name="Trazado 729865" d="M48.618,32H28.8" transform="translate(-9.329 -9.816)" fill="none" stroke="#9f0925" stroke-linecap="round" stroke-linejoin="round" stroke-miterlimit="10" stroke-width="1.5"/>
      <path id="Trazado_729866" data-name="Trazado 729866" d="M13.384,32H6.8" transform="translate(-1.671 -9.816)" fill="none" stroke="#9f0925" stroke-linecap="round" stroke-linejoin="round" stroke-miterlimit="10" stroke-width="1.5"/>
      <path id="Trazado_729867" data-name="Trazado 729867" d="M55.684,40.6H49.1" transform="translate(-16.395 -12.81)" fill="none" stroke="#9f0925" stroke-linecap="round" stroke-linejoin="round" stroke-miterlimit="10" stroke-width="1.5"/>
      <path id="Trazado_729868" data-name="Trazado 729868" d="M26.618,40.6H6.8" transform="translate(-1.671 -12.81)" fill="none" stroke="#9f0925" stroke-linecap="round" stroke-linejoin="round" stroke-miterlimit="10" stroke-width="1.5"/>
      <path id="Trazado_729869" data-name="Trazado 729869" d="M6.8,49.3H40.96" transform="translate(-1.671 -15.838)" fill="none" stroke="#9f0925" stroke-linecap="round" stroke-linejoin="round" stroke-miterlimit="10" stroke-width="1.5"/>
      <circle id="Elipse_5922" data-name="Elipse 5922" cx="1.891" cy="1.891" r="1.891" transform="translate(31.27 6.864)" fill="none" stroke="#9f0925" stroke-linecap="round" stroke-linejoin="round" stroke-miterlimit="10" stroke-width="1.5"/>
      <circle id="Elipse_5923" data-name="Elipse 5923" cx="1.891" cy="1.891" r="1.891" transform="translate(9.367 6.864)" fill="none" stroke="#9f0925" stroke-linecap="round" stroke-linejoin="round" stroke-miterlimit="10" stroke-width="1.5"/>
      <circle id="Elipse_5924" data-name="Elipse 5924" cx="1.891" cy="1.891" r="1.891" transform="translate(26.968 25.9)" fill="none" stroke="#9f0925" stroke-linecap="round" stroke-linejoin="round" stroke-miterlimit="10" stroke-width="1.5"/>
      <circle id="Elipse_5925" data-name="Elipse 5925" cx="1.891" cy="1.891" r="1.891" transform="translate(13.669 20.293)" fill="none" stroke="#9f0925" stroke-linecap="round" stroke-linejoin="round" stroke-miterlimit="10" stroke-width="1.5"/>
    </g>
  </g>
</svg>
