<svg xmlns="http://www.w3.org/2000/svg" xmlns:xlink="http://www.w3.org/1999/xlink" width="66" height="62" viewBox="0 0 66 62">
  <defs>
    <clipPath id="clip-path">
      <path id="path2223" d="M0-682.665H45.121v45.121H0Z" transform="translate(0 682.665)" fill="#9f0925"/>
    </clipPath>
  </defs>
  <g id="Grupo_986466" data-name="Grupo 986466" transform="translate(-1149 -2628)">
    <g id="Rectángulo_344456" data-name="Rectángulo 344456" transform="translate(1149 2628)" fill="none" stroke="#9f0925" stroke-width="4">
      <rect width="66" height="62" rx="11" stroke="none"/>
      <rect x="2" y="2" width="62" height="58" rx="9" fill="none"/>
    </g>
    <g id="g2217" transform="translate(1159 3318.665)">
      <g id="g2219" transform="translate(0 -682.665)">
        <g id="g2221" transform="translate(0 0)" clip-path="url(#clip-path)">
          <g id="g2227" transform="translate(3.932 19.649)">
            <path id="path2229" d="M-75.2-44.057a2.915,2.915,0,0,1,2.912,2.912A2.915,2.915,0,0,1-75.2-38.233a2.915,2.915,0,0,1-2.912-2.912A2.915,2.915,0,0,1-75.2-44.057Zm0,4.5a1.592,1.592,0,0,0,1.59-1.59,1.592,1.592,0,0,0-1.59-1.59,1.592,1.592,0,0,0-1.59,1.59A1.592,1.592,0,0,0-75.2-39.555Z" transform="translate(78.116 44.057)" fill="#9f0925"/>
          </g>
          <g id="g2231" transform="translate(0 0.403)">
            <path id="path2233" d="M-171.422-10h9.543a1.916,1.916,0,0,1,1.913,1.913V4.183A1.916,1.916,0,0,1-161.879,6.1h-2.931l-.864,1.174a1.206,1.206,0,0,1-.976.491,1.206,1.206,0,0,1-.977-.491l-.879-1.182-2.916.008a1.915,1.915,0,0,1-1.913-1.913V-8.087A1.915,1.915,0,0,1-171.422-10Zm9.543,14.775a.592.592,0,0,0,.591-.591V-8.087a.592.592,0,0,0-.591-.591h-9.543a.592.592,0,0,0-.591.591V4.183a.592.592,0,0,0,.591.591h2.931a1.308,1.308,0,0,1,1.045.525l.8,1.069.8-1.069a1.308,1.308,0,0,1,1.045-.525Z" transform="translate(173.336 10)" fill="#9f0925"/>
          </g>
          <g id="g2235" transform="translate(4.802 3.907)">
            <path id="path2237" d="M-6.894-8.678H-9.339A.661.661,0,0,1-10-9.339.661.661,0,0,1-9.339-10h2.445a.661.661,0,0,1,.661.661A.661.661,0,0,1-6.894-8.678Z" transform="translate(10 10)" fill="#9f0925"/>
          </g>
          <g id="g2239" transform="translate(3.377 6.459)">
            <path id="path2241" d="M-4.044-8.678H-9.339A.661.661,0,0,1-10-9.339.661.661,0,0,1-9.339-10h5.295a.661.661,0,0,1,.661.661A.661.661,0,0,1-4.044-8.678Z" transform="translate(10 10)" fill="#9f0925"/>
          </g>
          <g id="g2243" transform="translate(3.377 9.011)">
            <path id="path2245" d="M-4.044-8.678H-9.339A.661.661,0,0,1-10-9.339.661.661,0,0,1-9.339-10h5.295a.661.661,0,0,1,.661.661A.661.661,0,0,1-4.044-8.678Z" transform="translate(10 10)" fill="#9f0925"/>
          </g>
          <g id="g2247" transform="translate(3.377 11.562)">
            <path id="path2249" d="M-4.044-8.678H-9.339A.661.661,0,0,1-10-9.339.661.661,0,0,1-9.339-10h5.295a.661.661,0,0,1,.661.661A.661.661,0,0,1-4.044-8.678Z" transform="translate(10 10)" fill="#9f0925"/>
          </g>
          <g id="g2251" transform="translate(14.515 19.649)">
            <path id="path2253" d="M-75.2-44.057a2.915,2.915,0,0,1,2.912,2.912A2.915,2.915,0,0,1-75.2-38.233a2.915,2.915,0,0,1-2.912-2.912A2.915,2.915,0,0,1-75.2-44.057Zm0,4.5a1.592,1.592,0,0,0,1.59-1.59,1.592,1.592,0,0,0-1.59-1.59,1.592,1.592,0,0,0-1.59,1.59A1.592,1.592,0,0,0-75.2-39.555Z" transform="translate(78.116 44.057)" fill="#9f0925"/>
          </g>
          <g id="g2255" transform="translate(10.584 26.956)">
            <path id="path2257" d="M-161.879-240.968h-9.543a1.915,1.915,0,0,1-1.913-1.913v-12.27a1.916,1.916,0,0,1,1.913-1.913h2.931l.864-1.174a1.206,1.206,0,0,1,.977-.491,1.206,1.206,0,0,1,.977.491l.879,1.182,2.916-.008a1.916,1.916,0,0,1,1.913,1.913v12.27A1.915,1.915,0,0,1-161.879-240.968Zm-9.543-14.775a.592.592,0,0,0-.591.591v12.27a.592.592,0,0,0,.591.591h9.543a.592.592,0,0,0,.591-.591v-12.27a.592.592,0,0,0-.591-.591h-2.931a1.308,1.308,0,0,1-1.045-.525l-.8-1.069-.8,1.069a1.308,1.308,0,0,1-1.045.525Z" transform="translate(173.336 258.73)" fill="#9f0925"/>
          </g>
          <g id="g2259" transform="translate(15.385 32.237)">
            <path id="path2261" d="M-6.894-8.678H-9.339A.661.661,0,0,1-10-9.339.661.661,0,0,1-9.339-10h2.445a.661.661,0,0,1,.661.661A.661.661,0,0,1-6.894-8.678Z" transform="translate(10 10)" fill="#9f0925"/>
          </g>
          <g id="g2263" transform="translate(13.96 34.789)">
            <path id="path2265" d="M-4.044-8.678H-9.339A.661.661,0,0,1-10-9.339.661.661,0,0,1-9.339-10h5.295a.661.661,0,0,1,.661.661A.661.661,0,0,1-4.044-8.678Z" transform="translate(10 10)" fill="#9f0925"/>
          </g>
          <g id="g2267" transform="translate(13.96 37.34)">
            <path id="path2269" d="M-4.044-8.678H-9.339A.661.661,0,0,1-10-9.339.661.661,0,0,1-9.339-10h5.295a.661.661,0,0,1,.661.661A.661.661,0,0,1-4.044-8.678Z" transform="translate(10 10)" fill="#9f0925"/>
          </g>
          <g id="g2271" transform="translate(13.96 39.892)">
            <path id="path2273" d="M-4.044-8.678H-9.339A.661.661,0,0,1-10-9.339.661.661,0,0,1-9.339-10h5.295a.661.661,0,0,1,.661.661A.661.661,0,0,1-4.044-8.678Z" transform="translate(10 10)" fill="#9f0925"/>
          </g>
          <g id="g2275" transform="translate(25.099 19.649)">
            <path id="path2277" d="M-75.2-44.057a2.915,2.915,0,0,1,2.912,2.912A2.915,2.915,0,0,1-75.2-38.233a2.915,2.915,0,0,1-2.912-2.912A2.915,2.915,0,0,1-75.2-44.057Zm0,4.5a1.592,1.592,0,0,0,1.59-1.59,1.592,1.592,0,0,0-1.59-1.59,1.592,1.592,0,0,0-1.59,1.59A1.592,1.592,0,0,0-75.2-39.555Z" transform="translate(78.116 44.057)" fill="#9f0925"/>
          </g>
          <g id="g2279" transform="translate(25.969 3.907)">
            <path id="path2281" d="M-6.894-8.678H-9.339A.661.661,0,0,1-10-9.339.661.661,0,0,1-9.339-10h2.445a.661.661,0,0,1,.661.661A.661.661,0,0,1-6.894-8.678Z" transform="translate(10 10)" fill="#9f0925"/>
          </g>
          <g id="g2283" transform="translate(24.544 6.459)">
            <path id="path2285" d="M-4.044-8.678H-9.339A.661.661,0,0,1-10-9.339.661.661,0,0,1-9.339-10h5.295a.661.661,0,0,1,.661.661A.661.661,0,0,1-4.044-8.678Z" transform="translate(10 10)" fill="#9f0925"/>
          </g>
          <g id="g2287" transform="translate(24.544 9.011)">
            <path id="path2289" d="M-4.044-8.678H-9.339A.661.661,0,0,1-10-9.339.661.661,0,0,1-9.339-10h5.295a.661.661,0,0,1,.661.661A.661.661,0,0,1-4.044-8.678Z" transform="translate(10 10)" fill="#9f0925"/>
          </g>
          <g id="g2291" transform="translate(24.544 11.562)">
            <path id="path2293" d="M-4.044-8.678H-9.339A.661.661,0,0,1-10-9.339.661.661,0,0,1-9.339-10h5.295a.661.661,0,0,1,.661.661A.661.661,0,0,1-4.044-8.678Z" transform="translate(10 10)" fill="#9f0925"/>
          </g>
          <g id="g2295" transform="translate(35.683 19.649)">
            <path id="path2297" d="M-75.2-44.057a2.915,2.915,0,0,1,2.912,2.912A2.915,2.915,0,0,1-75.2-38.233a2.915,2.915,0,0,1-2.912-2.912A2.915,2.915,0,0,1-75.2-44.057Zm0,4.5a1.592,1.592,0,0,0,1.59-1.59,1.592,1.592,0,0,0-1.59-1.59,1.592,1.592,0,0,0-1.59,1.59A1.592,1.592,0,0,0-75.2-39.555Z" transform="translate(78.116 44.057)" fill="#9f0925"/>
          </g>
          <g id="g2299" transform="translate(36.553 32.237)">
            <path id="path2301" d="M-6.894-8.678H-9.339A.661.661,0,0,1-10-9.339.661.661,0,0,1-9.339-10h2.445a.661.661,0,0,1,.661.661A.661.661,0,0,1-6.894-8.678Z" transform="translate(10 10)" fill="#9f0925"/>
          </g>
          <g id="g2303" transform="translate(35.128 34.789)">
            <path id="path2305" d="M-4.044-8.678H-9.339A.661.661,0,0,1-10-9.339.661.661,0,0,1-9.339-10h5.295a.661.661,0,0,1,.661.661A.661.661,0,0,1-4.044-8.678Z" transform="translate(10 10)" fill="#9f0925"/>
          </g>
          <g id="g2307" transform="translate(35.128 37.34)">
            <path id="path2309" d="M-4.044-8.678H-9.339A.661.661,0,0,1-10-9.339.661.661,0,0,1-9.339-10h5.295a.661.661,0,0,1,.661.661A.661.661,0,0,1-4.044-8.678Z" transform="translate(10 10)" fill="#9f0925"/>
          </g>
          <g id="g2311" transform="translate(35.128 39.892)">
            <path id="path2313" d="M-4.044-8.678H-9.339A.661.661,0,0,1-10-9.339.661.661,0,0,1-9.339-10h5.295a.661.661,0,0,1,.661.661A.661.661,0,0,1-4.044-8.678Z" transform="translate(10 10)" fill="#9f0925"/>
          </g>
          <g id="g2315" transform="translate(40.185 21.9)">
            <path id="path2317" d="M-5.725-8.678H-9.339A.661.661,0,0,1-10-9.339.661.661,0,0,1-9.339-10h3.614a.661.661,0,0,1,.661.661A.661.661,0,0,1-5.725-8.678Z" transform="translate(10 10)" fill="#9f0925"/>
          </g>
          <g id="g2319" transform="translate(29.601 21.9)">
            <path id="path2321" d="M-3.258-8.678H-9.339A.661.661,0,0,1-10-9.339.661.661,0,0,1-9.339-10h6.081a.661.661,0,0,1,.661.661A.661.661,0,0,1-3.258-8.678Z" transform="translate(10 10)" fill="#9f0925"/>
          </g>
          <g id="g2323" transform="translate(19.017 21.9)">
            <path id="path2325" d="M-3.258-8.678H-9.339A.661.661,0,0,1-10-9.339.661.661,0,0,1-9.339-10h6.081a.661.661,0,0,1,.661.661A.661.661,0,0,1-3.258-8.678Z" transform="translate(10 10)" fill="#9f0925"/>
          </g>
          <g id="g2327" transform="translate(8.434 21.9)">
            <path id="path2329" d="M-3.258-8.678H-9.339A.661.661,0,0,1-10-9.339.661.661,0,0,1-9.339-10h6.081a.661.661,0,0,1,.661.661A.661.661,0,0,1-3.258-8.678Z" transform="translate(10 10)" fill="#9f0925"/>
          </g>
          <g id="g2331" transform="translate(0 21.9)">
            <path id="path2333" d="M-5.407-8.678H-9.339A.661.661,0,0,1-10-9.339.661.661,0,0,1-9.339-10h3.932a.661.661,0,0,1,.661.661A.661.661,0,0,1-5.407-8.678Z" transform="translate(10 10)" fill="#9f0925"/>
          </g>
          <g id="g2335" transform="translate(31.751 26.956)">
            <path id="path2337" d="M-115.416-240.968h-3.071a.661.661,0,0,1-.661-.661.661.661,0,0,1,.661-.661h3.071a.592.592,0,0,0,.591-.591v-12.27a.592.592,0,0,0-.591-.591h-2.931a1.308,1.308,0,0,1-1.045-.525l-.8-1.069-.795,1.069a1.309,1.309,0,0,1-1.045.525h-2.931a.592.592,0,0,0-.591.591v12.27a.592.592,0,0,0,.591.591h3.388a.661.661,0,0,1,.661.661.661.661,0,0,1-.661.661h-3.388a1.915,1.915,0,0,1-1.913-1.913v-12.27a1.915,1.915,0,0,1,1.913-1.913h2.931l.864-1.174a1.206,1.206,0,0,1,.976-.491,1.206,1.206,0,0,1,.977.491l.879,1.182,2.916-.008a1.915,1.915,0,0,1,1.913,1.913v12.27A1.915,1.915,0,0,1-115.416-240.968Z" transform="translate(126.873 258.73)" fill="#9f0925"/>
          </g>
          <g id="g2339" transform="translate(21.167 0.403)">
            <path id="path2341" d="M-185.6-84.679a1.206,1.206,0,0,1-.976-.491l-.879-1.182-2.916.008a1.916,1.916,0,0,1-1.913-1.913v-12.27a1.916,1.916,0,0,1,1.913-1.913h9.543a1.916,1.916,0,0,1,1.913,1.913v4.858a.661.661,0,0,1-.661.661.661.661,0,0,1-.661-.661v-4.858a.592.592,0,0,0-.591-.591h-9.543a.592.592,0,0,0-.591.591v12.27a.592.592,0,0,0,.591.591h2.931a1.308,1.308,0,0,1,1.045.525l.8,1.069.8-1.069a1.308,1.308,0,0,1,1.045-.525h2.931a.592.592,0,0,0,.591-.591v-4.328a.661.661,0,0,1,.661-.661.661.661,0,0,1,.661.661v4.328a1.915,1.915,0,0,1-1.913,1.913h-2.931l-.864,1.174A1.206,1.206,0,0,1-185.6-84.679Z" transform="translate(192.283 102.441)" fill="#9f0925"/>
          </g>
        </g>
      </g>
    </g>
  </g>
</svg>
