<svg xmlns="http://www.w3.org/2000/svg" width="716" height="440.849" viewBox="0 0 716 440.849">
  <g id="Grupo_986709" data-name="Grupo 986709" transform="translate(-179.5 -8892.5)">
    <g id="Grupo_986688" data-name="Grupo 986688">
      <path id="Trazado_729552" data-name="Trazado 729552" d="M0,0H71.993V121.3H0Z" transform="translate(180 9078.407)" fill="#effefe" stroke="#000" stroke-miterlimit="8" stroke-width="1"/>
      <path id="Trazado_731614" data-name="Trazado 731614" d="M5.668-1.993h-3L2.05,0H.114L3.231-9.242h1.9L8.233,0H6.3ZM3.129-3.447H5.218L4.2-6.7H4.158Z" transform="translate(187.104 9091.886)"/>
      <path id="Trazado_731615" data-name="Trazado 731615" d="M2.7-1.422H6.843V0H.851V-9.242H2.7Z" transform="translate(187.656 9108.651)"/>
      <path id="Trazado_731616" data-name="Trazado 731616" d="M5.63-2.431h.038L8.042-9.242h2.418V0H8.607V-6.31l-.038-.006L6.284,0H5.027L2.742-6.329,2.7-6.322V0H.851V-9.242H3.282Z" transform="translate(185.501 9125.417)"/>
      <path id="Trazado_731617" data-name="Trazado 731617" d="M5.668-1.993h-3L2.05,0H.114L3.231-9.242h1.9L8.233,0H6.3ZM3.129-3.447H5.218L4.2-6.7H4.158Z" transform="translate(187.104 9142.183)"/>
      <path id="Trazado_731618" data-name="Trazado 731618" d="M7.782-3.06l.013.038A2.893,2.893,0,0,1,6.894-.7,3.675,3.675,0,0,1,4.335.133,3.543,3.543,0,0,1,1.65-.936,3.837,3.837,0,0,1,.628-3.7V-5.535a3.907,3.907,0,0,1,1-2.764A3.4,3.4,0,0,1,4.24-9.375a3.9,3.9,0,0,1,2.641.825,2.841,2.841,0,0,1,.927,2.323l-.013.038h-1.8a1.817,1.817,0,0,0-.428-1.323A1.787,1.787,0,0,0,4.24-7.947a1.494,1.494,0,0,0-1.3.67,2.962,2.962,0,0,0-.467,1.73V-3.7a2.874,2.874,0,0,0,.492,1.739,1.6,1.6,0,0,0,1.368.673,1.627,1.627,0,0,0,1.241-.435A1.892,1.892,0,0,0,5.986-3.06Z" transform="translate(187.104 9158.948)"/>
      <path id="Trazado_731619" data-name="Trazado 731619" d="M6.132-4.062H2.7v2.641H6.779V0H.851V-9.242H6.767v1.428H2.7v2.323H6.132ZM4.183-11.845H6.246l.013.038L4.5-10.156H2.92Z" transform="translate(187.656 9174.728)"/>
      <path id="Trazado_731620" data-name="Trazado 731620" d="M8.322,0H6.468L2.742-6.233,2.7-6.227V0H.851V-9.242H2.7L6.43-3.015l.038-.006V-9.242H8.322Z" transform="translate(186.611 9191.492)"/>
      <path id="Trazado_729553" data-name="Trazado 729553" d="M78.879-202.5,56.69-149.245,34.5-202.5Z" transform="translate(173.5 9329.5)" fill="#fff" fill-rule="evenodd"/>
      <path id="Trazado_729554" data-name="Trazado 729554" d="M0,0,22.19,53.255,44.379,0Z" transform="translate(207.5 9127.5)" fill="none" stroke="#000" stroke-miterlimit="8" stroke-width="1"/>
      <path id="Trazado_731621" data-name="Trazado 731621" d="M1.367-5.055l.656-6.32h5.7v1.367H3.32L2.953-6.734a3.511,3.511,0,0,1,.813-.449,2.858,2.858,0,0,1,1.016-.184,3.1,3.1,0,0,1,2.473.988,3.992,3.992,0,0,1,.895,2.754A4,4,0,0,1,7.23-.875,3.382,3.382,0,0,1,4.555.164,3.666,3.666,0,0,1,2.148-.625a2.731,2.731,0,0,1-.922-2.32l.016-.047H2.633a1.9,1.9,0,0,0,.535,1.441,1.924,1.924,0,0,0,1.387.512A1.816,1.816,0,0,0,6.07-1.727a2.976,2.976,0,0,0,.539-1.883,2.71,2.71,0,0,0-.543-1.758,1.835,1.835,0,0,0-1.512-.672,2.416,2.416,0,0,0-1.312.273,1.6,1.6,0,0,0-.6.844Z" transform="translate(224.775 9159.375)"/>
    </g>
    <g id="Grupo_986692" data-name="Grupo 986692">
      <path id="Trazado_729556" data-name="Trazado 729556" d="M0,0H188.366V96.648H0Z" transform="translate(340.5 9073.5)" fill="#effefe" stroke="#000" stroke-miterlimit="8" stroke-width="1"/>
      <g id="Grupo_986691" data-name="Grupo 986691" transform="translate(3 4.686)">
        <path id="Trazado_731622" data-name="Trazado 731622" d="M7.413-2.606H3.495L2.681,0H.149L4.225-12.086H6.707L10.766,0H8.234Zm-3.32-1.9H6.823L5.487-8.766h-.05ZM5.9-15.489H8.6l.017.05-2.3,2.158H4.25ZM14.35-4.831V0H11.927V-12.086H16.11a5.011,5.011,0,0,1,3.233.942A3.189,3.189,0,0,1,20.51-8.517a2.65,2.65,0,0,1-.494,1.606,3.44,3.44,0,0,1-1.44,1.092,2.6,2.6,0,0,1,1.54,1.054,3.342,3.342,0,0,1,.469,1.826v.888a4.394,4.394,0,0,0,.137,1.058,1.455,1.455,0,0,0,.469.818V0h-2.5a1.342,1.342,0,0,1-.427-.88,7.73,7.73,0,0,1-.1-1.187v-.855a1.921,1.921,0,0,0-.494-1.407,1.873,1.873,0,0,0-1.4-.5Zm0-1.868h1.718a2.273,2.273,0,0,0,1.519-.432,1.6,1.6,0,0,0,.5-1.278,1.759,1.759,0,0,0-.5-1.32,2.028,2.028,0,0,0-1.473-.49H14.35ZM29.664-5.312H25.181v3.453H30.51V0H22.757V-12.086h7.736v1.868H25.181V-7.18h4.482Zm8.847,2.706H34.593L33.779,0H31.247l4.076-12.086H37.8L41.864,0H39.332Zm-3.32-1.9h2.731L36.585-8.766h-.05ZM47.256,0V-12.086h4.217a4.987,4.987,0,0,1,3.652,1.415,4.879,4.879,0,0,1,1.436,3.632v2a4.861,4.861,0,0,1-1.436,3.632A5,5,0,0,1,51.473,0ZM49.68-10.218v8.359h1.793A2.366,2.366,0,0,0,53.4-2.752a3.493,3.493,0,0,0,.73-2.287V-7.056A3.463,3.463,0,0,0,53.4-9.33a2.371,2.371,0,0,0-1.926-.888ZM65.408-5.312H60.926v3.453h5.329V0H58.5V-12.086h7.736v1.868H60.926V-7.18h4.482Zm9.2.93V0H72.187V-12.086H76.81a4.76,4.76,0,0,1,3.279,1.063,3.562,3.562,0,0,1,1.2,2.8,3.537,3.537,0,0,1-1.2,2.789A4.784,4.784,0,0,1,76.81-4.383Zm0-1.868h2.2A2.016,2.016,0,0,0,78.346-6.8a1.963,1.963,0,0,0,.523-1.407,2.055,2.055,0,0,0-.519-1.44,1.981,1.981,0,0,0-1.54-.569h-2.2Zm15.313.938H85.441v3.453H90.77V0H83.017V-12.086h7.736v1.868H85.441V-7.18h4.482Zm4.97.481V0H92.47V-12.086h4.184a5.011,5.011,0,0,1,3.233.942,3.189,3.189,0,0,1,1.166,2.627,2.65,2.65,0,0,1-.494,1.606,3.44,3.44,0,0,1-1.44,1.092,2.6,2.6,0,0,1,1.54,1.054,3.342,3.342,0,0,1,.469,1.826v.888a4.394,4.394,0,0,0,.137,1.058,1.455,1.455,0,0,0,.469.818V0h-2.5a1.342,1.342,0,0,1-.427-.88,7.73,7.73,0,0,1-.1-1.187v-.855a1.921,1.921,0,0,0-.494-1.407,1.873,1.873,0,0,0-1.4-.5Zm0-1.868h1.718a2.273,2.273,0,0,0,1.519-.432,1.6,1.6,0,0,0,.5-1.278,1.759,1.759,0,0,0-.5-1.32,2.028,2.028,0,0,0-1.473-.49h-1.76Zm15.471,1.677h-4.64V0H103.3V-12.086h7.911v1.868h-5.487V-6.89h4.64Zm12.167.066a5.075,5.075,0,0,1-1.4,3.681A4.857,4.857,0,0,1,117.477.174a4.812,4.812,0,0,1-3.636-1.453,5.1,5.1,0,0,1-1.395-3.677V-7.13a5.107,5.107,0,0,1,1.39-3.673,4.782,4.782,0,0,1,3.623-1.457,4.87,4.87,0,0,1,3.661,1.457,5.066,5.066,0,0,1,1.411,3.673Zm-2.416-2.191a3.655,3.655,0,0,0-.706-2.316,2.336,2.336,0,0,0-1.951-.9,2.262,2.262,0,0,0-1.913.9,3.731,3.731,0,0,0-.685,2.316v2.191a3.758,3.758,0,0,0,.689,2.341,2.282,2.282,0,0,0,1.926.9,2.313,2.313,0,0,0,1.942-.9,3.727,3.727,0,0,0,.7-2.341Zm6.755,2.316V0h-2.424V-12.086h4.184a5.011,5.011,0,0,1,3.233.942,3.189,3.189,0,0,1,1.166,2.627,2.65,2.65,0,0,1-.494,1.606,3.44,3.44,0,0,1-1.44,1.092,2.6,2.6,0,0,1,1.54,1.054,3.342,3.342,0,0,1,.469,1.826v.888a4.394,4.394,0,0,0,.137,1.058,1.455,1.455,0,0,0,.469.818V0h-2.5a1.342,1.342,0,0,1-.427-.88,7.729,7.729,0,0,1-.1-1.187v-.855a1.921,1.921,0,0,0-.494-1.407,1.873,1.873,0,0,0-1.4-.5Zm0-1.868h1.718a2.273,2.273,0,0,0,1.519-.432,1.6,1.6,0,0,0,.5-1.278,1.759,1.759,0,0,0-.5-1.32,2.028,2.028,0,0,0-1.473-.49h-1.76Zm14.707,4.092h-3.918L136.848,0h-2.532l4.076-12.086h2.482L144.933,0H142.4Zm-3.32-1.9h2.731l-1.336-4.258h-.05Zm10.258-.324V0h-2.424V-12.086h4.184a5.011,5.011,0,0,1,3.233.942,3.189,3.189,0,0,1,1.166,2.627,2.65,2.65,0,0,1-.494,1.606,3.44,3.44,0,0,1-1.44,1.092,2.6,2.6,0,0,1,1.54,1.054,3.342,3.342,0,0,1,.469,1.826v.888a4.394,4.394,0,0,0,.137,1.058,1.455,1.455,0,0,0,.469.818V0h-2.5a1.342,1.342,0,0,1-.427-.88,7.729,7.729,0,0,1-.1-1.187v-.855a1.921,1.921,0,0,0-.494-1.407,1.873,1.873,0,0,0-1.4-.5Zm0-1.868h1.718a2.273,2.273,0,0,0,1.519-.432,1.6,1.6,0,0,0,.5-1.278,1.759,1.759,0,0,0-.5-1.32,2.028,2.028,0,0,0-1.473-.49h-1.76Zm14.707,4.092h-3.918L158.493,0h-2.532l4.076-12.086h2.482L166.578,0h-2.532Zm-3.32-1.9h2.731L161.3-8.766h-.05Z" transform="translate(348.851 9101.804)"/>
        <g id="Grupo_986690" data-name="Grupo 986690" transform="translate(-4)">
          <path id="Trazado_729562" data-name="Trazado 729562" d="M199.5-204.707A14.793,14.793,0,0,1,214.293-219.5a14.793,14.793,0,0,1,14.793,14.793,14.793,14.793,0,0,1-14.793,14.793A14.793,14.793,0,0,1,199.5-204.707Z" transform="translate(170.5 9337.5)" fill="#fff" fill-rule="evenodd"/>
          <path id="Trazado_729563" data-name="Trazado 729563" d="M0,14.793A14.793,14.793,0,1,1,14.793,29.586,14.793,14.793,0,0,1,0,14.793Z" transform="translate(370.5 9117.5)" fill="none" stroke="#000" stroke-miterlimit="8" stroke-width="1"/>
          <path id="Trazado_731623" data-name="Trazado 731623" d="M8.3-10.164A16.909,16.909,0,0,0,5.391-5.641a12.12,12.12,0,0,0-.758,4.4V0H3.094V-1.242a11,11,0,0,1,.949-4.645,20.351,20.351,0,0,1,2.746-4.277H.758v-1.211H8.3Z" transform="translate(380.242 9138.375)"/>
          <path id="Trazado_729564" data-name="Trazado 729564" d="M253.5-203.721A16.032,16.032,0,0,1,269.772-219.5a16.032,16.032,0,0,1,16.272,15.779,16.032,16.032,0,0,1-16.272,15.779A16.032,16.032,0,0,1,253.5-203.721Z" transform="translate(170.5 9336.5)" fill="#fff" fill-rule="evenodd"/>
          <path id="Trazado_729565" data-name="Trazado 729565" d="M0,15.779A16.032,16.032,0,0,1,16.272,0,16.032,16.032,0,0,1,32.545,15.779,16.032,16.032,0,0,1,16.272,31.559,16.032,16.032,0,0,1,0,15.779Z" transform="translate(423.5 9116.5)" fill="none" stroke="#000" stroke-miterlimit="8" stroke-width="1"/>
          <path id="Trazado_731624" data-name="Trazado 731624" d="M7.891-8.469a2.563,2.563,0,0,1-.5,1.566A3.028,3.028,0,0,1,6.063-5.891,3.333,3.333,0,0,1,7.617-4.82a2.641,2.641,0,0,1,.586,1.7A3,3,0,0,1,7.184-.7a3.892,3.892,0,0,1-2.6.859A4.194,4.194,0,0,1,1.855-.7,2.952,2.952,0,0,1,.8-3.125a2.608,2.608,0,0,1,.6-1.7A3.446,3.446,0,0,1,3.008-5.9a3,3,0,0,1-1.383-1,2.536,2.536,0,0,1-.508-1.566,2.787,2.787,0,0,1,.957-2.281,3.8,3.8,0,0,1,2.5-.789,3.558,3.558,0,0,1,2.387.793A2.822,2.822,0,0,1,7.891-8.469ZM6.672-3.156a2.067,2.067,0,0,0-.605-1.531,2.039,2.039,0,0,0-1.5-.6,2.231,2.231,0,0,0-1.6.6,2.021,2.021,0,0,0-.633,1.531,1.99,1.99,0,0,0,.629,1.539,2.3,2.3,0,0,0,1.621.578,2.049,2.049,0,0,0,1.488-.582A2.046,2.046,0,0,0,6.672-3.156Zm-.32-5.289A1.869,1.869,0,0,0,5.84-9.8a1.692,1.692,0,0,0-1.27-.531A1.917,1.917,0,0,0,3.2-9.816a1.8,1.8,0,0,0-.539,1.371A1.887,1.887,0,0,0,3.2-7.039,1.889,1.889,0,0,0,4.586-6.5a1.655,1.655,0,0,0,1.262-.539A1.976,1.976,0,0,0,6.352-8.445Z" transform="translate(435.203 9138.539)"/>
          <path id="Trazado_729566" data-name="Trazado 729566" d="M301.5-203.721A15.779,15.779,0,0,1,317.279-219.5a15.779,15.779,0,0,1,15.779,15.779,15.779,15.779,0,0,1-15.779,15.779A15.779,15.779,0,0,1,301.5-203.721Z" transform="translate(169.5 9336.5)" fill="#fff" fill-rule="evenodd"/>
          <path id="Trazado_729567" data-name="Trazado 729567" d="M0,15.779A15.779,15.779,0,1,1,15.779,31.559,15.779,15.779,0,0,1,0,15.779Z" transform="translate(470.5 9116.5)" fill="none" stroke="#000" stroke-miterlimit="8" stroke-width="1"/>
          <path id="Trazado_731625" data-name="Trazado 731625" d="M3.914-1.039A2.289,2.289,0,0,0,5.707-1.8a3.153,3.153,0,0,0,.684-2.172v-.969a2.479,2.479,0,0,1-.934.84,2.65,2.65,0,0,1-1.223.285A3.329,3.329,0,0,1,1.66-4.832,3.985,3.985,0,0,1,.727-7.641a4.011,4.011,0,0,1,.992-2.809,3.185,3.185,0,0,1,2.453-1.09,3.622,3.622,0,0,1,2.734,1.07A4.181,4.181,0,0,1,7.938-7.445v3.453A4.077,4.077,0,0,1,6.813-.934a3.976,3.976,0,0,1-2.9,1.1A6.3,6.3,0,0,1,2.684.039,5.581,5.581,0,0,1,1.508-.328L1.742-1.5a4.439,4.439,0,0,0,1.012.355A5.632,5.632,0,0,0,3.914-1.039Zm.32-3.984A2.39,2.39,0,0,0,5.59-5.391a2.152,2.152,0,0,0,.8-.937V-7.672a3.01,3.01,0,0,0-.57-1.965,1.96,1.96,0,0,0-1.6-.691,1.683,1.683,0,0,0-1.395.746,3.156,3.156,0,0,0-.559,1.941,3.191,3.191,0,0,0,.516,1.895A1.681,1.681,0,0,0,4.234-5.023Z" transform="translate(482.273 9138.539)"/>
        </g>
      </g>
    </g>
    <g id="Grupo_986693" data-name="Grupo 986693">
      <path id="Trazado_729546" data-name="Trazado 729546" d="M0,0H256.414V120.317H0Z" transform="translate(326.945 8893)" fill="#effefe" stroke="#000" stroke-miterlimit="8" stroke-width="1"/>
      <path id="Trazado_731612" data-name="Trazado 731612" d="M7.413-2.606H3.495L2.681,0H.149L4.225-12.086H6.707L10.766,0H8.234Zm-3.32-1.9H6.823L5.487-8.766h-.05ZM5.9-15.489H8.6l.017.05-2.3,2.158H4.25ZM14.35-4.831V0H11.927V-12.086H16.11a5.011,5.011,0,0,1,3.233.942A3.189,3.189,0,0,1,20.51-8.517a2.65,2.65,0,0,1-.494,1.606,3.44,3.44,0,0,1-1.44,1.092,2.6,2.6,0,0,1,1.54,1.054,3.342,3.342,0,0,1,.469,1.826v.888a4.394,4.394,0,0,0,.137,1.058,1.455,1.455,0,0,0,.469.818V0h-2.5a1.342,1.342,0,0,1-.427-.88,7.73,7.73,0,0,1-.1-1.187v-.855a1.921,1.921,0,0,0-.494-1.407,1.873,1.873,0,0,0-1.4-.5Zm0-1.868h1.718a2.273,2.273,0,0,0,1.519-.432,1.6,1.6,0,0,0,.5-1.278,1.759,1.759,0,0,0-.5-1.32,2.028,2.028,0,0,0-1.473-.49H14.35ZM29.664-5.312H25.181v3.453H30.51V0H22.757V-12.086h7.736v1.868H25.181V-7.18h4.482Zm8.847,2.706H34.593L33.779,0H31.247l4.076-12.086H37.8L41.864,0H39.332Zm-3.32-1.9h2.731L36.585-8.766h-.05ZM47.256,0V-12.086h4.217a4.987,4.987,0,0,1,3.652,1.415,4.879,4.879,0,0,1,1.436,3.632v2a4.861,4.861,0,0,1-1.436,3.632A5,5,0,0,1,51.473,0ZM49.68-10.218v8.359h1.793A2.366,2.366,0,0,0,53.4-2.752a3.493,3.493,0,0,0,.73-2.287V-7.056A3.463,3.463,0,0,0,53.4-9.33a2.371,2.371,0,0,0-1.926-.888ZM65.408-5.312H60.926v3.453h5.329V0H58.5V-12.086h7.736v1.868H60.926V-7.18h4.482ZM78.437-3.179h.05l3.1-8.907h3.163V0H82.33V-8.251l-.05-.008L79.292,0H77.649L74.66-8.276l-.05.008V0H72.187V-12.086h3.179Zm14.99.573H89.509L88.7,0H86.163l4.076-12.086h2.482L96.78,0H94.248Zm-3.32-1.9h2.731L91.5-8.766h-.05Zm1.81-10.982h2.7l.017.05-2.3,2.158H90.264ZM107.628-4.956a5.7,5.7,0,0,1-.253,1.718,5.088,5.088,0,0,1-.718,1.453l1.8,1.8-1.585,1.295L105.1-.432a4.976,4.976,0,0,1-1.191.452,5.687,5.687,0,0,1-1.341.154,4.812,4.812,0,0,1-3.636-1.453,5.1,5.1,0,0,1-1.395-3.677V-7.13a5.107,5.107,0,0,1,1.39-3.673,4.782,4.782,0,0,1,3.623-1.457,4.87,4.87,0,0,1,3.661,1.457,5.066,5.066,0,0,1,1.411,3.673Zm-2.416-2.191a3.655,3.655,0,0,0-.706-2.316,2.336,2.336,0,0,0-1.951-.9,2.262,2.262,0,0,0-1.913.9,3.731,3.731,0,0,0-.685,2.316v2.191a3.758,3.758,0,0,0,.689,2.341,2.282,2.282,0,0,0,1.926.9,2.313,2.313,0,0,0,1.942-.9,3.727,3.727,0,0,0,.7-2.341Zm14.176-4.939v7.911a3.975,3.975,0,0,1-1.353,3.2A5.223,5.223,0,0,1,114.524.174a5.162,5.162,0,0,1-3.49-1.154,3.992,3.992,0,0,1-1.341-3.2v-7.911h2.432v7.911a2.487,2.487,0,0,0,.647,1.851,2.384,2.384,0,0,0,1.751.639,2.436,2.436,0,0,0,1.776-.639,2.469,2.469,0,0,0,.656-1.851v-7.911ZM124.076,0h-2.424V-12.086h2.424Zm12.167,0H133.82l-4.873-8.151-.05.008V0h-2.424V-12.086H128.9l4.873,8.143.05-.008v-8.135h2.424Zm8.673-2.606H141L140.185,0h-2.532l4.076-12.086h2.482L148.27,0h-2.532Zm-3.32-1.9h2.731L142.99-8.766h-.05Z" transform="translate(388.724 8919.718)"/>
      <path id="Trazado_731604" data-name="Trazado 731604" d="M5.662-1.733H5.7L8.652-9.242h1.555V0H8.957V-6.925l-.038-.006L6.119,0H5.25L2.368-7.16l-.038.006V0H1.079V-9.242H2.723ZM16.384,0q-.063-.311-.1-.549a4.03,4.03,0,0,1-.041-.479,2.916,2.916,0,0,1-.911.828,2.329,2.329,0,0,1-1.209.333,2.245,2.245,0,0,1-1.635-.549,2.02,2.02,0,0,1-.562-1.514,1.774,1.774,0,0,1,.8-1.539,3.72,3.72,0,0,1,2.161-.555h1.358V-4.7a1.26,1.26,0,0,0-.368-.955,1.446,1.446,0,0,0-1.041-.352,1.51,1.51,0,0,0-.984.3.914.914,0,0,0-.375.73l-1.187.013L12.277-5a1.644,1.644,0,0,1,.7-1.371A2.907,2.907,0,0,1,14.9-7a2.836,2.836,0,0,1,1.879.594,2.1,2.1,0,0,1,.711,1.711v3.307a6.437,6.437,0,0,0,.038.711,3.656,3.656,0,0,0,.14.673ZM14.308-.914a2.226,2.226,0,0,0,1.225-.349,1.659,1.659,0,0,0,.711-.8V-3.18h-1.4a1.82,1.82,0,0,0-1.209.381,1.139,1.139,0,0,0-.454.9.942.942,0,0,0,.286.724A1.2,1.2,0,0,0,14.308-.914Zm1.073-8.868h1.46l.013.038-1.708,1.65h-.939Zm3.606,6.475a4.584,4.584,0,0,1,.708-2.672A2.28,2.28,0,0,1,21.678-7a2.424,2.424,0,0,1,1.1.238,2.278,2.278,0,0,1,.813.689l.178-.8h.958V2.641h-1.25V-.647a2.143,2.143,0,0,1-.781.584,2.547,2.547,0,0,1-1.028.2A2.357,2.357,0,0,1,19.7-.778a3.785,3.785,0,0,1-.711-2.4Zm1.25.133a2.993,2.993,0,0,0,.428,1.685,1.472,1.472,0,0,0,1.317.644,1.624,1.624,0,0,0,.879-.229,1.879,1.879,0,0,0,.613-.641V-5.18a1.892,1.892,0,0,0-.613-.609A1.634,1.634,0,0,0,22-6.011a1.425,1.425,0,0,0-1.327.759,3.9,3.9,0,0,0-.432,1.946ZM30.984-1.016a2.326,2.326,0,0,1-.832.851,2.275,2.275,0,0,1-1.174.3,2.206,2.206,0,0,1-1.752-.717A3.33,3.33,0,0,1,26.6-2.818v-4.05h1.25v4.063a2.557,2.557,0,0,0,.324,1.511,1.2,1.2,0,0,0,1.009.413,2.057,2.057,0,0,0,1.1-.27,1.688,1.688,0,0,0,.657-.765V-6.868h1.25V0H31.067ZM35.326,0h-1.25V-6.868h1.25Zm0-8.626h-1.25V-9.9h1.25Zm3,1.758.089,1.022a2.494,2.494,0,0,1,.86-.847A2.3,2.3,0,0,1,40.456-7a2.242,2.242,0,0,1,1.72.651,2.856,2.856,0,0,1,.609,2.009V0h-1.25V-4.31A1.858,1.858,0,0,0,41.176-5.6a1.437,1.437,0,0,0-1.095-.381,1.939,1.939,0,0,0-.981.232,1.684,1.684,0,0,0-.638.651V0h-1.25V-6.868ZM48.784,0q-.063-.311-.1-.549a4.03,4.03,0,0,1-.041-.479,2.916,2.916,0,0,1-.911.828,2.329,2.329,0,0,1-1.209.333A2.245,2.245,0,0,1,44.89-.416a2.02,2.02,0,0,1-.562-1.514,1.774,1.774,0,0,1,.8-1.539,3.72,3.72,0,0,1,2.161-.555h1.358V-4.7a1.26,1.26,0,0,0-.368-.955,1.446,1.446,0,0,0-1.041-.352,1.51,1.51,0,0,0-.984.3.914.914,0,0,0-.375.73l-1.187.013L44.677-5a1.644,1.644,0,0,1,.7-1.371A2.907,2.907,0,0,1,47.305-7a2.836,2.836,0,0,1,1.879.594,2.1,2.1,0,0,1,.711,1.711v3.307a6.437,6.437,0,0,0,.038.711,3.656,3.656,0,0,0,.14.673ZM46.708-.914a2.226,2.226,0,0,0,1.225-.349,1.659,1.659,0,0,0,.711-.8V-3.18h-1.4a1.82,1.82,0,0,0-1.209.381,1.139,1.139,0,0,0-.454.9.942.942,0,0,0,.286.724A1.2,1.2,0,0,0,46.708-.914Z" transform="translate(345.921 8946.941)"/>
      <path id="Trazado_731603" data-name="Trazado 731603" d="M.622-3.307A4.584,4.584,0,0,1,1.33-5.979,2.28,2.28,0,0,1,3.313-7a2.459,2.459,0,0,1,1.07.222,2.192,2.192,0,0,1,.8.647V-9.9H6.43V0H5.472l-.19-.87a2.229,2.229,0,0,1-.832.749A2.484,2.484,0,0,1,3.3.133,2.357,2.357,0,0,1,1.333-.778a3.785,3.785,0,0,1-.711-2.4Zm1.25.133A2.915,2.915,0,0,0,2.3-1.508a1.485,1.485,0,0,0,1.32.625,1.656,1.656,0,0,0,.939-.254,1.9,1.9,0,0,0,.622-.711V-5.053a1.925,1.925,0,0,0-.625-.676,1.652,1.652,0,0,0-.924-.251,1.429,1.429,0,0,0-1.33.743,3.834,3.834,0,0,0-.428,1.93ZM11.184.133A2.906,2.906,0,0,1,8.877-.812,3.64,3.64,0,0,1,8.049-3.3V-3.58A3.563,3.563,0,0,1,8.9-6.027,2.677,2.677,0,0,1,10.988-7a2.492,2.492,0,0,1,2.066.857,3.53,3.53,0,0,1,.689,2.279v.66H9.35l-.019.032a2.839,2.839,0,0,0,.457,1.679,1.6,1.6,0,0,0,1.4.644A3.146,3.146,0,0,0,12.3-1.025a2.487,2.487,0,0,0,.822-.5l.489.813a3.006,3.006,0,0,1-.971.6A3.869,3.869,0,0,1,11.184.133Zm-.2-6.145a1.359,1.359,0,0,0-1.082.5,2.387,2.387,0,0,0-.524,1.292l.013.032h3.1v-.1a2,2,0,0,0-.368-1.238A1.331,1.331,0,0,0,10.988-6.011ZM21.194-.844A1.471,1.471,0,0,0,22.2-1.228a1.213,1.213,0,0,0,.432-.943h1.13l.019.038a1.972,1.972,0,0,1-.762,1.577,2.691,2.691,0,0,1-1.828.689A2.7,2.7,0,0,1,18.96-.851a3.8,3.8,0,0,1-.787-2.45v-.267a3.781,3.781,0,0,1,.79-2.441A2.7,2.7,0,0,1,21.194-7a2.591,2.591,0,0,1,1.882.711,2.254,2.254,0,0,1,.708,1.746l-.013.038H22.635a1.516,1.516,0,0,0-.409-1.07,1.347,1.347,0,0,0-1.031-.441,1.444,1.444,0,0,0-1.343.714,3.342,3.342,0,0,0-.422,1.73V-3.3a3.406,3.406,0,0,0,.416,1.746A1.443,1.443,0,0,0,21.194-.844ZM25.022-3.5a3.781,3.781,0,0,1,.825-2.51A2.767,2.767,0,0,1,28.087-7a2.794,2.794,0,0,1,2.257.984A3.769,3.769,0,0,1,31.172-3.5v.14a3.763,3.763,0,0,1-.825,2.514A2.786,2.786,0,0,1,28.1.133a2.791,2.791,0,0,1-2.25-.981,3.756,3.756,0,0,1-.828-2.51Zm1.25.14a3.258,3.258,0,0,0,.46,1.8A1.523,1.523,0,0,0,28.1-.844a1.519,1.519,0,0,0,1.358-.711,3.24,3.24,0,0,0,.463-1.8V-3.5a3.231,3.231,0,0,0-.467-1.8,1.529,1.529,0,0,0-1.368-.717,1.508,1.508,0,0,0-1.355.717,3.265,3.265,0,0,0-.46,1.8ZM36.739-1.847a.833.833,0,0,0-.314-.673,3.033,3.033,0,0,0-1.19-.457,4.994,4.994,0,0,1-1.863-.73,1.474,1.474,0,0,1-.651-1.257A1.811,1.811,0,0,1,33.435-6.4a2.789,2.789,0,0,1,1.85-.6,2.764,2.764,0,0,1,1.892.635,1.819,1.819,0,0,1,.692,1.479l-.013.038H36.663a1.081,1.081,0,0,0-.39-.806,1.4,1.4,0,0,0-.987-.362,1.423,1.423,0,0,0-.987.3A.931.931,0,0,0,33.971-5a.753.753,0,0,0,.282.628,3.127,3.127,0,0,0,1.165.406,4.922,4.922,0,0,1,1.917.755,1.521,1.521,0,0,1,.654,1.276,1.808,1.808,0,0,1-.74,1.492,3.05,3.05,0,0,1-1.933.578,3.018,3.018,0,0,1-2.069-.667,1.9,1.9,0,0,1-.717-1.555l.013-.038h1.193a1.157,1.157,0,0,0,.5.974,1.916,1.916,0,0,0,1.085.308,1.71,1.71,0,0,0,1.044-.282A.864.864,0,0,0,36.739-1.847ZM42.433.133a2.906,2.906,0,0,1-2.307-.946A3.64,3.64,0,0,1,39.3-3.3V-3.58a3.563,3.563,0,0,1,.854-2.447A2.677,2.677,0,0,1,42.236-7a2.492,2.492,0,0,1,2.066.857,3.53,3.53,0,0,1,.689,2.279v.66H40.6l-.019.032a2.839,2.839,0,0,0,.457,1.679,1.6,1.6,0,0,0,1.4.644,3.146,3.146,0,0,0,1.114-.181,2.487,2.487,0,0,0,.822-.5l.489.813a3.006,3.006,0,0,1-.971.6A3.869,3.869,0,0,1,42.433.133Zm-.2-6.145a1.359,1.359,0,0,0-1.082.5,2.387,2.387,0,0,0-.524,1.292l.013.032h3.1v-.1a2,2,0,0,0-.368-1.238A1.331,1.331,0,0,0,42.236-6.011Zm7.452.248L49.047-5.8a1.432,1.432,0,0,0-.835.235,1.507,1.507,0,0,0-.524.66V0h-1.25V-6.868h1.117l.121,1A2.384,2.384,0,0,1,48.4-6.7a1.685,1.685,0,0,1,.987-.3,1.545,1.545,0,0,1,.267.022,1.767,1.767,0,0,1,.209.048Z" transform="translate(346.378 8961.707)"/>
      <path id="Trazado_731602" data-name="Trazado 731602" d="M3.637-.844a1.471,1.471,0,0,0,1.009-.384,1.213,1.213,0,0,0,.432-.943h1.13l.019.038A1.972,1.972,0,0,1,5.465-.555,2.691,2.691,0,0,1,3.637.133,2.7,2.7,0,0,1,1.4-.851,3.8,3.8,0,0,1,.616-3.3v-.267a3.781,3.781,0,0,1,.79-2.441A2.7,2.7,0,0,1,3.637-7a2.591,2.591,0,0,1,1.882.711,2.254,2.254,0,0,1,.708,1.746L6.214-4.5H5.078a1.516,1.516,0,0,0-.409-1.07,1.347,1.347,0,0,0-1.031-.441A1.444,1.444,0,0,0,2.295-5.3a3.342,3.342,0,0,0-.422,1.73V-3.3a3.406,3.406,0,0,0,.416,1.746A1.443,1.443,0,0,0,3.637-.844ZM9.114,0H7.863V-6.868h1.25Zm0-8.626H7.863V-9.9h1.25ZM12.2-6.868l.089,1.022a2.494,2.494,0,0,1,.86-.847A2.3,2.3,0,0,1,14.33-7a2.242,2.242,0,0,1,1.72.651,2.856,2.856,0,0,1,.609,2.009V0h-1.25V-4.31A1.858,1.858,0,0,0,15.051-5.6a1.437,1.437,0,0,0-1.095-.381,1.939,1.939,0,0,0-.981.232,1.684,1.684,0,0,0-.638.651V0h-1.25V-6.868Zm8.06-1.657v1.657h1.3v.927h-1.3v4.17a.934.934,0,0,0,.2.679.723.723,0,0,0,.53.2,1.161,1.161,0,0,0,.241-.029,1.789,1.789,0,0,0,.222-.06l.171.857a1.105,1.105,0,0,1-.413.187,2.082,2.082,0,0,1-.54.073,1.619,1.619,0,0,1-1.212-.46,2,2,0,0,1-.451-1.444v-4.17H17.922v-.927h1.092V-8.525Zm2.4,5.027a3.781,3.781,0,0,1,.825-2.51A2.767,2.767,0,0,1,25.728-7a2.794,2.794,0,0,1,2.257.984A3.769,3.769,0,0,1,28.813-3.5v.14a3.763,3.763,0,0,1-.825,2.514,2.786,2.786,0,0,1-2.247.978,2.791,2.791,0,0,1-2.25-.981,3.756,3.756,0,0,1-.828-2.51Zm1.25.14a3.258,3.258,0,0,0,.46,1.8,1.523,1.523,0,0,0,1.368.711A1.519,1.519,0,0,0,27.1-1.555a3.24,3.24,0,0,0,.463-1.8V-3.5a3.231,3.231,0,0,0-.467-1.8,1.529,1.529,0,0,0-1.368-.717,1.508,1.508,0,0,0-1.355.717,3.265,3.265,0,0,0-.46,1.8Z" transform="translate(357.384 8975.965)"/>
      <path id="Trazado_731607" data-name="Trazado 731607" d="M5.662-1.733H5.7L8.652-9.242h1.555V0H8.957V-6.925l-.038-.006L6.119,0H5.25L2.368-7.16l-.038.006V0H1.079V-9.242H2.723ZM16.384,0q-.063-.311-.1-.549a4.03,4.03,0,0,1-.041-.479,2.916,2.916,0,0,1-.911.828,2.329,2.329,0,0,1-1.209.333,2.245,2.245,0,0,1-1.635-.549,2.02,2.02,0,0,1-.562-1.514,1.774,1.774,0,0,1,.8-1.539,3.72,3.72,0,0,1,2.161-.555h1.358V-4.7a1.26,1.26,0,0,0-.368-.955,1.446,1.446,0,0,0-1.041-.352,1.51,1.51,0,0,0-.984.3.914.914,0,0,0-.375.73l-1.187.013L12.277-5a1.644,1.644,0,0,1,.7-1.371A2.907,2.907,0,0,1,14.9-7a2.836,2.836,0,0,1,1.879.594,2.1,2.1,0,0,1,.711,1.711v3.307a6.437,6.437,0,0,0,.038.711,3.656,3.656,0,0,0,.14.673ZM14.308-.914a2.226,2.226,0,0,0,1.225-.349,1.659,1.659,0,0,0,.711-.8V-3.18h-1.4a1.82,1.82,0,0,0-1.209.381,1.139,1.139,0,0,0-.454.9.942.942,0,0,0,.286.724A1.2,1.2,0,0,0,14.308-.914Zm1.073-8.868h1.46l.013.038-1.708,1.65h-.939Zm3.606,6.475a4.584,4.584,0,0,1,.708-2.672A2.28,2.28,0,0,1,21.678-7a2.424,2.424,0,0,1,1.1.238,2.278,2.278,0,0,1,.813.689l.178-.8h.958V2.641h-1.25V-.647a2.143,2.143,0,0,1-.781.584,2.547,2.547,0,0,1-1.028.2A2.357,2.357,0,0,1,19.7-.778a3.785,3.785,0,0,1-.711-2.4Zm1.25.133a2.993,2.993,0,0,0,.428,1.685,1.472,1.472,0,0,0,1.317.644,1.624,1.624,0,0,0,.879-.229,1.879,1.879,0,0,0,.613-.641V-5.18a1.892,1.892,0,0,0-.613-.609A1.634,1.634,0,0,0,22-6.011a1.425,1.425,0,0,0-1.327.759,3.9,3.9,0,0,0-.432,1.946ZM30.984-1.016a2.326,2.326,0,0,1-.832.851,2.275,2.275,0,0,1-1.174.3,2.206,2.206,0,0,1-1.752-.717A3.33,3.33,0,0,1,26.6-2.818v-4.05h1.25v4.063a2.557,2.557,0,0,0,.324,1.511,1.2,1.2,0,0,0,1.009.413,2.057,2.057,0,0,0,1.1-.27,1.688,1.688,0,0,0,.657-.765V-6.868h1.25V0H31.067ZM35.326,0h-1.25V-6.868h1.25Zm0-8.626h-1.25V-9.9h1.25Zm3,1.758.089,1.022a2.494,2.494,0,0,1,.86-.847A2.3,2.3,0,0,1,40.456-7a2.242,2.242,0,0,1,1.72.651,2.856,2.856,0,0,1,.609,2.009V0h-1.25V-4.31A1.858,1.858,0,0,0,41.176-5.6a1.437,1.437,0,0,0-1.095-.381,1.939,1.939,0,0,0-.981.232,1.684,1.684,0,0,0-.638.651V0h-1.25V-6.868ZM48.784,0q-.063-.311-.1-.549a4.03,4.03,0,0,1-.041-.479,2.916,2.916,0,0,1-.911.828,2.329,2.329,0,0,1-1.209.333A2.245,2.245,0,0,1,44.89-.416a2.02,2.02,0,0,1-.562-1.514,1.774,1.774,0,0,1,.8-1.539,3.72,3.72,0,0,1,2.161-.555h1.358V-4.7a1.26,1.26,0,0,0-.368-.955,1.446,1.446,0,0,0-1.041-.352,1.51,1.51,0,0,0-.984.3.914.914,0,0,0-.375.73l-1.187.013L44.677-5a1.644,1.644,0,0,1,.7-1.371A2.907,2.907,0,0,1,47.305-7a2.836,2.836,0,0,1,1.879.594,2.1,2.1,0,0,1,.711,1.711v3.307a6.437,6.437,0,0,0,.038.711,3.656,3.656,0,0,0,.14.673ZM46.708-.914a2.226,2.226,0,0,0,1.225-.349,1.659,1.659,0,0,0,.711-.8V-3.18h-1.4a1.82,1.82,0,0,0-1.209.381,1.139,1.139,0,0,0-.454.9.942.942,0,0,0,.286.724A1.2,1.2,0,0,0,46.708-.914Z" transform="translate(486.921 8949.164)"/>
      <path id="Trazado_731606" data-name="Trazado 731606" d="M.622-3.307A4.584,4.584,0,0,1,1.33-5.979,2.28,2.28,0,0,1,3.313-7a2.459,2.459,0,0,1,1.07.222,2.192,2.192,0,0,1,.8.647V-9.9H6.43V0H5.472l-.19-.87a2.229,2.229,0,0,1-.832.749A2.484,2.484,0,0,1,3.3.133,2.357,2.357,0,0,1,1.333-.778a3.785,3.785,0,0,1-.711-2.4Zm1.25.133A2.915,2.915,0,0,0,2.3-1.508a1.485,1.485,0,0,0,1.32.625,1.656,1.656,0,0,0,.939-.254,1.9,1.9,0,0,0,.622-.711V-5.053a1.925,1.925,0,0,0-.625-.676,1.652,1.652,0,0,0-.924-.251,1.429,1.429,0,0,0-1.33.743,3.834,3.834,0,0,0-.428,1.93ZM11.184.133A2.906,2.906,0,0,1,8.877-.812,3.64,3.64,0,0,1,8.049-3.3V-3.58A3.563,3.563,0,0,1,8.9-6.027,2.677,2.677,0,0,1,10.988-7a2.492,2.492,0,0,1,2.066.857,3.53,3.53,0,0,1,.689,2.279v.66H9.35l-.019.032a2.839,2.839,0,0,0,.457,1.679,1.6,1.6,0,0,0,1.4.644A3.146,3.146,0,0,0,12.3-1.025a2.487,2.487,0,0,0,.822-.5l.489.813a3.006,3.006,0,0,1-.971.6A3.869,3.869,0,0,1,11.184.133Zm-.2-6.145a1.359,1.359,0,0,0-1.082.5,2.387,2.387,0,0,0-.524,1.292l.013.032h3.1v-.1a2,2,0,0,0-.368-1.238A1.331,1.331,0,0,0,10.988-6.011ZM21.194-.844A1.471,1.471,0,0,0,22.2-1.228a1.213,1.213,0,0,0,.432-.943h1.13l.019.038a1.972,1.972,0,0,1-.762,1.577,2.691,2.691,0,0,1-1.828.689A2.7,2.7,0,0,1,18.96-.851a3.8,3.8,0,0,1-.787-2.45v-.267a3.781,3.781,0,0,1,.79-2.441A2.7,2.7,0,0,1,21.194-7a2.591,2.591,0,0,1,1.882.711,2.254,2.254,0,0,1,.708,1.746l-.013.038H22.635a1.516,1.516,0,0,0-.409-1.07,1.347,1.347,0,0,0-1.031-.441,1.444,1.444,0,0,0-1.343.714,3.342,3.342,0,0,0-.422,1.73V-3.3a3.406,3.406,0,0,0,.416,1.746A1.443,1.443,0,0,0,21.194-.844ZM25.022-3.5a3.781,3.781,0,0,1,.825-2.51A2.767,2.767,0,0,1,28.087-7a2.794,2.794,0,0,1,2.257.984A3.769,3.769,0,0,1,31.172-3.5v.14a3.763,3.763,0,0,1-.825,2.514A2.786,2.786,0,0,1,28.1.133a2.791,2.791,0,0,1-2.25-.981,3.756,3.756,0,0,1-.828-2.51Zm1.25.14a3.258,3.258,0,0,0,.46,1.8A1.523,1.523,0,0,0,28.1-.844a1.519,1.519,0,0,0,1.358-.711,3.24,3.24,0,0,0,.463-1.8V-3.5a3.231,3.231,0,0,0-.467-1.8,1.529,1.529,0,0,0-1.368-.717,1.508,1.508,0,0,0-1.355.717,3.265,3.265,0,0,0-.46,1.8ZM36.739-1.847a.833.833,0,0,0-.314-.673,3.033,3.033,0,0,0-1.19-.457,4.994,4.994,0,0,1-1.863-.73,1.474,1.474,0,0,1-.651-1.257A1.811,1.811,0,0,1,33.435-6.4a2.789,2.789,0,0,1,1.85-.6,2.764,2.764,0,0,1,1.892.635,1.819,1.819,0,0,1,.692,1.479l-.013.038H36.663a1.081,1.081,0,0,0-.39-.806,1.4,1.4,0,0,0-.987-.362,1.423,1.423,0,0,0-.987.3A.931.931,0,0,0,33.971-5a.753.753,0,0,0,.282.628,3.127,3.127,0,0,0,1.165.406,4.922,4.922,0,0,1,1.917.755,1.521,1.521,0,0,1,.654,1.276,1.808,1.808,0,0,1-.74,1.492,3.05,3.05,0,0,1-1.933.578,3.018,3.018,0,0,1-2.069-.667,1.9,1.9,0,0,1-.717-1.555l.013-.038h1.193a1.157,1.157,0,0,0,.5.974,1.916,1.916,0,0,0,1.085.308,1.71,1.71,0,0,0,1.044-.282A.864.864,0,0,0,36.739-1.847ZM42.433.133a2.906,2.906,0,0,1-2.307-.946A3.64,3.64,0,0,1,39.3-3.3V-3.58a3.563,3.563,0,0,1,.854-2.447A2.677,2.677,0,0,1,42.236-7a2.492,2.492,0,0,1,2.066.857,3.53,3.53,0,0,1,.689,2.279v.66H40.6l-.019.032a2.839,2.839,0,0,0,.457,1.679,1.6,1.6,0,0,0,1.4.644,3.146,3.146,0,0,0,1.114-.181,2.487,2.487,0,0,0,.822-.5l.489.813a3.006,3.006,0,0,1-.971.6A3.869,3.869,0,0,1,42.433.133Zm-.2-6.145a1.359,1.359,0,0,0-1.082.5,2.387,2.387,0,0,0-.524,1.292l.013.032h3.1v-.1a2,2,0,0,0-.368-1.238A1.331,1.331,0,0,0,42.236-6.011Zm7.452.248L49.047-5.8a1.432,1.432,0,0,0-.835.235,1.507,1.507,0,0,0-.524.66V0h-1.25V-6.868h1.117l.121,1A2.384,2.384,0,0,1,48.4-6.7a1.685,1.685,0,0,1,.987-.3,1.545,1.545,0,0,1,.267.022,1.767,1.767,0,0,1,.209.048Z" transform="translate(487.378 8961.707)"/>
      <path id="Trazado_731605" data-name="Trazado 731605" d="M6.76-3.174a3.785,3.785,0,0,1-.711,2.4A2.35,2.35,0,0,1,4.088.133,2.725,2.725,0,0,1,2.974-.079a2.13,2.13,0,0,1-.816-.638V2.641H.908V-6.868h.958l.2.889A2.268,2.268,0,0,1,2.9-6.735,2.5,2.5,0,0,1,4.069-7,2.283,2.283,0,0,1,6.052-5.983,4.58,4.58,0,0,1,6.76-3.307ZM5.51-3.307a3.629,3.629,0,0,0-.46-1.92,1.491,1.491,0,0,0-1.355-.752,1.668,1.668,0,0,0-.92.244,1.828,1.828,0,0,0-.616.67v3.32a1.776,1.776,0,0,0,.616.663,1.727,1.727,0,0,0,.933.238,1.539,1.539,0,0,0,1.346-.651A2.857,2.857,0,0,0,5.51-3.174ZM12.7-1.016a2.326,2.326,0,0,1-.832.851,2.275,2.275,0,0,1-1.174.3A2.206,2.206,0,0,1,8.944-.584a3.33,3.33,0,0,1-.628-2.234v-4.05h1.25v4.063a2.557,2.557,0,0,0,.324,1.511A1.2,1.2,0,0,0,10.9-.882a2.057,2.057,0,0,0,1.1-.27,1.688,1.688,0,0,0,.657-.765V-6.868h1.25V0H12.784Zm4.189-5.853.089,1.022a2.494,2.494,0,0,1,.86-.847A2.3,2.3,0,0,1,19.017-7a2.242,2.242,0,0,1,1.72.651,2.856,2.856,0,0,1,.609,2.009V0H20.1V-4.31A1.858,1.858,0,0,0,19.738-5.6a1.437,1.437,0,0,0-1.095-.381,1.939,1.939,0,0,0-.981.232,1.684,1.684,0,0,0-.638.651V0h-1.25V-6.868Zm8.055-1.657v1.657h1.3v.927h-1.3v4.17a.934.934,0,0,0,.2.679.723.723,0,0,0,.53.2,1.161,1.161,0,0,0,.241-.029,1.789,1.789,0,0,0,.222-.06l.171.857A1.105,1.105,0,0,1,25.9.06a2.082,2.082,0,0,1-.54.073,1.619,1.619,0,0,1-1.212-.46A2,2,0,0,1,23.7-1.771v-4.17H22.6v-.927H23.7V-8.525ZM31.852,0q-.063-.311-.1-.549a4.03,4.03,0,0,1-.041-.479A2.916,2.916,0,0,1,30.8-.2a2.329,2.329,0,0,1-1.209.333,2.245,2.245,0,0,1-1.635-.549A2.02,2.02,0,0,1,27.4-1.93a1.774,1.774,0,0,1,.8-1.539,3.72,3.72,0,0,1,2.161-.555h1.358V-4.7a1.26,1.26,0,0,0-.368-.955A1.446,1.446,0,0,0,30.3-6.011a1.51,1.51,0,0,0-.984.3.914.914,0,0,0-.375.73l-1.187.013L27.745-5a1.644,1.644,0,0,1,.7-1.371A2.907,2.907,0,0,1,30.373-7a2.836,2.836,0,0,1,1.879.594,2.1,2.1,0,0,1,.711,1.711v3.307A6.437,6.437,0,0,0,33-.673,3.656,3.656,0,0,0,33.14,0ZM29.776-.914A2.226,2.226,0,0,0,31-1.263a1.659,1.659,0,0,0,.711-.8V-3.18h-1.4A1.82,1.82,0,0,0,29.1-2.8a1.139,1.139,0,0,0-.454.9.942.942,0,0,0,.286.724A1.2,1.2,0,0,0,29.776-.914Z" transform="translate(496.092 8974.588)"/>
      <g id="Grupo_986469" data-name="Grupo 986469" transform="translate(382.558 8983.238)">
        <path id="Trazado_729574" data-name="Trazado 729574" d="M0,12.308A12.308,12.308,0,1,1,12.308,24.616,12.308,12.308,0,0,1,0,12.308Z" transform="translate(-0.058 0.262)" fill="none" stroke="#000" stroke-miterlimit="8" stroke-width="1"/>
        <path id="Trazado_731609" data-name="Trazado 731609" d="M3.675-5.256a1.465,1.465,0,0,0,1.184-.416,1.771,1.771,0,0,0,.346-1.165,1.641,1.641,0,0,0-.378-1.127,1.415,1.415,0,0,0-1.12-.428,1.671,1.671,0,0,0-1.2.448,1.478,1.478,0,0,0-.473,1.12H.844L.825-6.862a2.209,2.209,0,0,1,.787-1.777,3.014,3.014,0,0,1,2.095-.736,2.927,2.927,0,0,1,2.019.651,2.43,2.43,0,0,1,.73,1.914,2.153,2.153,0,0,1-.34,1.181,2.289,2.289,0,0,1-.949.832,2.184,2.184,0,0,1,1.063.847A2.489,2.489,0,0,1,6.6-2.577a2.537,2.537,0,0,1-.8,1.99,3,3,0,0,1-2.085.72,3.3,3.3,0,0,1-2.079-.7A2.129,2.129,0,0,1,.762-2.4l.013-.038H1.968A1.5,1.5,0,0,0,2.453-1.3a1.748,1.748,0,0,0,1.254.46,1.555,1.555,0,0,0,1.2-.473,1.745,1.745,0,0,0,.438-1.235,1.847,1.847,0,0,0-.4-1.3,1.658,1.658,0,0,0-1.266-.432H2.647v-.971Z" transform="translate(8.682 17.137)"/>
      </g>
      <g id="Grupo_986471" data-name="Grupo 986471" transform="translate(521.189 8983.238)">
        <path id="Trazado_729574-2" data-name="Trazado 729574" d="M0,12.308A12.308,12.308,0,1,1,12.308,24.616,12.308,12.308,0,0,1,0,12.308Z" transform="translate(0.311 0.262)" fill="none" stroke="#000" stroke-miterlimit="8" stroke-width="1"/>
        <path id="Trazado_731611" data-name="Trazado 731611" d="M1.111-4.107l.533-5.135H6.271v1.111H2.7l-.3,2.66a2.853,2.853,0,0,1,.66-.365,2.322,2.322,0,0,1,.825-.149,2.517,2.517,0,0,1,2.009.8,3.243,3.243,0,0,1,.727,2.238A3.251,3.251,0,0,1,5.875-.711,2.748,2.748,0,0,1,3.7.133,2.979,2.979,0,0,1,1.746-.508,2.219,2.219,0,0,1,1-2.393l.013-.038h1.13A1.544,1.544,0,0,0,2.574-1.26,1.563,1.563,0,0,0,3.7-.844,1.475,1.475,0,0,0,4.932-1.4a2.418,2.418,0,0,0,.438-1.53,2.2,2.2,0,0,0-.441-1.428A1.491,1.491,0,0,0,3.7-4.907a1.963,1.963,0,0,0-1.066.222A1.3,1.3,0,0,0,2.146-4Z" transform="translate(8.816 17.004)"/>
      </g>
      <g id="Grupo_986470" data-name="Grupo 986470" transform="translate(346.107 8983.238)">
        <path id="Trazado_729574-3" data-name="Trazado 729574" d="M0,12.308A12.308,12.308,0,1,1,12.308,24.616,12.308,12.308,0,0,1,0,12.308Z" transform="translate(0.393 0.262)" fill="none" stroke="#000" stroke-miterlimit="8" stroke-width="1"/>
        <path id="Trazado_731608" data-name="Trazado 731608" d="M6.69,0H.952V-.857l2.9-3.459A8.715,8.715,0,0,0,4.9-5.811a2.5,2.5,0,0,0,.276-1.12,1.5,1.5,0,0,0-.375-1.051,1.332,1.332,0,0,0-1.035-.409,1.55,1.55,0,0,0-1.247.5,1.858,1.858,0,0,0-.428,1.25H.889L.876-6.678a2.493,2.493,0,0,1,.755-1.914,2.9,2.9,0,0,1,2.139-.784,2.69,2.69,0,0,1,1.949.686A2.351,2.351,0,0,1,6.43-6.919a2.825,2.825,0,0,1-.4,1.428A15.935,15.935,0,0,1,4.8-3.739L2.469-1.009l.013.032H6.69Z" transform="translate(9.018 17.138)"/>
      </g>
      <g id="Grupo_986472" data-name="Grupo 986472" transform="translate(484.738 8983.238)">
        <path id="Trazado_729574-4" data-name="Trazado 729574" d="M0,12.308A12.308,12.308,0,1,1,12.308,24.616,12.308,12.308,0,0,1,0,12.308Z" transform="translate(-0.238 0.262)" fill="none" stroke="#000" stroke-miterlimit="8" stroke-width="1"/>
        <path id="Trazado_731610" data-name="Trazado 731610" d="M5.668-3.11H6.944v.978H5.668V0H4.424V-2.133H.457v-.7l3.891-6.4h1.32ZM1.8-3.11H4.424V-7.446l-.038-.006-.121.317Z" transform="translate(8.805 17.004)"/>
      </g>
    </g>
    <g id="Grupo_986708" data-name="Grupo 986708">
      <path id="Trazado_729572" data-name="Trazado 729572" d="M0,0H267.262V121.3H0Z" transform="translate(627.5 9084.5)" fill="#effefe" stroke="#000" stroke-miterlimit="8" stroke-width="1"/>
      <g id="Grupo_986707" data-name="Grupo 986707" transform="translate(-3.967 -0.288)">
        <path id="Trazado_731644" data-name="Trazado 731644" d="M7.413-2.606H3.495L2.681,0H.149L4.225-12.086H6.707L10.766,0H8.234Zm-3.32-1.9H6.823L5.487-8.766h-.05ZM5.9-15.489H8.6l.017.05-2.3,2.158H4.25ZM14.35-4.831V0H11.927V-12.086H16.11a5.011,5.011,0,0,1,3.233.942A3.189,3.189,0,0,1,20.51-8.517a2.65,2.65,0,0,1-.494,1.606,3.44,3.44,0,0,1-1.44,1.092,2.6,2.6,0,0,1,1.54,1.054,3.342,3.342,0,0,1,.469,1.826v.888a4.394,4.394,0,0,0,.137,1.058,1.455,1.455,0,0,0,.469.818V0h-2.5a1.342,1.342,0,0,1-.427-.88,7.73,7.73,0,0,1-.1-1.187v-.855a1.921,1.921,0,0,0-.494-1.407,1.873,1.873,0,0,0-1.4-.5Zm0-1.868h1.718a2.273,2.273,0,0,0,1.519-.432,1.6,1.6,0,0,0,.5-1.278,1.759,1.759,0,0,0-.5-1.32,2.028,2.028,0,0,0-1.473-.49H14.35ZM29.664-5.312H25.181v3.453H30.51V0H22.757V-12.086h7.736v1.868H25.181V-7.18h4.482Zm8.847,2.706H34.593L33.779,0H31.247l4.076-12.086H37.8L41.864,0H39.332Zm-3.32-1.9h2.731L36.585-8.766h-.05ZM47.256,0V-12.086h4.217a4.987,4.987,0,0,1,3.652,1.415,4.879,4.879,0,0,1,1.436,3.632v2a4.861,4.861,0,0,1-1.436,3.632A5,5,0,0,1,51.473,0ZM49.68-10.218v8.359h1.793A2.366,2.366,0,0,0,53.4-2.752a3.493,3.493,0,0,0,.73-2.287V-7.056A3.463,3.463,0,0,0,53.4-9.33a2.371,2.371,0,0,0-1.926-.888ZM65.408-5.312H60.926v3.453h5.329V0H58.5V-12.086h7.736v1.868H60.926V-7.18h4.482Zm13.685,0H74.61v3.453H79.94V0H72.187V-12.086h7.736v1.868H74.61V-7.18h4.482ZM91.41,0H88.986L84.113-8.151l-.05.008V0H81.639V-12.086h2.424l4.873,8.143.05-.008v-8.135H91.41Zm8.523-3.154a1.414,1.414,0,0,0-.486-1.121,4.879,4.879,0,0,0-1.706-.8,9.694,9.694,0,0,1-3.175-1.486A2.811,2.811,0,0,1,93.483-8.89a2.933,2.933,0,0,1,1.22-2.428,4.945,4.945,0,0,1,3.113-.942,4.91,4.91,0,0,1,3.233,1.013,3.168,3.168,0,0,1,1.183,2.656l-.017.05H99.866a1.76,1.76,0,0,0-.548-1.39,2.237,2.237,0,0,0-1.536-.486,2.029,2.029,0,0,0-1.386.432,1.406,1.406,0,0,0-.49,1.1,1.206,1.206,0,0,0,.531,1.009,7.107,7.107,0,0,0,1.834.834,7.893,7.893,0,0,1,3.038,1.473,3.018,3.018,0,0,1,1.046,2.395,2.882,2.882,0,0,1-1.212,2.449,5.261,5.261,0,0,1-3.2.9A5.725,5.725,0,0,1,94.591-.8a3.2,3.2,0,0,1-1.357-2.9l.017-.05H95.6a1.9,1.9,0,0,0,.631,1.577,2.656,2.656,0,0,0,1.71.506,2.334,2.334,0,0,0,1.482-.407A1.319,1.319,0,0,0,99.933-3.154Zm10.507.548h-3.918L105.708,0h-2.532l4.076-12.086h2.482L113.793,0h-2.532Zm-3.32-1.9h2.731l-1.336-4.258h-.05ZM121.2-3.179h.05l3.1-8.907h3.163V0H125.1V-8.251l-.05-.008L122.059,0h-1.644l-2.988-8.276-.05.008V0h-2.424V-12.086h3.179ZM129.744,0V-12.086H133.7a5.749,5.749,0,0,1,3.329.834,2.825,2.825,0,0,1,1.2,2.478,2.642,2.642,0,0,1-.432,1.486,2.624,2.624,0,0,1-1.262.988,2.6,2.6,0,0,1,1.7.979,2.941,2.941,0,0,1,.573,1.8,3.127,3.127,0,0,1-1.146,2.627A5.177,5.177,0,0,1,134.417,0Zm2.424-5.346v3.486h2.25a2.252,2.252,0,0,0,1.469-.419,1.518,1.518,0,0,0,.506-1.241,1.778,1.778,0,0,0-.5-1.353,2.109,2.109,0,0,0-1.5-.473Zm0-1.677h1.619a2.426,2.426,0,0,0,1.494-.4,1.371,1.371,0,0,0,.523-1.162,1.45,1.45,0,0,0-.527-1.237,2.589,2.589,0,0,0-1.573-.4h-1.536ZM143-1.859h5.412V0h-7.836V-12.086H143Zm13.927-3.453h-4.482v3.453h5.329V0h-7.753V-12.086h7.736v1.868h-5.312V-7.18h4.482Z" transform="translate(671.337 9111.777)"/>
        <text id="Área_de_corte" data-name="Área de corte" transform="translate(646.517 9139.726)" font-size="13" font-family="Roboto-Regular, Roboto" letter-spacing="0.002em"><tspan x="0" y="0">Área de corte</tspan></text>
        <text id="Cizalla" transform="translate(646.517 9159.06)" font-size="13" font-family="Roboto-Regular, Roboto" letter-spacing="0.001em"><tspan x="0" y="0">Cizalla</tspan></text>
        <text id="Cortadora" transform="translate(645.967 9174.346)" font-size="13" font-family="Roboto-Regular, Roboto" letter-spacing="0.001em"><tspan x="0" y="0">Cortadora</tspan></text>
        <path id="Trazado_731637" data-name="Trazado 731637" d="M7.674-2.958l.013.038A2.776,2.776,0,0,1,6.773-.743,3.493,3.493,0,0,1,4.291.133,3.259,3.259,0,0,1,1.736-.978,4.085,4.085,0,0,1,.749-3.8V-5.44a4.1,4.1,0,0,1,.987-2.822A3.255,3.255,0,0,1,4.291-9.375a3.588,3.588,0,0,1,2.495.835,2.759,2.759,0,0,1,.9,2.212l-.013.038h-1.2A2.063,2.063,0,0,0,5.9-7.827a2.195,2.195,0,0,0-1.612-.565,1.969,1.969,0,0,0-1.669.844A3.435,3.435,0,0,0,2-5.453V-3.8a3.456,3.456,0,0,0,.622,2.107,1.969,1.969,0,0,0,1.669.844A2.2,2.2,0,0,0,5.9-1.406a2.077,2.077,0,0,0,.571-1.552ZM8.86-3.5a3.781,3.781,0,0,1,.825-2.51A2.767,2.767,0,0,1,11.926-7a2.794,2.794,0,0,1,2.257.984A3.769,3.769,0,0,1,15.011-3.5v.14a3.763,3.763,0,0,1-.825,2.514,2.786,2.786,0,0,1-2.247.978,2.791,2.791,0,0,1-2.25-.981,3.756,3.756,0,0,1-.828-2.51Zm1.25.14a3.258,3.258,0,0,0,.46,1.8,1.523,1.523,0,0,0,1.368.711A1.519,1.519,0,0,0,13.3-1.555a3.24,3.24,0,0,0,.463-1.8V-3.5a3.231,3.231,0,0,0-.467-1.8,1.529,1.529,0,0,0-1.368-.717,1.508,1.508,0,0,0-1.355.717,3.265,3.265,0,0,0-.46,1.8ZM19.8-5.764,19.162-5.8a1.432,1.432,0,0,0-.835.235,1.507,1.507,0,0,0-.524.66V0h-1.25V-6.868H17.67l.121,1a2.384,2.384,0,0,1,.72-.832A1.685,1.685,0,0,1,19.5-7a1.545,1.545,0,0,1,.267.022,1.767,1.767,0,0,1,.209.048Zm3.16-2.761v1.657h1.3v.927h-1.3v4.17a.934.934,0,0,0,.2.679.723.723,0,0,0,.53.2,1.161,1.161,0,0,0,.241-.029,1.789,1.789,0,0,0,.222-.06l.171.857a1.105,1.105,0,0,1-.413.187,2.082,2.082,0,0,1-.54.073,1.619,1.619,0,0,1-1.212-.46,2,2,0,0,1-.451-1.444v-4.17H20.621v-.927h1.092V-8.525ZM29.836,0q-.063-.311-.1-.549a4.03,4.03,0,0,1-.041-.479,2.916,2.916,0,0,1-.911.828,2.329,2.329,0,0,1-1.209.333,2.245,2.245,0,0,1-1.635-.549A2.02,2.02,0,0,1,25.38-1.93a1.774,1.774,0,0,1,.8-1.539,3.72,3.72,0,0,1,2.161-.555H29.7V-4.7a1.26,1.26,0,0,0-.368-.955,1.446,1.446,0,0,0-1.041-.352,1.51,1.51,0,0,0-.984.3.914.914,0,0,0-.375.73l-1.187.013L25.729-5a1.644,1.644,0,0,1,.7-1.371A2.907,2.907,0,0,1,28.357-7a2.836,2.836,0,0,1,1.879.594,2.1,2.1,0,0,1,.711,1.711v3.307a6.437,6.437,0,0,0,.038.711,3.656,3.656,0,0,0,.14.673ZM27.761-.914a2.226,2.226,0,0,0,1.225-.349,1.659,1.659,0,0,0,.711-.8V-3.18h-1.4a1.82,1.82,0,0,0-1.209.381,1.139,1.139,0,0,0-.454.9.942.942,0,0,0,.286.724A1.2,1.2,0,0,0,27.761-.914Zm4.728-2.393A4.584,4.584,0,0,1,33.2-5.979,2.28,2.28,0,0,1,35.18-7a2.459,2.459,0,0,1,1.07.222,2.192,2.192,0,0,1,.8.647V-9.9H38.3V0h-.958l-.19-.87a2.229,2.229,0,0,1-.832.749,2.484,2.484,0,0,1-1.149.254A2.357,2.357,0,0,1,33.2-.778a3.785,3.785,0,0,1-.711-2.4Zm1.25.133a2.915,2.915,0,0,0,.425,1.666,1.485,1.485,0,0,0,1.32.625,1.656,1.656,0,0,0,.939-.254,1.9,1.9,0,0,0,.622-.711V-5.053a1.925,1.925,0,0,0-.625-.676,1.652,1.652,0,0,0-.924-.251,1.429,1.429,0,0,0-1.33.743,3.834,3.834,0,0,0-.428,1.93ZM39.883-3.5a3.781,3.781,0,0,1,.825-2.51A2.767,2.767,0,0,1,42.949-7a2.794,2.794,0,0,1,2.257.984A3.769,3.769,0,0,1,46.034-3.5v.14a3.763,3.763,0,0,1-.825,2.514,2.786,2.786,0,0,1-2.247.978,2.791,2.791,0,0,1-2.25-.981,3.756,3.756,0,0,1-.828-2.51Zm1.25.14a3.258,3.258,0,0,0,.46,1.8,1.523,1.523,0,0,0,1.368.711,1.519,1.519,0,0,0,1.358-.711,3.24,3.24,0,0,0,.463-1.8V-3.5a3.231,3.231,0,0,0-.467-1.8,1.529,1.529,0,0,0-1.368-.717,1.508,1.508,0,0,0-1.355.717,3.265,3.265,0,0,0-.46,1.8Zm9.692-2.406L50.184-5.8a1.432,1.432,0,0,0-.835.235,1.507,1.507,0,0,0-.524.66V0h-1.25V-6.868h1.117l.121,1a2.384,2.384,0,0,1,.72-.832A1.685,1.685,0,0,1,50.52-7a1.545,1.545,0,0,1,.267.022A1.767,1.767,0,0,1,51-6.925ZM56.359,0q-.063-.311-.1-.549a4.03,4.03,0,0,1-.041-.479,2.916,2.916,0,0,1-.911.828A2.329,2.329,0,0,1,54.1.133a2.245,2.245,0,0,1-1.635-.549A2.02,2.02,0,0,1,51.9-1.93a1.774,1.774,0,0,1,.8-1.539,3.72,3.72,0,0,1,2.161-.555H56.22V-4.7a1.26,1.26,0,0,0-.368-.955,1.446,1.446,0,0,0-1.041-.352,1.51,1.51,0,0,0-.984.3.914.914,0,0,0-.375.73l-1.187.013L52.252-5a1.644,1.644,0,0,1,.7-1.371A2.907,2.907,0,0,1,54.88-7a2.836,2.836,0,0,1,1.879.594,2.1,2.1,0,0,1,.711,1.711v3.307a6.437,6.437,0,0,0,.038.711,3.656,3.656,0,0,0,.14.673ZM54.284-.914a2.226,2.226,0,0,0,1.225-.349,1.659,1.659,0,0,0,.711-.8V-3.18h-1.4a1.82,1.82,0,0,0-1.209.381,1.139,1.139,0,0,0-.454.9.942.942,0,0,0,.286.724A1.2,1.2,0,0,0,54.284-.914Z" transform="translate(739.935 9135.884)"/>
        <path id="Trazado_729575" data-name="Trazado 729575" d="M584.5-176.707A14.553,14.553,0,0,1,598.8-191.5a14.553,14.553,0,0,1,14.3,14.793,14.553,14.553,0,0,1-14.3,14.793A14.553,14.553,0,0,1,584.5-176.707Z" transform="translate(168.772 9338.077)" fill="#fff" fill-rule="evenodd"/>
        <path id="Trazado_729576" data-name="Trazado 729576" d="M0,14.793A14.553,14.553,0,0,1,14.3,0,14.553,14.553,0,0,1,28.6,14.793,14.553,14.553,0,0,1,14.3,29.586,14.553,14.553,0,0,1,0,14.793Z" transform="translate(753.772 9147.077)" fill="none" stroke="#000" stroke-miterlimit="8" stroke-width="1"/>
        <path id="Trazado_731640" data-name="Trazado 731640" d="M4.523-6.469A1.8,1.8,0,0,0,5.98-6.98a2.179,2.179,0,0,0,.426-1.434A2.02,2.02,0,0,0,5.941-9.8a1.741,1.741,0,0,0-1.379-.527,2.057,2.057,0,0,0-1.473.551A1.819,1.819,0,0,0,2.508-8.4H1.039l-.023-.047a2.718,2.718,0,0,1,.969-2.187,3.709,3.709,0,0,1,2.578-.906,3.6,3.6,0,0,1,2.484.8,2.991,2.991,0,0,1,.9,2.355A2.65,2.65,0,0,1,7.527-6.93,2.818,2.818,0,0,1,6.359-5.906,2.688,2.688,0,0,1,7.668-4.863a3.063,3.063,0,0,1,.449,1.691A3.122,3.122,0,0,1,7.129-.723,3.7,3.7,0,0,1,4.563.164,4.064,4.064,0,0,1,2-.691,2.62,2.62,0,0,1,.938-2.953L.953-3H2.422a1.846,1.846,0,0,0,.6,1.395,2.152,2.152,0,0,0,1.543.566,1.914,1.914,0,0,0,1.477-.582,2.147,2.147,0,0,0,.539-1.52,2.273,2.273,0,0,0-.5-1.6,2.041,2.041,0,0,0-1.559-.531H3.258v-1.2Z" transform="translate(763.336 9167.116)"/>
        <g id="Grupo_986703" data-name="Grupo 986703" transform="translate(2.868 6.04)">
          <g id="Grupo_986474" data-name="Grupo 986474" transform="translate(697.759 9135.606)">
            <path id="Trazado_729575-2" data-name="Trazado 729575" d="M584.5-176.707A14.553,14.553,0,0,1,598.8-191.5a14.553,14.553,0,0,1,14.3,14.793,14.553,14.553,0,0,1-14.3,14.793A14.553,14.553,0,0,1,584.5-176.707Z" transform="translate(-584.259 191.894)" fill="#fff" fill-rule="evenodd"/>
            <path id="Trazado_729576-2" data-name="Trazado 729576" d="M0,14.793A14.553,14.553,0,0,1,14.3,0,14.553,14.553,0,0,1,28.6,14.793,14.553,14.553,0,0,1,14.3,29.586,14.553,14.553,0,0,1,0,14.793Z" transform="translate(0 0)" fill="none" stroke="#000" stroke-miterlimit="8" stroke-width="1"/>
            <path id="Trazado_731636" data-name="Trazado 731636" d="M4.523-6.469A1.8,1.8,0,0,0,5.98-6.98a2.179,2.179,0,0,0,.426-1.434A2.02,2.02,0,0,0,5.941-9.8a1.741,1.741,0,0,0-1.379-.527,2.057,2.057,0,0,0-1.473.551A1.819,1.819,0,0,0,2.508-8.4H1.039l-.023-.047a2.718,2.718,0,0,1,.969-2.187,3.709,3.709,0,0,1,2.578-.906,3.6,3.6,0,0,1,2.484.8,2.991,2.991,0,0,1,.9,2.355A2.65,2.65,0,0,1,7.527-6.93,2.818,2.818,0,0,1,6.359-5.906,2.688,2.688,0,0,1,7.668-4.863a3.063,3.063,0,0,1,.449,1.691A3.122,3.122,0,0,1,7.129-.723,3.7,3.7,0,0,1,4.563.164,4.064,4.064,0,0,1,2-.691,2.62,2.62,0,0,1,.938-2.953L.953-3H2.422a1.846,1.846,0,0,0,.6,1.395,2.152,2.152,0,0,0,1.543.566,1.914,1.914,0,0,0,1.477-.582,2.147,2.147,0,0,0,.539-1.52,2.273,2.273,0,0,0-.5-1.6,2.041,2.041,0,0,0-1.559-.531H3.258v-1.2Z" transform="translate(9.305 20.932)"/>
          </g>
        </g>
        <g id="Grupo_986704" data-name="Grupo 986704" transform="translate(3.272 2.577)">
          <path id="Trazado_729577" data-name="Trazado 729577" d="M632.5-203.707A14.793,14.793,0,0,1,647.293-218.5a14.793,14.793,0,0,1,14.793,14.793,14.793,14.793,0,0,1-14.793,14.793A14.793,14.793,0,0,1,632.5-203.707Z" transform="translate(164.5 9336.5)" fill="#fff" fill-rule="evenodd"/>
          <path id="Trazado_729578" data-name="Trazado 729578" d="M0,14.793A14.793,14.793,0,1,1,14.793,29.586,14.793,14.793,0,0,1,0,14.793Z" transform="translate(797.5 9117.5)" fill="none" stroke="#000" stroke-miterlimit="8" stroke-width="1"/>
          <path id="Trazado_731641" data-name="Trazado 731641" d="M6.977-3.828h1.57v1.2H6.977V0H5.445V-2.625H.563v-.867l4.789-7.883H6.977Zm-4.766,0H5.445V-9.164L5.4-9.172l-.148.391Z" transform="translate(807.438 9138.375)"/>
        </g>
        <path id="Trazado_731639" data-name="Trazado 731639" d="M5.853-2.38H2.374L1.549,0H.273L3.605-9.242H4.678L7.941,0H6.665ZM2.736-3.428H5.5L4.151-7.4H4.113Zm1.98-8.4h1.46l.013.038-1.708,1.65H3.542ZM12.4-5.764,11.762-5.8a1.432,1.432,0,0,0-.835.235,1.507,1.507,0,0,0-.524.66V0H9.153V-6.868H10.27l.121,1a2.384,2.384,0,0,1,.72-.832A1.685,1.685,0,0,1,12.1-7a1.545,1.545,0,0,1,.267.022,1.767,1.767,0,0,1,.209.048Zm4.049,5.9a2.906,2.906,0,0,1-2.307-.946A3.64,3.64,0,0,1,13.316-3.3V-3.58a3.563,3.563,0,0,1,.854-2.447A2.677,2.677,0,0,1,16.255-7a2.492,2.492,0,0,1,2.066.857,3.53,3.53,0,0,1,.689,2.279v.66H14.617l-.019.032a2.839,2.839,0,0,0,.457,1.679,1.6,1.6,0,0,0,1.4.644,3.146,3.146,0,0,0,1.114-.181,2.487,2.487,0,0,0,.822-.5l.489.813a3.006,3.006,0,0,1-.971.6A3.869,3.869,0,0,1,16.452.133Zm-.2-6.145a1.359,1.359,0,0,0-1.082.5,2.387,2.387,0,0,0-.524,1.292l.013.032h3.1v-.1a2,2,0,0,0-.368-1.238A1.331,1.331,0,0,0,16.255-6.011ZM24.659,0q-.063-.311-.1-.549a4.03,4.03,0,0,1-.041-.479,2.916,2.916,0,0,1-.911.828A2.329,2.329,0,0,1,22.4.133a2.245,2.245,0,0,1-1.635-.549A2.02,2.02,0,0,1,20.2-1.93,1.774,1.774,0,0,1,21-3.469a3.72,3.72,0,0,1,2.161-.555h1.358V-4.7a1.26,1.26,0,0,0-.368-.955,1.446,1.446,0,0,0-1.041-.352,1.51,1.51,0,0,0-.984.3.914.914,0,0,0-.375.73l-1.187.013L20.552-5a1.644,1.644,0,0,1,.7-1.371A2.907,2.907,0,0,1,23.18-7a2.836,2.836,0,0,1,1.879.594,2.1,2.1,0,0,1,.711,1.711v3.307a6.437,6.437,0,0,0,.038.711,3.656,3.656,0,0,0,.14.673ZM22.583-.914a2.226,2.226,0,0,0,1.225-.349,1.659,1.659,0,0,0,.711-.8V-3.18h-1.4a1.82,1.82,0,0,0-1.209.381,1.139,1.139,0,0,0-.454.9.942.942,0,0,0,.286.724A1.2,1.2,0,0,0,22.583-.914Z" transform="translate(845.133 9142.825)"/>
        <path id="Trazado_731638" data-name="Trazado 731638" d="M2.33-4.005V0H1.079V-9.236H4.24a3.51,3.51,0,0,1,2.317.673,2.411,2.411,0,0,1,.8,1.955A2.093,2.093,0,0,1,6.986-5.37,2.516,2.516,0,0,1,5.9-4.532,1.894,1.894,0,0,1,7-3.729a2.629,2.629,0,0,1,.333,1.374v.87a2.9,2.9,0,0,0,.1.774,1.161,1.161,0,0,0,.33.559V0H6.468a1.034,1.034,0,0,1-.317-.635,5.243,5.243,0,0,1-.07-.863v-.844a1.67,1.67,0,0,0-.438-1.206,1.551,1.551,0,0,0-1.174-.457Zm0-.984H4.113a2.323,2.323,0,0,0,1.527-.4,1.536,1.536,0,0,0,.467-1.228A1.583,1.583,0,0,0,5.653-7.83,2,2,0,0,0,4.24-8.258H2.33ZM12,.133A2.906,2.906,0,0,1,9.688-.812,3.64,3.64,0,0,1,8.859-3.3V-3.58a3.563,3.563,0,0,1,.854-2.447A2.677,2.677,0,0,1,11.8-7a2.492,2.492,0,0,1,2.066.857,3.53,3.53,0,0,1,.689,2.279v.66H10.161l-.019.032A2.839,2.839,0,0,0,10.6-1.489,1.6,1.6,0,0,0,12-.844a3.146,3.146,0,0,0,1.114-.181,2.487,2.487,0,0,0,.822-.5l.489.813a3.006,3.006,0,0,1-.971.6A3.869,3.869,0,0,1,12,.133Zm-.2-6.145a1.359,1.359,0,0,0-1.082.5,2.387,2.387,0,0,0-.524,1.292l.013.032h3.1v-.1a2,2,0,0,0-.368-1.238A1.331,1.331,0,0,0,11.8-6.011Zm5.248-.857.089.9a2.333,2.333,0,0,1,.854-.759,2.565,2.565,0,0,1,1.2-.27,2.125,2.125,0,0,1,1.177.317,1.92,1.92,0,0,1,.74.952,2.569,2.569,0,0,1,.86-.93A2.25,2.25,0,0,1,23.21-7a2.056,2.056,0,0,1,1.657.72,3.291,3.291,0,0,1,.609,2.168V0h-1.25V-4.12a2.283,2.283,0,0,0-.349-1.438,1.273,1.273,0,0,0-1.041-.422,1.325,1.325,0,0,0-1.038.444,1.934,1.934,0,0,0-.467,1.124V0H20.074V-4.12a2.252,2.252,0,0,0-.359-1.412,1.245,1.245,0,0,0-1.031-.448,1.718,1.718,0,0,0-.939.235,1.517,1.517,0,0,0-.565.66V0h-1.25V-6.868ZM31.485,0q-.063-.311-.1-.549a4.03,4.03,0,0,1-.041-.479,2.916,2.916,0,0,1-.911.828,2.329,2.329,0,0,1-1.209.333,2.245,2.245,0,0,1-1.635-.549,2.02,2.02,0,0,1-.562-1.514,1.774,1.774,0,0,1,.8-1.539,3.72,3.72,0,0,1,2.161-.555h1.358V-4.7a1.26,1.26,0,0,0-.368-.955,1.446,1.446,0,0,0-1.041-.352,1.51,1.51,0,0,0-.984.3.914.914,0,0,0-.375.73l-1.187.013L27.378-5a1.644,1.644,0,0,1,.7-1.371A2.907,2.907,0,0,1,30.006-7a2.836,2.836,0,0,1,1.879.594A2.1,2.1,0,0,1,32.6-4.691v3.307a6.437,6.437,0,0,0,.038.711,3.656,3.656,0,0,0,.14.673ZM29.409-.914a2.226,2.226,0,0,0,1.225-.349,1.659,1.659,0,0,0,.711-.8V-3.18h-1.4a1.82,1.82,0,0,0-1.209.381,1.139,1.139,0,0,0-.454.9.942.942,0,0,0,.286.724A1.2,1.2,0,0,0,29.409-.914Zm7.7.07a1.471,1.471,0,0,0,1.009-.384,1.213,1.213,0,0,0,.432-.943h1.13l.019.038a1.972,1.972,0,0,1-.762,1.577,2.691,2.691,0,0,1-1.828.689,2.7,2.7,0,0,1-2.234-.984,3.8,3.8,0,0,1-.787-2.45v-.267a3.781,3.781,0,0,1,.79-2.441A2.7,2.7,0,0,1,37.113-7,2.591,2.591,0,0,1,39-6.284,2.254,2.254,0,0,1,39.7-4.539l-.013.038H38.554a1.516,1.516,0,0,0-.409-1.07,1.347,1.347,0,0,0-1.031-.441,1.444,1.444,0,0,0-1.343.714,3.342,3.342,0,0,0-.422,1.73V-3.3a3.406,3.406,0,0,0,.416,1.746A1.443,1.443,0,0,0,37.113-.844Zm5.3-5.1a2.534,2.534,0,0,1,.873-.771A2.4,2.4,0,0,1,44.43-7a2.218,2.218,0,0,1,1.711.66A2.9,2.9,0,0,1,46.754-4.3V0H45.5V-4.316a1.838,1.838,0,0,0-.365-1.257,1.389,1.389,0,0,0-1.089-.406,2.043,2.043,0,0,0-.971.219,1.766,1.766,0,0,0-.667.613V0h-1.25V-9.9h1.25ZM51.366.133a2.906,2.906,0,0,1-2.307-.946A3.64,3.64,0,0,1,48.231-3.3V-3.58a3.563,3.563,0,0,1,.854-2.447A2.677,2.677,0,0,1,51.17-7a2.492,2.492,0,0,1,2.066.857,3.53,3.53,0,0,1,.689,2.279v.66H49.532l-.019.032a2.839,2.839,0,0,0,.457,1.679,1.6,1.6,0,0,0,1.4.644,3.146,3.146,0,0,0,1.114-.181,2.487,2.487,0,0,0,.822-.5l.489.813a3.006,3.006,0,0,1-.971.6A3.869,3.869,0,0,1,51.366.133Zm-.2-6.145a1.359,1.359,0,0,0-1.082.5,2.387,2.387,0,0,0-.524,1.292l.013.032h3.1v-.1a2,2,0,0,0-.368-1.238A1.331,1.331,0,0,0,51.17-6.011Z" transform="translate(830.212 9159.591)"/>
        <g id="Grupo_986705" data-name="Grupo 986705" transform="translate(3.272 2.577)">
          <path id="Trazado_729579" data-name="Trazado 729579" d="M637.5-159.707A14.553,14.553,0,0,1,651.8-174.5a14.553,14.553,0,0,1,14.3,14.793,14.553,14.553,0,0,1-14.3,14.793A14.553,14.553,0,0,1,637.5-159.707Z" transform="translate(164.5 9335.5)" fill="#fff" fill-rule="evenodd"/>
          <path id="Trazado_729580" data-name="Trazado 729580" d="M0,14.793A14.553,14.553,0,0,1,14.3,0,14.553,14.553,0,0,1,28.6,14.793,14.553,14.553,0,0,1,14.3,29.586,14.553,14.553,0,0,1,0,14.793Z" transform="translate(802.5 9161.5)" fill="none" stroke="#000" stroke-miterlimit="8" stroke-width="1"/>
          <path id="Trazado_731642" data-name="Trazado 731642" d="M1.367-5.055l.656-6.32h5.7v1.367H3.32L2.953-6.734a3.511,3.511,0,0,1,.813-.449,2.858,2.858,0,0,1,1.016-.184,3.1,3.1,0,0,1,2.473.988,3.992,3.992,0,0,1,.895,2.754A4,4,0,0,1,7.23-.875,3.382,3.382,0,0,1,4.555.164,3.666,3.666,0,0,1,2.148-.625a2.731,2.731,0,0,1-.922-2.32l.016-.047H2.633a1.9,1.9,0,0,0,.535,1.441,1.924,1.924,0,0,0,1.387.512A1.816,1.816,0,0,0,6.07-1.727a2.976,2.976,0,0,0,.539-1.883,2.71,2.71,0,0,0-.543-1.758,1.835,1.835,0,0,0-1.512-.672,2.416,2.416,0,0,0-1.312.273,1.6,1.6,0,0,0-.6.844Z" transform="translate(811.775 9181.375)"/>
        </g>
        <g id="Grupo_986706" data-name="Grupo 986706" transform="translate(3.272 2.577)">
          <path id="Trazado_729581" data-name="Trazado 729581" d="M678.5-159.707A14.553,14.553,0,0,1,692.8-174.5a14.553,14.553,0,0,1,14.3,14.793,14.553,14.553,0,0,1-14.3,14.793A14.553,14.553,0,0,1,678.5-159.707Z" transform="translate(164.5 9335.5)" fill="#fff" fill-rule="evenodd"/>
          <path id="Trazado_729582" data-name="Trazado 729582" d="M0,14.793A14.553,14.553,0,0,1,14.3,0,14.553,14.553,0,0,1,28.6,14.793,14.553,14.553,0,0,1,14.3,29.586,14.553,14.553,0,0,1,0,14.793Z" transform="translate(842.5 9161.5)" fill="none" stroke="#000" stroke-miterlimit="8" stroke-width="1"/>
          <path id="Trazado_731643" data-name="Trazado 731643" d="M5.008-11.539a6.679,6.679,0,0,1,1.328.133,4.8,4.8,0,0,1,1.086.336l-.328,1.18a5.748,5.748,0,0,0-.937-.316,4.842,4.842,0,0,0-1.148-.121,2.06,2.06,0,0,0-1.738.914A3.817,3.817,0,0,0,2.6-7.1v.883a3.48,3.48,0,0,1,1.129-.75,3.591,3.591,0,0,1,1.4-.273,2.921,2.921,0,0,1,2.324.984,3.8,3.8,0,0,1,.855,2.586A3.97,3.97,0,0,1,7.355-.879,3.333,3.333,0,0,1,4.773.164a3.385,3.385,0,0,1-2.641-1.2A4.767,4.767,0,0,1,1.07-4.312V-6.93a4.849,4.849,0,0,1,1.137-3.3A3.572,3.572,0,0,1,5.008-11.539ZM4.641-6.094a2.4,2.4,0,0,0-1.246.309,2.065,2.065,0,0,0-.793.832v.789A3.731,3.731,0,0,0,3.23-1.879a1.872,1.872,0,0,0,1.543.84,1.708,1.708,0,0,0,1.48-.73,3.21,3.21,0,0,0,.52-1.9,2.634,2.634,0,0,0-.559-1.766A1.954,1.954,0,0,0,4.641-6.094Z" transform="translate(851.93 9181.539)"/>
        </g>
      </g>
    </g>
    <path id="Trazado_729589" data-name="Trazado 729589" d="M0,0V87.379" transform="translate(660.283 9205.628)" fill="none" stroke="#000" stroke-miterlimit="8" stroke-width="0.5"/>
    <path id="Trazado_729590" data-name="Trazado 729590" d="M0,0V87.379" transform="translate(690.855 9205.628)" fill="none" stroke="#000" stroke-miterlimit="8" stroke-width="0.5"/>
    <g id="Grupo_986701" data-name="Grupo 986701">
      <path id="Trazado_729591" data-name="Trazado 729591" d="M522.5-41.3l21.2-21.2v10.6h23.176v21.2H543.7v10.6Z" transform="translate(166.5 9334.5)" fill="#f5e6e9" fill-rule="evenodd"/>
      <path id="Trazado_729592" data-name="Trazado 729592" d="M0,21.2,21.2,0V10.6H44.379v21.2H21.2v10.6Z" transform="translate(688.5 9271.5)" fill="none" stroke="#000" stroke-miterlimit="8" stroke-width="1"/>
      <path id="Trazado_731633" data-name="Trazado 731633" d="M8.234,0H1.172V-1.055l3.57-4.258a10.726,10.726,0,0,0,1.293-1.84,3.07,3.07,0,0,0,.34-1.379,1.841,1.841,0,0,0-.461-1.293,1.639,1.639,0,0,0-1.273-.5,1.908,1.908,0,0,0-1.535.617,2.286,2.286,0,0,0-.527,1.539H1.094l-.016-.047a3.068,3.068,0,0,1,.93-2.355,3.566,3.566,0,0,1,2.633-.965,3.31,3.31,0,0,1,2.4.844,2.894,2.894,0,0,1,.875,2.18,3.476,3.476,0,0,1-.5,1.758A19.612,19.612,0,0,1,5.906-4.6L3.039-1.242l.016.039h5.18Z" transform="translate(705.923 9298.539)"/>
    </g>
    <path id="Trazado_729593" data-name="Trazado 729593" d="M0,0H17.152" transform="translate(733.262 9293.4)" fill="none" stroke="#000" stroke-miterlimit="8" stroke-width="0.5"/>
    <g id="Grupo_986702" data-name="Grupo 986702">
      <path id="Trazado_729595" data-name="Trazado 729595" d="M0,0H146.945V74.952H0Z" transform="translate(748.055 9255.924)" fill="#effefe" stroke="#000" stroke-miterlimit="8" stroke-width="1"/>
      <path id="Trazado_731634" data-name="Trazado 731634" d="M5.662-1.733H5.7L8.652-9.242h1.555V0H8.957V-6.925l-.038-.006L6.119,0H5.25L2.368-7.16l-.038.006V0H1.079V-9.242H2.723ZM16.384,0q-.063-.311-.1-.549a4.03,4.03,0,0,1-.041-.479,2.916,2.916,0,0,1-.911.828,2.329,2.329,0,0,1-1.209.333,2.245,2.245,0,0,1-1.635-.549,2.02,2.02,0,0,1-.562-1.514,1.774,1.774,0,0,1,.8-1.539,3.72,3.72,0,0,1,2.161-.555h1.358V-4.7a1.26,1.26,0,0,0-.368-.955,1.446,1.446,0,0,0-1.041-.352,1.51,1.51,0,0,0-.984.3.914.914,0,0,0-.375.73l-1.187.013L12.277-5a1.644,1.644,0,0,1,.7-1.371A2.907,2.907,0,0,1,14.9-7a2.836,2.836,0,0,1,1.879.594,2.1,2.1,0,0,1,.711,1.711v3.307a6.437,6.437,0,0,0,.038.711,3.656,3.656,0,0,0,.14.673ZM14.308-.914a2.226,2.226,0,0,0,1.225-.349,1.659,1.659,0,0,0,.711-.8V-3.18h-1.4a1.82,1.82,0,0,0-1.209.381,1.139,1.139,0,0,0-.454.9.942.942,0,0,0,.286.724A1.2,1.2,0,0,0,14.308-.914Zm1.073-8.868h1.46l.013.038-1.708,1.65h-.939Zm3.606,6.475a4.584,4.584,0,0,1,.708-2.672A2.28,2.28,0,0,1,21.678-7a2.424,2.424,0,0,1,1.1.238,2.278,2.278,0,0,1,.813.689l.178-.8h.958V2.641h-1.25V-.647a2.143,2.143,0,0,1-.781.584,2.547,2.547,0,0,1-1.028.2A2.357,2.357,0,0,1,19.7-.778a3.785,3.785,0,0,1-.711-2.4Zm1.25.133a2.993,2.993,0,0,0,.428,1.685,1.472,1.472,0,0,0,1.317.644,1.624,1.624,0,0,0,.879-.229,1.879,1.879,0,0,0,.613-.641V-5.18a1.892,1.892,0,0,0-.613-.609A1.634,1.634,0,0,0,22-6.011a1.425,1.425,0,0,0-1.327.759,3.9,3.9,0,0,0-.432,1.946ZM30.984-1.016a2.326,2.326,0,0,1-.832.851,2.275,2.275,0,0,1-1.174.3,2.206,2.206,0,0,1-1.752-.717A3.33,3.33,0,0,1,26.6-2.818v-4.05h1.25v4.063a2.557,2.557,0,0,0,.324,1.511,1.2,1.2,0,0,0,1.009.413,2.057,2.057,0,0,0,1.1-.27,1.688,1.688,0,0,0,.657-.765V-6.868h1.25V0H31.067ZM35.326,0h-1.25V-6.868h1.25Zm0-8.626h-1.25V-9.9h1.25Zm3,1.758.089,1.022a2.494,2.494,0,0,1,.86-.847A2.3,2.3,0,0,1,40.456-7a2.242,2.242,0,0,1,1.72.651,2.856,2.856,0,0,1,.609,2.009V0h-1.25V-4.31A1.858,1.858,0,0,0,41.176-5.6a1.437,1.437,0,0,0-1.095-.381,1.939,1.939,0,0,0-.981.232,1.684,1.684,0,0,0-.638.651V0h-1.25V-6.868ZM48.784,0q-.063-.311-.1-.549a4.03,4.03,0,0,1-.041-.479,2.916,2.916,0,0,1-.911.828,2.329,2.329,0,0,1-1.209.333A2.245,2.245,0,0,1,44.89-.416a2.02,2.02,0,0,1-.562-1.514,1.774,1.774,0,0,1,.8-1.539,3.72,3.72,0,0,1,2.161-.555h1.358V-4.7a1.26,1.26,0,0,0-.368-.955,1.446,1.446,0,0,0-1.041-.352,1.51,1.51,0,0,0-.984.3.914.914,0,0,0-.375.73l-1.187.013L44.677-5a1.644,1.644,0,0,1,.7-1.371A2.907,2.907,0,0,1,47.305-7a2.836,2.836,0,0,1,1.879.594,2.1,2.1,0,0,1,.711,1.711v3.307a6.437,6.437,0,0,0,.038.711,3.656,3.656,0,0,0,.14.673ZM46.708-.914a2.226,2.226,0,0,0,1.225-.349,1.659,1.659,0,0,0,.711-.8V-3.18h-1.4a1.82,1.82,0,0,0-1.209.381,1.139,1.139,0,0,0-.454.9.942.942,0,0,0,.286.724A1.2,1.2,0,0,0,46.708-.914ZM54.58-3.307a4.584,4.584,0,0,1,.708-2.672A2.28,2.28,0,0,1,57.272-7a2.459,2.459,0,0,1,1.07.222,2.192,2.192,0,0,1,.8.647V-9.9h1.25V0H59.43l-.19-.87a2.229,2.229,0,0,1-.832.749,2.484,2.484,0,0,1-1.149.254,2.357,2.357,0,0,1-1.968-.911,3.785,3.785,0,0,1-.711-2.4Zm1.25.133a2.915,2.915,0,0,0,.425,1.666,1.485,1.485,0,0,0,1.32.625,1.656,1.656,0,0,0,.939-.254,1.9,1.9,0,0,0,.622-.711V-5.053a1.925,1.925,0,0,0-.625-.676,1.652,1.652,0,0,0-.924-.251,1.429,1.429,0,0,0-1.33.743,3.834,3.834,0,0,0-.428,1.93ZM65.061.133a2.906,2.906,0,0,1-2.307-.946A3.64,3.64,0,0,1,61.925-3.3V-3.58a3.563,3.563,0,0,1,.854-2.447A2.677,2.677,0,0,1,64.864-7a2.492,2.492,0,0,1,2.066.857,3.53,3.53,0,0,1,.689,2.279v.66H63.226l-.019.032a2.839,2.839,0,0,0,.457,1.679,1.6,1.6,0,0,0,1.4.644,3.146,3.146,0,0,0,1.114-.181,2.487,2.487,0,0,0,.822-.5l.489.813a3.006,3.006,0,0,1-.971.6A3.869,3.869,0,0,1,65.061.133Zm-.2-6.145a1.359,1.359,0,0,0-1.082.5,2.387,2.387,0,0,0-.524,1.292l.013.032h3.1v-.1A2,2,0,0,0,66-5.522,1.331,1.331,0,0,0,64.864-6.011ZM74.907-.844a1.471,1.471,0,0,0,1.009-.384,1.213,1.213,0,0,0,.432-.943h1.13l.019.038a1.972,1.972,0,0,1-.762,1.577,2.691,2.691,0,0,1-1.828.689,2.7,2.7,0,0,1-2.234-.984,3.8,3.8,0,0,1-.787-2.45v-.267a3.781,3.781,0,0,1,.79-2.441A2.7,2.7,0,0,1,74.907-7a2.591,2.591,0,0,1,1.882.711A2.254,2.254,0,0,1,77.5-4.539l-.013.038H76.348a1.516,1.516,0,0,0-.409-1.07,1.347,1.347,0,0,0-1.031-.441,1.444,1.444,0,0,0-1.343.714,3.342,3.342,0,0,0-.422,1.73V-3.3a3.406,3.406,0,0,0,.416,1.746A1.443,1.443,0,0,0,74.907-.844ZM78.652-3.5a3.781,3.781,0,0,1,.825-2.51A2.767,2.767,0,0,1,81.718-7a2.794,2.794,0,0,1,2.257.984A3.769,3.769,0,0,1,84.8-3.5v.14a3.763,3.763,0,0,1-.825,2.514,2.786,2.786,0,0,1-2.247.978,2.791,2.791,0,0,1-2.25-.981,3.756,3.756,0,0,1-.828-2.51Zm1.25.14a3.258,3.258,0,0,0,.46,1.8,1.523,1.523,0,0,0,1.368.711,1.519,1.519,0,0,0,1.358-.711,3.24,3.24,0,0,0,.463-1.8V-3.5a3.231,3.231,0,0,0-.467-1.8,1.529,1.529,0,0,0-1.368-.717,1.508,1.508,0,0,0-1.355.717,3.265,3.265,0,0,0-.46,1.8ZM90.288-1.847a.833.833,0,0,0-.314-.673,3.033,3.033,0,0,0-1.19-.457,4.994,4.994,0,0,1-1.863-.73,1.474,1.474,0,0,1-.651-1.257A1.811,1.811,0,0,1,86.984-6.4a2.789,2.789,0,0,1,1.85-.6,2.764,2.764,0,0,1,1.892.635,1.819,1.819,0,0,1,.692,1.479l-.013.038H90.212a1.081,1.081,0,0,0-.39-.806,1.4,1.4,0,0,0-.987-.362,1.423,1.423,0,0,0-.987.3A.931.931,0,0,0,87.52-5a.753.753,0,0,0,.282.628,3.127,3.127,0,0,0,1.165.406,4.922,4.922,0,0,1,1.917.755,1.521,1.521,0,0,1,.654,1.276A1.808,1.808,0,0,1,90.8-.444a3.05,3.05,0,0,1-1.933.578A3.018,3.018,0,0,1,86.8-.533a1.9,1.9,0,0,1-.717-1.555l.013-.038h1.193a1.157,1.157,0,0,0,.5.974,1.916,1.916,0,0,0,1.085.308,1.71,1.71,0,0,0,1.044-.282A.864.864,0,0,0,90.288-1.847ZM95.9.133a2.906,2.906,0,0,1-2.307-.946A3.64,3.64,0,0,1,92.764-3.3V-3.58a3.563,3.563,0,0,1,.854-2.447A2.677,2.677,0,0,1,95.7-7a2.492,2.492,0,0,1,2.066.857,3.53,3.53,0,0,1,.689,2.279v.66H94.065l-.019.032A2.839,2.839,0,0,0,94.5-1.489a1.6,1.6,0,0,0,1.4.644,3.146,3.146,0,0,0,1.114-.181,2.487,2.487,0,0,0,.822-.5l.489.813a3.006,3.006,0,0,1-.971.6A3.869,3.869,0,0,1,95.9.133Zm-.2-6.145a1.359,1.359,0,0,0-1.082.5A2.387,2.387,0,0,0,94.1-4.215l.013.032h3.1v-.1a2,2,0,0,0-.368-1.238A1.331,1.331,0,0,0,95.7-6.011Zm7.37.248-.641-.038a1.432,1.432,0,0,0-.835.235,1.507,1.507,0,0,0-.524.66V0h-1.25V-6.868h1.117l.121,1a2.384,2.384,0,0,1,.72-.832,1.685,1.685,0,0,1,.987-.3,1.545,1.545,0,0,1,.267.022,1.767,1.767,0,0,1,.209.048Z" transform="translate(759.128 9276.307)"/>
      <g id="Grupo" transform="translate(759.128 9281.072)">
        <text id="Tr" transform="translate(0 12)" font-size="13" font-family="Roboto-Regular, Roboto" letter-spacing="-0.037em"><tspan x="0" y="0">Tr</tspan></text>
        <text id="a" transform="translate(12.562 12)" font-size="13" font-family="Roboto-Regular, Roboto" letter-spacing="-0.037em"><tspan x="0" y="0">a</tspan></text>
        <text id="b" transform="translate(20.202 12)" font-size="13" font-family="Roboto-Regular, Roboto" letter-spacing="-0.037em"><tspan x="0" y="0">b</tspan></text>
        <text id="i" transform="translate(28.092 12)" font-size="13" font-family="Roboto-Regular, Roboto" letter-spacing="-0.037em"><tspan x="0" y="0">i</tspan></text>
        <text id="l" transform="translate(31.549 12)" font-size="13" font-family="Roboto-Regular, Roboto" letter-spacing="-0.037em"><tspan x="0" y="0">l</tspan></text>
        <text id="l-2" data-name="l" transform="translate(35.006 12)" font-size="13" font-family="Roboto-Regular, Roboto" letter-spacing="-0.037em"><tspan x="0" y="0">l</tspan></text>
        <text id="a-2" data-name="a" transform="translate(38.463 12)" font-size="13" font-family="Roboto-Regular, Roboto" letter-spacing="-0.037em"><tspan x="0" y="0">a</tspan></text>
      </g>
      <path id="Trazado_729596" data-name="Trazado 729596" d="M681.5-32.228A16.272,16.272,0,0,1,697.772-48.5a16.272,16.272,0,0,1,16.272,16.272,16.272,16.272,0,0,1-16.272,16.272A16.272,16.272,0,0,1,681.5-32.228Z" transform="translate(164.19 9334.011)" fill="#fff" fill-rule="evenodd"/>
      <path id="Trazado_729597" data-name="Trazado 729597" d="M0,16.272A16.272,16.272,0,1,1,16.272,32.545,16.272,16.272,0,0,1,0,16.272Z" transform="translate(845.69 9285.511)" fill="none" stroke="#000" stroke-miterlimit="8" stroke-width="1"/>
      <path id="Trazado_731635" data-name="Trazado 731635" d="M5.547,0H4V-9.953L1.523-9.93v-1.187l4.023-.422Z" transform="translate(857.127 9305.935)"/>
    </g>
    <g id="Grupo_986700" data-name="Grupo 986700">
      <path id="Trazado_729598" data-name="Trazado 729598" d="M443.5-50.884h30.079V-60.5L492.81-41.269,473.579-22.038v-9.616H443.5Z" transform="translate(167.5 9334.5)" fill="#f5e6e9" fill-rule="evenodd"/>
      <path id="Trazado_729599" data-name="Trazado 729599" d="M0,9.616H30.079V0L49.31,19.231,30.079,38.462V28.847H0Z" transform="translate(610.5 9273.5)" fill="none" stroke="#000" stroke-miterlimit="8" stroke-width="1"/>
      <path id="Trazado_731632" data-name="Trazado 731632" d="M8.234,0H1.172V-1.055l3.57-4.258a10.726,10.726,0,0,0,1.293-1.84,3.07,3.07,0,0,0,.34-1.379,1.841,1.841,0,0,0-.461-1.293,1.639,1.639,0,0,0-1.273-.5,1.908,1.908,0,0,0-1.535.617,2.286,2.286,0,0,0-.527,1.539H1.094l-.016-.047a3.068,3.068,0,0,1,.93-2.355,3.566,3.566,0,0,1,2.633-.965,3.31,3.31,0,0,1,2.4.844,2.894,2.894,0,0,1,.875,2.18,3.476,3.476,0,0,1-.5,1.758A19.612,19.612,0,0,1,5.906-4.6L3.039-1.242l.016.039h5.18Z" transform="translate(630.923 9298.539)"/>
    </g>
    <path id="Trazado_729600" data-name="Trazado 729600" d="M0,0H36.875" transform="translate(574.483 9293.4)" fill="none" stroke="#000" stroke-miterlimit="8" stroke-width="0.5"/>
    <g id="Grupo_986699" data-name="Grupo 986699">
      <path id="Trazado_729602" data-name="Trazado 729602" d="M0,0H146.945V74.952H0Z" transform="translate(428.524 9257.896)" fill="#effefe" stroke="#000" stroke-miterlimit="8" stroke-width="1"/>
      <path id="Trazado_731630" data-name="Trazado 731630" d="M5.662-1.733H5.7L8.652-9.242h1.555V0H8.957V-6.925l-.038-.006L6.119,0H5.25L2.368-7.16l-.038.006V0H1.079V-9.242H2.723ZM16.384,0q-.063-.311-.1-.549a4.03,4.03,0,0,1-.041-.479,2.916,2.916,0,0,1-.911.828,2.329,2.329,0,0,1-1.209.333,2.245,2.245,0,0,1-1.635-.549,2.02,2.02,0,0,1-.562-1.514,1.774,1.774,0,0,1,.8-1.539,3.72,3.72,0,0,1,2.161-.555h1.358V-4.7a1.26,1.26,0,0,0-.368-.955,1.446,1.446,0,0,0-1.041-.352,1.51,1.51,0,0,0-.984.3.914.914,0,0,0-.375.73l-1.187.013L12.277-5a1.644,1.644,0,0,1,.7-1.371A2.907,2.907,0,0,1,14.9-7a2.836,2.836,0,0,1,1.879.594,2.1,2.1,0,0,1,.711,1.711v3.307a6.437,6.437,0,0,0,.038.711,3.656,3.656,0,0,0,.14.673ZM14.308-.914a2.226,2.226,0,0,0,1.225-.349,1.659,1.659,0,0,0,.711-.8V-3.18h-1.4a1.82,1.82,0,0,0-1.209.381,1.139,1.139,0,0,0-.454.9.942.942,0,0,0,.286.724A1.2,1.2,0,0,0,14.308-.914Zm1.073-8.868h1.46l.013.038-1.708,1.65h-.939Zm3.606,6.475a4.584,4.584,0,0,1,.708-2.672A2.28,2.28,0,0,1,21.678-7a2.424,2.424,0,0,1,1.1.238,2.278,2.278,0,0,1,.813.689l.178-.8h.958V2.641h-1.25V-.647a2.143,2.143,0,0,1-.781.584,2.547,2.547,0,0,1-1.028.2A2.357,2.357,0,0,1,19.7-.778a3.785,3.785,0,0,1-.711-2.4Zm1.25.133a2.993,2.993,0,0,0,.428,1.685,1.472,1.472,0,0,0,1.317.644,1.624,1.624,0,0,0,.879-.229,1.879,1.879,0,0,0,.613-.641V-5.18a1.892,1.892,0,0,0-.613-.609A1.634,1.634,0,0,0,22-6.011a1.425,1.425,0,0,0-1.327.759,3.9,3.9,0,0,0-.432,1.946ZM30.984-1.016a2.326,2.326,0,0,1-.832.851,2.275,2.275,0,0,1-1.174.3,2.206,2.206,0,0,1-1.752-.717A3.33,3.33,0,0,1,26.6-2.818v-4.05h1.25v4.063a2.557,2.557,0,0,0,.324,1.511,1.2,1.2,0,0,0,1.009.413,2.057,2.057,0,0,0,1.1-.27,1.688,1.688,0,0,0,.657-.765V-6.868h1.25V0H31.067ZM35.326,0h-1.25V-6.868h1.25Zm0-8.626h-1.25V-9.9h1.25Zm3,1.758.089,1.022a2.494,2.494,0,0,1,.86-.847A2.3,2.3,0,0,1,40.456-7a2.242,2.242,0,0,1,1.72.651,2.856,2.856,0,0,1,.609,2.009V0h-1.25V-4.31A1.858,1.858,0,0,0,41.176-5.6a1.437,1.437,0,0,0-1.095-.381,1.939,1.939,0,0,0-.981.232,1.684,1.684,0,0,0-.638.651V0h-1.25V-6.868ZM48.784,0q-.063-.311-.1-.549a4.03,4.03,0,0,1-.041-.479,2.916,2.916,0,0,1-.911.828,2.329,2.329,0,0,1-1.209.333A2.245,2.245,0,0,1,44.89-.416a2.02,2.02,0,0,1-.562-1.514,1.774,1.774,0,0,1,.8-1.539,3.72,3.72,0,0,1,2.161-.555h1.358V-4.7a1.26,1.26,0,0,0-.368-.955,1.446,1.446,0,0,0-1.041-.352,1.51,1.51,0,0,0-.984.3.914.914,0,0,0-.375.73l-1.187.013L44.677-5a1.644,1.644,0,0,1,.7-1.371A2.907,2.907,0,0,1,47.305-7a2.836,2.836,0,0,1,1.879.594,2.1,2.1,0,0,1,.711,1.711v3.307a6.437,6.437,0,0,0,.038.711,3.656,3.656,0,0,0,.14.673ZM46.708-.914a2.226,2.226,0,0,0,1.225-.349,1.659,1.659,0,0,0,.711-.8V-3.18h-1.4a1.82,1.82,0,0,0-1.209.381,1.139,1.139,0,0,0-.454.9.942.942,0,0,0,.286.724A1.2,1.2,0,0,0,46.708-.914ZM54.58-3.307a4.584,4.584,0,0,1,.708-2.672A2.28,2.28,0,0,1,57.272-7a2.459,2.459,0,0,1,1.07.222,2.192,2.192,0,0,1,.8.647V-9.9h1.25V0H59.43l-.19-.87a2.229,2.229,0,0,1-.832.749,2.484,2.484,0,0,1-1.149.254,2.357,2.357,0,0,1-1.968-.911,3.785,3.785,0,0,1-.711-2.4Zm1.25.133a2.915,2.915,0,0,0,.425,1.666,1.485,1.485,0,0,0,1.32.625,1.656,1.656,0,0,0,.939-.254,1.9,1.9,0,0,0,.622-.711V-5.053a1.925,1.925,0,0,0-.625-.676,1.652,1.652,0,0,0-.924-.251,1.429,1.429,0,0,0-1.33.743,3.834,3.834,0,0,0-.428,1.93ZM65.061.133a2.906,2.906,0,0,1-2.307-.946A3.64,3.64,0,0,1,61.925-3.3V-3.58a3.563,3.563,0,0,1,.854-2.447A2.677,2.677,0,0,1,64.864-7a2.492,2.492,0,0,1,2.066.857,3.53,3.53,0,0,1,.689,2.279v.66H63.226l-.019.032a2.839,2.839,0,0,0,.457,1.679,1.6,1.6,0,0,0,1.4.644,3.146,3.146,0,0,0,1.114-.181,2.487,2.487,0,0,0,.822-.5l.489.813a3.006,3.006,0,0,1-.971.6A3.869,3.869,0,0,1,65.061.133Zm-.2-6.145a1.359,1.359,0,0,0-1.082.5,2.387,2.387,0,0,0-.524,1.292l.013.032h3.1v-.1A2,2,0,0,0,66-5.522,1.331,1.331,0,0,0,64.864-6.011ZM72.7,0V-5.941H71.625v-.927H72.7v-.87a2.357,2.357,0,0,1,.574-1.7,2.114,2.114,0,0,1,1.6-.6A2.758,2.758,0,0,1,75.31-10q.219.035.486.1l-.152.952q-.114-.025-.276-.044a2.908,2.908,0,0,0-.34-.019.987.987,0,0,0-.812.327,1.47,1.47,0,0,0-.267.949v.87h1.244v.927H73.948V0Zm3.428-3.5a3.781,3.781,0,0,1,.825-2.51A2.767,2.767,0,0,1,79.192-7a2.794,2.794,0,0,1,2.257.984A3.769,3.769,0,0,1,82.277-3.5v.14a3.763,3.763,0,0,1-.825,2.514A2.786,2.786,0,0,1,79.2.133a2.791,2.791,0,0,1-2.25-.981,3.756,3.756,0,0,1-.828-2.51Zm1.25.14a3.258,3.258,0,0,0,.46,1.8A1.523,1.523,0,0,0,79.2-.844a1.519,1.519,0,0,0,1.358-.711,3.24,3.24,0,0,0,.463-1.8V-3.5a3.231,3.231,0,0,0-.467-1.8,1.529,1.529,0,0,0-1.368-.717,1.508,1.508,0,0,0-1.355.717,3.265,3.265,0,0,0-.46,1.8Zm9.642-2.406L86.378-5.8a1.432,1.432,0,0,0-.835.235,1.507,1.507,0,0,0-.524.66V0h-1.25V-6.868h1.117l.121,1a2.384,2.384,0,0,1,.72-.832,1.685,1.685,0,0,1,.987-.3,1.545,1.545,0,0,1,.267.022,1.767,1.767,0,0,1,.209.048Zm4.514,0L90.891-5.8a1.432,1.432,0,0,0-.835.235,1.507,1.507,0,0,0-.524.66V0h-1.25V-6.868H89.4l.121,1a2.384,2.384,0,0,1,.72-.832,1.685,1.685,0,0,1,.987-.3,1.545,1.545,0,0,1,.267.022,1.767,1.767,0,0,1,.209.048ZM97.017,0q-.063-.311-.1-.549a4.03,4.03,0,0,1-.041-.479,2.916,2.916,0,0,1-.911.828,2.329,2.329,0,0,1-1.209.333,2.245,2.245,0,0,1-1.635-.549,2.02,2.02,0,0,1-.562-1.514,1.774,1.774,0,0,1,.8-1.539,3.72,3.72,0,0,1,2.161-.555h1.358V-4.7a1.26,1.26,0,0,0-.368-.955,1.446,1.446,0,0,0-1.041-.352,1.51,1.51,0,0,0-.984.3.914.914,0,0,0-.375.73l-1.187.013L92.91-5a1.644,1.644,0,0,1,.7-1.371A2.907,2.907,0,0,1,95.538-7a2.836,2.836,0,0,1,1.879.594,2.1,2.1,0,0,1,.711,1.711v3.307a6.437,6.437,0,0,0,.038.711,3.655,3.655,0,0,0,.14.673ZM94.941-.914a2.226,2.226,0,0,0,1.225-.349,1.659,1.659,0,0,0,.711-.8V-3.18h-1.4a1.82,1.82,0,0,0-1.209.381,1.139,1.139,0,0,0-.454.9.942.942,0,0,0,.286.724A1.2,1.2,0,0,0,94.941-.914Zm8.214-4.85-.641-.038a1.432,1.432,0,0,0-.835.235,1.507,1.507,0,0,0-.524.66V0h-1.25V-6.868h1.117l.121,1a2.384,2.384,0,0,1,.72-.832,1.685,1.685,0,0,1,.987-.3,1.545,1.545,0,0,1,.267.022,1.767,1.767,0,0,1,.209.048Z" transform="translate(439.497 9278.279)"/>
      <path id="Trazado_731629" data-name="Trazado 731629" d="M5.853-2.38H2.374L1.549,0H.273L3.605-9.242H4.678L7.941,0H6.665ZM2.736-3.428H5.5L4.151-7.4H4.113ZM10.5,0H9.254V-9.9H10.5Zm6.169,0q-.063-.311-.1-.549a4.03,4.03,0,0,1-.041-.479,2.916,2.916,0,0,1-.911.828,2.329,2.329,0,0,1-1.209.333A2.245,2.245,0,0,1,12.78-.416a2.02,2.02,0,0,1-.562-1.514,1.774,1.774,0,0,1,.8-1.539,3.72,3.72,0,0,1,2.161-.555h1.358V-4.7a1.26,1.26,0,0,0-.368-.955,1.446,1.446,0,0,0-1.041-.352,1.51,1.51,0,0,0-.984.3.914.914,0,0,0-.375.73l-1.187.013L12.567-5a1.644,1.644,0,0,1,.7-1.371A2.907,2.907,0,0,1,15.195-7a2.836,2.836,0,0,1,1.879.594,2.1,2.1,0,0,1,.711,1.711v3.307a6.437,6.437,0,0,0,.038.711,3.656,3.656,0,0,0,.14.673ZM14.6-.914a2.226,2.226,0,0,0,1.225-.349,1.659,1.659,0,0,0,.711-.8V-3.18h-1.4a1.82,1.82,0,0,0-1.209.381,1.139,1.139,0,0,0-.454.9.942.942,0,0,0,.286.724A1.2,1.2,0,0,0,14.6-.914Zm6.144-5.954.089.9a2.333,2.333,0,0,1,.854-.759,2.565,2.565,0,0,1,1.2-.27,2.125,2.125,0,0,1,1.177.317,1.92,1.92,0,0,1,.74.952,2.569,2.569,0,0,1,.86-.93A2.25,2.25,0,0,1,26.906-7a2.056,2.056,0,0,1,1.657.72,3.291,3.291,0,0,1,.609,2.168V0h-1.25V-4.12a2.283,2.283,0,0,0-.349-1.438,1.273,1.273,0,0,0-1.041-.422,1.325,1.325,0,0,0-1.038.444,1.934,1.934,0,0,0-.467,1.124V0H23.77V-4.12a2.252,2.252,0,0,0-.359-1.412,1.245,1.245,0,0,0-1.031-.448,1.718,1.718,0,0,0-.939.235,1.517,1.517,0,0,0-.565.66V0h-1.25V-6.868ZM36.877-3.174a3.774,3.774,0,0,1-.714,2.4A2.359,2.359,0,0,1,34.2.133a2.489,2.489,0,0,1-1.19-.27,2.209,2.209,0,0,1-.835-.8L31.97,0h-.958V-9.9h1.25v3.847a2.17,2.17,0,0,1,.8-.7A2.462,2.462,0,0,1,34.186-7a2.283,2.283,0,0,1,1.98,1.016,4.568,4.568,0,0,1,.711,2.672Zm-1.25-.133a3.791,3.791,0,0,0-.435-1.927,1.431,1.431,0,0,0-1.323-.746,1.637,1.637,0,0,0-.974.282,1.992,1.992,0,0,0-.632.759v2.977a2.045,2.045,0,0,0,.632.793,1.628,1.628,0,0,0,.987.286,1.486,1.486,0,0,0,1.314-.628,2.886,2.886,0,0,0,.432-1.663Zm6.049-2.457L41.034-5.8a1.432,1.432,0,0,0-.835.235,1.507,1.507,0,0,0-.524.66V0h-1.25V-6.868h1.117l.121,1a2.384,2.384,0,0,1,.72-.832,1.685,1.685,0,0,1,.987-.3,1.545,1.545,0,0,1,.267.022,1.767,1.767,0,0,1,.209.048Zm4.049,5.9a2.906,2.906,0,0,1-2.307-.946A3.64,3.64,0,0,1,42.589-3.3V-3.58a3.563,3.563,0,0,1,.854-2.447A2.677,2.677,0,0,1,45.528-7a2.492,2.492,0,0,1,2.066.857,3.53,3.53,0,0,1,.689,2.279v.66H43.89l-.019.032a2.839,2.839,0,0,0,.457,1.679,1.6,1.6,0,0,0,1.4.644,3.146,3.146,0,0,0,1.114-.181,2.487,2.487,0,0,0,.822-.5l.489.813a3.006,3.006,0,0,1-.971.6A3.869,3.869,0,0,1,45.724.133Zm-.2-6.145a1.359,1.359,0,0,0-1.082.5,2.387,2.387,0,0,0-.524,1.292l.013.032h3.1v-.1a2,2,0,0,0-.368-1.238A1.331,1.331,0,0,0,45.528-6.011Z" transform="translate(439.497 9295.045)"/>
      <g id="Grupo_986698" data-name="Grupo 986698">
        <path id="Trazado_729603" data-name="Trazado 729603" d="M357.5-30.228A16.272,16.272,0,0,1,373.772-46.5a16.272,16.272,0,0,1,16.272,16.272,16.272,16.272,0,0,1-16.272,16.272A16.272,16.272,0,0,1,357.5-30.228Z" transform="translate(168.5 9333.5)" fill="#fff" fill-rule="evenodd"/>
        <path id="Trazado_729604" data-name="Trazado 729604" d="M0,16.272A16.272,16.272,0,1,1,16.272,32.545,16.272,16.272,0,0,1,0,16.272Z" transform="translate(526.5 9287.5)" fill="none" stroke="#000" stroke-miterlimit="8" stroke-width="1"/>
        <path id="Trazado_731631" data-name="Trazado 731631" d="M5.547,0H4V-9.953L1.523-9.93v-1.187l4.023-.422Z" transform="translate(538.477 9309.539)"/>
      </g>
    </g>
    <g id="Grupo_986697" data-name="Grupo 986697">
      <path id="Trazado_729608" data-name="Trazado 729608" d="M2014-2157.363h303.914V-2183.3h71.912" transform="translate(-1762.007 11357.073)" fill="none" stroke="#707070" stroke-width="1"/>
      <g id="Grupo_986695" data-name="Grupo 986695">
        <path id="Trazado_729609" data-name="Trazado 729609" d="M0,21.2,21.2,0V10.6H44.379v21.2H21.2v10.6Z" transform="translate(453.5 9180.5)" fill="#f5e6e9" stroke="#000" stroke-miterlimit="8" stroke-width="1"/>
        <path id="Trazado_731627" data-name="Trazado 731627" d="M6.977-3.828h1.57v1.2H6.977V0H5.445V-2.625H.563v-.867l4.789-7.883H6.977Zm-4.766,0H5.445V-9.164L5.4-9.172l-.148.391Z" transform="translate(470.438 9207.375)"/>
      </g>
    </g>
    <g id="Grupo_986696" data-name="Grupo 986696">
      <path id="Trazado_729607" data-name="Trazado 729607" d="M2293.64-2224.5H2394" transform="translate(-1765.864 11357.642)" fill="none" stroke="#707070" stroke-width="1"/>
      <path id="Trazado_729568" data-name="Trazado 729568" d="M382.5-212.884h30.079V-222.5l19.231,19.231-19.231,19.231v-9.616H382.5Z" transform="translate(168.314 9336.41)" fill="#f5e6e9" fill-rule="evenodd"/>
      <path id="Trazado_729569" data-name="Trazado 729569" d="M0,9.616H30.079V0L49.31,19.231,30.079,38.462V28.847H0Z" transform="translate(550.814 9113.91)" fill="none" stroke="#000" stroke-miterlimit="8" stroke-width="1"/>
      <path id="Trazado_731628" data-name="Trazado 731628" d="M5.894,0H4.25V-10.575l-2.631.025v-1.262l4.275-.448ZM18.2-4.267a4.77,4.77,0,0,1-1.042,3.246,3.528,3.528,0,0,1-2.8,1.2,3.544,3.544,0,0,1-2.8-1.2A4.745,4.745,0,0,1,10.5-4.267V-7.819a4.776,4.776,0,0,1,1.042-3.237,3.507,3.507,0,0,1,2.793-1.2,3.542,3.542,0,0,1,2.81,1.2A4.752,4.752,0,0,1,18.2-7.819ZM16.56-8.16a3.3,3.3,0,0,0-.581-2.059,1.953,1.953,0,0,0-1.644-.755,1.921,1.921,0,0,0-1.627.755,3.331,3.331,0,0,0-.573,2.059v4.225a3.317,3.317,0,0,0,.585,2.067,1.938,1.938,0,0,0,1.631.764,1.926,1.926,0,0,0,1.635-.76,3.365,3.365,0,0,0,.573-2.071Z" transform="translate(572.864 9140.08)"/>
    </g>
    <g id="Grupo_986689" data-name="Grupo 986689">
      <path id="Trazado_729605" data-name="Trazado 729605" d="M2088.836-2364.02h-83.223v82.457" transform="translate(-1761.891 11359.97)" fill="none" stroke="#707070" stroke-width="1"/>
      <path id="Trazado_729548" data-name="Trazado 729548" d="M43.5-349.4H73.086v-10.1L92.81-339.3,73.086-319.1v-10.1H43.5Z" transform="translate(172.99 9338.3)" fill="#f5e6e9" fill-rule="evenodd"/>
      <path id="Trazado_729549" data-name="Trazado 729549" d="M0,10.1H29.586V0L49.31,20.2,29.586,40.4V30.3H0Z" transform="translate(216.49 8978.8)" fill="none" stroke="#000" stroke-miterlimit="8" stroke-width="1"/>
      <path id="Trazado_731613" data-name="Trazado 731613" d="M6.24.313H4.5V-11.154l-2.786.027V-12.5l4.526-.486Z" transform="translate(244 9006.343)"/>
    </g>
    <g id="Grupo_986694" data-name="Grupo 986694">
      <path id="Trazado_729606" data-name="Trazado 729606" d="M2171.352-2285.82v-24.686h118.229v-33.936" transform="translate(-1764.177 11359.296)" fill="none" stroke="#707070" stroke-width="1"/>
      <path id="Trazado_729558" data-name="Trazado 729558" d="M275.5-288.748,293.252-306.5v8.876h21.7v17.752h-21.7V-271Z" transform="translate(169.79 9337.569)" fill="#f5e6e9" fill-rule="evenodd"/>
      <path id="Trazado_729559" data-name="Trazado 729559" d="M0,17.752,17.752,0V8.876h21.7V26.628h-21.7V35.5Z" transform="translate(445.29 9031.069)" fill="none" stroke="#000" stroke-miterlimit="8" stroke-width="1"/>
      <path id="Trazado_731626" data-name="Trazado 731626" d="M5.008-11.539a6.679,6.679,0,0,1,1.328.133,4.8,4.8,0,0,1,1.086.336l-.328,1.18a5.748,5.748,0,0,0-.937-.316,4.842,4.842,0,0,0-1.148-.121,2.06,2.06,0,0,0-1.738.914A3.817,3.817,0,0,0,2.6-7.1v.883a3.48,3.48,0,0,1,1.129-.75,3.591,3.591,0,0,1,1.4-.273,2.921,2.921,0,0,1,2.324.984,3.8,3.8,0,0,1,.855,2.586A3.97,3.97,0,0,1,7.355-.879,3.333,3.333,0,0,1,4.773.164a3.385,3.385,0,0,1-2.641-1.2A4.767,4.767,0,0,1,1.07-4.312V-6.93a4.849,4.849,0,0,1,1.137-3.3A3.572,3.572,0,0,1,5.008-11.539ZM4.641-6.094a2.4,2.4,0,0,0-1.246.309,2.065,2.065,0,0,0-.793.832v.789A3.731,3.731,0,0,0,3.23-1.879a1.872,1.872,0,0,0,1.543.84,1.708,1.708,0,0,0,1.48-.73,3.21,3.21,0,0,0,.52-1.9,2.634,2.634,0,0,0-.559-1.766A1.954,1.954,0,0,0,4.641-6.094Z" transform="translate(457.445 9053.466)"/>
    </g>
  </g>
</svg>
