<svg id="adjunto-archivo" xmlns="http://www.w3.org/2000/svg" width="59.096" height="65.061" viewBox="0 0 59.096 65.061">
  <g id="Grupo_960316" data-name="Grupo 960316" transform="translate(0.953 0.953)">
    <path id="Trazado_113940" data-name="Trazado 113940" d="M172.037,51.85h-32a1.7,1.7,0,0,1-1.7-1.7V9.2a1.7,1.7,0,0,1,1.7-1.7h32a1.7,1.7,0,0,1,1.7,1.7V50.148A1.7,1.7,0,0,1,172.037,51.85Z" transform="translate(-124.695 -7.5)" fill="#c8effe"/>
    <path id="Trazado_113941" data-name="Trazado 113941" d="M384.186,9.2V50.148a1.7,1.7,0,0,1-1.7,1.7H379.42a1.7,1.7,0,0,0,1.7-1.7V9.2a1.7,1.7,0,0,0-1.7-1.7h3.064A1.7,1.7,0,0,1,384.186,9.2Z" transform="translate(-335.142 -7.5)" fill="#99e6fc"/>
    <path id="Trazado_113942" data-name="Trazado 113942" d="M97.232,95.529h-32a1.7,1.7,0,0,1-1.7-1.7V52.881a1.7,1.7,0,0,1,1.7-1.7h32a1.7,1.7,0,0,1,1.7,1.7V93.827A1.7,1.7,0,0,1,97.232,95.529Z" transform="translate(-59.395 -45.629)" fill="#eaf6ff"/>
    <path id="Trazado_113943" data-name="Trazado 113943" d="M309.814,52.882V93.828a1.7,1.7,0,0,1-1.7,1.7h-3a1.7,1.7,0,0,0,1.7-1.7V52.882a1.7,1.7,0,0,0-1.7-1.7h3a1.7,1.7,0,0,1,1.7,1.7Z" transform="translate(-270.274 -45.629)" fill="#c8effe"/>
    <path id="Trazado_113944" data-name="Trazado 113944" d="M84.152,167.618v32.564a4.34,4.34,0,0,1-4.34,4.34h-44.5a4.34,4.34,0,0,1-4.341-4.34V175.213a4.34,4.34,0,0,1,4.341-4.34H55.254a4.174,4.174,0,0,0,3.787-2.419l.8-1.724a4.174,4.174,0,0,1,3.787-2.419H80.845A3.307,3.307,0,0,1,84.152,167.618Z" transform="translate(-30.97 -144.384)" fill="#ffd15b"/>
    <path id="Trazado_113945" data-name="Trazado 113945" d="M398.048,167.618v32.564a4.34,4.34,0,0,1-4.34,4.34H390.56a4.34,4.34,0,0,0,4.34-4.34V167.618a3.307,3.307,0,0,0-3.306-3.308h3.148A3.307,3.307,0,0,1,398.048,167.618Z" transform="translate(-344.866 -144.384)" fill="#feb137"/>
    <path id="Trazado_113946" data-name="Trazado 113946" d="M265.983,289.827v17.742a4.34,4.34,0,0,1-4.34,4.34H239.852a5.452,5.452,0,0,1-.582-2.459V292.807a5.477,5.477,0,0,1,5.477-5.477h16.641A5.468,5.468,0,0,1,265.983,289.827Z" transform="translate(-212.801 -251.771)" fill="#feb137"/>
    <path id="Trazado_113947" data-name="Trazado 113947" d="M285.979,314.929H269.337a5.477,5.477,0,0,1-5.477-5.477V292.81a5.477,5.477,0,0,1,5.477-5.477h16.642a5.477,5.477,0,0,1,5.477,5.477v16.642A5.477,5.477,0,0,1,285.979,314.929Z" transform="translate(-234.266 -251.774)" fill="#0593fc"/>
    <path id="Trazado_113948" data-name="Trazado 113948" d="M416.459,287.333h-3.125a5.477,5.477,0,0,1,5.477,5.477v16.642a5.477,5.477,0,0,1-5.477,5.477h3.125a5.477,5.477,0,0,0,5.477-5.477V292.81A5.477,5.477,0,0,0,416.459,287.333Z" transform="translate(-364.746 -251.774)" fill="#0181fa"/>
    <path id="Trazado_113949" data-name="Trazado 113949" d="M328.459,335.266l-4.942,6.159a2.506,2.506,0,0,1-3.909,0l-4.942-6.159a2.34,2.34,0,0,1,1.814-3.783H318.4v-6.119a1.251,1.251,0,0,1,1.251-1.251h3.83a1.251,1.251,0,0,1,1.251,1.251v6.119h1.917A2.34,2.34,0,0,1,328.459,335.266Z" transform="translate(-278.17 -283.881)" fill="#c8effe"/>
    <path id="Trazado_113950" data-name="Trazado 113950" d="M364.03,335.266l-4.942,6.159a2.506,2.506,0,0,1-3.909,0l-.274-.341a2.491,2.491,0,0,0,2.012-.935l3.989-4.883a2.34,2.34,0,0,0-1.814-3.783h-.837a1.08,1.08,0,0,1-1.08-1.08v-5.039a1.251,1.251,0,0,0-1.251-1.251h3.125a1.251,1.251,0,0,1,1.251,1.251v6.119h1.917A2.34,2.34,0,0,1,364.03,335.266Z" transform="translate(-313.741 -283.881)" fill="#99e6fc"/>
    <path id="Trazado_113951" data-name="Trazado 113951" d="M90.416,292.53H76.628a1.572,1.572,0,0,1-1.572-1.572V288.9a1.572,1.572,0,0,1,1.572-1.572H90.416a1.572,1.572,0,0,1,1.572,1.572v2.053A1.572,1.572,0,0,1,90.416,292.53Z" transform="translate(-69.454 -251.774)" fill="#eaf6ff"/>
    <path id="Trazado_113952" data-name="Trazado 113952" d="M180.131,288.9v2.053a1.572,1.572,0,0,1-1.572,1.572H176.03a1.571,1.571,0,0,0,1.572-1.572V288.9a1.571,1.571,0,0,0-1.572-1.572h2.529A1.572,1.572,0,0,1,180.131,288.9Z" transform="translate(-157.597 -251.771)" fill="#c8effe"/>
    <path id="Trazado_113953" data-name="Trazado 113953" d="M111.949,95.849h-6.074a1.733,1.733,0,0,1,0-3.466h6.074a1.733,1.733,0,1,1,0,3.466Z" transform="translate(-94.844 -81.597)" fill="#0593fc"/>
    <path id="Trazado_113954" data-name="Trazado 113954" d="M149.609,94.113a1.733,1.733,0,0,1-1.732,1.733H145.3a1.733,1.733,0,1,0,0-3.467h2.577A1.733,1.733,0,0,1,149.609,94.113Z" transform="translate(-130.772 -81.594)" fill="#0181fa"/>
  </g>
  <g id="Grupo_960317" data-name="Grupo 960317" transform="translate(0 0)">
    <path id="Trazado_113955" data-name="Trazado 113955" d="M78.561,36.034V24.187a4.265,4.265,0,0,0-4.26-4.26H64.918V8.206A2.658,2.658,0,0,0,62.263,5.55H39.022v-2.9a.75.75,0,0,1,.749-.749h32a.75.75,0,0,1,.749.749V16.387a.953.953,0,0,0,1.906,0V2.655A2.658,2.658,0,0,0,71.768,0h-32a2.658,2.658,0,0,0-2.655,2.655V5.55h-6.85A2.658,2.658,0,0,0,27.61,8.206V26.617a5.3,5.3,0,0,0-4.137,5.164V56.75a5.3,5.3,0,0,0,5.293,5.293H49.8a.953.953,0,1,0,0-1.906H28.766a3.391,3.391,0,0,1-3.387-3.387V31.782a3.391,3.391,0,0,1,3.387-3.387H48.709a5.143,5.143,0,0,0,4.652-2.971l.8-1.725a3.231,3.231,0,0,1,2.922-1.866H74.3a2.357,2.357,0,0,1,2.354,2.354v11.4c-.171-.014-.342-.023-.516-.023H59.5a6.437,6.437,0,0,0-6.43,6.43V58.631a6.437,6.437,0,0,0,6.43,6.43H76.138a6.437,6.437,0,0,0,6.43-6.43V41.989a6.439,6.439,0,0,0-4.008-5.955ZM52.43,22.9l-.8,1.725a3.231,3.231,0,0,1-2.922,1.866H29.516V8.206a.75.75,0,0,1,.749-.749h32a.75.75,0,0,1,.749.749V19.926h-5.93A5.144,5.144,0,0,0,52.43,22.9ZM80.662,58.631a4.529,4.529,0,0,1-4.524,4.524H59.5a4.529,4.529,0,0,1-4.524-4.524V41.989A4.529,4.529,0,0,1,59.5,37.465H76.138a4.593,4.593,0,0,1,4.524,4.524V58.631Z" transform="translate(-23.473 0)"/>
    <path id="Trazado_113956" data-name="Trazado 113956" d="M320.065,323.983h-.951v-5.165a2.206,2.206,0,0,0-2.2-2.2h-3.83a2.206,2.206,0,0,0-2.2,2.2v5.165h-.951a3.293,3.293,0,0,0-2.563,5.341l4.935,6.15a3.443,3.443,0,0,0,2.7,1.294h0a3.443,3.443,0,0,0,2.7-1.294l4.935-6.15a3.293,3.293,0,0,0-2.563-5.341Zm1.1,4.119-.016.02-4.942,6.159a1.553,1.553,0,0,1-2.423,0l-4.942-6.159-.016-.019a1.392,1.392,0,0,1,1.021-2.214h1.983a.953.953,0,0,0,.953-.953v-6.119a.3.3,0,0,1,.3-.3h3.83a.3.3,0,0,1,.3.3v6.119a.953.953,0,0,0,.953.953h1.944a1.3,1.3,0,0,1,1.192.782A1.317,1.317,0,0,1,321.165,328.1Z" transform="translate(-270.651 -276.381)"/>
    <path id="Trazado_113957" data-name="Trazado 113957" d="M70.082,279.833a2.528,2.528,0,0,0-2.525,2.525v2.053a2.528,2.528,0,0,0,2.525,2.525H83.87a2.528,2.528,0,0,0,2.525-2.525v-2.053a2.528,2.528,0,0,0-2.525-2.525Zm14.407,2.525v2.053a.619.619,0,0,1-.619.619H70.082a.619.619,0,0,1-.619-.619v-2.053a.619.619,0,0,1,.619-.619H83.87A.62.62,0,0,1,84.489,282.358Z" transform="translate(-61.955 -244.274)"/>
    <path id="Trazado_113958" data-name="Trazado 113958" d="M99.328,90.255H105.4a2.686,2.686,0,1,0,0-5.372H99.328a2.686,2.686,0,0,0,0,5.372Zm0-3.466H105.4a.78.78,0,1,1,0,1.56H99.328a.78.78,0,0,1,0-1.56Z" transform="translate(-87.344 -74.097)"/>
    <path id="Trazado_113959" data-name="Trazado 113959" d="M213.939,98.521H201.87a.953.953,0,1,0,0,1.906h12.069a.953.953,0,0,0,0-1.906Z" transform="translate(-178.369 -86.002)"/>
    <path id="Trazado_113960" data-name="Trazado 113960" d="M162.193,141.1h-7.907a.953.953,0,1,0,0,1.906h7.907a.953.953,0,1,0,0-1.906Z" transform="translate(-136.831 -123.172)"/>
    <path id="Trazado_113961" data-name="Trazado 113961" d="M97.6,143.008h2.694a.953.953,0,1,0,0-1.906H97.6a.953.953,0,1,0,0,1.906Z" transform="translate(-87.345 -123.172)"/>
    <path id="Trazado_113962" data-name="Trazado 113962" d="M112.707,171.682H97.6a.953.953,0,0,0,0,1.906h15.111a.953.953,0,0,0,0-1.906Z" transform="translate(-87.345 -149.866)"/>
  </g>
</svg>
